G75*
%MOIN*%
%OFA0B0*%
%FSLAX25Y25*%
%IPPOS*%
%LPD*%
%AMOC8*
5,1,8,0,0,1.08239X$1,22.5*
%
%ADD10R,0.07087X0.03937*%
%ADD11R,0.00984X0.01772*%
%ADD12R,0.02756X0.03543*%
%ADD13R,0.03543X0.02756*%
%ADD14R,0.01772X0.01063*%
%ADD15R,0.01063X0.01772*%
%ADD16R,0.04331X0.03937*%
%ADD17R,0.03937X0.04331*%
%ADD18R,0.03150X0.03150*%
%ADD19R,0.20276X0.20276*%
%ADD20C,0.01181*%
%ADD21R,1.85039X0.08661*%
%ADD22R,1.85039X0.04331*%
%ADD23R,0.04528X0.05512*%
%ADD24R,0.03346X0.00906*%
%ADD25R,0.03937X0.00906*%
%ADD26R,0.05433X0.07087*%
%ADD27R,0.07874X0.06693*%
%ADD28R,0.03937X0.03937*%
%ADD29C,0.03378*%
%ADD30R,0.01575X0.03346*%
%ADD31R,0.01575X0.06693*%
%ADD32R,0.01575X0.01575*%
%ADD33R,0.01772X0.05315*%
%ADD34R,0.04724X0.03150*%
%ADD35R,0.03150X0.04724*%
%ADD36C,0.01000*%
%ADD37C,0.00600*%
%ADD38C,0.02978*%
%ADD39C,0.04000*%
%ADD40C,0.01600*%
D10*
X0065738Y0059917D03*
X0065738Y0069760D03*
D11*
X0099045Y0068893D03*
X0101014Y0068893D03*
X0102982Y0068893D03*
X0102982Y0072043D03*
X0101014Y0072043D03*
X0099045Y0072043D03*
D12*
X0078691Y0069838D03*
X0073573Y0069838D03*
X0076919Y0049720D03*
X0076880Y0044602D03*
X0081998Y0044602D03*
X0082037Y0049720D03*
X0069911Y0044563D03*
X0064793Y0044563D03*
X0086841Y0036059D03*
X0091959Y0036059D03*
X0099203Y0035941D03*
X0104321Y0035941D03*
X0101250Y0046019D03*
X0101132Y0050783D03*
X0096014Y0050783D03*
X0096132Y0046019D03*
X0131178Y0042142D03*
X0136296Y0042142D03*
X0147440Y0064811D03*
X0147350Y0069125D03*
X0152468Y0069125D03*
X0152558Y0064811D03*
D13*
X0135416Y0077182D03*
X0135416Y0082300D03*
X0128192Y0092801D03*
X0123707Y0092837D03*
X0119398Y0092776D03*
X0115189Y0092791D03*
X0115189Y0097910D03*
X0119398Y0097894D03*
X0123707Y0097955D03*
X0128192Y0097919D03*
X0094800Y0074048D03*
X0094800Y0068929D03*
X0073219Y0063657D03*
X0073219Y0058539D03*
D14*
X0074459Y0022653D03*
X0074459Y0020960D03*
X0074459Y0019267D03*
X0074459Y0017575D03*
X0074459Y0015882D03*
X0074459Y0014189D03*
X0074459Y0012496D03*
X0074459Y0010803D03*
X0064813Y0010803D03*
X0064813Y0012496D03*
X0064813Y0014189D03*
X0064813Y0015882D03*
X0064813Y0017575D03*
X0064813Y0019267D03*
X0064813Y0020960D03*
X0064813Y0022653D03*
D15*
X0067096Y0022535D03*
X0068789Y0022535D03*
X0070482Y0022535D03*
X0072175Y0022535D03*
X0072175Y0010921D03*
X0070482Y0010921D03*
X0068789Y0010921D03*
X0067096Y0010921D03*
D16*
X0082395Y0077541D03*
X0089087Y0077541D03*
X0068732Y0082379D03*
X0062039Y0082379D03*
X0123203Y0085079D03*
X0129896Y0085079D03*
X0132833Y0097250D03*
X0139526Y0097250D03*
D17*
X0075662Y0082687D03*
X0075662Y0075995D03*
X0063541Y0088954D03*
X0063541Y0095647D03*
D18*
X0089636Y0051295D03*
X0089636Y0045389D03*
X0095581Y0040980D03*
X0101486Y0040980D03*
X0140180Y0077243D03*
X0140180Y0083149D03*
D19*
X0120266Y0060744D03*
D20*
X0132667Y0061728D02*
X0132667Y0061728D01*
X0134243Y0061728D01*
X0134243Y0061728D01*
X0132667Y0061728D01*
X0132667Y0059760D02*
X0132667Y0059760D01*
X0134243Y0059760D01*
X0134243Y0059760D01*
X0132667Y0059760D01*
X0132667Y0057791D02*
X0132667Y0057791D01*
X0134243Y0057791D01*
X0134243Y0057791D01*
X0132667Y0057791D01*
X0132667Y0055823D02*
X0132667Y0055823D01*
X0134243Y0055823D01*
X0134243Y0055823D01*
X0132667Y0055823D01*
X0132667Y0053854D02*
X0132667Y0053854D01*
X0134243Y0053854D01*
X0134243Y0053854D01*
X0132667Y0053854D01*
X0132667Y0051886D02*
X0132667Y0051886D01*
X0134243Y0051886D01*
X0134243Y0051886D01*
X0132667Y0051886D01*
X0132667Y0049917D02*
X0132667Y0049917D01*
X0134243Y0049917D01*
X0134243Y0049917D01*
X0132667Y0049917D01*
X0131093Y0048343D02*
X0131093Y0048343D01*
X0131093Y0046767D01*
X0131093Y0046767D01*
X0131093Y0048343D01*
X0131093Y0047947D02*
X0131093Y0047947D01*
X0129124Y0048343D02*
X0129124Y0048343D01*
X0129124Y0046767D01*
X0129124Y0046767D01*
X0129124Y0048343D01*
X0129124Y0047947D02*
X0129124Y0047947D01*
X0127156Y0048343D02*
X0127156Y0048343D01*
X0127156Y0046767D01*
X0127156Y0046767D01*
X0127156Y0048343D01*
X0127156Y0047947D02*
X0127156Y0047947D01*
X0125187Y0048343D02*
X0125187Y0048343D01*
X0125187Y0046767D01*
X0125187Y0046767D01*
X0125187Y0048343D01*
X0125187Y0047947D02*
X0125187Y0047947D01*
X0123219Y0048343D02*
X0123219Y0048343D01*
X0123219Y0046767D01*
X0123219Y0046767D01*
X0123219Y0048343D01*
X0123219Y0047947D02*
X0123219Y0047947D01*
X0121250Y0048343D02*
X0121250Y0048343D01*
X0121250Y0046767D01*
X0121250Y0046767D01*
X0121250Y0048343D01*
X0121250Y0047947D02*
X0121250Y0047947D01*
X0119281Y0048343D02*
X0119281Y0048343D01*
X0119281Y0046767D01*
X0119281Y0046767D01*
X0119281Y0048343D01*
X0119281Y0047947D02*
X0119281Y0047947D01*
X0117313Y0048343D02*
X0117313Y0048343D01*
X0117313Y0046767D01*
X0117313Y0046767D01*
X0117313Y0048343D01*
X0117313Y0047947D02*
X0117313Y0047947D01*
X0115344Y0048343D02*
X0115344Y0048343D01*
X0115344Y0046767D01*
X0115344Y0046767D01*
X0115344Y0048343D01*
X0115344Y0047947D02*
X0115344Y0047947D01*
X0113376Y0048343D02*
X0113376Y0048343D01*
X0113376Y0046767D01*
X0113376Y0046767D01*
X0113376Y0048343D01*
X0113376Y0047947D02*
X0113376Y0047947D01*
X0111407Y0048343D02*
X0111407Y0048343D01*
X0111407Y0046767D01*
X0111407Y0046767D01*
X0111407Y0048343D01*
X0111407Y0047947D02*
X0111407Y0047947D01*
X0109439Y0048343D02*
X0109439Y0048343D01*
X0109439Y0046767D01*
X0109439Y0046767D01*
X0109439Y0048343D01*
X0109439Y0047947D02*
X0109439Y0047947D01*
X0107865Y0049917D02*
X0107865Y0049917D01*
X0106289Y0049917D01*
X0106289Y0049917D01*
X0107865Y0049917D01*
X0107865Y0051886D02*
X0107865Y0051886D01*
X0106289Y0051886D01*
X0106289Y0051886D01*
X0107865Y0051886D01*
X0107865Y0053854D02*
X0107865Y0053854D01*
X0106289Y0053854D01*
X0106289Y0053854D01*
X0107865Y0053854D01*
X0107865Y0055823D02*
X0107865Y0055823D01*
X0106289Y0055823D01*
X0106289Y0055823D01*
X0107865Y0055823D01*
X0107865Y0057791D02*
X0107865Y0057791D01*
X0106289Y0057791D01*
X0106289Y0057791D01*
X0107865Y0057791D01*
X0107865Y0059760D02*
X0107865Y0059760D01*
X0106289Y0059760D01*
X0106289Y0059760D01*
X0107865Y0059760D01*
X0107865Y0061728D02*
X0107865Y0061728D01*
X0106289Y0061728D01*
X0106289Y0061728D01*
X0107865Y0061728D01*
X0107865Y0063697D02*
X0107865Y0063697D01*
X0106289Y0063697D01*
X0106289Y0063697D01*
X0107865Y0063697D01*
X0107865Y0065665D02*
X0107865Y0065665D01*
X0106289Y0065665D01*
X0106289Y0065665D01*
X0107865Y0065665D01*
X0107865Y0067634D02*
X0107865Y0067634D01*
X0106289Y0067634D01*
X0106289Y0067634D01*
X0107865Y0067634D01*
X0107865Y0069602D02*
X0107865Y0069602D01*
X0106289Y0069602D01*
X0106289Y0069602D01*
X0107865Y0069602D01*
X0107865Y0071571D02*
X0107865Y0071571D01*
X0106289Y0071571D01*
X0106289Y0071571D01*
X0107865Y0071571D01*
X0109439Y0073145D02*
X0109439Y0073145D01*
X0109439Y0074721D01*
X0109439Y0074721D01*
X0109439Y0073145D01*
X0109439Y0074325D02*
X0109439Y0074325D01*
X0111407Y0073145D02*
X0111407Y0073145D01*
X0111407Y0074721D01*
X0111407Y0074721D01*
X0111407Y0073145D01*
X0111407Y0074325D02*
X0111407Y0074325D01*
X0113376Y0073145D02*
X0113376Y0073145D01*
X0113376Y0074721D01*
X0113376Y0074721D01*
X0113376Y0073145D01*
X0113376Y0074325D02*
X0113376Y0074325D01*
X0115344Y0073145D02*
X0115344Y0073145D01*
X0115344Y0074721D01*
X0115344Y0074721D01*
X0115344Y0073145D01*
X0115344Y0074325D02*
X0115344Y0074325D01*
X0117313Y0074721D02*
X0117313Y0074721D01*
X0117313Y0073145D01*
X0117313Y0073145D01*
X0117313Y0074721D01*
X0117313Y0074325D02*
X0117313Y0074325D01*
X0119281Y0074721D02*
X0119281Y0074721D01*
X0119281Y0073145D01*
X0119281Y0073145D01*
X0119281Y0074721D01*
X0119281Y0074325D02*
X0119281Y0074325D01*
X0121250Y0074721D02*
X0121250Y0074721D01*
X0121250Y0073145D01*
X0121250Y0073145D01*
X0121250Y0074721D01*
X0121250Y0074325D02*
X0121250Y0074325D01*
X0123219Y0074721D02*
X0123219Y0074721D01*
X0123219Y0073145D01*
X0123219Y0073145D01*
X0123219Y0074721D01*
X0123219Y0074325D02*
X0123219Y0074325D01*
X0125187Y0073145D02*
X0125187Y0073145D01*
X0125187Y0074721D01*
X0125187Y0074721D01*
X0125187Y0073145D01*
X0125187Y0074325D02*
X0125187Y0074325D01*
X0127156Y0073145D02*
X0127156Y0073145D01*
X0127156Y0074721D01*
X0127156Y0074721D01*
X0127156Y0073145D01*
X0127156Y0074325D02*
X0127156Y0074325D01*
X0129124Y0073145D02*
X0129124Y0073145D01*
X0129124Y0074721D01*
X0129124Y0074721D01*
X0129124Y0073145D01*
X0129124Y0074325D02*
X0129124Y0074325D01*
X0131093Y0073145D02*
X0131093Y0073145D01*
X0131093Y0074721D01*
X0131093Y0074721D01*
X0131093Y0073145D01*
X0131093Y0074325D02*
X0131093Y0074325D01*
X0132667Y0071571D02*
X0132667Y0071571D01*
X0134243Y0071571D01*
X0134243Y0071571D01*
X0132667Y0071571D01*
X0132667Y0069602D02*
X0132667Y0069602D01*
X0134243Y0069602D01*
X0134243Y0069602D01*
X0132667Y0069602D01*
X0132667Y0067634D02*
X0132667Y0067634D01*
X0134243Y0067634D01*
X0134243Y0067634D01*
X0132667Y0067634D01*
X0132667Y0065665D02*
X0132667Y0065665D01*
X0134243Y0065665D01*
X0134243Y0065665D01*
X0132667Y0065665D01*
X0132667Y0063697D02*
X0132667Y0063697D01*
X0134243Y0063697D01*
X0134243Y0063697D01*
X0132667Y0063697D01*
D21*
X0099763Y0110556D03*
D22*
X0099763Y0191461D03*
D23*
X0103691Y0089956D03*
X0109990Y0089956D03*
X0109990Y0081295D03*
X0103691Y0081295D03*
D24*
X0192254Y0076334D03*
X0192254Y0074760D03*
X0192254Y0073185D03*
X0192254Y0071610D03*
X0192254Y0070035D03*
X0192254Y0068460D03*
X0192254Y0066886D03*
X0192254Y0065311D03*
X0192254Y0063736D03*
X0192254Y0062161D03*
D25*
X0187431Y0062949D03*
X0187431Y0064523D03*
X0187431Y0066098D03*
X0187431Y0067673D03*
X0187431Y0069248D03*
X0187431Y0070823D03*
X0187431Y0072397D03*
X0187431Y0073972D03*
X0187431Y0075547D03*
D26*
X0186683Y0080468D03*
X0186683Y0058027D03*
D27*
X0173455Y0058027D03*
X0173455Y0080468D03*
D28*
X0056648Y0082345D03*
D29*
X0007436Y0011479D03*
X0007436Y0019353D03*
X0007436Y0027227D03*
X0007436Y0035101D03*
X0007436Y0042975D03*
X0007436Y0050849D03*
X0007436Y0058723D03*
X0007436Y0066597D03*
X0007436Y0074471D03*
X0007436Y0082345D03*
X0031058Y0074471D03*
X0031058Y0066597D03*
X0031058Y0058723D03*
X0031058Y0050849D03*
X0031058Y0042975D03*
X0031058Y0035101D03*
X0031058Y0027227D03*
X0031058Y0019353D03*
X0031058Y0011479D03*
D30*
X0074207Y0095111D03*
D31*
X0076963Y0096784D03*
X0071452Y0096784D03*
D32*
X0074207Y0099343D03*
D33*
X0144761Y0097278D03*
X0147320Y0097278D03*
X0149879Y0097278D03*
X0152438Y0097278D03*
X0152438Y0081727D03*
X0149879Y0081727D03*
X0147320Y0081727D03*
X0144761Y0081727D03*
D34*
X0160241Y0086728D03*
X0160241Y0093815D03*
D35*
X0175442Y0089501D03*
X0182529Y0089501D03*
D36*
X0175442Y0089501D02*
X0166560Y0096473D01*
X0166645Y0091078D02*
X0166645Y0088301D01*
X0164798Y0086742D01*
X0160241Y0086728D01*
X0164532Y0080468D01*
X0173455Y0080468D01*
X0186683Y0080468D01*
X0186683Y0058027D02*
X0173455Y0058027D01*
X0152468Y0069125D02*
X0148305Y0073288D01*
X0147320Y0074273D01*
X0147320Y0081727D01*
X0144761Y0081727D02*
X0144761Y0089752D01*
X0141713Y0092801D01*
X0128192Y0092801D01*
X0132833Y0097250D02*
X0132611Y0098577D01*
X0132611Y0102299D01*
X0132667Y0102242D02*
X0132667Y0097919D01*
X0128192Y0097919D01*
X0123707Y0097955D02*
X0122896Y0097627D01*
X0122629Y0097894D01*
X0119398Y0097894D01*
X0132629Y0110547D02*
X0132708Y0110625D01*
X0138845Y0110625D01*
X0139075Y0110395D01*
X0138845Y0110625D02*
X0156474Y0110625D01*
X0160192Y0106908D01*
X0152438Y0097278D02*
X0152438Y0081727D01*
X0152438Y0081726D02*
X0152518Y0081683D01*
X0152597Y0081637D01*
X0152673Y0081588D01*
X0152747Y0081535D01*
X0152819Y0081479D01*
X0152888Y0081421D01*
X0152956Y0081359D01*
X0153020Y0081295D01*
X0153082Y0081229D01*
X0153141Y0081160D01*
X0153197Y0081088D01*
X0153250Y0081014D01*
X0153300Y0080938D01*
X0153347Y0080860D01*
X0153390Y0080781D01*
X0153430Y0080699D01*
X0153467Y0080616D01*
X0153500Y0080531D01*
X0153530Y0080445D01*
X0153556Y0080358D01*
X0153579Y0080270D01*
X0153598Y0080181D01*
X0153613Y0080092D01*
X0153625Y0080002D01*
X0153632Y0079911D01*
X0153636Y0079820D01*
X0153637Y0079729D01*
X0153633Y0079639D01*
X0153626Y0079548D01*
X0153615Y0079458D01*
X0153600Y0079368D01*
X0153582Y0079279D01*
X0153560Y0079191D01*
X0153534Y0079104D01*
X0153505Y0079018D01*
X0153472Y0078933D01*
X0153436Y0078849D01*
X0153396Y0078768D01*
X0158027Y0078768D01*
X0149879Y0081727D02*
X0149879Y0086897D01*
X0139526Y0097250D01*
X0133455Y0063697D02*
X0123219Y0063697D01*
X0101486Y0040980D02*
X0101486Y0038224D01*
X0099203Y0035941D01*
X0095410Y0035941D01*
X0092077Y0035941D01*
X0091959Y0036059D01*
X0089636Y0038382D01*
X0089636Y0045389D01*
X0076919Y0044641D02*
X0076880Y0044602D01*
X0076841Y0044563D01*
X0069911Y0044563D01*
X0076919Y0044641D02*
X0076919Y0049720D01*
X0094800Y0068929D02*
X0099045Y0068929D01*
X0094800Y0074048D02*
X0091306Y0077541D01*
X0089087Y0077541D01*
X0082395Y0077541D02*
X0077248Y0082687D01*
X0075760Y0082687D01*
X0075452Y0082379D01*
X0068732Y0082379D01*
X0074207Y0082379D01*
X0074207Y0095111D01*
X0071452Y0096784D02*
X0070314Y0095647D01*
X0068428Y0095647D01*
X0068428Y0103291D01*
X0068428Y0095647D02*
X0063541Y0095647D01*
X0063541Y0088954D02*
X0063541Y0083881D01*
X0062167Y0082508D02*
X0062039Y0082379D01*
X0069241Y0075995D02*
X0075662Y0075995D01*
X0078691Y0069838D01*
X0075760Y0082687D02*
X0075662Y0082687D01*
X0076963Y0099328D02*
X0076963Y0099343D01*
X0103691Y0096728D02*
X0103691Y0090210D01*
D37*
X0099085Y0085605D01*
X0095585Y0085605D01*
X0094186Y0084205D01*
X0094186Y0079885D01*
X0099045Y0075025D01*
X0099045Y0072043D01*
X0101014Y0072043D01*
X0102982Y0072043D02*
X0106604Y0072043D01*
X0107077Y0071571D01*
X0107077Y0069602D02*
X0106599Y0069124D01*
X0105672Y0069124D01*
X0105441Y0068893D01*
X0102982Y0068893D01*
X0104373Y0067634D02*
X0103847Y0067108D01*
X0102117Y0067108D01*
X0101014Y0068211D01*
X0101014Y0068893D01*
X0099045Y0068893D02*
X0099045Y0068929D01*
X0104373Y0067634D02*
X0107077Y0067634D01*
X0107077Y0065665D02*
X0077746Y0065665D01*
X0073573Y0069838D01*
X0065817Y0069838D01*
X0065738Y0069760D01*
X0069518Y0063697D02*
X0073258Y0063697D01*
X0073219Y0063657D01*
X0073258Y0063697D02*
X0107077Y0063697D01*
X0107077Y0061728D02*
X0080830Y0061728D01*
X0075363Y0056261D01*
X0072878Y0056261D01*
X0068022Y0051098D01*
X0071650Y0048412D02*
X0069911Y0046673D01*
X0069911Y0044563D01*
X0070482Y0043992D01*
X0070482Y0043678D01*
X0074695Y0043662D01*
X0074760Y0040785D01*
X0070541Y0036632D01*
X0070482Y0022535D01*
X0068789Y0022535D02*
X0068789Y0039189D01*
X0070094Y0040560D01*
X0072175Y0035126D02*
X0079158Y0042109D01*
X0079158Y0046841D01*
X0082037Y0049720D01*
X0082037Y0055110D01*
X0082750Y0055823D01*
X0107077Y0055823D01*
X0107111Y0057786D02*
X0083016Y0057786D01*
X0078888Y0053657D01*
X0075069Y0053775D02*
X0074281Y0053618D01*
X0075069Y0053775D02*
X0081053Y0059760D01*
X0107077Y0059760D01*
X0107077Y0057791D02*
X0107111Y0057786D01*
X0107077Y0053854D02*
X0087772Y0053854D01*
X0087161Y0053243D01*
X0087161Y0049765D01*
X0081998Y0044602D01*
X0081998Y0041571D01*
X0081229Y0040479D01*
X0078481Y0037713D02*
X0074459Y0033611D01*
X0074459Y0022653D01*
X0074459Y0020960D02*
X0081939Y0020960D01*
X0086998Y0026019D01*
X0086919Y0035980D01*
X0086841Y0036059D01*
X0089728Y0030450D02*
X0088202Y0028924D01*
X0088202Y0025526D01*
X0088202Y0023482D01*
X0082295Y0017575D01*
X0074459Y0017575D01*
X0074459Y0019267D02*
X0081943Y0019267D01*
X0087499Y0024823D01*
X0087505Y0024823D01*
X0087850Y0025174D01*
X0088202Y0025526D01*
X0093801Y0030441D02*
X0095410Y0032513D01*
X0095410Y0035941D01*
X0095581Y0040980D02*
X0096132Y0041531D01*
X0096132Y0046019D01*
X0096014Y0050783D02*
X0096014Y0051295D01*
X0089636Y0051295D01*
X0101132Y0050783D02*
X0101132Y0051886D01*
X0107077Y0051886D01*
X0107077Y0049917D02*
X0103179Y0046019D01*
X0101250Y0046019D01*
X0109439Y0047555D02*
X0109439Y0033933D01*
X0106910Y0031239D01*
X0104321Y0035941D02*
X0082215Y0015882D01*
X0074459Y0015882D01*
X0074720Y0014450D02*
X0082855Y0014430D01*
X0098074Y0028621D01*
X0113609Y0028621D01*
X0125899Y0034842D02*
X0127133Y0035628D01*
X0127156Y0047555D01*
X0129124Y0047555D02*
X0129124Y0044196D01*
X0131178Y0042142D01*
X0131093Y0047555D02*
X0154426Y0047555D01*
X0171172Y0064301D01*
X0187209Y0064301D01*
X0187431Y0064523D01*
X0189400Y0064523D01*
X0190541Y0063736D01*
X0192254Y0063736D01*
X0192254Y0065311D02*
X0190581Y0065311D01*
X0189400Y0066098D01*
X0187431Y0066098D01*
X0187392Y0066138D01*
X0170935Y0066138D01*
X0154715Y0049917D01*
X0133455Y0049917D01*
X0133455Y0051886D02*
X0154439Y0051886D01*
X0170187Y0067634D01*
X0187392Y0067634D01*
X0187431Y0067673D01*
X0189400Y0067673D01*
X0190541Y0066886D01*
X0192254Y0066886D01*
X0192254Y0068460D02*
X0190581Y0068460D01*
X0189400Y0069248D01*
X0187431Y0069248D01*
X0169478Y0069248D01*
X0154085Y0053854D01*
X0133455Y0053854D01*
X0133455Y0055823D02*
X0153927Y0055823D01*
X0168967Y0070862D01*
X0187746Y0070862D01*
X0187785Y0070823D01*
X0187431Y0070823D01*
X0187785Y0070823D02*
X0189400Y0070823D01*
X0190581Y0070035D01*
X0192254Y0070035D01*
X0192254Y0071610D02*
X0190541Y0071610D01*
X0189400Y0072397D01*
X0187431Y0072397D01*
X0168302Y0072397D01*
X0160728Y0064824D01*
X0152571Y0064824D01*
X0152558Y0064811D01*
X0150915Y0066453D01*
X0150718Y0066453D01*
X0148046Y0069125D01*
X0147350Y0069125D01*
X0146873Y0069602D01*
X0133455Y0069602D01*
X0133455Y0067634D02*
X0144419Y0067634D01*
X0145600Y0066453D01*
X0145797Y0066453D01*
X0147440Y0064811D01*
X0147440Y0061957D01*
X0150275Y0059122D01*
X0155322Y0069125D02*
X0158045Y0067329D01*
X0155322Y0069125D02*
X0152468Y0069125D01*
X0148305Y0073288D02*
X0148188Y0073406D01*
X0143502Y0073406D01*
X0142975Y0073933D01*
X0142975Y0078870D01*
X0142127Y0079718D01*
X0137998Y0079718D01*
X0135416Y0082300D01*
X0132572Y0085079D02*
X0135111Y0087619D01*
X0132572Y0085079D02*
X0129896Y0085079D01*
X0126485Y0079700D02*
X0125187Y0078224D01*
X0125187Y0073933D01*
X0123219Y0073933D02*
X0123251Y0078200D01*
X0121592Y0079748D01*
X0118573Y0083027D02*
X0117313Y0081807D01*
X0117313Y0073933D01*
X0115344Y0073933D02*
X0115317Y0084611D01*
X0117080Y0086293D01*
X0122139Y0086349D01*
X0123203Y0085079D01*
X0123203Y0092333D01*
X0123707Y0092837D01*
X0122896Y0092509D01*
X0122629Y0092776D01*
X0119398Y0092776D01*
X0115189Y0097910D01*
X0115472Y0097500D02*
X0111137Y0097500D01*
X0108432Y0096728D02*
X0110476Y0094684D01*
X0114501Y0094684D01*
X0115189Y0092791D01*
X0115856Y0097073D02*
X0115620Y0097351D01*
X0115472Y0097500D01*
X0115190Y0097909D02*
X0115243Y0097901D01*
X0115296Y0097889D01*
X0115348Y0097874D01*
X0115398Y0097855D01*
X0115447Y0097832D01*
X0115494Y0097806D01*
X0115540Y0097777D01*
X0115583Y0097744D01*
X0115623Y0097709D01*
X0115661Y0097670D01*
X0115696Y0097629D01*
X0115728Y0097586D01*
X0115757Y0097540D01*
X0115783Y0097493D01*
X0115805Y0097444D01*
X0115824Y0097393D01*
X0115839Y0097341D01*
X0115850Y0097288D01*
X0115857Y0097235D01*
X0115861Y0097181D01*
X0115860Y0097127D01*
X0115856Y0097073D01*
X0119398Y0097894D02*
X0122825Y0101966D01*
X0132611Y0102299D02*
X0132667Y0102242D01*
X0132629Y0110547D02*
X0099763Y0110556D01*
X0103691Y0096728D02*
X0108432Y0096728D01*
X0109990Y0089956D02*
X0113376Y0086571D01*
X0113376Y0073933D01*
X0111407Y0073933D02*
X0111407Y0076256D01*
X0110606Y0077058D01*
X0107928Y0077058D01*
X0103691Y0081295D01*
X0096575Y0083216D02*
X0096575Y0079193D01*
X0101835Y0073933D01*
X0109439Y0073933D01*
X0109990Y0081295D02*
X0103691Y0089956D01*
X0103691Y0090210D01*
X0122825Y0085457D02*
X0123203Y0085079D01*
X0131093Y0073933D02*
X0132167Y0073933D01*
X0135416Y0077182D01*
X0135477Y0077243D01*
X0140180Y0077243D01*
X0139596Y0072830D02*
X0138337Y0071571D01*
X0133455Y0071571D01*
X0133455Y0065665D02*
X0140306Y0065665D01*
X0141399Y0064572D01*
X0137738Y0063697D02*
X0141415Y0060330D01*
X0137738Y0063697D02*
X0133455Y0063697D01*
X0133455Y0065665D02*
X0134411Y0065665D01*
X0123219Y0063697D02*
X0120266Y0060744D01*
X0121250Y0047555D02*
X0121250Y0012767D01*
X0116418Y0007935D01*
X0063294Y0007935D01*
X0061827Y0009402D01*
X0061827Y0012204D01*
X0063550Y0013927D01*
X0064552Y0013927D01*
X0064813Y0014189D01*
X0064813Y0012496D02*
X0064552Y0012234D01*
X0063554Y0012234D01*
X0063027Y0011707D01*
X0063027Y0009899D01*
X0063791Y0009135D01*
X0115921Y0009135D01*
X0119281Y0012496D01*
X0119281Y0047555D01*
X0123219Y0047555D02*
X0123219Y0013039D01*
X0116915Y0006735D01*
X0062796Y0006735D01*
X0060627Y0008904D01*
X0060627Y0014386D01*
X0063554Y0017313D01*
X0064552Y0017313D01*
X0064813Y0017575D01*
X0064813Y0019267D02*
X0064367Y0019714D01*
X0063565Y0019714D01*
X0063330Y0019948D01*
X0063330Y0021641D01*
X0063330Y0021972D01*
X0063565Y0022207D01*
X0064367Y0022207D01*
X0064813Y0022653D01*
X0064813Y0024051D01*
X0066186Y0024051D01*
X0066650Y0023587D01*
X0066650Y0022982D01*
X0067096Y0022535D01*
X0064813Y0024051D02*
X0064774Y0044543D01*
X0064793Y0044563D01*
X0068047Y0055399D02*
X0069682Y0057080D01*
X0069654Y0057049D01*
X0071145Y0058539D01*
X0073219Y0058539D01*
X0069518Y0063697D02*
X0065738Y0059917D01*
X0062167Y0082508D02*
X0063541Y0083881D01*
X0071452Y0096784D02*
X0071452Y0099343D01*
X0074207Y0099343D01*
X0076963Y0099343D01*
X0076963Y0096784D01*
X0136296Y0042142D02*
X0151506Y0042142D01*
X0153199Y0043834D01*
X0167392Y0058027D01*
X0173455Y0058027D01*
X0168127Y0053584D02*
X0159523Y0044848D01*
X0168127Y0053584D02*
X0189772Y0053584D01*
X0190300Y0054111D01*
X0190300Y0060207D01*
X0192254Y0062161D01*
X0190541Y0062161D01*
X0189400Y0062949D01*
X0187431Y0062949D01*
X0190581Y0073185D02*
X0189400Y0073972D01*
X0187431Y0073972D01*
X0163172Y0073972D01*
X0163122Y0073922D01*
X0161143Y0073922D01*
X0161093Y0073972D01*
X0156368Y0073972D01*
X0162132Y0076311D02*
X0162896Y0075547D01*
X0187431Y0075547D01*
X0189400Y0075547D01*
X0190541Y0074760D01*
X0192254Y0074760D01*
X0192254Y0076334D02*
X0189616Y0080429D01*
X0186683Y0080468D01*
X0182529Y0084622D01*
X0182529Y0089501D01*
X0190581Y0073185D02*
X0192254Y0073185D01*
X0140180Y0083149D02*
X0138968Y0087602D01*
X0072175Y0035126D02*
X0072175Y0022535D01*
X0064813Y0020960D02*
X0064367Y0021407D01*
X0063565Y0021407D01*
X0063330Y0021641D01*
X0067777Y0012404D02*
X0068109Y0012404D01*
X0068343Y0012169D01*
X0068343Y0011367D01*
X0068789Y0010921D01*
X0069236Y0011367D01*
X0069236Y0012169D01*
X0069470Y0012404D01*
X0069802Y0012404D01*
X0070036Y0012169D01*
X0070036Y0011367D01*
X0070482Y0010921D01*
X0070929Y0011367D01*
X0070929Y0012169D01*
X0071163Y0012404D01*
X0071494Y0012404D01*
X0071729Y0012169D01*
X0071729Y0011367D01*
X0072175Y0010921D01*
X0072622Y0011367D01*
X0072622Y0012169D01*
X0072856Y0012404D01*
X0074367Y0012404D01*
X0074459Y0012496D01*
X0074012Y0012942D01*
X0073407Y0012942D01*
X0073173Y0013177D01*
X0073173Y0013508D01*
X0073407Y0013742D01*
X0074012Y0013742D01*
X0074459Y0014189D01*
X0074720Y0014450D01*
X0074459Y0012496D02*
X0074905Y0012049D01*
X0075707Y0012049D01*
X0075941Y0011815D01*
X0075941Y0011484D01*
X0075707Y0011249D01*
X0074905Y0011249D01*
X0074459Y0010803D01*
X0067777Y0012404D02*
X0067543Y0012169D01*
X0067543Y0011367D01*
X0067096Y0010921D01*
D38*
X0053661Y0012535D03*
X0053450Y0025043D03*
X0053368Y0036452D03*
X0053079Y0047703D03*
X0053053Y0057580D03*
X0053053Y0067865D03*
X0052857Y0076877D03*
X0052625Y0091104D03*
X0068428Y0103291D03*
X0089793Y0083716D03*
X0096575Y0083216D03*
X0097028Y0089130D03*
X0103691Y0096728D03*
X0111137Y0097500D03*
X0116677Y0101640D03*
X0122825Y0101966D03*
X0132611Y0102299D03*
X0135111Y0087619D03*
X0138968Y0087602D03*
X0126485Y0079700D03*
X0121592Y0079748D03*
X0118573Y0083027D03*
X0139596Y0072830D03*
X0141399Y0064572D03*
X0141415Y0060330D03*
X0150275Y0059122D03*
X0158045Y0067329D03*
X0156368Y0073972D03*
X0158027Y0078768D03*
X0162132Y0076311D03*
X0166645Y0091078D03*
X0166560Y0096473D03*
X0172705Y0103512D03*
X0192744Y0101297D03*
X0193101Y0089921D03*
X0192083Y0050317D03*
X0192201Y0039384D03*
X0192267Y0029022D03*
X0182912Y0029069D03*
X0172574Y0029022D03*
X0162709Y0028842D03*
X0151235Y0017417D03*
X0151493Y0005106D03*
X0141287Y0005050D03*
X0133122Y0010536D03*
X0128959Y0005219D03*
X0130674Y0029171D03*
X0125899Y0034842D03*
X0113609Y0028621D03*
X0106910Y0031239D03*
X0093801Y0030441D03*
X0089728Y0030450D03*
X0081229Y0040479D03*
X0078481Y0037713D03*
X0070094Y0040560D03*
X0071650Y0048412D03*
X0068022Y0051098D03*
X0068047Y0055399D03*
X0074281Y0053618D03*
X0078888Y0053657D03*
X0069241Y0075995D03*
X0099865Y0121242D03*
X0159523Y0044848D03*
X0153199Y0043834D03*
X0095483Y0014628D03*
D39*
X0031058Y0011479D02*
X0007436Y0011479D01*
X0007436Y0019353D02*
X0031058Y0019353D01*
X0031058Y0027227D02*
X0007436Y0027227D01*
X0007436Y0035101D02*
X0031058Y0035101D01*
X0031058Y0042975D02*
X0007436Y0042975D01*
X0007436Y0050849D02*
X0031058Y0050849D01*
X0031058Y0058723D02*
X0007436Y0058723D01*
X0007436Y0066597D02*
X0031058Y0066597D01*
X0031058Y0074471D02*
X0007436Y0074471D01*
X0007436Y0082345D02*
X0056648Y0082345D01*
X0056683Y0082379D01*
X0062039Y0082379D01*
X0061967Y0082307D01*
X0099865Y0121242D02*
X0099763Y0191461D01*
X0132629Y0110547D02*
X0132611Y0102299D01*
D40*
X0160192Y0106908D02*
X0160241Y0093815D01*
M02*
