G75*
%MOIN*%
%OFA0B0*%
%FSLAX25Y25*%
%IPPOS*%
%LPD*%
%AMOC8*
5,1,8,0,0,1.08239X$1,22.5*
%
%ADD10R,0.02756X0.03543*%
%ADD11R,0.04724X0.03150*%
%ADD12R,1.85039X0.08661*%
%ADD13R,1.85039X0.04331*%
%ADD14C,0.02362*%
%ADD15R,0.02756X0.01417*%
%ADD16R,0.01417X0.02756*%
%ADD17R,0.03150X0.03150*%
%ADD18R,0.04331X0.03937*%
%ADD19R,0.03937X0.04331*%
%ADD20R,0.03543X0.02756*%
%ADD21C,0.01063*%
%ADD22R,0.03937X0.03937*%
%ADD23R,0.03937X0.07874*%
%ADD24C,0.03378*%
%ADD25R,0.01575X0.03346*%
%ADD26R,0.01575X0.06693*%
%ADD27R,0.01575X0.01575*%
%ADD28C,0.00600*%
%ADD29C,0.02978*%
%ADD30C,0.01000*%
%ADD31C,0.04000*%
D10*
X0085935Y0089130D03*
X0085935Y0093578D03*
X0091053Y0093578D03*
X0091053Y0089130D03*
X0103297Y0091413D03*
X0108415Y0091413D03*
X0115502Y0091374D03*
X0120620Y0091374D03*
X0132156Y0078972D03*
X0137274Y0078972D03*
X0136133Y0047841D03*
X0136093Y0043539D03*
X0136058Y0039344D03*
X0136013Y0035074D03*
X0130894Y0035074D03*
X0130940Y0039344D03*
X0130974Y0043539D03*
X0131015Y0047841D03*
X0142942Y0047803D03*
X0142982Y0043539D03*
X0143024Y0039306D03*
X0143028Y0035072D03*
X0148146Y0035072D03*
X0148142Y0039306D03*
X0148100Y0043539D03*
X0148060Y0047803D03*
D11*
X0149478Y0071689D03*
X0149478Y0078775D03*
D12*
X0099675Y0110586D03*
D13*
X0099675Y0191492D03*
D14*
X0102392Y0072082D03*
X0102392Y0066177D03*
X0108297Y0066177D03*
X0108297Y0072082D03*
X0114203Y0072082D03*
X0114203Y0066177D03*
X0114203Y0060271D03*
X0114203Y0054366D03*
X0114203Y0048460D03*
X0108297Y0048460D03*
X0102392Y0048460D03*
X0096486Y0048460D03*
X0090581Y0048460D03*
X0090581Y0054366D03*
X0096486Y0054366D03*
X0096486Y0060271D03*
X0090581Y0060271D03*
X0090581Y0066177D03*
X0096486Y0066177D03*
X0096486Y0072082D03*
X0090581Y0072082D03*
X0102392Y0060271D03*
X0102392Y0054366D03*
X0108297Y0054366D03*
X0108297Y0060271D03*
D15*
X0120856Y0060271D03*
X0120856Y0063421D03*
X0120856Y0066571D03*
X0120856Y0069720D03*
X0120856Y0072870D03*
X0120856Y0076019D03*
X0120856Y0057122D03*
X0120856Y0053972D03*
X0120856Y0050823D03*
X0120856Y0047673D03*
X0120856Y0044523D03*
X0083927Y0044523D03*
X0083927Y0047673D03*
X0083927Y0050823D03*
X0083927Y0053972D03*
X0083927Y0057122D03*
X0083927Y0060271D03*
X0083927Y0063421D03*
X0083927Y0066571D03*
X0083927Y0069720D03*
X0083927Y0072870D03*
X0083927Y0076019D03*
D16*
X0086644Y0078736D03*
X0089793Y0078736D03*
X0092943Y0078736D03*
X0096093Y0078736D03*
X0099242Y0078736D03*
X0102392Y0078736D03*
X0105541Y0078736D03*
X0108691Y0078736D03*
X0111841Y0078736D03*
X0114990Y0078736D03*
X0118140Y0078736D03*
X0118140Y0041807D03*
X0114990Y0041807D03*
X0111841Y0041807D03*
X0108691Y0041807D03*
X0105541Y0041807D03*
X0102392Y0041807D03*
X0099242Y0041807D03*
X0096093Y0041807D03*
X0092943Y0041807D03*
X0089793Y0041807D03*
X0086644Y0041807D03*
D17*
X0134281Y0055941D03*
X0134281Y0061846D03*
X0108376Y0100941D03*
X0102470Y0100941D03*
D18*
X0092628Y0035980D03*
X0085935Y0035980D03*
X0106841Y0035862D03*
X0113533Y0035862D03*
D19*
X0120659Y0037240D03*
X0120659Y0030547D03*
X0099872Y0030586D03*
X0099872Y0037279D03*
D20*
X0128967Y0056807D03*
X0128967Y0061925D03*
X0138230Y0092936D03*
X0138230Y0098054D03*
X0077510Y0069760D03*
X0077510Y0064641D03*
D21*
X0128179Y0090665D03*
X0128179Y0092634D03*
X0128179Y0094602D03*
X0130148Y0094602D03*
X0132116Y0094602D03*
X0132116Y0092634D03*
X0130148Y0092634D03*
X0130148Y0090665D03*
X0132116Y0090665D03*
D22*
X0145659Y0089287D03*
X0153140Y0089287D03*
X0153140Y0098736D03*
X0145659Y0098736D03*
D23*
X0164439Y0010468D03*
X0191998Y0010468D03*
D24*
X0007436Y0011479D03*
X0007436Y0019353D03*
X0007436Y0027227D03*
X0007436Y0035101D03*
X0007436Y0042975D03*
X0007436Y0050849D03*
X0007436Y0058723D03*
X0007436Y0066597D03*
X0007436Y0074471D03*
X0007436Y0082345D03*
X0031058Y0074471D03*
X0031058Y0066597D03*
X0031058Y0058723D03*
X0031058Y0050849D03*
X0031058Y0042975D03*
X0031058Y0035101D03*
X0031058Y0027227D03*
X0031058Y0019353D03*
X0031058Y0011479D03*
D25*
X0110270Y0022264D03*
D26*
X0113025Y0020591D03*
X0107514Y0020591D03*
D27*
X0110270Y0018032D03*
D28*
X0107514Y0018032D01*
X0107514Y0020591D01*
X0107607Y0020684D02*
X0107420Y0020684D01*
X0107420Y0020497D01*
X0107607Y0020497D01*
X0107607Y0015944D01*
X0108472Y0015944D01*
X0108803Y0016033D01*
X0108892Y0016084D01*
X0108980Y0016033D01*
X0109311Y0015944D01*
X0110176Y0015944D01*
X0110176Y0017938D01*
X0110363Y0017938D01*
X0110363Y0015944D01*
X0111228Y0015944D01*
X0111559Y0016033D01*
X0111648Y0016084D01*
X0111736Y0016033D01*
X0112067Y0015944D01*
X0112932Y0015944D01*
X0112932Y0020497D01*
X0113119Y0020497D01*
X0113119Y0015944D01*
X0113984Y0015944D01*
X0114315Y0016033D01*
X0114611Y0016204D01*
X0114853Y0016446D01*
X0115024Y0016742D01*
X0115113Y0017073D01*
X0115113Y0020497D01*
X0113119Y0020497D01*
X0113119Y0020684D01*
X0115113Y0020684D01*
X0115113Y0024108D01*
X0115024Y0024439D01*
X0114853Y0024735D01*
X0114611Y0024977D01*
X0114315Y0025149D01*
X0113984Y0025237D01*
X0113119Y0025237D01*
X0113119Y0020684D01*
X0112932Y0020684D01*
X0112932Y0025237D01*
X0112067Y0025237D01*
X0111736Y0025149D01*
X0111670Y0025110D01*
X0111670Y0031782D01*
X0111705Y0031817D01*
X0111705Y0032977D01*
X0111689Y0032993D01*
X0116072Y0032993D01*
X0116152Y0033074D01*
X0117791Y0031436D01*
X0117791Y0031200D01*
X0117759Y0031124D01*
X0117759Y0029970D01*
X0117791Y0029894D01*
X0117791Y0028009D01*
X0118318Y0027482D01*
X0119624Y0027482D01*
X0139095Y0008010D01*
X0140161Y0007568D01*
X0153774Y0007568D01*
X0153764Y0006213D01*
X0152482Y0007495D01*
X0150503Y0007495D01*
X0149104Y0006095D01*
X0149104Y0005949D01*
X0143676Y0005949D01*
X0143676Y0006040D01*
X0142277Y0007439D01*
X0140297Y0007439D01*
X0138898Y0006040D01*
X0138898Y0005949D01*
X0131348Y0005949D01*
X0131348Y0006209D01*
X0129949Y0007608D01*
X0127970Y0007608D01*
X0126570Y0006209D01*
X0126570Y0005949D01*
X0080844Y0005949D01*
X0080684Y0027558D01*
X0059225Y0027667D01*
X0059384Y0035533D01*
X0059384Y0104525D01*
X0059329Y0104525D01*
X0059329Y0104727D01*
X0120510Y0104727D01*
X0119236Y0103453D01*
X0119236Y0102840D01*
X0118855Y0102840D01*
X0117666Y0104029D01*
X0115687Y0104029D01*
X0114288Y0102630D01*
X0114288Y0101148D01*
X0110821Y0104615D01*
X0105931Y0104615D01*
X0104575Y0103259D01*
X0104418Y0103415D01*
X0100523Y0103415D01*
X0099996Y0102888D01*
X0099996Y0098993D01*
X0100523Y0098466D01*
X0104418Y0098466D01*
X0104945Y0098993D01*
X0104945Y0100235D01*
X0105901Y0101191D01*
X0105901Y0098993D01*
X0106428Y0098466D01*
X0107186Y0098466D01*
X0107204Y0094085D01*
X0106665Y0094085D01*
X0106137Y0093558D01*
X0106137Y0090270D01*
X0105575Y0090832D01*
X0105575Y0093558D01*
X0105048Y0094085D01*
X0101546Y0094085D01*
X0101019Y0093558D01*
X0101019Y0090832D01*
X0099417Y0089230D01*
X0099417Y0090119D01*
X0098018Y0091519D01*
X0096039Y0091519D01*
X0094850Y0090330D01*
X0093331Y0090330D01*
X0093331Y0090868D01*
X0093471Y0091009D01*
X0093642Y0091305D01*
X0093731Y0091636D01*
X0093731Y0093278D01*
X0091353Y0093278D01*
X0091353Y0093878D01*
X0093731Y0093878D01*
X0093731Y0095521D01*
X0093642Y0095852D01*
X0093471Y0096148D01*
X0093229Y0096390D01*
X0092933Y0096561D01*
X0092602Y0096650D01*
X0091353Y0096650D01*
X0091353Y0093878D01*
X0090753Y0093878D01*
X0090753Y0096650D01*
X0089504Y0096650D01*
X0089173Y0096561D01*
X0089109Y0096524D01*
X0088183Y0097450D01*
X0083687Y0097450D01*
X0082984Y0096747D01*
X0070693Y0084455D01*
X0070693Y0056153D01*
X0068458Y0053487D01*
X0067032Y0053487D01*
X0065633Y0052088D01*
X0065633Y0050109D01*
X0067032Y0048709D01*
X0069011Y0048709D01*
X0069262Y0048959D01*
X0069262Y0047422D01*
X0070661Y0046023D01*
X0072640Y0046023D01*
X0074039Y0047422D01*
X0074039Y0049401D01*
X0072640Y0050801D01*
X0070661Y0050801D01*
X0070411Y0050550D01*
X0070411Y0052081D01*
X0071893Y0053849D01*
X0071893Y0052628D01*
X0073292Y0051229D01*
X0075271Y0051229D01*
X0076604Y0052562D01*
X0077898Y0051268D01*
X0079877Y0051268D01*
X0081277Y0052668D01*
X0081277Y0054647D01*
X0079877Y0056046D01*
X0078814Y0056046D01*
X0078738Y0062363D01*
X0079654Y0062363D01*
X0080181Y0062891D01*
X0080181Y0066392D01*
X0079654Y0066919D01*
X0075390Y0066919D01*
X0075386Y0067482D01*
X0079654Y0067482D01*
X0080181Y0068009D01*
X0080181Y0068520D01*
X0081768Y0068520D01*
X0082143Y0068145D01*
X0081649Y0067652D01*
X0081649Y0065489D01*
X0082143Y0064996D01*
X0081649Y0064502D01*
X0081649Y0062340D01*
X0082143Y0061846D01*
X0081649Y0061353D01*
X0081649Y0059190D01*
X0082143Y0058697D01*
X0081649Y0058203D01*
X0081649Y0056040D01*
X0082143Y0055547D01*
X0081649Y0055054D01*
X0081649Y0052891D01*
X0082143Y0052397D01*
X0081649Y0051904D01*
X0081649Y0049741D01*
X0082143Y0049248D01*
X0081649Y0048754D01*
X0081649Y0046591D01*
X0082143Y0046098D01*
X0081649Y0045605D01*
X0081649Y0043442D01*
X0082176Y0042915D01*
X0084635Y0042915D01*
X0084635Y0041861D01*
X0086589Y0041861D01*
X0086589Y0041752D01*
X0086698Y0041752D01*
X0086698Y0039129D01*
X0087104Y0039129D01*
X0086824Y0038849D01*
X0083397Y0038849D01*
X0082870Y0038321D01*
X0082870Y0033639D01*
X0083397Y0033112D01*
X0088473Y0033112D01*
X0089000Y0033639D01*
X0089000Y0037065D01*
X0089563Y0037628D01*
X0089563Y0033639D01*
X0090090Y0033112D01*
X0095166Y0033112D01*
X0095693Y0033639D01*
X0095693Y0034580D01*
X0097165Y0034580D01*
X0097531Y0034214D01*
X0102213Y0034214D01*
X0102741Y0034741D01*
X0102741Y0035879D01*
X0103775Y0035879D01*
X0103775Y0033521D01*
X0104302Y0032993D01*
X0105286Y0032993D01*
X0104521Y0032228D01*
X0104521Y0030249D01*
X0105920Y0028850D01*
X0107899Y0028850D01*
X0108870Y0029820D01*
X0108870Y0025110D01*
X0108803Y0025149D01*
X0108472Y0025237D01*
X0107607Y0025237D01*
X0107607Y0020684D01*
X0107607Y0020802D02*
X0107420Y0020802D01*
X0107420Y0020684D02*
X0107420Y0025237D01*
X0106555Y0025237D01*
X0106224Y0025149D01*
X0105928Y0024977D01*
X0105686Y0024735D01*
X0105515Y0024439D01*
X0105426Y0024108D01*
X0105426Y0020684D01*
X0107420Y0020684D01*
X0107420Y0020497D02*
X0105426Y0020497D01*
X0105426Y0017073D01*
X0105515Y0016742D01*
X0105686Y0016446D01*
X0105928Y0016204D01*
X0106224Y0016033D01*
X0106555Y0015944D01*
X0107420Y0015944D01*
X0107420Y0020497D01*
X0107420Y0020203D02*
X0107607Y0020203D01*
X0107607Y0019605D02*
X0107420Y0019605D01*
X0107420Y0019006D02*
X0107607Y0019006D01*
X0107607Y0018408D02*
X0107420Y0018408D01*
X0107420Y0017809D02*
X0107607Y0017809D01*
X0107607Y0017211D02*
X0107420Y0017211D01*
X0107420Y0016612D02*
X0107607Y0016612D01*
X0107607Y0016014D02*
X0107420Y0016014D01*
X0106296Y0016014D02*
X0097476Y0016014D01*
X0097872Y0015618D02*
X0096473Y0017017D01*
X0094493Y0017017D01*
X0093094Y0015618D01*
X0093094Y0013638D01*
X0094493Y0012239D01*
X0096473Y0012239D01*
X0097872Y0013638D01*
X0097872Y0015618D01*
X0097872Y0015415D02*
X0131690Y0015415D01*
X0131092Y0016014D02*
X0114243Y0016014D01*
X0114949Y0016612D02*
X0130493Y0016612D01*
X0129895Y0017211D02*
X0115113Y0017211D01*
X0115113Y0017809D02*
X0129296Y0017809D01*
X0128698Y0018408D02*
X0115113Y0018408D01*
X0115113Y0019006D02*
X0128099Y0019006D01*
X0127501Y0019605D02*
X0115113Y0019605D01*
X0115113Y0020203D02*
X0126902Y0020203D01*
X0126303Y0020802D02*
X0115113Y0020802D01*
X0115113Y0021400D02*
X0125705Y0021400D01*
X0125106Y0021999D02*
X0115113Y0021999D01*
X0115113Y0022597D02*
X0124508Y0022597D01*
X0123909Y0023196D02*
X0115113Y0023196D01*
X0115113Y0023794D02*
X0123311Y0023794D01*
X0122712Y0024393D02*
X0115037Y0024393D01*
X0114587Y0024991D02*
X0122114Y0024991D01*
X0121515Y0025590D02*
X0111670Y0025590D01*
X0111670Y0026188D02*
X0120917Y0026188D01*
X0120318Y0026787D02*
X0111670Y0026787D01*
X0111670Y0027385D02*
X0119720Y0027385D01*
X0117816Y0027984D02*
X0111670Y0027984D01*
X0111670Y0028582D02*
X0117791Y0028582D01*
X0117791Y0029181D02*
X0111670Y0029181D01*
X0111670Y0029779D02*
X0117791Y0029779D01*
X0117759Y0030378D02*
X0111670Y0030378D01*
X0111670Y0030976D02*
X0117759Y0030976D01*
X0117652Y0031575D02*
X0111670Y0031575D01*
X0111705Y0032173D02*
X0117053Y0032173D01*
X0116455Y0032772D02*
X0111705Y0032772D01*
X0110468Y0034214D02*
X0109906Y0034776D01*
X0109906Y0038203D01*
X0109379Y0038730D01*
X0104302Y0038730D01*
X0104251Y0038679D01*
X0102741Y0038679D01*
X0102741Y0039129D01*
X0103272Y0039129D01*
X0103602Y0039217D01*
X0103899Y0039389D01*
X0103967Y0039457D01*
X0104034Y0039389D01*
X0104331Y0039217D01*
X0104662Y0039129D01*
X0105487Y0039129D01*
X0105487Y0041752D01*
X0105596Y0041752D01*
X0105596Y0039129D01*
X0106421Y0039129D01*
X0106752Y0039217D01*
X0107048Y0039389D01*
X0107290Y0039631D01*
X0107370Y0039768D01*
X0107609Y0039529D01*
X0109772Y0039529D01*
X0110012Y0039768D01*
X0110092Y0039631D01*
X0110334Y0039389D01*
X0110630Y0039217D01*
X0110961Y0039129D01*
X0111786Y0039129D01*
X0111786Y0041752D01*
X0111895Y0041752D01*
X0111895Y0039129D01*
X0112720Y0039129D01*
X0113051Y0039217D01*
X0113347Y0039389D01*
X0113415Y0039457D01*
X0113483Y0039389D01*
X0113780Y0039217D01*
X0114110Y0039129D01*
X0114936Y0039129D01*
X0114936Y0041752D01*
X0115044Y0041752D01*
X0115044Y0039129D01*
X0115870Y0039129D01*
X0116201Y0039217D01*
X0116497Y0039389D01*
X0116739Y0039631D01*
X0116819Y0039768D01*
X0117058Y0039529D01*
X0117391Y0039529D01*
X0117391Y0037540D01*
X0120359Y0037540D01*
X0120359Y0036940D01*
X0117391Y0036940D01*
X0117391Y0035795D01*
X0116599Y0036587D01*
X0116599Y0038203D01*
X0116072Y0038730D01*
X0110995Y0038730D01*
X0110468Y0038203D01*
X0110468Y0034214D01*
X0110468Y0034567D02*
X0110115Y0034567D01*
X0109906Y0035166D02*
X0110468Y0035166D01*
X0110468Y0035764D02*
X0109906Y0035764D01*
X0109906Y0036363D02*
X0110468Y0036363D01*
X0110468Y0036961D02*
X0109906Y0036961D01*
X0109906Y0037560D02*
X0110468Y0037560D01*
X0110468Y0038159D02*
X0109906Y0038159D01*
X0110391Y0039356D02*
X0106991Y0039356D01*
X0105596Y0039356D02*
X0105487Y0039356D01*
X0105487Y0039954D02*
X0105596Y0039954D01*
X0105596Y0040553D02*
X0105487Y0040553D01*
X0105487Y0041151D02*
X0105596Y0041151D01*
X0105596Y0041750D02*
X0105487Y0041750D01*
X0105487Y0041752D02*
X0103533Y0041752D01*
X0102446Y0041752D01*
X0102446Y0041861D01*
X0105487Y0041861D01*
X0105487Y0041752D01*
X0105541Y0041807D02*
X0107082Y0043348D01*
X0107082Y0043558D01*
X0109237Y0045712D01*
X0114203Y0045712D01*
X0114203Y0042594D01*
X0114990Y0041807D01*
X0111841Y0041807D01*
X0111895Y0041861D02*
X0111786Y0041861D01*
X0111786Y0044485D01*
X0110961Y0044485D01*
X0110630Y0044396D01*
X0110334Y0044225D01*
X0110092Y0043983D01*
X0110012Y0043845D01*
X0109772Y0044085D01*
X0107609Y0044085D01*
X0107370Y0043845D01*
X0107290Y0043983D01*
X0107048Y0044225D01*
X0106752Y0044396D01*
X0106421Y0044485D01*
X0105596Y0044485D01*
X0105596Y0041861D01*
X0105487Y0041861D01*
X0105487Y0044485D01*
X0104662Y0044485D01*
X0104331Y0044396D01*
X0104034Y0044225D01*
X0103967Y0044157D01*
X0103899Y0044225D01*
X0103602Y0044396D01*
X0103272Y0044485D01*
X0102446Y0044485D01*
X0102446Y0041861D01*
X0102337Y0041861D01*
X0102337Y0041752D01*
X0099297Y0041752D01*
X0099297Y0041861D01*
X0101251Y0041861D01*
X0102337Y0041861D01*
X0102337Y0044485D01*
X0101512Y0044485D01*
X0101181Y0044396D01*
X0100885Y0044225D01*
X0100817Y0044157D01*
X0100749Y0044225D01*
X0100453Y0044396D01*
X0100122Y0044485D01*
X0099296Y0044485D01*
X0099296Y0041861D01*
X0099188Y0041861D01*
X0099188Y0044485D01*
X0098362Y0044485D01*
X0098032Y0044396D01*
X0097735Y0044225D01*
X0097493Y0043983D01*
X0097414Y0043845D01*
X0097174Y0044085D01*
X0095011Y0044085D01*
X0094771Y0043845D01*
X0094692Y0043983D01*
X0094450Y0044225D01*
X0094153Y0044396D01*
X0093823Y0044485D01*
X0092997Y0044485D01*
X0092997Y0041861D01*
X0092889Y0041861D01*
X0092889Y0044485D01*
X0092063Y0044485D01*
X0091732Y0044396D01*
X0091436Y0044225D01*
X0091194Y0043983D01*
X0091114Y0043845D01*
X0090875Y0044085D01*
X0088712Y0044085D01*
X0088472Y0043845D01*
X0088393Y0043983D01*
X0088151Y0044225D01*
X0087854Y0044396D01*
X0087524Y0044485D01*
X0086698Y0044485D01*
X0086698Y0041861D01*
X0086589Y0041861D01*
X0086589Y0044485D01*
X0086205Y0044485D01*
X0086205Y0045605D01*
X0085712Y0046098D01*
X0086205Y0046591D01*
X0086205Y0048754D01*
X0085712Y0049248D01*
X0086205Y0049741D01*
X0086205Y0051904D01*
X0085712Y0052397D01*
X0086205Y0052891D01*
X0086205Y0055054D01*
X0085712Y0055547D01*
X0086205Y0056040D01*
X0086205Y0058203D01*
X0085712Y0058697D01*
X0086205Y0059190D01*
X0086205Y0061353D01*
X0085712Y0061846D01*
X0086205Y0062340D01*
X0086205Y0064502D01*
X0085712Y0064996D01*
X0086205Y0065489D01*
X0086205Y0067652D01*
X0085712Y0068145D01*
X0086205Y0068639D01*
X0086205Y0070802D01*
X0085712Y0071295D01*
X0086205Y0071788D01*
X0086205Y0073951D01*
X0085712Y0074445D01*
X0086205Y0074938D01*
X0086205Y0076458D01*
X0087725Y0076458D01*
X0088218Y0076951D01*
X0088712Y0076458D01*
X0090875Y0076458D01*
X0091368Y0076951D01*
X0091861Y0076458D01*
X0094024Y0076458D01*
X0094518Y0076951D01*
X0095011Y0076458D01*
X0097174Y0076458D01*
X0097667Y0076951D01*
X0098161Y0076458D01*
X0100324Y0076458D01*
X0100817Y0076951D01*
X0101310Y0076458D01*
X0103473Y0076458D01*
X0103967Y0076951D01*
X0104460Y0076458D01*
X0106623Y0076458D01*
X0107116Y0076951D01*
X0107609Y0076458D01*
X0109772Y0076458D01*
X0110266Y0076951D01*
X0110759Y0076458D01*
X0112922Y0076458D01*
X0113162Y0076698D01*
X0113241Y0076560D01*
X0113483Y0076318D01*
X0113780Y0076147D01*
X0114110Y0076058D01*
X0114936Y0076058D01*
X0114936Y0078682D01*
X0115044Y0078682D01*
X0115044Y0076058D01*
X0115870Y0076058D01*
X0116201Y0076147D01*
X0116497Y0076318D01*
X0116565Y0076386D01*
X0116633Y0076318D01*
X0116929Y0076147D01*
X0117260Y0076058D01*
X0118085Y0076058D01*
X0118085Y0078682D01*
X0116131Y0078682D01*
X0115045Y0078682D01*
X0115045Y0078790D01*
X0118085Y0078790D01*
X0118085Y0078682D01*
X0118194Y0078682D01*
X0118194Y0076058D01*
X0118578Y0076058D01*
X0118578Y0074938D01*
X0119072Y0074445D01*
X0118578Y0073951D01*
X0118578Y0071788D01*
X0119072Y0071295D01*
X0118578Y0070802D01*
X0118578Y0068639D01*
X0118818Y0068399D01*
X0118680Y0068319D01*
X0118438Y0068077D01*
X0118267Y0067781D01*
X0118178Y0067450D01*
X0118178Y0066625D01*
X0120802Y0066625D01*
X0120802Y0066516D01*
X0118178Y0066516D01*
X0118178Y0065691D01*
X0118267Y0065360D01*
X0118438Y0065064D01*
X0118680Y0064822D01*
X0118818Y0064742D01*
X0118578Y0064502D01*
X0118578Y0062340D01*
X0119072Y0061846D01*
X0118578Y0061353D01*
X0118578Y0059190D01*
X0119072Y0058697D01*
X0118697Y0058322D01*
X0115196Y0058322D01*
X0116284Y0059409D01*
X0116284Y0061133D01*
X0115065Y0062352D01*
X0113341Y0062352D01*
X0112122Y0061133D01*
X0112122Y0059409D01*
X0113209Y0058322D01*
X0111944Y0058322D01*
X0110378Y0059887D01*
X0110378Y0061133D01*
X0109159Y0062352D01*
X0107435Y0062352D01*
X0106216Y0061133D01*
X0106216Y0059409D01*
X0107435Y0058190D01*
X0108681Y0058190D01*
X0110247Y0056625D01*
X0110950Y0055922D01*
X0112258Y0055922D01*
X0112004Y0055541D01*
X0111817Y0055090D01*
X0111731Y0054656D01*
X0113912Y0054656D01*
X0113912Y0054075D01*
X0114493Y0054075D01*
X0114493Y0051894D01*
X0114926Y0051980D01*
X0115378Y0052167D01*
X0115784Y0052439D01*
X0116130Y0052784D01*
X0116401Y0053191D01*
X0116588Y0053642D01*
X0116675Y0054075D01*
X0114493Y0054075D01*
X0114493Y0054656D01*
X0116675Y0054656D01*
X0116588Y0055090D01*
X0116401Y0055541D01*
X0116147Y0055922D01*
X0118697Y0055922D01*
X0118818Y0055801D01*
X0118680Y0055721D01*
X0118438Y0055479D01*
X0118267Y0055183D01*
X0118178Y0054852D01*
X0118178Y0054026D01*
X0120802Y0054026D01*
X0120802Y0053918D01*
X0118178Y0053918D01*
X0118178Y0053092D01*
X0118267Y0052762D01*
X0118438Y0052465D01*
X0118680Y0052223D01*
X0118818Y0052144D01*
X0118578Y0051904D01*
X0118578Y0049741D01*
X0118818Y0049501D01*
X0118680Y0049422D01*
X0118438Y0049180D01*
X0118267Y0048883D01*
X0118178Y0048553D01*
X0118178Y0047727D01*
X0120802Y0047727D01*
X0120802Y0047619D01*
X0118178Y0047619D01*
X0118178Y0046793D01*
X0118267Y0046462D01*
X0118438Y0046166D01*
X0118506Y0046098D01*
X0118438Y0046030D01*
X0118267Y0045734D01*
X0118178Y0045403D01*
X0118178Y0044578D01*
X0120802Y0044578D01*
X0120802Y0047619D01*
X0120911Y0047619D01*
X0120911Y0047727D01*
X0123534Y0047727D01*
X0123534Y0048553D01*
X0123446Y0048883D01*
X0123274Y0049180D01*
X0123032Y0049422D01*
X0122895Y0049501D01*
X0123134Y0049741D01*
X0123134Y0051904D01*
X0122895Y0052144D01*
X0123032Y0052223D01*
X0123274Y0052465D01*
X0123446Y0052762D01*
X0123506Y0052985D01*
X0124699Y0051792D01*
X0124699Y0037020D01*
X0123928Y0036250D01*
X0123928Y0036940D01*
X0120959Y0036940D01*
X0120959Y0033775D01*
X0122799Y0033775D01*
X0123130Y0033863D01*
X0123426Y0034034D01*
X0123510Y0034118D01*
X0123510Y0033852D01*
X0128191Y0029171D01*
X0130674Y0029171D01*
X0128521Y0026787D02*
X0161386Y0026787D01*
X0161720Y0026453D02*
X0160320Y0027853D01*
X0160320Y0029832D01*
X0161720Y0031231D01*
X0163699Y0031231D01*
X0165098Y0029832D01*
X0165098Y0027853D01*
X0163699Y0026453D01*
X0161720Y0026453D01*
X0160788Y0027385D02*
X0127922Y0027385D01*
X0127324Y0027984D02*
X0160320Y0027984D01*
X0160320Y0028582D02*
X0126725Y0028582D01*
X0126127Y0029181D02*
X0160320Y0029181D01*
X0160320Y0029779D02*
X0125528Y0029779D01*
X0124930Y0030378D02*
X0160866Y0030378D01*
X0161465Y0030976D02*
X0124331Y0030976D01*
X0123733Y0031575D02*
X0193682Y0031575D01*
X0193257Y0031411D02*
X0193682Y0030986D01*
X0193682Y0037487D01*
X0193190Y0036995D01*
X0191211Y0036995D01*
X0189812Y0038395D01*
X0189812Y0040374D01*
X0191211Y0041773D01*
X0193190Y0041773D01*
X0193682Y0041281D01*
X0193682Y0048537D01*
X0193073Y0047928D01*
X0191094Y0047928D01*
X0189694Y0049327D01*
X0189694Y0051306D01*
X0191094Y0052706D01*
X0193073Y0052706D01*
X0193682Y0052096D01*
X0193682Y0087532D01*
X0192111Y0087532D01*
X0190712Y0088931D01*
X0190712Y0090910D01*
X0192111Y0092310D01*
X0193682Y0092310D01*
X0193682Y0098908D01*
X0191754Y0098908D01*
X0190355Y0100307D01*
X0190355Y0102287D01*
X0191754Y0103686D01*
X0193682Y0103686D01*
X0193682Y0104727D01*
X0174869Y0104727D01*
X0175094Y0104501D01*
X0175094Y0102522D01*
X0173695Y0101123D01*
X0171715Y0101123D01*
X0170558Y0102280D01*
X0166733Y0102280D01*
X0162274Y0097821D01*
X0162273Y0097786D01*
X0161926Y0097473D01*
X0161596Y0097142D01*
X0161561Y0097142D01*
X0161536Y0097119D01*
X0161069Y0097142D01*
X0160602Y0097142D01*
X0160577Y0097167D01*
X0156008Y0097393D01*
X0156008Y0096395D01*
X0155481Y0095867D01*
X0150798Y0095867D01*
X0150271Y0096395D01*
X0150271Y0097637D01*
X0148872Y0099036D01*
X0145959Y0099036D01*
X0145959Y0098436D01*
X0145959Y0095467D01*
X0147799Y0095467D01*
X0148130Y0095556D01*
X0148426Y0095727D01*
X0148668Y0095969D01*
X0148839Y0096266D01*
X0148928Y0096596D01*
X0148928Y0098436D01*
X0145959Y0098436D01*
X0145359Y0098436D01*
X0142391Y0098436D01*
X0142391Y0096596D01*
X0142480Y0096266D01*
X0142651Y0095969D01*
X0142893Y0095727D01*
X0143189Y0095556D01*
X0143520Y0095467D01*
X0145359Y0095467D01*
X0145359Y0098436D01*
X0145359Y0099036D01*
X0142391Y0099036D01*
X0142391Y0100404D01*
X0142277Y0100404D01*
X0142278Y0100404D02*
X0142391Y0100404D01*
X0142278Y0100404D02*
X0140902Y0099028D01*
X0140902Y0096383D01*
X0142102Y0095184D01*
X0142102Y0094908D01*
X0144644Y0092156D01*
X0148001Y0092156D01*
X0148528Y0091628D01*
X0148528Y0086946D01*
X0148001Y0086419D01*
X0143318Y0086419D01*
X0143269Y0086468D01*
X0143269Y0086097D01*
X0138815Y0081644D01*
X0139024Y0081644D01*
X0139552Y0081117D01*
X0139552Y0079975D01*
X0146216Y0079975D01*
X0146216Y0080723D01*
X0146743Y0081250D01*
X0152213Y0081250D01*
X0152741Y0080723D01*
X0152741Y0079975D01*
X0153424Y0079975D01*
X0153425Y0079976D01*
X0153919Y0079975D01*
X0154417Y0079975D01*
X0154418Y0079974D01*
X0155853Y0079972D01*
X0156627Y0080746D01*
X0156627Y0084178D01*
X0154191Y0086419D01*
X0150798Y0086419D01*
X0150271Y0086946D01*
X0150271Y0091628D01*
X0150798Y0092156D01*
X0155481Y0092156D01*
X0156008Y0091628D01*
X0156008Y0088551D01*
X0158573Y0086193D01*
X0158607Y0086193D01*
X0158997Y0085804D01*
X0159402Y0085431D01*
X0159403Y0085397D01*
X0159427Y0085373D01*
X0159427Y0084822D01*
X0159451Y0084272D01*
X0159427Y0084247D01*
X0159427Y0080746D01*
X0160416Y0079757D01*
X0160416Y0077974D01*
X0161143Y0078700D01*
X0163122Y0078700D01*
X0164521Y0077301D01*
X0164521Y0075322D01*
X0163122Y0073922D01*
X0161143Y0073922D01*
X0159743Y0075322D01*
X0159743Y0077105D01*
X0159017Y0076379D01*
X0157038Y0076379D01*
X0155845Y0077572D01*
X0153921Y0077575D01*
X0152741Y0077575D01*
X0152741Y0076828D01*
X0152213Y0076300D01*
X0146743Y0076300D01*
X0146216Y0076828D01*
X0146216Y0077575D01*
X0139552Y0077575D01*
X0139552Y0076828D01*
X0139024Y0076300D01*
X0135523Y0076300D01*
X0134996Y0076828D01*
X0134996Y0081117D01*
X0135523Y0081644D01*
X0136074Y0081644D01*
X0136074Y0082296D01*
X0138991Y0085213D01*
X0137979Y0085213D01*
X0137031Y0086161D01*
X0136100Y0085230D01*
X0134121Y0085230D01*
X0133316Y0086035D01*
X0133316Y0081644D01*
X0133906Y0081644D01*
X0134433Y0081117D01*
X0134433Y0076828D01*
X0133906Y0076300D01*
X0130405Y0076300D01*
X0129878Y0076828D01*
X0129878Y0081117D01*
X0130405Y0081644D01*
X0130916Y0081644D01*
X0130916Y0082256D01*
X0130645Y0081985D01*
X0130627Y0081985D01*
X0128874Y0080317D01*
X0128874Y0078711D01*
X0127475Y0077311D01*
X0125495Y0077311D01*
X0124096Y0078711D01*
X0124096Y0080555D01*
X0123981Y0080440D01*
X0123981Y0078758D01*
X0122729Y0077506D01*
X0123134Y0077101D01*
X0123134Y0074938D01*
X0122641Y0074445D01*
X0123134Y0073951D01*
X0123134Y0071788D01*
X0122641Y0071295D01*
X0123134Y0070802D01*
X0123134Y0068639D01*
X0122895Y0068399D01*
X0123032Y0068319D01*
X0123274Y0068077D01*
X0123446Y0067781D01*
X0123534Y0067450D01*
X0123534Y0066625D01*
X0120911Y0066625D01*
X0120911Y0066516D01*
X0123534Y0066516D01*
X0123534Y0065691D01*
X0123446Y0065360D01*
X0123274Y0065064D01*
X0123032Y0064822D01*
X0122895Y0064742D01*
X0123134Y0064502D01*
X0123134Y0062340D01*
X0122641Y0061846D01*
X0123134Y0061353D01*
X0123134Y0059190D01*
X0122641Y0058697D01*
X0123134Y0058203D01*
X0123134Y0056751D01*
X0126396Y0053489D01*
X0127099Y0052786D01*
X0127099Y0037020D01*
X0128216Y0035903D01*
X0128216Y0037016D01*
X0128291Y0037294D01*
X0128262Y0037401D01*
X0128262Y0039044D01*
X0130640Y0039044D01*
X0130640Y0039644D01*
X0130640Y0040467D01*
X0130674Y0040467D01*
X0130674Y0043239D01*
X0128296Y0043239D01*
X0128296Y0041596D01*
X0128321Y0041506D01*
X0128262Y0041287D01*
X0128262Y0039644D01*
X0130640Y0039644D01*
X0131240Y0039644D01*
X0131240Y0042416D01*
X0131274Y0042416D01*
X0131274Y0043239D01*
X0130674Y0043239D01*
X0130674Y0043839D01*
X0128296Y0043839D01*
X0128296Y0045482D01*
X0128373Y0045766D01*
X0128337Y0045899D01*
X0128337Y0047541D01*
X0130715Y0047541D01*
X0131315Y0047541D01*
X0131315Y0046611D01*
X0131274Y0046611D01*
X0131274Y0043839D01*
X0130674Y0043839D01*
X0130674Y0044770D01*
X0130715Y0044770D01*
X0130715Y0047541D01*
X0130715Y0048141D01*
X0128337Y0048141D01*
X0128337Y0049784D01*
X0128426Y0050115D01*
X0128597Y0050411D01*
X0128839Y0050653D01*
X0129135Y0050824D01*
X0129466Y0050913D01*
X0130715Y0050913D01*
X0130715Y0048141D01*
X0131315Y0048141D01*
X0133693Y0048141D01*
X0133693Y0048302D01*
X0133855Y0048139D01*
X0133855Y0045724D01*
X0133815Y0045684D01*
X0133815Y0041523D01*
X0133780Y0041488D01*
X0133780Y0037264D01*
X0133735Y0037218D01*
X0133735Y0032929D01*
X0134262Y0032402D01*
X0137763Y0032402D01*
X0138291Y0032929D01*
X0138291Y0033674D01*
X0140750Y0033674D01*
X0140750Y0032928D01*
X0141277Y0032401D01*
X0144778Y0032401D01*
X0145306Y0032928D01*
X0145306Y0037217D01*
X0145302Y0037220D01*
X0145302Y0041450D01*
X0145260Y0041492D01*
X0145260Y0045684D01*
X0145220Y0045724D01*
X0145220Y0049948D01*
X0144692Y0050475D01*
X0141191Y0050475D01*
X0140664Y0049948D01*
X0140664Y0049203D01*
X0138411Y0049203D01*
X0138411Y0049986D01*
X0137884Y0050513D01*
X0135681Y0050513D01*
X0135681Y0053466D01*
X0136229Y0053466D01*
X0136756Y0053993D01*
X0136756Y0054541D01*
X0147673Y0054541D01*
X0149866Y0056733D01*
X0151264Y0056733D01*
X0152664Y0058133D01*
X0152664Y0060112D01*
X0151264Y0061511D01*
X0149285Y0061511D01*
X0147886Y0060112D01*
X0147886Y0058713D01*
X0146513Y0057341D01*
X0136756Y0057341D01*
X0136756Y0057888D01*
X0136229Y0058415D01*
X0132334Y0058415D01*
X0132038Y0058120D01*
X0132038Y0058356D01*
X0131950Y0058687D01*
X0131778Y0058983D01*
X0131536Y0059225D01*
X0131240Y0059396D01*
X0130909Y0059485D01*
X0129266Y0059485D01*
X0129266Y0057107D01*
X0128667Y0057107D01*
X0128667Y0059485D01*
X0127024Y0059485D01*
X0126693Y0059396D01*
X0126397Y0059225D01*
X0126155Y0058983D01*
X0125983Y0058687D01*
X0125895Y0058356D01*
X0125895Y0057107D01*
X0128666Y0057107D01*
X0128666Y0056507D01*
X0125895Y0056507D01*
X0125895Y0055258D01*
X0125983Y0054927D01*
X0126155Y0054631D01*
X0126397Y0054389D01*
X0126693Y0054217D01*
X0127024Y0054129D01*
X0128667Y0054129D01*
X0128667Y0056507D01*
X0129266Y0056507D01*
X0129266Y0054129D01*
X0130909Y0054129D01*
X0131240Y0054217D01*
X0131536Y0054389D01*
X0131778Y0054631D01*
X0131807Y0054680D01*
X0131807Y0053993D01*
X0132334Y0053466D01*
X0132881Y0053466D01*
X0132881Y0050828D01*
X0132564Y0050913D01*
X0131315Y0050913D01*
X0131315Y0048141D01*
X0131315Y0047541D01*
X0133693Y0047541D01*
X0133693Y0045899D01*
X0133617Y0045615D01*
X0133652Y0045482D01*
X0133652Y0043839D01*
X0131274Y0043839D01*
X0131274Y0043239D01*
X0133652Y0043239D01*
X0133652Y0041596D01*
X0133594Y0041377D01*
X0133618Y0041287D01*
X0133618Y0039644D01*
X0131240Y0039644D01*
X0131240Y0039044D01*
X0133618Y0039044D01*
X0133618Y0037401D01*
X0133544Y0037124D01*
X0133572Y0037016D01*
X0133572Y0035374D01*
X0131194Y0035374D01*
X0130594Y0035374D01*
X0130594Y0036272D01*
X0130640Y0036272D01*
X0130640Y0039044D01*
X0131240Y0039044D01*
X0131240Y0038145D01*
X0131194Y0038145D01*
X0131194Y0035374D01*
X0131194Y0034774D01*
X0131194Y0032002D01*
X0132444Y0032002D01*
X0132774Y0032091D01*
X0133071Y0032262D01*
X0133313Y0032504D01*
X0133484Y0032800D01*
X0133572Y0033131D01*
X0133572Y0034774D01*
X0131194Y0034774D01*
X0130594Y0034774D01*
X0130594Y0032002D01*
X0129345Y0032002D01*
X0129015Y0032091D01*
X0128718Y0032262D01*
X0128476Y0032504D01*
X0128305Y0032800D01*
X0128216Y0033131D01*
X0128216Y0033781D01*
X0126888Y0032453D01*
X0124909Y0032453D01*
X0123510Y0033852D01*
X0123510Y0034390D01*
X0120659Y0037240D01*
X0120856Y0037437D01*
X0120856Y0044523D01*
X0120856Y0047673D01*
X0114990Y0047673D01*
X0114203Y0048460D01*
X0114203Y0045712D01*
X0114493Y0045988D02*
X0114926Y0046075D01*
X0115378Y0046262D01*
X0115784Y0046533D01*
X0116130Y0046879D01*
X0116401Y0047285D01*
X0116588Y0047737D01*
X0116675Y0048170D01*
X0114493Y0048170D01*
X0114493Y0045988D01*
X0114493Y0046538D02*
X0113912Y0046538D01*
X0113912Y0045988D02*
X0113912Y0048170D01*
X0111731Y0048170D01*
X0111817Y0047737D01*
X0112004Y0047285D01*
X0112276Y0046879D01*
X0112621Y0046533D01*
X0113028Y0046262D01*
X0113479Y0046075D01*
X0113912Y0045988D01*
X0113912Y0047136D02*
X0114493Y0047136D01*
X0114493Y0047735D02*
X0113912Y0047735D01*
X0113912Y0048170D02*
X0114493Y0048170D01*
X0114493Y0048751D01*
X0113912Y0048751D01*
X0113912Y0048170D01*
X0113912Y0048333D02*
X0110378Y0048333D01*
X0110378Y0047735D02*
X0111818Y0047735D01*
X0112104Y0047136D02*
X0109916Y0047136D01*
X0110378Y0047598D02*
X0110378Y0049322D01*
X0109159Y0050541D01*
X0107435Y0050541D01*
X0106216Y0049322D01*
X0106216Y0047598D01*
X0107435Y0046379D01*
X0109159Y0046379D01*
X0110378Y0047598D01*
X0110378Y0048932D02*
X0111767Y0048932D01*
X0111731Y0048751D02*
X0113912Y0048751D01*
X0113912Y0050932D01*
X0113479Y0050846D01*
X0113028Y0050659D01*
X0112621Y0050388D01*
X0112276Y0050042D01*
X0112004Y0049636D01*
X0111817Y0049184D01*
X0111731Y0048751D01*
X0111960Y0049530D02*
X0110170Y0049530D01*
X0109572Y0050129D02*
X0112362Y0050129D01*
X0113192Y0050727D02*
X0091591Y0050727D01*
X0091756Y0050659D02*
X0091304Y0050846D01*
X0090871Y0050932D01*
X0090871Y0048751D01*
X0090290Y0048751D01*
X0090290Y0048170D01*
X0088109Y0048170D01*
X0088195Y0047737D01*
X0088382Y0047285D01*
X0088654Y0046879D01*
X0088999Y0046533D01*
X0089405Y0046262D01*
X0089857Y0046075D01*
X0090290Y0045988D01*
X0090290Y0048170D01*
X0090871Y0048170D01*
X0090871Y0045988D01*
X0091304Y0046075D01*
X0091756Y0046262D01*
X0092162Y0046533D01*
X0092508Y0046879D01*
X0092779Y0047285D01*
X0092966Y0047737D01*
X0093053Y0048170D01*
X0090871Y0048170D01*
X0090871Y0048751D01*
X0093053Y0048751D01*
X0092966Y0049184D01*
X0092779Y0049636D01*
X0092508Y0050042D01*
X0092162Y0050388D01*
X0091756Y0050659D01*
X0092421Y0050129D02*
X0095211Y0050129D01*
X0095624Y0050541D02*
X0094405Y0049322D01*
X0094405Y0047598D01*
X0095624Y0046379D01*
X0097348Y0046379D01*
X0098567Y0047598D01*
X0098567Y0049322D01*
X0097348Y0050541D01*
X0095624Y0050541D01*
X0094613Y0049530D02*
X0092823Y0049530D01*
X0093017Y0048932D02*
X0094405Y0048932D01*
X0094405Y0048333D02*
X0090871Y0048333D01*
X0090581Y0048460D02*
X0090581Y0054366D01*
X0096486Y0054366D01*
X0102392Y0054366D01*
X0102682Y0054318D02*
X0106216Y0054318D01*
X0106216Y0053720D02*
X0104793Y0053720D01*
X0104777Y0053642D02*
X0104864Y0054075D01*
X0102682Y0054075D01*
X0102682Y0051894D01*
X0103115Y0051980D01*
X0103567Y0052167D01*
X0103973Y0052439D01*
X0104319Y0052784D01*
X0104590Y0053191D01*
X0104777Y0053642D01*
X0104544Y0053121D02*
X0106599Y0053121D01*
X0106216Y0053504D02*
X0107435Y0052285D01*
X0109159Y0052285D01*
X0110378Y0053504D01*
X0110378Y0055228D01*
X0109159Y0056447D01*
X0107435Y0056447D01*
X0106216Y0055228D01*
X0106216Y0053504D01*
X0107197Y0052523D02*
X0104057Y0052523D01*
X0102835Y0051924D02*
X0113760Y0051924D01*
X0113912Y0051924D02*
X0114493Y0051924D01*
X0114646Y0051924D02*
X0118599Y0051924D01*
X0118578Y0051326D02*
X0086205Y0051326D01*
X0086185Y0051924D02*
X0090138Y0051924D01*
X0090290Y0051924D02*
X0090871Y0051924D01*
X0090871Y0051894D02*
X0091304Y0051980D01*
X0091756Y0052167D01*
X0092162Y0052439D01*
X0092508Y0052784D01*
X0092779Y0053191D01*
X0092966Y0053642D01*
X0093053Y0054075D01*
X0090871Y0054075D01*
X0090871Y0051894D01*
X0091024Y0051924D02*
X0096043Y0051924D01*
X0096196Y0051924D02*
X0096777Y0051924D01*
X0096777Y0051894D02*
X0097210Y0051980D01*
X0097661Y0052167D01*
X0098068Y0052439D01*
X0098413Y0052784D01*
X0098685Y0053191D01*
X0098872Y0053642D01*
X0098958Y0054075D01*
X0096777Y0054075D01*
X0096777Y0051894D01*
X0096929Y0051924D02*
X0101949Y0051924D01*
X0102101Y0051924D02*
X0102682Y0051924D01*
X0102101Y0051894D02*
X0102101Y0054075D01*
X0102682Y0054075D01*
X0102682Y0054656D01*
X0104864Y0054656D01*
X0104777Y0055090D01*
X0104590Y0055541D01*
X0104319Y0055947D01*
X0103973Y0056293D01*
X0103567Y0056565D01*
X0103115Y0056752D01*
X0102682Y0056838D01*
X0102682Y0054656D01*
X0102101Y0054656D01*
X0102101Y0054075D01*
X0099920Y0054075D01*
X0100006Y0053642D01*
X0100193Y0053191D01*
X0100465Y0052784D01*
X0100810Y0052439D01*
X0101216Y0052167D01*
X0101668Y0051980D01*
X0102101Y0051894D01*
X0102101Y0052523D02*
X0102682Y0052523D01*
X0102682Y0053121D02*
X0102101Y0053121D01*
X0102101Y0053720D02*
X0102682Y0053720D01*
X0102101Y0054318D02*
X0096777Y0054318D01*
X0096777Y0054075D02*
X0096777Y0054656D01*
X0098958Y0054656D01*
X0098872Y0055090D01*
X0098685Y0055541D01*
X0098413Y0055947D01*
X0098068Y0056293D01*
X0097661Y0056565D01*
X0097210Y0056752D01*
X0096777Y0056838D01*
X0096777Y0054656D01*
X0096196Y0054656D01*
X0096196Y0054075D01*
X0096777Y0054075D01*
X0096777Y0053720D02*
X0096196Y0053720D01*
X0096196Y0054075D02*
X0096196Y0051894D01*
X0095762Y0051980D01*
X0095311Y0052167D01*
X0094905Y0052439D01*
X0094559Y0052784D01*
X0094287Y0053191D01*
X0094100Y0053642D01*
X0094014Y0054075D01*
X0096196Y0054075D01*
X0096196Y0054318D02*
X0090871Y0054318D01*
X0090871Y0054075D02*
X0090871Y0054656D01*
X0093053Y0054656D01*
X0092966Y0055090D01*
X0092779Y0055541D01*
X0092508Y0055947D01*
X0092162Y0056293D01*
X0091756Y0056565D01*
X0091304Y0056752D01*
X0090871Y0056838D01*
X0090871Y0054656D01*
X0090290Y0054656D01*
X0090290Y0054075D01*
X0090871Y0054075D01*
X0090871Y0053720D02*
X0090290Y0053720D01*
X0090290Y0054075D02*
X0090290Y0051894D01*
X0089857Y0051980D01*
X0089405Y0052167D01*
X0088999Y0052439D01*
X0088654Y0052784D01*
X0088382Y0053191D01*
X0088195Y0053642D01*
X0088109Y0054075D01*
X0090290Y0054075D01*
X0090290Y0054318D02*
X0086205Y0054318D01*
X0086205Y0053720D02*
X0088180Y0053720D01*
X0088428Y0053121D02*
X0086205Y0053121D01*
X0085837Y0052523D02*
X0088915Y0052523D01*
X0090290Y0052523D02*
X0090871Y0052523D01*
X0090871Y0053121D02*
X0090290Y0053121D01*
X0090290Y0054656D02*
X0088109Y0054656D01*
X0088195Y0055090D01*
X0088382Y0055541D01*
X0088654Y0055947D01*
X0088999Y0056293D01*
X0089405Y0056565D01*
X0089857Y0056752D01*
X0090290Y0056838D01*
X0090290Y0054656D01*
X0090290Y0054917D02*
X0090871Y0054917D01*
X0090871Y0055515D02*
X0090290Y0055515D01*
X0090290Y0056114D02*
X0090871Y0056114D01*
X0090871Y0056712D02*
X0090290Y0056712D01*
X0089762Y0056712D02*
X0086205Y0056712D01*
X0086205Y0056114D02*
X0088820Y0056114D01*
X0088371Y0055515D02*
X0085743Y0055515D01*
X0086205Y0054917D02*
X0088161Y0054917D01*
X0086205Y0057311D02*
X0109561Y0057311D01*
X0110159Y0056712D02*
X0103210Y0056712D01*
X0102682Y0056712D02*
X0102101Y0056712D01*
X0102101Y0056838D02*
X0101668Y0056752D01*
X0101216Y0056565D01*
X0100810Y0056293D01*
X0100465Y0055947D01*
X0100193Y0055541D01*
X0100006Y0055090D01*
X0099920Y0054656D01*
X0102101Y0054656D01*
X0102101Y0056838D01*
X0101573Y0056712D02*
X0097305Y0056712D01*
X0096777Y0056712D02*
X0096196Y0056712D01*
X0096196Y0056838D02*
X0095762Y0056752D01*
X0095311Y0056565D01*
X0094905Y0056293D01*
X0094559Y0055947D01*
X0094287Y0055541D01*
X0094100Y0055090D01*
X0094014Y0054656D01*
X0096196Y0054656D01*
X0096196Y0056838D01*
X0095668Y0056712D02*
X0091399Y0056712D01*
X0092342Y0056114D02*
X0094725Y0056114D01*
X0094277Y0055515D02*
X0092790Y0055515D01*
X0093001Y0054917D02*
X0094066Y0054917D01*
X0094085Y0053720D02*
X0092982Y0053720D01*
X0092733Y0053121D02*
X0094334Y0053121D01*
X0094820Y0052523D02*
X0092246Y0052523D01*
X0090871Y0050727D02*
X0090290Y0050727D01*
X0090290Y0050932D02*
X0089857Y0050846D01*
X0089405Y0050659D01*
X0088999Y0050388D01*
X0088654Y0050042D01*
X0088382Y0049636D01*
X0088195Y0049184D01*
X0088109Y0048751D01*
X0090290Y0048751D01*
X0090290Y0050932D01*
X0089570Y0050727D02*
X0086205Y0050727D01*
X0086205Y0050129D02*
X0088740Y0050129D01*
X0088338Y0049530D02*
X0085994Y0049530D01*
X0086028Y0048932D02*
X0088145Y0048932D01*
X0088196Y0047735D02*
X0086205Y0047735D01*
X0086205Y0048333D02*
X0090290Y0048333D01*
X0090581Y0048460D02*
X0086644Y0044523D01*
X0086644Y0041807D01*
X0086589Y0041752D02*
X0086589Y0039129D01*
X0085764Y0039129D01*
X0085433Y0039217D01*
X0085137Y0039389D01*
X0084895Y0039631D01*
X0084724Y0039927D01*
X0084635Y0040258D01*
X0084635Y0041752D01*
X0086589Y0041752D01*
X0086589Y0041750D02*
X0086698Y0041750D01*
X0086698Y0042348D02*
X0086589Y0042348D01*
X0086589Y0042947D02*
X0086698Y0042947D01*
X0086698Y0043545D02*
X0086589Y0043545D01*
X0086589Y0044144D02*
X0086698Y0044144D01*
X0086205Y0044742D02*
X0118178Y0044742D01*
X0118178Y0044469D02*
X0118178Y0044085D01*
X0117058Y0044085D01*
X0116819Y0043845D01*
X0116739Y0043983D01*
X0116497Y0044225D01*
X0116201Y0044396D01*
X0115870Y0044485D01*
X0115044Y0044485D01*
X0115044Y0041861D01*
X0114936Y0041861D01*
X0114936Y0044485D01*
X0114110Y0044485D01*
X0113780Y0044396D01*
X0113483Y0044225D01*
X0113415Y0044157D01*
X0113347Y0044225D01*
X0113051Y0044396D01*
X0112720Y0044485D01*
X0111895Y0044485D01*
X0111895Y0041861D01*
X0114936Y0041861D01*
X0114936Y0041752D01*
X0112981Y0041752D01*
X0111895Y0041752D01*
X0111895Y0041861D01*
X0111895Y0041750D02*
X0111786Y0041750D01*
X0111786Y0042348D02*
X0111895Y0042348D01*
X0111895Y0042947D02*
X0111786Y0042947D01*
X0111786Y0043545D02*
X0111895Y0043545D01*
X0111895Y0044144D02*
X0111786Y0044144D01*
X0110252Y0044144D02*
X0107130Y0044144D01*
X0105596Y0044144D02*
X0105487Y0044144D01*
X0105487Y0043545D02*
X0105596Y0043545D01*
X0105596Y0042947D02*
X0105487Y0042947D01*
X0105487Y0042348D02*
X0105596Y0042348D01*
X0105541Y0041807D02*
X0102392Y0041807D01*
X0099242Y0041807D01*
X0097701Y0043348D01*
X0097701Y0043558D01*
X0095356Y0045903D01*
X0092943Y0045903D01*
X0092943Y0046098D01*
X0090581Y0048460D01*
X0090871Y0048932D02*
X0090290Y0048932D01*
X0090290Y0049530D02*
X0090871Y0049530D01*
X0090871Y0050129D02*
X0090290Y0050129D01*
X0090290Y0047735D02*
X0090871Y0047735D01*
X0090871Y0047136D02*
X0090290Y0047136D01*
X0090290Y0046538D02*
X0090871Y0046538D01*
X0092167Y0046538D02*
X0095466Y0046538D01*
X0094867Y0047136D02*
X0092680Y0047136D01*
X0092966Y0047735D02*
X0094405Y0047735D01*
X0092943Y0045903D02*
X0092943Y0041807D01*
X0092997Y0041752D02*
X0092997Y0039129D01*
X0093823Y0039129D01*
X0094153Y0039217D01*
X0094450Y0039389D01*
X0094692Y0039631D01*
X0094771Y0039768D01*
X0095011Y0039529D01*
X0097004Y0039529D01*
X0097004Y0037380D01*
X0095693Y0037380D01*
X0095693Y0038321D01*
X0095166Y0038849D01*
X0090783Y0038849D01*
X0091193Y0039258D01*
X0091193Y0039632D01*
X0091194Y0039631D01*
X0091436Y0039389D01*
X0091732Y0039217D01*
X0092063Y0039129D01*
X0092889Y0039129D01*
X0092889Y0041752D01*
X0092997Y0041752D01*
X0092997Y0041750D02*
X0092889Y0041750D01*
X0092889Y0042348D02*
X0092997Y0042348D01*
X0092997Y0042947D02*
X0092889Y0042947D01*
X0092889Y0043545D02*
X0092997Y0043545D01*
X0092997Y0044144D02*
X0092889Y0044144D01*
X0091355Y0044144D02*
X0088232Y0044144D01*
X0086205Y0045341D02*
X0118178Y0045341D01*
X0118386Y0045939D02*
X0085871Y0045939D01*
X0086151Y0046538D02*
X0088995Y0046538D01*
X0088481Y0047136D02*
X0086205Y0047136D01*
X0081984Y0045939D02*
X0059384Y0045939D01*
X0059384Y0045341D02*
X0081649Y0045341D01*
X0081649Y0044742D02*
X0059384Y0044742D01*
X0059384Y0044144D02*
X0081649Y0044144D01*
X0081649Y0043545D02*
X0059384Y0043545D01*
X0059384Y0042947D02*
X0069102Y0042947D01*
X0069104Y0042949D02*
X0067705Y0041550D01*
X0067705Y0039570D01*
X0069104Y0038171D01*
X0071083Y0038171D01*
X0072254Y0039342D01*
X0076693Y0039304D01*
X0076092Y0038702D01*
X0076092Y0036723D01*
X0077491Y0035324D01*
X0079470Y0035324D01*
X0080870Y0036723D01*
X0080870Y0038090D01*
X0082219Y0038090D01*
X0083618Y0039489D01*
X0083618Y0041468D01*
X0082219Y0042868D01*
X0080240Y0042868D01*
X0079058Y0041686D01*
X0078598Y0041688D01*
X0072291Y0041741D01*
X0071083Y0042949D01*
X0069104Y0042949D01*
X0068503Y0042348D02*
X0059384Y0042348D01*
X0059384Y0041750D02*
X0067905Y0041750D01*
X0067705Y0041151D02*
X0059384Y0041151D01*
X0059384Y0040553D02*
X0067705Y0040553D01*
X0067705Y0039954D02*
X0059384Y0039954D01*
X0059384Y0039356D02*
X0067920Y0039356D01*
X0068518Y0038757D02*
X0059384Y0038757D01*
X0059384Y0038159D02*
X0076092Y0038159D01*
X0076092Y0037560D02*
X0059384Y0037560D01*
X0059384Y0036961D02*
X0076092Y0036961D01*
X0076452Y0036363D02*
X0059384Y0036363D01*
X0059384Y0035764D02*
X0077051Y0035764D01*
X0079911Y0035764D02*
X0082870Y0035764D01*
X0082870Y0035166D02*
X0059377Y0035166D01*
X0059365Y0034567D02*
X0082870Y0034567D01*
X0082870Y0033969D02*
X0059352Y0033969D01*
X0059340Y0033370D02*
X0083138Y0033370D01*
X0082870Y0036363D02*
X0080509Y0036363D01*
X0080870Y0036961D02*
X0082870Y0036961D01*
X0082870Y0037560D02*
X0080870Y0037560D01*
X0082287Y0038159D02*
X0082870Y0038159D01*
X0082886Y0038757D02*
X0083305Y0038757D01*
X0083484Y0039356D02*
X0085194Y0039356D01*
X0084716Y0039954D02*
X0083618Y0039954D01*
X0083618Y0040553D02*
X0084635Y0040553D01*
X0084635Y0041151D02*
X0083618Y0041151D01*
X0083337Y0041750D02*
X0084635Y0041750D01*
X0084635Y0042348D02*
X0082738Y0042348D01*
X0082144Y0042947D02*
X0071086Y0042947D01*
X0071684Y0042348D02*
X0079720Y0042348D01*
X0079121Y0041750D02*
X0072283Y0041750D01*
X0070094Y0040560D02*
X0078593Y0040488D01*
X0081229Y0040479D01*
X0081368Y0040359D01*
X0076146Y0038757D02*
X0071669Y0038757D01*
X0073155Y0046538D02*
X0081703Y0046538D01*
X0081649Y0047136D02*
X0073753Y0047136D01*
X0074039Y0047735D02*
X0081649Y0047735D01*
X0081649Y0048333D02*
X0074039Y0048333D01*
X0074039Y0048932D02*
X0081827Y0048932D01*
X0081860Y0049530D02*
X0073911Y0049530D01*
X0073312Y0050129D02*
X0081649Y0050129D01*
X0081649Y0050727D02*
X0072713Y0050727D01*
X0073195Y0051326D02*
X0070411Y0051326D01*
X0070411Y0051924D02*
X0072597Y0051924D01*
X0071998Y0052523D02*
X0070781Y0052523D01*
X0071283Y0053121D02*
X0071893Y0053121D01*
X0071893Y0053720D02*
X0071784Y0053720D01*
X0071893Y0055717D02*
X0068022Y0051098D01*
X0066211Y0049530D02*
X0059384Y0049530D01*
X0059384Y0048932D02*
X0066810Y0048932D01*
X0065633Y0050129D02*
X0059384Y0050129D01*
X0059384Y0050727D02*
X0065633Y0050727D01*
X0065633Y0051326D02*
X0059384Y0051326D01*
X0059384Y0051924D02*
X0065633Y0051924D01*
X0066068Y0052523D02*
X0059384Y0052523D01*
X0059384Y0053121D02*
X0066666Y0053121D01*
X0068653Y0053720D02*
X0059384Y0053720D01*
X0059384Y0054318D02*
X0069155Y0054318D01*
X0069656Y0054917D02*
X0059384Y0054917D01*
X0059384Y0055515D02*
X0070158Y0055515D01*
X0070659Y0056114D02*
X0059384Y0056114D01*
X0059384Y0056712D02*
X0070693Y0056712D01*
X0070693Y0057311D02*
X0059384Y0057311D01*
X0059384Y0057909D02*
X0070693Y0057909D01*
X0070693Y0058508D02*
X0059384Y0058508D01*
X0059384Y0059106D02*
X0070693Y0059106D01*
X0070693Y0059705D02*
X0059384Y0059705D01*
X0059384Y0060303D02*
X0070693Y0060303D01*
X0070693Y0060902D02*
X0059384Y0060902D01*
X0059384Y0061500D02*
X0070693Y0061500D01*
X0070693Y0062099D02*
X0059384Y0062099D01*
X0059384Y0062697D02*
X0070693Y0062697D01*
X0070693Y0063296D02*
X0059384Y0063296D01*
X0059384Y0063894D02*
X0070693Y0063894D01*
X0070693Y0064493D02*
X0059384Y0064493D01*
X0059384Y0065092D02*
X0070693Y0065092D01*
X0070693Y0065690D02*
X0059384Y0065690D01*
X0059384Y0066289D02*
X0070693Y0066289D01*
X0070693Y0066887D02*
X0059384Y0066887D01*
X0059384Y0067486D02*
X0070693Y0067486D01*
X0070693Y0068084D02*
X0059384Y0068084D01*
X0059384Y0068683D02*
X0070693Y0068683D01*
X0070693Y0069281D02*
X0059384Y0069281D01*
X0059384Y0069880D02*
X0070693Y0069880D01*
X0070693Y0070478D02*
X0059384Y0070478D01*
X0059384Y0071077D02*
X0070693Y0071077D01*
X0070693Y0071675D02*
X0059384Y0071675D01*
X0059384Y0072274D02*
X0070693Y0072274D01*
X0070693Y0072872D02*
X0059384Y0072872D01*
X0059384Y0073471D02*
X0070693Y0073471D01*
X0070693Y0074069D02*
X0059384Y0074069D01*
X0059384Y0074668D02*
X0070693Y0074668D01*
X0070693Y0075266D02*
X0059384Y0075266D01*
X0059384Y0075865D02*
X0070693Y0075865D01*
X0070693Y0076463D02*
X0059384Y0076463D01*
X0059384Y0077062D02*
X0070693Y0077062D01*
X0070693Y0077660D02*
X0059384Y0077660D01*
X0059384Y0078259D02*
X0070693Y0078259D01*
X0070693Y0078857D02*
X0059384Y0078857D01*
X0059384Y0079456D02*
X0070693Y0079456D01*
X0070693Y0080054D02*
X0059384Y0080054D01*
X0059384Y0080653D02*
X0070693Y0080653D01*
X0070693Y0081251D02*
X0059384Y0081251D01*
X0059384Y0081850D02*
X0070693Y0081850D01*
X0070693Y0082448D02*
X0059384Y0082448D01*
X0059384Y0083047D02*
X0070693Y0083047D01*
X0070693Y0083645D02*
X0059384Y0083645D01*
X0059384Y0084244D02*
X0070693Y0084244D01*
X0071080Y0084842D02*
X0059384Y0084842D01*
X0059384Y0085441D02*
X0071678Y0085441D01*
X0072277Y0086039D02*
X0059384Y0086039D01*
X0059384Y0086638D02*
X0072875Y0086638D01*
X0073474Y0087236D02*
X0059384Y0087236D01*
X0059384Y0087835D02*
X0074072Y0087835D01*
X0074671Y0088433D02*
X0059384Y0088433D01*
X0059384Y0089032D02*
X0075269Y0089032D01*
X0075868Y0089630D02*
X0059384Y0089630D01*
X0059384Y0090229D02*
X0076466Y0090229D01*
X0077065Y0090827D02*
X0059384Y0090827D01*
X0059384Y0091426D02*
X0077663Y0091426D01*
X0078262Y0092025D02*
X0059384Y0092025D01*
X0059384Y0092623D02*
X0078860Y0092623D01*
X0079459Y0093222D02*
X0059384Y0093222D01*
X0059384Y0093820D02*
X0080057Y0093820D01*
X0080656Y0094419D02*
X0059384Y0094419D01*
X0059384Y0095017D02*
X0081254Y0095017D01*
X0081853Y0095616D02*
X0059384Y0095616D01*
X0059384Y0096214D02*
X0082451Y0096214D01*
X0082984Y0096747D02*
X0082984Y0096747D01*
X0083050Y0096813D02*
X0059384Y0096813D01*
X0059384Y0097411D02*
X0083648Y0097411D01*
X0084184Y0096250D02*
X0071893Y0083958D01*
X0071893Y0055717D01*
X0074281Y0053618D02*
X0074163Y0070835D01*
X0076780Y0075980D01*
X0081360Y0075980D01*
X0083927Y0076019D01*
X0086205Y0075865D02*
X0118578Y0075865D01*
X0118578Y0075266D02*
X0086205Y0075266D01*
X0085935Y0074668D02*
X0118849Y0074668D01*
X0118696Y0074069D02*
X0115695Y0074069D01*
X0115784Y0074010D02*
X0115378Y0074281D01*
X0114926Y0074468D01*
X0114493Y0074554D01*
X0114493Y0072373D01*
X0113912Y0072373D01*
X0113912Y0071792D01*
X0111731Y0071792D01*
X0111817Y0071359D01*
X0112004Y0070907D01*
X0112276Y0070501D01*
X0112621Y0070155D01*
X0113028Y0069884D01*
X0113479Y0069697D01*
X0113912Y0069610D01*
X0113912Y0071792D01*
X0114493Y0071792D01*
X0114493Y0069610D01*
X0114926Y0069697D01*
X0115378Y0069884D01*
X0115784Y0070155D01*
X0116130Y0070501D01*
X0116401Y0070907D01*
X0116588Y0071359D01*
X0116675Y0071792D01*
X0114493Y0071792D01*
X0114493Y0072373D01*
X0116675Y0072373D01*
X0116588Y0072806D01*
X0116401Y0073258D01*
X0116130Y0073664D01*
X0115784Y0074010D01*
X0116259Y0073471D02*
X0118578Y0073471D01*
X0118578Y0072872D02*
X0116561Y0072872D01*
X0116651Y0071675D02*
X0118692Y0071675D01*
X0118578Y0072274D02*
X0114493Y0072274D01*
X0114203Y0072082D02*
X0119715Y0066571D01*
X0120856Y0066571D01*
X0122397Y0065030D01*
X0122607Y0065030D01*
X0126295Y0061342D01*
X0126295Y0060174D01*
X0126822Y0059647D01*
X0131111Y0059647D01*
X0131638Y0060174D01*
X0131638Y0060646D01*
X0131807Y0060646D01*
X0131807Y0059899D01*
X0132334Y0059371D01*
X0136229Y0059371D01*
X0136756Y0059899D01*
X0136756Y0063794D01*
X0136229Y0064321D01*
X0135481Y0064321D01*
X0135481Y0067018D01*
X0138905Y0070441D01*
X0140586Y0070441D01*
X0141985Y0071841D01*
X0141985Y0073820D01*
X0140586Y0075219D01*
X0138607Y0075219D01*
X0137207Y0073820D01*
X0137207Y0072138D01*
X0133081Y0068013D01*
X0133081Y0064321D01*
X0132334Y0064321D01*
X0131807Y0063794D01*
X0131807Y0063046D01*
X0131638Y0063046D01*
X0131638Y0063676D01*
X0131111Y0064203D01*
X0126822Y0064203D01*
X0126295Y0063676D01*
X0126295Y0060174D01*
X0128967Y0057503D01*
X0128967Y0056807D01*
X0128666Y0056712D02*
X0123173Y0056712D01*
X0123134Y0057311D02*
X0125895Y0057311D01*
X0125895Y0057909D02*
X0123134Y0057909D01*
X0122830Y0058508D02*
X0125936Y0058508D01*
X0126278Y0059106D02*
X0123051Y0059106D01*
X0123134Y0059705D02*
X0126764Y0059705D01*
X0126295Y0060303D02*
X0123134Y0060303D01*
X0123134Y0060902D02*
X0126295Y0060902D01*
X0126295Y0061500D02*
X0122987Y0061500D01*
X0122894Y0062099D02*
X0126295Y0062099D01*
X0126295Y0062697D02*
X0123134Y0062697D01*
X0123134Y0063296D02*
X0126295Y0063296D01*
X0126514Y0063894D02*
X0123134Y0063894D01*
X0123134Y0064493D02*
X0133081Y0064493D01*
X0133081Y0065092D02*
X0123291Y0065092D01*
X0123534Y0065690D02*
X0133081Y0065690D01*
X0133081Y0066289D02*
X0123534Y0066289D01*
X0123534Y0066887D02*
X0133081Y0066887D01*
X0133081Y0067486D02*
X0123525Y0067486D01*
X0123268Y0068084D02*
X0133153Y0068084D01*
X0133752Y0068683D02*
X0123134Y0068683D01*
X0123134Y0069281D02*
X0134350Y0069281D01*
X0134949Y0069880D02*
X0123134Y0069880D01*
X0123134Y0070478D02*
X0135547Y0070478D01*
X0136146Y0071077D02*
X0122859Y0071077D01*
X0123021Y0071675D02*
X0136744Y0071675D01*
X0137207Y0072274D02*
X0123134Y0072274D01*
X0123134Y0072872D02*
X0137207Y0072872D01*
X0137207Y0073471D02*
X0123134Y0073471D01*
X0123016Y0074069D02*
X0137457Y0074069D01*
X0138055Y0074668D02*
X0122864Y0074668D01*
X0123134Y0075266D02*
X0154284Y0075266D01*
X0153979Y0074962D02*
X0153979Y0072983D01*
X0155379Y0071583D01*
X0157358Y0071583D01*
X0158757Y0072983D01*
X0158757Y0074962D01*
X0157358Y0076361D01*
X0155379Y0076361D01*
X0153979Y0074962D01*
X0153979Y0074668D02*
X0141138Y0074668D01*
X0141736Y0074069D02*
X0146083Y0074069D01*
X0146076Y0074062D02*
X0145905Y0073765D01*
X0145816Y0073435D01*
X0145816Y0071989D01*
X0149178Y0071989D01*
X0149178Y0071389D01*
X0145816Y0071389D01*
X0145816Y0069943D01*
X0145905Y0069612D01*
X0146076Y0069316D01*
X0146318Y0069074D01*
X0146614Y0068902D01*
X0146945Y0068814D01*
X0149178Y0068814D01*
X0149178Y0071389D01*
X0149778Y0071389D01*
X0149778Y0068814D01*
X0152012Y0068814D01*
X0152342Y0068902D01*
X0152639Y0069074D01*
X0152881Y0069316D01*
X0153052Y0069612D01*
X0153141Y0069943D01*
X0153141Y0071389D01*
X0149778Y0071389D01*
X0149778Y0071989D01*
X0149178Y0071989D01*
X0149178Y0074563D01*
X0146945Y0074563D01*
X0146614Y0074475D01*
X0146318Y0074304D01*
X0146076Y0074062D01*
X0145826Y0073471D02*
X0141985Y0073471D01*
X0141985Y0072872D02*
X0145816Y0072872D01*
X0145816Y0072274D02*
X0141985Y0072274D01*
X0141820Y0071675D02*
X0149178Y0071675D01*
X0149478Y0071689D02*
X0153686Y0071689D01*
X0158045Y0067329D01*
X0157450Y0071675D02*
X0193682Y0071675D01*
X0193682Y0071077D02*
X0153141Y0071077D01*
X0153141Y0070478D02*
X0193682Y0070478D01*
X0193682Y0069880D02*
X0153124Y0069880D01*
X0152846Y0069281D02*
X0193682Y0069281D01*
X0193682Y0068683D02*
X0137146Y0068683D01*
X0137744Y0069281D02*
X0146110Y0069281D01*
X0145833Y0069880D02*
X0138343Y0069880D01*
X0138573Y0071807D02*
X0139596Y0072830D01*
X0134281Y0067515D01*
X0134281Y0061846D01*
X0129045Y0061846D01*
X0129030Y0061848D01*
X0129015Y0061852D01*
X0129001Y0061859D01*
X0128989Y0061869D01*
X0128979Y0061881D01*
X0128972Y0061895D01*
X0128968Y0061910D01*
X0128966Y0061925D01*
X0131419Y0063894D02*
X0131907Y0063894D01*
X0131807Y0063296D02*
X0131638Y0063296D01*
X0131638Y0060303D02*
X0131807Y0060303D01*
X0132000Y0059705D02*
X0131169Y0059705D01*
X0131655Y0059106D02*
X0147886Y0059106D01*
X0147886Y0059705D02*
X0136563Y0059705D01*
X0136756Y0060303D02*
X0148077Y0060303D01*
X0148676Y0060902D02*
X0136756Y0060902D01*
X0136756Y0061500D02*
X0149274Y0061500D01*
X0151275Y0061500D02*
X0193682Y0061500D01*
X0193682Y0060902D02*
X0151873Y0060902D01*
X0152472Y0060303D02*
X0193682Y0060303D01*
X0193682Y0059705D02*
X0152664Y0059705D01*
X0152664Y0059106D02*
X0193682Y0059106D01*
X0193682Y0058508D02*
X0152664Y0058508D01*
X0152440Y0057909D02*
X0193682Y0057909D01*
X0193682Y0057311D02*
X0151842Y0057311D01*
X0149845Y0056712D02*
X0193682Y0056712D01*
X0193682Y0056114D02*
X0149246Y0056114D01*
X0148648Y0055515D02*
X0193682Y0055515D01*
X0193682Y0054917D02*
X0148049Y0054917D01*
X0147082Y0057909D02*
X0136735Y0057909D01*
X0136756Y0054318D02*
X0193682Y0054318D01*
X0193682Y0053720D02*
X0136483Y0053720D01*
X0135681Y0053121D02*
X0193682Y0053121D01*
X0193682Y0052523D02*
X0193255Y0052523D01*
X0190911Y0052523D02*
X0135681Y0052523D01*
X0135681Y0051924D02*
X0190312Y0051924D01*
X0189714Y0051326D02*
X0135681Y0051326D01*
X0135681Y0050727D02*
X0146078Y0050727D01*
X0146180Y0050786D02*
X0145884Y0050615D01*
X0145642Y0050373D01*
X0145470Y0050077D01*
X0145382Y0049746D01*
X0145382Y0048103D01*
X0147760Y0048103D01*
X0147760Y0047503D01*
X0148360Y0047503D01*
X0148360Y0048103D01*
X0150738Y0048103D01*
X0150738Y0049746D01*
X0150649Y0050077D01*
X0150478Y0050373D01*
X0150236Y0050615D01*
X0149940Y0050786D01*
X0149609Y0050875D01*
X0148360Y0050875D01*
X0148360Y0048103D01*
X0147760Y0048103D01*
X0147760Y0050875D01*
X0146511Y0050875D01*
X0146180Y0050786D01*
X0145501Y0050129D02*
X0145039Y0050129D01*
X0145220Y0049530D02*
X0145382Y0049530D01*
X0145382Y0048932D02*
X0145220Y0048932D01*
X0145220Y0048333D02*
X0145382Y0048333D01*
X0145220Y0047735D02*
X0147760Y0047735D01*
X0147760Y0047503D02*
X0145382Y0047503D01*
X0145382Y0045860D01*
X0145453Y0045595D01*
X0145422Y0045482D01*
X0145422Y0043839D01*
X0147800Y0043839D01*
X0147800Y0043239D01*
X0145422Y0043239D01*
X0145422Y0041596D01*
X0145490Y0041344D01*
X0145464Y0041249D01*
X0145464Y0039606D01*
X0147842Y0039606D01*
X0147842Y0042377D01*
X0147800Y0042377D01*
X0147800Y0043239D01*
X0148400Y0043239D01*
X0148400Y0040467D01*
X0148442Y0040467D01*
X0148442Y0039606D01*
X0147842Y0039606D01*
X0147842Y0039006D01*
X0145464Y0039006D01*
X0145464Y0037363D01*
X0145513Y0037182D01*
X0145468Y0037015D01*
X0145468Y0035372D01*
X0147846Y0035372D01*
X0147846Y0034772D01*
X0148446Y0034772D01*
X0148446Y0032001D01*
X0149695Y0032001D01*
X0150026Y0032089D01*
X0150322Y0032260D01*
X0150564Y0032502D01*
X0150735Y0032799D01*
X0150824Y0033130D01*
X0150824Y0034772D01*
X0148446Y0034772D01*
X0148446Y0035372D01*
X0150824Y0035372D01*
X0150824Y0037015D01*
X0150775Y0037196D01*
X0150820Y0037363D01*
X0150820Y0039006D01*
X0148442Y0039006D01*
X0148442Y0039606D01*
X0150820Y0039606D01*
X0150820Y0041249D01*
X0150753Y0041500D01*
X0150778Y0041596D01*
X0150778Y0043239D01*
X0148400Y0043239D01*
X0148400Y0043839D01*
X0147800Y0043839D01*
X0147800Y0046611D01*
X0147760Y0046611D01*
X0147760Y0047503D01*
X0147760Y0047136D02*
X0148360Y0047136D01*
X0148360Y0047503D02*
X0148360Y0044732D01*
X0148400Y0044732D01*
X0148400Y0043839D01*
X0150778Y0043839D01*
X0150778Y0045482D01*
X0150707Y0045747D01*
X0150738Y0045860D01*
X0150738Y0047503D01*
X0148360Y0047503D01*
X0148360Y0047735D02*
X0193682Y0047735D01*
X0193682Y0048333D02*
X0193478Y0048333D01*
X0193682Y0047136D02*
X0160614Y0047136D01*
X0160513Y0047237D02*
X0158534Y0047237D01*
X0157134Y0045838D01*
X0157134Y0043859D01*
X0158534Y0042460D01*
X0160513Y0042460D01*
X0161912Y0043859D01*
X0161912Y0045838D01*
X0160513Y0047237D01*
X0161213Y0046538D02*
X0193682Y0046538D01*
X0193682Y0045939D02*
X0161811Y0045939D01*
X0161912Y0045341D02*
X0193682Y0045341D01*
X0193682Y0044742D02*
X0161912Y0044742D01*
X0161912Y0044144D02*
X0193682Y0044144D01*
X0193682Y0043545D02*
X0161598Y0043545D01*
X0161000Y0042947D02*
X0193682Y0042947D01*
X0193682Y0042348D02*
X0150778Y0042348D01*
X0150778Y0041750D02*
X0191188Y0041750D01*
X0190589Y0041151D02*
X0150820Y0041151D01*
X0150820Y0040553D02*
X0189991Y0040553D01*
X0189812Y0039954D02*
X0150820Y0039954D01*
X0150820Y0038757D02*
X0189812Y0038757D01*
X0189812Y0039356D02*
X0148442Y0039356D01*
X0148442Y0039006D02*
X0148442Y0036234D01*
X0148446Y0036234D01*
X0148446Y0035372D01*
X0147846Y0035372D01*
X0147846Y0038144D01*
X0147842Y0038144D01*
X0147842Y0039006D01*
X0148442Y0039006D01*
X0148442Y0038757D02*
X0147842Y0038757D01*
X0147842Y0038159D02*
X0148442Y0038159D01*
X0148442Y0037560D02*
X0147846Y0037560D01*
X0147846Y0036961D02*
X0148442Y0036961D01*
X0148442Y0036363D02*
X0147846Y0036363D01*
X0147846Y0035764D02*
X0148446Y0035764D01*
X0148446Y0035166D02*
X0193682Y0035166D01*
X0193682Y0035764D02*
X0150824Y0035764D01*
X0150824Y0036363D02*
X0193682Y0036363D01*
X0193682Y0036961D02*
X0150824Y0036961D01*
X0150820Y0037560D02*
X0190646Y0037560D01*
X0190048Y0038159D02*
X0150820Y0038159D01*
X0148442Y0039954D02*
X0147842Y0039954D01*
X0147842Y0039356D02*
X0145302Y0039356D01*
X0145302Y0039954D02*
X0145464Y0039954D01*
X0145464Y0040553D02*
X0145302Y0040553D01*
X0145302Y0041151D02*
X0145464Y0041151D01*
X0145422Y0041750D02*
X0145260Y0041750D01*
X0145260Y0042348D02*
X0145422Y0042348D01*
X0145422Y0042947D02*
X0145260Y0042947D01*
X0145260Y0043545D02*
X0147800Y0043545D01*
X0147800Y0042947D02*
X0148400Y0042947D01*
X0148400Y0043545D02*
X0157448Y0043545D01*
X0157134Y0044144D02*
X0150778Y0044144D01*
X0150778Y0044742D02*
X0157134Y0044742D01*
X0157134Y0045341D02*
X0150778Y0045341D01*
X0150738Y0045939D02*
X0157235Y0045939D01*
X0157834Y0046538D02*
X0150738Y0046538D01*
X0150738Y0047136D02*
X0158432Y0047136D01*
X0158047Y0042947D02*
X0150778Y0042947D01*
X0148400Y0042348D02*
X0147842Y0042348D01*
X0147842Y0041750D02*
X0148400Y0041750D01*
X0148400Y0041151D02*
X0147842Y0041151D01*
X0147842Y0040553D02*
X0148400Y0040553D01*
X0145464Y0038757D02*
X0145302Y0038757D01*
X0145302Y0038159D02*
X0145464Y0038159D01*
X0145464Y0037560D02*
X0145302Y0037560D01*
X0145306Y0036961D02*
X0145468Y0036961D01*
X0145468Y0036363D02*
X0145306Y0036363D01*
X0145306Y0035764D02*
X0145468Y0035764D01*
X0145306Y0035166D02*
X0147846Y0035166D01*
X0147846Y0034772D02*
X0145468Y0034772D01*
X0145468Y0033130D01*
X0145556Y0032799D01*
X0145728Y0032502D01*
X0145970Y0032260D01*
X0146266Y0032089D01*
X0146597Y0032001D01*
X0147846Y0032001D01*
X0147846Y0034772D01*
X0147846Y0034567D02*
X0148446Y0034567D01*
X0148446Y0033969D02*
X0147846Y0033969D01*
X0147846Y0033370D02*
X0148446Y0033370D01*
X0148446Y0032772D02*
X0147846Y0032772D01*
X0147846Y0032173D02*
X0148446Y0032173D01*
X0150171Y0032173D02*
X0193682Y0032173D01*
X0193682Y0032772D02*
X0150720Y0032772D01*
X0150824Y0033370D02*
X0193682Y0033370D01*
X0193682Y0033969D02*
X0150824Y0033969D01*
X0150824Y0034567D02*
X0193682Y0034567D01*
X0193257Y0031411D02*
X0191278Y0031411D01*
X0189878Y0030011D01*
X0189878Y0028032D01*
X0191278Y0026633D01*
X0193257Y0026633D01*
X0193682Y0027058D01*
X0193682Y0025873D01*
X0153914Y0025711D01*
X0153819Y0013368D01*
X0141939Y0013368D01*
X0123528Y0031780D01*
X0123528Y0033085D01*
X0123001Y0033612D01*
X0119574Y0033612D01*
X0119412Y0033775D01*
X0120359Y0033775D01*
X0120359Y0036940D01*
X0120959Y0036940D01*
X0120959Y0037540D01*
X0120359Y0037540D01*
X0120359Y0040705D01*
X0119748Y0040705D01*
X0119748Y0042515D01*
X0120802Y0042515D01*
X0120802Y0044469D01*
X0120911Y0044469D01*
X0120911Y0044578D01*
X0123534Y0044578D01*
X0123534Y0045403D01*
X0123446Y0045734D01*
X0123274Y0046030D01*
X0123207Y0046098D01*
X0123274Y0046166D01*
X0123446Y0046462D01*
X0123534Y0046793D01*
X0123534Y0047619D01*
X0120911Y0047619D01*
X0120911Y0045664D01*
X0120911Y0044578D01*
X0120802Y0044578D01*
X0120802Y0044469D01*
X0118178Y0044469D01*
X0118178Y0044144D02*
X0116578Y0044144D01*
X0115044Y0044144D02*
X0114936Y0044144D01*
X0114936Y0043545D02*
X0115044Y0043545D01*
X0115044Y0042947D02*
X0114936Y0042947D01*
X0114936Y0042348D02*
X0115044Y0042348D01*
X0115044Y0041750D02*
X0114936Y0041750D01*
X0114936Y0041151D02*
X0115044Y0041151D01*
X0115044Y0040553D02*
X0114936Y0040553D01*
X0114936Y0039954D02*
X0115044Y0039954D01*
X0115044Y0039356D02*
X0114936Y0039356D01*
X0113541Y0039356D02*
X0113290Y0039356D01*
X0111895Y0039356D02*
X0111786Y0039356D01*
X0111786Y0039954D02*
X0111895Y0039954D01*
X0111895Y0040553D02*
X0111786Y0040553D01*
X0111786Y0041151D02*
X0111895Y0041151D01*
X0116440Y0039356D02*
X0117391Y0039356D01*
X0117391Y0038757D02*
X0102741Y0038757D01*
X0103841Y0039356D02*
X0104092Y0039356D01*
X0105423Y0037279D02*
X0106841Y0035862D01*
X0103775Y0035764D02*
X0102741Y0035764D01*
X0102741Y0035166D02*
X0103775Y0035166D01*
X0103775Y0034567D02*
X0102567Y0034567D01*
X0102342Y0033963D02*
X0102012Y0034052D01*
X0100172Y0034052D01*
X0100172Y0030886D01*
X0103141Y0030886D01*
X0103141Y0032923D01*
X0103052Y0033253D01*
X0102881Y0033550D01*
X0102639Y0033792D01*
X0102342Y0033963D01*
X0102320Y0033969D02*
X0103775Y0033969D01*
X0103925Y0033370D02*
X0102984Y0033370D01*
X0103141Y0032772D02*
X0105064Y0032772D01*
X0104521Y0032173D02*
X0103141Y0032173D01*
X0103141Y0031575D02*
X0104521Y0031575D01*
X0104521Y0030976D02*
X0103141Y0030976D01*
X0103141Y0030286D02*
X0103141Y0028250D01*
X0103052Y0027919D01*
X0102881Y0027623D01*
X0102639Y0027381D01*
X0102342Y0027210D01*
X0102012Y0027121D01*
X0100172Y0027121D01*
X0100172Y0030286D01*
X0099572Y0030286D01*
X0099572Y0027121D01*
X0097732Y0027121D01*
X0097402Y0027210D01*
X0097105Y0027381D01*
X0096863Y0027623D01*
X0096692Y0027919D01*
X0096604Y0028250D01*
X0096604Y0030286D01*
X0099572Y0030286D01*
X0099572Y0030886D01*
X0096604Y0030886D01*
X0096604Y0032923D01*
X0096692Y0033253D01*
X0096863Y0033550D01*
X0097105Y0033792D01*
X0097402Y0033963D01*
X0097732Y0034052D01*
X0099572Y0034052D01*
X0099572Y0030886D01*
X0100172Y0030886D01*
X0100172Y0030286D01*
X0103141Y0030286D01*
X0103141Y0029779D02*
X0104990Y0029779D01*
X0104521Y0030378D02*
X0100172Y0030378D01*
X0099872Y0030586D02*
X0093947Y0030586D01*
X0093801Y0030441D01*
X0092117Y0030378D02*
X0099572Y0030378D01*
X0099572Y0030976D02*
X0100172Y0030976D01*
X0100172Y0031575D02*
X0099572Y0031575D01*
X0099572Y0032173D02*
X0100172Y0032173D01*
X0100172Y0032772D02*
X0099572Y0032772D01*
X0099572Y0033370D02*
X0100172Y0033370D01*
X0100172Y0033969D02*
X0099572Y0033969D01*
X0097424Y0033969D02*
X0095693Y0033969D01*
X0095693Y0034567D02*
X0097177Y0034567D01*
X0096760Y0033370D02*
X0095425Y0033370D01*
X0096604Y0032772D02*
X0090784Y0032772D01*
X0090717Y0032839D02*
X0088738Y0032839D01*
X0087339Y0031439D01*
X0087339Y0029460D01*
X0088738Y0028061D01*
X0090717Y0028061D01*
X0092117Y0029460D01*
X0092117Y0031439D01*
X0090717Y0032839D01*
X0091383Y0032173D02*
X0096604Y0032173D01*
X0096604Y0031575D02*
X0091981Y0031575D01*
X0092117Y0030976D02*
X0096604Y0030976D01*
X0096604Y0029779D02*
X0092117Y0029779D01*
X0091837Y0029181D02*
X0096604Y0029181D01*
X0096604Y0028582D02*
X0091239Y0028582D01*
X0088217Y0028582D02*
X0059243Y0028582D01*
X0059231Y0027984D02*
X0096675Y0027984D01*
X0097101Y0027385D02*
X0080685Y0027385D01*
X0080690Y0026787D02*
X0108870Y0026787D01*
X0108870Y0027385D02*
X0102643Y0027385D01*
X0103069Y0027984D02*
X0108870Y0027984D01*
X0108870Y0028582D02*
X0103141Y0028582D01*
X0103141Y0029181D02*
X0105589Y0029181D01*
X0108230Y0029181D02*
X0108870Y0029181D01*
X0108870Y0029779D02*
X0108829Y0029779D01*
X0108870Y0026188D02*
X0080694Y0026188D01*
X0080699Y0025590D02*
X0108870Y0025590D01*
X0107607Y0024991D02*
X0107420Y0024991D01*
X0107420Y0024393D02*
X0107607Y0024393D01*
X0107607Y0023794D02*
X0107420Y0023794D01*
X0107420Y0023196D02*
X0107607Y0023196D01*
X0107607Y0022597D02*
X0107420Y0022597D01*
X0107420Y0021999D02*
X0107607Y0021999D01*
X0107607Y0021400D02*
X0107420Y0021400D01*
X0105426Y0021400D02*
X0080730Y0021400D01*
X0080734Y0020802D02*
X0105426Y0020802D01*
X0105426Y0020203D02*
X0080738Y0020203D01*
X0080743Y0019605D02*
X0105426Y0019605D01*
X0105426Y0019006D02*
X0080747Y0019006D01*
X0080752Y0018408D02*
X0105426Y0018408D01*
X0105426Y0017809D02*
X0080756Y0017809D01*
X0080761Y0017211D02*
X0105426Y0017211D01*
X0105590Y0016612D02*
X0096877Y0016612D01*
X0097872Y0014817D02*
X0132289Y0014817D01*
X0132887Y0014218D02*
X0097872Y0014218D01*
X0097853Y0013620D02*
X0133486Y0013620D01*
X0134084Y0013021D02*
X0097255Y0013021D01*
X0096656Y0012423D02*
X0131630Y0012423D01*
X0132133Y0012925D02*
X0130733Y0011525D01*
X0130733Y0009546D01*
X0132133Y0008147D01*
X0134112Y0008147D01*
X0135511Y0009546D01*
X0135511Y0011525D01*
X0134112Y0012925D01*
X0132133Y0012925D01*
X0131032Y0011824D02*
X0080801Y0011824D01*
X0080805Y0011225D02*
X0130733Y0011225D01*
X0130733Y0010627D02*
X0080809Y0010627D01*
X0080814Y0010028D02*
X0130733Y0010028D01*
X0130849Y0009430D02*
X0080818Y0009430D01*
X0080823Y0008831D02*
X0131448Y0008831D01*
X0132046Y0008233D02*
X0080827Y0008233D01*
X0080832Y0007634D02*
X0140001Y0007634D01*
X0139894Y0007036D02*
X0130521Y0007036D01*
X0131120Y0006437D02*
X0139296Y0006437D01*
X0138872Y0008233D02*
X0134198Y0008233D01*
X0134796Y0008831D02*
X0138274Y0008831D01*
X0137675Y0009430D02*
X0135395Y0009430D01*
X0135511Y0010028D02*
X0137077Y0010028D01*
X0136478Y0010627D02*
X0135511Y0010627D01*
X0135511Y0011225D02*
X0135880Y0011225D01*
X0135281Y0011824D02*
X0135212Y0011824D01*
X0134683Y0012423D02*
X0134614Y0012423D01*
X0138696Y0016612D02*
X0148846Y0016612D01*
X0148846Y0016428D02*
X0150246Y0015028D01*
X0152225Y0015028D01*
X0153624Y0016428D01*
X0153624Y0018407D01*
X0152225Y0019806D01*
X0150246Y0019806D01*
X0148846Y0018407D01*
X0148846Y0016428D01*
X0149261Y0016014D02*
X0139294Y0016014D01*
X0139893Y0015415D02*
X0149859Y0015415D01*
X0148846Y0017211D02*
X0138097Y0017211D01*
X0137498Y0017809D02*
X0148846Y0017809D01*
X0148847Y0018408D02*
X0136900Y0018408D01*
X0136301Y0019006D02*
X0149446Y0019006D01*
X0150044Y0019605D02*
X0135703Y0019605D01*
X0135104Y0020203D02*
X0153871Y0020203D01*
X0153867Y0019605D02*
X0152427Y0019605D01*
X0153025Y0019006D02*
X0153862Y0019006D01*
X0153857Y0018408D02*
X0153624Y0018408D01*
X0153624Y0017809D02*
X0153853Y0017809D01*
X0153848Y0017211D02*
X0153624Y0017211D01*
X0153624Y0016612D02*
X0153844Y0016612D01*
X0153839Y0016014D02*
X0153210Y0016014D01*
X0152612Y0015415D02*
X0153834Y0015415D01*
X0153830Y0014817D02*
X0140491Y0014817D01*
X0141090Y0014218D02*
X0153825Y0014218D01*
X0153821Y0013620D02*
X0141688Y0013620D01*
X0142680Y0007036D02*
X0150044Y0007036D01*
X0149446Y0006437D02*
X0143278Y0006437D01*
X0152941Y0007036D02*
X0153770Y0007036D01*
X0153765Y0006437D02*
X0153540Y0006437D01*
X0153876Y0020802D02*
X0134506Y0020802D01*
X0133907Y0021400D02*
X0153880Y0021400D01*
X0153885Y0021999D02*
X0133309Y0021999D01*
X0132710Y0022597D02*
X0153890Y0022597D01*
X0153894Y0023196D02*
X0132112Y0023196D01*
X0131513Y0023794D02*
X0153899Y0023794D01*
X0153903Y0024393D02*
X0130915Y0024393D01*
X0130316Y0024991D02*
X0153908Y0024991D01*
X0153913Y0025590D02*
X0129718Y0025590D01*
X0129119Y0026188D02*
X0193682Y0026188D01*
X0193682Y0026787D02*
X0193411Y0026787D01*
X0191124Y0026787D02*
X0184008Y0026787D01*
X0183902Y0026680D02*
X0185301Y0028080D01*
X0185301Y0030059D01*
X0183902Y0031458D01*
X0181922Y0031458D01*
X0180523Y0030059D01*
X0180523Y0028080D01*
X0181922Y0026680D01*
X0183902Y0026680D01*
X0184607Y0027385D02*
X0190525Y0027385D01*
X0189927Y0027984D02*
X0185205Y0027984D01*
X0185301Y0028582D02*
X0189878Y0028582D01*
X0189878Y0029181D02*
X0185301Y0029181D01*
X0185301Y0029779D02*
X0189878Y0029779D01*
X0190245Y0030378D02*
X0184982Y0030378D01*
X0184383Y0030976D02*
X0190843Y0030976D01*
X0181816Y0026787D02*
X0173718Y0026787D01*
X0173564Y0026633D02*
X0174963Y0028032D01*
X0174963Y0030011D01*
X0173564Y0031411D01*
X0171585Y0031411D01*
X0170185Y0030011D01*
X0170185Y0028032D01*
X0171585Y0026633D01*
X0173564Y0026633D01*
X0174316Y0027385D02*
X0181217Y0027385D01*
X0180619Y0027984D02*
X0174915Y0027984D01*
X0174963Y0028582D02*
X0180523Y0028582D01*
X0180523Y0029181D02*
X0174963Y0029181D01*
X0174963Y0029779D02*
X0180523Y0029779D01*
X0180842Y0030378D02*
X0174597Y0030378D01*
X0173998Y0030976D02*
X0181441Y0030976D01*
X0171150Y0030976D02*
X0163954Y0030976D01*
X0164552Y0030378D02*
X0170552Y0030378D01*
X0170185Y0029779D02*
X0165098Y0029779D01*
X0165098Y0029181D02*
X0170185Y0029181D01*
X0170185Y0028582D02*
X0165098Y0028582D01*
X0165098Y0027984D02*
X0170234Y0027984D01*
X0170832Y0027385D02*
X0164631Y0027385D01*
X0164032Y0026787D02*
X0171431Y0026787D01*
X0193214Y0041750D02*
X0193682Y0041750D01*
X0190688Y0048333D02*
X0150738Y0048333D01*
X0150738Y0048932D02*
X0190090Y0048932D01*
X0189694Y0049530D02*
X0150738Y0049530D01*
X0150619Y0050129D02*
X0189694Y0050129D01*
X0189694Y0050727D02*
X0150042Y0050727D01*
X0148360Y0050727D02*
X0147760Y0050727D01*
X0147760Y0050129D02*
X0148360Y0050129D01*
X0148360Y0049530D02*
X0147760Y0049530D01*
X0147760Y0048932D02*
X0148360Y0048932D01*
X0148360Y0048333D02*
X0147760Y0048333D01*
X0147800Y0046538D02*
X0148360Y0046538D01*
X0148360Y0045939D02*
X0147800Y0045939D01*
X0147800Y0045341D02*
X0148360Y0045341D01*
X0148360Y0044742D02*
X0147800Y0044742D01*
X0147800Y0044144D02*
X0148400Y0044144D01*
X0145422Y0044144D02*
X0145260Y0044144D01*
X0145260Y0044742D02*
X0145422Y0044742D01*
X0145422Y0045341D02*
X0145260Y0045341D01*
X0145220Y0045939D02*
X0145382Y0045939D01*
X0145382Y0046538D02*
X0145220Y0046538D01*
X0145220Y0047136D02*
X0145382Y0047136D01*
X0140664Y0049530D02*
X0138411Y0049530D01*
X0138268Y0050129D02*
X0140845Y0050129D01*
X0133855Y0047735D02*
X0131315Y0047735D01*
X0131315Y0048333D02*
X0130715Y0048333D01*
X0130715Y0047735D02*
X0127099Y0047735D01*
X0127099Y0048333D02*
X0128337Y0048333D01*
X0128337Y0048932D02*
X0127099Y0048932D01*
X0127099Y0049530D02*
X0128337Y0049530D01*
X0128434Y0050129D02*
X0127099Y0050129D01*
X0127099Y0050727D02*
X0128967Y0050727D01*
X0130715Y0050727D02*
X0131315Y0050727D01*
X0131315Y0050129D02*
X0130715Y0050129D01*
X0130715Y0049530D02*
X0131315Y0049530D01*
X0131315Y0048932D02*
X0130715Y0048932D01*
X0130715Y0047136D02*
X0131315Y0047136D01*
X0131274Y0046538D02*
X0130715Y0046538D01*
X0130715Y0045939D02*
X0131274Y0045939D01*
X0131274Y0045341D02*
X0130715Y0045341D01*
X0130674Y0044742D02*
X0131274Y0044742D01*
X0131274Y0044144D02*
X0130674Y0044144D01*
X0130674Y0043545D02*
X0127099Y0043545D01*
X0127099Y0042947D02*
X0128296Y0042947D01*
X0128296Y0042348D02*
X0127099Y0042348D01*
X0127099Y0041750D02*
X0128296Y0041750D01*
X0128262Y0041151D02*
X0127099Y0041151D01*
X0127099Y0040553D02*
X0128262Y0040553D01*
X0128262Y0039954D02*
X0127099Y0039954D01*
X0127099Y0039356D02*
X0130640Y0039356D01*
X0130640Y0039954D02*
X0131240Y0039954D01*
X0131240Y0039356D02*
X0133780Y0039356D01*
X0133780Y0039954D02*
X0133618Y0039954D01*
X0133618Y0040553D02*
X0133780Y0040553D01*
X0133780Y0041151D02*
X0133618Y0041151D01*
X0133652Y0041750D02*
X0133815Y0041750D01*
X0133815Y0042348D02*
X0133652Y0042348D01*
X0133652Y0042947D02*
X0133815Y0042947D01*
X0133815Y0043545D02*
X0131274Y0043545D01*
X0131274Y0042947D02*
X0130674Y0042947D01*
X0130674Y0042348D02*
X0131240Y0042348D01*
X0131240Y0041750D02*
X0130674Y0041750D01*
X0130674Y0041151D02*
X0131240Y0041151D01*
X0131240Y0040553D02*
X0130674Y0040553D01*
X0130640Y0038757D02*
X0131240Y0038757D01*
X0131240Y0038159D02*
X0130640Y0038159D01*
X0130640Y0037560D02*
X0131194Y0037560D01*
X0131194Y0036961D02*
X0130640Y0036961D01*
X0130640Y0036363D02*
X0131194Y0036363D01*
X0131194Y0035764D02*
X0130594Y0035764D01*
X0131194Y0035166D02*
X0133735Y0035166D01*
X0133735Y0035764D02*
X0133572Y0035764D01*
X0133572Y0036363D02*
X0133735Y0036363D01*
X0133735Y0036961D02*
X0133572Y0036961D01*
X0133618Y0037560D02*
X0133780Y0037560D01*
X0133780Y0038159D02*
X0133618Y0038159D01*
X0133618Y0038757D02*
X0133780Y0038757D01*
X0133735Y0034567D02*
X0133572Y0034567D01*
X0133572Y0033969D02*
X0133735Y0033969D01*
X0133735Y0033370D02*
X0133572Y0033370D01*
X0133467Y0032772D02*
X0133892Y0032772D01*
X0132918Y0032173D02*
X0146120Y0032173D01*
X0145572Y0032772D02*
X0145150Y0032772D01*
X0145306Y0033370D02*
X0145468Y0033370D01*
X0145468Y0033969D02*
X0145306Y0033969D01*
X0145306Y0034567D02*
X0145468Y0034567D01*
X0140750Y0033370D02*
X0138291Y0033370D01*
X0138133Y0032772D02*
X0140906Y0032772D01*
X0131194Y0032772D02*
X0130594Y0032772D01*
X0130594Y0033370D02*
X0131194Y0033370D01*
X0131194Y0033969D02*
X0130594Y0033969D01*
X0130594Y0034567D02*
X0131194Y0034567D01*
X0131194Y0032173D02*
X0130594Y0032173D01*
X0128871Y0032173D02*
X0123528Y0032173D01*
X0123528Y0032772D02*
X0124590Y0032772D01*
X0123992Y0033370D02*
X0123243Y0033370D01*
X0123313Y0033969D02*
X0123510Y0033969D01*
X0123928Y0036363D02*
X0124041Y0036363D01*
X0124640Y0036961D02*
X0120959Y0036961D01*
X0120959Y0037540D02*
X0123928Y0037540D01*
X0123928Y0039576D01*
X0123839Y0039907D01*
X0123668Y0040203D01*
X0123426Y0040445D01*
X0123130Y0040617D01*
X0122799Y0040705D01*
X0120959Y0040705D01*
X0120959Y0037540D01*
X0120959Y0037560D02*
X0120359Y0037560D01*
X0120359Y0038159D02*
X0120959Y0038159D01*
X0120959Y0038757D02*
X0120359Y0038757D01*
X0120359Y0039356D02*
X0120959Y0039356D01*
X0120959Y0039954D02*
X0120359Y0039954D01*
X0120359Y0040553D02*
X0120959Y0040553D01*
X0119748Y0041151D02*
X0124699Y0041151D01*
X0124699Y0040553D02*
X0123241Y0040553D01*
X0123812Y0039954D02*
X0124699Y0039954D01*
X0124699Y0039356D02*
X0123928Y0039356D01*
X0123928Y0038757D02*
X0124699Y0038757D01*
X0124699Y0038159D02*
X0123928Y0038159D01*
X0123928Y0037560D02*
X0124699Y0037560D01*
X0127099Y0037560D02*
X0128262Y0037560D01*
X0128262Y0038159D02*
X0127099Y0038159D01*
X0127099Y0038757D02*
X0128262Y0038757D01*
X0128216Y0036961D02*
X0127158Y0036961D01*
X0127756Y0036363D02*
X0128216Y0036363D01*
X0125899Y0034842D02*
X0125899Y0052289D01*
X0122607Y0055581D01*
X0122397Y0055581D01*
X0120856Y0057122D01*
X0111447Y0057122D01*
X0108297Y0060271D01*
X0106216Y0060303D02*
X0104473Y0060303D01*
X0104473Y0059705D02*
X0106216Y0059705D01*
X0106519Y0059106D02*
X0104170Y0059106D01*
X0104473Y0059409D02*
X0104473Y0061133D01*
X0103254Y0062352D01*
X0101530Y0062352D01*
X0100311Y0061133D01*
X0100311Y0059409D01*
X0101530Y0058190D01*
X0103254Y0058190D01*
X0104473Y0059409D01*
X0103571Y0058508D02*
X0107118Y0058508D01*
X0108962Y0057909D02*
X0086205Y0057909D01*
X0085900Y0058508D02*
X0089401Y0058508D01*
X0089719Y0058190D02*
X0088500Y0059409D01*
X0088500Y0061133D01*
X0089719Y0062352D01*
X0091443Y0062352D01*
X0092662Y0061133D01*
X0092662Y0059409D01*
X0091443Y0058190D01*
X0089719Y0058190D01*
X0088803Y0059106D02*
X0086122Y0059106D01*
X0086205Y0059705D02*
X0088500Y0059705D01*
X0088500Y0060303D02*
X0086205Y0060303D01*
X0086205Y0060902D02*
X0088500Y0060902D01*
X0088867Y0061500D02*
X0086057Y0061500D01*
X0085965Y0062099D02*
X0089465Y0062099D01*
X0089719Y0064096D02*
X0088500Y0065315D01*
X0088500Y0067039D01*
X0089719Y0068258D01*
X0091443Y0068258D01*
X0092662Y0067039D01*
X0092662Y0065315D01*
X0091443Y0064096D01*
X0089719Y0064096D01*
X0089321Y0064493D02*
X0086205Y0064493D01*
X0086205Y0063894D02*
X0118578Y0063894D01*
X0118578Y0063296D02*
X0086205Y0063296D01*
X0086205Y0062697D02*
X0118578Y0062697D01*
X0118819Y0062099D02*
X0115318Y0062099D01*
X0115917Y0061500D02*
X0118726Y0061500D01*
X0118578Y0060902D02*
X0116284Y0060902D01*
X0116284Y0060303D02*
X0118578Y0060303D01*
X0118578Y0059705D02*
X0116284Y0059705D01*
X0115981Y0059106D02*
X0118662Y0059106D01*
X0118883Y0058508D02*
X0115382Y0058508D01*
X0113023Y0058508D02*
X0111758Y0058508D01*
X0111159Y0059106D02*
X0112425Y0059106D01*
X0112122Y0059705D02*
X0110561Y0059705D01*
X0110378Y0060303D02*
X0112122Y0060303D01*
X0112122Y0060902D02*
X0110378Y0060902D01*
X0110011Y0061500D02*
X0112489Y0061500D01*
X0113087Y0062099D02*
X0109413Y0062099D01*
X0109159Y0064096D02*
X0107435Y0064096D01*
X0106216Y0065315D01*
X0106216Y0067039D01*
X0107435Y0068258D01*
X0109159Y0068258D01*
X0110378Y0067039D01*
X0110378Y0065315D01*
X0109159Y0064096D01*
X0109556Y0064493D02*
X0112943Y0064493D01*
X0113341Y0064096D02*
X0112122Y0065315D01*
X0112122Y0067039D01*
X0113341Y0068258D01*
X0115065Y0068258D01*
X0116284Y0067039D01*
X0116284Y0065315D01*
X0115065Y0064096D01*
X0113341Y0064096D01*
X0112345Y0065092D02*
X0110155Y0065092D01*
X0110378Y0065690D02*
X0112122Y0065690D01*
X0112122Y0066289D02*
X0110378Y0066289D01*
X0110378Y0066887D02*
X0112122Y0066887D01*
X0112568Y0067486D02*
X0109932Y0067486D01*
X0109333Y0068084D02*
X0113167Y0068084D01*
X0113037Y0069880D02*
X0086205Y0069880D01*
X0086205Y0070478D02*
X0089242Y0070478D01*
X0089719Y0070001D02*
X0088500Y0071220D01*
X0088500Y0072944D01*
X0089719Y0074163D01*
X0091443Y0074163D01*
X0092662Y0072944D01*
X0092662Y0071220D01*
X0091443Y0070001D01*
X0089719Y0070001D01*
X0088643Y0071077D02*
X0085930Y0071077D01*
X0086092Y0071675D02*
X0088500Y0071675D01*
X0088500Y0072274D02*
X0086205Y0072274D01*
X0086205Y0072872D02*
X0088500Y0072872D01*
X0089026Y0073471D02*
X0086205Y0073471D01*
X0086087Y0074069D02*
X0089624Y0074069D01*
X0091537Y0074069D02*
X0095530Y0074069D01*
X0095624Y0074163D02*
X0094405Y0072944D01*
X0094405Y0071220D01*
X0095624Y0070001D01*
X0097348Y0070001D01*
X0098567Y0071220D01*
X0098567Y0072944D01*
X0097348Y0074163D01*
X0095624Y0074163D01*
X0094931Y0073471D02*
X0092136Y0073471D01*
X0092662Y0072872D02*
X0094405Y0072872D01*
X0094405Y0072274D02*
X0092662Y0072274D01*
X0092662Y0071675D02*
X0094405Y0071675D01*
X0094549Y0071077D02*
X0092518Y0071077D01*
X0091920Y0070478D02*
X0095147Y0070478D01*
X0095624Y0068258D02*
X0094405Y0067039D01*
X0094405Y0065315D01*
X0095624Y0064096D01*
X0097348Y0064096D01*
X0098567Y0065315D01*
X0098567Y0067039D01*
X0097348Y0068258D01*
X0095624Y0068258D01*
X0095450Y0068084D02*
X0091617Y0068084D01*
X0092215Y0067486D02*
X0094852Y0067486D01*
X0094405Y0066887D02*
X0092662Y0066887D01*
X0092662Y0066289D02*
X0094405Y0066289D01*
X0094405Y0065690D02*
X0092662Y0065690D01*
X0092438Y0065092D02*
X0094628Y0065092D01*
X0095227Y0064493D02*
X0091840Y0064493D01*
X0091696Y0062099D02*
X0095371Y0062099D01*
X0095624Y0062352D02*
X0094405Y0061133D01*
X0094405Y0059409D01*
X0095624Y0058190D01*
X0097348Y0058190D01*
X0098567Y0059409D01*
X0098567Y0061133D01*
X0097348Y0062352D01*
X0095624Y0062352D01*
X0094772Y0061500D02*
X0092295Y0061500D01*
X0092662Y0060902D02*
X0094405Y0060902D01*
X0094405Y0060303D02*
X0092662Y0060303D01*
X0092662Y0059705D02*
X0094405Y0059705D01*
X0094708Y0059106D02*
X0092359Y0059106D01*
X0091760Y0058508D02*
X0095307Y0058508D01*
X0097666Y0058508D02*
X0101212Y0058508D01*
X0100614Y0059106D02*
X0098264Y0059106D01*
X0098567Y0059705D02*
X0100311Y0059705D01*
X0100311Y0060303D02*
X0098567Y0060303D01*
X0098567Y0060902D02*
X0100311Y0060902D01*
X0100678Y0061500D02*
X0098200Y0061500D01*
X0097602Y0062099D02*
X0101276Y0062099D01*
X0101530Y0064096D02*
X0100311Y0065315D01*
X0100311Y0067039D01*
X0101530Y0068258D01*
X0103254Y0068258D01*
X0104473Y0067039D01*
X0104473Y0065315D01*
X0103254Y0064096D01*
X0101530Y0064096D01*
X0101132Y0064493D02*
X0097745Y0064493D01*
X0098344Y0065092D02*
X0100534Y0065092D01*
X0100311Y0065690D02*
X0098567Y0065690D01*
X0098567Y0066289D02*
X0100311Y0066289D01*
X0100311Y0066887D02*
X0098567Y0066887D01*
X0098121Y0067486D02*
X0100757Y0067486D01*
X0101356Y0068084D02*
X0097522Y0068084D01*
X0097825Y0070478D02*
X0101053Y0070478D01*
X0101530Y0070001D02*
X0100311Y0071220D01*
X0100311Y0072944D01*
X0101530Y0074163D01*
X0103254Y0074163D01*
X0104473Y0072944D01*
X0104473Y0071220D01*
X0103254Y0070001D01*
X0101530Y0070001D01*
X0100454Y0071077D02*
X0098424Y0071077D01*
X0098567Y0071675D02*
X0100311Y0071675D01*
X0100311Y0072274D02*
X0098567Y0072274D01*
X0098567Y0072872D02*
X0100311Y0072872D01*
X0100837Y0073471D02*
X0098041Y0073471D01*
X0097443Y0074069D02*
X0101435Y0074069D01*
X0103348Y0074069D02*
X0107341Y0074069D01*
X0107435Y0074163D02*
X0106216Y0072944D01*
X0106216Y0071220D01*
X0107435Y0070001D01*
X0109159Y0070001D01*
X0110378Y0071220D01*
X0110378Y0072944D01*
X0109159Y0074163D01*
X0107435Y0074163D01*
X0106742Y0073471D02*
X0103947Y0073471D01*
X0104473Y0072872D02*
X0106216Y0072872D01*
X0106216Y0072274D02*
X0104473Y0072274D01*
X0104473Y0071675D02*
X0106216Y0071675D01*
X0106360Y0071077D02*
X0104329Y0071077D01*
X0103731Y0070478D02*
X0106958Y0070478D01*
X0107261Y0068084D02*
X0103428Y0068084D01*
X0104026Y0067486D02*
X0106663Y0067486D01*
X0106216Y0066887D02*
X0104473Y0066887D01*
X0104473Y0066289D02*
X0106216Y0066289D01*
X0106216Y0065690D02*
X0104473Y0065690D01*
X0104249Y0065092D02*
X0106439Y0065092D01*
X0107038Y0064493D02*
X0103651Y0064493D01*
X0103507Y0062099D02*
X0107182Y0062099D01*
X0106583Y0061500D02*
X0104106Y0061500D01*
X0104473Y0060902D02*
X0106216Y0060902D01*
X0107102Y0056114D02*
X0104153Y0056114D01*
X0104601Y0055515D02*
X0106504Y0055515D01*
X0106216Y0054917D02*
X0104812Y0054917D01*
X0102682Y0054917D02*
X0102101Y0054917D01*
X0102101Y0055515D02*
X0102682Y0055515D01*
X0102682Y0056114D02*
X0102101Y0056114D01*
X0100631Y0056114D02*
X0098247Y0056114D01*
X0098696Y0055515D02*
X0100182Y0055515D01*
X0099972Y0054917D02*
X0098906Y0054917D01*
X0098887Y0053720D02*
X0099991Y0053720D01*
X0100239Y0053121D02*
X0098639Y0053121D01*
X0098152Y0052523D02*
X0100726Y0052523D01*
X0101530Y0050541D02*
X0100311Y0049322D01*
X0100311Y0047598D01*
X0101530Y0046379D01*
X0103254Y0046379D01*
X0104473Y0047598D01*
X0104473Y0049322D01*
X0103254Y0050541D01*
X0101530Y0050541D01*
X0101117Y0050129D02*
X0097761Y0050129D01*
X0098359Y0049530D02*
X0100518Y0049530D01*
X0100311Y0048932D02*
X0098567Y0048932D01*
X0098567Y0048333D02*
X0100311Y0048333D01*
X0100311Y0047735D02*
X0098567Y0047735D01*
X0098105Y0047136D02*
X0100773Y0047136D01*
X0101371Y0046538D02*
X0097507Y0046538D01*
X0097654Y0044144D02*
X0094531Y0044144D01*
X0092997Y0041151D02*
X0092889Y0041151D01*
X0092889Y0040553D02*
X0092997Y0040553D01*
X0092997Y0039954D02*
X0092889Y0039954D01*
X0092889Y0039356D02*
X0092997Y0039356D01*
X0094393Y0039356D02*
X0097004Y0039356D01*
X0097004Y0038757D02*
X0095258Y0038757D01*
X0095693Y0038159D02*
X0097004Y0038159D01*
X0097004Y0037560D02*
X0095693Y0037560D01*
X0098573Y0035980D02*
X0099872Y0037279D01*
X0099296Y0042348D02*
X0099188Y0042348D01*
X0099188Y0042947D02*
X0099296Y0042947D01*
X0099296Y0043545D02*
X0099188Y0043545D01*
X0099188Y0044144D02*
X0099296Y0044144D01*
X0102337Y0044144D02*
X0102446Y0044144D01*
X0102446Y0043545D02*
X0102337Y0043545D01*
X0102337Y0042947D02*
X0102446Y0042947D01*
X0102446Y0042348D02*
X0102337Y0042348D01*
X0103412Y0046538D02*
X0107277Y0046538D01*
X0106678Y0047136D02*
X0104011Y0047136D01*
X0104473Y0047735D02*
X0106216Y0047735D01*
X0106216Y0048333D02*
X0104473Y0048333D01*
X0104473Y0048932D02*
X0106216Y0048932D01*
X0106424Y0049530D02*
X0104265Y0049530D01*
X0103666Y0050129D02*
X0107023Y0050129D01*
X0109397Y0052523D02*
X0112537Y0052523D01*
X0112621Y0052439D02*
X0113028Y0052167D01*
X0113479Y0051980D01*
X0113912Y0051894D01*
X0113912Y0054075D01*
X0111731Y0054075D01*
X0111817Y0053642D01*
X0112004Y0053191D01*
X0112276Y0052784D01*
X0112621Y0052439D01*
X0112050Y0053121D02*
X0109996Y0053121D01*
X0110378Y0053720D02*
X0111802Y0053720D01*
X0111783Y0054917D02*
X0110378Y0054917D01*
X0110378Y0054318D02*
X0113912Y0054318D01*
X0114203Y0054366D02*
X0114596Y0053972D01*
X0120856Y0053972D01*
X0118178Y0053720D02*
X0116604Y0053720D01*
X0116355Y0053121D02*
X0118178Y0053121D01*
X0118405Y0052523D02*
X0115868Y0052523D01*
X0114493Y0052523D02*
X0113912Y0052523D01*
X0113912Y0053121D02*
X0114493Y0053121D01*
X0114493Y0053720D02*
X0113912Y0053720D01*
X0114203Y0054366D02*
X0114203Y0048460D01*
X0114493Y0048333D02*
X0118178Y0048333D01*
X0118178Y0047735D02*
X0116588Y0047735D01*
X0116302Y0047136D02*
X0118178Y0047136D01*
X0118247Y0046538D02*
X0115789Y0046538D01*
X0116675Y0048751D02*
X0114493Y0048751D01*
X0114493Y0050932D01*
X0114926Y0050846D01*
X0115378Y0050659D01*
X0115784Y0050388D01*
X0116130Y0050042D01*
X0116401Y0049636D01*
X0116588Y0049184D01*
X0116675Y0048751D01*
X0116639Y0048932D02*
X0118295Y0048932D01*
X0118789Y0049530D02*
X0116445Y0049530D01*
X0116043Y0050129D02*
X0118578Y0050129D01*
X0118578Y0050727D02*
X0115213Y0050727D01*
X0114493Y0050727D02*
X0113912Y0050727D01*
X0113912Y0050129D02*
X0114493Y0050129D01*
X0114493Y0049530D02*
X0113912Y0049530D01*
X0113912Y0048932D02*
X0114493Y0048932D01*
X0112617Y0046538D02*
X0109318Y0046538D01*
X0110091Y0055515D02*
X0111993Y0055515D01*
X0110758Y0056114D02*
X0109492Y0056114D01*
X0114493Y0054318D02*
X0118178Y0054318D01*
X0118196Y0054917D02*
X0116623Y0054917D01*
X0116412Y0055515D02*
X0118474Y0055515D01*
X0123308Y0052523D02*
X0123968Y0052523D01*
X0124567Y0051924D02*
X0123114Y0051924D01*
X0123134Y0051326D02*
X0124699Y0051326D01*
X0124699Y0050727D02*
X0123134Y0050727D01*
X0123134Y0050129D02*
X0124699Y0050129D01*
X0124699Y0049530D02*
X0122923Y0049530D01*
X0123418Y0048932D02*
X0124699Y0048932D01*
X0124699Y0048333D02*
X0123534Y0048333D01*
X0123534Y0047735D02*
X0124699Y0047735D01*
X0124699Y0047136D02*
X0123534Y0047136D01*
X0123466Y0046538D02*
X0124699Y0046538D01*
X0124699Y0045939D02*
X0123327Y0045939D01*
X0123534Y0045341D02*
X0124699Y0045341D01*
X0124699Y0044742D02*
X0123534Y0044742D01*
X0123534Y0044469D02*
X0120911Y0044469D01*
X0120911Y0042515D01*
X0122405Y0042515D01*
X0122736Y0042603D01*
X0123032Y0042774D01*
X0123274Y0043016D01*
X0123446Y0043313D01*
X0123534Y0043644D01*
X0123534Y0044469D01*
X0123534Y0044144D02*
X0124699Y0044144D01*
X0124699Y0043545D02*
X0123508Y0043545D01*
X0123205Y0042947D02*
X0124699Y0042947D01*
X0124699Y0042348D02*
X0119748Y0042348D01*
X0119748Y0041750D02*
X0124699Y0041750D01*
X0127099Y0044144D02*
X0128296Y0044144D01*
X0128296Y0044742D02*
X0127099Y0044742D01*
X0127099Y0045341D02*
X0128296Y0045341D01*
X0128337Y0045939D02*
X0127099Y0045939D01*
X0127099Y0046538D02*
X0128337Y0046538D01*
X0128337Y0047136D02*
X0127099Y0047136D01*
X0127099Y0051326D02*
X0132881Y0051326D01*
X0132881Y0051924D02*
X0127099Y0051924D01*
X0127099Y0052523D02*
X0132881Y0052523D01*
X0132881Y0053121D02*
X0126764Y0053121D01*
X0126165Y0053720D02*
X0132080Y0053720D01*
X0131807Y0054318D02*
X0131415Y0054318D01*
X0129266Y0054318D02*
X0128667Y0054318D01*
X0128667Y0054917D02*
X0129266Y0054917D01*
X0129266Y0055515D02*
X0128667Y0055515D01*
X0128667Y0056114D02*
X0129266Y0056114D01*
X0129266Y0057311D02*
X0128667Y0057311D01*
X0128667Y0057909D02*
X0129266Y0057909D01*
X0129266Y0058508D02*
X0128667Y0058508D01*
X0128667Y0059106D02*
X0129266Y0059106D01*
X0125895Y0056114D02*
X0123771Y0056114D01*
X0124370Y0055515D02*
X0125895Y0055515D01*
X0125989Y0054917D02*
X0124968Y0054917D01*
X0125567Y0054318D02*
X0126518Y0054318D01*
X0131997Y0058508D02*
X0147680Y0058508D01*
X0143788Y0063582D02*
X0143788Y0063866D01*
X0143997Y0064075D01*
X0143997Y0065069D01*
X0143788Y0065277D01*
X0143788Y0065561D01*
X0142389Y0066961D01*
X0140410Y0066961D01*
X0139010Y0065561D01*
X0139010Y0063582D01*
X0140410Y0062183D01*
X0142389Y0062183D01*
X0143788Y0063582D01*
X0143816Y0063894D02*
X0193682Y0063894D01*
X0193682Y0063296D02*
X0143502Y0063296D01*
X0142903Y0062697D02*
X0193682Y0062697D01*
X0193682Y0062099D02*
X0136756Y0062099D01*
X0136756Y0062697D02*
X0139895Y0062697D01*
X0139296Y0063296D02*
X0136756Y0063296D01*
X0136656Y0063894D02*
X0139010Y0063894D01*
X0139010Y0064493D02*
X0135481Y0064493D01*
X0135481Y0065092D02*
X0139010Y0065092D01*
X0139139Y0065690D02*
X0135481Y0065690D01*
X0135481Y0066289D02*
X0139737Y0066289D01*
X0140336Y0066887D02*
X0135481Y0066887D01*
X0135949Y0067486D02*
X0193682Y0067486D01*
X0193682Y0068084D02*
X0136547Y0068084D01*
X0140623Y0070478D02*
X0145816Y0070478D01*
X0145816Y0071077D02*
X0141221Y0071077D01*
X0142462Y0066887D02*
X0193682Y0066887D01*
X0193682Y0066289D02*
X0143061Y0066289D01*
X0143659Y0065690D02*
X0193682Y0065690D01*
X0193682Y0065092D02*
X0143974Y0065092D01*
X0143997Y0064493D02*
X0193682Y0064493D01*
X0193682Y0072274D02*
X0158048Y0072274D01*
X0158647Y0072872D02*
X0193682Y0072872D01*
X0193682Y0073471D02*
X0158757Y0073471D01*
X0158757Y0074069D02*
X0160996Y0074069D01*
X0160397Y0074668D02*
X0158757Y0074668D01*
X0158453Y0075266D02*
X0159799Y0075266D01*
X0159743Y0075865D02*
X0157854Y0075865D01*
X0156954Y0076463D02*
X0152376Y0076463D01*
X0152741Y0077062D02*
X0156355Y0077062D01*
X0154882Y0075865D02*
X0123134Y0075865D01*
X0123134Y0076463D02*
X0130242Y0076463D01*
X0129878Y0077062D02*
X0123134Y0077062D01*
X0122883Y0077660D02*
X0125147Y0077660D01*
X0124548Y0078259D02*
X0123482Y0078259D01*
X0123981Y0078857D02*
X0124096Y0078857D01*
X0124096Y0079456D02*
X0123981Y0079456D01*
X0123981Y0080054D02*
X0124096Y0080054D01*
X0126485Y0079700D02*
X0130148Y0083185D01*
X0130148Y0090665D01*
X0132116Y0090665D02*
X0132116Y0079012D01*
X0132156Y0078972D01*
X0134433Y0078857D02*
X0134996Y0078857D01*
X0134996Y0078259D02*
X0134433Y0078259D01*
X0134433Y0077660D02*
X0134996Y0077660D01*
X0134996Y0077062D02*
X0134433Y0077062D01*
X0134069Y0076463D02*
X0135360Y0076463D01*
X0134996Y0079456D02*
X0134433Y0079456D01*
X0134433Y0080054D02*
X0134996Y0080054D01*
X0134996Y0080653D02*
X0134433Y0080653D01*
X0134299Y0081251D02*
X0135130Y0081251D01*
X0136074Y0081850D02*
X0133316Y0081850D01*
X0133316Y0082448D02*
X0136226Y0082448D01*
X0136824Y0083047D02*
X0133316Y0083047D01*
X0133316Y0083645D02*
X0137423Y0083645D01*
X0138021Y0084244D02*
X0133316Y0084244D01*
X0133316Y0084842D02*
X0138620Y0084842D01*
X0137751Y0085441D02*
X0136312Y0085441D01*
X0136910Y0086039D02*
X0137152Y0086039D01*
X0135618Y0087820D02*
X0135111Y0087619D01*
X0133910Y0085441D02*
X0133316Y0085441D01*
X0130916Y0081850D02*
X0130485Y0081850D01*
X0130012Y0081251D02*
X0129856Y0081251D01*
X0129878Y0080653D02*
X0129227Y0080653D01*
X0128874Y0080054D02*
X0129878Y0080054D01*
X0129878Y0079456D02*
X0128874Y0079456D01*
X0128874Y0078857D02*
X0129878Y0078857D01*
X0129878Y0078259D02*
X0128422Y0078259D01*
X0127823Y0077660D02*
X0129878Y0077660D01*
X0137274Y0078972D02*
X0137274Y0081799D01*
X0142069Y0086594D01*
X0142069Y0088573D01*
X0140669Y0089973D01*
X0136135Y0089973D01*
X0134012Y0092097D01*
X0132653Y0092097D01*
X0132116Y0092634D01*
X0132116Y0094602D02*
X0136564Y0094602D01*
X0138230Y0092936D01*
X0140902Y0094439D02*
X0145659Y0089287D01*
X0148528Y0089032D02*
X0150271Y0089032D01*
X0150271Y0089630D02*
X0148528Y0089630D01*
X0148528Y0090229D02*
X0150271Y0090229D01*
X0150271Y0090827D02*
X0148528Y0090827D01*
X0148528Y0091426D02*
X0150271Y0091426D01*
X0150667Y0092025D02*
X0148132Y0092025D01*
X0148233Y0095616D02*
X0164171Y0095616D01*
X0164171Y0095483D02*
X0165570Y0094084D01*
X0167549Y0094084D01*
X0168949Y0095483D01*
X0168949Y0097462D01*
X0167549Y0098861D01*
X0165570Y0098861D01*
X0164171Y0097462D01*
X0164171Y0095483D01*
X0164637Y0095017D02*
X0142102Y0095017D01*
X0141669Y0095616D02*
X0143086Y0095616D01*
X0142509Y0096214D02*
X0141071Y0096214D01*
X0140902Y0096813D02*
X0142391Y0096813D01*
X0142391Y0097411D02*
X0140902Y0097411D01*
X0140902Y0098010D02*
X0142391Y0098010D01*
X0142391Y0099207D02*
X0141080Y0099207D01*
X0140902Y0098608D02*
X0145359Y0098608D01*
X0145359Y0098010D02*
X0145959Y0098010D01*
X0145959Y0098608D02*
X0149300Y0098608D01*
X0148928Y0098010D02*
X0149898Y0098010D01*
X0150271Y0097411D02*
X0148928Y0097411D01*
X0148928Y0096813D02*
X0150271Y0096813D01*
X0150452Y0096214D02*
X0148810Y0096214D01*
X0145959Y0096214D02*
X0145359Y0096214D01*
X0145359Y0095616D02*
X0145959Y0095616D01*
X0145959Y0096813D02*
X0145359Y0096813D01*
X0145359Y0097411D02*
X0145959Y0097411D01*
X0142391Y0099805D02*
X0141678Y0099805D01*
X0141780Y0101604D02*
X0148001Y0101604D01*
X0150869Y0098736D01*
X0153140Y0098736D01*
X0161099Y0098342D01*
X0166236Y0103480D01*
X0172673Y0103480D01*
X0172705Y0103512D01*
X0172264Y0103441D01*
X0170639Y0102199D02*
X0166653Y0102199D01*
X0166054Y0101601D02*
X0171237Y0101601D01*
X0167803Y0098608D02*
X0193682Y0098608D01*
X0193682Y0098010D02*
X0168401Y0098010D01*
X0168949Y0097411D02*
X0193682Y0097411D01*
X0193682Y0096813D02*
X0168949Y0096813D01*
X0168949Y0096214D02*
X0193682Y0096214D01*
X0193682Y0095616D02*
X0168949Y0095616D01*
X0168483Y0095017D02*
X0193682Y0095017D01*
X0193682Y0094419D02*
X0167884Y0094419D01*
X0165235Y0094419D02*
X0142554Y0094419D01*
X0143106Y0093820D02*
X0193682Y0093820D01*
X0193682Y0093222D02*
X0143659Y0093222D01*
X0144212Y0092623D02*
X0193682Y0092623D01*
X0191826Y0092025D02*
X0155612Y0092025D01*
X0156008Y0091426D02*
X0191227Y0091426D01*
X0190712Y0090827D02*
X0156008Y0090827D01*
X0156008Y0090229D02*
X0190712Y0090229D01*
X0190712Y0089630D02*
X0156008Y0089630D01*
X0156008Y0089032D02*
X0190712Y0089032D01*
X0191210Y0088433D02*
X0156137Y0088433D01*
X0156788Y0087835D02*
X0191808Y0087835D01*
X0193682Y0087236D02*
X0157439Y0087236D01*
X0158089Y0086638D02*
X0193682Y0086638D01*
X0193682Y0086039D02*
X0158761Y0086039D01*
X0159391Y0085441D02*
X0193682Y0085441D01*
X0193682Y0084842D02*
X0159427Y0084842D01*
X0159427Y0084244D02*
X0193682Y0084244D01*
X0193682Y0083645D02*
X0159427Y0083645D01*
X0159427Y0083047D02*
X0193682Y0083047D01*
X0193682Y0082448D02*
X0159427Y0082448D01*
X0159427Y0081850D02*
X0193682Y0081850D01*
X0193682Y0081251D02*
X0159427Y0081251D01*
X0159521Y0080653D02*
X0193682Y0080653D01*
X0193682Y0080054D02*
X0160120Y0080054D01*
X0160416Y0079456D02*
X0193682Y0079456D01*
X0193682Y0078857D02*
X0160416Y0078857D01*
X0160416Y0078259D02*
X0160701Y0078259D01*
X0159743Y0077062D02*
X0159700Y0077062D01*
X0159743Y0076463D02*
X0159101Y0076463D01*
X0158027Y0078768D02*
X0153920Y0078775D01*
X0149478Y0078775D01*
X0137470Y0078775D01*
X0137274Y0078972D01*
X0139552Y0080054D02*
X0146216Y0080054D01*
X0146216Y0080653D02*
X0139552Y0080653D01*
X0139417Y0081251D02*
X0156627Y0081251D01*
X0156627Y0081850D02*
X0139021Y0081850D01*
X0139620Y0082448D02*
X0156627Y0082448D01*
X0156627Y0083047D02*
X0140219Y0083047D01*
X0140817Y0083645D02*
X0156627Y0083645D01*
X0156556Y0084244D02*
X0141416Y0084244D01*
X0142014Y0084842D02*
X0155905Y0084842D01*
X0155254Y0085441D02*
X0142613Y0085441D01*
X0143211Y0086039D02*
X0154604Y0086039D01*
X0150579Y0086638D02*
X0148220Y0086638D01*
X0148528Y0087236D02*
X0150271Y0087236D01*
X0150271Y0087835D02*
X0148528Y0087835D01*
X0148528Y0088433D02*
X0150271Y0088433D01*
X0152741Y0080653D02*
X0156534Y0080653D01*
X0155935Y0080054D02*
X0152741Y0080054D01*
X0152012Y0074563D02*
X0149778Y0074563D01*
X0149778Y0071989D01*
X0153141Y0071989D01*
X0153141Y0073435D01*
X0153052Y0073765D01*
X0152881Y0074062D01*
X0152639Y0074304D01*
X0152342Y0074475D01*
X0152012Y0074563D01*
X0152873Y0074069D02*
X0153979Y0074069D01*
X0153979Y0073471D02*
X0153131Y0073471D01*
X0153141Y0072872D02*
X0154090Y0072872D01*
X0154688Y0072274D02*
X0153141Y0072274D01*
X0155287Y0071675D02*
X0149778Y0071675D01*
X0149778Y0071077D02*
X0149178Y0071077D01*
X0149178Y0070478D02*
X0149778Y0070478D01*
X0149778Y0069880D02*
X0149178Y0069880D01*
X0149178Y0069281D02*
X0149778Y0069281D01*
X0149778Y0072274D02*
X0149178Y0072274D01*
X0149178Y0072872D02*
X0149778Y0072872D01*
X0149778Y0073471D02*
X0149178Y0073471D01*
X0149178Y0074069D02*
X0149778Y0074069D01*
X0146581Y0076463D02*
X0139187Y0076463D01*
X0139552Y0077062D02*
X0146216Y0077062D01*
X0142797Y0064572D02*
X0141399Y0064572D01*
X0141415Y0060330D02*
X0142402Y0060241D01*
X0133855Y0047136D02*
X0133693Y0047136D01*
X0133693Y0046538D02*
X0133855Y0046538D01*
X0133855Y0045939D02*
X0133693Y0045939D01*
X0133652Y0045341D02*
X0133815Y0045341D01*
X0133815Y0044742D02*
X0133652Y0044742D01*
X0133652Y0044144D02*
X0133815Y0044144D01*
X0128216Y0033370D02*
X0127806Y0033370D01*
X0128321Y0032772D02*
X0127207Y0032772D01*
X0120959Y0033969D02*
X0120359Y0033969D01*
X0120359Y0034567D02*
X0120959Y0034567D01*
X0120959Y0035166D02*
X0120359Y0035166D01*
X0120359Y0035764D02*
X0120959Y0035764D01*
X0120959Y0036363D02*
X0120359Y0036363D01*
X0120359Y0036961D02*
X0116599Y0036961D01*
X0116599Y0037560D02*
X0117391Y0037560D01*
X0117391Y0038159D02*
X0116599Y0038159D01*
X0116823Y0036363D02*
X0117391Y0036363D01*
X0115344Y0035862D02*
X0113533Y0035862D01*
X0120802Y0042947D02*
X0120911Y0042947D01*
X0120911Y0043545D02*
X0120802Y0043545D01*
X0120802Y0044144D02*
X0120911Y0044144D01*
X0120911Y0044742D02*
X0120802Y0044742D01*
X0120802Y0045341D02*
X0120911Y0045341D01*
X0120911Y0045939D02*
X0120802Y0045939D01*
X0120802Y0046538D02*
X0120911Y0046538D01*
X0120911Y0047136D02*
X0120802Y0047136D01*
X0118578Y0064493D02*
X0115462Y0064493D01*
X0116061Y0065092D02*
X0118422Y0065092D01*
X0118179Y0065690D02*
X0116284Y0065690D01*
X0116284Y0066289D02*
X0118178Y0066289D01*
X0118178Y0066887D02*
X0116284Y0066887D01*
X0115837Y0067486D02*
X0118188Y0067486D01*
X0118445Y0068084D02*
X0115239Y0068084D01*
X0115368Y0069880D02*
X0118578Y0069880D01*
X0118578Y0070478D02*
X0116107Y0070478D01*
X0116472Y0071077D02*
X0118853Y0071077D01*
X0118578Y0069281D02*
X0086205Y0069281D01*
X0086205Y0068683D02*
X0118578Y0068683D01*
X0114493Y0069880D02*
X0113912Y0069880D01*
X0113912Y0070478D02*
X0114493Y0070478D01*
X0114493Y0071077D02*
X0113912Y0071077D01*
X0113912Y0071675D02*
X0114493Y0071675D01*
X0114203Y0072082D02*
X0114203Y0077949D01*
X0114990Y0078736D01*
X0118140Y0078736D01*
X0118085Y0078259D02*
X0118194Y0078259D01*
X0118194Y0077660D02*
X0118085Y0077660D01*
X0118085Y0077062D02*
X0118194Y0077062D01*
X0118194Y0076463D02*
X0118085Y0076463D01*
X0121592Y0079748D02*
X0128179Y0086335D01*
X0128179Y0090665D01*
X0128179Y0092634D02*
X0121880Y0092634D01*
X0120620Y0091374D01*
X0120620Y0093119D01*
X0110324Y0103415D01*
X0106428Y0103415D01*
X0103954Y0100941D01*
X0102470Y0100941D01*
X0099996Y0101002D02*
X0059384Y0101002D01*
X0059384Y0100404D02*
X0099996Y0100404D01*
X0099996Y0099805D02*
X0059384Y0099805D01*
X0059384Y0099207D02*
X0099996Y0099207D01*
X0100381Y0098608D02*
X0059384Y0098608D01*
X0059384Y0098010D02*
X0107188Y0098010D01*
X0107191Y0097411D02*
X0088222Y0097411D01*
X0088820Y0096813D02*
X0107193Y0096813D01*
X0107196Y0096214D02*
X0093406Y0096214D01*
X0093706Y0095616D02*
X0107198Y0095616D01*
X0107200Y0095017D02*
X0093731Y0095017D01*
X0093731Y0094419D02*
X0107203Y0094419D01*
X0106400Y0093820D02*
X0105313Y0093820D01*
X0105575Y0093222D02*
X0106137Y0093222D01*
X0106137Y0092623D02*
X0105575Y0092623D01*
X0105575Y0092025D02*
X0106137Y0092025D01*
X0106137Y0091426D02*
X0105575Y0091426D01*
X0105580Y0090827D02*
X0106137Y0090827D01*
X0105659Y0089051D02*
X0105541Y0078736D01*
X0104455Y0076463D02*
X0103478Y0076463D01*
X0101305Y0076463D02*
X0100329Y0076463D01*
X0098155Y0076463D02*
X0097179Y0076463D01*
X0095006Y0076463D02*
X0094030Y0076463D01*
X0091856Y0076463D02*
X0090880Y0076463D01*
X0088707Y0076463D02*
X0087730Y0076463D01*
X0086644Y0078736D02*
X0085935Y0079445D01*
X0085935Y0089130D01*
X0085935Y0093578D01*
X0088213Y0095723D02*
X0088213Y0086985D01*
X0088207Y0086368D01*
X0098252Y0086368D01*
X0103297Y0091413D01*
X0105659Y0089051D01*
X0108415Y0091413D02*
X0108376Y0100941D01*
X0105901Y0101002D02*
X0105712Y0101002D01*
X0105901Y0100404D02*
X0105114Y0100404D01*
X0104945Y0099805D02*
X0105901Y0099805D01*
X0105901Y0099207D02*
X0104945Y0099207D01*
X0104560Y0098608D02*
X0106286Y0098608D01*
X0104675Y0096728D02*
X0103691Y0096728D01*
X0100541Y0093578D01*
X0091053Y0093578D01*
X0091353Y0093820D02*
X0101282Y0093820D01*
X0101019Y0093222D02*
X0093731Y0093222D01*
X0093731Y0092623D02*
X0101019Y0092623D01*
X0101019Y0092025D02*
X0093731Y0092025D01*
X0093675Y0091426D02*
X0095946Y0091426D01*
X0095348Y0090827D02*
X0093331Y0090827D01*
X0091053Y0089130D02*
X0097028Y0089130D01*
X0098709Y0090827D02*
X0101015Y0090827D01*
X0101019Y0091426D02*
X0098110Y0091426D01*
X0099307Y0090229D02*
X0100416Y0090229D01*
X0099818Y0089630D02*
X0099417Y0089630D01*
X0091353Y0094419D02*
X0090753Y0094419D01*
X0090753Y0095017D02*
X0091353Y0095017D01*
X0091353Y0095616D02*
X0090753Y0095616D01*
X0090753Y0096214D02*
X0091353Y0096214D01*
X0088213Y0095723D02*
X0087686Y0096250D01*
X0084184Y0096250D01*
X0089793Y0083716D02*
X0089793Y0078736D01*
X0089545Y0068084D02*
X0085773Y0068084D01*
X0086205Y0067486D02*
X0088946Y0067486D01*
X0088500Y0066887D02*
X0086205Y0066887D01*
X0086205Y0066289D02*
X0088500Y0066289D01*
X0088500Y0065690D02*
X0086205Y0065690D01*
X0085808Y0065092D02*
X0088723Y0065092D01*
X0083927Y0069720D02*
X0077549Y0069720D01*
X0077510Y0069760D01*
X0079658Y0067486D02*
X0081649Y0067486D01*
X0081649Y0066887D02*
X0079687Y0066887D01*
X0080181Y0066289D02*
X0081649Y0066289D01*
X0081649Y0065690D02*
X0080181Y0065690D01*
X0080181Y0065092D02*
X0082047Y0065092D01*
X0081649Y0064493D02*
X0080181Y0064493D01*
X0080181Y0063894D02*
X0081649Y0063894D01*
X0081649Y0063296D02*
X0080181Y0063296D01*
X0079988Y0062697D02*
X0081649Y0062697D01*
X0081890Y0062099D02*
X0078741Y0062099D01*
X0078748Y0061500D02*
X0081797Y0061500D01*
X0081649Y0060902D02*
X0078755Y0060902D01*
X0078763Y0060303D02*
X0081649Y0060303D01*
X0081649Y0059705D02*
X0078770Y0059705D01*
X0078777Y0059106D02*
X0081733Y0059106D01*
X0081954Y0058508D02*
X0078784Y0058508D01*
X0078792Y0057909D02*
X0081649Y0057909D01*
X0081649Y0057311D02*
X0078799Y0057311D01*
X0078806Y0056712D02*
X0081649Y0056712D01*
X0081649Y0056114D02*
X0078813Y0056114D01*
X0077628Y0054917D02*
X0078888Y0053657D01*
X0077628Y0054917D02*
X0077510Y0064641D01*
X0077195Y0064641D01*
X0080181Y0068084D02*
X0082081Y0068084D01*
X0083888Y0069760D02*
X0083927Y0069720D01*
X0096196Y0056114D02*
X0096777Y0056114D01*
X0096777Y0055515D02*
X0096196Y0055515D01*
X0096196Y0054917D02*
X0096777Y0054917D01*
X0096777Y0053121D02*
X0096196Y0053121D01*
X0096196Y0052523D02*
X0096777Y0052523D01*
X0086698Y0041151D02*
X0086589Y0041151D01*
X0086589Y0040553D02*
X0086698Y0040553D01*
X0086698Y0039954D02*
X0086589Y0039954D01*
X0086589Y0039356D02*
X0086698Y0039356D01*
X0089000Y0036961D02*
X0089563Y0036961D01*
X0089563Y0036363D02*
X0089000Y0036363D01*
X0089000Y0035764D02*
X0089563Y0035764D01*
X0089563Y0035166D02*
X0089000Y0035166D01*
X0089000Y0034567D02*
X0089563Y0034567D01*
X0089563Y0033969D02*
X0089000Y0033969D01*
X0088732Y0033370D02*
X0089831Y0033370D01*
X0088671Y0032772D02*
X0059328Y0032772D01*
X0059316Y0032173D02*
X0088073Y0032173D01*
X0087474Y0031575D02*
X0059304Y0031575D01*
X0059292Y0030976D02*
X0087339Y0030976D01*
X0087339Y0030378D02*
X0059280Y0030378D01*
X0059267Y0029779D02*
X0087339Y0029779D01*
X0087618Y0029181D02*
X0059255Y0029181D01*
X0059384Y0046538D02*
X0070146Y0046538D01*
X0069548Y0047136D02*
X0059384Y0047136D01*
X0059384Y0047735D02*
X0069262Y0047735D01*
X0069262Y0048333D02*
X0059384Y0048333D01*
X0069234Y0048932D02*
X0069262Y0048932D01*
X0070411Y0050727D02*
X0070587Y0050727D01*
X0075368Y0051326D02*
X0077841Y0051326D01*
X0077242Y0051924D02*
X0075966Y0051924D01*
X0076565Y0052523D02*
X0076644Y0052523D01*
X0079935Y0051326D02*
X0081649Y0051326D01*
X0081670Y0051924D02*
X0080533Y0051924D01*
X0081132Y0052523D02*
X0082017Y0052523D01*
X0081649Y0053121D02*
X0081277Y0053121D01*
X0081277Y0053720D02*
X0081649Y0053720D01*
X0081649Y0054318D02*
X0081277Y0054318D01*
X0081007Y0054917D02*
X0081649Y0054917D01*
X0082111Y0055515D02*
X0080408Y0055515D01*
X0091193Y0039356D02*
X0091493Y0039356D01*
X0089563Y0037560D02*
X0089495Y0037560D01*
X0099572Y0029779D02*
X0100172Y0029779D01*
X0100172Y0029181D02*
X0099572Y0029181D01*
X0099572Y0028582D02*
X0100172Y0028582D01*
X0100172Y0027984D02*
X0099572Y0027984D01*
X0099572Y0027385D02*
X0100172Y0027385D01*
X0105502Y0024393D02*
X0080707Y0024393D01*
X0080703Y0024991D02*
X0105952Y0024991D01*
X0105426Y0023794D02*
X0080712Y0023794D01*
X0080716Y0023196D02*
X0105426Y0023196D01*
X0105426Y0022597D02*
X0080721Y0022597D01*
X0080725Y0021999D02*
X0105426Y0021999D01*
X0110270Y0018032D02*
X0113025Y0018032D01*
X0113025Y0020591D01*
X0112932Y0020802D02*
X0113119Y0020802D01*
X0113119Y0021400D02*
X0112932Y0021400D01*
X0112932Y0021999D02*
X0113119Y0021999D01*
X0113119Y0022597D02*
X0112932Y0022597D01*
X0112932Y0023196D02*
X0113119Y0023196D01*
X0113119Y0023794D02*
X0112932Y0023794D01*
X0112932Y0024393D02*
X0113119Y0024393D01*
X0113119Y0024991D02*
X0112932Y0024991D01*
X0112932Y0020203D02*
X0113119Y0020203D01*
X0113119Y0019605D02*
X0112932Y0019605D01*
X0112932Y0019006D02*
X0113119Y0019006D01*
X0113119Y0018408D02*
X0112932Y0018408D01*
X0112932Y0017809D02*
X0113119Y0017809D01*
X0113119Y0017211D02*
X0112932Y0017211D01*
X0112932Y0016612D02*
X0113119Y0016612D01*
X0113119Y0016014D02*
X0112932Y0016014D01*
X0111808Y0016014D02*
X0111487Y0016014D01*
X0110363Y0016014D02*
X0110176Y0016014D01*
X0110176Y0016612D02*
X0110363Y0016612D01*
X0110363Y0017211D02*
X0110176Y0017211D01*
X0110176Y0017809D02*
X0110363Y0017809D01*
X0109052Y0016014D02*
X0108731Y0016014D01*
X0094089Y0016612D02*
X0080765Y0016612D01*
X0080770Y0016014D02*
X0093490Y0016014D01*
X0093094Y0015415D02*
X0080774Y0015415D01*
X0080778Y0014817D02*
X0093094Y0014817D01*
X0093094Y0014218D02*
X0080783Y0014218D01*
X0080787Y0013620D02*
X0093113Y0013620D01*
X0093711Y0013021D02*
X0080792Y0013021D01*
X0080796Y0012423D02*
X0094310Y0012423D01*
X0080836Y0007036D02*
X0127398Y0007036D01*
X0126799Y0006437D02*
X0080840Y0006437D01*
X0109636Y0070478D02*
X0112298Y0070478D01*
X0111934Y0071077D02*
X0110235Y0071077D01*
X0110378Y0071675D02*
X0111754Y0071675D01*
X0111731Y0072373D02*
X0113912Y0072373D01*
X0113912Y0074554D01*
X0113479Y0074468D01*
X0113028Y0074281D01*
X0112621Y0074010D01*
X0112276Y0073664D01*
X0112004Y0073258D01*
X0111817Y0072806D01*
X0111731Y0072373D01*
X0111844Y0072872D02*
X0110378Y0072872D01*
X0110378Y0072274D02*
X0113912Y0072274D01*
X0113912Y0072872D02*
X0114493Y0072872D01*
X0114493Y0073471D02*
X0113912Y0073471D01*
X0113912Y0074069D02*
X0114493Y0074069D01*
X0112710Y0074069D02*
X0109254Y0074069D01*
X0109852Y0073471D02*
X0112146Y0073471D01*
X0112927Y0076463D02*
X0113338Y0076463D01*
X0114936Y0076463D02*
X0115044Y0076463D01*
X0115044Y0077062D02*
X0114936Y0077062D01*
X0114936Y0077660D02*
X0115044Y0077660D01*
X0115044Y0078259D02*
X0114936Y0078259D01*
X0114936Y0078790D02*
X0114936Y0081414D01*
X0114110Y0081414D01*
X0113780Y0081325D01*
X0113483Y0081154D01*
X0113241Y0080912D01*
X0113162Y0080774D01*
X0113068Y0080868D01*
X0113152Y0087327D01*
X0114527Y0088702D01*
X0117253Y0088702D01*
X0117373Y0088822D01*
X0117373Y0085206D01*
X0116184Y0084017D01*
X0116184Y0082038D01*
X0116908Y0081313D01*
X0116633Y0081154D01*
X0116565Y0081086D01*
X0116497Y0081154D01*
X0116201Y0081325D01*
X0115870Y0081414D01*
X0115044Y0081414D01*
X0115044Y0078790D01*
X0114936Y0078790D01*
X0114936Y0078857D02*
X0115044Y0078857D01*
X0115044Y0079456D02*
X0114936Y0079456D01*
X0114936Y0080054D02*
X0115044Y0080054D01*
X0115044Y0080653D02*
X0114936Y0080653D01*
X0114936Y0081251D02*
X0115044Y0081251D01*
X0116329Y0081251D02*
X0116801Y0081251D01*
X0116372Y0081850D02*
X0113081Y0081850D01*
X0113089Y0082448D02*
X0116184Y0082448D01*
X0116184Y0083047D02*
X0113097Y0083047D01*
X0113104Y0083645D02*
X0116184Y0083645D01*
X0116411Y0084244D02*
X0113112Y0084244D01*
X0113120Y0084842D02*
X0117009Y0084842D01*
X0117373Y0085441D02*
X0113128Y0085441D01*
X0113135Y0086039D02*
X0117373Y0086039D01*
X0117373Y0086638D02*
X0113143Y0086638D01*
X0113151Y0087236D02*
X0117373Y0087236D01*
X0117373Y0087835D02*
X0113660Y0087835D01*
X0114259Y0088433D02*
X0117373Y0088433D01*
X0118573Y0089326D02*
X0118573Y0083027D01*
X0113652Y0081251D02*
X0113073Y0081251D01*
X0111841Y0078736D02*
X0111959Y0087830D01*
X0115502Y0091374D01*
X0118573Y0089326D02*
X0120620Y0091374D01*
X0126811Y0094602D02*
X0128179Y0094602D01*
X0126811Y0094602D02*
X0120436Y0100977D01*
X0120436Y0101640D01*
X0116677Y0101640D01*
X0114288Y0101601D02*
X0113835Y0101601D01*
X0114288Y0102199D02*
X0113237Y0102199D01*
X0112638Y0102798D02*
X0114456Y0102798D01*
X0115055Y0103396D02*
X0112040Y0103396D01*
X0111441Y0103995D02*
X0115653Y0103995D01*
X0117701Y0103995D02*
X0119778Y0103995D01*
X0119236Y0103396D02*
X0118299Y0103396D01*
X0120436Y0102956D02*
X0120436Y0101640D01*
X0121636Y0101601D02*
X0125445Y0101601D01*
X0124846Y0102199D02*
X0121636Y0102199D01*
X0121636Y0102459D02*
X0122333Y0103155D01*
X0123890Y0103155D01*
X0130694Y0096352D01*
X0130389Y0096434D01*
X0130148Y0096434D01*
X0130148Y0094602D01*
X0130148Y0092771D01*
X0130148Y0092634D01*
X0130148Y0092634D01*
X0130148Y0094602D01*
X0130148Y0094602D01*
X0130148Y0094602D01*
X0130148Y0094658D01*
X0128772Y0096034D01*
X0128758Y0096034D01*
X0122825Y0101966D01*
X0121975Y0102798D02*
X0124248Y0102798D01*
X0124387Y0104355D02*
X0121836Y0104355D01*
X0120436Y0102956D01*
X0121636Y0102459D02*
X0121636Y0101474D01*
X0127308Y0095802D01*
X0127355Y0095802D01*
X0127586Y0096034D01*
X0128772Y0096034D01*
X0128881Y0095925D01*
X0129023Y0096068D01*
X0129441Y0096309D01*
X0129907Y0096434D01*
X0130148Y0096434D01*
X0130148Y0094602D01*
X0130148Y0092634D01*
X0130148Y0093222D02*
X0130148Y0093222D01*
X0130148Y0093820D02*
X0130148Y0093820D01*
X0130148Y0094419D02*
X0130148Y0094419D01*
X0130148Y0095017D02*
X0130148Y0095017D01*
X0130148Y0095616D02*
X0130148Y0095616D01*
X0130148Y0096214D02*
X0130148Y0096214D01*
X0130233Y0096813D02*
X0126298Y0096813D01*
X0125699Y0097411D02*
X0129634Y0097411D01*
X0129036Y0098010D02*
X0125101Y0098010D01*
X0124502Y0098608D02*
X0128437Y0098608D01*
X0127839Y0099207D02*
X0123904Y0099207D01*
X0123305Y0099805D02*
X0127240Y0099805D01*
X0126642Y0100404D02*
X0122707Y0100404D01*
X0122108Y0101002D02*
X0126043Y0101002D01*
X0124387Y0104355D02*
X0132709Y0096034D01*
X0139554Y0096034D01*
X0140902Y0094686D01*
X0140902Y0094439D01*
X0138230Y0098054D02*
X0141780Y0101604D01*
X0132611Y0102299D02*
X0131988Y0102062D01*
X0129277Y0096214D02*
X0126896Y0096214D01*
X0120377Y0104593D02*
X0110843Y0104593D01*
X0105909Y0104593D02*
X0059329Y0104593D01*
X0059384Y0103995D02*
X0105311Y0103995D01*
X0104712Y0103396D02*
X0104437Y0103396D01*
X0100504Y0103396D02*
X0059384Y0103396D01*
X0059384Y0102798D02*
X0099996Y0102798D01*
X0099996Y0102199D02*
X0059384Y0102199D01*
X0059384Y0101601D02*
X0099996Y0101601D01*
X0099675Y0110586D02*
X0132611Y0110586D01*
X0156008Y0096813D02*
X0164171Y0096813D01*
X0164171Y0097411D02*
X0161865Y0097411D01*
X0162463Y0098010D02*
X0164718Y0098010D01*
X0165317Y0098608D02*
X0163062Y0098608D01*
X0163660Y0099207D02*
X0191456Y0099207D01*
X0190857Y0099805D02*
X0164259Y0099805D01*
X0164857Y0100404D02*
X0190355Y0100404D01*
X0190355Y0101002D02*
X0165456Y0101002D01*
X0164171Y0096214D02*
X0155828Y0096214D01*
X0174172Y0101601D02*
X0190355Y0101601D01*
X0190355Y0102199D02*
X0174771Y0102199D01*
X0175094Y0102798D02*
X0190866Y0102798D01*
X0191464Y0103396D02*
X0175094Y0103396D01*
X0175094Y0103995D02*
X0193682Y0103995D01*
X0193682Y0104593D02*
X0175002Y0104593D01*
X0163563Y0078259D02*
X0193682Y0078259D01*
X0193682Y0077660D02*
X0164162Y0077660D01*
X0164521Y0077062D02*
X0193682Y0077062D01*
X0193682Y0076463D02*
X0164521Y0076463D01*
X0164521Y0075865D02*
X0193682Y0075865D01*
X0193682Y0075266D02*
X0164466Y0075266D01*
X0163867Y0074668D02*
X0193682Y0074668D01*
X0193682Y0074069D02*
X0163269Y0074069D01*
X0110754Y0076463D02*
X0109778Y0076463D01*
X0107604Y0076463D02*
X0106628Y0076463D01*
D29*
X0096575Y0083216D03*
X0097028Y0089130D03*
X0089793Y0083716D03*
X0103691Y0096728D03*
X0111137Y0097500D03*
X0116677Y0101640D03*
X0122825Y0101966D03*
X0132611Y0102299D03*
X0135111Y0087619D03*
X0138968Y0087602D03*
X0126485Y0079700D03*
X0121592Y0079748D03*
X0118573Y0083027D03*
X0139596Y0072830D03*
X0141399Y0064572D03*
X0141415Y0060330D03*
X0150275Y0059122D03*
X0158045Y0067329D03*
X0156368Y0073972D03*
X0158027Y0078768D03*
X0162132Y0076311D03*
X0166645Y0091078D03*
X0166560Y0096473D03*
X0172705Y0103512D03*
X0192744Y0101297D03*
X0193101Y0089921D03*
X0192083Y0050317D03*
X0192201Y0039384D03*
X0192267Y0029022D03*
X0182912Y0029069D03*
X0172574Y0029022D03*
X0162709Y0028842D03*
X0151235Y0017417D03*
X0151493Y0005106D03*
X0141287Y0005050D03*
X0133122Y0010536D03*
X0128959Y0005219D03*
X0130674Y0029171D03*
X0125899Y0034842D03*
X0113609Y0028621D03*
X0106910Y0031239D03*
X0093801Y0030441D03*
X0089728Y0030450D03*
X0081229Y0040479D03*
X0078481Y0037713D03*
X0070094Y0040560D03*
X0071650Y0048412D03*
X0068022Y0051098D03*
X0068047Y0055399D03*
X0074281Y0053618D03*
X0078888Y0053657D03*
X0069241Y0075995D03*
X0052857Y0076877D03*
X0053053Y0067865D03*
X0053053Y0057580D03*
X0053079Y0047703D03*
X0053368Y0036452D03*
X0053450Y0025043D03*
X0053661Y0012535D03*
X0095483Y0014628D03*
X0153199Y0043834D03*
X0159523Y0044848D03*
X0099865Y0121242D03*
X0068428Y0103291D03*
X0052625Y0091104D03*
D30*
X0089793Y0041807D02*
X0089793Y0039838D01*
X0085935Y0035980D01*
X0092628Y0035980D02*
X0098573Y0035980D01*
X0099872Y0037279D02*
X0105423Y0037279D01*
X0106841Y0035862D02*
X0110305Y0032397D01*
X0110270Y0032397D01*
X0110270Y0022264D01*
X0113025Y0023031D02*
X0113025Y0020591D01*
X0113025Y0023031D02*
X0116112Y0026118D01*
X0113609Y0028621D01*
X0120659Y0030547D02*
X0115344Y0035862D01*
X0128967Y0049000D02*
X0131015Y0046952D01*
X0131015Y0043539D01*
X0130974Y0043539D01*
X0130974Y0039344D01*
X0130940Y0039344D01*
X0130940Y0035074D01*
X0130894Y0035074D01*
X0130894Y0029392D01*
X0130674Y0029171D01*
X0136013Y0035074D02*
X0143027Y0035074D01*
X0143028Y0035072D01*
X0143024Y0035076D01*
X0143024Y0039306D01*
X0142986Y0039344D01*
X0136058Y0039344D01*
X0136058Y0043505D01*
X0136093Y0043539D01*
X0142982Y0043539D01*
X0142982Y0039348D01*
X0143024Y0039306D01*
X0142982Y0043539D02*
X0142942Y0043580D01*
X0142942Y0047803D01*
X0136171Y0047803D01*
X0136133Y0047841D01*
X0134281Y0049693D01*
X0134281Y0055941D01*
X0147093Y0055941D01*
X0150275Y0059122D01*
X0148060Y0047803D02*
X0148060Y0043539D01*
X0148100Y0043539D01*
X0148100Y0043834D01*
X0153199Y0043834D01*
X0148100Y0043539D02*
X0148100Y0039306D01*
X0148142Y0039306D01*
X0148142Y0035072D01*
X0148146Y0035072D01*
X0136013Y0035074D02*
X0136013Y0039298D01*
X0136058Y0039344D01*
X0136093Y0043539D02*
X0136133Y0043580D01*
X0136133Y0047841D01*
X0131015Y0047841D02*
X0131015Y0046952D01*
X0128967Y0049000D02*
X0128967Y0056807D01*
X0158027Y0078768D02*
X0158027Y0084793D01*
X0153140Y0089287D01*
D31*
X0132611Y0102299D02*
X0132611Y0110586D01*
X0099865Y0121242D02*
X0099675Y0191492D01*
X0007436Y0082345D02*
X0011507Y0078412D01*
X0027117Y0078412D01*
X0031058Y0074471D01*
X0027181Y0070474D02*
X0011433Y0070474D01*
X0007436Y0074471D01*
X0007436Y0066597D02*
X0011522Y0062511D01*
X0027358Y0062511D01*
X0031058Y0058810D01*
X0031058Y0058723D01*
X0027136Y0054801D02*
X0031058Y0050879D01*
X0031058Y0050849D01*
X0027280Y0046817D02*
X0031058Y0043039D01*
X0031058Y0042975D01*
X0027280Y0046817D02*
X0011468Y0046817D01*
X0007436Y0050849D01*
X0011357Y0054801D02*
X0027136Y0054801D01*
X0031058Y0066597D02*
X0027181Y0070474D01*
X0011357Y0054801D02*
X0007436Y0058723D01*
X0007436Y0042975D02*
X0011427Y0038984D01*
X0027175Y0038984D01*
X0031058Y0035101D01*
X0031058Y0035101D01*
X0027189Y0031135D02*
X0031058Y0027266D01*
X0031058Y0027227D01*
X0027189Y0031135D02*
X0011402Y0031135D01*
X0007436Y0035101D01*
X0007436Y0027227D02*
X0011436Y0023227D01*
X0027234Y0023227D01*
X0031058Y0019403D01*
X0031058Y0019353D01*
X0027374Y0015246D02*
X0031058Y0011562D01*
X0031058Y0011479D01*
X0027374Y0015246D02*
X0011542Y0015246D01*
X0007436Y0019353D01*
X0120659Y0030547D02*
X0140738Y0010468D01*
X0164439Y0010468D01*
M02*
