G75*
%MOIN*%
%OFA0B0*%
%FSLAX25Y25*%
%IPPOS*%
%LPD*%
%AMOC8*
5,1,8,0,0,1.08239X$1,22.5*
%
%ADD10R,0.07087X0.03937*%
%ADD11R,0.00984X0.01772*%
%ADD12R,0.02756X0.03543*%
%ADD13R,0.03543X0.02756*%
%ADD14R,0.01772X0.01063*%
%ADD15R,0.01063X0.01772*%
%ADD16R,0.04331X0.03937*%
%ADD17R,0.03937X0.04331*%
%ADD18R,0.03150X0.03150*%
%ADD19R,0.20276X0.20276*%
%ADD20C,0.01181*%
%ADD21R,1.85039X0.08661*%
%ADD22R,1.85039X0.04331*%
%ADD23R,0.04528X0.05512*%
%ADD24R,0.03346X0.00906*%
%ADD25R,0.03937X0.00906*%
%ADD26R,0.05433X0.07087*%
%ADD27R,0.07874X0.06693*%
%ADD28R,0.03937X0.03937*%
%ADD29R,0.01575X0.03346*%
%ADD30R,0.01575X0.06693*%
%ADD31R,0.01575X0.01575*%
%ADD32R,0.01772X0.05315*%
%ADD33R,0.04724X0.03150*%
%ADD34R,0.03150X0.04724*%
D10*
X0065738Y0059917D03*
X0065738Y0069760D03*
D11*
X0099045Y0068893D03*
X0101014Y0068893D03*
X0102982Y0068893D03*
X0102982Y0072043D03*
X0101014Y0072043D03*
X0099045Y0072043D03*
D12*
X0078691Y0069838D03*
X0073573Y0069838D03*
X0076919Y0049720D03*
X0076880Y0044602D03*
X0081998Y0044602D03*
X0082037Y0049720D03*
X0069911Y0044563D03*
X0064793Y0044563D03*
X0086841Y0036059D03*
X0091959Y0036059D03*
X0099203Y0035941D03*
X0104321Y0035941D03*
X0101250Y0046019D03*
X0101132Y0050783D03*
X0096014Y0050783D03*
X0096132Y0046019D03*
X0131178Y0042142D03*
X0136296Y0042142D03*
X0147440Y0064811D03*
X0147350Y0069125D03*
X0152468Y0069125D03*
X0152558Y0064811D03*
D13*
X0135416Y0077182D03*
X0135416Y0082300D03*
X0128192Y0092801D03*
X0123707Y0092837D03*
X0119398Y0092776D03*
X0115189Y0092791D03*
X0115189Y0097910D03*
X0119398Y0097894D03*
X0123707Y0097955D03*
X0128192Y0097919D03*
X0094800Y0074048D03*
X0094800Y0068929D03*
X0073219Y0063657D03*
X0073219Y0058539D03*
D14*
X0064813Y0010803D03*
X0064813Y0012496D03*
X0064813Y0014189D03*
X0064813Y0015882D03*
X0064813Y0017575D03*
X0064813Y0019267D03*
X0064813Y0020960D03*
X0064813Y0022653D03*
X0074459Y0022653D03*
X0074459Y0020960D03*
X0074459Y0019267D03*
X0074459Y0017575D03*
X0074459Y0015882D03*
X0074459Y0014189D03*
X0074459Y0012496D03*
X0074459Y0010803D03*
D15*
X0072175Y0010921D03*
X0070482Y0010921D03*
X0068789Y0010921D03*
X0067096Y0010921D03*
X0067096Y0022535D03*
X0068789Y0022535D03*
X0070482Y0022535D03*
X0072175Y0022535D03*
D16*
X0082395Y0077541D03*
X0089087Y0077541D03*
X0068732Y0082379D03*
X0062039Y0082379D03*
X0123203Y0085079D03*
X0129896Y0085079D03*
X0132833Y0097250D03*
X0139526Y0097250D03*
D17*
X0075662Y0082687D03*
X0075662Y0075995D03*
X0063541Y0088954D03*
X0063541Y0095647D03*
D18*
X0089636Y0051295D03*
X0089636Y0045389D03*
X0095581Y0040980D03*
X0101486Y0040980D03*
X0140180Y0077243D03*
X0140180Y0083149D03*
D19*
X0120266Y0060744D03*
D20*
X0132667Y0061728D02*
X0132667Y0061728D01*
X0134243Y0061728D01*
X0134243Y0061728D01*
X0132667Y0061728D01*
X0132667Y0059760D02*
X0132667Y0059760D01*
X0134243Y0059760D01*
X0134243Y0059760D01*
X0132667Y0059760D01*
X0132667Y0057791D02*
X0132667Y0057791D01*
X0134243Y0057791D01*
X0134243Y0057791D01*
X0132667Y0057791D01*
X0132667Y0055823D02*
X0132667Y0055823D01*
X0134243Y0055823D01*
X0134243Y0055823D01*
X0132667Y0055823D01*
X0132667Y0053854D02*
X0132667Y0053854D01*
X0134243Y0053854D01*
X0134243Y0053854D01*
X0132667Y0053854D01*
X0132667Y0051886D02*
X0132667Y0051886D01*
X0134243Y0051886D01*
X0134243Y0051886D01*
X0132667Y0051886D01*
X0132667Y0049917D02*
X0132667Y0049917D01*
X0134243Y0049917D01*
X0134243Y0049917D01*
X0132667Y0049917D01*
X0131093Y0048343D02*
X0131093Y0048343D01*
X0131093Y0046767D01*
X0131093Y0046767D01*
X0131093Y0048343D01*
X0131093Y0047947D02*
X0131093Y0047947D01*
X0129124Y0048343D02*
X0129124Y0048343D01*
X0129124Y0046767D01*
X0129124Y0046767D01*
X0129124Y0048343D01*
X0129124Y0047947D02*
X0129124Y0047947D01*
X0127156Y0048343D02*
X0127156Y0048343D01*
X0127156Y0046767D01*
X0127156Y0046767D01*
X0127156Y0048343D01*
X0127156Y0047947D02*
X0127156Y0047947D01*
X0125187Y0048343D02*
X0125187Y0048343D01*
X0125187Y0046767D01*
X0125187Y0046767D01*
X0125187Y0048343D01*
X0125187Y0047947D02*
X0125187Y0047947D01*
X0123219Y0048343D02*
X0123219Y0048343D01*
X0123219Y0046767D01*
X0123219Y0046767D01*
X0123219Y0048343D01*
X0123219Y0047947D02*
X0123219Y0047947D01*
X0121250Y0048343D02*
X0121250Y0048343D01*
X0121250Y0046767D01*
X0121250Y0046767D01*
X0121250Y0048343D01*
X0121250Y0047947D02*
X0121250Y0047947D01*
X0119281Y0048343D02*
X0119281Y0048343D01*
X0119281Y0046767D01*
X0119281Y0046767D01*
X0119281Y0048343D01*
X0119281Y0047947D02*
X0119281Y0047947D01*
X0117313Y0048343D02*
X0117313Y0048343D01*
X0117313Y0046767D01*
X0117313Y0046767D01*
X0117313Y0048343D01*
X0117313Y0047947D02*
X0117313Y0047947D01*
X0115344Y0048343D02*
X0115344Y0048343D01*
X0115344Y0046767D01*
X0115344Y0046767D01*
X0115344Y0048343D01*
X0115344Y0047947D02*
X0115344Y0047947D01*
X0113376Y0048343D02*
X0113376Y0048343D01*
X0113376Y0046767D01*
X0113376Y0046767D01*
X0113376Y0048343D01*
X0113376Y0047947D02*
X0113376Y0047947D01*
X0111407Y0048343D02*
X0111407Y0048343D01*
X0111407Y0046767D01*
X0111407Y0046767D01*
X0111407Y0048343D01*
X0111407Y0047947D02*
X0111407Y0047947D01*
X0109439Y0048343D02*
X0109439Y0048343D01*
X0109439Y0046767D01*
X0109439Y0046767D01*
X0109439Y0048343D01*
X0109439Y0047947D02*
X0109439Y0047947D01*
X0107865Y0049917D02*
X0107865Y0049917D01*
X0106289Y0049917D01*
X0106289Y0049917D01*
X0107865Y0049917D01*
X0107865Y0051886D02*
X0107865Y0051886D01*
X0106289Y0051886D01*
X0106289Y0051886D01*
X0107865Y0051886D01*
X0107865Y0053854D02*
X0107865Y0053854D01*
X0106289Y0053854D01*
X0106289Y0053854D01*
X0107865Y0053854D01*
X0107865Y0055823D02*
X0107865Y0055823D01*
X0106289Y0055823D01*
X0106289Y0055823D01*
X0107865Y0055823D01*
X0107865Y0057791D02*
X0107865Y0057791D01*
X0106289Y0057791D01*
X0106289Y0057791D01*
X0107865Y0057791D01*
X0107865Y0059760D02*
X0107865Y0059760D01*
X0106289Y0059760D01*
X0106289Y0059760D01*
X0107865Y0059760D01*
X0107865Y0061728D02*
X0107865Y0061728D01*
X0106289Y0061728D01*
X0106289Y0061728D01*
X0107865Y0061728D01*
X0107865Y0063697D02*
X0107865Y0063697D01*
X0106289Y0063697D01*
X0106289Y0063697D01*
X0107865Y0063697D01*
X0107865Y0065665D02*
X0107865Y0065665D01*
X0106289Y0065665D01*
X0106289Y0065665D01*
X0107865Y0065665D01*
X0107865Y0067634D02*
X0107865Y0067634D01*
X0106289Y0067634D01*
X0106289Y0067634D01*
X0107865Y0067634D01*
X0107865Y0069602D02*
X0107865Y0069602D01*
X0106289Y0069602D01*
X0106289Y0069602D01*
X0107865Y0069602D01*
X0107865Y0071571D02*
X0107865Y0071571D01*
X0106289Y0071571D01*
X0106289Y0071571D01*
X0107865Y0071571D01*
X0109439Y0073145D02*
X0109439Y0073145D01*
X0109439Y0074721D01*
X0109439Y0074721D01*
X0109439Y0073145D01*
X0109439Y0074325D02*
X0109439Y0074325D01*
X0111407Y0073145D02*
X0111407Y0073145D01*
X0111407Y0074721D01*
X0111407Y0074721D01*
X0111407Y0073145D01*
X0111407Y0074325D02*
X0111407Y0074325D01*
X0113376Y0073145D02*
X0113376Y0073145D01*
X0113376Y0074721D01*
X0113376Y0074721D01*
X0113376Y0073145D01*
X0113376Y0074325D02*
X0113376Y0074325D01*
X0115344Y0073145D02*
X0115344Y0073145D01*
X0115344Y0074721D01*
X0115344Y0074721D01*
X0115344Y0073145D01*
X0115344Y0074325D02*
X0115344Y0074325D01*
X0117313Y0074721D02*
X0117313Y0074721D01*
X0117313Y0073145D01*
X0117313Y0073145D01*
X0117313Y0074721D01*
X0117313Y0074325D02*
X0117313Y0074325D01*
X0119281Y0074721D02*
X0119281Y0074721D01*
X0119281Y0073145D01*
X0119281Y0073145D01*
X0119281Y0074721D01*
X0119281Y0074325D02*
X0119281Y0074325D01*
X0121250Y0074721D02*
X0121250Y0074721D01*
X0121250Y0073145D01*
X0121250Y0073145D01*
X0121250Y0074721D01*
X0121250Y0074325D02*
X0121250Y0074325D01*
X0123219Y0074721D02*
X0123219Y0074721D01*
X0123219Y0073145D01*
X0123219Y0073145D01*
X0123219Y0074721D01*
X0123219Y0074325D02*
X0123219Y0074325D01*
X0125187Y0073145D02*
X0125187Y0073145D01*
X0125187Y0074721D01*
X0125187Y0074721D01*
X0125187Y0073145D01*
X0125187Y0074325D02*
X0125187Y0074325D01*
X0127156Y0073145D02*
X0127156Y0073145D01*
X0127156Y0074721D01*
X0127156Y0074721D01*
X0127156Y0073145D01*
X0127156Y0074325D02*
X0127156Y0074325D01*
X0129124Y0073145D02*
X0129124Y0073145D01*
X0129124Y0074721D01*
X0129124Y0074721D01*
X0129124Y0073145D01*
X0129124Y0074325D02*
X0129124Y0074325D01*
X0131093Y0073145D02*
X0131093Y0073145D01*
X0131093Y0074721D01*
X0131093Y0074721D01*
X0131093Y0073145D01*
X0131093Y0074325D02*
X0131093Y0074325D01*
X0132667Y0071571D02*
X0132667Y0071571D01*
X0134243Y0071571D01*
X0134243Y0071571D01*
X0132667Y0071571D01*
X0132667Y0069602D02*
X0132667Y0069602D01*
X0134243Y0069602D01*
X0134243Y0069602D01*
X0132667Y0069602D01*
X0132667Y0067634D02*
X0132667Y0067634D01*
X0134243Y0067634D01*
X0134243Y0067634D01*
X0132667Y0067634D01*
X0132667Y0065665D02*
X0132667Y0065665D01*
X0134243Y0065665D01*
X0134243Y0065665D01*
X0132667Y0065665D01*
X0132667Y0063697D02*
X0132667Y0063697D01*
X0134243Y0063697D01*
X0134243Y0063697D01*
X0132667Y0063697D01*
D21*
X0099763Y0110556D03*
D22*
X0099763Y0191461D03*
D23*
X0103691Y0089956D03*
X0109990Y0089956D03*
X0109990Y0081295D03*
X0103691Y0081295D03*
D24*
X0192254Y0076334D03*
X0192254Y0074760D03*
X0192254Y0073185D03*
X0192254Y0071610D03*
X0192254Y0070035D03*
X0192254Y0068460D03*
X0192254Y0066886D03*
X0192254Y0065311D03*
X0192254Y0063736D03*
X0192254Y0062161D03*
D25*
X0187431Y0062949D03*
X0187431Y0064523D03*
X0187431Y0066098D03*
X0187431Y0067673D03*
X0187431Y0069248D03*
X0187431Y0070823D03*
X0187431Y0072397D03*
X0187431Y0073972D03*
X0187431Y0075547D03*
D26*
X0186683Y0080468D03*
X0186683Y0058027D03*
D27*
X0173455Y0058027D03*
X0173455Y0080468D03*
D28*
X0056648Y0082345D03*
D29*
X0074207Y0095111D03*
D30*
X0076963Y0096784D03*
X0071452Y0096784D03*
D31*
X0074207Y0099343D03*
D32*
X0144761Y0097278D03*
X0147320Y0097278D03*
X0149879Y0097278D03*
X0152438Y0097278D03*
X0152438Y0081727D03*
X0149879Y0081727D03*
X0147320Y0081727D03*
X0144761Y0081727D03*
D33*
X0160241Y0086728D03*
X0160241Y0093815D03*
D34*
X0175442Y0089501D03*
X0182529Y0089501D03*
M02*
