G75*
%MOIN*%
%OFA0B0*%
%FSLAX25Y25*%
%IPPOS*%
%LPD*%
%AMOC8*
5,1,8,0,0,1.08239X$1,22.5*
%
%ADD10C,0.00000*%
%ADD11C,0.00300*%
%ADD12C,0.00500*%
%ADD13C,0.00400*%
%ADD14C,0.01600*%
%ADD15C,0.00100*%
%ADD16C,0.01575*%
%ADD17C,0.00800*%
%ADD18C,0.00295*%
%ADD19R,0.01600X0.02800*%
%ADD20C,0.02200*%
%ADD21R,0.02800X0.01600*%
%ADD22C,0.00600*%
D10*
X0001395Y0001649D02*
X0001395Y0198500D01*
X0198246Y0198500D01*
X0198246Y0001649D01*
X0001395Y0001649D01*
D11*
X0158667Y0006340D02*
X0159473Y0006340D01*
X0159473Y0006339D02*
X0159528Y0006341D01*
X0159583Y0006347D01*
X0159637Y0006356D01*
X0159690Y0006369D01*
X0159743Y0006386D01*
X0159794Y0006406D01*
X0159844Y0006429D01*
X0159892Y0006456D01*
X0159938Y0006487D01*
X0159982Y0006520D01*
X0160023Y0006556D01*
X0160062Y0006595D01*
X0160098Y0006636D01*
X0160131Y0006680D01*
X0160162Y0006726D01*
X0160189Y0006774D01*
X0160212Y0006824D01*
X0160232Y0006875D01*
X0160249Y0006928D01*
X0160262Y0006981D01*
X0160271Y0007035D01*
X0160277Y0007090D01*
X0160279Y0007145D01*
X0160278Y0007145D02*
X0160278Y0008434D01*
X0160279Y0008434D02*
X0160277Y0008489D01*
X0160271Y0008544D01*
X0160262Y0008598D01*
X0160249Y0008651D01*
X0160232Y0008704D01*
X0160212Y0008755D01*
X0160189Y0008805D01*
X0160162Y0008853D01*
X0160131Y0008899D01*
X0160098Y0008943D01*
X0160062Y0008984D01*
X0160023Y0009023D01*
X0159982Y0009059D01*
X0159938Y0009092D01*
X0159892Y0009123D01*
X0159844Y0009150D01*
X0159794Y0009173D01*
X0159743Y0009193D01*
X0159690Y0009210D01*
X0159637Y0009223D01*
X0159583Y0009232D01*
X0159528Y0009238D01*
X0159473Y0009240D01*
X0158667Y0009240D01*
X0158667Y0006340D01*
X0161612Y0006823D02*
X0161612Y0007629D01*
X0161612Y0007306D02*
X0162901Y0007306D01*
X0162901Y0007629D01*
X0162899Y0007678D01*
X0162893Y0007727D01*
X0162884Y0007776D01*
X0162871Y0007823D01*
X0162854Y0007870D01*
X0162834Y0007915D01*
X0162811Y0007958D01*
X0162784Y0008000D01*
X0162754Y0008039D01*
X0162721Y0008076D01*
X0162685Y0008110D01*
X0162647Y0008141D01*
X0162607Y0008170D01*
X0162565Y0008195D01*
X0162520Y0008217D01*
X0162475Y0008235D01*
X0162428Y0008250D01*
X0162380Y0008261D01*
X0162331Y0008269D01*
X0162282Y0008273D01*
X0162232Y0008273D01*
X0162183Y0008269D01*
X0162134Y0008261D01*
X0162086Y0008250D01*
X0162039Y0008235D01*
X0161994Y0008217D01*
X0161949Y0008195D01*
X0161907Y0008170D01*
X0161867Y0008141D01*
X0161829Y0008110D01*
X0161793Y0008076D01*
X0161760Y0008039D01*
X0161730Y0008000D01*
X0161703Y0007958D01*
X0161680Y0007915D01*
X0161660Y0007870D01*
X0161643Y0007823D01*
X0161630Y0007776D01*
X0161621Y0007727D01*
X0161615Y0007678D01*
X0161613Y0007629D01*
X0161612Y0006823D02*
X0161614Y0006781D01*
X0161619Y0006739D01*
X0161628Y0006698D01*
X0161641Y0006658D01*
X0161657Y0006619D01*
X0161677Y0006582D01*
X0161699Y0006546D01*
X0161725Y0006513D01*
X0161753Y0006481D01*
X0161785Y0006453D01*
X0161818Y0006427D01*
X0161854Y0006405D01*
X0161891Y0006385D01*
X0161930Y0006369D01*
X0161970Y0006356D01*
X0162011Y0006347D01*
X0162053Y0006342D01*
X0162095Y0006340D01*
X0162901Y0006340D01*
X0164511Y0008274D02*
X0164594Y0008271D01*
X0164677Y0008264D01*
X0164759Y0008253D01*
X0164841Y0008239D01*
X0164922Y0008221D01*
X0165003Y0008199D01*
X0165082Y0008174D01*
X0165160Y0008145D01*
X0165236Y0008113D01*
X0164511Y0008273D02*
X0164471Y0008272D01*
X0164431Y0008266D01*
X0164392Y0008258D01*
X0164354Y0008245D01*
X0164318Y0008229D01*
X0164283Y0008209D01*
X0164250Y0008186D01*
X0164220Y0008160D01*
X0164192Y0008132D01*
X0164167Y0008101D01*
X0164145Y0008067D01*
X0164126Y0008032D01*
X0164111Y0007995D01*
X0164100Y0007956D01*
X0164092Y0007917D01*
X0164088Y0007877D01*
X0164087Y0007838D01*
X0164091Y0007798D01*
X0164098Y0007758D01*
X0164109Y0007720D01*
X0164124Y0007683D01*
X0164142Y0007647D01*
X0164164Y0007613D01*
X0164188Y0007582D01*
X0164216Y0007553D01*
X0164246Y0007527D01*
X0164279Y0007504D01*
X0164313Y0007484D01*
X0164350Y0007467D01*
X0164350Y0007468D02*
X0165155Y0007145D01*
X0165192Y0007128D01*
X0165226Y0007108D01*
X0165259Y0007085D01*
X0165289Y0007059D01*
X0165317Y0007030D01*
X0165341Y0006999D01*
X0165363Y0006965D01*
X0165381Y0006929D01*
X0165396Y0006892D01*
X0165407Y0006854D01*
X0165414Y0006814D01*
X0165418Y0006774D01*
X0165417Y0006735D01*
X0165413Y0006695D01*
X0165405Y0006656D01*
X0165394Y0006617D01*
X0165379Y0006580D01*
X0165360Y0006545D01*
X0165338Y0006511D01*
X0165313Y0006480D01*
X0165285Y0006452D01*
X0165255Y0006426D01*
X0165222Y0006403D01*
X0165187Y0006383D01*
X0165151Y0006367D01*
X0165113Y0006354D01*
X0165074Y0006346D01*
X0165034Y0006340D01*
X0164994Y0006339D01*
X0166577Y0006340D02*
X0166577Y0008273D01*
X0166657Y0009079D02*
X0166496Y0009079D01*
X0166496Y0009240D01*
X0166657Y0009240D01*
X0166657Y0009079D01*
X0164994Y0006340D02*
X0164894Y0006344D01*
X0164793Y0006351D01*
X0164693Y0006361D01*
X0164594Y0006376D01*
X0164495Y0006394D01*
X0164397Y0006415D01*
X0164299Y0006440D01*
X0164203Y0006469D01*
X0164108Y0006501D01*
X0167740Y0006823D02*
X0167740Y0007790D01*
X0167742Y0007832D01*
X0167747Y0007874D01*
X0167756Y0007915D01*
X0167769Y0007955D01*
X0167785Y0007994D01*
X0167805Y0008032D01*
X0167827Y0008067D01*
X0167853Y0008100D01*
X0167881Y0008132D01*
X0167913Y0008160D01*
X0167946Y0008186D01*
X0167982Y0008208D01*
X0168019Y0008228D01*
X0168058Y0008244D01*
X0168098Y0008257D01*
X0168139Y0008266D01*
X0168181Y0008271D01*
X0168223Y0008273D01*
X0169029Y0008273D01*
X0169029Y0005856D01*
X0169028Y0005856D02*
X0169026Y0005814D01*
X0169021Y0005772D01*
X0169012Y0005731D01*
X0168999Y0005691D01*
X0168983Y0005652D01*
X0168963Y0005615D01*
X0168941Y0005579D01*
X0168915Y0005546D01*
X0168887Y0005514D01*
X0168855Y0005486D01*
X0168822Y0005460D01*
X0168787Y0005438D01*
X0168749Y0005418D01*
X0168710Y0005402D01*
X0168670Y0005389D01*
X0168629Y0005380D01*
X0168587Y0005375D01*
X0168545Y0005373D01*
X0167901Y0005373D01*
X0168223Y0006340D02*
X0169029Y0006340D01*
X0168223Y0006340D02*
X0168181Y0006342D01*
X0168139Y0006347D01*
X0168098Y0006356D01*
X0168058Y0006369D01*
X0168019Y0006385D01*
X0167982Y0006405D01*
X0167946Y0006427D01*
X0167913Y0006453D01*
X0167881Y0006481D01*
X0167853Y0006513D01*
X0167827Y0006546D01*
X0167805Y0006582D01*
X0167785Y0006619D01*
X0167769Y0006658D01*
X0167756Y0006698D01*
X0167747Y0006739D01*
X0167742Y0006781D01*
X0167740Y0006823D01*
X0170444Y0006340D02*
X0170444Y0008273D01*
X0171250Y0008273D01*
X0171292Y0008271D01*
X0171334Y0008266D01*
X0171375Y0008257D01*
X0171415Y0008244D01*
X0171454Y0008228D01*
X0171492Y0008208D01*
X0171527Y0008186D01*
X0171560Y0008160D01*
X0171592Y0008132D01*
X0171620Y0008100D01*
X0171646Y0008067D01*
X0171668Y0008032D01*
X0171688Y0007994D01*
X0171704Y0007955D01*
X0171717Y0007915D01*
X0171726Y0007874D01*
X0171731Y0007832D01*
X0171733Y0007790D01*
X0171733Y0006340D01*
X0174910Y0008031D02*
X0175796Y0007548D01*
X0175474Y0006340D02*
X0175402Y0006342D01*
X0175331Y0006348D01*
X0175260Y0006357D01*
X0175190Y0006370D01*
X0175120Y0006387D01*
X0175051Y0006407D01*
X0174984Y0006431D01*
X0174918Y0006459D01*
X0174853Y0006490D01*
X0174790Y0006524D01*
X0174729Y0006562D01*
X0174670Y0006603D01*
X0174614Y0006646D01*
X0174559Y0006693D01*
X0174508Y0006743D01*
X0175797Y0007548D02*
X0175837Y0007522D01*
X0175876Y0007493D01*
X0175913Y0007461D01*
X0175947Y0007426D01*
X0175978Y0007389D01*
X0176007Y0007350D01*
X0176033Y0007309D01*
X0176055Y0007266D01*
X0176074Y0007221D01*
X0176090Y0007175D01*
X0176103Y0007129D01*
X0176112Y0007081D01*
X0176117Y0007033D01*
X0176119Y0006984D01*
X0176118Y0006984D02*
X0176116Y0006936D01*
X0176111Y0006888D01*
X0176102Y0006841D01*
X0176089Y0006794D01*
X0176073Y0006749D01*
X0176054Y0006705D01*
X0176032Y0006662D01*
X0176006Y0006621D01*
X0175977Y0006582D01*
X0175946Y0006546D01*
X0175912Y0006512D01*
X0175876Y0006481D01*
X0175837Y0006452D01*
X0175796Y0006426D01*
X0175753Y0006404D01*
X0175709Y0006385D01*
X0175664Y0006369D01*
X0175617Y0006356D01*
X0175570Y0006347D01*
X0175522Y0006342D01*
X0175474Y0006340D01*
X0175957Y0008997D02*
X0175904Y0009035D01*
X0175849Y0009069D01*
X0175793Y0009101D01*
X0175734Y0009130D01*
X0175675Y0009155D01*
X0175614Y0009177D01*
X0175552Y0009196D01*
X0175489Y0009211D01*
X0175426Y0009223D01*
X0175361Y0009232D01*
X0175297Y0009237D01*
X0175232Y0009239D01*
X0175184Y0009237D01*
X0175136Y0009232D01*
X0175089Y0009223D01*
X0175042Y0009210D01*
X0174997Y0009194D01*
X0174953Y0009175D01*
X0174910Y0009153D01*
X0174869Y0009127D01*
X0174830Y0009099D01*
X0174794Y0009067D01*
X0174760Y0009033D01*
X0174729Y0008997D01*
X0174700Y0008958D01*
X0174674Y0008917D01*
X0174652Y0008874D01*
X0174633Y0008830D01*
X0174617Y0008785D01*
X0174604Y0008738D01*
X0174595Y0008691D01*
X0174590Y0008643D01*
X0174588Y0008595D01*
X0174587Y0008595D02*
X0174589Y0008546D01*
X0174594Y0008498D01*
X0174603Y0008450D01*
X0174616Y0008404D01*
X0174632Y0008358D01*
X0174651Y0008313D01*
X0174673Y0008270D01*
X0174699Y0008229D01*
X0174728Y0008190D01*
X0174759Y0008153D01*
X0174793Y0008118D01*
X0174830Y0008086D01*
X0174869Y0008057D01*
X0174909Y0008031D01*
X0177012Y0008273D02*
X0177979Y0008273D01*
X0177334Y0009240D02*
X0177334Y0006823D01*
X0177336Y0006781D01*
X0177341Y0006739D01*
X0177350Y0006698D01*
X0177363Y0006658D01*
X0177379Y0006619D01*
X0177399Y0006582D01*
X0177421Y0006546D01*
X0177447Y0006513D01*
X0177475Y0006481D01*
X0177507Y0006453D01*
X0177540Y0006427D01*
X0177576Y0006405D01*
X0177613Y0006385D01*
X0177652Y0006369D01*
X0177692Y0006356D01*
X0177733Y0006347D01*
X0177775Y0006342D01*
X0177817Y0006340D01*
X0177979Y0006340D01*
X0179180Y0006823D02*
X0179180Y0008273D01*
X0180469Y0008273D02*
X0180469Y0006340D01*
X0179663Y0006340D01*
X0179621Y0006342D01*
X0179579Y0006347D01*
X0179538Y0006356D01*
X0179498Y0006369D01*
X0179459Y0006385D01*
X0179422Y0006405D01*
X0179386Y0006427D01*
X0179353Y0006453D01*
X0179321Y0006481D01*
X0179293Y0006513D01*
X0179267Y0006546D01*
X0179245Y0006582D01*
X0179225Y0006619D01*
X0179209Y0006658D01*
X0179196Y0006698D01*
X0179187Y0006739D01*
X0179182Y0006781D01*
X0179180Y0006823D01*
X0181756Y0006823D02*
X0181756Y0007790D01*
X0181758Y0007832D01*
X0181763Y0007874D01*
X0181772Y0007915D01*
X0181785Y0007955D01*
X0181801Y0007994D01*
X0181821Y0008032D01*
X0181843Y0008067D01*
X0181869Y0008100D01*
X0181897Y0008132D01*
X0181929Y0008160D01*
X0181962Y0008186D01*
X0181998Y0008208D01*
X0182035Y0008228D01*
X0182074Y0008244D01*
X0182114Y0008257D01*
X0182155Y0008266D01*
X0182197Y0008271D01*
X0182239Y0008273D01*
X0183045Y0008273D01*
X0183045Y0009240D02*
X0183045Y0006340D01*
X0182239Y0006340D01*
X0182197Y0006342D01*
X0182155Y0006347D01*
X0182114Y0006356D01*
X0182074Y0006369D01*
X0182035Y0006385D01*
X0181998Y0006405D01*
X0181962Y0006427D01*
X0181929Y0006453D01*
X0181897Y0006481D01*
X0181869Y0006513D01*
X0181843Y0006546D01*
X0181821Y0006582D01*
X0181801Y0006619D01*
X0181785Y0006658D01*
X0181772Y0006698D01*
X0181763Y0006739D01*
X0181758Y0006781D01*
X0181756Y0006823D01*
X0184336Y0006340D02*
X0184336Y0008273D01*
X0184256Y0009079D02*
X0184417Y0009079D01*
X0184417Y0009240D01*
X0184256Y0009240D01*
X0184256Y0009079D01*
X0185516Y0007629D02*
X0185516Y0006984D01*
X0185518Y0006935D01*
X0185524Y0006886D01*
X0185533Y0006837D01*
X0185546Y0006790D01*
X0185563Y0006743D01*
X0185583Y0006698D01*
X0185606Y0006655D01*
X0185633Y0006613D01*
X0185663Y0006574D01*
X0185696Y0006537D01*
X0185732Y0006503D01*
X0185770Y0006472D01*
X0185810Y0006443D01*
X0185852Y0006418D01*
X0185897Y0006396D01*
X0185942Y0006378D01*
X0185989Y0006363D01*
X0186037Y0006352D01*
X0186086Y0006344D01*
X0186135Y0006340D01*
X0186185Y0006340D01*
X0186234Y0006344D01*
X0186283Y0006352D01*
X0186331Y0006363D01*
X0186378Y0006378D01*
X0186423Y0006396D01*
X0186468Y0006418D01*
X0186510Y0006443D01*
X0186550Y0006472D01*
X0186588Y0006503D01*
X0186624Y0006537D01*
X0186657Y0006574D01*
X0186687Y0006613D01*
X0186714Y0006655D01*
X0186737Y0006698D01*
X0186757Y0006743D01*
X0186774Y0006790D01*
X0186787Y0006837D01*
X0186796Y0006886D01*
X0186802Y0006935D01*
X0186804Y0006984D01*
X0186805Y0006984D02*
X0186805Y0007629D01*
X0186804Y0007629D02*
X0186802Y0007678D01*
X0186796Y0007727D01*
X0186787Y0007776D01*
X0186774Y0007823D01*
X0186757Y0007870D01*
X0186737Y0007915D01*
X0186714Y0007958D01*
X0186687Y0008000D01*
X0186657Y0008039D01*
X0186624Y0008076D01*
X0186588Y0008110D01*
X0186550Y0008141D01*
X0186510Y0008170D01*
X0186468Y0008195D01*
X0186423Y0008217D01*
X0186378Y0008235D01*
X0186331Y0008250D01*
X0186283Y0008261D01*
X0186234Y0008269D01*
X0186185Y0008273D01*
X0186135Y0008273D01*
X0186086Y0008269D01*
X0186037Y0008261D01*
X0185989Y0008250D01*
X0185942Y0008235D01*
X0185897Y0008217D01*
X0185852Y0008195D01*
X0185810Y0008170D01*
X0185770Y0008141D01*
X0185732Y0008110D01*
X0185696Y0008076D01*
X0185663Y0008039D01*
X0185633Y0008000D01*
X0185606Y0007958D01*
X0185583Y0007915D01*
X0185563Y0007870D01*
X0185546Y0007823D01*
X0185533Y0007776D01*
X0185524Y0007727D01*
X0185518Y0007678D01*
X0185516Y0007629D01*
X0185776Y0011140D02*
X0185776Y0013073D01*
X0186260Y0013073D02*
X0184810Y0013073D01*
X0184810Y0011140D01*
X0183445Y0011140D02*
X0182639Y0011140D01*
X0182597Y0011142D01*
X0182555Y0011147D01*
X0182514Y0011156D01*
X0182474Y0011169D01*
X0182435Y0011185D01*
X0182398Y0011205D01*
X0182362Y0011227D01*
X0182329Y0011253D01*
X0182297Y0011281D01*
X0182269Y0011313D01*
X0182243Y0011346D01*
X0182221Y0011382D01*
X0182201Y0011419D01*
X0182185Y0011458D01*
X0182172Y0011498D01*
X0182163Y0011539D01*
X0182158Y0011581D01*
X0182156Y0011623D01*
X0182156Y0012429D01*
X0182156Y0012106D02*
X0183445Y0012106D01*
X0183445Y0012429D01*
X0183444Y0012429D02*
X0183442Y0012478D01*
X0183436Y0012527D01*
X0183427Y0012576D01*
X0183414Y0012623D01*
X0183397Y0012670D01*
X0183377Y0012715D01*
X0183354Y0012758D01*
X0183327Y0012800D01*
X0183297Y0012839D01*
X0183264Y0012876D01*
X0183228Y0012910D01*
X0183190Y0012941D01*
X0183150Y0012970D01*
X0183108Y0012995D01*
X0183063Y0013017D01*
X0183018Y0013035D01*
X0182971Y0013050D01*
X0182923Y0013061D01*
X0182874Y0013069D01*
X0182825Y0013073D01*
X0182775Y0013073D01*
X0182726Y0013069D01*
X0182677Y0013061D01*
X0182629Y0013050D01*
X0182582Y0013035D01*
X0182537Y0013017D01*
X0182492Y0012995D01*
X0182450Y0012970D01*
X0182410Y0012941D01*
X0182372Y0012910D01*
X0182336Y0012876D01*
X0182303Y0012839D01*
X0182273Y0012800D01*
X0182246Y0012758D01*
X0182223Y0012715D01*
X0182203Y0012670D01*
X0182186Y0012623D01*
X0182173Y0012576D01*
X0182164Y0012527D01*
X0182158Y0012478D01*
X0182156Y0012429D01*
X0181051Y0013073D02*
X0180084Y0013073D01*
X0180406Y0014040D02*
X0180406Y0011623D01*
X0180408Y0011581D01*
X0180413Y0011539D01*
X0180422Y0011498D01*
X0180435Y0011458D01*
X0180451Y0011419D01*
X0180471Y0011382D01*
X0180493Y0011346D01*
X0180519Y0011313D01*
X0180547Y0011281D01*
X0180579Y0011253D01*
X0180612Y0011227D01*
X0180648Y0011205D01*
X0180685Y0011185D01*
X0180724Y0011169D01*
X0180764Y0011156D01*
X0180805Y0011147D01*
X0180847Y0011142D01*
X0180889Y0011140D01*
X0181051Y0011140D01*
X0178883Y0011945D02*
X0178078Y0012268D01*
X0178078Y0012267D02*
X0178041Y0012284D01*
X0178007Y0012304D01*
X0177974Y0012327D01*
X0177944Y0012353D01*
X0177916Y0012382D01*
X0177892Y0012413D01*
X0177870Y0012447D01*
X0177852Y0012483D01*
X0177837Y0012520D01*
X0177826Y0012558D01*
X0177819Y0012598D01*
X0177815Y0012638D01*
X0177816Y0012677D01*
X0177820Y0012717D01*
X0177828Y0012756D01*
X0177839Y0012795D01*
X0177854Y0012832D01*
X0177873Y0012867D01*
X0177895Y0012901D01*
X0177920Y0012932D01*
X0177948Y0012960D01*
X0177978Y0012986D01*
X0178011Y0013009D01*
X0178046Y0013029D01*
X0178082Y0013045D01*
X0178120Y0013058D01*
X0178159Y0013066D01*
X0178199Y0013072D01*
X0178239Y0013073D01*
X0177836Y0011301D02*
X0177931Y0011269D01*
X0178027Y0011240D01*
X0178125Y0011215D01*
X0178223Y0011194D01*
X0178322Y0011176D01*
X0178421Y0011161D01*
X0178521Y0011151D01*
X0178622Y0011144D01*
X0178722Y0011140D01*
X0178722Y0011139D02*
X0178762Y0011140D01*
X0178802Y0011146D01*
X0178841Y0011154D01*
X0178879Y0011167D01*
X0178915Y0011183D01*
X0178950Y0011203D01*
X0178983Y0011226D01*
X0179013Y0011252D01*
X0179041Y0011280D01*
X0179066Y0011311D01*
X0179088Y0011345D01*
X0179107Y0011380D01*
X0179122Y0011417D01*
X0179133Y0011456D01*
X0179141Y0011495D01*
X0179145Y0011535D01*
X0179146Y0011574D01*
X0179142Y0011614D01*
X0179135Y0011654D01*
X0179124Y0011692D01*
X0179109Y0011729D01*
X0179091Y0011765D01*
X0179069Y0011799D01*
X0179045Y0011830D01*
X0179017Y0011859D01*
X0178987Y0011885D01*
X0178954Y0011908D01*
X0178920Y0011928D01*
X0178883Y0011945D01*
X0178964Y0012913D02*
X0178888Y0012945D01*
X0178810Y0012974D01*
X0178731Y0012999D01*
X0178650Y0013021D01*
X0178569Y0013039D01*
X0178487Y0013053D01*
X0178405Y0013064D01*
X0178322Y0013071D01*
X0178239Y0013074D01*
X0176725Y0013073D02*
X0175758Y0010173D01*
X0175436Y0010173D01*
X0176080Y0011140D02*
X0175436Y0013073D01*
X0174068Y0012348D02*
X0173182Y0012831D01*
X0173504Y0014039D02*
X0173569Y0014037D01*
X0173633Y0014032D01*
X0173698Y0014023D01*
X0173761Y0014011D01*
X0173824Y0013996D01*
X0173886Y0013977D01*
X0173947Y0013955D01*
X0174006Y0013930D01*
X0174065Y0013901D01*
X0174121Y0013869D01*
X0174176Y0013835D01*
X0174229Y0013797D01*
X0173181Y0012831D02*
X0173141Y0012857D01*
X0173102Y0012886D01*
X0173065Y0012918D01*
X0173031Y0012953D01*
X0173000Y0012990D01*
X0172971Y0013029D01*
X0172945Y0013070D01*
X0172923Y0013113D01*
X0172904Y0013158D01*
X0172888Y0013204D01*
X0172875Y0013250D01*
X0172866Y0013298D01*
X0172861Y0013346D01*
X0172859Y0013395D01*
X0172860Y0013395D02*
X0172862Y0013443D01*
X0172867Y0013491D01*
X0172876Y0013538D01*
X0172889Y0013585D01*
X0172905Y0013630D01*
X0172924Y0013674D01*
X0172946Y0013717D01*
X0172972Y0013758D01*
X0173001Y0013797D01*
X0173032Y0013833D01*
X0173066Y0013867D01*
X0173102Y0013899D01*
X0173141Y0013927D01*
X0173182Y0013953D01*
X0173225Y0013975D01*
X0173269Y0013994D01*
X0173314Y0014010D01*
X0173361Y0014023D01*
X0173408Y0014032D01*
X0173456Y0014037D01*
X0173504Y0014039D01*
X0172780Y0011543D02*
X0172831Y0011493D01*
X0172886Y0011446D01*
X0172942Y0011403D01*
X0173001Y0011362D01*
X0173062Y0011324D01*
X0173125Y0011290D01*
X0173190Y0011259D01*
X0173256Y0011231D01*
X0173323Y0011207D01*
X0173392Y0011187D01*
X0173462Y0011170D01*
X0173532Y0011157D01*
X0173603Y0011148D01*
X0173674Y0011142D01*
X0173746Y0011140D01*
X0173794Y0011142D01*
X0173842Y0011147D01*
X0173889Y0011156D01*
X0173936Y0011169D01*
X0173981Y0011185D01*
X0174025Y0011204D01*
X0174068Y0011226D01*
X0174109Y0011252D01*
X0174148Y0011281D01*
X0174184Y0011312D01*
X0174218Y0011346D01*
X0174249Y0011382D01*
X0174278Y0011421D01*
X0174304Y0011462D01*
X0174326Y0011505D01*
X0174345Y0011549D01*
X0174361Y0011594D01*
X0174374Y0011641D01*
X0174383Y0011688D01*
X0174388Y0011736D01*
X0174390Y0011784D01*
X0174391Y0011784D02*
X0174389Y0011833D01*
X0174384Y0011881D01*
X0174375Y0011929D01*
X0174362Y0011975D01*
X0174346Y0012021D01*
X0174327Y0012066D01*
X0174305Y0012109D01*
X0174279Y0012150D01*
X0174250Y0012189D01*
X0174219Y0012226D01*
X0174185Y0012261D01*
X0174148Y0012293D01*
X0174109Y0012322D01*
X0174069Y0012348D01*
X0170101Y0012429D02*
X0170101Y0012106D01*
X0168812Y0012106D01*
X0168812Y0012429D02*
X0168812Y0011623D01*
X0168814Y0011581D01*
X0168819Y0011539D01*
X0168828Y0011498D01*
X0168841Y0011458D01*
X0168857Y0011419D01*
X0168877Y0011382D01*
X0168899Y0011346D01*
X0168925Y0011313D01*
X0168953Y0011281D01*
X0168985Y0011253D01*
X0169018Y0011227D01*
X0169054Y0011205D01*
X0169091Y0011185D01*
X0169130Y0011169D01*
X0169170Y0011156D01*
X0169211Y0011147D01*
X0169253Y0011142D01*
X0169295Y0011140D01*
X0170101Y0011140D01*
X0170101Y0012429D02*
X0170099Y0012478D01*
X0170093Y0012527D01*
X0170084Y0012576D01*
X0170071Y0012623D01*
X0170054Y0012670D01*
X0170034Y0012715D01*
X0170011Y0012758D01*
X0169984Y0012800D01*
X0169954Y0012839D01*
X0169921Y0012876D01*
X0169885Y0012910D01*
X0169847Y0012941D01*
X0169807Y0012970D01*
X0169765Y0012995D01*
X0169720Y0013017D01*
X0169675Y0013035D01*
X0169628Y0013050D01*
X0169580Y0013061D01*
X0169531Y0013069D01*
X0169482Y0013073D01*
X0169432Y0013073D01*
X0169383Y0013069D01*
X0169334Y0013061D01*
X0169286Y0013050D01*
X0169239Y0013035D01*
X0169194Y0013017D01*
X0169149Y0012995D01*
X0169107Y0012970D01*
X0169067Y0012941D01*
X0169029Y0012910D01*
X0168993Y0012876D01*
X0168960Y0012839D01*
X0168930Y0012800D01*
X0168903Y0012758D01*
X0168880Y0012715D01*
X0168860Y0012670D01*
X0168843Y0012623D01*
X0168830Y0012576D01*
X0168821Y0012527D01*
X0168815Y0012478D01*
X0168813Y0012429D01*
X0167735Y0013073D02*
X0167091Y0013073D01*
X0167049Y0013071D01*
X0167007Y0013066D01*
X0166966Y0013057D01*
X0166926Y0013044D01*
X0166887Y0013028D01*
X0166850Y0013008D01*
X0166814Y0012986D01*
X0166781Y0012960D01*
X0166749Y0012932D01*
X0166721Y0012900D01*
X0166695Y0012867D01*
X0166673Y0012832D01*
X0166653Y0012794D01*
X0166637Y0012755D01*
X0166624Y0012715D01*
X0166615Y0012674D01*
X0166610Y0012632D01*
X0166608Y0012590D01*
X0166608Y0011623D01*
X0166610Y0011581D01*
X0166615Y0011539D01*
X0166624Y0011498D01*
X0166637Y0011458D01*
X0166653Y0011419D01*
X0166673Y0011382D01*
X0166695Y0011346D01*
X0166721Y0011313D01*
X0166749Y0011281D01*
X0166781Y0011253D01*
X0166814Y0011227D01*
X0166850Y0011205D01*
X0166887Y0011185D01*
X0166926Y0011169D01*
X0166966Y0011156D01*
X0167007Y0011147D01*
X0167049Y0011142D01*
X0167091Y0011140D01*
X0167735Y0011140D01*
X0165285Y0011140D02*
X0165285Y0012590D01*
X0165285Y0012268D02*
X0164560Y0012268D01*
X0165285Y0012590D02*
X0165283Y0012632D01*
X0165278Y0012674D01*
X0165269Y0012715D01*
X0165256Y0012755D01*
X0165240Y0012794D01*
X0165220Y0012832D01*
X0165198Y0012867D01*
X0165172Y0012900D01*
X0165144Y0012932D01*
X0165112Y0012960D01*
X0165079Y0012986D01*
X0165044Y0013008D01*
X0165006Y0013028D01*
X0164967Y0013044D01*
X0164927Y0013057D01*
X0164886Y0013066D01*
X0164844Y0013071D01*
X0164802Y0013073D01*
X0164157Y0013073D01*
X0162821Y0012590D02*
X0162821Y0011623D01*
X0162819Y0011581D01*
X0162814Y0011539D01*
X0162805Y0011498D01*
X0162792Y0011458D01*
X0162776Y0011419D01*
X0162756Y0011382D01*
X0162734Y0011346D01*
X0162708Y0011313D01*
X0162680Y0011281D01*
X0162648Y0011253D01*
X0162615Y0011227D01*
X0162580Y0011205D01*
X0162542Y0011185D01*
X0162503Y0011169D01*
X0162463Y0011156D01*
X0162422Y0011147D01*
X0162380Y0011142D01*
X0162338Y0011140D01*
X0161532Y0011140D01*
X0161532Y0010173D02*
X0161532Y0013073D01*
X0162338Y0013073D01*
X0162380Y0013071D01*
X0162422Y0013066D01*
X0162463Y0013057D01*
X0162503Y0013044D01*
X0162542Y0013028D01*
X0162580Y0013008D01*
X0162615Y0012986D01*
X0162648Y0012960D01*
X0162680Y0012932D01*
X0162708Y0012900D01*
X0162734Y0012867D01*
X0162756Y0012832D01*
X0162776Y0012794D01*
X0162792Y0012755D01*
X0162805Y0012715D01*
X0162814Y0012674D01*
X0162819Y0012632D01*
X0162821Y0012590D01*
X0164560Y0012268D02*
X0164513Y0012266D01*
X0164467Y0012260D01*
X0164422Y0012251D01*
X0164377Y0012237D01*
X0164333Y0012220D01*
X0164292Y0012200D01*
X0164252Y0012176D01*
X0164214Y0012149D01*
X0164178Y0012119D01*
X0164145Y0012086D01*
X0164115Y0012050D01*
X0164088Y0012012D01*
X0164064Y0011972D01*
X0164044Y0011931D01*
X0164027Y0011887D01*
X0164013Y0011842D01*
X0164004Y0011797D01*
X0163998Y0011751D01*
X0163996Y0011704D01*
X0163998Y0011657D01*
X0164004Y0011611D01*
X0164013Y0011566D01*
X0164027Y0011521D01*
X0164044Y0011477D01*
X0164064Y0011436D01*
X0164088Y0011396D01*
X0164115Y0011358D01*
X0164145Y0011322D01*
X0164178Y0011289D01*
X0164214Y0011259D01*
X0164252Y0011232D01*
X0164292Y0011208D01*
X0164333Y0011188D01*
X0164377Y0011171D01*
X0164422Y0011157D01*
X0164467Y0011148D01*
X0164513Y0011142D01*
X0164560Y0011140D01*
X0165285Y0011140D01*
X0159956Y0012348D02*
X0159070Y0012831D01*
X0159392Y0014039D02*
X0159457Y0014037D01*
X0159521Y0014032D01*
X0159586Y0014023D01*
X0159649Y0014011D01*
X0159712Y0013996D01*
X0159774Y0013977D01*
X0159835Y0013955D01*
X0159894Y0013930D01*
X0159953Y0013901D01*
X0160009Y0013869D01*
X0160064Y0013835D01*
X0160117Y0013797D01*
X0159069Y0012831D02*
X0159029Y0012857D01*
X0158990Y0012886D01*
X0158953Y0012918D01*
X0158919Y0012953D01*
X0158888Y0012990D01*
X0158859Y0013029D01*
X0158833Y0013070D01*
X0158811Y0013113D01*
X0158792Y0013158D01*
X0158776Y0013204D01*
X0158763Y0013250D01*
X0158754Y0013298D01*
X0158749Y0013346D01*
X0158747Y0013395D01*
X0158748Y0013395D02*
X0158750Y0013443D01*
X0158755Y0013491D01*
X0158764Y0013538D01*
X0158777Y0013585D01*
X0158793Y0013630D01*
X0158812Y0013674D01*
X0158834Y0013717D01*
X0158860Y0013758D01*
X0158889Y0013797D01*
X0158920Y0013833D01*
X0158954Y0013867D01*
X0158990Y0013899D01*
X0159029Y0013927D01*
X0159070Y0013953D01*
X0159113Y0013975D01*
X0159157Y0013994D01*
X0159202Y0014010D01*
X0159249Y0014023D01*
X0159296Y0014032D01*
X0159344Y0014037D01*
X0159392Y0014039D01*
X0158668Y0011543D02*
X0158719Y0011493D01*
X0158774Y0011446D01*
X0158830Y0011403D01*
X0158889Y0011362D01*
X0158950Y0011324D01*
X0159013Y0011290D01*
X0159078Y0011259D01*
X0159144Y0011231D01*
X0159211Y0011207D01*
X0159280Y0011187D01*
X0159350Y0011170D01*
X0159420Y0011157D01*
X0159491Y0011148D01*
X0159562Y0011142D01*
X0159634Y0011140D01*
X0159682Y0011142D01*
X0159730Y0011147D01*
X0159777Y0011156D01*
X0159824Y0011169D01*
X0159869Y0011185D01*
X0159913Y0011204D01*
X0159956Y0011226D01*
X0159997Y0011252D01*
X0160036Y0011281D01*
X0160072Y0011312D01*
X0160106Y0011346D01*
X0160137Y0011382D01*
X0160166Y0011421D01*
X0160192Y0011462D01*
X0160214Y0011505D01*
X0160233Y0011549D01*
X0160249Y0011594D01*
X0160262Y0011641D01*
X0160271Y0011688D01*
X0160276Y0011736D01*
X0160278Y0011784D01*
X0160279Y0011784D02*
X0160277Y0011833D01*
X0160272Y0011881D01*
X0160263Y0011929D01*
X0160250Y0011975D01*
X0160234Y0012021D01*
X0160215Y0012066D01*
X0160193Y0012109D01*
X0160167Y0012150D01*
X0160138Y0012189D01*
X0160107Y0012226D01*
X0160073Y0012261D01*
X0160036Y0012293D01*
X0159997Y0012322D01*
X0159957Y0012348D01*
X0159956Y0020740D02*
X0159311Y0020740D01*
X0159263Y0020742D01*
X0159215Y0020747D01*
X0159168Y0020756D01*
X0159121Y0020769D01*
X0159076Y0020785D01*
X0159032Y0020804D01*
X0158989Y0020826D01*
X0158948Y0020852D01*
X0158909Y0020881D01*
X0158873Y0020912D01*
X0158839Y0020946D01*
X0158808Y0020982D01*
X0158779Y0021021D01*
X0158753Y0021062D01*
X0158731Y0021105D01*
X0158712Y0021149D01*
X0158696Y0021194D01*
X0158683Y0021241D01*
X0158674Y0021288D01*
X0158669Y0021336D01*
X0158667Y0021384D01*
X0158667Y0022995D01*
X0158669Y0023046D01*
X0158675Y0023096D01*
X0158685Y0023145D01*
X0158699Y0023194D01*
X0158716Y0023241D01*
X0158737Y0023287D01*
X0158762Y0023331D01*
X0158790Y0023374D01*
X0158821Y0023413D01*
X0158856Y0023450D01*
X0158893Y0023485D01*
X0158932Y0023516D01*
X0158975Y0023544D01*
X0159019Y0023569D01*
X0159065Y0023590D01*
X0159112Y0023607D01*
X0159161Y0023621D01*
X0159210Y0023631D01*
X0159260Y0023637D01*
X0159311Y0023639D01*
X0159311Y0023640D02*
X0159956Y0023640D01*
X0161045Y0022029D02*
X0161045Y0021384D01*
X0161046Y0021384D02*
X0161048Y0021335D01*
X0161054Y0021286D01*
X0161063Y0021237D01*
X0161076Y0021190D01*
X0161093Y0021143D01*
X0161113Y0021098D01*
X0161136Y0021055D01*
X0161163Y0021013D01*
X0161193Y0020974D01*
X0161226Y0020937D01*
X0161262Y0020903D01*
X0161300Y0020872D01*
X0161340Y0020843D01*
X0161382Y0020818D01*
X0161427Y0020796D01*
X0161472Y0020778D01*
X0161519Y0020763D01*
X0161567Y0020752D01*
X0161616Y0020744D01*
X0161665Y0020740D01*
X0161715Y0020740D01*
X0161764Y0020744D01*
X0161813Y0020752D01*
X0161861Y0020763D01*
X0161908Y0020778D01*
X0161953Y0020796D01*
X0161998Y0020818D01*
X0162040Y0020843D01*
X0162080Y0020872D01*
X0162118Y0020903D01*
X0162154Y0020937D01*
X0162187Y0020974D01*
X0162217Y0021013D01*
X0162244Y0021055D01*
X0162267Y0021098D01*
X0162287Y0021143D01*
X0162304Y0021190D01*
X0162317Y0021237D01*
X0162326Y0021286D01*
X0162332Y0021335D01*
X0162334Y0021384D01*
X0162334Y0022029D01*
X0162332Y0022078D01*
X0162326Y0022127D01*
X0162317Y0022176D01*
X0162304Y0022223D01*
X0162287Y0022270D01*
X0162267Y0022315D01*
X0162244Y0022358D01*
X0162217Y0022400D01*
X0162187Y0022439D01*
X0162154Y0022476D01*
X0162118Y0022510D01*
X0162080Y0022541D01*
X0162040Y0022570D01*
X0161998Y0022595D01*
X0161953Y0022617D01*
X0161908Y0022635D01*
X0161861Y0022650D01*
X0161813Y0022661D01*
X0161764Y0022669D01*
X0161715Y0022673D01*
X0161665Y0022673D01*
X0161616Y0022669D01*
X0161567Y0022661D01*
X0161519Y0022650D01*
X0161472Y0022635D01*
X0161427Y0022617D01*
X0161382Y0022595D01*
X0161340Y0022570D01*
X0161300Y0022541D01*
X0161262Y0022510D01*
X0161226Y0022476D01*
X0161193Y0022439D01*
X0161163Y0022400D01*
X0161136Y0022358D01*
X0161113Y0022315D01*
X0161093Y0022270D01*
X0161076Y0022223D01*
X0161063Y0022176D01*
X0161054Y0022127D01*
X0161048Y0022078D01*
X0161046Y0022029D01*
X0163655Y0022673D02*
X0163655Y0020740D01*
X0164622Y0022351D02*
X0164622Y0022673D01*
X0163655Y0022673D01*
X0165653Y0022673D02*
X0165653Y0020740D01*
X0166942Y0020740D02*
X0166942Y0022190D01*
X0166940Y0022232D01*
X0166935Y0022274D01*
X0166926Y0022315D01*
X0166913Y0022355D01*
X0166897Y0022394D01*
X0166877Y0022432D01*
X0166855Y0022467D01*
X0166829Y0022500D01*
X0166801Y0022532D01*
X0166769Y0022560D01*
X0166736Y0022586D01*
X0166701Y0022608D01*
X0166663Y0022628D01*
X0166624Y0022644D01*
X0166584Y0022657D01*
X0166543Y0022666D01*
X0166501Y0022671D01*
X0166459Y0022673D01*
X0165653Y0022673D01*
X0168245Y0022029D02*
X0168245Y0021223D01*
X0168245Y0021706D02*
X0169534Y0021706D01*
X0169534Y0022029D01*
X0169532Y0022078D01*
X0169526Y0022127D01*
X0169517Y0022176D01*
X0169504Y0022223D01*
X0169487Y0022270D01*
X0169467Y0022315D01*
X0169444Y0022358D01*
X0169417Y0022400D01*
X0169387Y0022439D01*
X0169354Y0022476D01*
X0169318Y0022510D01*
X0169280Y0022541D01*
X0169240Y0022570D01*
X0169198Y0022595D01*
X0169153Y0022617D01*
X0169108Y0022635D01*
X0169061Y0022650D01*
X0169013Y0022661D01*
X0168964Y0022669D01*
X0168915Y0022673D01*
X0168865Y0022673D01*
X0168816Y0022669D01*
X0168767Y0022661D01*
X0168719Y0022650D01*
X0168672Y0022635D01*
X0168627Y0022617D01*
X0168582Y0022595D01*
X0168540Y0022570D01*
X0168500Y0022541D01*
X0168462Y0022510D01*
X0168426Y0022476D01*
X0168393Y0022439D01*
X0168363Y0022400D01*
X0168336Y0022358D01*
X0168313Y0022315D01*
X0168293Y0022270D01*
X0168276Y0022223D01*
X0168263Y0022176D01*
X0168254Y0022127D01*
X0168248Y0022078D01*
X0168246Y0022029D01*
X0168245Y0021223D02*
X0168247Y0021181D01*
X0168252Y0021139D01*
X0168261Y0021098D01*
X0168274Y0021058D01*
X0168290Y0021019D01*
X0168310Y0020982D01*
X0168332Y0020946D01*
X0168358Y0020913D01*
X0168386Y0020881D01*
X0168418Y0020853D01*
X0168451Y0020827D01*
X0168487Y0020805D01*
X0168524Y0020785D01*
X0168563Y0020769D01*
X0168603Y0020756D01*
X0168644Y0020747D01*
X0168686Y0020742D01*
X0168728Y0020740D01*
X0169534Y0020740D01*
X0170774Y0021223D02*
X0170774Y0023640D01*
X0172310Y0023640D02*
X0172310Y0021223D01*
X0172312Y0021181D01*
X0172317Y0021139D01*
X0172326Y0021098D01*
X0172339Y0021058D01*
X0172355Y0021019D01*
X0172375Y0020982D01*
X0172397Y0020946D01*
X0172423Y0020913D01*
X0172451Y0020881D01*
X0172483Y0020853D01*
X0172516Y0020827D01*
X0172552Y0020805D01*
X0172589Y0020785D01*
X0172628Y0020769D01*
X0172668Y0020756D01*
X0172709Y0020747D01*
X0172751Y0020742D01*
X0172793Y0020740D01*
X0171257Y0020740D02*
X0171215Y0020742D01*
X0171173Y0020747D01*
X0171132Y0020756D01*
X0171092Y0020769D01*
X0171053Y0020785D01*
X0171016Y0020805D01*
X0170980Y0020827D01*
X0170947Y0020853D01*
X0170915Y0020881D01*
X0170887Y0020913D01*
X0170861Y0020946D01*
X0170839Y0020982D01*
X0170819Y0021019D01*
X0170803Y0021058D01*
X0170790Y0021098D01*
X0170781Y0021139D01*
X0170776Y0021181D01*
X0170774Y0021223D01*
X0175476Y0021545D02*
X0175476Y0023640D01*
X0177087Y0023640D02*
X0177087Y0021545D01*
X0177088Y0021545D02*
X0177086Y0021490D01*
X0177080Y0021435D01*
X0177071Y0021381D01*
X0177058Y0021328D01*
X0177041Y0021275D01*
X0177021Y0021224D01*
X0176998Y0021174D01*
X0176971Y0021126D01*
X0176940Y0021080D01*
X0176907Y0021036D01*
X0176871Y0020995D01*
X0176832Y0020956D01*
X0176791Y0020920D01*
X0176747Y0020887D01*
X0176701Y0020856D01*
X0176653Y0020829D01*
X0176603Y0020806D01*
X0176552Y0020786D01*
X0176499Y0020769D01*
X0176446Y0020756D01*
X0176392Y0020747D01*
X0176337Y0020741D01*
X0176282Y0020739D01*
X0176227Y0020741D01*
X0176172Y0020747D01*
X0176118Y0020756D01*
X0176065Y0020769D01*
X0176012Y0020786D01*
X0175961Y0020806D01*
X0175911Y0020829D01*
X0175863Y0020856D01*
X0175817Y0020887D01*
X0175773Y0020920D01*
X0175732Y0020956D01*
X0175693Y0020995D01*
X0175657Y0021036D01*
X0175624Y0021080D01*
X0175593Y0021126D01*
X0175566Y0021174D01*
X0175543Y0021224D01*
X0175523Y0021275D01*
X0175506Y0021328D01*
X0175493Y0021381D01*
X0175484Y0021435D01*
X0175478Y0021490D01*
X0175476Y0021545D01*
X0178517Y0020740D02*
X0178517Y0022673D01*
X0179323Y0022673D01*
X0179365Y0022671D01*
X0179407Y0022666D01*
X0179448Y0022657D01*
X0179488Y0022644D01*
X0179527Y0022628D01*
X0179565Y0022608D01*
X0179600Y0022586D01*
X0179633Y0022560D01*
X0179665Y0022532D01*
X0179693Y0022500D01*
X0179719Y0022467D01*
X0179741Y0022432D01*
X0179761Y0022394D01*
X0179777Y0022355D01*
X0179790Y0022315D01*
X0179799Y0022274D01*
X0179804Y0022232D01*
X0179806Y0022190D01*
X0179806Y0020740D01*
X0181082Y0020740D02*
X0181082Y0022673D01*
X0181162Y0023479D02*
X0181001Y0023479D01*
X0181001Y0023640D01*
X0181162Y0023640D01*
X0181162Y0023479D01*
X0182165Y0022673D02*
X0182809Y0020740D01*
X0183454Y0022673D01*
X0184565Y0022029D02*
X0184565Y0021223D01*
X0184567Y0021181D01*
X0184572Y0021139D01*
X0184581Y0021098D01*
X0184594Y0021058D01*
X0184610Y0021019D01*
X0184630Y0020982D01*
X0184652Y0020946D01*
X0184678Y0020913D01*
X0184706Y0020881D01*
X0184738Y0020853D01*
X0184771Y0020827D01*
X0184807Y0020805D01*
X0184844Y0020785D01*
X0184883Y0020769D01*
X0184923Y0020756D01*
X0184964Y0020747D01*
X0185006Y0020742D01*
X0185048Y0020740D01*
X0185854Y0020740D01*
X0185854Y0021706D02*
X0184565Y0021706D01*
X0184565Y0022029D02*
X0184567Y0022078D01*
X0184573Y0022127D01*
X0184582Y0022176D01*
X0184595Y0022223D01*
X0184612Y0022270D01*
X0184632Y0022315D01*
X0184655Y0022358D01*
X0184682Y0022400D01*
X0184712Y0022439D01*
X0184745Y0022476D01*
X0184781Y0022510D01*
X0184819Y0022541D01*
X0184859Y0022570D01*
X0184901Y0022595D01*
X0184946Y0022617D01*
X0184991Y0022635D01*
X0185038Y0022650D01*
X0185086Y0022661D01*
X0185135Y0022669D01*
X0185184Y0022673D01*
X0185234Y0022673D01*
X0185283Y0022669D01*
X0185332Y0022661D01*
X0185380Y0022650D01*
X0185427Y0022635D01*
X0185472Y0022617D01*
X0185517Y0022595D01*
X0185559Y0022570D01*
X0185599Y0022541D01*
X0185637Y0022510D01*
X0185673Y0022476D01*
X0185706Y0022439D01*
X0185736Y0022400D01*
X0185763Y0022358D01*
X0185786Y0022315D01*
X0185806Y0022270D01*
X0185823Y0022223D01*
X0185836Y0022176D01*
X0185845Y0022127D01*
X0185851Y0022078D01*
X0185853Y0022029D01*
X0185854Y0022029D02*
X0185854Y0021706D01*
X0187175Y0020740D02*
X0187175Y0022673D01*
X0188142Y0022673D01*
X0188142Y0022351D01*
X0189319Y0021868D02*
X0190124Y0021545D01*
X0190161Y0021528D01*
X0190195Y0021508D01*
X0190228Y0021485D01*
X0190258Y0021459D01*
X0190286Y0021430D01*
X0190310Y0021399D01*
X0190332Y0021365D01*
X0190350Y0021329D01*
X0190365Y0021292D01*
X0190376Y0021254D01*
X0190383Y0021214D01*
X0190387Y0021174D01*
X0190386Y0021135D01*
X0190382Y0021095D01*
X0190374Y0021056D01*
X0190363Y0021017D01*
X0190348Y0020980D01*
X0190329Y0020945D01*
X0190307Y0020911D01*
X0190282Y0020880D01*
X0190254Y0020852D01*
X0190224Y0020826D01*
X0190191Y0020803D01*
X0190156Y0020783D01*
X0190120Y0020767D01*
X0190082Y0020754D01*
X0190043Y0020746D01*
X0190003Y0020740D01*
X0189963Y0020739D01*
X0190205Y0022513D02*
X0190129Y0022545D01*
X0190051Y0022574D01*
X0189972Y0022599D01*
X0189891Y0022621D01*
X0189810Y0022639D01*
X0189728Y0022653D01*
X0189646Y0022664D01*
X0189563Y0022671D01*
X0189480Y0022674D01*
X0189480Y0022673D02*
X0189440Y0022672D01*
X0189400Y0022666D01*
X0189361Y0022658D01*
X0189323Y0022645D01*
X0189287Y0022629D01*
X0189252Y0022609D01*
X0189219Y0022586D01*
X0189189Y0022560D01*
X0189161Y0022532D01*
X0189136Y0022501D01*
X0189114Y0022467D01*
X0189095Y0022432D01*
X0189080Y0022395D01*
X0189069Y0022356D01*
X0189061Y0022317D01*
X0189057Y0022277D01*
X0189056Y0022238D01*
X0189060Y0022198D01*
X0189067Y0022158D01*
X0189078Y0022120D01*
X0189093Y0022083D01*
X0189111Y0022047D01*
X0189133Y0022013D01*
X0189157Y0021982D01*
X0189185Y0021953D01*
X0189215Y0021927D01*
X0189248Y0021904D01*
X0189282Y0021884D01*
X0189319Y0021867D01*
X0189077Y0020901D02*
X0189172Y0020869D01*
X0189268Y0020840D01*
X0189366Y0020815D01*
X0189464Y0020794D01*
X0189563Y0020776D01*
X0189662Y0020761D01*
X0189762Y0020751D01*
X0189863Y0020744D01*
X0189963Y0020740D01*
X0191545Y0020740D02*
X0191545Y0022673D01*
X0191465Y0023479D02*
X0191626Y0023479D01*
X0191626Y0023640D01*
X0191465Y0023640D01*
X0191465Y0023479D01*
X0192477Y0022673D02*
X0193443Y0022673D01*
X0194453Y0022673D02*
X0195097Y0020740D01*
X0194775Y0019773D02*
X0195742Y0022673D01*
X0193443Y0020740D02*
X0193282Y0020740D01*
X0193240Y0020742D01*
X0193198Y0020747D01*
X0193157Y0020756D01*
X0193117Y0020769D01*
X0193078Y0020785D01*
X0193041Y0020805D01*
X0193005Y0020827D01*
X0192972Y0020853D01*
X0192940Y0020881D01*
X0192912Y0020913D01*
X0192886Y0020946D01*
X0192864Y0020982D01*
X0192844Y0021019D01*
X0192828Y0021058D01*
X0192815Y0021098D01*
X0192806Y0021139D01*
X0192801Y0021181D01*
X0192799Y0021223D01*
X0192799Y0023640D01*
X0194453Y0019773D02*
X0194775Y0019773D01*
X0188994Y0011140D02*
X0188894Y0011144D01*
X0188793Y0011151D01*
X0188693Y0011161D01*
X0188594Y0011176D01*
X0188495Y0011194D01*
X0188397Y0011215D01*
X0188299Y0011240D01*
X0188203Y0011269D01*
X0188108Y0011301D01*
X0188511Y0013074D02*
X0188594Y0013071D01*
X0188677Y0013064D01*
X0188759Y0013053D01*
X0188841Y0013039D01*
X0188922Y0013021D01*
X0189003Y0012999D01*
X0189082Y0012974D01*
X0189160Y0012945D01*
X0189236Y0012913D01*
X0188511Y0013073D02*
X0188471Y0013072D01*
X0188431Y0013066D01*
X0188392Y0013058D01*
X0188354Y0013045D01*
X0188318Y0013029D01*
X0188283Y0013009D01*
X0188250Y0012986D01*
X0188220Y0012960D01*
X0188192Y0012932D01*
X0188167Y0012901D01*
X0188145Y0012867D01*
X0188126Y0012832D01*
X0188111Y0012795D01*
X0188100Y0012756D01*
X0188092Y0012717D01*
X0188088Y0012677D01*
X0188087Y0012638D01*
X0188091Y0012598D01*
X0188098Y0012558D01*
X0188109Y0012520D01*
X0188124Y0012483D01*
X0188142Y0012447D01*
X0188164Y0012413D01*
X0188188Y0012382D01*
X0188216Y0012353D01*
X0188246Y0012327D01*
X0188279Y0012304D01*
X0188313Y0012284D01*
X0188350Y0012267D01*
X0188350Y0012268D02*
X0189155Y0011945D01*
X0189192Y0011928D01*
X0189226Y0011908D01*
X0189259Y0011885D01*
X0189289Y0011859D01*
X0189317Y0011830D01*
X0189341Y0011799D01*
X0189363Y0011765D01*
X0189381Y0011729D01*
X0189396Y0011692D01*
X0189407Y0011654D01*
X0189414Y0011614D01*
X0189418Y0011574D01*
X0189417Y0011535D01*
X0189413Y0011495D01*
X0189405Y0011456D01*
X0189394Y0011417D01*
X0189379Y0011380D01*
X0189360Y0011345D01*
X0189338Y0011311D01*
X0189313Y0011280D01*
X0189285Y0011252D01*
X0189255Y0011226D01*
X0189222Y0011203D01*
X0189187Y0011183D01*
X0189151Y0011167D01*
X0189113Y0011154D01*
X0189074Y0011146D01*
X0189034Y0011140D01*
X0188994Y0011139D01*
X0186743Y0011140D02*
X0186743Y0012590D01*
X0186741Y0012632D01*
X0186736Y0012674D01*
X0186727Y0012715D01*
X0186714Y0012755D01*
X0186698Y0012794D01*
X0186678Y0012832D01*
X0186656Y0012867D01*
X0186630Y0012900D01*
X0186602Y0012932D01*
X0186570Y0012960D01*
X0186537Y0012986D01*
X0186502Y0013008D01*
X0186464Y0013028D01*
X0186425Y0013044D01*
X0186385Y0013057D01*
X0186344Y0013066D01*
X0186302Y0013071D01*
X0186260Y0013073D01*
D12*
X0134112Y0047161D02*
X0134112Y0074326D01*
X0106946Y0074326D01*
X0106946Y0047161D01*
X0134112Y0047161D01*
X0142918Y0074503D02*
X0143587Y0074503D01*
X0142908Y0074542D02*
X0142908Y0104463D01*
X0142918Y0104503D02*
X0143509Y0104503D01*
X0140654Y0103695D02*
X0140654Y0091884D01*
X0128056Y0091884D01*
X0128056Y0103695D01*
X0140654Y0103695D01*
X0152994Y0096235D02*
X0152996Y0096268D01*
X0153002Y0096300D01*
X0153011Y0096332D01*
X0153025Y0096362D01*
X0153041Y0096390D01*
X0153061Y0096416D01*
X0153084Y0096440D01*
X0153110Y0096461D01*
X0153138Y0096478D01*
X0153168Y0096493D01*
X0153199Y0096503D01*
X0153231Y0096510D01*
X0153264Y0096513D01*
X0153297Y0096512D01*
X0153329Y0096507D01*
X0153361Y0096498D01*
X0153392Y0096486D01*
X0153420Y0096470D01*
X0153447Y0096451D01*
X0153471Y0096429D01*
X0153493Y0096404D01*
X0153511Y0096376D01*
X0153526Y0096347D01*
X0153538Y0096316D01*
X0153546Y0096284D01*
X0153550Y0096251D01*
X0153550Y0096219D01*
X0153546Y0096186D01*
X0153538Y0096154D01*
X0153526Y0096123D01*
X0153511Y0096094D01*
X0153493Y0096066D01*
X0153471Y0096041D01*
X0153447Y0096019D01*
X0153420Y0096000D01*
X0153392Y0095984D01*
X0153361Y0095972D01*
X0153329Y0095963D01*
X0153297Y0095958D01*
X0153264Y0095957D01*
X0153231Y0095960D01*
X0153199Y0095967D01*
X0153168Y0095977D01*
X0153138Y0095992D01*
X0153110Y0096009D01*
X0153084Y0096030D01*
X0153061Y0096054D01*
X0153041Y0096080D01*
X0153025Y0096108D01*
X0153011Y0096138D01*
X0153002Y0096170D01*
X0152996Y0096202D01*
X0152994Y0096235D01*
X0154178Y0104542D02*
X0154808Y0104542D01*
X0154818Y0104463D02*
X0154818Y0074542D01*
X0154808Y0074542D02*
X0154099Y0074542D01*
X0114265Y0077551D02*
X0098517Y0077551D01*
X0098517Y0087394D01*
X0100486Y0089362D01*
X0114265Y0089362D01*
X0114265Y0077551D01*
X0100486Y0089362D02*
X0098517Y0089362D01*
X0098517Y0087394D01*
X0098718Y0070468D02*
X0098720Y0070495D01*
X0098726Y0070522D01*
X0098735Y0070548D01*
X0098748Y0070572D01*
X0098764Y0070595D01*
X0098783Y0070614D01*
X0098805Y0070631D01*
X0098829Y0070645D01*
X0098854Y0070655D01*
X0098881Y0070662D01*
X0098908Y0070665D01*
X0098936Y0070664D01*
X0098963Y0070659D01*
X0098989Y0070651D01*
X0099013Y0070639D01*
X0099036Y0070623D01*
X0099057Y0070605D01*
X0099074Y0070584D01*
X0099089Y0070560D01*
X0099100Y0070535D01*
X0099108Y0070509D01*
X0099112Y0070482D01*
X0099112Y0070454D01*
X0099108Y0070427D01*
X0099100Y0070401D01*
X0099089Y0070376D01*
X0099074Y0070352D01*
X0099057Y0070331D01*
X0099036Y0070313D01*
X0099014Y0070297D01*
X0098989Y0070285D01*
X0098963Y0070277D01*
X0098936Y0070272D01*
X0098908Y0070271D01*
X0098881Y0070274D01*
X0098854Y0070281D01*
X0098829Y0070291D01*
X0098805Y0070305D01*
X0098783Y0070322D01*
X0098764Y0070341D01*
X0098748Y0070364D01*
X0098735Y0070388D01*
X0098726Y0070414D01*
X0098720Y0070441D01*
X0098718Y0070468D01*
X0069938Y0072712D02*
X0069938Y0056964D01*
X0062064Y0056964D01*
X0062064Y0072712D01*
X0069938Y0072712D01*
X0001250Y0109459D02*
X0198100Y0109459D01*
X0198100Y0186624D01*
X0001250Y0186624D01*
X0001250Y0109459D01*
D13*
X0063600Y0024012D02*
X0076198Y0024012D01*
X0076198Y0009445D01*
X0063600Y0009445D01*
X0063600Y0024012D01*
X0098127Y0068893D02*
X0104427Y0068893D01*
X0104427Y0072043D01*
X0098127Y0072043D01*
X0098127Y0068893D01*
D14*
X0095183Y0071488D02*
X0094943Y0071488D01*
X0076395Y0069958D02*
X0076395Y0069718D01*
X0073602Y0061098D02*
X0073362Y0061098D01*
X0089663Y0036179D02*
X0089663Y0035939D01*
X0102025Y0035821D02*
X0102025Y0036061D01*
X0134001Y0042022D02*
X0134001Y0042262D01*
X0150173Y0069005D02*
X0150173Y0069245D01*
X0124090Y0095396D02*
X0123850Y0095396D01*
X0119782Y0095335D02*
X0119542Y0095335D01*
X0115573Y0095351D02*
X0115333Y0095351D01*
D15*
X0115343Y0090911D02*
X0115760Y0090911D01*
X0115760Y0090411D01*
X0115760Y0090911D02*
X0115810Y0090909D01*
X0115859Y0090904D01*
X0115908Y0090894D01*
X0115957Y0090881D01*
X0116004Y0090865D01*
X0116049Y0090845D01*
X0116094Y0090822D01*
X0116136Y0090795D01*
X0116176Y0090765D01*
X0116214Y0090733D01*
X0116249Y0090698D01*
X0116281Y0090660D01*
X0116311Y0090620D01*
X0116338Y0090578D01*
X0116361Y0090533D01*
X0116381Y0090488D01*
X0116397Y0090441D01*
X0116410Y0090392D01*
X0116420Y0090343D01*
X0116425Y0090294D01*
X0116427Y0090244D01*
X0116427Y0089541D02*
X0116427Y0089207D01*
X0116426Y0089207D02*
X0116424Y0089172D01*
X0116419Y0089138D01*
X0116410Y0089104D01*
X0116397Y0089072D01*
X0116381Y0089041D01*
X0116362Y0089011D01*
X0116340Y0088984D01*
X0116316Y0088960D01*
X0116289Y0088938D01*
X0116260Y0088919D01*
X0116228Y0088903D01*
X0116196Y0088890D01*
X0116162Y0088881D01*
X0116128Y0088876D01*
X0116093Y0088874D01*
X0115260Y0088874D01*
X0115225Y0088876D01*
X0115191Y0088881D01*
X0115157Y0088890D01*
X0115125Y0088903D01*
X0115094Y0088919D01*
X0115064Y0088938D01*
X0115037Y0088960D01*
X0115013Y0088984D01*
X0114991Y0089011D01*
X0114972Y0089040D01*
X0114956Y0089072D01*
X0114943Y0089104D01*
X0114934Y0089138D01*
X0114929Y0089172D01*
X0114927Y0089207D01*
X0114927Y0089541D01*
X0115343Y0090078D02*
X0115427Y0090078D01*
X0115462Y0090080D01*
X0115496Y0090085D01*
X0115530Y0090094D01*
X0115562Y0090107D01*
X0115593Y0090123D01*
X0115623Y0090142D01*
X0115650Y0090164D01*
X0115674Y0090188D01*
X0115696Y0090215D01*
X0115715Y0090244D01*
X0115731Y0090276D01*
X0115744Y0090308D01*
X0115753Y0090342D01*
X0115758Y0090376D01*
X0115760Y0090411D01*
X0115343Y0090077D02*
X0115303Y0090079D01*
X0115264Y0090085D01*
X0115226Y0090094D01*
X0115188Y0090107D01*
X0115152Y0090123D01*
X0115118Y0090143D01*
X0115085Y0090166D01*
X0115055Y0090192D01*
X0115028Y0090221D01*
X0115003Y0090252D01*
X0114982Y0090286D01*
X0114964Y0090321D01*
X0114949Y0090358D01*
X0114938Y0090396D01*
X0114930Y0090435D01*
X0114926Y0090474D01*
X0114926Y0090514D01*
X0114930Y0090553D01*
X0114938Y0090592D01*
X0114949Y0090630D01*
X0114964Y0090667D01*
X0114982Y0090703D01*
X0115003Y0090736D01*
X0115028Y0090767D01*
X0115055Y0090796D01*
X0115085Y0090822D01*
X0115118Y0090845D01*
X0115152Y0090865D01*
X0115188Y0090881D01*
X0115226Y0090894D01*
X0115264Y0090903D01*
X0115303Y0090909D01*
X0115343Y0090911D01*
X0119133Y0089483D02*
X0119133Y0089150D01*
X0119134Y0089150D02*
X0119136Y0089115D01*
X0119141Y0089081D01*
X0119150Y0089047D01*
X0119163Y0089015D01*
X0119179Y0088983D01*
X0119198Y0088954D01*
X0119220Y0088927D01*
X0119244Y0088903D01*
X0119271Y0088881D01*
X0119301Y0088862D01*
X0119332Y0088846D01*
X0119364Y0088833D01*
X0119398Y0088824D01*
X0119432Y0088819D01*
X0119467Y0088817D01*
X0119467Y0088816D02*
X0120300Y0088816D01*
X0120300Y0088817D02*
X0120335Y0088819D01*
X0120369Y0088824D01*
X0120403Y0088833D01*
X0120435Y0088846D01*
X0120467Y0088862D01*
X0120496Y0088881D01*
X0120523Y0088903D01*
X0120547Y0088927D01*
X0120569Y0088954D01*
X0120588Y0088984D01*
X0120604Y0089015D01*
X0120617Y0089047D01*
X0120626Y0089081D01*
X0120631Y0089115D01*
X0120633Y0089150D01*
X0120633Y0089483D01*
X0120217Y0090020D02*
X0120257Y0090022D01*
X0120296Y0090028D01*
X0120334Y0090037D01*
X0120372Y0090050D01*
X0120408Y0090066D01*
X0120442Y0090086D01*
X0120475Y0090109D01*
X0120505Y0090135D01*
X0120532Y0090164D01*
X0120557Y0090195D01*
X0120578Y0090229D01*
X0120596Y0090264D01*
X0120611Y0090301D01*
X0120622Y0090339D01*
X0120630Y0090378D01*
X0120634Y0090417D01*
X0120634Y0090457D01*
X0120630Y0090496D01*
X0120622Y0090535D01*
X0120611Y0090573D01*
X0120596Y0090610D01*
X0120578Y0090646D01*
X0120557Y0090679D01*
X0120532Y0090710D01*
X0120505Y0090739D01*
X0120475Y0090765D01*
X0120442Y0090788D01*
X0120408Y0090808D01*
X0120372Y0090824D01*
X0120334Y0090837D01*
X0120296Y0090846D01*
X0120257Y0090852D01*
X0120217Y0090854D01*
X0120177Y0090852D01*
X0120138Y0090846D01*
X0120100Y0090837D01*
X0120062Y0090824D01*
X0120026Y0090808D01*
X0119992Y0090788D01*
X0119959Y0090765D01*
X0119929Y0090739D01*
X0119902Y0090710D01*
X0119877Y0090679D01*
X0119856Y0090646D01*
X0119838Y0090610D01*
X0119823Y0090573D01*
X0119812Y0090535D01*
X0119804Y0090496D01*
X0119800Y0090457D01*
X0119800Y0090417D01*
X0119804Y0090378D01*
X0119812Y0090339D01*
X0119823Y0090301D01*
X0119838Y0090264D01*
X0119856Y0090229D01*
X0119877Y0090195D01*
X0119902Y0090164D01*
X0119929Y0090135D01*
X0119959Y0090109D01*
X0119992Y0090086D01*
X0120026Y0090066D01*
X0120062Y0090050D01*
X0120100Y0090037D01*
X0120138Y0090028D01*
X0120177Y0090022D01*
X0120217Y0090020D01*
X0119467Y0090104D02*
X0119502Y0090106D01*
X0119536Y0090111D01*
X0119570Y0090120D01*
X0119602Y0090133D01*
X0119634Y0090149D01*
X0119663Y0090168D01*
X0119690Y0090190D01*
X0119714Y0090214D01*
X0119736Y0090241D01*
X0119755Y0090271D01*
X0119771Y0090302D01*
X0119784Y0090334D01*
X0119793Y0090368D01*
X0119798Y0090402D01*
X0119800Y0090437D01*
X0119798Y0090472D01*
X0119793Y0090506D01*
X0119784Y0090540D01*
X0119771Y0090572D01*
X0119755Y0090604D01*
X0119736Y0090633D01*
X0119714Y0090660D01*
X0119690Y0090684D01*
X0119663Y0090706D01*
X0119634Y0090725D01*
X0119602Y0090741D01*
X0119570Y0090754D01*
X0119536Y0090763D01*
X0119502Y0090768D01*
X0119467Y0090770D01*
X0119432Y0090768D01*
X0119398Y0090763D01*
X0119364Y0090754D01*
X0119332Y0090741D01*
X0119301Y0090725D01*
X0119271Y0090706D01*
X0119244Y0090684D01*
X0119220Y0090660D01*
X0119198Y0090633D01*
X0119179Y0090604D01*
X0119163Y0090572D01*
X0119150Y0090540D01*
X0119141Y0090506D01*
X0119136Y0090472D01*
X0119134Y0090437D01*
X0119136Y0090402D01*
X0119141Y0090368D01*
X0119150Y0090334D01*
X0119163Y0090302D01*
X0119179Y0090271D01*
X0119198Y0090241D01*
X0119220Y0090214D01*
X0119244Y0090190D01*
X0119271Y0090168D01*
X0119301Y0090149D01*
X0119332Y0090133D01*
X0119364Y0090120D01*
X0119398Y0090111D01*
X0119432Y0090106D01*
X0119467Y0090104D01*
X0124586Y0089816D02*
X0124586Y0090649D01*
X0126086Y0090232D01*
X0126086Y0089279D02*
X0126086Y0088945D01*
X0126085Y0088945D02*
X0126083Y0088910D01*
X0126078Y0088876D01*
X0126069Y0088842D01*
X0126056Y0088810D01*
X0126040Y0088779D01*
X0126021Y0088749D01*
X0125999Y0088722D01*
X0125975Y0088698D01*
X0125948Y0088676D01*
X0125919Y0088657D01*
X0125887Y0088641D01*
X0125855Y0088628D01*
X0125821Y0088619D01*
X0125787Y0088614D01*
X0125752Y0088612D01*
X0124919Y0088612D01*
X0124884Y0088614D01*
X0124850Y0088619D01*
X0124816Y0088628D01*
X0124784Y0088641D01*
X0124753Y0088657D01*
X0124723Y0088676D01*
X0124696Y0088698D01*
X0124672Y0088722D01*
X0124650Y0088749D01*
X0124631Y0088778D01*
X0124615Y0088810D01*
X0124602Y0088842D01*
X0124593Y0088876D01*
X0124588Y0088910D01*
X0124586Y0088945D01*
X0124586Y0089279D01*
X0124586Y0089816D02*
X0124752Y0089816D01*
X0131063Y0089745D02*
X0131063Y0088245D01*
X0131729Y0088245D01*
X0132260Y0088245D02*
X0133093Y0088245D01*
X0132677Y0088245D02*
X0132677Y0089745D01*
X0132260Y0089412D01*
X0140076Y0088632D02*
X0140078Y0088669D01*
X0140083Y0088705D01*
X0140092Y0088741D01*
X0140105Y0088776D01*
X0140120Y0088809D01*
X0140139Y0088840D01*
X0140161Y0088870D01*
X0140186Y0088897D01*
X0140213Y0088922D01*
X0140243Y0088944D01*
X0140274Y0088963D01*
X0140307Y0088978D01*
X0140342Y0088991D01*
X0140378Y0089000D01*
X0140414Y0089005D01*
X0140451Y0089007D01*
X0140743Y0088882D02*
X0141576Y0088173D01*
X0141576Y0089007D01*
X0140410Y0088173D02*
X0140372Y0088187D01*
X0140335Y0088205D01*
X0140300Y0088225D01*
X0140267Y0088248D01*
X0140236Y0088274D01*
X0140207Y0088302D01*
X0140180Y0088332D01*
X0140157Y0088365D01*
X0140136Y0088400D01*
X0140118Y0088436D01*
X0140103Y0088473D01*
X0140091Y0088512D01*
X0140083Y0088552D01*
X0140078Y0088592D01*
X0140076Y0088632D01*
X0140451Y0089007D02*
X0140487Y0089005D01*
X0140523Y0089000D01*
X0140558Y0088992D01*
X0140593Y0088981D01*
X0140626Y0088967D01*
X0140658Y0088950D01*
X0140688Y0088930D01*
X0140717Y0088907D01*
X0140743Y0088882D01*
X0140951Y0087448D02*
X0140701Y0086990D01*
X0140076Y0087156D02*
X0140078Y0087201D01*
X0140082Y0087245D01*
X0140090Y0087289D01*
X0140101Y0087332D01*
X0140116Y0087375D01*
X0140133Y0087416D01*
X0140153Y0087456D01*
X0140175Y0087494D01*
X0140201Y0087531D01*
X0140701Y0086990D02*
X0140682Y0086961D01*
X0140659Y0086933D01*
X0140634Y0086909D01*
X0140607Y0086887D01*
X0140577Y0086868D01*
X0140546Y0086852D01*
X0140513Y0086839D01*
X0140479Y0086830D01*
X0140444Y0086825D01*
X0140409Y0086823D01*
X0140374Y0086825D01*
X0140340Y0086830D01*
X0140306Y0086839D01*
X0140274Y0086852D01*
X0140243Y0086868D01*
X0140213Y0086887D01*
X0140186Y0086909D01*
X0140162Y0086933D01*
X0140140Y0086960D01*
X0140121Y0086990D01*
X0140105Y0087021D01*
X0140092Y0087053D01*
X0140083Y0087087D01*
X0140078Y0087121D01*
X0140076Y0087156D01*
X0141368Y0086781D02*
X0141402Y0086818D01*
X0141434Y0086857D01*
X0141463Y0086899D01*
X0141489Y0086942D01*
X0141512Y0086987D01*
X0141531Y0087034D01*
X0141547Y0087082D01*
X0141560Y0087131D01*
X0141569Y0087180D01*
X0141574Y0087231D01*
X0141576Y0087281D01*
X0141574Y0087316D01*
X0141569Y0087350D01*
X0141560Y0087384D01*
X0141547Y0087416D01*
X0141531Y0087448D01*
X0141512Y0087477D01*
X0141490Y0087504D01*
X0141466Y0087528D01*
X0141439Y0087550D01*
X0141410Y0087569D01*
X0141378Y0087585D01*
X0141346Y0087598D01*
X0141312Y0087607D01*
X0141278Y0087612D01*
X0141243Y0087614D01*
X0141243Y0087615D02*
X0141208Y0087613D01*
X0141173Y0087608D01*
X0141139Y0087599D01*
X0141106Y0087586D01*
X0141075Y0087570D01*
X0141045Y0087551D01*
X0141018Y0087529D01*
X0140993Y0087505D01*
X0140970Y0087477D01*
X0140951Y0087448D01*
X0141576Y0086299D02*
X0141576Y0085632D01*
X0140076Y0085632D01*
X0132479Y0080530D02*
X0132519Y0080528D01*
X0132558Y0080522D01*
X0132596Y0080513D01*
X0132634Y0080500D01*
X0132670Y0080484D01*
X0132704Y0080464D01*
X0132737Y0080441D01*
X0132767Y0080415D01*
X0132794Y0080386D01*
X0132819Y0080355D01*
X0132840Y0080322D01*
X0132858Y0080286D01*
X0132873Y0080249D01*
X0132884Y0080211D01*
X0132892Y0080172D01*
X0132896Y0080133D01*
X0132896Y0080093D01*
X0132892Y0080054D01*
X0132884Y0080015D01*
X0132873Y0079977D01*
X0132858Y0079940D01*
X0132840Y0079905D01*
X0132819Y0079871D01*
X0132794Y0079840D01*
X0132767Y0079811D01*
X0132737Y0079785D01*
X0132704Y0079762D01*
X0132670Y0079742D01*
X0132634Y0079726D01*
X0132596Y0079713D01*
X0132558Y0079704D01*
X0132519Y0079698D01*
X0132479Y0079696D01*
X0132439Y0079698D01*
X0132400Y0079704D01*
X0132362Y0079713D01*
X0132324Y0079726D01*
X0132288Y0079742D01*
X0132254Y0079762D01*
X0132221Y0079785D01*
X0132191Y0079811D01*
X0132164Y0079840D01*
X0132139Y0079871D01*
X0132118Y0079905D01*
X0132100Y0079940D01*
X0132085Y0079977D01*
X0132074Y0080015D01*
X0132066Y0080054D01*
X0132062Y0080093D01*
X0132062Y0080133D01*
X0132066Y0080172D01*
X0132074Y0080211D01*
X0132085Y0080249D01*
X0132100Y0080286D01*
X0132118Y0080322D01*
X0132139Y0080355D01*
X0132164Y0080386D01*
X0132191Y0080415D01*
X0132221Y0080441D01*
X0132254Y0080464D01*
X0132288Y0080484D01*
X0132324Y0080500D01*
X0132362Y0080513D01*
X0132400Y0080522D01*
X0132439Y0080528D01*
X0132479Y0080530D01*
X0131729Y0080446D02*
X0131764Y0080444D01*
X0131798Y0080439D01*
X0131832Y0080430D01*
X0131864Y0080417D01*
X0131896Y0080401D01*
X0131925Y0080382D01*
X0131952Y0080360D01*
X0131976Y0080336D01*
X0131998Y0080309D01*
X0132017Y0080280D01*
X0132033Y0080248D01*
X0132046Y0080216D01*
X0132055Y0080182D01*
X0132060Y0080148D01*
X0132062Y0080113D01*
X0132060Y0080078D01*
X0132055Y0080044D01*
X0132046Y0080010D01*
X0132033Y0079978D01*
X0132017Y0079947D01*
X0131998Y0079917D01*
X0131976Y0079890D01*
X0131952Y0079866D01*
X0131925Y0079844D01*
X0131896Y0079825D01*
X0131864Y0079809D01*
X0131832Y0079796D01*
X0131798Y0079787D01*
X0131764Y0079782D01*
X0131729Y0079780D01*
X0131694Y0079782D01*
X0131660Y0079787D01*
X0131626Y0079796D01*
X0131594Y0079809D01*
X0131563Y0079825D01*
X0131533Y0079844D01*
X0131506Y0079866D01*
X0131482Y0079890D01*
X0131460Y0079917D01*
X0131441Y0079947D01*
X0131425Y0079978D01*
X0131412Y0080010D01*
X0131403Y0080044D01*
X0131398Y0080078D01*
X0131396Y0080113D01*
X0131398Y0080148D01*
X0131403Y0080182D01*
X0131412Y0080216D01*
X0131425Y0080248D01*
X0131441Y0080280D01*
X0131460Y0080309D01*
X0131482Y0080336D01*
X0131506Y0080360D01*
X0131533Y0080382D01*
X0131563Y0080401D01*
X0131594Y0080417D01*
X0131626Y0080430D01*
X0131660Y0080439D01*
X0131694Y0080444D01*
X0131729Y0080446D01*
X0132229Y0078765D02*
X0132895Y0079098D01*
X0132229Y0078682D02*
X0132229Y0078265D01*
X0132229Y0078682D02*
X0132227Y0078722D01*
X0132221Y0078761D01*
X0132212Y0078799D01*
X0132199Y0078837D01*
X0132183Y0078873D01*
X0132163Y0078907D01*
X0132140Y0078940D01*
X0132114Y0078970D01*
X0132085Y0078997D01*
X0132054Y0079022D01*
X0132021Y0079043D01*
X0131985Y0079061D01*
X0131948Y0079076D01*
X0131910Y0079087D01*
X0131871Y0079095D01*
X0131832Y0079099D01*
X0131792Y0079099D01*
X0131753Y0079095D01*
X0131714Y0079087D01*
X0131676Y0079076D01*
X0131639Y0079061D01*
X0131604Y0079043D01*
X0131570Y0079022D01*
X0131539Y0078997D01*
X0131510Y0078970D01*
X0131484Y0078940D01*
X0131461Y0078907D01*
X0131441Y0078873D01*
X0131425Y0078837D01*
X0131412Y0078799D01*
X0131403Y0078761D01*
X0131397Y0078722D01*
X0131395Y0078682D01*
X0131395Y0078265D01*
X0132895Y0078265D01*
X0151776Y0072758D02*
X0151776Y0071924D01*
X0151778Y0071889D01*
X0151783Y0071855D01*
X0151792Y0071821D01*
X0151805Y0071789D01*
X0151821Y0071758D01*
X0151840Y0071728D01*
X0151862Y0071701D01*
X0151886Y0071677D01*
X0151913Y0071655D01*
X0151943Y0071636D01*
X0151974Y0071620D01*
X0152006Y0071607D01*
X0152040Y0071598D01*
X0152074Y0071593D01*
X0152109Y0071591D01*
X0152443Y0071591D01*
X0152980Y0071591D02*
X0153813Y0071591D01*
X0153396Y0071591D02*
X0153396Y0073091D01*
X0152980Y0072758D01*
X0152443Y0073091D02*
X0152109Y0073091D01*
X0152074Y0073089D01*
X0152040Y0073084D01*
X0152006Y0073075D01*
X0151974Y0073062D01*
X0151942Y0073046D01*
X0151913Y0073027D01*
X0151886Y0073005D01*
X0151862Y0072981D01*
X0151840Y0072954D01*
X0151821Y0072924D01*
X0151805Y0072893D01*
X0151792Y0072861D01*
X0151783Y0072827D01*
X0151778Y0072793D01*
X0151776Y0072758D01*
X0152425Y0062312D02*
X0152841Y0062312D01*
X0152425Y0062312D02*
X0152425Y0060812D01*
X0152425Y0061479D02*
X0152841Y0061479D01*
X0152925Y0061479D02*
X0153258Y0060812D01*
X0153857Y0060812D02*
X0154690Y0060812D01*
X0154273Y0060812D02*
X0154273Y0062312D01*
X0153857Y0061979D01*
X0152841Y0062313D02*
X0152881Y0062311D01*
X0152920Y0062305D01*
X0152958Y0062296D01*
X0152996Y0062283D01*
X0153032Y0062267D01*
X0153066Y0062247D01*
X0153099Y0062224D01*
X0153129Y0062198D01*
X0153156Y0062169D01*
X0153181Y0062138D01*
X0153202Y0062105D01*
X0153220Y0062069D01*
X0153235Y0062032D01*
X0153246Y0061994D01*
X0153254Y0061955D01*
X0153258Y0061916D01*
X0153258Y0061876D01*
X0153254Y0061837D01*
X0153246Y0061798D01*
X0153235Y0061760D01*
X0153220Y0061723D01*
X0153202Y0061688D01*
X0153181Y0061654D01*
X0153156Y0061623D01*
X0153129Y0061594D01*
X0153099Y0061568D01*
X0153066Y0061545D01*
X0153032Y0061525D01*
X0152996Y0061509D01*
X0152958Y0061496D01*
X0152920Y0061487D01*
X0152881Y0061481D01*
X0152841Y0061479D01*
X0134920Y0045385D02*
X0134922Y0045323D01*
X0134926Y0045261D01*
X0134934Y0045199D01*
X0134945Y0045138D01*
X0134959Y0045077D01*
X0134976Y0045017D01*
X0134996Y0044958D01*
X0135019Y0044900D01*
X0135045Y0044843D01*
X0135003Y0044968D02*
X0135670Y0045801D01*
X0135627Y0045926D02*
X0135615Y0045955D01*
X0135601Y0045984D01*
X0135583Y0046010D01*
X0135563Y0046035D01*
X0135540Y0046057D01*
X0135515Y0046077D01*
X0135488Y0046094D01*
X0135460Y0046108D01*
X0135430Y0046119D01*
X0135399Y0046127D01*
X0135368Y0046132D01*
X0135336Y0046134D01*
X0135304Y0046132D01*
X0135273Y0046127D01*
X0135242Y0046119D01*
X0135212Y0046108D01*
X0135184Y0046094D01*
X0135157Y0046077D01*
X0135132Y0046057D01*
X0135109Y0046035D01*
X0135089Y0046010D01*
X0135071Y0045984D01*
X0135057Y0045955D01*
X0135045Y0045926D01*
X0135628Y0045927D02*
X0135654Y0045870D01*
X0135677Y0045812D01*
X0135697Y0045753D01*
X0135714Y0045693D01*
X0135728Y0045632D01*
X0135739Y0045571D01*
X0135747Y0045509D01*
X0135751Y0045447D01*
X0135753Y0045385D01*
X0134920Y0045385D02*
X0134922Y0045447D01*
X0134926Y0045509D01*
X0134934Y0045571D01*
X0134945Y0045632D01*
X0134959Y0045693D01*
X0134976Y0045753D01*
X0134996Y0045812D01*
X0135019Y0045870D01*
X0135045Y0045927D01*
X0135753Y0045385D02*
X0135751Y0045323D01*
X0135747Y0045261D01*
X0135739Y0045199D01*
X0135728Y0045138D01*
X0135714Y0045077D01*
X0135697Y0045017D01*
X0135677Y0044958D01*
X0135654Y0044900D01*
X0135628Y0044843D01*
X0135336Y0044635D02*
X0135304Y0044637D01*
X0135273Y0044642D01*
X0135242Y0044650D01*
X0135212Y0044661D01*
X0135184Y0044675D01*
X0135157Y0044692D01*
X0135132Y0044712D01*
X0135109Y0044734D01*
X0135089Y0044759D01*
X0135071Y0044785D01*
X0135057Y0044814D01*
X0135045Y0044843D01*
X0135336Y0044635D02*
X0135368Y0044637D01*
X0135399Y0044642D01*
X0135430Y0044650D01*
X0135460Y0044661D01*
X0135488Y0044675D01*
X0135515Y0044692D01*
X0135540Y0044712D01*
X0135563Y0044734D01*
X0135583Y0044759D01*
X0135601Y0044785D01*
X0135615Y0044814D01*
X0135627Y0044843D01*
X0134313Y0044635D02*
X0133480Y0044635D01*
X0133896Y0044635D02*
X0133896Y0046135D01*
X0133480Y0045801D01*
X0132943Y0046135D02*
X0132609Y0046135D01*
X0132609Y0046134D02*
X0132574Y0046132D01*
X0132540Y0046127D01*
X0132506Y0046118D01*
X0132474Y0046105D01*
X0132442Y0046089D01*
X0132413Y0046070D01*
X0132386Y0046048D01*
X0132362Y0046024D01*
X0132340Y0045997D01*
X0132321Y0045967D01*
X0132305Y0045936D01*
X0132292Y0045904D01*
X0132283Y0045870D01*
X0132278Y0045836D01*
X0132276Y0045801D01*
X0132276Y0044968D01*
X0132278Y0044933D01*
X0132283Y0044899D01*
X0132292Y0044865D01*
X0132305Y0044833D01*
X0132321Y0044802D01*
X0132340Y0044772D01*
X0132362Y0044745D01*
X0132386Y0044721D01*
X0132413Y0044699D01*
X0132443Y0044680D01*
X0132474Y0044664D01*
X0132506Y0044651D01*
X0132540Y0044642D01*
X0132574Y0044637D01*
X0132609Y0044635D01*
X0132943Y0044635D01*
X0105587Y0043842D02*
X0105587Y0043009D01*
X0104753Y0043717D01*
X0104086Y0043467D02*
X0104088Y0043427D01*
X0104093Y0043387D01*
X0104101Y0043347D01*
X0104113Y0043308D01*
X0104128Y0043271D01*
X0104146Y0043235D01*
X0104167Y0043200D01*
X0104190Y0043167D01*
X0104217Y0043137D01*
X0104246Y0043109D01*
X0104277Y0043083D01*
X0104310Y0043060D01*
X0104345Y0043040D01*
X0104382Y0043022D01*
X0104420Y0043008D01*
X0104754Y0043717D02*
X0104728Y0043742D01*
X0104699Y0043765D01*
X0104669Y0043785D01*
X0104637Y0043802D01*
X0104604Y0043816D01*
X0104569Y0043827D01*
X0104534Y0043835D01*
X0104498Y0043840D01*
X0104462Y0043842D01*
X0104425Y0043840D01*
X0104389Y0043835D01*
X0104353Y0043826D01*
X0104318Y0043813D01*
X0104285Y0043798D01*
X0104254Y0043779D01*
X0104224Y0043757D01*
X0104197Y0043732D01*
X0104172Y0043705D01*
X0104150Y0043675D01*
X0104131Y0043644D01*
X0104116Y0043611D01*
X0104103Y0043576D01*
X0104094Y0043540D01*
X0104089Y0043504D01*
X0104087Y0043467D01*
X0104503Y0042354D02*
X0105170Y0042354D01*
X0105208Y0042352D01*
X0105247Y0042347D01*
X0105284Y0042338D01*
X0105321Y0042326D01*
X0105356Y0042310D01*
X0105390Y0042292D01*
X0105421Y0042270D01*
X0105451Y0042245D01*
X0105478Y0042218D01*
X0105503Y0042188D01*
X0105525Y0042157D01*
X0105543Y0042123D01*
X0105559Y0042088D01*
X0105571Y0042051D01*
X0105580Y0042014D01*
X0105585Y0041975D01*
X0105587Y0041937D01*
X0105587Y0041521D01*
X0104087Y0041521D01*
X0104087Y0041937D01*
X0104086Y0041937D02*
X0104088Y0041975D01*
X0104093Y0042014D01*
X0104102Y0042051D01*
X0104114Y0042088D01*
X0104130Y0042123D01*
X0104148Y0042157D01*
X0104170Y0042188D01*
X0104195Y0042218D01*
X0104222Y0042245D01*
X0104252Y0042270D01*
X0104283Y0042292D01*
X0104317Y0042310D01*
X0104352Y0042326D01*
X0104389Y0042338D01*
X0104426Y0042347D01*
X0104465Y0042352D01*
X0104503Y0042354D01*
X0104087Y0040942D02*
X0104087Y0040275D01*
X0105587Y0040275D01*
X0105587Y0040942D01*
X0104753Y0040775D02*
X0104753Y0040275D01*
X0105587Y0039694D02*
X0105587Y0039027D01*
X0104087Y0039027D01*
X0103618Y0033141D02*
X0103618Y0031641D01*
X0103202Y0031641D02*
X0104035Y0031641D01*
X0104642Y0032057D02*
X0104642Y0032474D01*
X0105142Y0032474D01*
X0104641Y0032474D02*
X0104643Y0032524D01*
X0104648Y0032573D01*
X0104658Y0032622D01*
X0104671Y0032671D01*
X0104687Y0032718D01*
X0104707Y0032763D01*
X0104730Y0032807D01*
X0104757Y0032850D01*
X0104787Y0032890D01*
X0104819Y0032928D01*
X0104854Y0032963D01*
X0104892Y0032995D01*
X0104932Y0033025D01*
X0104974Y0033052D01*
X0105019Y0033075D01*
X0105064Y0033095D01*
X0105111Y0033111D01*
X0105160Y0033124D01*
X0105209Y0033134D01*
X0105258Y0033139D01*
X0105308Y0033141D01*
X0105142Y0032474D02*
X0105177Y0032472D01*
X0105211Y0032467D01*
X0105245Y0032458D01*
X0105277Y0032445D01*
X0105309Y0032429D01*
X0105338Y0032410D01*
X0105365Y0032388D01*
X0105389Y0032364D01*
X0105411Y0032337D01*
X0105430Y0032308D01*
X0105446Y0032276D01*
X0105459Y0032244D01*
X0105468Y0032210D01*
X0105473Y0032176D01*
X0105475Y0032141D01*
X0105475Y0032057D01*
X0105473Y0032017D01*
X0105467Y0031978D01*
X0105458Y0031940D01*
X0105445Y0031902D01*
X0105429Y0031866D01*
X0105409Y0031832D01*
X0105386Y0031799D01*
X0105360Y0031769D01*
X0105331Y0031742D01*
X0105300Y0031717D01*
X0105267Y0031696D01*
X0105231Y0031678D01*
X0105194Y0031663D01*
X0105156Y0031652D01*
X0105117Y0031644D01*
X0105078Y0031640D01*
X0105038Y0031640D01*
X0104999Y0031644D01*
X0104960Y0031652D01*
X0104922Y0031663D01*
X0104885Y0031678D01*
X0104850Y0031696D01*
X0104816Y0031717D01*
X0104785Y0031742D01*
X0104756Y0031769D01*
X0104730Y0031799D01*
X0104707Y0031832D01*
X0104687Y0031866D01*
X0104671Y0031902D01*
X0104658Y0031940D01*
X0104649Y0031978D01*
X0104643Y0032017D01*
X0104641Y0032057D01*
X0103618Y0033141D02*
X0103202Y0032807D01*
X0102665Y0033141D02*
X0102331Y0033141D01*
X0102331Y0033140D02*
X0102296Y0033138D01*
X0102262Y0033133D01*
X0102228Y0033124D01*
X0102196Y0033111D01*
X0102164Y0033095D01*
X0102135Y0033076D01*
X0102108Y0033054D01*
X0102084Y0033030D01*
X0102062Y0033003D01*
X0102043Y0032973D01*
X0102027Y0032942D01*
X0102014Y0032910D01*
X0102005Y0032876D01*
X0102000Y0032842D01*
X0101998Y0032807D01*
X0101998Y0031974D01*
X0102000Y0031939D01*
X0102005Y0031905D01*
X0102014Y0031871D01*
X0102027Y0031839D01*
X0102043Y0031808D01*
X0102062Y0031778D01*
X0102084Y0031751D01*
X0102108Y0031727D01*
X0102135Y0031705D01*
X0102165Y0031686D01*
X0102196Y0031670D01*
X0102228Y0031657D01*
X0102262Y0031648D01*
X0102296Y0031643D01*
X0102331Y0031641D01*
X0102665Y0031641D01*
X0094326Y0044696D02*
X0092826Y0044696D01*
X0092826Y0045113D01*
X0092828Y0045153D01*
X0092834Y0045192D01*
X0092843Y0045230D01*
X0092856Y0045268D01*
X0092872Y0045304D01*
X0092892Y0045338D01*
X0092915Y0045371D01*
X0092941Y0045401D01*
X0092970Y0045428D01*
X0093001Y0045453D01*
X0093035Y0045474D01*
X0093070Y0045492D01*
X0093107Y0045507D01*
X0093145Y0045518D01*
X0093184Y0045526D01*
X0093223Y0045530D01*
X0093263Y0045530D01*
X0093302Y0045526D01*
X0093341Y0045518D01*
X0093379Y0045507D01*
X0093416Y0045492D01*
X0093452Y0045474D01*
X0093485Y0045453D01*
X0093516Y0045428D01*
X0093545Y0045401D01*
X0093571Y0045371D01*
X0093594Y0045338D01*
X0093614Y0045304D01*
X0093630Y0045268D01*
X0093643Y0045230D01*
X0093652Y0045192D01*
X0093658Y0045153D01*
X0093660Y0045113D01*
X0093660Y0044696D01*
X0093660Y0045196D02*
X0094326Y0045530D01*
X0094326Y0046128D02*
X0094326Y0046628D01*
X0094324Y0046663D01*
X0094319Y0046697D01*
X0094310Y0046731D01*
X0094297Y0046763D01*
X0094281Y0046795D01*
X0094262Y0046824D01*
X0094240Y0046851D01*
X0094216Y0046875D01*
X0094189Y0046897D01*
X0094160Y0046916D01*
X0094128Y0046932D01*
X0094096Y0046945D01*
X0094062Y0046954D01*
X0094028Y0046959D01*
X0093993Y0046961D01*
X0093826Y0046961D01*
X0093791Y0046959D01*
X0093757Y0046954D01*
X0093723Y0046945D01*
X0093691Y0046932D01*
X0093660Y0046916D01*
X0093630Y0046897D01*
X0093603Y0046875D01*
X0093579Y0046851D01*
X0093557Y0046824D01*
X0093538Y0046795D01*
X0093522Y0046763D01*
X0093509Y0046731D01*
X0093500Y0046697D01*
X0093495Y0046663D01*
X0093493Y0046628D01*
X0093493Y0046128D01*
X0092826Y0046128D01*
X0092826Y0046961D01*
X0092811Y0048140D02*
X0092811Y0048556D01*
X0092811Y0048140D02*
X0094311Y0048140D01*
X0093645Y0048140D02*
X0093645Y0048556D01*
X0093645Y0048640D02*
X0094311Y0048973D01*
X0093978Y0049571D02*
X0093978Y0050405D01*
X0093645Y0050155D02*
X0094311Y0050155D01*
X0093978Y0049571D02*
X0092811Y0049905D01*
X0092811Y0048556D02*
X0092813Y0048596D01*
X0092819Y0048635D01*
X0092828Y0048673D01*
X0092841Y0048711D01*
X0092857Y0048747D01*
X0092877Y0048781D01*
X0092900Y0048814D01*
X0092926Y0048844D01*
X0092955Y0048871D01*
X0092986Y0048896D01*
X0093020Y0048917D01*
X0093055Y0048935D01*
X0093092Y0048950D01*
X0093130Y0048961D01*
X0093169Y0048969D01*
X0093208Y0048973D01*
X0093248Y0048973D01*
X0093287Y0048969D01*
X0093326Y0048961D01*
X0093364Y0048950D01*
X0093401Y0048935D01*
X0093437Y0048917D01*
X0093470Y0048896D01*
X0093501Y0048871D01*
X0093530Y0048844D01*
X0093556Y0048814D01*
X0093579Y0048781D01*
X0093599Y0048747D01*
X0093615Y0048711D01*
X0093628Y0048673D01*
X0093637Y0048635D01*
X0093643Y0048596D01*
X0093645Y0048556D01*
X0087392Y0047756D02*
X0087392Y0046922D01*
X0087392Y0047339D02*
X0085892Y0047339D01*
X0086225Y0046922D01*
X0086308Y0046268D02*
X0086975Y0046268D01*
X0087013Y0046266D01*
X0087052Y0046261D01*
X0087089Y0046252D01*
X0087126Y0046240D01*
X0087161Y0046224D01*
X0087195Y0046206D01*
X0087226Y0046184D01*
X0087256Y0046159D01*
X0087283Y0046132D01*
X0087308Y0046102D01*
X0087330Y0046071D01*
X0087348Y0046037D01*
X0087364Y0046002D01*
X0087376Y0045965D01*
X0087385Y0045928D01*
X0087390Y0045889D01*
X0087392Y0045851D01*
X0087392Y0045434D01*
X0085892Y0045434D01*
X0085892Y0045851D01*
X0085891Y0045851D02*
X0085893Y0045889D01*
X0085898Y0045928D01*
X0085907Y0045965D01*
X0085919Y0046002D01*
X0085935Y0046037D01*
X0085953Y0046071D01*
X0085975Y0046102D01*
X0086000Y0046132D01*
X0086027Y0046159D01*
X0086057Y0046184D01*
X0086088Y0046206D01*
X0086122Y0046224D01*
X0086157Y0046240D01*
X0086194Y0046252D01*
X0086231Y0046261D01*
X0086270Y0046266D01*
X0086308Y0046268D01*
X0085892Y0044856D02*
X0085892Y0044189D01*
X0087392Y0044189D01*
X0087392Y0044856D01*
X0086558Y0044689D02*
X0086558Y0044189D01*
X0087392Y0043608D02*
X0087392Y0042941D01*
X0085892Y0042941D01*
X0086171Y0040280D02*
X0086171Y0038780D01*
X0085754Y0038780D02*
X0086588Y0038780D01*
X0087611Y0038780D02*
X0088028Y0040280D01*
X0087194Y0040280D01*
X0087194Y0040113D01*
X0086171Y0040280D02*
X0085754Y0039946D01*
X0085217Y0040280D02*
X0084884Y0040280D01*
X0084884Y0040279D02*
X0084849Y0040277D01*
X0084815Y0040272D01*
X0084781Y0040263D01*
X0084749Y0040250D01*
X0084717Y0040234D01*
X0084688Y0040215D01*
X0084661Y0040193D01*
X0084637Y0040169D01*
X0084615Y0040142D01*
X0084596Y0040112D01*
X0084580Y0040081D01*
X0084567Y0040049D01*
X0084558Y0040015D01*
X0084553Y0039981D01*
X0084551Y0039946D01*
X0084551Y0039113D01*
X0084553Y0039078D01*
X0084558Y0039044D01*
X0084567Y0039010D01*
X0084580Y0038978D01*
X0084596Y0038947D01*
X0084615Y0038917D01*
X0084637Y0038890D01*
X0084661Y0038866D01*
X0084688Y0038844D01*
X0084718Y0038825D01*
X0084749Y0038809D01*
X0084781Y0038796D01*
X0084815Y0038787D01*
X0084849Y0038782D01*
X0084884Y0038780D01*
X0085217Y0038780D01*
X0076086Y0040144D02*
X0075670Y0040144D01*
X0076086Y0040143D02*
X0076126Y0040145D01*
X0076165Y0040151D01*
X0076203Y0040160D01*
X0076241Y0040173D01*
X0076277Y0040189D01*
X0076311Y0040209D01*
X0076344Y0040232D01*
X0076374Y0040258D01*
X0076401Y0040287D01*
X0076426Y0040318D01*
X0076447Y0040352D01*
X0076465Y0040387D01*
X0076480Y0040424D01*
X0076491Y0040462D01*
X0076499Y0040501D01*
X0076503Y0040540D01*
X0076503Y0040580D01*
X0076499Y0040619D01*
X0076491Y0040658D01*
X0076480Y0040696D01*
X0076465Y0040733D01*
X0076447Y0040769D01*
X0076426Y0040802D01*
X0076401Y0040833D01*
X0076374Y0040862D01*
X0076344Y0040888D01*
X0076311Y0040911D01*
X0076277Y0040931D01*
X0076241Y0040947D01*
X0076203Y0040960D01*
X0076165Y0040969D01*
X0076126Y0040975D01*
X0076086Y0040977D01*
X0076170Y0040977D02*
X0075836Y0040977D01*
X0076170Y0040977D02*
X0076205Y0040979D01*
X0076239Y0040984D01*
X0076273Y0040993D01*
X0076305Y0041006D01*
X0076337Y0041022D01*
X0076366Y0041041D01*
X0076393Y0041063D01*
X0076417Y0041087D01*
X0076439Y0041114D01*
X0076458Y0041144D01*
X0076474Y0041175D01*
X0076487Y0041207D01*
X0076496Y0041241D01*
X0076501Y0041275D01*
X0076503Y0041310D01*
X0076501Y0041345D01*
X0076496Y0041379D01*
X0076487Y0041413D01*
X0076474Y0041445D01*
X0076458Y0041477D01*
X0076439Y0041506D01*
X0076417Y0041533D01*
X0076393Y0041557D01*
X0076366Y0041579D01*
X0076337Y0041598D01*
X0076305Y0041614D01*
X0076273Y0041627D01*
X0076239Y0041636D01*
X0076205Y0041641D01*
X0076170Y0041643D01*
X0076170Y0041644D02*
X0075670Y0041644D01*
X0074655Y0041644D02*
X0074238Y0041644D01*
X0074238Y0040144D01*
X0074238Y0040810D02*
X0074655Y0040810D01*
X0074738Y0040810D02*
X0075071Y0040144D01*
X0074655Y0040810D02*
X0074695Y0040812D01*
X0074734Y0040818D01*
X0074772Y0040827D01*
X0074810Y0040840D01*
X0074846Y0040856D01*
X0074880Y0040876D01*
X0074913Y0040899D01*
X0074943Y0040925D01*
X0074970Y0040954D01*
X0074995Y0040985D01*
X0075016Y0041019D01*
X0075034Y0041054D01*
X0075049Y0041091D01*
X0075060Y0041129D01*
X0075068Y0041168D01*
X0075072Y0041207D01*
X0075072Y0041247D01*
X0075068Y0041286D01*
X0075060Y0041325D01*
X0075049Y0041363D01*
X0075034Y0041400D01*
X0075016Y0041436D01*
X0074995Y0041469D01*
X0074970Y0041500D01*
X0074943Y0041529D01*
X0074913Y0041555D01*
X0074880Y0041578D01*
X0074846Y0041598D01*
X0074810Y0041614D01*
X0074772Y0041627D01*
X0074734Y0041636D01*
X0074695Y0041642D01*
X0074655Y0041644D01*
X0067551Y0047234D02*
X0067551Y0047317D01*
X0067549Y0047352D01*
X0067544Y0047386D01*
X0067535Y0047420D01*
X0067522Y0047452D01*
X0067506Y0047484D01*
X0067487Y0047513D01*
X0067465Y0047540D01*
X0067441Y0047564D01*
X0067414Y0047586D01*
X0067385Y0047605D01*
X0067353Y0047621D01*
X0067321Y0047634D01*
X0067287Y0047643D01*
X0067253Y0047648D01*
X0067218Y0047650D01*
X0067218Y0047651D02*
X0066718Y0047651D01*
X0066718Y0047234D01*
X0066717Y0047234D02*
X0066719Y0047194D01*
X0066725Y0047155D01*
X0066734Y0047117D01*
X0066747Y0047079D01*
X0066763Y0047043D01*
X0066783Y0047009D01*
X0066806Y0046976D01*
X0066832Y0046946D01*
X0066861Y0046919D01*
X0066892Y0046894D01*
X0066926Y0046873D01*
X0066961Y0046855D01*
X0066998Y0046840D01*
X0067036Y0046829D01*
X0067075Y0046821D01*
X0067114Y0046817D01*
X0067154Y0046817D01*
X0067193Y0046821D01*
X0067232Y0046829D01*
X0067270Y0046840D01*
X0067307Y0046855D01*
X0067343Y0046873D01*
X0067376Y0046894D01*
X0067407Y0046919D01*
X0067436Y0046946D01*
X0067462Y0046976D01*
X0067485Y0047009D01*
X0067505Y0047043D01*
X0067521Y0047079D01*
X0067534Y0047117D01*
X0067543Y0047155D01*
X0067549Y0047194D01*
X0067551Y0047234D01*
X0066717Y0047651D02*
X0066719Y0047701D01*
X0066724Y0047750D01*
X0066734Y0047799D01*
X0066747Y0047848D01*
X0066763Y0047895D01*
X0066783Y0047940D01*
X0066806Y0047984D01*
X0066833Y0048027D01*
X0066863Y0048067D01*
X0066895Y0048105D01*
X0066930Y0048140D01*
X0066968Y0048172D01*
X0067008Y0048202D01*
X0067050Y0048229D01*
X0067095Y0048252D01*
X0067140Y0048272D01*
X0067187Y0048288D01*
X0067236Y0048301D01*
X0067285Y0048311D01*
X0067334Y0048316D01*
X0067384Y0048318D01*
X0065703Y0048317D02*
X0065286Y0048317D01*
X0065286Y0046817D01*
X0065286Y0047484D02*
X0065703Y0047484D01*
X0065786Y0047484D02*
X0066119Y0046817D01*
X0065703Y0047484D02*
X0065743Y0047486D01*
X0065782Y0047492D01*
X0065820Y0047501D01*
X0065858Y0047514D01*
X0065894Y0047530D01*
X0065928Y0047550D01*
X0065961Y0047573D01*
X0065991Y0047599D01*
X0066018Y0047628D01*
X0066043Y0047659D01*
X0066064Y0047693D01*
X0066082Y0047728D01*
X0066097Y0047765D01*
X0066108Y0047803D01*
X0066116Y0047842D01*
X0066120Y0047881D01*
X0066120Y0047921D01*
X0066116Y0047960D01*
X0066108Y0047999D01*
X0066097Y0048037D01*
X0066082Y0048074D01*
X0066064Y0048110D01*
X0066043Y0048143D01*
X0066018Y0048174D01*
X0065991Y0048203D01*
X0065961Y0048229D01*
X0065928Y0048252D01*
X0065894Y0048272D01*
X0065858Y0048288D01*
X0065820Y0048301D01*
X0065782Y0048310D01*
X0065743Y0048316D01*
X0065703Y0048318D01*
X0076272Y0059431D02*
X0077105Y0059431D01*
X0077140Y0059433D01*
X0077174Y0059438D01*
X0077208Y0059447D01*
X0077240Y0059460D01*
X0077272Y0059476D01*
X0077301Y0059495D01*
X0077328Y0059517D01*
X0077352Y0059541D01*
X0077374Y0059568D01*
X0077393Y0059598D01*
X0077409Y0059629D01*
X0077422Y0059661D01*
X0077431Y0059695D01*
X0077436Y0059729D01*
X0077438Y0059764D01*
X0077438Y0060097D01*
X0077438Y0060634D02*
X0077438Y0061468D01*
X0077438Y0061051D02*
X0075938Y0061051D01*
X0076272Y0060634D01*
X0075938Y0060097D02*
X0075938Y0059764D01*
X0075939Y0059764D02*
X0075941Y0059729D01*
X0075946Y0059695D01*
X0075955Y0059661D01*
X0075968Y0059629D01*
X0075984Y0059597D01*
X0076003Y0059568D01*
X0076025Y0059541D01*
X0076049Y0059517D01*
X0076076Y0059495D01*
X0076106Y0059476D01*
X0076137Y0059460D01*
X0076169Y0059447D01*
X0076203Y0059438D01*
X0076237Y0059433D01*
X0076272Y0059431D01*
X0077438Y0062074D02*
X0077438Y0062908D01*
X0077438Y0062074D02*
X0076605Y0062783D01*
X0075938Y0062533D02*
X0075940Y0062493D01*
X0075945Y0062453D01*
X0075953Y0062413D01*
X0075965Y0062374D01*
X0075980Y0062337D01*
X0075998Y0062301D01*
X0076019Y0062266D01*
X0076042Y0062233D01*
X0076069Y0062203D01*
X0076098Y0062175D01*
X0076129Y0062149D01*
X0076162Y0062126D01*
X0076197Y0062106D01*
X0076234Y0062088D01*
X0076272Y0062074D01*
X0076605Y0062783D02*
X0076579Y0062808D01*
X0076550Y0062831D01*
X0076520Y0062851D01*
X0076488Y0062868D01*
X0076455Y0062882D01*
X0076420Y0062893D01*
X0076385Y0062901D01*
X0076349Y0062906D01*
X0076313Y0062908D01*
X0076276Y0062906D01*
X0076240Y0062901D01*
X0076204Y0062892D01*
X0076169Y0062879D01*
X0076136Y0062864D01*
X0076105Y0062845D01*
X0076075Y0062823D01*
X0076048Y0062798D01*
X0076023Y0062771D01*
X0076001Y0062741D01*
X0075982Y0062710D01*
X0075967Y0062677D01*
X0075954Y0062642D01*
X0075945Y0062606D01*
X0075940Y0062570D01*
X0075938Y0062533D01*
X0075415Y0072089D02*
X0074582Y0072089D01*
X0074998Y0072089D02*
X0074998Y0073589D01*
X0074582Y0073255D01*
X0073558Y0073589D02*
X0073558Y0072089D01*
X0073142Y0072089D02*
X0073975Y0072089D01*
X0072605Y0072089D02*
X0072271Y0072089D01*
X0072236Y0072091D01*
X0072202Y0072096D01*
X0072168Y0072105D01*
X0072136Y0072118D01*
X0072105Y0072134D01*
X0072075Y0072153D01*
X0072048Y0072175D01*
X0072024Y0072199D01*
X0072002Y0072226D01*
X0071983Y0072256D01*
X0071967Y0072287D01*
X0071954Y0072319D01*
X0071945Y0072353D01*
X0071940Y0072387D01*
X0071938Y0072422D01*
X0071938Y0073255D01*
X0071940Y0073290D01*
X0071945Y0073324D01*
X0071954Y0073358D01*
X0071967Y0073390D01*
X0071983Y0073421D01*
X0072002Y0073451D01*
X0072024Y0073478D01*
X0072048Y0073502D01*
X0072075Y0073524D01*
X0072104Y0073543D01*
X0072136Y0073559D01*
X0072168Y0073572D01*
X0072202Y0073581D01*
X0072236Y0073586D01*
X0072271Y0073588D01*
X0072271Y0073589D02*
X0072605Y0073589D01*
X0073142Y0073255D02*
X0073558Y0073589D01*
X0091006Y0070012D02*
X0091006Y0069679D01*
X0091008Y0069644D01*
X0091013Y0069610D01*
X0091022Y0069576D01*
X0091035Y0069544D01*
X0091051Y0069512D01*
X0091070Y0069483D01*
X0091092Y0069456D01*
X0091116Y0069432D01*
X0091143Y0069410D01*
X0091173Y0069391D01*
X0091204Y0069375D01*
X0091236Y0069362D01*
X0091270Y0069353D01*
X0091304Y0069348D01*
X0091339Y0069346D01*
X0092173Y0069346D01*
X0092208Y0069348D01*
X0092242Y0069353D01*
X0092276Y0069362D01*
X0092308Y0069375D01*
X0092340Y0069391D01*
X0092369Y0069410D01*
X0092396Y0069432D01*
X0092420Y0069456D01*
X0092442Y0069483D01*
X0092461Y0069513D01*
X0092477Y0069544D01*
X0092490Y0069576D01*
X0092499Y0069610D01*
X0092504Y0069644D01*
X0092506Y0069679D01*
X0092506Y0070012D01*
X0092506Y0070549D02*
X0092506Y0071383D01*
X0092089Y0071989D02*
X0091673Y0071989D01*
X0091673Y0072489D01*
X0091673Y0071989D02*
X0091623Y0071991D01*
X0091574Y0071996D01*
X0091525Y0072006D01*
X0091476Y0072019D01*
X0091429Y0072035D01*
X0091384Y0072055D01*
X0091340Y0072078D01*
X0091297Y0072105D01*
X0091257Y0072135D01*
X0091219Y0072167D01*
X0091184Y0072202D01*
X0091152Y0072240D01*
X0091122Y0072280D01*
X0091095Y0072322D01*
X0091072Y0072367D01*
X0091052Y0072412D01*
X0091036Y0072459D01*
X0091023Y0072508D01*
X0091013Y0072557D01*
X0091008Y0072606D01*
X0091006Y0072656D01*
X0091673Y0072489D02*
X0091675Y0072524D01*
X0091680Y0072558D01*
X0091689Y0072592D01*
X0091702Y0072624D01*
X0091718Y0072656D01*
X0091737Y0072685D01*
X0091759Y0072712D01*
X0091783Y0072736D01*
X0091810Y0072758D01*
X0091840Y0072777D01*
X0091871Y0072793D01*
X0091903Y0072806D01*
X0091937Y0072815D01*
X0091971Y0072820D01*
X0092006Y0072822D01*
X0092006Y0072823D02*
X0092089Y0072823D01*
X0092129Y0072821D01*
X0092168Y0072815D01*
X0092206Y0072806D01*
X0092244Y0072793D01*
X0092280Y0072777D01*
X0092314Y0072757D01*
X0092347Y0072734D01*
X0092377Y0072708D01*
X0092404Y0072679D01*
X0092429Y0072648D01*
X0092450Y0072615D01*
X0092468Y0072579D01*
X0092483Y0072542D01*
X0092494Y0072504D01*
X0092502Y0072465D01*
X0092506Y0072426D01*
X0092506Y0072386D01*
X0092502Y0072347D01*
X0092494Y0072308D01*
X0092483Y0072270D01*
X0092468Y0072233D01*
X0092450Y0072198D01*
X0092429Y0072164D01*
X0092404Y0072133D01*
X0092377Y0072104D01*
X0092347Y0072078D01*
X0092314Y0072055D01*
X0092280Y0072035D01*
X0092244Y0072019D01*
X0092206Y0072006D01*
X0092168Y0071997D01*
X0092129Y0071991D01*
X0092089Y0071989D01*
X0091673Y0071258D02*
X0092506Y0070549D01*
X0091340Y0070549D02*
X0091302Y0070563D01*
X0091265Y0070581D01*
X0091230Y0070601D01*
X0091197Y0070624D01*
X0091166Y0070650D01*
X0091137Y0070678D01*
X0091110Y0070708D01*
X0091087Y0070741D01*
X0091066Y0070776D01*
X0091048Y0070812D01*
X0091033Y0070849D01*
X0091021Y0070888D01*
X0091013Y0070928D01*
X0091008Y0070968D01*
X0091006Y0071008D01*
X0091008Y0071045D01*
X0091013Y0071081D01*
X0091022Y0071117D01*
X0091035Y0071152D01*
X0091050Y0071185D01*
X0091069Y0071216D01*
X0091091Y0071246D01*
X0091116Y0071273D01*
X0091143Y0071298D01*
X0091173Y0071320D01*
X0091204Y0071339D01*
X0091237Y0071354D01*
X0091272Y0071367D01*
X0091308Y0071376D01*
X0091344Y0071381D01*
X0091381Y0071383D01*
X0091417Y0071381D01*
X0091453Y0071376D01*
X0091488Y0071368D01*
X0091523Y0071357D01*
X0091556Y0071343D01*
X0091588Y0071326D01*
X0091618Y0071306D01*
X0091647Y0071283D01*
X0091673Y0071258D01*
X0085350Y0053489D02*
X0085387Y0053487D01*
X0085423Y0053482D01*
X0085459Y0053473D01*
X0085494Y0053460D01*
X0085527Y0053445D01*
X0085558Y0053426D01*
X0085588Y0053404D01*
X0085615Y0053379D01*
X0085640Y0053352D01*
X0085662Y0053322D01*
X0085681Y0053291D01*
X0085696Y0053258D01*
X0085709Y0053223D01*
X0085718Y0053187D01*
X0085723Y0053151D01*
X0085725Y0053114D01*
X0085600Y0052823D02*
X0084891Y0051989D01*
X0085725Y0051989D01*
X0084891Y0053156D02*
X0084905Y0053194D01*
X0084923Y0053231D01*
X0084943Y0053266D01*
X0084966Y0053299D01*
X0084992Y0053330D01*
X0085020Y0053359D01*
X0085050Y0053386D01*
X0085083Y0053409D01*
X0085118Y0053430D01*
X0085154Y0053448D01*
X0085191Y0053463D01*
X0085230Y0053475D01*
X0085270Y0053483D01*
X0085310Y0053488D01*
X0085350Y0053490D01*
X0085725Y0053114D02*
X0085723Y0053078D01*
X0085718Y0053042D01*
X0085710Y0053007D01*
X0085699Y0052972D01*
X0085685Y0052939D01*
X0085668Y0052907D01*
X0085648Y0052877D01*
X0085625Y0052848D01*
X0085600Y0052822D01*
X0084293Y0051989D02*
X0083960Y0052656D01*
X0083876Y0052656D02*
X0083460Y0052656D01*
X0083876Y0052656D02*
X0083916Y0052658D01*
X0083955Y0052664D01*
X0083993Y0052673D01*
X0084031Y0052686D01*
X0084067Y0052702D01*
X0084101Y0052722D01*
X0084134Y0052745D01*
X0084164Y0052771D01*
X0084191Y0052800D01*
X0084216Y0052831D01*
X0084237Y0052865D01*
X0084255Y0052900D01*
X0084270Y0052937D01*
X0084281Y0052975D01*
X0084289Y0053014D01*
X0084293Y0053053D01*
X0084293Y0053093D01*
X0084289Y0053132D01*
X0084281Y0053171D01*
X0084270Y0053209D01*
X0084255Y0053246D01*
X0084237Y0053282D01*
X0084216Y0053315D01*
X0084191Y0053346D01*
X0084164Y0053375D01*
X0084134Y0053401D01*
X0084101Y0053424D01*
X0084067Y0053444D01*
X0084031Y0053460D01*
X0083993Y0053473D01*
X0083955Y0053482D01*
X0083916Y0053488D01*
X0083876Y0053490D01*
X0083876Y0053489D02*
X0083460Y0053489D01*
X0083460Y0051989D01*
X0060409Y0091891D02*
X0059576Y0091891D01*
X0059576Y0091892D02*
X0059541Y0091894D01*
X0059507Y0091899D01*
X0059473Y0091908D01*
X0059441Y0091921D01*
X0059410Y0091937D01*
X0059380Y0091956D01*
X0059353Y0091978D01*
X0059329Y0092002D01*
X0059307Y0092029D01*
X0059288Y0092058D01*
X0059272Y0092090D01*
X0059259Y0092122D01*
X0059250Y0092156D01*
X0059245Y0092190D01*
X0059243Y0092225D01*
X0059242Y0092225D02*
X0059242Y0092558D01*
X0059576Y0093095D02*
X0059242Y0093512D01*
X0060742Y0093512D01*
X0060742Y0093928D02*
X0060742Y0093095D01*
X0060742Y0092558D02*
X0060742Y0092225D01*
X0060740Y0092190D01*
X0060735Y0092156D01*
X0060726Y0092122D01*
X0060713Y0092090D01*
X0060697Y0092059D01*
X0060678Y0092029D01*
X0060656Y0092002D01*
X0060632Y0091978D01*
X0060605Y0091956D01*
X0060576Y0091937D01*
X0060544Y0091921D01*
X0060512Y0091908D01*
X0060478Y0091899D01*
X0060444Y0091894D01*
X0060409Y0091892D01*
X0059742Y0094535D02*
X0059659Y0094535D01*
X0059742Y0094535D02*
X0059777Y0094537D01*
X0059811Y0094542D01*
X0059845Y0094551D01*
X0059877Y0094564D01*
X0059908Y0094580D01*
X0059938Y0094599D01*
X0059965Y0094621D01*
X0059989Y0094645D01*
X0060011Y0094672D01*
X0060030Y0094701D01*
X0060046Y0094733D01*
X0060059Y0094765D01*
X0060068Y0094799D01*
X0060073Y0094833D01*
X0060075Y0094868D01*
X0060076Y0094868D02*
X0060076Y0095368D01*
X0059659Y0095368D01*
X0059659Y0095369D02*
X0059619Y0095367D01*
X0059580Y0095361D01*
X0059542Y0095352D01*
X0059504Y0095339D01*
X0059468Y0095323D01*
X0059434Y0095303D01*
X0059401Y0095280D01*
X0059371Y0095254D01*
X0059344Y0095225D01*
X0059319Y0095194D01*
X0059298Y0095161D01*
X0059280Y0095125D01*
X0059265Y0095088D01*
X0059254Y0095050D01*
X0059246Y0095011D01*
X0059242Y0094972D01*
X0059242Y0094932D01*
X0059246Y0094893D01*
X0059254Y0094854D01*
X0059265Y0094816D01*
X0059280Y0094779D01*
X0059298Y0094744D01*
X0059319Y0094710D01*
X0059344Y0094679D01*
X0059371Y0094650D01*
X0059401Y0094624D01*
X0059434Y0094601D01*
X0059468Y0094581D01*
X0059504Y0094565D01*
X0059542Y0094552D01*
X0059580Y0094543D01*
X0059619Y0094537D01*
X0059659Y0094535D01*
X0060076Y0095369D02*
X0060126Y0095367D01*
X0060175Y0095362D01*
X0060224Y0095352D01*
X0060273Y0095339D01*
X0060320Y0095323D01*
X0060365Y0095303D01*
X0060410Y0095280D01*
X0060452Y0095253D01*
X0060492Y0095223D01*
X0060530Y0095191D01*
X0060565Y0095156D01*
X0060597Y0095118D01*
X0060627Y0095078D01*
X0060654Y0095036D01*
X0060677Y0094991D01*
X0060697Y0094946D01*
X0060713Y0094899D01*
X0060726Y0094850D01*
X0060736Y0094801D01*
X0060741Y0094752D01*
X0060743Y0094702D01*
X0125734Y0101164D02*
X0127234Y0101164D01*
X0127234Y0101830D01*
X0126900Y0102361D02*
X0126900Y0103194D01*
X0126567Y0102944D02*
X0127234Y0102944D01*
X0126900Y0102361D02*
X0125734Y0102694D01*
X0155690Y0091482D02*
X0155692Y0091519D01*
X0155697Y0091555D01*
X0155706Y0091591D01*
X0155719Y0091626D01*
X0155734Y0091659D01*
X0155753Y0091690D01*
X0155775Y0091720D01*
X0155800Y0091747D01*
X0155827Y0091772D01*
X0155857Y0091794D01*
X0155888Y0091813D01*
X0155921Y0091828D01*
X0155956Y0091841D01*
X0155992Y0091850D01*
X0156028Y0091855D01*
X0156065Y0091857D01*
X0156356Y0091732D02*
X0157190Y0091024D01*
X0157190Y0091857D01*
X0156023Y0091023D02*
X0155985Y0091037D01*
X0155948Y0091055D01*
X0155913Y0091075D01*
X0155880Y0091098D01*
X0155849Y0091124D01*
X0155820Y0091152D01*
X0155793Y0091182D01*
X0155770Y0091215D01*
X0155749Y0091250D01*
X0155731Y0091286D01*
X0155716Y0091323D01*
X0155704Y0091362D01*
X0155696Y0091402D01*
X0155691Y0091442D01*
X0155689Y0091482D01*
X0156065Y0091857D02*
X0156101Y0091855D01*
X0156137Y0091850D01*
X0156172Y0091842D01*
X0156207Y0091831D01*
X0156240Y0091817D01*
X0156272Y0091800D01*
X0156302Y0091780D01*
X0156331Y0091757D01*
X0156357Y0091732D01*
X0156356Y0090292D02*
X0157190Y0089584D01*
X0157190Y0090417D01*
X0156023Y0089583D02*
X0155985Y0089597D01*
X0155948Y0089615D01*
X0155913Y0089635D01*
X0155880Y0089658D01*
X0155849Y0089684D01*
X0155820Y0089712D01*
X0155793Y0089742D01*
X0155770Y0089775D01*
X0155749Y0089810D01*
X0155731Y0089846D01*
X0155716Y0089883D01*
X0155704Y0089922D01*
X0155696Y0089962D01*
X0155691Y0090002D01*
X0155689Y0090042D01*
X0155690Y0090042D02*
X0155692Y0090079D01*
X0155697Y0090115D01*
X0155706Y0090151D01*
X0155719Y0090186D01*
X0155734Y0090219D01*
X0155753Y0090250D01*
X0155775Y0090280D01*
X0155800Y0090307D01*
X0155827Y0090332D01*
X0155857Y0090354D01*
X0155888Y0090373D01*
X0155921Y0090388D01*
X0155956Y0090401D01*
X0155992Y0090410D01*
X0156028Y0090415D01*
X0156065Y0090417D01*
X0156101Y0090415D01*
X0156137Y0090410D01*
X0156172Y0090402D01*
X0156207Y0090391D01*
X0156240Y0090377D01*
X0156272Y0090360D01*
X0156302Y0090340D01*
X0156331Y0090317D01*
X0156357Y0090292D01*
X0155690Y0089047D02*
X0155690Y0088713D01*
X0155692Y0088678D01*
X0155697Y0088644D01*
X0155706Y0088610D01*
X0155719Y0088578D01*
X0155735Y0088546D01*
X0155754Y0088517D01*
X0155776Y0088490D01*
X0155800Y0088466D01*
X0155827Y0088444D01*
X0155857Y0088425D01*
X0155888Y0088409D01*
X0155920Y0088396D01*
X0155954Y0088387D01*
X0155988Y0088382D01*
X0156023Y0088380D01*
X0156856Y0088380D01*
X0156891Y0088382D01*
X0156925Y0088387D01*
X0156959Y0088396D01*
X0156991Y0088409D01*
X0157023Y0088425D01*
X0157052Y0088444D01*
X0157079Y0088466D01*
X0157103Y0088490D01*
X0157125Y0088517D01*
X0157144Y0088547D01*
X0157160Y0088578D01*
X0157173Y0088610D01*
X0157182Y0088644D01*
X0157187Y0088678D01*
X0157189Y0088713D01*
X0157190Y0088713D02*
X0157190Y0089047D01*
X0172985Y0090712D02*
X0172985Y0091046D01*
X0172985Y0090712D02*
X0172987Y0090677D01*
X0172992Y0090643D01*
X0173001Y0090609D01*
X0173014Y0090577D01*
X0173030Y0090545D01*
X0173049Y0090516D01*
X0173071Y0090489D01*
X0173095Y0090465D01*
X0173122Y0090443D01*
X0173152Y0090424D01*
X0173183Y0090408D01*
X0173215Y0090395D01*
X0173249Y0090386D01*
X0173283Y0090381D01*
X0173318Y0090379D01*
X0174151Y0090379D01*
X0174186Y0090381D01*
X0174220Y0090386D01*
X0174254Y0090395D01*
X0174286Y0090408D01*
X0174318Y0090424D01*
X0174347Y0090443D01*
X0174374Y0090465D01*
X0174398Y0090489D01*
X0174420Y0090516D01*
X0174439Y0090546D01*
X0174455Y0090577D01*
X0174468Y0090609D01*
X0174477Y0090643D01*
X0174482Y0090677D01*
X0174484Y0090712D01*
X0174485Y0090712D02*
X0174485Y0091046D01*
X0174485Y0091583D02*
X0174485Y0092416D01*
X0174485Y0093023D02*
X0174485Y0093440D01*
X0174483Y0093480D01*
X0174477Y0093519D01*
X0174468Y0093557D01*
X0174455Y0093595D01*
X0174439Y0093631D01*
X0174419Y0093665D01*
X0174396Y0093698D01*
X0174370Y0093728D01*
X0174341Y0093755D01*
X0174310Y0093780D01*
X0174277Y0093801D01*
X0174241Y0093819D01*
X0174204Y0093834D01*
X0174166Y0093845D01*
X0174127Y0093853D01*
X0174088Y0093857D01*
X0174048Y0093857D01*
X0174009Y0093853D01*
X0173970Y0093845D01*
X0173932Y0093834D01*
X0173895Y0093819D01*
X0173860Y0093801D01*
X0173826Y0093780D01*
X0173795Y0093755D01*
X0173766Y0093728D01*
X0173740Y0093698D01*
X0173717Y0093665D01*
X0173697Y0093631D01*
X0173681Y0093595D01*
X0173668Y0093557D01*
X0173659Y0093519D01*
X0173653Y0093480D01*
X0173651Y0093440D01*
X0173651Y0093523D02*
X0173651Y0093190D01*
X0173651Y0093523D02*
X0173649Y0093558D01*
X0173644Y0093592D01*
X0173635Y0093626D01*
X0173622Y0093658D01*
X0173606Y0093690D01*
X0173587Y0093719D01*
X0173565Y0093746D01*
X0173541Y0093770D01*
X0173514Y0093792D01*
X0173485Y0093811D01*
X0173453Y0093827D01*
X0173421Y0093840D01*
X0173387Y0093849D01*
X0173353Y0093854D01*
X0173318Y0093856D01*
X0173283Y0093854D01*
X0173249Y0093849D01*
X0173215Y0093840D01*
X0173183Y0093827D01*
X0173152Y0093811D01*
X0173122Y0093792D01*
X0173095Y0093770D01*
X0173071Y0093746D01*
X0173049Y0093719D01*
X0173030Y0093690D01*
X0173014Y0093658D01*
X0173001Y0093626D01*
X0172992Y0093592D01*
X0172987Y0093558D01*
X0172985Y0093523D01*
X0172985Y0093023D01*
X0173651Y0092291D02*
X0174485Y0091583D01*
X0173318Y0091582D02*
X0173280Y0091596D01*
X0173243Y0091614D01*
X0173208Y0091634D01*
X0173175Y0091657D01*
X0173144Y0091683D01*
X0173115Y0091711D01*
X0173088Y0091741D01*
X0173065Y0091774D01*
X0173044Y0091809D01*
X0173026Y0091845D01*
X0173011Y0091882D01*
X0172999Y0091921D01*
X0172991Y0091961D01*
X0172986Y0092001D01*
X0172984Y0092041D01*
X0172985Y0092041D02*
X0172987Y0092078D01*
X0172992Y0092114D01*
X0173001Y0092150D01*
X0173014Y0092185D01*
X0173029Y0092218D01*
X0173048Y0092249D01*
X0173070Y0092279D01*
X0173095Y0092306D01*
X0173122Y0092331D01*
X0173152Y0092353D01*
X0173183Y0092372D01*
X0173216Y0092387D01*
X0173251Y0092400D01*
X0173287Y0092409D01*
X0173323Y0092414D01*
X0173360Y0092416D01*
X0173396Y0092414D01*
X0173432Y0092409D01*
X0173467Y0092401D01*
X0173502Y0092390D01*
X0173535Y0092376D01*
X0173567Y0092359D01*
X0173597Y0092339D01*
X0173626Y0092316D01*
X0173652Y0092291D01*
D16*
X0076986Y0024799D03*
D17*
X0088088Y0047673D02*
X0089899Y0047673D01*
X0088979Y0048893D01*
X0089899Y0047673D02*
X0091710Y0047673D01*
X0090759Y0048893D02*
X0089999Y0047734D01*
X0098246Y0041840D02*
X0099405Y0041080D01*
X0099466Y0040980D02*
X0098246Y0040060D01*
X0099466Y0039169D02*
X0099466Y0040980D01*
X0099466Y0042791D01*
X0138877Y0080557D02*
X0138877Y0080951D01*
X0140451Y0080951D01*
X0140451Y0080557D01*
X0138877Y0080557D01*
X0100268Y0100304D02*
X0097768Y0097804D01*
X0092768Y0097804D01*
X0090268Y0100304D01*
X0087768Y0097804D01*
X0082768Y0097804D01*
X0080268Y0100304D01*
X0080268Y0105304D01*
X0082768Y0107804D01*
X0087768Y0107804D01*
X0090268Y0105304D01*
X0092768Y0107804D01*
X0097768Y0107804D01*
X0100268Y0105304D01*
X0100268Y0100304D01*
X0177424Y0080317D02*
X0177424Y0079717D01*
X0177424Y0080317D02*
X0190924Y0080317D01*
X0190924Y0079717D01*
X0190924Y0075917D02*
X0190924Y0074717D01*
X0190924Y0070917D02*
X0190924Y0069717D01*
X0190924Y0065917D02*
X0190924Y0064717D01*
X0190924Y0060917D02*
X0190924Y0059717D01*
X0190924Y0055917D02*
X0190924Y0055317D01*
X0177424Y0055317D01*
X0177424Y0055917D01*
X0177424Y0059717D02*
X0177424Y0060917D01*
X0177424Y0064717D02*
X0177424Y0065917D01*
X0177424Y0069717D02*
X0177424Y0070917D01*
X0177424Y0074717D02*
X0177424Y0075917D01*
D18*
X0109090Y0071452D02*
X0109092Y0071506D01*
X0109098Y0071560D01*
X0109108Y0071613D01*
X0109122Y0071665D01*
X0109139Y0071716D01*
X0109161Y0071765D01*
X0109186Y0071813D01*
X0109214Y0071859D01*
X0109246Y0071903D01*
X0109281Y0071944D01*
X0109318Y0071982D01*
X0109359Y0072018D01*
X0109402Y0072050D01*
X0109447Y0072080D01*
X0109495Y0072105D01*
X0109544Y0072128D01*
X0109594Y0072146D01*
X0109646Y0072161D01*
X0109699Y0072172D01*
X0109753Y0072179D01*
X0109807Y0072182D01*
X0109860Y0072181D01*
X0109914Y0072176D01*
X0109967Y0072167D01*
X0110020Y0072154D01*
X0110071Y0072137D01*
X0110121Y0072117D01*
X0110169Y0072093D01*
X0110216Y0072065D01*
X0110260Y0072035D01*
X0110302Y0072000D01*
X0110341Y0071963D01*
X0110377Y0071924D01*
X0110411Y0071881D01*
X0110441Y0071836D01*
X0110467Y0071789D01*
X0110490Y0071741D01*
X0110510Y0071690D01*
X0110526Y0071639D01*
X0110538Y0071586D01*
X0110546Y0071533D01*
X0110550Y0071479D01*
X0110550Y0071425D01*
X0110546Y0071371D01*
X0110538Y0071318D01*
X0110526Y0071265D01*
X0110510Y0071214D01*
X0110490Y0071163D01*
X0110467Y0071115D01*
X0110441Y0071068D01*
X0110411Y0071023D01*
X0110377Y0070980D01*
X0110341Y0070941D01*
X0110302Y0070904D01*
X0110260Y0070869D01*
X0110216Y0070839D01*
X0110169Y0070811D01*
X0110121Y0070787D01*
X0110071Y0070767D01*
X0110020Y0070750D01*
X0109967Y0070737D01*
X0109914Y0070728D01*
X0109860Y0070723D01*
X0109807Y0070722D01*
X0109753Y0070725D01*
X0109699Y0070732D01*
X0109646Y0070743D01*
X0109594Y0070758D01*
X0109544Y0070776D01*
X0109495Y0070799D01*
X0109447Y0070824D01*
X0109402Y0070854D01*
X0109359Y0070886D01*
X0109318Y0070922D01*
X0109281Y0070960D01*
X0109246Y0071001D01*
X0109214Y0071045D01*
X0109186Y0071091D01*
X0109161Y0071139D01*
X0109139Y0071188D01*
X0109122Y0071239D01*
X0109108Y0071291D01*
X0109098Y0071344D01*
X0109092Y0071398D01*
X0109090Y0071452D01*
D19*
X0098836Y0050783D03*
X0098954Y0046019D03*
X0079742Y0049720D03*
X0079702Y0044602D03*
X0067616Y0044563D03*
X0150263Y0064811D03*
D20*
X0063924Y0092300D02*
X0063684Y0092300D01*
D21*
X0135163Y0080159D03*
D22*
X0158142Y0089090D02*
X0158142Y0091452D01*
X0162867Y0091452D02*
X0162867Y0089090D01*
X0175519Y0090778D02*
X0175519Y0093141D01*
X0180244Y0093141D02*
X0180244Y0090778D01*
M02*
