G75*
%MOIN*%
%OFA0B0*%
%FSLAX25Y25*%
%IPPOS*%
%LPD*%
%AMOC8*
5,1,8,0,0,1.08239X$1,22.5*
%
%ADD10R,0.07087X0.03937*%
%ADD11R,0.00984X0.01772*%
%ADD12R,0.02756X0.03543*%
%ADD13R,0.03543X0.02756*%
%ADD14R,0.01772X0.01063*%
%ADD15R,0.01063X0.01772*%
%ADD16R,0.04331X0.03937*%
%ADD17R,0.03150X0.03150*%
%ADD18R,0.20276X0.20276*%
%ADD19C,0.01181*%
%ADD20R,0.14173X0.48425*%
%ADD21R,0.05512X0.04528*%
%ADD22R,0.03937X0.03937*%
%ADD23R,0.01654X0.07008*%
%ADD24R,0.03150X0.10630*%
%ADD25R,0.04724X0.03150*%
%ADD26R,0.02559X0.03346*%
%ADD27R,0.03740X0.02559*%
%ADD28C,0.00500*%
%ADD29R,0.01654X0.02362*%
%ADD30R,0.02362X0.01654*%
%ADD31R,0.03937X0.04331*%
%ADD32R,0.01575X0.03346*%
%ADD33R,0.01575X0.06693*%
%ADD34R,0.01575X0.01575*%
%ADD35R,0.05000X0.02000*%
D10*
X0065606Y0059917D03*
X0065606Y0069760D03*
D11*
X0098913Y0068893D03*
X0100882Y0068893D03*
X0102850Y0068893D03*
X0102850Y0072043D03*
X0100882Y0072043D03*
X0098913Y0072043D03*
D12*
X0078559Y0069838D03*
X0073441Y0069838D03*
X0076787Y0049720D03*
X0076748Y0044602D03*
X0081866Y0044602D03*
X0081906Y0049720D03*
X0069780Y0044563D03*
X0064661Y0044563D03*
X0086709Y0036059D03*
X0091827Y0036059D03*
X0099071Y0035941D03*
X0104189Y0035941D03*
X0101118Y0046019D03*
X0101000Y0050783D03*
X0095882Y0050783D03*
X0096000Y0046019D03*
X0110286Y0024961D03*
X0110169Y0020698D03*
X0110286Y0016027D03*
X0115288Y0020698D03*
X0115404Y0024961D03*
X0105168Y0016027D03*
X0103214Y0011771D03*
X0108333Y0011771D03*
X0131046Y0042142D03*
X0136165Y0042142D03*
X0147308Y0064811D03*
X0147218Y0069125D03*
X0152336Y0069125D03*
X0152426Y0064811D03*
D13*
X0134767Y0077600D03*
X0134767Y0082718D03*
X0123575Y0092837D03*
X0119267Y0092776D03*
X0115058Y0092791D03*
X0115058Y0097910D03*
X0119267Y0097894D03*
X0123575Y0097955D03*
X0094668Y0074048D03*
X0094668Y0068929D03*
X0073087Y0063657D03*
X0073087Y0058539D03*
D14*
X0064681Y0010803D03*
X0064681Y0012496D03*
X0064681Y0014189D03*
X0064681Y0015882D03*
X0064681Y0017575D03*
X0064681Y0019267D03*
X0064681Y0020960D03*
X0064681Y0022653D03*
X0074327Y0022653D03*
X0074327Y0020960D03*
X0074327Y0019267D03*
X0074327Y0017575D03*
X0074327Y0015882D03*
X0074327Y0014189D03*
X0074327Y0012496D03*
X0074327Y0010803D03*
D15*
X0072043Y0010921D03*
X0070350Y0010921D03*
X0068657Y0010921D03*
X0066965Y0010921D03*
X0066965Y0022535D03*
X0068657Y0022535D03*
X0070350Y0022535D03*
X0072043Y0022535D03*
D16*
X0083282Y0075911D03*
X0089975Y0075911D03*
X0069683Y0082683D03*
X0062990Y0082683D03*
X0123071Y0085417D03*
X0129764Y0085417D03*
D17*
X0139269Y0083116D03*
X0139269Y0077211D03*
X0095417Y0041123D03*
X0089511Y0041123D03*
X0089504Y0045389D03*
X0089504Y0051295D03*
D18*
X0120134Y0060744D03*
D19*
X0121118Y0074721D02*
X0121118Y0074721D01*
X0121118Y0073145D01*
X0121118Y0073145D01*
X0121118Y0074721D01*
X0121118Y0074325D02*
X0121118Y0074325D01*
X0119150Y0074721D02*
X0119150Y0074721D01*
X0119150Y0073145D01*
X0119150Y0073145D01*
X0119150Y0074721D01*
X0119150Y0074325D02*
X0119150Y0074325D01*
X0117181Y0074721D02*
X0117181Y0074721D01*
X0117181Y0073145D01*
X0117181Y0073145D01*
X0117181Y0074721D01*
X0117181Y0074325D02*
X0117181Y0074325D01*
X0115213Y0073145D02*
X0115213Y0073145D01*
X0115213Y0074721D01*
X0115213Y0074721D01*
X0115213Y0073145D01*
X0115213Y0074325D02*
X0115213Y0074325D01*
X0113244Y0073145D02*
X0113244Y0073145D01*
X0113244Y0074721D01*
X0113244Y0074721D01*
X0113244Y0073145D01*
X0113244Y0074325D02*
X0113244Y0074325D01*
X0111276Y0073145D02*
X0111276Y0073145D01*
X0111276Y0074721D01*
X0111276Y0074721D01*
X0111276Y0073145D01*
X0111276Y0074325D02*
X0111276Y0074325D01*
X0109307Y0073145D02*
X0109307Y0073145D01*
X0109307Y0074721D01*
X0109307Y0074721D01*
X0109307Y0073145D01*
X0109307Y0074325D02*
X0109307Y0074325D01*
X0107733Y0071571D02*
X0107733Y0071571D01*
X0106157Y0071571D01*
X0106157Y0071571D01*
X0107733Y0071571D01*
X0107733Y0069602D02*
X0107733Y0069602D01*
X0106157Y0069602D01*
X0106157Y0069602D01*
X0107733Y0069602D01*
X0107733Y0067634D02*
X0107733Y0067634D01*
X0106157Y0067634D01*
X0106157Y0067634D01*
X0107733Y0067634D01*
X0107733Y0065665D02*
X0107733Y0065665D01*
X0106157Y0065665D01*
X0106157Y0065665D01*
X0107733Y0065665D01*
X0107733Y0063697D02*
X0107733Y0063697D01*
X0106157Y0063697D01*
X0106157Y0063697D01*
X0107733Y0063697D01*
X0107733Y0061728D02*
X0107733Y0061728D01*
X0106157Y0061728D01*
X0106157Y0061728D01*
X0107733Y0061728D01*
X0107733Y0059760D02*
X0107733Y0059760D01*
X0106157Y0059760D01*
X0106157Y0059760D01*
X0107733Y0059760D01*
X0107733Y0057791D02*
X0107733Y0057791D01*
X0106157Y0057791D01*
X0106157Y0057791D01*
X0107733Y0057791D01*
X0107733Y0055823D02*
X0107733Y0055823D01*
X0106157Y0055823D01*
X0106157Y0055823D01*
X0107733Y0055823D01*
X0107733Y0053854D02*
X0107733Y0053854D01*
X0106157Y0053854D01*
X0106157Y0053854D01*
X0107733Y0053854D01*
X0107733Y0051886D02*
X0107733Y0051886D01*
X0106157Y0051886D01*
X0106157Y0051886D01*
X0107733Y0051886D01*
X0107733Y0049917D02*
X0107733Y0049917D01*
X0106157Y0049917D01*
X0106157Y0049917D01*
X0107733Y0049917D01*
X0109307Y0048343D02*
X0109307Y0048343D01*
X0109307Y0046767D01*
X0109307Y0046767D01*
X0109307Y0048343D01*
X0109307Y0047947D02*
X0109307Y0047947D01*
X0111276Y0048343D02*
X0111276Y0048343D01*
X0111276Y0046767D01*
X0111276Y0046767D01*
X0111276Y0048343D01*
X0111276Y0047947D02*
X0111276Y0047947D01*
X0113244Y0048343D02*
X0113244Y0048343D01*
X0113244Y0046767D01*
X0113244Y0046767D01*
X0113244Y0048343D01*
X0113244Y0047947D02*
X0113244Y0047947D01*
X0115213Y0048343D02*
X0115213Y0048343D01*
X0115213Y0046767D01*
X0115213Y0046767D01*
X0115213Y0048343D01*
X0115213Y0047947D02*
X0115213Y0047947D01*
X0117181Y0048343D02*
X0117181Y0048343D01*
X0117181Y0046767D01*
X0117181Y0046767D01*
X0117181Y0048343D01*
X0117181Y0047947D02*
X0117181Y0047947D01*
X0119150Y0048343D02*
X0119150Y0048343D01*
X0119150Y0046767D01*
X0119150Y0046767D01*
X0119150Y0048343D01*
X0119150Y0047947D02*
X0119150Y0047947D01*
X0121118Y0048343D02*
X0121118Y0048343D01*
X0121118Y0046767D01*
X0121118Y0046767D01*
X0121118Y0048343D01*
X0121118Y0047947D02*
X0121118Y0047947D01*
X0123087Y0048343D02*
X0123087Y0048343D01*
X0123087Y0046767D01*
X0123087Y0046767D01*
X0123087Y0048343D01*
X0123087Y0047947D02*
X0123087Y0047947D01*
X0125055Y0048343D02*
X0125055Y0048343D01*
X0125055Y0046767D01*
X0125055Y0046767D01*
X0125055Y0048343D01*
X0125055Y0047947D02*
X0125055Y0047947D01*
X0127024Y0048343D02*
X0127024Y0048343D01*
X0127024Y0046767D01*
X0127024Y0046767D01*
X0127024Y0048343D01*
X0127024Y0047947D02*
X0127024Y0047947D01*
X0128992Y0048343D02*
X0128992Y0048343D01*
X0128992Y0046767D01*
X0128992Y0046767D01*
X0128992Y0048343D01*
X0128992Y0047947D02*
X0128992Y0047947D01*
X0130961Y0048343D02*
X0130961Y0048343D01*
X0130961Y0046767D01*
X0130961Y0046767D01*
X0130961Y0048343D01*
X0130961Y0047947D02*
X0130961Y0047947D01*
X0132535Y0049917D02*
X0132535Y0049917D01*
X0134111Y0049917D01*
X0134111Y0049917D01*
X0132535Y0049917D01*
X0132535Y0051886D02*
X0132535Y0051886D01*
X0134111Y0051886D01*
X0134111Y0051886D01*
X0132535Y0051886D01*
X0132535Y0053854D02*
X0132535Y0053854D01*
X0134111Y0053854D01*
X0134111Y0053854D01*
X0132535Y0053854D01*
X0132535Y0055823D02*
X0132535Y0055823D01*
X0134111Y0055823D01*
X0134111Y0055823D01*
X0132535Y0055823D01*
X0132535Y0057791D02*
X0132535Y0057791D01*
X0134111Y0057791D01*
X0134111Y0057791D01*
X0132535Y0057791D01*
X0132535Y0059760D02*
X0132535Y0059760D01*
X0134111Y0059760D01*
X0134111Y0059760D01*
X0132535Y0059760D01*
X0132535Y0061728D02*
X0132535Y0061728D01*
X0134111Y0061728D01*
X0134111Y0061728D01*
X0132535Y0061728D01*
X0132535Y0063697D02*
X0132535Y0063697D01*
X0134111Y0063697D01*
X0134111Y0063697D01*
X0132535Y0063697D01*
X0132535Y0065665D02*
X0132535Y0065665D01*
X0134111Y0065665D01*
X0134111Y0065665D01*
X0132535Y0065665D01*
X0132535Y0067634D02*
X0132535Y0067634D01*
X0134111Y0067634D01*
X0134111Y0067634D01*
X0132535Y0067634D01*
X0132535Y0069602D02*
X0132535Y0069602D01*
X0134111Y0069602D01*
X0134111Y0069602D01*
X0132535Y0069602D01*
X0132535Y0071571D02*
X0132535Y0071571D01*
X0134111Y0071571D01*
X0134111Y0071571D01*
X0132535Y0071571D01*
X0130961Y0073145D02*
X0130961Y0073145D01*
X0130961Y0074721D01*
X0130961Y0074721D01*
X0130961Y0073145D01*
X0130961Y0074325D02*
X0130961Y0074325D01*
X0128992Y0073145D02*
X0128992Y0073145D01*
X0128992Y0074721D01*
X0128992Y0074721D01*
X0128992Y0073145D01*
X0128992Y0074325D02*
X0128992Y0074325D01*
X0127024Y0073145D02*
X0127024Y0073145D01*
X0127024Y0074721D01*
X0127024Y0074721D01*
X0127024Y0073145D01*
X0127024Y0074325D02*
X0127024Y0074325D01*
X0125055Y0073145D02*
X0125055Y0073145D01*
X0125055Y0074721D01*
X0125055Y0074721D01*
X0125055Y0073145D01*
X0125055Y0074325D02*
X0125055Y0074325D01*
X0123087Y0074721D02*
X0123087Y0074721D01*
X0123087Y0073145D01*
X0123087Y0073145D01*
X0123087Y0074721D01*
X0123087Y0074325D02*
X0123087Y0074325D01*
D20*
X0182230Y0168688D03*
X0009789Y0169082D03*
D21*
X0101665Y0086606D03*
X0101665Y0080307D03*
X0110327Y0080307D03*
X0110327Y0086606D03*
D22*
X0056517Y0082345D03*
D23*
X0144629Y0077810D03*
X0147188Y0077810D03*
X0149747Y0077810D03*
X0152306Y0077810D03*
X0152306Y0101195D03*
X0149747Y0101195D03*
X0147188Y0101195D03*
X0144629Y0101195D03*
D24*
X0138291Y0097789D03*
X0129629Y0097789D03*
D25*
X0160109Y0093815D03*
X0160109Y0086728D03*
X0177486Y0088416D03*
X0177486Y0095503D03*
D26*
X0179388Y0124946D03*
D27*
X0179388Y0111639D03*
D28*
X0175550Y0112919D02*
X0175550Y0120793D01*
X0183227Y0120793D01*
X0183227Y0112919D01*
X0175550Y0112919D01*
X0175550Y0113316D02*
X0183227Y0113316D01*
X0183227Y0113814D02*
X0175550Y0113814D01*
X0175550Y0114313D02*
X0183227Y0114313D01*
X0183227Y0114811D02*
X0175550Y0114811D01*
X0175550Y0115310D02*
X0183227Y0115310D01*
X0183227Y0115808D02*
X0175550Y0115808D01*
X0175550Y0116307D02*
X0183227Y0116307D01*
X0183227Y0116805D02*
X0175550Y0116805D01*
X0175550Y0117304D02*
X0183227Y0117304D01*
X0183227Y0117802D02*
X0175550Y0117802D01*
X0175550Y0118301D02*
X0183227Y0118301D01*
X0183227Y0118799D02*
X0175550Y0118799D01*
X0175550Y0119298D02*
X0183227Y0119298D01*
X0183227Y0119796D02*
X0175550Y0119796D01*
X0175550Y0120295D02*
X0183227Y0120295D01*
D29*
X0096595Y0019104D03*
X0094036Y0019104D03*
X0091477Y0019104D03*
X0091477Y0011624D03*
X0094036Y0011624D03*
X0096595Y0011624D03*
D30*
X0129777Y0015706D03*
X0129777Y0018265D03*
X0129777Y0020825D03*
X0137258Y0020825D03*
X0137258Y0018265D03*
X0137258Y0015706D03*
D31*
X0079725Y0082784D03*
X0079725Y0089477D03*
X0070000Y0089503D03*
X0070000Y0096196D03*
X0061800Y0096196D03*
X0061800Y0089503D03*
D32*
X0090880Y0098238D03*
D33*
X0088124Y0099912D03*
X0093636Y0099912D03*
D34*
X0090880Y0102471D03*
D35*
X0173407Y0080968D03*
X0173407Y0075968D03*
X0173407Y0070968D03*
X0173407Y0065968D03*
X0173407Y0060968D03*
X0192407Y0060968D03*
X0192407Y0065968D03*
X0192407Y0070968D03*
X0192407Y0075968D03*
X0192407Y0080968D03*
M02*
