G75*
%MOIN*%
%OFA0B0*%
%FSLAX25Y25*%
%IPPOS*%
%LPD*%
%AMOC8*
5,1,8,0,0,1.08239X$1,22.5*
%
%ADD10R,0.07087X0.03937*%
%ADD11R,0.00984X0.01772*%
%ADD12R,0.02756X0.03543*%
%ADD13R,0.03543X0.02756*%
%ADD14R,0.01772X0.01063*%
%ADD15R,0.01063X0.01772*%
%ADD16R,0.04331X0.03937*%
%ADD17R,0.03150X0.03150*%
%ADD18R,0.20276X0.20276*%
%ADD19C,0.01181*%
%ADD20R,0.07087X0.48425*%
%ADD21R,0.05512X0.04528*%
%ADD22R,0.03937X0.03937*%
%ADD23C,0.02978*%
%ADD24R,0.01654X0.07008*%
%ADD25R,0.03150X0.10630*%
%ADD26R,0.04724X0.03150*%
%ADD27C,0.05906*%
%ADD28R,0.02559X0.03346*%
%ADD29R,0.03740X0.02559*%
%ADD30C,0.00500*%
%ADD31R,0.01654X0.02362*%
%ADD32R,0.02362X0.01654*%
%ADD33R,0.03937X0.04331*%
%ADD34R,0.01575X0.03346*%
%ADD35R,0.01575X0.06693*%
%ADD36R,0.01575X0.01575*%
%ADD37C,0.07400*%
%ADD38R,0.05000X0.02000*%
%ADD39C,0.00600*%
%ADD40C,0.01000*%
%ADD41C,0.02178*%
%ADD42C,0.00787*%
%ADD43C,0.02400*%
%ADD44C,0.01200*%
%ADD45C,0.04000*%
%ADD46C,0.03200*%
%ADD47C,0.01600*%
D10*
X0065606Y0059917D03*
X0065606Y0069760D03*
D11*
X0098913Y0068893D03*
X0100882Y0068893D03*
X0102850Y0068893D03*
X0102850Y0072043D03*
X0100882Y0072043D03*
X0098913Y0072043D03*
D12*
X0078559Y0069838D03*
X0073441Y0069838D03*
X0076787Y0049720D03*
X0076748Y0044602D03*
X0081866Y0044602D03*
X0081906Y0049720D03*
X0069780Y0044563D03*
X0064661Y0044563D03*
X0086709Y0036059D03*
X0091827Y0036059D03*
X0099071Y0035941D03*
X0104189Y0035941D03*
X0101118Y0046019D03*
X0101000Y0050783D03*
X0095882Y0050783D03*
X0096000Y0046019D03*
X0110286Y0024961D03*
X0110169Y0020698D03*
X0110286Y0016027D03*
X0115288Y0020698D03*
X0115404Y0024961D03*
X0105168Y0016027D03*
X0103214Y0011771D03*
X0108333Y0011771D03*
X0131046Y0042142D03*
X0136165Y0042142D03*
X0147308Y0064811D03*
X0147218Y0069125D03*
X0152336Y0069125D03*
X0152426Y0064811D03*
D13*
X0134767Y0077600D03*
X0134767Y0082718D03*
X0123575Y0092837D03*
X0119267Y0092776D03*
X0115058Y0092791D03*
X0115058Y0097910D03*
X0119267Y0097894D03*
X0123575Y0097955D03*
X0094668Y0074048D03*
X0094668Y0068929D03*
X0073087Y0063657D03*
X0073087Y0058539D03*
D14*
X0074327Y0022653D03*
X0074327Y0020960D03*
X0074327Y0019267D03*
X0074327Y0017575D03*
X0074327Y0015882D03*
X0074327Y0014189D03*
X0074327Y0012496D03*
X0074327Y0010803D03*
X0064681Y0010803D03*
X0064681Y0012496D03*
X0064681Y0014189D03*
X0064681Y0015882D03*
X0064681Y0017575D03*
X0064681Y0019267D03*
X0064681Y0020960D03*
X0064681Y0022653D03*
D15*
X0066965Y0022535D03*
X0068657Y0022535D03*
X0070350Y0022535D03*
X0072043Y0022535D03*
X0072043Y0010921D03*
X0070350Y0010921D03*
X0068657Y0010921D03*
X0066965Y0010921D03*
D16*
X0083282Y0075911D03*
X0089975Y0075911D03*
X0069683Y0082683D03*
X0062990Y0082683D03*
X0123071Y0085417D03*
X0129764Y0085417D03*
D17*
X0139269Y0083116D03*
X0139269Y0077211D03*
X0095417Y0041123D03*
X0089511Y0041123D03*
X0089504Y0045389D03*
X0089504Y0051295D03*
D18*
X0120134Y0060744D03*
D19*
X0121118Y0074721D02*
X0121118Y0074721D01*
X0121118Y0073145D01*
X0121118Y0073145D01*
X0121118Y0074721D01*
X0121118Y0074325D02*
X0121118Y0074325D01*
X0119150Y0074721D02*
X0119150Y0074721D01*
X0119150Y0073145D01*
X0119150Y0073145D01*
X0119150Y0074721D01*
X0119150Y0074325D02*
X0119150Y0074325D01*
X0117181Y0074721D02*
X0117181Y0074721D01*
X0117181Y0073145D01*
X0117181Y0073145D01*
X0117181Y0074721D01*
X0117181Y0074325D02*
X0117181Y0074325D01*
X0115213Y0073145D02*
X0115213Y0073145D01*
X0115213Y0074721D01*
X0115213Y0074721D01*
X0115213Y0073145D01*
X0115213Y0074325D02*
X0115213Y0074325D01*
X0113244Y0073145D02*
X0113244Y0073145D01*
X0113244Y0074721D01*
X0113244Y0074721D01*
X0113244Y0073145D01*
X0113244Y0074325D02*
X0113244Y0074325D01*
X0111276Y0073145D02*
X0111276Y0073145D01*
X0111276Y0074721D01*
X0111276Y0074721D01*
X0111276Y0073145D01*
X0111276Y0074325D02*
X0111276Y0074325D01*
X0109307Y0073145D02*
X0109307Y0073145D01*
X0109307Y0074721D01*
X0109307Y0074721D01*
X0109307Y0073145D01*
X0109307Y0074325D02*
X0109307Y0074325D01*
X0107733Y0071571D02*
X0107733Y0071571D01*
X0106157Y0071571D01*
X0106157Y0071571D01*
X0107733Y0071571D01*
X0107733Y0069602D02*
X0107733Y0069602D01*
X0106157Y0069602D01*
X0106157Y0069602D01*
X0107733Y0069602D01*
X0107733Y0067634D02*
X0107733Y0067634D01*
X0106157Y0067634D01*
X0106157Y0067634D01*
X0107733Y0067634D01*
X0107733Y0065665D02*
X0107733Y0065665D01*
X0106157Y0065665D01*
X0106157Y0065665D01*
X0107733Y0065665D01*
X0107733Y0063697D02*
X0107733Y0063697D01*
X0106157Y0063697D01*
X0106157Y0063697D01*
X0107733Y0063697D01*
X0107733Y0061728D02*
X0107733Y0061728D01*
X0106157Y0061728D01*
X0106157Y0061728D01*
X0107733Y0061728D01*
X0107733Y0059760D02*
X0107733Y0059760D01*
X0106157Y0059760D01*
X0106157Y0059760D01*
X0107733Y0059760D01*
X0107733Y0057791D02*
X0107733Y0057791D01*
X0106157Y0057791D01*
X0106157Y0057791D01*
X0107733Y0057791D01*
X0107733Y0055823D02*
X0107733Y0055823D01*
X0106157Y0055823D01*
X0106157Y0055823D01*
X0107733Y0055823D01*
X0107733Y0053854D02*
X0107733Y0053854D01*
X0106157Y0053854D01*
X0106157Y0053854D01*
X0107733Y0053854D01*
X0107733Y0051886D02*
X0107733Y0051886D01*
X0106157Y0051886D01*
X0106157Y0051886D01*
X0107733Y0051886D01*
X0107733Y0049917D02*
X0107733Y0049917D01*
X0106157Y0049917D01*
X0106157Y0049917D01*
X0107733Y0049917D01*
X0109307Y0048343D02*
X0109307Y0048343D01*
X0109307Y0046767D01*
X0109307Y0046767D01*
X0109307Y0048343D01*
X0109307Y0047947D02*
X0109307Y0047947D01*
X0111276Y0048343D02*
X0111276Y0048343D01*
X0111276Y0046767D01*
X0111276Y0046767D01*
X0111276Y0048343D01*
X0111276Y0047947D02*
X0111276Y0047947D01*
X0113244Y0048343D02*
X0113244Y0048343D01*
X0113244Y0046767D01*
X0113244Y0046767D01*
X0113244Y0048343D01*
X0113244Y0047947D02*
X0113244Y0047947D01*
X0115213Y0048343D02*
X0115213Y0048343D01*
X0115213Y0046767D01*
X0115213Y0046767D01*
X0115213Y0048343D01*
X0115213Y0047947D02*
X0115213Y0047947D01*
X0117181Y0048343D02*
X0117181Y0048343D01*
X0117181Y0046767D01*
X0117181Y0046767D01*
X0117181Y0048343D01*
X0117181Y0047947D02*
X0117181Y0047947D01*
X0119150Y0048343D02*
X0119150Y0048343D01*
X0119150Y0046767D01*
X0119150Y0046767D01*
X0119150Y0048343D01*
X0119150Y0047947D02*
X0119150Y0047947D01*
X0121118Y0048343D02*
X0121118Y0048343D01*
X0121118Y0046767D01*
X0121118Y0046767D01*
X0121118Y0048343D01*
X0121118Y0047947D02*
X0121118Y0047947D01*
X0123087Y0048343D02*
X0123087Y0048343D01*
X0123087Y0046767D01*
X0123087Y0046767D01*
X0123087Y0048343D01*
X0123087Y0047947D02*
X0123087Y0047947D01*
X0125055Y0048343D02*
X0125055Y0048343D01*
X0125055Y0046767D01*
X0125055Y0046767D01*
X0125055Y0048343D01*
X0125055Y0047947D02*
X0125055Y0047947D01*
X0127024Y0048343D02*
X0127024Y0048343D01*
X0127024Y0046767D01*
X0127024Y0046767D01*
X0127024Y0048343D01*
X0127024Y0047947D02*
X0127024Y0047947D01*
X0128992Y0048343D02*
X0128992Y0048343D01*
X0128992Y0046767D01*
X0128992Y0046767D01*
X0128992Y0048343D01*
X0128992Y0047947D02*
X0128992Y0047947D01*
X0130961Y0048343D02*
X0130961Y0048343D01*
X0130961Y0046767D01*
X0130961Y0046767D01*
X0130961Y0048343D01*
X0130961Y0047947D02*
X0130961Y0047947D01*
X0132535Y0049917D02*
X0132535Y0049917D01*
X0134111Y0049917D01*
X0134111Y0049917D01*
X0132535Y0049917D01*
X0132535Y0051886D02*
X0132535Y0051886D01*
X0134111Y0051886D01*
X0134111Y0051886D01*
X0132535Y0051886D01*
X0132535Y0053854D02*
X0132535Y0053854D01*
X0134111Y0053854D01*
X0134111Y0053854D01*
X0132535Y0053854D01*
X0132535Y0055823D02*
X0132535Y0055823D01*
X0134111Y0055823D01*
X0134111Y0055823D01*
X0132535Y0055823D01*
X0132535Y0057791D02*
X0132535Y0057791D01*
X0134111Y0057791D01*
X0134111Y0057791D01*
X0132535Y0057791D01*
X0132535Y0059760D02*
X0132535Y0059760D01*
X0134111Y0059760D01*
X0134111Y0059760D01*
X0132535Y0059760D01*
X0132535Y0061728D02*
X0132535Y0061728D01*
X0134111Y0061728D01*
X0134111Y0061728D01*
X0132535Y0061728D01*
X0132535Y0063697D02*
X0132535Y0063697D01*
X0134111Y0063697D01*
X0134111Y0063697D01*
X0132535Y0063697D01*
X0132535Y0065665D02*
X0132535Y0065665D01*
X0134111Y0065665D01*
X0134111Y0065665D01*
X0132535Y0065665D01*
X0132535Y0067634D02*
X0132535Y0067634D01*
X0134111Y0067634D01*
X0134111Y0067634D01*
X0132535Y0067634D01*
X0132535Y0069602D02*
X0132535Y0069602D01*
X0134111Y0069602D01*
X0134111Y0069602D01*
X0132535Y0069602D01*
X0132535Y0071571D02*
X0132535Y0071571D01*
X0134111Y0071571D01*
X0134111Y0071571D01*
X0132535Y0071571D01*
X0130961Y0073145D02*
X0130961Y0073145D01*
X0130961Y0074721D01*
X0130961Y0074721D01*
X0130961Y0073145D01*
X0130961Y0074325D02*
X0130961Y0074325D01*
X0128992Y0073145D02*
X0128992Y0073145D01*
X0128992Y0074721D01*
X0128992Y0074721D01*
X0128992Y0073145D01*
X0128992Y0074325D02*
X0128992Y0074325D01*
X0127024Y0073145D02*
X0127024Y0073145D01*
X0127024Y0074721D01*
X0127024Y0074721D01*
X0127024Y0073145D01*
X0127024Y0074325D02*
X0127024Y0074325D01*
X0125055Y0073145D02*
X0125055Y0073145D01*
X0125055Y0074721D01*
X0125055Y0074721D01*
X0125055Y0073145D01*
X0125055Y0074325D02*
X0125055Y0074325D01*
X0123087Y0074721D02*
X0123087Y0074721D01*
X0123087Y0073145D01*
X0123087Y0073145D01*
X0123087Y0074721D01*
X0123087Y0074325D02*
X0123087Y0074325D01*
D20*
X0171886Y0169088D03*
X0006532Y0169482D03*
D21*
X0101665Y0086606D03*
X0101665Y0080307D03*
X0110327Y0080307D03*
X0110327Y0086606D03*
D22*
X0056517Y0082345D03*
D23*
X0007304Y0011479D03*
X0007304Y0019353D03*
X0007304Y0027227D03*
X0007304Y0035101D03*
X0007304Y0042975D03*
X0007304Y0050849D03*
X0007304Y0058723D03*
X0007304Y0066597D03*
X0007304Y0074471D03*
X0007304Y0082345D03*
X0030926Y0074471D03*
X0030926Y0066597D03*
X0030926Y0058723D03*
X0030926Y0050849D03*
X0030926Y0042975D03*
X0030926Y0035101D03*
X0030926Y0027227D03*
X0030926Y0019353D03*
X0030926Y0011479D03*
D24*
X0144629Y0077810D03*
X0147188Y0077810D03*
X0149747Y0077810D03*
X0152306Y0077810D03*
X0152306Y0101195D03*
X0149747Y0101195D03*
X0147188Y0101195D03*
X0144629Y0101195D03*
D25*
X0138291Y0097789D03*
X0129629Y0097789D03*
D26*
X0160109Y0093815D03*
X0160109Y0086728D03*
X0177486Y0088416D03*
X0177486Y0095503D03*
D27*
X0190496Y0095969D03*
X0190496Y0127465D03*
D28*
X0190788Y0153946D03*
D29*
X0190788Y0140639D03*
D30*
X0186950Y0141919D02*
X0186950Y0149793D01*
X0194627Y0149793D01*
X0194627Y0141919D01*
X0186950Y0141919D01*
X0186950Y0142230D02*
X0194627Y0142230D01*
X0194627Y0142728D02*
X0186950Y0142728D01*
X0186950Y0143227D02*
X0194627Y0143227D01*
X0194627Y0143725D02*
X0186950Y0143725D01*
X0186950Y0144224D02*
X0194627Y0144224D01*
X0194627Y0144722D02*
X0186950Y0144722D01*
X0186950Y0145221D02*
X0194627Y0145221D01*
X0194627Y0145719D02*
X0186950Y0145719D01*
X0186950Y0146218D02*
X0194627Y0146218D01*
X0194627Y0146716D02*
X0186950Y0146716D01*
X0186950Y0147215D02*
X0194627Y0147215D01*
X0194627Y0147713D02*
X0186950Y0147713D01*
X0186950Y0148212D02*
X0194627Y0148212D01*
X0194627Y0148710D02*
X0186950Y0148710D01*
X0186950Y0149209D02*
X0194627Y0149209D01*
X0194627Y0149707D02*
X0186950Y0149707D01*
D31*
X0096595Y0019104D03*
X0094036Y0019104D03*
X0091477Y0019104D03*
X0091477Y0011624D03*
X0094036Y0011624D03*
X0096595Y0011624D03*
D32*
X0129777Y0015706D03*
X0129777Y0018265D03*
X0129777Y0020825D03*
X0137258Y0020825D03*
X0137258Y0018265D03*
X0137258Y0015706D03*
D33*
X0079725Y0082784D03*
X0079725Y0089477D03*
X0070000Y0089503D03*
X0070000Y0096196D03*
X0061800Y0096196D03*
X0061800Y0089503D03*
D34*
X0090880Y0098238D03*
D35*
X0088124Y0099912D03*
X0093636Y0099912D03*
D36*
X0090880Y0102471D03*
D37*
X0087033Y0123507D03*
X0097033Y0123507D03*
X0107033Y0123507D03*
X0117033Y0123507D03*
X0127033Y0123507D03*
X0137033Y0123507D03*
X0147033Y0123507D03*
X0157033Y0123507D03*
X0167033Y0123507D03*
X0167206Y0134290D03*
X0157206Y0134290D03*
X0077033Y0123507D03*
X0067033Y0123507D03*
X0057033Y0123507D03*
X0047033Y0123507D03*
X0037033Y0123507D03*
D38*
X0173407Y0080968D03*
X0173407Y0075968D03*
X0173407Y0070968D03*
X0173407Y0065968D03*
X0173407Y0060968D03*
X0192407Y0060968D03*
X0192407Y0065968D03*
X0192407Y0070968D03*
X0192407Y0075968D03*
X0192407Y0080968D03*
D39*
X0177486Y0088416D02*
X0166628Y0088416D01*
X0166513Y0088301D01*
X0160109Y0086728D02*
X0160053Y0086672D01*
X0168570Y0080901D02*
X0165497Y0077828D01*
X0165497Y0072136D01*
X0164501Y0071140D01*
X0158207Y0064846D01*
X0152439Y0064824D01*
X0152426Y0064811D01*
X0150784Y0066453D01*
X0150586Y0066453D01*
X0147914Y0069125D01*
X0147218Y0069125D01*
X0146741Y0069602D01*
X0133323Y0069602D01*
X0133323Y0067634D02*
X0144288Y0067634D01*
X0145468Y0066453D01*
X0145665Y0066453D01*
X0147308Y0064811D01*
X0147308Y0061957D01*
X0150143Y0059122D01*
X0151778Y0053822D02*
X0167361Y0069404D01*
X0167361Y0072991D01*
X0170337Y0075968D01*
X0173407Y0075968D01*
X0173340Y0080901D02*
X0173407Y0080968D01*
X0173340Y0080901D02*
X0168570Y0080901D01*
X0171377Y0070968D02*
X0173407Y0070968D01*
X0171377Y0070968D02*
X0152295Y0051886D01*
X0133323Y0051886D01*
X0133323Y0053854D02*
X0151778Y0053822D01*
X0153057Y0049949D02*
X0169075Y0065968D01*
X0173407Y0065968D01*
X0173407Y0060968D02*
X0173389Y0060950D01*
X0168721Y0060950D01*
X0155326Y0047555D01*
X0130961Y0047555D01*
X0128992Y0047555D02*
X0128992Y0044196D01*
X0131046Y0042142D01*
X0127024Y0047555D02*
X0127002Y0035628D01*
X0125767Y0034842D01*
X0125767Y0024835D01*
X0129777Y0020825D01*
X0130710Y0019892D01*
X0131290Y0019892D01*
X0131759Y0019424D01*
X0131759Y0014548D01*
X0131290Y0014080D01*
X0130405Y0014080D01*
X0128078Y0011753D01*
X0125293Y0014112D02*
X0125289Y0014116D01*
X0125289Y0016949D01*
X0126606Y0018265D01*
X0129777Y0018265D01*
X0137258Y0020825D02*
X0137258Y0030034D01*
X0125055Y0038214D02*
X0125055Y0047555D01*
X0123087Y0047555D02*
X0123087Y0013039D01*
X0116783Y0006735D01*
X0062665Y0006735D01*
X0060495Y0008904D01*
X0060495Y0014386D01*
X0063468Y0017576D01*
X0064465Y0017576D01*
X0064681Y0017575D01*
X0064681Y0019267D02*
X0064235Y0019714D01*
X0063433Y0019714D01*
X0063198Y0019948D01*
X0063198Y0021641D01*
X0063198Y0021972D01*
X0063433Y0022207D01*
X0064235Y0022207D01*
X0064681Y0022653D01*
X0064681Y0024051D01*
X0066054Y0024051D01*
X0066518Y0023587D01*
X0066518Y0022982D01*
X0066965Y0022535D01*
X0068657Y0022535D02*
X0068657Y0039752D01*
X0069441Y0040536D01*
X0070350Y0038047D02*
X0072698Y0040395D01*
X0072698Y0044488D01*
X0072852Y0044641D01*
X0076787Y0044641D01*
X0079026Y0046841D02*
X0079026Y0042109D01*
X0076341Y0039424D01*
X0078446Y0039424D01*
X0080796Y0037074D01*
X0080796Y0035414D01*
X0077559Y0036762D02*
X0074327Y0033611D01*
X0074327Y0022653D01*
X0074327Y0020960D02*
X0081807Y0020960D01*
X0086866Y0026019D01*
X0086787Y0035980D01*
X0086709Y0036059D01*
X0089511Y0041123D02*
X0089504Y0041131D01*
X0089504Y0045389D01*
X0087029Y0049765D02*
X0081866Y0044602D01*
X0081866Y0041571D01*
X0081097Y0040479D01*
X0076341Y0039424D02*
X0072043Y0035126D01*
X0072043Y0022535D01*
X0070350Y0022535D02*
X0070350Y0038047D01*
X0069780Y0044563D02*
X0069858Y0044641D01*
X0072852Y0044641D01*
X0069780Y0044563D02*
X0069780Y0046673D01*
X0071519Y0048412D01*
X0067890Y0051098D02*
X0072746Y0056261D01*
X0075231Y0056261D01*
X0080698Y0061728D01*
X0106945Y0061728D01*
X0106945Y0059760D02*
X0080921Y0059760D01*
X0074937Y0053775D01*
X0074150Y0053618D01*
X0078756Y0053657D02*
X0082884Y0057786D01*
X0106979Y0057786D01*
X0106945Y0057791D01*
X0106945Y0055823D02*
X0082618Y0055823D01*
X0081906Y0055110D01*
X0081906Y0049720D01*
X0079026Y0046841D01*
X0087029Y0049765D02*
X0087029Y0053243D01*
X0087641Y0053854D01*
X0106945Y0053854D01*
X0106945Y0051886D02*
X0101000Y0051886D01*
X0101000Y0050783D01*
X0101118Y0046019D02*
X0103047Y0046019D01*
X0106945Y0049917D01*
X0109307Y0047555D02*
X0109307Y0033933D01*
X0106778Y0031239D01*
X0104453Y0028582D02*
X0097942Y0028621D01*
X0091509Y0022623D01*
X0091477Y0022590D01*
X0091477Y0019104D01*
X0094036Y0019104D02*
X0094036Y0023367D01*
X0095629Y0024961D01*
X0110286Y0024961D01*
X0110169Y0020698D02*
X0101328Y0020698D01*
X0094036Y0013406D01*
X0094036Y0011624D01*
X0096595Y0011624D02*
X0103068Y0011624D01*
X0103214Y0011771D01*
X0103214Y0014073D01*
X0105168Y0016027D01*
X0110286Y0016027D02*
X0113150Y0016027D01*
X0115039Y0014138D01*
X0113589Y0011771D02*
X0108333Y0011771D01*
X0115789Y0009135D02*
X0063659Y0009135D01*
X0062895Y0009899D01*
X0062895Y0011707D01*
X0063432Y0012497D01*
X0064429Y0012497D01*
X0064681Y0012496D01*
X0064681Y0014189D02*
X0064338Y0014199D01*
X0063337Y0014199D01*
X0061695Y0012204D01*
X0061695Y0009402D01*
X0063162Y0007935D01*
X0116286Y0007935D01*
X0121118Y0012767D01*
X0121118Y0047555D01*
X0119150Y0047555D02*
X0119150Y0012496D01*
X0115789Y0009135D01*
X0115288Y0020698D02*
X0115404Y0020815D01*
X0115404Y0024961D01*
X0111068Y0029297D01*
X0111068Y0030994D01*
X0111276Y0037583D02*
X0111276Y0047555D01*
X0113244Y0047555D02*
X0113244Y0043823D01*
X0115190Y0041877D01*
X0115190Y0037938D01*
X0117079Y0035103D02*
X0117079Y0041543D01*
X0115213Y0043410D01*
X0115213Y0047555D01*
X0104189Y0035941D02*
X0082083Y0015882D01*
X0074327Y0015882D01*
X0074588Y0014450D02*
X0082723Y0014430D01*
X0091509Y0022623D01*
X0088070Y0023482D02*
X0088070Y0025526D01*
X0088070Y0028924D01*
X0089596Y0030450D01*
X0093669Y0030441D02*
X0095278Y0032513D01*
X0095278Y0035941D01*
X0091945Y0035941D02*
X0091827Y0036059D01*
X0095417Y0041123D02*
X0096000Y0041531D01*
X0096000Y0046019D01*
X0095882Y0050783D02*
X0095882Y0051295D01*
X0089504Y0051295D01*
X0077614Y0065665D02*
X0073441Y0069838D01*
X0065685Y0069838D01*
X0065606Y0069760D01*
X0067343Y0074424D02*
X0073973Y0074424D01*
X0078559Y0069838D01*
X0077614Y0065665D02*
X0106945Y0065665D01*
X0106945Y0063697D02*
X0073126Y0063697D01*
X0069386Y0063697D01*
X0065606Y0059917D01*
X0069522Y0057049D02*
X0071013Y0058539D01*
X0073087Y0058539D01*
X0069551Y0057080D02*
X0067915Y0055399D01*
X0069522Y0057049D02*
X0069551Y0057080D01*
X0073087Y0063657D02*
X0073126Y0063697D01*
X0064661Y0044563D02*
X0064642Y0044543D01*
X0064681Y0024051D01*
X0064235Y0021407D02*
X0063433Y0021407D01*
X0063198Y0021641D01*
X0064235Y0021407D02*
X0064681Y0020960D01*
X0067645Y0012404D02*
X0067411Y0012169D01*
X0067411Y0011367D01*
X0066965Y0010921D01*
X0068211Y0011367D02*
X0068211Y0012169D01*
X0067977Y0012404D01*
X0067645Y0012404D01*
X0068211Y0011367D02*
X0068657Y0010921D01*
X0069104Y0011367D01*
X0069104Y0012169D01*
X0069338Y0012404D01*
X0069670Y0012404D01*
X0069904Y0012169D01*
X0069904Y0011367D01*
X0070350Y0010921D01*
X0070797Y0011367D01*
X0070797Y0012169D01*
X0071031Y0012404D01*
X0071363Y0012404D01*
X0071597Y0012169D01*
X0071597Y0011367D01*
X0072043Y0010921D01*
X0072490Y0011367D01*
X0072490Y0012169D01*
X0072724Y0012404D01*
X0074235Y0012404D01*
X0074327Y0012496D01*
X0073880Y0012942D01*
X0073275Y0012942D01*
X0073041Y0013177D01*
X0073041Y0013508D01*
X0073275Y0013742D01*
X0073880Y0013742D01*
X0074327Y0014189D01*
X0074588Y0014450D01*
X0074327Y0012496D02*
X0074773Y0012049D01*
X0075575Y0012049D01*
X0075809Y0011815D01*
X0075809Y0011484D01*
X0075575Y0011249D01*
X0074773Y0011249D01*
X0074327Y0010803D01*
X0074327Y0017575D02*
X0082163Y0017575D01*
X0088070Y0023482D01*
X0087373Y0024823D02*
X0087718Y0025174D01*
X0088070Y0025526D01*
X0087373Y0024823D02*
X0087367Y0024823D01*
X0081811Y0019267D01*
X0074327Y0019267D01*
X0083316Y0011624D02*
X0091477Y0011624D01*
X0091477Y0013406D01*
X0095662Y0017592D01*
X0095662Y0018172D01*
X0096595Y0019104D01*
X0133323Y0049917D02*
X0153057Y0049949D01*
X0153067Y0043834D02*
X0153086Y0043815D01*
X0139491Y0055823D02*
X0133323Y0055823D01*
X0133323Y0057791D02*
X0136420Y0057869D01*
X0138024Y0060052D02*
X0136348Y0061728D01*
X0133323Y0061728D01*
X0133323Y0063697D02*
X0137606Y0063697D01*
X0141283Y0060330D01*
X0141267Y0064572D02*
X0140174Y0065665D01*
X0133323Y0065665D01*
X0134279Y0065665D01*
X0128992Y0069602D02*
X0120134Y0060744D01*
X0123087Y0063697D01*
X0123087Y0073933D02*
X0123087Y0080609D01*
X0124055Y0081578D01*
X0126353Y0079700D02*
X0125055Y0078224D01*
X0125055Y0073933D01*
X0127024Y0073933D02*
X0127024Y0077073D01*
X0128992Y0076943D02*
X0128992Y0073933D01*
X0130961Y0073933D02*
X0132035Y0073933D01*
X0134767Y0077600D01*
X0135345Y0077243D01*
X0139269Y0077211D01*
X0144629Y0077810D02*
X0144703Y0077883D01*
X0139269Y0083116D02*
X0139247Y0087573D01*
X0134979Y0087619D02*
X0131782Y0087615D01*
X0129764Y0085417D01*
X0134767Y0082718D02*
X0128992Y0076943D01*
X0121118Y0079514D02*
X0121118Y0073933D01*
X0119150Y0073933D02*
X0119150Y0081759D01*
X0117181Y0083095D02*
X0118441Y0084355D01*
X0117181Y0083095D02*
X0117181Y0073933D01*
X0115213Y0073933D02*
X0115185Y0084611D01*
X0116948Y0086293D01*
X0122007Y0086349D01*
X0123071Y0085417D01*
X0123071Y0092333D01*
X0123575Y0092837D01*
X0122764Y0092509D01*
X0122497Y0092776D01*
X0119267Y0092776D01*
X0115058Y0097910D01*
X0115340Y0097500D02*
X0111005Y0097500D01*
X0115058Y0097909D02*
X0115111Y0097901D01*
X0115164Y0097889D01*
X0115216Y0097874D01*
X0115266Y0097855D01*
X0115315Y0097832D01*
X0115362Y0097806D01*
X0115408Y0097777D01*
X0115451Y0097744D01*
X0115491Y0097709D01*
X0115529Y0097670D01*
X0115564Y0097629D01*
X0115596Y0097586D01*
X0115625Y0097540D01*
X0115651Y0097493D01*
X0115673Y0097444D01*
X0115692Y0097393D01*
X0115707Y0097341D01*
X0115718Y0097288D01*
X0115725Y0097235D01*
X0115729Y0097181D01*
X0115728Y0097127D01*
X0115724Y0097073D01*
X0115488Y0097351D01*
X0115340Y0097500D01*
X0119267Y0097894D02*
X0122694Y0101966D01*
X0115058Y0092791D02*
X0101820Y0092791D01*
X0101665Y0092946D01*
X0101665Y0094834D01*
X0103559Y0096728D01*
X0101665Y0092946D02*
X0101665Y0086606D01*
X0096455Y0086606D01*
X0094054Y0084205D01*
X0094054Y0079885D01*
X0098913Y0075025D01*
X0098913Y0072043D01*
X0100882Y0072043D01*
X0102850Y0072043D02*
X0106472Y0072043D01*
X0106945Y0071571D01*
X0106945Y0069602D02*
X0106467Y0069124D01*
X0105540Y0069124D01*
X0105309Y0068893D01*
X0102850Y0068893D01*
X0104241Y0067634D02*
X0103715Y0067108D01*
X0101985Y0067108D01*
X0100882Y0068211D01*
X0100882Y0068893D01*
X0098913Y0068893D02*
X0098913Y0068929D01*
X0104241Y0067634D02*
X0106945Y0067634D01*
X0109307Y0073933D02*
X0101703Y0073933D01*
X0096443Y0079193D01*
X0096443Y0083216D01*
X0110327Y0086606D02*
X0110367Y0086566D01*
X0113543Y0086566D01*
X0114026Y0086082D01*
X0114026Y0077165D01*
X0113244Y0076382D01*
X0113244Y0073933D01*
X0122694Y0085457D02*
X0123071Y0085417D01*
X0148056Y0073406D02*
X0148173Y0073288D01*
X0152336Y0069125D02*
X0155190Y0069125D01*
X0157913Y0067329D01*
X0167398Y0095503D02*
X0166428Y0096473D01*
X0167398Y0095503D02*
X0177486Y0095503D01*
D40*
X0177486Y0088416D02*
X0189812Y0088416D01*
X0192407Y0085821D01*
X0192407Y0080968D01*
X0192407Y0070968D02*
X0192407Y0065968D01*
X0166513Y0088301D02*
X0166513Y0091078D01*
X0166513Y0088301D02*
X0164666Y0086742D01*
X0160109Y0086728D01*
X0157896Y0078768D02*
X0153264Y0078768D01*
X0153204Y0078766D01*
X0153144Y0078760D01*
X0153084Y0078751D01*
X0153026Y0078738D01*
X0152968Y0078721D01*
X0152911Y0078701D01*
X0152856Y0078677D01*
X0152802Y0078650D01*
X0152751Y0078619D01*
X0152701Y0078585D01*
X0152653Y0078548D01*
X0152608Y0078508D01*
X0152566Y0078466D01*
X0152526Y0078421D01*
X0152489Y0078373D01*
X0152455Y0078323D01*
X0152424Y0078272D01*
X0152397Y0078218D01*
X0152373Y0078163D01*
X0152353Y0078106D01*
X0152336Y0078048D01*
X0152323Y0077990D01*
X0152314Y0077930D01*
X0152308Y0077870D01*
X0152306Y0077810D01*
X0152306Y0101195D01*
X0140720Y0090233D02*
X0144703Y0086250D01*
X0144703Y0077883D01*
X0147188Y0077810D02*
X0147188Y0074273D01*
X0148173Y0073288D01*
X0152336Y0069125D01*
X0149747Y0077810D02*
X0149747Y0086897D01*
X0138291Y0097789D01*
X0140720Y0090233D02*
X0130619Y0090233D01*
X0129629Y0091223D01*
X0129629Y0097789D01*
X0123575Y0097955D02*
X0122764Y0097627D01*
X0122497Y0097894D01*
X0119267Y0097894D01*
X0110327Y0080307D02*
X0101665Y0086606D01*
X0090878Y0091967D02*
X0090880Y0098238D01*
X0088124Y0099912D02*
X0071675Y0099912D01*
X0068293Y0103293D01*
X0068296Y0103291D02*
X0070000Y0101587D01*
X0070000Y0096196D01*
X0061800Y0096196D01*
X0061800Y0089503D02*
X0061800Y0083872D01*
X0061802Y0083805D01*
X0061807Y0083739D01*
X0061817Y0083673D01*
X0061830Y0083607D01*
X0061847Y0083543D01*
X0061867Y0083479D01*
X0061891Y0083417D01*
X0061918Y0083356D01*
X0061948Y0083296D01*
X0061982Y0083239D01*
X0062019Y0083183D01*
X0062060Y0083130D01*
X0062103Y0083079D01*
X0062149Y0083031D01*
X0062197Y0082985D01*
X0062248Y0082942D01*
X0062301Y0082901D01*
X0062357Y0082864D01*
X0062414Y0082830D01*
X0062474Y0082800D01*
X0062535Y0082773D01*
X0062597Y0082749D01*
X0062661Y0082729D01*
X0062725Y0082712D01*
X0062791Y0082699D01*
X0062857Y0082689D01*
X0062923Y0082684D01*
X0062990Y0082682D01*
X0069683Y0082683D02*
X0070000Y0083000D01*
X0070000Y0089503D01*
X0079725Y0089477D02*
X0088388Y0089477D01*
X0090878Y0091967D01*
X0088124Y0099912D02*
X0088124Y0102471D01*
X0090880Y0102471D01*
X0093636Y0102471D01*
X0093636Y0099912D01*
X0094668Y0068929D02*
X0098913Y0068929D01*
X0076787Y0049720D02*
X0076787Y0044641D01*
X0076748Y0044602D01*
X0076709Y0044563D01*
X0091945Y0035941D02*
X0095278Y0035941D01*
X0099071Y0035941D01*
X0123087Y0063697D02*
X0133323Y0063697D01*
X0128992Y0069602D02*
X0128992Y0073933D01*
X0136165Y0042142D02*
X0151374Y0042142D01*
X0153067Y0043834D01*
D41*
X0153067Y0043834D03*
X0139491Y0055823D03*
X0136420Y0057869D03*
X0138024Y0060052D03*
X0141283Y0060330D03*
X0141267Y0064572D03*
X0150143Y0059122D03*
X0157913Y0067329D03*
X0157896Y0078768D03*
X0166513Y0091078D03*
X0166428Y0096473D03*
X0172573Y0103512D03*
X0192612Y0101297D03*
X0192969Y0089921D03*
X0191951Y0050317D03*
X0192069Y0039384D03*
X0192135Y0029022D03*
X0182780Y0029069D03*
X0172442Y0029022D03*
X0162577Y0028842D03*
X0151104Y0017417D03*
X0151361Y0005106D03*
X0141155Y0005050D03*
X0132990Y0010536D03*
X0128078Y0011753D03*
X0125293Y0014112D03*
X0128828Y0005219D03*
X0115039Y0014138D03*
X0113589Y0011771D03*
X0101298Y0015299D03*
X0104453Y0028582D03*
X0106778Y0031239D03*
X0111068Y0030994D03*
X0111276Y0037583D03*
X0115190Y0037938D03*
X0117079Y0035103D03*
X0125055Y0038214D03*
X0125767Y0034842D03*
X0130808Y0030916D03*
X0137258Y0030034D03*
X0093669Y0030441D03*
X0089596Y0030450D03*
X0083269Y0038774D03*
X0081097Y0040479D03*
X0077559Y0036762D03*
X0080796Y0035414D03*
X0069441Y0040536D03*
X0071519Y0048412D03*
X0067890Y0051098D03*
X0067915Y0055399D03*
X0074150Y0053618D03*
X0078756Y0053657D03*
X0067343Y0074424D03*
X0052725Y0076877D03*
X0052921Y0067865D03*
X0052921Y0057580D03*
X0052947Y0047703D03*
X0053236Y0036452D03*
X0053318Y0025043D03*
X0053529Y0012535D03*
X0083316Y0011624D03*
X0127024Y0077073D03*
X0126353Y0079700D03*
X0124055Y0081578D03*
X0121118Y0079514D03*
X0119150Y0081759D03*
X0118441Y0084355D03*
X0111005Y0097500D03*
X0116545Y0101640D03*
X0122694Y0101966D03*
X0134979Y0087619D03*
X0139247Y0087573D03*
X0103559Y0096728D03*
X0096896Y0089130D03*
X0096443Y0083216D03*
X0089661Y0083716D03*
X0068296Y0103291D03*
X0052493Y0091104D03*
X0190788Y0167474D03*
D42*
X0144629Y0077810D02*
X0144601Y0077781D01*
X0144601Y0072539D01*
X0143633Y0071571D01*
X0133323Y0071571D01*
X0111276Y0073933D02*
X0111276Y0076109D01*
X0110754Y0076631D01*
X0102424Y0076631D01*
X0101693Y0077362D01*
X0101693Y0080279D01*
X0101665Y0080307D01*
X0089511Y0041123D02*
X0085094Y0041123D01*
X0083269Y0038774D01*
D43*
X0068296Y0103291D02*
X0068293Y0103293D01*
X0046968Y0103293D01*
X0024760Y0125501D01*
X0024760Y0162785D01*
X0018064Y0169482D01*
X0006532Y0169482D01*
X0171886Y0169088D02*
X0189174Y0169088D01*
X0190788Y0167474D01*
X0190788Y0153946D01*
D44*
X0192407Y0065968D02*
X0187646Y0065968D01*
X0165513Y0043834D01*
X0153067Y0043834D01*
X0169884Y0034842D02*
X0192393Y0057350D01*
X0192393Y0060953D01*
X0192407Y0060968D01*
X0169884Y0034842D02*
X0125767Y0034842D01*
D45*
X0056517Y0082345D02*
X0007304Y0082345D01*
X0007304Y0074471D02*
X0030926Y0074471D01*
X0030926Y0066597D02*
X0007304Y0066597D01*
X0007304Y0058723D02*
X0030926Y0058723D01*
X0030926Y0050849D02*
X0007304Y0050849D01*
X0007304Y0042975D02*
X0030926Y0042975D01*
X0030926Y0035101D02*
X0007304Y0035101D01*
X0007304Y0027227D02*
X0030926Y0027227D01*
X0030926Y0019353D02*
X0007304Y0019353D01*
X0007304Y0011479D02*
X0030926Y0011479D01*
D46*
X0056517Y0082345D02*
X0062652Y0082345D01*
D47*
X0062990Y0082683D01*
X0069683Y0082683D02*
X0069784Y0082784D01*
X0079725Y0082784D01*
X0083282Y0079227D01*
X0083282Y0075911D01*
X0089975Y0075911D02*
X0092805Y0075911D01*
X0094668Y0074048D01*
X0129629Y0097789D02*
X0129629Y0104646D01*
X0129615Y0104660D01*
X0132912Y0107956D01*
X0166624Y0107956D01*
X0160150Y0101483D01*
X0160150Y0093855D01*
X0160109Y0093815D01*
X0166624Y0107956D02*
X0187990Y0107956D01*
X0190496Y0110462D01*
X0190496Y0127465D01*
X0190496Y0140347D01*
X0190788Y0140639D01*
M02*
