G75*
%MOIN*%
%OFA0B0*%
%FSLAX25Y25*%
%IPPOS*%
%LPD*%
%AMOC8*
5,1,8,0,0,1.08239X$1,22.5*
%
%ADD10C,0.16248*%
%ADD11R,0.07587X0.04437*%
%ADD12R,0.01484X0.02272*%
%ADD13R,0.03256X0.04043*%
%ADD14R,0.04043X0.03256*%
%ADD15R,0.02272X0.01563*%
%ADD16R,0.01563X0.02272*%
%ADD17R,0.04831X0.04437*%
%ADD18R,0.03650X0.03650*%
%ADD19R,0.20776X0.20776*%
%ADD20C,0.01681*%
%ADD21R,0.07587X0.48925*%
%ADD22R,0.06012X0.05028*%
%ADD23R,0.04437X0.04437*%
%ADD24C,0.03478*%
%ADD25R,0.02154X0.07508*%
%ADD26R,0.03650X0.11130*%
%ADD27R,0.05224X0.03650*%
%ADD28C,0.06406*%
%ADD29R,0.03059X0.03846*%
%ADD30R,0.04240X0.03059*%
%ADD31C,0.00500*%
%ADD32R,0.02154X0.02862*%
%ADD33R,0.02862X0.02154*%
%ADD34R,0.04437X0.04831*%
%ADD35R,0.02075X0.03846*%
%ADD36R,0.02075X0.07193*%
%ADD37R,0.02075X0.02075*%
%ADD38C,0.07900*%
%ADD39R,0.05500X0.02500*%
%ADD40C,0.02678*%
D10*
X0186039Y0186689D03*
D11*
X0065606Y0069760D03*
X0065606Y0059917D03*
D12*
X0098913Y0068893D03*
X0100882Y0068893D03*
X0102850Y0068893D03*
X0102850Y0072043D03*
X0100882Y0072043D03*
X0098913Y0072043D03*
D13*
X0078559Y0069838D03*
X0073441Y0069838D03*
X0076787Y0049720D03*
X0076748Y0044602D03*
X0081866Y0044602D03*
X0081906Y0049720D03*
X0069780Y0044563D03*
X0064661Y0044563D03*
X0086709Y0036059D03*
X0091827Y0036059D03*
X0099071Y0035941D03*
X0104189Y0035941D03*
X0101118Y0046019D03*
X0101000Y0050783D03*
X0095882Y0050783D03*
X0096000Y0046019D03*
X0110286Y0024961D03*
X0110169Y0020698D03*
X0110286Y0016027D03*
X0115288Y0020698D03*
X0115404Y0024961D03*
X0105168Y0016027D03*
X0103214Y0011771D03*
X0108333Y0011771D03*
X0131046Y0042142D03*
X0136165Y0042142D03*
X0147308Y0064811D03*
X0147218Y0069125D03*
X0152336Y0069125D03*
X0152426Y0064811D03*
D14*
X0134767Y0077600D03*
X0134767Y0082718D03*
X0123575Y0092837D03*
X0119267Y0092776D03*
X0115058Y0092791D03*
X0115058Y0097910D03*
X0119267Y0097894D03*
X0123575Y0097955D03*
X0094668Y0074048D03*
X0094668Y0068929D03*
X0073087Y0063657D03*
X0073087Y0058539D03*
D15*
X0074327Y0022653D03*
X0074327Y0020960D03*
X0074327Y0019267D03*
X0074327Y0017575D03*
X0074327Y0015882D03*
X0074327Y0014189D03*
X0074327Y0012496D03*
X0074327Y0010803D03*
X0064681Y0010803D03*
X0064681Y0012496D03*
X0064681Y0014189D03*
X0064681Y0015882D03*
X0064681Y0017575D03*
X0064681Y0019267D03*
X0064681Y0020960D03*
X0064681Y0022653D03*
D16*
X0066965Y0022535D03*
X0068657Y0022535D03*
X0070350Y0022535D03*
X0072043Y0022535D03*
X0072043Y0010921D03*
X0070350Y0010921D03*
X0068657Y0010921D03*
X0066965Y0010921D03*
D17*
X0083282Y0075911D03*
X0089975Y0075911D03*
X0069683Y0082683D03*
X0062990Y0082683D03*
X0123071Y0085417D03*
X0129764Y0085417D03*
D18*
X0139269Y0083116D03*
X0139269Y0077211D03*
X0095417Y0041123D03*
X0089511Y0041123D03*
X0089504Y0045389D03*
X0089504Y0051295D03*
D19*
X0120134Y0060744D03*
D20*
X0121118Y0074721D02*
X0121118Y0074721D01*
X0121118Y0073145D01*
X0121118Y0073145D01*
X0121118Y0074721D01*
X0119150Y0074721D02*
X0119150Y0074721D01*
X0119150Y0073145D01*
X0119150Y0073145D01*
X0119150Y0074721D01*
X0117181Y0074721D02*
X0117181Y0074721D01*
X0117181Y0073145D01*
X0117181Y0073145D01*
X0117181Y0074721D01*
X0115213Y0073145D02*
X0115213Y0073145D01*
X0115213Y0074721D01*
X0115213Y0074721D01*
X0115213Y0073145D01*
X0113244Y0073145D02*
X0113244Y0073145D01*
X0113244Y0074721D01*
X0113244Y0074721D01*
X0113244Y0073145D01*
X0111276Y0073145D02*
X0111276Y0073145D01*
X0111276Y0074721D01*
X0111276Y0074721D01*
X0111276Y0073145D01*
X0109307Y0073145D02*
X0109307Y0073145D01*
X0109307Y0074721D01*
X0109307Y0074721D01*
X0109307Y0073145D01*
X0107733Y0071571D02*
X0107733Y0071571D01*
X0106157Y0071571D01*
X0106157Y0071571D01*
X0107733Y0071571D01*
X0107733Y0069602D02*
X0107733Y0069602D01*
X0106157Y0069602D01*
X0106157Y0069602D01*
X0107733Y0069602D01*
X0107733Y0067634D02*
X0107733Y0067634D01*
X0106157Y0067634D01*
X0106157Y0067634D01*
X0107733Y0067634D01*
X0107733Y0065665D02*
X0107733Y0065665D01*
X0106157Y0065665D01*
X0106157Y0065665D01*
X0107733Y0065665D01*
X0107733Y0063697D02*
X0107733Y0063697D01*
X0106157Y0063697D01*
X0106157Y0063697D01*
X0107733Y0063697D01*
X0107733Y0061728D02*
X0107733Y0061728D01*
X0106157Y0061728D01*
X0106157Y0061728D01*
X0107733Y0061728D01*
X0107733Y0059760D02*
X0107733Y0059760D01*
X0106157Y0059760D01*
X0106157Y0059760D01*
X0107733Y0059760D01*
X0107733Y0057791D02*
X0107733Y0057791D01*
X0106157Y0057791D01*
X0106157Y0057791D01*
X0107733Y0057791D01*
X0107733Y0055823D02*
X0107733Y0055823D01*
X0106157Y0055823D01*
X0106157Y0055823D01*
X0107733Y0055823D01*
X0107733Y0053854D02*
X0107733Y0053854D01*
X0106157Y0053854D01*
X0106157Y0053854D01*
X0107733Y0053854D01*
X0107733Y0051886D02*
X0107733Y0051886D01*
X0106157Y0051886D01*
X0106157Y0051886D01*
X0107733Y0051886D01*
X0107733Y0049917D02*
X0107733Y0049917D01*
X0106157Y0049917D01*
X0106157Y0049917D01*
X0107733Y0049917D01*
X0109307Y0048343D02*
X0109307Y0048343D01*
X0109307Y0046767D01*
X0109307Y0046767D01*
X0109307Y0048343D01*
X0111276Y0048343D02*
X0111276Y0048343D01*
X0111276Y0046767D01*
X0111276Y0046767D01*
X0111276Y0048343D01*
X0113244Y0048343D02*
X0113244Y0048343D01*
X0113244Y0046767D01*
X0113244Y0046767D01*
X0113244Y0048343D01*
X0115213Y0048343D02*
X0115213Y0048343D01*
X0115213Y0046767D01*
X0115213Y0046767D01*
X0115213Y0048343D01*
X0117181Y0048343D02*
X0117181Y0048343D01*
X0117181Y0046767D01*
X0117181Y0046767D01*
X0117181Y0048343D01*
X0119150Y0048343D02*
X0119150Y0048343D01*
X0119150Y0046767D01*
X0119150Y0046767D01*
X0119150Y0048343D01*
X0121118Y0048343D02*
X0121118Y0048343D01*
X0121118Y0046767D01*
X0121118Y0046767D01*
X0121118Y0048343D01*
X0123087Y0048343D02*
X0123087Y0048343D01*
X0123087Y0046767D01*
X0123087Y0046767D01*
X0123087Y0048343D01*
X0125055Y0048343D02*
X0125055Y0048343D01*
X0125055Y0046767D01*
X0125055Y0046767D01*
X0125055Y0048343D01*
X0127024Y0048343D02*
X0127024Y0048343D01*
X0127024Y0046767D01*
X0127024Y0046767D01*
X0127024Y0048343D01*
X0128992Y0048343D02*
X0128992Y0048343D01*
X0128992Y0046767D01*
X0128992Y0046767D01*
X0128992Y0048343D01*
X0130961Y0048343D02*
X0130961Y0048343D01*
X0130961Y0046767D01*
X0130961Y0046767D01*
X0130961Y0048343D01*
X0132535Y0049917D02*
X0132535Y0049917D01*
X0134111Y0049917D01*
X0134111Y0049917D01*
X0132535Y0049917D01*
X0132535Y0051886D02*
X0132535Y0051886D01*
X0134111Y0051886D01*
X0134111Y0051886D01*
X0132535Y0051886D01*
X0132535Y0053854D02*
X0132535Y0053854D01*
X0134111Y0053854D01*
X0134111Y0053854D01*
X0132535Y0053854D01*
X0132535Y0055823D02*
X0132535Y0055823D01*
X0134111Y0055823D01*
X0134111Y0055823D01*
X0132535Y0055823D01*
X0132535Y0057791D02*
X0132535Y0057791D01*
X0134111Y0057791D01*
X0134111Y0057791D01*
X0132535Y0057791D01*
X0132535Y0059760D02*
X0132535Y0059760D01*
X0134111Y0059760D01*
X0134111Y0059760D01*
X0132535Y0059760D01*
X0132535Y0061728D02*
X0132535Y0061728D01*
X0134111Y0061728D01*
X0134111Y0061728D01*
X0132535Y0061728D01*
X0132535Y0063697D02*
X0132535Y0063697D01*
X0134111Y0063697D01*
X0134111Y0063697D01*
X0132535Y0063697D01*
X0132535Y0065665D02*
X0132535Y0065665D01*
X0134111Y0065665D01*
X0134111Y0065665D01*
X0132535Y0065665D01*
X0132535Y0067634D02*
X0132535Y0067634D01*
X0134111Y0067634D01*
X0134111Y0067634D01*
X0132535Y0067634D01*
X0132535Y0069602D02*
X0132535Y0069602D01*
X0134111Y0069602D01*
X0134111Y0069602D01*
X0132535Y0069602D01*
X0132535Y0071571D02*
X0132535Y0071571D01*
X0134111Y0071571D01*
X0134111Y0071571D01*
X0132535Y0071571D01*
X0130961Y0073145D02*
X0130961Y0073145D01*
X0130961Y0074721D01*
X0130961Y0074721D01*
X0130961Y0073145D01*
X0128992Y0073145D02*
X0128992Y0073145D01*
X0128992Y0074721D01*
X0128992Y0074721D01*
X0128992Y0073145D01*
X0127024Y0073145D02*
X0127024Y0073145D01*
X0127024Y0074721D01*
X0127024Y0074721D01*
X0127024Y0073145D01*
X0125055Y0073145D02*
X0125055Y0073145D01*
X0125055Y0074721D01*
X0125055Y0074721D01*
X0125055Y0073145D01*
X0123087Y0074721D02*
X0123087Y0074721D01*
X0123087Y0073145D01*
X0123087Y0073145D01*
X0123087Y0074721D01*
D21*
X0171886Y0169088D03*
X0006532Y0169482D03*
D22*
X0101665Y0086606D03*
X0101665Y0080307D03*
X0110327Y0080307D03*
X0110327Y0086606D03*
D23*
X0056517Y0082345D03*
D24*
X0007304Y0011479D03*
X0007304Y0019353D03*
X0007304Y0027227D03*
X0007304Y0035101D03*
X0007304Y0042975D03*
X0007304Y0050849D03*
X0007304Y0058723D03*
X0007304Y0066597D03*
X0007304Y0074471D03*
X0007304Y0082345D03*
X0030926Y0074471D03*
X0030926Y0066597D03*
X0030926Y0058723D03*
X0030926Y0050849D03*
X0030926Y0042975D03*
X0030926Y0035101D03*
X0030926Y0027227D03*
X0030926Y0019353D03*
X0030926Y0011479D03*
D25*
X0144629Y0077810D03*
X0147188Y0077810D03*
X0149747Y0077810D03*
X0152306Y0077810D03*
X0152306Y0101195D03*
X0149747Y0101195D03*
X0147188Y0101195D03*
X0144629Y0101195D03*
D26*
X0138291Y0097789D03*
X0129629Y0097789D03*
D27*
X0160109Y0093815D03*
X0160109Y0086728D03*
X0177486Y0088416D03*
X0177486Y0095503D03*
D28*
X0190496Y0095969D03*
X0190496Y0127465D03*
D29*
X0190788Y0153946D03*
D30*
X0190788Y0140639D03*
D31*
X0186950Y0141919D02*
X0186950Y0149793D01*
X0194627Y0149793D01*
X0194627Y0141919D01*
X0186950Y0141919D01*
X0186950Y0142230D02*
X0194627Y0142230D01*
X0194627Y0142728D02*
X0186950Y0142728D01*
X0186950Y0143227D02*
X0194627Y0143227D01*
X0194627Y0143725D02*
X0186950Y0143725D01*
X0186950Y0144224D02*
X0194627Y0144224D01*
X0194627Y0144722D02*
X0186950Y0144722D01*
X0186950Y0145221D02*
X0194627Y0145221D01*
X0194627Y0145719D02*
X0186950Y0145719D01*
X0186950Y0146218D02*
X0194627Y0146218D01*
X0194627Y0146716D02*
X0186950Y0146716D01*
X0186950Y0147215D02*
X0194627Y0147215D01*
X0194627Y0147713D02*
X0186950Y0147713D01*
X0186950Y0148212D02*
X0194627Y0148212D01*
X0194627Y0148710D02*
X0186950Y0148710D01*
X0186950Y0149209D02*
X0194627Y0149209D01*
X0194627Y0149707D02*
X0186950Y0149707D01*
D32*
X0096595Y0019104D03*
X0094036Y0019104D03*
X0091477Y0019104D03*
X0091477Y0011624D03*
X0094036Y0011624D03*
X0096595Y0011624D03*
D33*
X0129777Y0015706D03*
X0129777Y0018265D03*
X0129777Y0020825D03*
X0137258Y0020825D03*
X0137258Y0018265D03*
X0137258Y0015706D03*
D34*
X0079725Y0082784D03*
X0079725Y0089477D03*
X0070000Y0089503D03*
X0070000Y0096196D03*
X0061800Y0096196D03*
X0061800Y0089503D03*
D35*
X0090880Y0098238D03*
D36*
X0088124Y0099912D03*
X0093636Y0099912D03*
D37*
X0090880Y0102471D03*
D38*
X0087033Y0123507D03*
X0097033Y0123507D03*
X0107033Y0123507D03*
X0117033Y0123507D03*
X0127033Y0123507D03*
X0137033Y0123507D03*
X0147033Y0123507D03*
X0157033Y0123507D03*
X0167033Y0123507D03*
X0167206Y0134290D03*
X0157206Y0134290D03*
X0077033Y0123507D03*
X0067033Y0123507D03*
X0057033Y0123507D03*
X0047033Y0123507D03*
X0037033Y0123507D03*
D39*
X0173407Y0080968D03*
X0173407Y0075968D03*
X0173407Y0070968D03*
X0173407Y0065968D03*
X0173407Y0060968D03*
X0192407Y0060968D03*
X0192407Y0065968D03*
X0192407Y0070968D03*
X0192407Y0075968D03*
X0192407Y0080968D03*
D40*
X0192969Y0089921D03*
X0192612Y0101297D03*
X0172573Y0103512D03*
X0166428Y0096473D03*
X0166513Y0091078D03*
X0157896Y0078768D03*
X0157913Y0067329D03*
X0150143Y0059122D03*
X0141283Y0060330D03*
X0138024Y0060052D03*
X0136420Y0057869D03*
X0139491Y0055823D03*
X0141267Y0064572D03*
X0127024Y0077073D03*
X0126353Y0079700D03*
X0124055Y0081578D03*
X0121118Y0079514D03*
X0119150Y0081759D03*
X0118441Y0084355D03*
X0111005Y0097500D03*
X0116545Y0101640D03*
X0122694Y0101966D03*
X0134979Y0087619D03*
X0139247Y0087573D03*
X0103559Y0096728D03*
X0096896Y0089130D03*
X0096443Y0083216D03*
X0089661Y0083716D03*
X0068296Y0103291D03*
X0052493Y0091104D03*
X0052725Y0076877D03*
X0052921Y0067865D03*
X0052921Y0057580D03*
X0052947Y0047703D03*
X0053236Y0036452D03*
X0053318Y0025043D03*
X0053529Y0012535D03*
X0077559Y0036762D03*
X0080796Y0035414D03*
X0083269Y0038774D03*
X0081097Y0040479D03*
X0071519Y0048412D03*
X0067890Y0051098D03*
X0067915Y0055399D03*
X0074150Y0053618D03*
X0078756Y0053657D03*
X0069441Y0040536D03*
X0089596Y0030450D03*
X0093669Y0030441D03*
X0104453Y0028582D03*
X0106778Y0031239D03*
X0111068Y0030994D03*
X0111276Y0037583D03*
X0115190Y0037938D03*
X0117079Y0035103D03*
X0125055Y0038214D03*
X0125767Y0034842D03*
X0130808Y0030916D03*
X0137258Y0030034D03*
X0151104Y0017417D03*
X0151361Y0005106D03*
X0141155Y0005050D03*
X0132990Y0010536D03*
X0128078Y0011753D03*
X0125293Y0014112D03*
X0128828Y0005219D03*
X0115039Y0014138D03*
X0113589Y0011771D03*
X0101298Y0015299D03*
X0083316Y0011624D03*
X0067343Y0074424D03*
X0153067Y0043834D03*
X0162577Y0028842D03*
X0172442Y0029022D03*
X0182780Y0029069D03*
X0192135Y0029022D03*
X0192069Y0039384D03*
X0191951Y0050317D03*
X0190788Y0167474D03*
M02*
