G75*
%MOIN*%
%OFA0B0*%
%FSLAX25Y25*%
%IPPOS*%
%LPD*%
%AMOC8*
5,1,8,0,0,1.08239X$1,22.5*
%
%ADD10C,0.00000*%
%ADD11C,0.00300*%
%ADD12C,0.00200*%
%ADD13C,0.00500*%
%ADD14C,0.00400*%
%ADD15C,0.01600*%
%ADD16C,0.00100*%
%ADD17C,0.01575*%
%ADD18C,0.00800*%
%ADD19C,0.00295*%
%ADD20R,0.01600X0.02800*%
%ADD21C,0.02200*%
%ADD22R,0.02800X0.01600*%
%ADD23C,0.00600*%
%ADD24R,0.01800X0.03000*%
%ADD25R,0.03000X0.01800*%
D10*
X0001000Y0001649D02*
X0001000Y0198500D01*
X0197850Y0198500D01*
X0197850Y0001649D01*
X0001000Y0001649D01*
X0178165Y0186689D02*
X0178167Y0186882D01*
X0178174Y0187075D01*
X0178186Y0187268D01*
X0178203Y0187461D01*
X0178224Y0187653D01*
X0178250Y0187844D01*
X0178281Y0188035D01*
X0178316Y0188225D01*
X0178356Y0188414D01*
X0178401Y0188602D01*
X0178450Y0188789D01*
X0178504Y0188975D01*
X0178562Y0189159D01*
X0178625Y0189342D01*
X0178693Y0189523D01*
X0178764Y0189702D01*
X0178841Y0189880D01*
X0178921Y0190056D01*
X0179006Y0190229D01*
X0179095Y0190401D01*
X0179188Y0190570D01*
X0179285Y0190737D01*
X0179387Y0190902D01*
X0179492Y0191064D01*
X0179601Y0191223D01*
X0179715Y0191380D01*
X0179832Y0191533D01*
X0179952Y0191684D01*
X0180077Y0191832D01*
X0180205Y0191977D01*
X0180336Y0192118D01*
X0180471Y0192257D01*
X0180610Y0192392D01*
X0180751Y0192523D01*
X0180896Y0192651D01*
X0181044Y0192776D01*
X0181195Y0192896D01*
X0181348Y0193013D01*
X0181505Y0193127D01*
X0181664Y0193236D01*
X0181826Y0193341D01*
X0181991Y0193443D01*
X0182158Y0193540D01*
X0182327Y0193633D01*
X0182499Y0193722D01*
X0182672Y0193807D01*
X0182848Y0193887D01*
X0183026Y0193964D01*
X0183205Y0194035D01*
X0183386Y0194103D01*
X0183569Y0194166D01*
X0183753Y0194224D01*
X0183939Y0194278D01*
X0184126Y0194327D01*
X0184314Y0194372D01*
X0184503Y0194412D01*
X0184693Y0194447D01*
X0184884Y0194478D01*
X0185075Y0194504D01*
X0185267Y0194525D01*
X0185460Y0194542D01*
X0185653Y0194554D01*
X0185846Y0194561D01*
X0186039Y0194563D01*
X0186232Y0194561D01*
X0186425Y0194554D01*
X0186618Y0194542D01*
X0186811Y0194525D01*
X0187003Y0194504D01*
X0187194Y0194478D01*
X0187385Y0194447D01*
X0187575Y0194412D01*
X0187764Y0194372D01*
X0187952Y0194327D01*
X0188139Y0194278D01*
X0188325Y0194224D01*
X0188509Y0194166D01*
X0188692Y0194103D01*
X0188873Y0194035D01*
X0189052Y0193964D01*
X0189230Y0193887D01*
X0189406Y0193807D01*
X0189579Y0193722D01*
X0189751Y0193633D01*
X0189920Y0193540D01*
X0190087Y0193443D01*
X0190252Y0193341D01*
X0190414Y0193236D01*
X0190573Y0193127D01*
X0190730Y0193013D01*
X0190883Y0192896D01*
X0191034Y0192776D01*
X0191182Y0192651D01*
X0191327Y0192523D01*
X0191468Y0192392D01*
X0191607Y0192257D01*
X0191742Y0192118D01*
X0191873Y0191977D01*
X0192001Y0191832D01*
X0192126Y0191684D01*
X0192246Y0191533D01*
X0192363Y0191380D01*
X0192477Y0191223D01*
X0192586Y0191064D01*
X0192691Y0190902D01*
X0192793Y0190737D01*
X0192890Y0190570D01*
X0192983Y0190401D01*
X0193072Y0190229D01*
X0193157Y0190056D01*
X0193237Y0189880D01*
X0193314Y0189702D01*
X0193385Y0189523D01*
X0193453Y0189342D01*
X0193516Y0189159D01*
X0193574Y0188975D01*
X0193628Y0188789D01*
X0193677Y0188602D01*
X0193722Y0188414D01*
X0193762Y0188225D01*
X0193797Y0188035D01*
X0193828Y0187844D01*
X0193854Y0187653D01*
X0193875Y0187461D01*
X0193892Y0187268D01*
X0193904Y0187075D01*
X0193911Y0186882D01*
X0193913Y0186689D01*
X0193911Y0186496D01*
X0193904Y0186303D01*
X0193892Y0186110D01*
X0193875Y0185917D01*
X0193854Y0185725D01*
X0193828Y0185534D01*
X0193797Y0185343D01*
X0193762Y0185153D01*
X0193722Y0184964D01*
X0193677Y0184776D01*
X0193628Y0184589D01*
X0193574Y0184403D01*
X0193516Y0184219D01*
X0193453Y0184036D01*
X0193385Y0183855D01*
X0193314Y0183676D01*
X0193237Y0183498D01*
X0193157Y0183322D01*
X0193072Y0183149D01*
X0192983Y0182977D01*
X0192890Y0182808D01*
X0192793Y0182641D01*
X0192691Y0182476D01*
X0192586Y0182314D01*
X0192477Y0182155D01*
X0192363Y0181998D01*
X0192246Y0181845D01*
X0192126Y0181694D01*
X0192001Y0181546D01*
X0191873Y0181401D01*
X0191742Y0181260D01*
X0191607Y0181121D01*
X0191468Y0180986D01*
X0191327Y0180855D01*
X0191182Y0180727D01*
X0191034Y0180602D01*
X0190883Y0180482D01*
X0190730Y0180365D01*
X0190573Y0180251D01*
X0190414Y0180142D01*
X0190252Y0180037D01*
X0190087Y0179935D01*
X0189920Y0179838D01*
X0189751Y0179745D01*
X0189579Y0179656D01*
X0189406Y0179571D01*
X0189230Y0179491D01*
X0189052Y0179414D01*
X0188873Y0179343D01*
X0188692Y0179275D01*
X0188509Y0179212D01*
X0188325Y0179154D01*
X0188139Y0179100D01*
X0187952Y0179051D01*
X0187764Y0179006D01*
X0187575Y0178966D01*
X0187385Y0178931D01*
X0187194Y0178900D01*
X0187003Y0178874D01*
X0186811Y0178853D01*
X0186618Y0178836D01*
X0186425Y0178824D01*
X0186232Y0178817D01*
X0186039Y0178815D01*
X0185846Y0178817D01*
X0185653Y0178824D01*
X0185460Y0178836D01*
X0185267Y0178853D01*
X0185075Y0178874D01*
X0184884Y0178900D01*
X0184693Y0178931D01*
X0184503Y0178966D01*
X0184314Y0179006D01*
X0184126Y0179051D01*
X0183939Y0179100D01*
X0183753Y0179154D01*
X0183569Y0179212D01*
X0183386Y0179275D01*
X0183205Y0179343D01*
X0183026Y0179414D01*
X0182848Y0179491D01*
X0182672Y0179571D01*
X0182499Y0179656D01*
X0182327Y0179745D01*
X0182158Y0179838D01*
X0181991Y0179935D01*
X0181826Y0180037D01*
X0181664Y0180142D01*
X0181505Y0180251D01*
X0181348Y0180365D01*
X0181195Y0180482D01*
X0181044Y0180602D01*
X0180896Y0180727D01*
X0180751Y0180855D01*
X0180610Y0180986D01*
X0180471Y0181121D01*
X0180336Y0181260D01*
X0180205Y0181401D01*
X0180077Y0181546D01*
X0179952Y0181694D01*
X0179832Y0181845D01*
X0179715Y0181998D01*
X0179601Y0182155D01*
X0179492Y0182314D01*
X0179387Y0182476D01*
X0179285Y0182641D01*
X0179188Y0182808D01*
X0179095Y0182977D01*
X0179006Y0183149D01*
X0178921Y0183322D01*
X0178841Y0183498D01*
X0178764Y0183676D01*
X0178693Y0183855D01*
X0178625Y0184036D01*
X0178562Y0184219D01*
X0178504Y0184403D01*
X0178450Y0184589D01*
X0178401Y0184776D01*
X0178356Y0184964D01*
X0178316Y0185153D01*
X0178281Y0185343D01*
X0178250Y0185534D01*
X0178224Y0185725D01*
X0178203Y0185917D01*
X0178186Y0186110D01*
X0178174Y0186303D01*
X0178167Y0186496D01*
X0178165Y0186689D01*
D11*
X0136077Y0023777D02*
X0130959Y0023777D01*
X0130959Y0022006D01*
X0136077Y0022006D02*
X0136077Y0023777D01*
X0136077Y0014525D02*
X0136077Y0012754D01*
X0130959Y0012754D01*
X0130959Y0014525D01*
X0099547Y0012805D02*
X0097776Y0012805D01*
X0099547Y0012805D02*
X0099547Y0017923D01*
X0097776Y0017923D01*
X0090295Y0017923D02*
X0088524Y0017923D01*
X0088524Y0012805D01*
X0090295Y0012805D01*
X0161627Y0008084D02*
X0162593Y0005184D01*
X0163560Y0008084D01*
X0164529Y0005345D02*
X0164690Y0005345D01*
X0164690Y0005184D01*
X0164529Y0005184D01*
X0164529Y0005345D01*
X0167452Y0005184D02*
X0167452Y0008084D01*
X0167452Y0006795D02*
X0169063Y0006795D01*
X0169063Y0008084D02*
X0169063Y0005184D01*
X0170493Y0005668D02*
X0170493Y0007118D01*
X0171782Y0007118D02*
X0171782Y0005184D01*
X0170976Y0005184D01*
X0170976Y0005185D02*
X0170934Y0005187D01*
X0170892Y0005192D01*
X0170851Y0005201D01*
X0170811Y0005214D01*
X0170772Y0005230D01*
X0170735Y0005250D01*
X0170699Y0005272D01*
X0170666Y0005298D01*
X0170634Y0005326D01*
X0170606Y0005358D01*
X0170580Y0005391D01*
X0170558Y0005427D01*
X0170538Y0005464D01*
X0170522Y0005503D01*
X0170509Y0005543D01*
X0170500Y0005584D01*
X0170495Y0005626D01*
X0170493Y0005668D01*
X0173181Y0005184D02*
X0173181Y0007118D01*
X0173986Y0007118D01*
X0173986Y0007117D02*
X0174028Y0007115D01*
X0174070Y0007110D01*
X0174111Y0007101D01*
X0174151Y0007088D01*
X0174190Y0007072D01*
X0174228Y0007052D01*
X0174263Y0007030D01*
X0174296Y0007004D01*
X0174328Y0006976D01*
X0174356Y0006944D01*
X0174382Y0006911D01*
X0174404Y0006876D01*
X0174424Y0006838D01*
X0174440Y0006799D01*
X0174453Y0006759D01*
X0174462Y0006718D01*
X0174467Y0006676D01*
X0174469Y0006634D01*
X0174470Y0006634D02*
X0174470Y0005184D01*
X0175847Y0005668D02*
X0175847Y0008084D01*
X0175525Y0007118D02*
X0176491Y0007118D01*
X0177597Y0006473D02*
X0177597Y0005668D01*
X0177597Y0006151D02*
X0178886Y0006151D01*
X0178886Y0006473D01*
X0178885Y0006473D02*
X0178883Y0006522D01*
X0178877Y0006571D01*
X0178868Y0006620D01*
X0178855Y0006667D01*
X0178838Y0006714D01*
X0178818Y0006759D01*
X0178795Y0006802D01*
X0178768Y0006844D01*
X0178738Y0006883D01*
X0178705Y0006920D01*
X0178669Y0006954D01*
X0178631Y0006985D01*
X0178591Y0007014D01*
X0178549Y0007039D01*
X0178504Y0007061D01*
X0178459Y0007079D01*
X0178412Y0007094D01*
X0178364Y0007105D01*
X0178315Y0007113D01*
X0178266Y0007117D01*
X0178216Y0007117D01*
X0178167Y0007113D01*
X0178118Y0007105D01*
X0178070Y0007094D01*
X0178023Y0007079D01*
X0177978Y0007061D01*
X0177933Y0007039D01*
X0177891Y0007014D01*
X0177851Y0006985D01*
X0177813Y0006954D01*
X0177777Y0006920D01*
X0177744Y0006883D01*
X0177714Y0006844D01*
X0177687Y0006802D01*
X0177664Y0006759D01*
X0177644Y0006714D01*
X0177627Y0006667D01*
X0177614Y0006620D01*
X0177605Y0006571D01*
X0177599Y0006522D01*
X0177597Y0006473D01*
X0177597Y0005668D02*
X0177599Y0005626D01*
X0177604Y0005584D01*
X0177613Y0005543D01*
X0177626Y0005503D01*
X0177642Y0005464D01*
X0177662Y0005427D01*
X0177684Y0005391D01*
X0177710Y0005358D01*
X0177738Y0005326D01*
X0177770Y0005298D01*
X0177803Y0005272D01*
X0177839Y0005250D01*
X0177876Y0005230D01*
X0177915Y0005214D01*
X0177955Y0005201D01*
X0177996Y0005192D01*
X0178038Y0005187D01*
X0178080Y0005185D01*
X0178080Y0005184D02*
X0178886Y0005184D01*
X0180207Y0005184D02*
X0180207Y0007118D01*
X0181173Y0007118D01*
X0181173Y0006795D01*
X0183756Y0005909D02*
X0185206Y0005909D01*
X0185448Y0005184D02*
X0184481Y0008084D01*
X0183514Y0005184D01*
X0186509Y0005668D02*
X0186509Y0006634D01*
X0186511Y0006676D01*
X0186516Y0006718D01*
X0186525Y0006759D01*
X0186538Y0006799D01*
X0186554Y0006838D01*
X0186574Y0006876D01*
X0186596Y0006911D01*
X0186622Y0006944D01*
X0186650Y0006976D01*
X0186682Y0007004D01*
X0186715Y0007030D01*
X0186751Y0007052D01*
X0186788Y0007072D01*
X0186827Y0007088D01*
X0186867Y0007101D01*
X0186908Y0007110D01*
X0186950Y0007115D01*
X0186992Y0007117D01*
X0186992Y0007118D02*
X0187797Y0007118D01*
X0187797Y0008084D02*
X0187797Y0005184D01*
X0186992Y0005184D01*
X0186992Y0005185D02*
X0186950Y0005187D01*
X0186908Y0005192D01*
X0186867Y0005201D01*
X0186827Y0005214D01*
X0186788Y0005230D01*
X0186751Y0005250D01*
X0186715Y0005272D01*
X0186682Y0005298D01*
X0186650Y0005326D01*
X0186622Y0005358D01*
X0186596Y0005391D01*
X0186574Y0005427D01*
X0186554Y0005464D01*
X0186538Y0005503D01*
X0186525Y0005543D01*
X0186516Y0005584D01*
X0186511Y0005626D01*
X0186509Y0005668D01*
X0189262Y0007118D02*
X0189906Y0007118D01*
X0189906Y0007117D02*
X0189948Y0007115D01*
X0189990Y0007110D01*
X0190031Y0007101D01*
X0190071Y0007088D01*
X0190110Y0007072D01*
X0190148Y0007052D01*
X0190183Y0007030D01*
X0190216Y0007004D01*
X0190248Y0006976D01*
X0190276Y0006944D01*
X0190302Y0006911D01*
X0190324Y0006876D01*
X0190344Y0006838D01*
X0190360Y0006799D01*
X0190373Y0006759D01*
X0190382Y0006718D01*
X0190387Y0006676D01*
X0190389Y0006634D01*
X0190389Y0005184D01*
X0189664Y0005184D01*
X0189617Y0005186D01*
X0189571Y0005192D01*
X0189526Y0005201D01*
X0189481Y0005215D01*
X0189437Y0005232D01*
X0189396Y0005252D01*
X0189356Y0005276D01*
X0189318Y0005303D01*
X0189282Y0005333D01*
X0189249Y0005366D01*
X0189219Y0005402D01*
X0189192Y0005440D01*
X0189168Y0005480D01*
X0189148Y0005521D01*
X0189131Y0005565D01*
X0189117Y0005610D01*
X0189108Y0005655D01*
X0189102Y0005701D01*
X0189100Y0005748D01*
X0189102Y0005795D01*
X0189108Y0005841D01*
X0189117Y0005886D01*
X0189131Y0005931D01*
X0189148Y0005975D01*
X0189168Y0006016D01*
X0189192Y0006056D01*
X0189219Y0006094D01*
X0189249Y0006130D01*
X0189282Y0006163D01*
X0189318Y0006193D01*
X0189356Y0006220D01*
X0189396Y0006244D01*
X0189437Y0006264D01*
X0189481Y0006281D01*
X0189526Y0006295D01*
X0189571Y0006304D01*
X0189617Y0006310D01*
X0189664Y0006312D01*
X0190389Y0006312D01*
X0191866Y0007118D02*
X0191866Y0005184D01*
X0192833Y0005184D02*
X0192833Y0007118D01*
X0193316Y0007118D02*
X0191866Y0007118D01*
X0193316Y0007117D02*
X0193358Y0007115D01*
X0193400Y0007110D01*
X0193441Y0007101D01*
X0193481Y0007088D01*
X0193520Y0007072D01*
X0193558Y0007052D01*
X0193593Y0007030D01*
X0193626Y0007004D01*
X0193658Y0006976D01*
X0193686Y0006944D01*
X0193712Y0006911D01*
X0193734Y0006876D01*
X0193754Y0006838D01*
X0193770Y0006799D01*
X0193783Y0006759D01*
X0193792Y0006718D01*
X0193797Y0006676D01*
X0193799Y0006634D01*
X0193800Y0006634D02*
X0193800Y0005184D01*
X0195567Y0007118D02*
X0195650Y0007115D01*
X0195733Y0007108D01*
X0195815Y0007097D01*
X0195897Y0007083D01*
X0195978Y0007065D01*
X0196059Y0007043D01*
X0196138Y0007018D01*
X0196216Y0006989D01*
X0196292Y0006957D01*
X0195567Y0007118D02*
X0195527Y0007117D01*
X0195487Y0007111D01*
X0195448Y0007103D01*
X0195410Y0007090D01*
X0195374Y0007074D01*
X0195339Y0007054D01*
X0195306Y0007031D01*
X0195276Y0007005D01*
X0195248Y0006977D01*
X0195223Y0006946D01*
X0195201Y0006912D01*
X0195182Y0006877D01*
X0195167Y0006840D01*
X0195156Y0006801D01*
X0195148Y0006762D01*
X0195144Y0006722D01*
X0195143Y0006683D01*
X0195147Y0006643D01*
X0195154Y0006603D01*
X0195165Y0006565D01*
X0195180Y0006528D01*
X0195198Y0006492D01*
X0195220Y0006458D01*
X0195244Y0006427D01*
X0195272Y0006398D01*
X0195302Y0006372D01*
X0195335Y0006349D01*
X0195369Y0006329D01*
X0195406Y0006312D01*
X0196212Y0005990D01*
X0196249Y0005973D01*
X0196283Y0005953D01*
X0196316Y0005930D01*
X0196346Y0005904D01*
X0196374Y0005875D01*
X0196398Y0005844D01*
X0196420Y0005810D01*
X0196438Y0005774D01*
X0196453Y0005737D01*
X0196464Y0005699D01*
X0196471Y0005659D01*
X0196475Y0005619D01*
X0196474Y0005580D01*
X0196470Y0005540D01*
X0196462Y0005501D01*
X0196451Y0005462D01*
X0196436Y0005425D01*
X0196417Y0005390D01*
X0196395Y0005356D01*
X0196370Y0005325D01*
X0196342Y0005297D01*
X0196312Y0005271D01*
X0196279Y0005248D01*
X0196244Y0005228D01*
X0196208Y0005212D01*
X0196170Y0005199D01*
X0196131Y0005191D01*
X0196091Y0005185D01*
X0196051Y0005184D01*
X0195951Y0005188D01*
X0195850Y0005195D01*
X0195750Y0005205D01*
X0195651Y0005220D01*
X0195552Y0005238D01*
X0195454Y0005259D01*
X0195356Y0005284D01*
X0195260Y0005313D01*
X0195165Y0005345D01*
X0176491Y0005184D02*
X0176330Y0005184D01*
X0176330Y0005185D02*
X0176288Y0005187D01*
X0176246Y0005192D01*
X0176205Y0005201D01*
X0176165Y0005214D01*
X0176126Y0005230D01*
X0176089Y0005250D01*
X0176053Y0005272D01*
X0176020Y0005298D01*
X0175988Y0005326D01*
X0175960Y0005358D01*
X0175934Y0005391D01*
X0175912Y0005427D01*
X0175892Y0005464D01*
X0175876Y0005503D01*
X0175863Y0005543D01*
X0175854Y0005584D01*
X0175849Y0005626D01*
X0175847Y0005668D01*
D12*
X0141312Y0127744D02*
X0143512Y0128477D01*
X0141312Y0129210D01*
X0141801Y0130015D02*
X0141758Y0130017D01*
X0141716Y0130022D01*
X0141674Y0130032D01*
X0141634Y0130044D01*
X0141594Y0130061D01*
X0141557Y0130081D01*
X0141521Y0130103D01*
X0141487Y0130129D01*
X0141455Y0130158D01*
X0141426Y0130190D01*
X0141400Y0130224D01*
X0141378Y0130260D01*
X0141358Y0130297D01*
X0141341Y0130337D01*
X0141329Y0130377D01*
X0141319Y0130419D01*
X0141314Y0130461D01*
X0141312Y0130504D01*
X0141801Y0130015D02*
X0141844Y0130017D01*
X0141887Y0130022D01*
X0141929Y0130032D01*
X0141970Y0130044D01*
X0142009Y0130061D01*
X0142048Y0130080D01*
X0142084Y0130103D01*
X0142118Y0130129D01*
X0142150Y0130158D01*
X0142179Y0130190D01*
X0142206Y0130224D01*
X0142229Y0130260D01*
X0142229Y0130259D02*
X0142596Y0130932D01*
X0143513Y0130687D02*
X0143511Y0130624D01*
X0143505Y0130562D01*
X0143496Y0130500D01*
X0143483Y0130439D01*
X0143466Y0130378D01*
X0143445Y0130319D01*
X0143421Y0130261D01*
X0143393Y0130205D01*
X0143362Y0130150D01*
X0143328Y0130097D01*
X0143291Y0130047D01*
X0143251Y0129999D01*
X0143207Y0129954D01*
X0142596Y0130932D02*
X0142619Y0130968D01*
X0142646Y0131002D01*
X0142675Y0131034D01*
X0142707Y0131063D01*
X0142741Y0131089D01*
X0142777Y0131112D01*
X0142816Y0131131D01*
X0142855Y0131148D01*
X0142896Y0131160D01*
X0142938Y0131170D01*
X0142981Y0131175D01*
X0143024Y0131177D01*
X0143024Y0131176D02*
X0143067Y0131174D01*
X0143109Y0131169D01*
X0143151Y0131159D01*
X0143191Y0131147D01*
X0143231Y0131130D01*
X0143269Y0131110D01*
X0143304Y0131088D01*
X0143338Y0131062D01*
X0143370Y0131033D01*
X0143399Y0131001D01*
X0143425Y0130967D01*
X0143447Y0130932D01*
X0143467Y0130894D01*
X0143484Y0130854D01*
X0143496Y0130814D01*
X0143506Y0130772D01*
X0143511Y0130730D01*
X0143513Y0130687D01*
X0141495Y0131054D02*
X0141462Y0131006D01*
X0141431Y0130956D01*
X0141403Y0130903D01*
X0141380Y0130849D01*
X0141359Y0130794D01*
X0141342Y0130737D01*
X0141329Y0130680D01*
X0141320Y0130622D01*
X0141314Y0130563D01*
X0141312Y0130504D01*
X0141312Y0132118D02*
X0141312Y0133096D01*
X0141312Y0133986D02*
X0143512Y0135208D01*
X0141312Y0135208D01*
X0141312Y0133986D02*
X0143512Y0133986D01*
X0143512Y0133096D02*
X0143512Y0132118D01*
X0141312Y0132118D01*
X0142290Y0132118D02*
X0142290Y0132852D01*
X0142229Y0136451D02*
X0142596Y0137124D01*
X0143513Y0136879D02*
X0143511Y0136816D01*
X0143505Y0136754D01*
X0143496Y0136692D01*
X0143483Y0136631D01*
X0143466Y0136570D01*
X0143445Y0136511D01*
X0143421Y0136453D01*
X0143393Y0136397D01*
X0143362Y0136342D01*
X0143328Y0136289D01*
X0143291Y0136239D01*
X0143251Y0136191D01*
X0143207Y0136146D01*
X0142596Y0137124D02*
X0142619Y0137160D01*
X0142646Y0137194D01*
X0142675Y0137226D01*
X0142707Y0137255D01*
X0142741Y0137281D01*
X0142777Y0137304D01*
X0142816Y0137323D01*
X0142855Y0137340D01*
X0142896Y0137352D01*
X0142938Y0137362D01*
X0142981Y0137367D01*
X0143024Y0137369D01*
X0143024Y0137368D02*
X0143067Y0137366D01*
X0143109Y0137361D01*
X0143151Y0137351D01*
X0143191Y0137339D01*
X0143231Y0137322D01*
X0143269Y0137302D01*
X0143304Y0137280D01*
X0143338Y0137254D01*
X0143370Y0137225D01*
X0143399Y0137193D01*
X0143425Y0137159D01*
X0143447Y0137124D01*
X0143467Y0137086D01*
X0143484Y0137046D01*
X0143496Y0137006D01*
X0143506Y0136964D01*
X0143511Y0136922D01*
X0143513Y0136879D01*
X0141495Y0137246D02*
X0141462Y0137198D01*
X0141431Y0137148D01*
X0141403Y0137095D01*
X0141380Y0137041D01*
X0141359Y0136986D01*
X0141342Y0136929D01*
X0141329Y0136872D01*
X0141320Y0136814D01*
X0141314Y0136755D01*
X0141312Y0136696D01*
X0141314Y0136653D01*
X0141319Y0136611D01*
X0141329Y0136569D01*
X0141341Y0136529D01*
X0141358Y0136489D01*
X0141378Y0136452D01*
X0141400Y0136416D01*
X0141426Y0136382D01*
X0141455Y0136350D01*
X0141487Y0136321D01*
X0141521Y0136295D01*
X0141557Y0136273D01*
X0141594Y0136253D01*
X0141634Y0136236D01*
X0141674Y0136224D01*
X0141716Y0136214D01*
X0141758Y0136209D01*
X0141801Y0136207D01*
X0141844Y0136209D01*
X0141887Y0136214D01*
X0141929Y0136224D01*
X0141970Y0136236D01*
X0142009Y0136253D01*
X0142048Y0136272D01*
X0142084Y0136295D01*
X0142118Y0136321D01*
X0142150Y0136350D01*
X0142179Y0136382D01*
X0142206Y0136416D01*
X0142229Y0136452D01*
X0142290Y0138310D02*
X0142290Y0139044D01*
X0141312Y0139288D02*
X0141312Y0138310D01*
X0143512Y0138310D01*
X0143512Y0139288D01*
X0148664Y0136547D02*
X0148664Y0136058D01*
X0148666Y0136015D01*
X0148671Y0135973D01*
X0148681Y0135931D01*
X0148693Y0135891D01*
X0148710Y0135851D01*
X0148730Y0135813D01*
X0148752Y0135778D01*
X0148778Y0135744D01*
X0148807Y0135712D01*
X0148839Y0135683D01*
X0148873Y0135657D01*
X0148909Y0135635D01*
X0148946Y0135615D01*
X0148986Y0135598D01*
X0149026Y0135586D01*
X0149068Y0135576D01*
X0149110Y0135571D01*
X0149153Y0135569D01*
X0150375Y0135569D01*
X0150418Y0135571D01*
X0150460Y0135576D01*
X0150502Y0135586D01*
X0150542Y0135598D01*
X0150582Y0135615D01*
X0150620Y0135635D01*
X0150655Y0135657D01*
X0150689Y0135683D01*
X0150721Y0135712D01*
X0150750Y0135744D01*
X0150776Y0135778D01*
X0150798Y0135814D01*
X0150818Y0135851D01*
X0150835Y0135891D01*
X0150847Y0135931D01*
X0150857Y0135973D01*
X0150862Y0136015D01*
X0150864Y0136058D01*
X0150864Y0136547D01*
X0150864Y0134747D02*
X0150864Y0134258D01*
X0150862Y0134215D01*
X0150857Y0134173D01*
X0150847Y0134131D01*
X0150835Y0134091D01*
X0150818Y0134051D01*
X0150798Y0134014D01*
X0150776Y0133978D01*
X0150750Y0133944D01*
X0150721Y0133912D01*
X0150689Y0133883D01*
X0150655Y0133857D01*
X0150620Y0133835D01*
X0150582Y0133815D01*
X0150542Y0133798D01*
X0150502Y0133786D01*
X0150460Y0133776D01*
X0150418Y0133771D01*
X0150375Y0133769D01*
X0150375Y0133770D02*
X0149153Y0133770D01*
X0149153Y0133769D02*
X0149110Y0133771D01*
X0149068Y0133776D01*
X0149026Y0133786D01*
X0148986Y0133798D01*
X0148946Y0133815D01*
X0148909Y0133835D01*
X0148873Y0133857D01*
X0148839Y0133883D01*
X0148807Y0133912D01*
X0148778Y0133944D01*
X0148752Y0133978D01*
X0148730Y0134013D01*
X0148710Y0134051D01*
X0148693Y0134091D01*
X0148681Y0134131D01*
X0148671Y0134173D01*
X0148666Y0134215D01*
X0148664Y0134258D01*
X0148664Y0134747D01*
X0148664Y0132960D02*
X0150864Y0132227D01*
X0148664Y0131494D01*
X0133465Y0135012D02*
X0133465Y0135990D01*
X0133221Y0136834D02*
X0133221Y0138056D01*
X0133221Y0136834D02*
X0131998Y0137873D01*
X0131020Y0137506D02*
X0131022Y0137454D01*
X0131028Y0137402D01*
X0131037Y0137350D01*
X0131051Y0137300D01*
X0131068Y0137250D01*
X0131089Y0137202D01*
X0131113Y0137156D01*
X0131140Y0137112D01*
X0131171Y0137069D01*
X0131205Y0137029D01*
X0131241Y0136992D01*
X0131281Y0136958D01*
X0131323Y0136926D01*
X0131366Y0136898D01*
X0131412Y0136873D01*
X0131460Y0136851D01*
X0131509Y0136833D01*
X0131999Y0137873D02*
X0131965Y0137906D01*
X0131928Y0137936D01*
X0131888Y0137964D01*
X0131847Y0137988D01*
X0131804Y0138008D01*
X0131759Y0138025D01*
X0131713Y0138039D01*
X0131666Y0138048D01*
X0131619Y0138054D01*
X0131571Y0138056D01*
X0131526Y0138054D01*
X0131480Y0138048D01*
X0131436Y0138039D01*
X0131392Y0138026D01*
X0131350Y0138010D01*
X0131309Y0137990D01*
X0131270Y0137966D01*
X0131233Y0137940D01*
X0131198Y0137911D01*
X0131166Y0137879D01*
X0131137Y0137844D01*
X0131111Y0137807D01*
X0131087Y0137768D01*
X0131067Y0137727D01*
X0131051Y0137685D01*
X0131038Y0137641D01*
X0131029Y0137597D01*
X0131023Y0137551D01*
X0131021Y0137506D01*
X0131632Y0138994D02*
X0131754Y0138994D01*
X0131797Y0138996D01*
X0131839Y0139001D01*
X0131881Y0139011D01*
X0131921Y0139023D01*
X0131961Y0139040D01*
X0131999Y0139060D01*
X0132034Y0139082D01*
X0132068Y0139108D01*
X0132100Y0139137D01*
X0132129Y0139169D01*
X0132155Y0139203D01*
X0132177Y0139239D01*
X0132197Y0139276D01*
X0132214Y0139316D01*
X0132226Y0139356D01*
X0132236Y0139398D01*
X0132241Y0139440D01*
X0132243Y0139483D01*
X0132243Y0140216D01*
X0131632Y0140216D01*
X0131584Y0140214D01*
X0131536Y0140208D01*
X0131489Y0140199D01*
X0131443Y0140186D01*
X0131398Y0140169D01*
X0131355Y0140149D01*
X0131313Y0140126D01*
X0131273Y0140099D01*
X0131235Y0140070D01*
X0131200Y0140037D01*
X0131167Y0140002D01*
X0131138Y0139964D01*
X0131111Y0139924D01*
X0131088Y0139882D01*
X0131068Y0139839D01*
X0131051Y0139794D01*
X0131038Y0139748D01*
X0131029Y0139701D01*
X0131023Y0139653D01*
X0131021Y0139605D01*
X0131023Y0139557D01*
X0131029Y0139509D01*
X0131038Y0139462D01*
X0131051Y0139416D01*
X0131068Y0139371D01*
X0131088Y0139328D01*
X0131111Y0139286D01*
X0131138Y0139246D01*
X0131167Y0139208D01*
X0131200Y0139173D01*
X0131235Y0139140D01*
X0131273Y0139111D01*
X0131313Y0139084D01*
X0131355Y0139061D01*
X0131398Y0139041D01*
X0131443Y0139024D01*
X0131489Y0139011D01*
X0131536Y0139002D01*
X0131584Y0138996D01*
X0131632Y0138994D01*
X0132243Y0140216D02*
X0132304Y0140214D01*
X0132366Y0140208D01*
X0132426Y0140199D01*
X0132486Y0140185D01*
X0132545Y0140168D01*
X0132603Y0140147D01*
X0132659Y0140123D01*
X0132714Y0140095D01*
X0132767Y0140064D01*
X0132818Y0140029D01*
X0132866Y0139992D01*
X0132912Y0139951D01*
X0132956Y0139907D01*
X0132997Y0139861D01*
X0133034Y0139813D01*
X0133069Y0139762D01*
X0133100Y0139709D01*
X0133128Y0139654D01*
X0133152Y0139598D01*
X0133173Y0139540D01*
X0133190Y0139481D01*
X0133204Y0139421D01*
X0133213Y0139361D01*
X0133219Y0139299D01*
X0133221Y0139238D01*
X0132609Y0134096D02*
X0131632Y0134096D01*
X0131584Y0134094D01*
X0131536Y0134088D01*
X0131489Y0134079D01*
X0131443Y0134066D01*
X0131398Y0134049D01*
X0131355Y0134029D01*
X0131313Y0134006D01*
X0131273Y0133979D01*
X0131235Y0133950D01*
X0131200Y0133917D01*
X0131167Y0133882D01*
X0131138Y0133844D01*
X0131111Y0133804D01*
X0131088Y0133762D01*
X0131068Y0133719D01*
X0131051Y0133674D01*
X0131038Y0133628D01*
X0131029Y0133581D01*
X0131023Y0133533D01*
X0131021Y0133485D01*
X0131021Y0132874D01*
X0133221Y0132874D01*
X0133221Y0133485D01*
X0133220Y0133485D02*
X0133218Y0133533D01*
X0133212Y0133581D01*
X0133203Y0133628D01*
X0133190Y0133674D01*
X0133173Y0133719D01*
X0133153Y0133762D01*
X0133130Y0133804D01*
X0133103Y0133844D01*
X0133074Y0133882D01*
X0133041Y0133917D01*
X0133006Y0133950D01*
X0132968Y0133979D01*
X0132928Y0134006D01*
X0132886Y0134029D01*
X0132843Y0134049D01*
X0132798Y0134066D01*
X0132752Y0134079D01*
X0132705Y0134088D01*
X0132657Y0134094D01*
X0132609Y0134096D01*
X0133221Y0131929D02*
X0133221Y0131441D01*
X0133221Y0131685D02*
X0131021Y0131685D01*
X0131021Y0131441D02*
X0131021Y0131929D01*
X0131632Y0130568D02*
X0132609Y0130568D01*
X0132657Y0130566D01*
X0132705Y0130560D01*
X0132752Y0130551D01*
X0132798Y0130538D01*
X0132843Y0130521D01*
X0132886Y0130501D01*
X0132928Y0130478D01*
X0132968Y0130451D01*
X0133006Y0130422D01*
X0133041Y0130389D01*
X0133074Y0130354D01*
X0133103Y0130316D01*
X0133130Y0130276D01*
X0133153Y0130234D01*
X0133173Y0130191D01*
X0133190Y0130146D01*
X0133203Y0130100D01*
X0133212Y0130053D01*
X0133218Y0130005D01*
X0133220Y0129957D01*
X0133218Y0129909D01*
X0133212Y0129861D01*
X0133203Y0129814D01*
X0133190Y0129768D01*
X0133173Y0129723D01*
X0133153Y0129680D01*
X0133130Y0129638D01*
X0133103Y0129598D01*
X0133074Y0129560D01*
X0133041Y0129525D01*
X0133006Y0129492D01*
X0132968Y0129463D01*
X0132928Y0129436D01*
X0132886Y0129413D01*
X0132843Y0129393D01*
X0132798Y0129376D01*
X0132752Y0129363D01*
X0132705Y0129354D01*
X0132657Y0129348D01*
X0132609Y0129346D01*
X0131632Y0129346D01*
X0131584Y0129348D01*
X0131536Y0129354D01*
X0131489Y0129363D01*
X0131443Y0129376D01*
X0131398Y0129393D01*
X0131355Y0129413D01*
X0131313Y0129436D01*
X0131273Y0129463D01*
X0131235Y0129492D01*
X0131200Y0129525D01*
X0131167Y0129560D01*
X0131138Y0129598D01*
X0131111Y0129638D01*
X0131088Y0129680D01*
X0131068Y0129723D01*
X0131051Y0129768D01*
X0131038Y0129814D01*
X0131029Y0129861D01*
X0131023Y0129909D01*
X0131021Y0129957D01*
X0131023Y0130005D01*
X0131029Y0130053D01*
X0131038Y0130100D01*
X0131051Y0130146D01*
X0131068Y0130191D01*
X0131088Y0130234D01*
X0131111Y0130276D01*
X0131138Y0130316D01*
X0131167Y0130354D01*
X0131200Y0130389D01*
X0131235Y0130422D01*
X0131273Y0130451D01*
X0131313Y0130478D01*
X0131355Y0130501D01*
X0131398Y0130521D01*
X0131443Y0130538D01*
X0131489Y0130551D01*
X0131536Y0130560D01*
X0131584Y0130566D01*
X0131632Y0130568D01*
X0131021Y0128473D02*
X0131021Y0127985D01*
X0131021Y0128229D02*
X0133221Y0128229D01*
X0133221Y0127985D02*
X0133221Y0128473D01*
X0123395Y0134810D02*
X0123395Y0135788D01*
X0123150Y0136632D02*
X0123150Y0137243D01*
X0123148Y0137291D01*
X0123142Y0137339D01*
X0123133Y0137386D01*
X0123120Y0137432D01*
X0123103Y0137477D01*
X0123083Y0137520D01*
X0123060Y0137562D01*
X0123033Y0137602D01*
X0123004Y0137640D01*
X0122971Y0137675D01*
X0122936Y0137708D01*
X0122898Y0137737D01*
X0122858Y0137764D01*
X0122816Y0137787D01*
X0122773Y0137807D01*
X0122728Y0137824D01*
X0122682Y0137837D01*
X0122635Y0137846D01*
X0122587Y0137852D01*
X0122539Y0137854D01*
X0122491Y0137852D01*
X0122443Y0137846D01*
X0122396Y0137837D01*
X0122350Y0137824D01*
X0122305Y0137807D01*
X0122262Y0137787D01*
X0122220Y0137764D01*
X0122180Y0137737D01*
X0122142Y0137708D01*
X0122107Y0137675D01*
X0122074Y0137640D01*
X0122045Y0137602D01*
X0122018Y0137562D01*
X0121995Y0137520D01*
X0121975Y0137477D01*
X0121958Y0137432D01*
X0121945Y0137386D01*
X0121936Y0137339D01*
X0121930Y0137291D01*
X0121928Y0137243D01*
X0121928Y0137365D02*
X0121928Y0136876D01*
X0121928Y0137365D02*
X0121926Y0137408D01*
X0121921Y0137450D01*
X0121911Y0137492D01*
X0121899Y0137532D01*
X0121882Y0137572D01*
X0121862Y0137610D01*
X0121840Y0137645D01*
X0121814Y0137679D01*
X0121785Y0137711D01*
X0121753Y0137740D01*
X0121719Y0137766D01*
X0121684Y0137788D01*
X0121646Y0137808D01*
X0121606Y0137825D01*
X0121566Y0137837D01*
X0121524Y0137847D01*
X0121482Y0137852D01*
X0121439Y0137854D01*
X0121396Y0137852D01*
X0121354Y0137847D01*
X0121312Y0137837D01*
X0121272Y0137825D01*
X0121232Y0137808D01*
X0121195Y0137788D01*
X0121159Y0137766D01*
X0121125Y0137740D01*
X0121093Y0137711D01*
X0121064Y0137679D01*
X0121038Y0137645D01*
X0121016Y0137610D01*
X0120996Y0137572D01*
X0120979Y0137532D01*
X0120967Y0137492D01*
X0120957Y0137450D01*
X0120952Y0137408D01*
X0120950Y0137365D01*
X0120950Y0136632D01*
X0122050Y0140014D02*
X0122132Y0140012D01*
X0122214Y0140007D01*
X0122296Y0139997D01*
X0122377Y0139984D01*
X0122458Y0139968D01*
X0122537Y0139947D01*
X0122616Y0139923D01*
X0122694Y0139896D01*
X0122770Y0139865D01*
X0122844Y0139831D01*
X0122845Y0139831D02*
X0122882Y0139816D01*
X0122918Y0139798D01*
X0122952Y0139777D01*
X0122984Y0139753D01*
X0123014Y0139726D01*
X0123041Y0139697D01*
X0123066Y0139666D01*
X0123088Y0139632D01*
X0123106Y0139597D01*
X0123122Y0139560D01*
X0123134Y0139522D01*
X0123143Y0139483D01*
X0123148Y0139443D01*
X0123150Y0139403D01*
X0123148Y0139363D01*
X0123143Y0139323D01*
X0123134Y0139284D01*
X0123122Y0139246D01*
X0123106Y0139209D01*
X0123088Y0139174D01*
X0123066Y0139140D01*
X0123041Y0139109D01*
X0123014Y0139080D01*
X0122984Y0139053D01*
X0122952Y0139029D01*
X0122918Y0139008D01*
X0122882Y0138990D01*
X0122845Y0138975D01*
X0122661Y0138914D02*
X0121439Y0139891D01*
X0121256Y0139831D02*
X0121219Y0139816D01*
X0121183Y0139798D01*
X0121149Y0139777D01*
X0121117Y0139753D01*
X0121087Y0139726D01*
X0121060Y0139697D01*
X0121035Y0139666D01*
X0121013Y0139632D01*
X0120995Y0139597D01*
X0120979Y0139560D01*
X0120967Y0139522D01*
X0120958Y0139483D01*
X0120953Y0139443D01*
X0120951Y0139403D01*
X0120953Y0139363D01*
X0120958Y0139323D01*
X0120967Y0139284D01*
X0120979Y0139246D01*
X0120995Y0139209D01*
X0121013Y0139174D01*
X0121035Y0139140D01*
X0121060Y0139109D01*
X0121087Y0139080D01*
X0121117Y0139053D01*
X0121149Y0139029D01*
X0121183Y0139008D01*
X0121219Y0138990D01*
X0121256Y0138975D01*
X0121256Y0139831D02*
X0121330Y0139865D01*
X0121406Y0139896D01*
X0121484Y0139923D01*
X0121563Y0139947D01*
X0121642Y0139968D01*
X0121723Y0139984D01*
X0121804Y0139997D01*
X0121886Y0140007D01*
X0121968Y0140012D01*
X0122050Y0140014D01*
X0122050Y0138791D02*
X0121968Y0138793D01*
X0121886Y0138798D01*
X0121804Y0138808D01*
X0121723Y0138821D01*
X0121642Y0138837D01*
X0121563Y0138858D01*
X0121484Y0138882D01*
X0121406Y0138909D01*
X0121330Y0138940D01*
X0121256Y0138974D01*
X0122050Y0138791D02*
X0122132Y0138793D01*
X0122214Y0138798D01*
X0122296Y0138808D01*
X0122377Y0138821D01*
X0122458Y0138837D01*
X0122537Y0138858D01*
X0122616Y0138882D01*
X0122694Y0138909D01*
X0122770Y0138940D01*
X0122844Y0138974D01*
X0122539Y0133894D02*
X0121561Y0133894D01*
X0121513Y0133892D01*
X0121465Y0133886D01*
X0121418Y0133877D01*
X0121372Y0133864D01*
X0121327Y0133847D01*
X0121284Y0133827D01*
X0121242Y0133804D01*
X0121202Y0133777D01*
X0121164Y0133748D01*
X0121129Y0133715D01*
X0121096Y0133680D01*
X0121067Y0133642D01*
X0121040Y0133602D01*
X0121017Y0133560D01*
X0120997Y0133517D01*
X0120980Y0133472D01*
X0120967Y0133426D01*
X0120958Y0133379D01*
X0120952Y0133331D01*
X0120950Y0133283D01*
X0120950Y0132672D01*
X0123150Y0132672D01*
X0123150Y0133283D01*
X0123148Y0133331D01*
X0123142Y0133379D01*
X0123133Y0133426D01*
X0123120Y0133472D01*
X0123103Y0133517D01*
X0123083Y0133560D01*
X0123060Y0133602D01*
X0123033Y0133642D01*
X0123004Y0133680D01*
X0122971Y0133715D01*
X0122936Y0133748D01*
X0122898Y0133777D01*
X0122858Y0133804D01*
X0122816Y0133827D01*
X0122773Y0133847D01*
X0122728Y0133864D01*
X0122682Y0133877D01*
X0122635Y0133886D01*
X0122587Y0133892D01*
X0122539Y0133894D01*
X0123150Y0131727D02*
X0123150Y0131238D01*
X0123150Y0131483D02*
X0120950Y0131483D01*
X0120950Y0131727D02*
X0120950Y0131238D01*
X0121561Y0130366D02*
X0122539Y0130366D01*
X0122587Y0130364D01*
X0122635Y0130358D01*
X0122682Y0130349D01*
X0122728Y0130336D01*
X0122773Y0130319D01*
X0122816Y0130299D01*
X0122858Y0130276D01*
X0122898Y0130249D01*
X0122936Y0130220D01*
X0122971Y0130187D01*
X0123004Y0130152D01*
X0123033Y0130114D01*
X0123060Y0130074D01*
X0123083Y0130032D01*
X0123103Y0129989D01*
X0123120Y0129944D01*
X0123133Y0129898D01*
X0123142Y0129851D01*
X0123148Y0129803D01*
X0123150Y0129755D01*
X0123148Y0129707D01*
X0123142Y0129659D01*
X0123133Y0129612D01*
X0123120Y0129566D01*
X0123103Y0129521D01*
X0123083Y0129478D01*
X0123060Y0129436D01*
X0123033Y0129396D01*
X0123004Y0129358D01*
X0122971Y0129323D01*
X0122936Y0129290D01*
X0122898Y0129261D01*
X0122858Y0129234D01*
X0122816Y0129211D01*
X0122773Y0129191D01*
X0122728Y0129174D01*
X0122682Y0129161D01*
X0122635Y0129152D01*
X0122587Y0129146D01*
X0122539Y0129144D01*
X0121561Y0129144D01*
X0121513Y0129146D01*
X0121465Y0129152D01*
X0121418Y0129161D01*
X0121372Y0129174D01*
X0121327Y0129191D01*
X0121284Y0129211D01*
X0121242Y0129234D01*
X0121202Y0129261D01*
X0121164Y0129290D01*
X0121129Y0129323D01*
X0121096Y0129358D01*
X0121067Y0129396D01*
X0121040Y0129436D01*
X0121017Y0129478D01*
X0120997Y0129521D01*
X0120980Y0129566D01*
X0120967Y0129612D01*
X0120958Y0129659D01*
X0120952Y0129707D01*
X0120950Y0129755D01*
X0120952Y0129803D01*
X0120958Y0129851D01*
X0120967Y0129898D01*
X0120980Y0129944D01*
X0120997Y0129989D01*
X0121017Y0130032D01*
X0121040Y0130074D01*
X0121067Y0130114D01*
X0121096Y0130152D01*
X0121129Y0130187D01*
X0121164Y0130220D01*
X0121202Y0130249D01*
X0121242Y0130276D01*
X0121284Y0130299D01*
X0121327Y0130319D01*
X0121372Y0130336D01*
X0121418Y0130349D01*
X0121465Y0130358D01*
X0121513Y0130364D01*
X0121561Y0130366D01*
X0120950Y0128271D02*
X0120950Y0127782D01*
X0120950Y0128027D02*
X0123150Y0128027D01*
X0123150Y0128271D02*
X0123150Y0127782D01*
X0113283Y0128270D02*
X0113283Y0128759D01*
X0113283Y0128270D02*
X0113281Y0128227D01*
X0113276Y0128185D01*
X0113266Y0128143D01*
X0113254Y0128103D01*
X0113237Y0128063D01*
X0113217Y0128026D01*
X0113195Y0127990D01*
X0113169Y0127956D01*
X0113140Y0127924D01*
X0113108Y0127895D01*
X0113074Y0127869D01*
X0113039Y0127847D01*
X0113001Y0127827D01*
X0112961Y0127810D01*
X0112921Y0127798D01*
X0112879Y0127788D01*
X0112837Y0127783D01*
X0112794Y0127781D01*
X0111572Y0127781D01*
X0111529Y0127783D01*
X0111487Y0127788D01*
X0111445Y0127798D01*
X0111405Y0127810D01*
X0111365Y0127827D01*
X0111328Y0127847D01*
X0111292Y0127869D01*
X0111258Y0127895D01*
X0111226Y0127924D01*
X0111197Y0127956D01*
X0111171Y0127990D01*
X0111149Y0128025D01*
X0111129Y0128063D01*
X0111112Y0128103D01*
X0111100Y0128143D01*
X0111090Y0128185D01*
X0111085Y0128227D01*
X0111083Y0128270D01*
X0111083Y0128759D01*
X0111572Y0129576D02*
X0111529Y0129578D01*
X0111487Y0129583D01*
X0111445Y0129593D01*
X0111405Y0129605D01*
X0111365Y0129622D01*
X0111328Y0129642D01*
X0111292Y0129664D01*
X0111258Y0129690D01*
X0111226Y0129719D01*
X0111197Y0129751D01*
X0111171Y0129785D01*
X0111149Y0129821D01*
X0111129Y0129858D01*
X0111112Y0129898D01*
X0111100Y0129938D01*
X0111090Y0129980D01*
X0111085Y0130022D01*
X0111083Y0130065D01*
X0111572Y0129576D02*
X0111615Y0129578D01*
X0111658Y0129583D01*
X0111700Y0129593D01*
X0111741Y0129605D01*
X0111780Y0129622D01*
X0111819Y0129641D01*
X0111855Y0129664D01*
X0111889Y0129690D01*
X0111921Y0129719D01*
X0111950Y0129751D01*
X0111977Y0129785D01*
X0112000Y0129821D01*
X0112366Y0130493D01*
X0113283Y0130248D02*
X0113281Y0130185D01*
X0113275Y0130123D01*
X0113266Y0130061D01*
X0113253Y0130000D01*
X0113236Y0129939D01*
X0113215Y0129880D01*
X0113191Y0129822D01*
X0113163Y0129766D01*
X0113132Y0129711D01*
X0113098Y0129658D01*
X0113061Y0129608D01*
X0113021Y0129560D01*
X0112977Y0129515D01*
X0112366Y0130493D02*
X0112389Y0130529D01*
X0112416Y0130563D01*
X0112445Y0130595D01*
X0112477Y0130624D01*
X0112511Y0130650D01*
X0112547Y0130673D01*
X0112586Y0130692D01*
X0112625Y0130709D01*
X0112666Y0130721D01*
X0112708Y0130731D01*
X0112751Y0130736D01*
X0112794Y0130738D01*
X0112794Y0130737D02*
X0112837Y0130735D01*
X0112879Y0130730D01*
X0112921Y0130720D01*
X0112961Y0130708D01*
X0113001Y0130691D01*
X0113039Y0130671D01*
X0113074Y0130649D01*
X0113108Y0130623D01*
X0113140Y0130594D01*
X0113169Y0130562D01*
X0113195Y0130528D01*
X0113217Y0130493D01*
X0113237Y0130455D01*
X0113254Y0130415D01*
X0113266Y0130375D01*
X0113276Y0130333D01*
X0113281Y0130291D01*
X0113283Y0130248D01*
X0111266Y0130615D02*
X0111233Y0130567D01*
X0111202Y0130517D01*
X0111174Y0130464D01*
X0111151Y0130410D01*
X0111130Y0130355D01*
X0111113Y0130298D01*
X0111100Y0130241D01*
X0111091Y0130183D01*
X0111085Y0130124D01*
X0111083Y0130065D01*
X0111083Y0131675D02*
X0113283Y0132897D01*
X0111083Y0132897D01*
X0111083Y0131675D02*
X0113283Y0131675D01*
X0103087Y0132052D02*
X0103087Y0132540D01*
X0103087Y0132296D02*
X0100887Y0132296D01*
X0100887Y0132052D02*
X0100887Y0132540D01*
X0101376Y0133406D02*
X0102598Y0133406D01*
X0102641Y0133408D01*
X0102683Y0133413D01*
X0102725Y0133423D01*
X0102765Y0133435D01*
X0102805Y0133452D01*
X0102843Y0133472D01*
X0102878Y0133494D01*
X0102912Y0133520D01*
X0102944Y0133549D01*
X0102973Y0133581D01*
X0102999Y0133615D01*
X0103021Y0133651D01*
X0103041Y0133688D01*
X0103058Y0133728D01*
X0103070Y0133768D01*
X0103080Y0133810D01*
X0103085Y0133852D01*
X0103087Y0133895D01*
X0103087Y0134384D01*
X0103087Y0135289D02*
X0103087Y0136267D01*
X0103087Y0137190D02*
X0100887Y0137190D01*
X0101742Y0137678D02*
X0103087Y0138412D01*
X0102231Y0137190D02*
X0100887Y0138412D01*
X0100887Y0135289D02*
X0103087Y0135289D01*
X0101376Y0133406D02*
X0101333Y0133408D01*
X0101291Y0133413D01*
X0101249Y0133423D01*
X0101209Y0133435D01*
X0101169Y0133452D01*
X0101132Y0133472D01*
X0101096Y0133494D01*
X0101062Y0133520D01*
X0101030Y0133549D01*
X0101001Y0133581D01*
X0100975Y0133615D01*
X0100953Y0133650D01*
X0100933Y0133688D01*
X0100916Y0133728D01*
X0100904Y0133768D01*
X0100894Y0133810D01*
X0100889Y0133852D01*
X0100887Y0133895D01*
X0100887Y0134384D01*
X0100887Y0130673D02*
X0100887Y0130062D01*
X0103087Y0130062D01*
X0102109Y0130062D02*
X0102109Y0130673D01*
X0102107Y0130721D01*
X0102101Y0130769D01*
X0102092Y0130816D01*
X0102079Y0130862D01*
X0102062Y0130907D01*
X0102042Y0130950D01*
X0102019Y0130992D01*
X0101992Y0131032D01*
X0101963Y0131070D01*
X0101930Y0131105D01*
X0101895Y0131138D01*
X0101857Y0131167D01*
X0101817Y0131194D01*
X0101775Y0131217D01*
X0101732Y0131237D01*
X0101687Y0131254D01*
X0101641Y0131267D01*
X0101594Y0131276D01*
X0101546Y0131282D01*
X0101498Y0131284D01*
X0101450Y0131282D01*
X0101402Y0131276D01*
X0101355Y0131267D01*
X0101309Y0131254D01*
X0101264Y0131237D01*
X0101221Y0131217D01*
X0101179Y0131194D01*
X0101139Y0131167D01*
X0101101Y0131138D01*
X0101066Y0131105D01*
X0101033Y0131070D01*
X0101004Y0131032D01*
X0100977Y0130992D01*
X0100954Y0130950D01*
X0100934Y0130907D01*
X0100917Y0130862D01*
X0100904Y0130816D01*
X0100895Y0130769D01*
X0100889Y0130721D01*
X0100887Y0130673D01*
X0102170Y0128847D02*
X0101804Y0128174D01*
X0100887Y0128419D02*
X0100889Y0128478D01*
X0100895Y0128537D01*
X0100904Y0128595D01*
X0100917Y0128652D01*
X0100934Y0128709D01*
X0100955Y0128764D01*
X0100978Y0128818D01*
X0101006Y0128871D01*
X0101037Y0128921D01*
X0101070Y0128969D01*
X0101804Y0128175D02*
X0101781Y0128139D01*
X0101754Y0128105D01*
X0101725Y0128073D01*
X0101693Y0128044D01*
X0101659Y0128018D01*
X0101623Y0127995D01*
X0101584Y0127976D01*
X0101545Y0127959D01*
X0101504Y0127947D01*
X0101462Y0127937D01*
X0101419Y0127932D01*
X0101376Y0127930D01*
X0101333Y0127932D01*
X0101291Y0127937D01*
X0101249Y0127947D01*
X0101209Y0127959D01*
X0101169Y0127976D01*
X0101132Y0127996D01*
X0101096Y0128018D01*
X0101062Y0128044D01*
X0101030Y0128073D01*
X0101001Y0128105D01*
X0100975Y0128139D01*
X0100953Y0128175D01*
X0100933Y0128212D01*
X0100916Y0128252D01*
X0100904Y0128292D01*
X0100894Y0128334D01*
X0100889Y0128376D01*
X0100887Y0128419D01*
X0102781Y0127869D02*
X0102825Y0127914D01*
X0102865Y0127962D01*
X0102902Y0128012D01*
X0102936Y0128065D01*
X0102967Y0128120D01*
X0102995Y0128176D01*
X0103019Y0128234D01*
X0103040Y0128293D01*
X0103057Y0128354D01*
X0103070Y0128415D01*
X0103079Y0128477D01*
X0103085Y0128539D01*
X0103087Y0128602D01*
X0103085Y0128645D01*
X0103080Y0128687D01*
X0103070Y0128729D01*
X0103058Y0128769D01*
X0103041Y0128809D01*
X0103021Y0128847D01*
X0102999Y0128882D01*
X0102973Y0128916D01*
X0102944Y0128948D01*
X0102912Y0128977D01*
X0102878Y0129003D01*
X0102843Y0129025D01*
X0102805Y0129045D01*
X0102765Y0129062D01*
X0102725Y0129074D01*
X0102683Y0129084D01*
X0102641Y0129089D01*
X0102598Y0129091D01*
X0102598Y0129092D02*
X0102555Y0129090D01*
X0102512Y0129085D01*
X0102470Y0129075D01*
X0102429Y0129063D01*
X0102390Y0129046D01*
X0102351Y0129027D01*
X0102315Y0129004D01*
X0102281Y0128978D01*
X0102249Y0128949D01*
X0102220Y0128917D01*
X0102193Y0128883D01*
X0102170Y0128847D01*
X0093198Y0129381D02*
X0090998Y0129381D01*
X0092221Y0128647D01*
X0090998Y0127914D01*
X0093198Y0127914D01*
X0092587Y0130412D02*
X0091609Y0130412D01*
X0091561Y0130414D01*
X0091513Y0130420D01*
X0091466Y0130429D01*
X0091420Y0130442D01*
X0091375Y0130459D01*
X0091332Y0130479D01*
X0091290Y0130502D01*
X0091250Y0130529D01*
X0091212Y0130558D01*
X0091177Y0130591D01*
X0091144Y0130626D01*
X0091115Y0130664D01*
X0091088Y0130704D01*
X0091065Y0130746D01*
X0091045Y0130789D01*
X0091028Y0130834D01*
X0091015Y0130880D01*
X0091006Y0130927D01*
X0091000Y0130975D01*
X0090998Y0131023D01*
X0091000Y0131071D01*
X0091006Y0131119D01*
X0091015Y0131166D01*
X0091028Y0131212D01*
X0091045Y0131257D01*
X0091065Y0131300D01*
X0091088Y0131342D01*
X0091115Y0131382D01*
X0091144Y0131420D01*
X0091177Y0131455D01*
X0091212Y0131488D01*
X0091250Y0131517D01*
X0091290Y0131544D01*
X0091332Y0131567D01*
X0091375Y0131587D01*
X0091420Y0131604D01*
X0091466Y0131617D01*
X0091513Y0131626D01*
X0091561Y0131632D01*
X0091609Y0131634D01*
X0092587Y0131634D01*
X0092635Y0131632D01*
X0092683Y0131626D01*
X0092730Y0131617D01*
X0092776Y0131604D01*
X0092821Y0131587D01*
X0092864Y0131567D01*
X0092906Y0131544D01*
X0092946Y0131517D01*
X0092984Y0131488D01*
X0093019Y0131455D01*
X0093052Y0131420D01*
X0093081Y0131382D01*
X0093108Y0131342D01*
X0093131Y0131300D01*
X0093151Y0131257D01*
X0093168Y0131212D01*
X0093181Y0131166D01*
X0093190Y0131119D01*
X0093196Y0131071D01*
X0093198Y0131023D01*
X0093196Y0130975D01*
X0093190Y0130927D01*
X0093181Y0130880D01*
X0093168Y0130834D01*
X0093151Y0130789D01*
X0093131Y0130746D01*
X0093108Y0130704D01*
X0093081Y0130664D01*
X0093052Y0130626D01*
X0093019Y0130591D01*
X0092984Y0130558D01*
X0092946Y0130529D01*
X0092906Y0130502D01*
X0092864Y0130479D01*
X0092821Y0130459D01*
X0092776Y0130442D01*
X0092730Y0130429D01*
X0092683Y0130420D01*
X0092635Y0130414D01*
X0092587Y0130412D01*
X0091915Y0132806D02*
X0092282Y0133478D01*
X0093198Y0133234D02*
X0093196Y0133171D01*
X0093190Y0133109D01*
X0093181Y0133047D01*
X0093168Y0132986D01*
X0093151Y0132925D01*
X0093130Y0132866D01*
X0093106Y0132808D01*
X0093078Y0132752D01*
X0093047Y0132697D01*
X0093013Y0132644D01*
X0092976Y0132594D01*
X0092936Y0132546D01*
X0092892Y0132501D01*
X0092281Y0133478D02*
X0092304Y0133514D01*
X0092331Y0133548D01*
X0092360Y0133580D01*
X0092392Y0133609D01*
X0092426Y0133635D01*
X0092462Y0133658D01*
X0092501Y0133677D01*
X0092540Y0133694D01*
X0092581Y0133706D01*
X0092623Y0133716D01*
X0092666Y0133721D01*
X0092709Y0133723D01*
X0092752Y0133721D01*
X0092794Y0133716D01*
X0092836Y0133706D01*
X0092876Y0133694D01*
X0092916Y0133677D01*
X0092954Y0133657D01*
X0092989Y0133635D01*
X0093023Y0133609D01*
X0093055Y0133580D01*
X0093084Y0133548D01*
X0093110Y0133514D01*
X0093132Y0133479D01*
X0093152Y0133441D01*
X0093169Y0133401D01*
X0093181Y0133361D01*
X0093191Y0133319D01*
X0093196Y0133277D01*
X0093198Y0133234D01*
X0093198Y0134523D02*
X0093198Y0135012D01*
X0093198Y0134767D02*
X0090998Y0134767D01*
X0090998Y0134523D02*
X0090998Y0135012D01*
X0091915Y0132806D02*
X0091892Y0132770D01*
X0091865Y0132736D01*
X0091836Y0132704D01*
X0091804Y0132675D01*
X0091770Y0132649D01*
X0091734Y0132626D01*
X0091695Y0132607D01*
X0091656Y0132590D01*
X0091615Y0132578D01*
X0091573Y0132568D01*
X0091530Y0132563D01*
X0091487Y0132561D01*
X0091444Y0132563D01*
X0091402Y0132568D01*
X0091360Y0132578D01*
X0091320Y0132590D01*
X0091280Y0132607D01*
X0091243Y0132627D01*
X0091207Y0132649D01*
X0091173Y0132675D01*
X0091141Y0132704D01*
X0091112Y0132736D01*
X0091086Y0132770D01*
X0091064Y0132806D01*
X0091044Y0132843D01*
X0091027Y0132883D01*
X0091015Y0132923D01*
X0091005Y0132965D01*
X0091000Y0133007D01*
X0090998Y0133050D01*
X0091000Y0133109D01*
X0091006Y0133168D01*
X0091015Y0133226D01*
X0091028Y0133283D01*
X0091045Y0133340D01*
X0091066Y0133395D01*
X0091089Y0133449D01*
X0091117Y0133502D01*
X0091148Y0133552D01*
X0091181Y0133600D01*
X0082997Y0130836D02*
X0082997Y0130347D01*
X0082997Y0130591D02*
X0080797Y0130591D01*
X0080797Y0130347D02*
X0080797Y0130836D01*
X0081286Y0131697D02*
X0081243Y0131699D01*
X0081201Y0131704D01*
X0081159Y0131714D01*
X0081119Y0131726D01*
X0081079Y0131743D01*
X0081042Y0131763D01*
X0081006Y0131785D01*
X0080972Y0131811D01*
X0080940Y0131840D01*
X0080911Y0131872D01*
X0080885Y0131906D01*
X0080863Y0131942D01*
X0080843Y0131979D01*
X0080826Y0132019D01*
X0080814Y0132059D01*
X0080804Y0132101D01*
X0080799Y0132143D01*
X0080797Y0132186D01*
X0081286Y0131697D02*
X0081329Y0131699D01*
X0081372Y0131704D01*
X0081414Y0131714D01*
X0081455Y0131726D01*
X0081494Y0131743D01*
X0081533Y0131762D01*
X0081569Y0131785D01*
X0081603Y0131811D01*
X0081635Y0131840D01*
X0081664Y0131872D01*
X0081691Y0131906D01*
X0081714Y0131942D01*
X0082080Y0132614D01*
X0082997Y0132370D02*
X0082995Y0132307D01*
X0082989Y0132245D01*
X0082980Y0132183D01*
X0082967Y0132122D01*
X0082950Y0132061D01*
X0082929Y0132002D01*
X0082905Y0131944D01*
X0082877Y0131888D01*
X0082846Y0131833D01*
X0082812Y0131780D01*
X0082775Y0131730D01*
X0082735Y0131682D01*
X0082691Y0131637D01*
X0082080Y0132614D02*
X0082103Y0132650D01*
X0082130Y0132684D01*
X0082159Y0132716D01*
X0082191Y0132745D01*
X0082225Y0132771D01*
X0082261Y0132794D01*
X0082300Y0132813D01*
X0082339Y0132830D01*
X0082380Y0132842D01*
X0082422Y0132852D01*
X0082465Y0132857D01*
X0082508Y0132859D01*
X0082551Y0132857D01*
X0082593Y0132852D01*
X0082635Y0132842D01*
X0082675Y0132830D01*
X0082715Y0132813D01*
X0082753Y0132793D01*
X0082788Y0132771D01*
X0082822Y0132745D01*
X0082854Y0132716D01*
X0082883Y0132684D01*
X0082909Y0132650D01*
X0082931Y0132615D01*
X0082951Y0132577D01*
X0082968Y0132537D01*
X0082980Y0132497D01*
X0082990Y0132455D01*
X0082995Y0132413D01*
X0082997Y0132370D01*
X0080980Y0132736D02*
X0080947Y0132688D01*
X0080916Y0132638D01*
X0080888Y0132585D01*
X0080865Y0132531D01*
X0080844Y0132476D01*
X0080827Y0132419D01*
X0080814Y0132362D01*
X0080805Y0132304D01*
X0080799Y0132245D01*
X0080797Y0132186D01*
X0081408Y0133724D02*
X0082386Y0133724D01*
X0082434Y0133726D01*
X0082482Y0133732D01*
X0082529Y0133741D01*
X0082575Y0133754D01*
X0082620Y0133771D01*
X0082663Y0133791D01*
X0082705Y0133814D01*
X0082745Y0133841D01*
X0082783Y0133870D01*
X0082818Y0133903D01*
X0082851Y0133938D01*
X0082880Y0133976D01*
X0082907Y0134016D01*
X0082930Y0134058D01*
X0082950Y0134101D01*
X0082967Y0134146D01*
X0082980Y0134192D01*
X0082989Y0134239D01*
X0082995Y0134287D01*
X0082997Y0134335D01*
X0082995Y0134383D01*
X0082989Y0134431D01*
X0082980Y0134478D01*
X0082967Y0134524D01*
X0082950Y0134569D01*
X0082930Y0134612D01*
X0082907Y0134654D01*
X0082880Y0134694D01*
X0082851Y0134732D01*
X0082818Y0134767D01*
X0082783Y0134800D01*
X0082745Y0134829D01*
X0082705Y0134856D01*
X0082663Y0134879D01*
X0082620Y0134899D01*
X0082575Y0134916D01*
X0082529Y0134929D01*
X0082482Y0134938D01*
X0082434Y0134944D01*
X0082386Y0134946D01*
X0081408Y0134946D01*
X0081360Y0134944D01*
X0081312Y0134938D01*
X0081265Y0134929D01*
X0081219Y0134916D01*
X0081174Y0134899D01*
X0081131Y0134879D01*
X0081089Y0134856D01*
X0081049Y0134829D01*
X0081011Y0134800D01*
X0080976Y0134767D01*
X0080943Y0134732D01*
X0080914Y0134694D01*
X0080887Y0134654D01*
X0080864Y0134612D01*
X0080844Y0134569D01*
X0080827Y0134524D01*
X0080814Y0134478D01*
X0080805Y0134431D01*
X0080799Y0134383D01*
X0080797Y0134335D01*
X0080799Y0134287D01*
X0080805Y0134239D01*
X0080814Y0134192D01*
X0080827Y0134146D01*
X0080844Y0134101D01*
X0080864Y0134058D01*
X0080887Y0134016D01*
X0080914Y0133976D01*
X0080943Y0133938D01*
X0080976Y0133903D01*
X0081011Y0133870D01*
X0081049Y0133841D01*
X0081089Y0133814D01*
X0081131Y0133791D01*
X0081174Y0133771D01*
X0081219Y0133754D01*
X0081265Y0133741D01*
X0081312Y0133732D01*
X0081360Y0133726D01*
X0081408Y0133724D01*
X0080797Y0129381D02*
X0082997Y0129381D01*
X0082019Y0128647D02*
X0080797Y0129381D01*
X0082019Y0128647D02*
X0080797Y0127914D01*
X0082997Y0127914D01*
X0073212Y0127983D02*
X0073212Y0128472D01*
X0073212Y0128228D02*
X0071012Y0128228D01*
X0071012Y0128472D02*
X0071012Y0127983D01*
X0071012Y0129439D02*
X0072234Y0130172D01*
X0071012Y0130905D01*
X0073212Y0130905D01*
X0072601Y0132009D02*
X0071012Y0132009D01*
X0071012Y0133231D02*
X0072601Y0133231D01*
X0072649Y0133229D01*
X0072697Y0133223D01*
X0072744Y0133214D01*
X0072790Y0133201D01*
X0072835Y0133184D01*
X0072878Y0133164D01*
X0072920Y0133141D01*
X0072960Y0133114D01*
X0072998Y0133085D01*
X0073033Y0133052D01*
X0073066Y0133017D01*
X0073095Y0132979D01*
X0073122Y0132939D01*
X0073145Y0132897D01*
X0073165Y0132854D01*
X0073182Y0132809D01*
X0073195Y0132763D01*
X0073204Y0132716D01*
X0073210Y0132668D01*
X0073212Y0132620D01*
X0073210Y0132572D01*
X0073204Y0132524D01*
X0073195Y0132477D01*
X0073182Y0132431D01*
X0073165Y0132386D01*
X0073145Y0132343D01*
X0073122Y0132301D01*
X0073095Y0132261D01*
X0073066Y0132223D01*
X0073033Y0132188D01*
X0072998Y0132155D01*
X0072960Y0132126D01*
X0072920Y0132099D01*
X0072878Y0132076D01*
X0072835Y0132056D01*
X0072790Y0132039D01*
X0072744Y0132026D01*
X0072697Y0132017D01*
X0072649Y0132011D01*
X0072601Y0132009D01*
X0072723Y0134313D02*
X0071501Y0134313D01*
X0071458Y0134315D01*
X0071416Y0134320D01*
X0071374Y0134330D01*
X0071334Y0134342D01*
X0071294Y0134359D01*
X0071257Y0134379D01*
X0071221Y0134401D01*
X0071187Y0134427D01*
X0071155Y0134456D01*
X0071126Y0134488D01*
X0071100Y0134522D01*
X0071078Y0134557D01*
X0071058Y0134595D01*
X0071041Y0134635D01*
X0071029Y0134675D01*
X0071019Y0134717D01*
X0071014Y0134759D01*
X0071012Y0134802D01*
X0071012Y0135535D01*
X0071990Y0135535D02*
X0073212Y0135535D01*
X0073212Y0134802D01*
X0073210Y0134759D01*
X0073205Y0134717D01*
X0073195Y0134675D01*
X0073183Y0134635D01*
X0073166Y0134595D01*
X0073146Y0134558D01*
X0073124Y0134522D01*
X0073098Y0134488D01*
X0073069Y0134456D01*
X0073037Y0134427D01*
X0073003Y0134401D01*
X0072968Y0134379D01*
X0072930Y0134359D01*
X0072890Y0134342D01*
X0072850Y0134330D01*
X0072808Y0134320D01*
X0072766Y0134315D01*
X0072723Y0134313D01*
X0071990Y0135168D02*
X0071990Y0135535D01*
X0071012Y0136617D02*
X0073212Y0137839D01*
X0071012Y0137839D01*
X0071012Y0138921D02*
X0071012Y0139532D01*
X0071014Y0139580D01*
X0071020Y0139628D01*
X0071029Y0139675D01*
X0071042Y0139721D01*
X0071059Y0139766D01*
X0071079Y0139809D01*
X0071102Y0139851D01*
X0071129Y0139891D01*
X0071158Y0139929D01*
X0071191Y0139964D01*
X0071226Y0139997D01*
X0071264Y0140026D01*
X0071304Y0140053D01*
X0071346Y0140076D01*
X0071389Y0140096D01*
X0071434Y0140113D01*
X0071480Y0140126D01*
X0071527Y0140135D01*
X0071575Y0140141D01*
X0071623Y0140143D01*
X0072601Y0140143D01*
X0072649Y0140141D01*
X0072697Y0140135D01*
X0072744Y0140126D01*
X0072790Y0140113D01*
X0072835Y0140096D01*
X0072878Y0140076D01*
X0072920Y0140053D01*
X0072960Y0140026D01*
X0072998Y0139997D01*
X0073033Y0139964D01*
X0073066Y0139929D01*
X0073095Y0139891D01*
X0073122Y0139851D01*
X0073145Y0139809D01*
X0073165Y0139766D01*
X0073182Y0139721D01*
X0073195Y0139675D01*
X0073204Y0139628D01*
X0073210Y0139580D01*
X0073212Y0139532D01*
X0073212Y0138921D01*
X0071012Y0138921D01*
X0071012Y0136617D02*
X0073212Y0136617D01*
X0073212Y0129439D02*
X0071012Y0129439D01*
X0063219Y0130415D02*
X0063219Y0130904D01*
X0063219Y0130415D02*
X0063217Y0130372D01*
X0063212Y0130330D01*
X0063202Y0130288D01*
X0063190Y0130248D01*
X0063173Y0130208D01*
X0063153Y0130171D01*
X0063131Y0130135D01*
X0063105Y0130101D01*
X0063076Y0130069D01*
X0063044Y0130040D01*
X0063010Y0130014D01*
X0062975Y0129992D01*
X0062937Y0129972D01*
X0062897Y0129955D01*
X0062857Y0129943D01*
X0062815Y0129933D01*
X0062773Y0129928D01*
X0062730Y0129926D01*
X0061508Y0129926D01*
X0061465Y0129928D01*
X0061423Y0129933D01*
X0061381Y0129943D01*
X0061341Y0129955D01*
X0061301Y0129972D01*
X0061264Y0129992D01*
X0061228Y0130014D01*
X0061194Y0130040D01*
X0061162Y0130069D01*
X0061133Y0130101D01*
X0061107Y0130135D01*
X0061085Y0130170D01*
X0061065Y0130208D01*
X0061048Y0130248D01*
X0061036Y0130288D01*
X0061026Y0130330D01*
X0061021Y0130372D01*
X0061019Y0130415D01*
X0061019Y0130904D01*
X0061019Y0131809D02*
X0063219Y0131809D01*
X0063219Y0132787D01*
X0062302Y0128822D02*
X0061935Y0128150D01*
X0061018Y0128395D02*
X0061020Y0128454D01*
X0061026Y0128513D01*
X0061035Y0128571D01*
X0061048Y0128628D01*
X0061065Y0128685D01*
X0061086Y0128740D01*
X0061109Y0128794D01*
X0061137Y0128847D01*
X0061168Y0128897D01*
X0061201Y0128945D01*
X0061936Y0128150D02*
X0061913Y0128114D01*
X0061886Y0128080D01*
X0061857Y0128048D01*
X0061825Y0128019D01*
X0061791Y0127993D01*
X0061755Y0127970D01*
X0061716Y0127951D01*
X0061677Y0127934D01*
X0061636Y0127922D01*
X0061594Y0127912D01*
X0061551Y0127907D01*
X0061508Y0127905D01*
X0061508Y0127906D02*
X0061465Y0127908D01*
X0061423Y0127913D01*
X0061381Y0127923D01*
X0061341Y0127935D01*
X0061301Y0127952D01*
X0061264Y0127972D01*
X0061228Y0127994D01*
X0061194Y0128020D01*
X0061162Y0128049D01*
X0061133Y0128081D01*
X0061107Y0128115D01*
X0061085Y0128151D01*
X0061065Y0128188D01*
X0061048Y0128228D01*
X0061036Y0128268D01*
X0061026Y0128310D01*
X0061021Y0128352D01*
X0061019Y0128395D01*
X0062913Y0127845D02*
X0062957Y0127890D01*
X0062997Y0127938D01*
X0063034Y0127988D01*
X0063068Y0128041D01*
X0063099Y0128096D01*
X0063127Y0128152D01*
X0063151Y0128210D01*
X0063172Y0128269D01*
X0063189Y0128330D01*
X0063202Y0128391D01*
X0063211Y0128453D01*
X0063217Y0128515D01*
X0063219Y0128578D01*
X0063217Y0128621D01*
X0063212Y0128663D01*
X0063202Y0128705D01*
X0063190Y0128745D01*
X0063173Y0128785D01*
X0063153Y0128823D01*
X0063131Y0128858D01*
X0063105Y0128892D01*
X0063076Y0128924D01*
X0063044Y0128953D01*
X0063010Y0128979D01*
X0062975Y0129001D01*
X0062937Y0129021D01*
X0062897Y0129038D01*
X0062857Y0129050D01*
X0062815Y0129060D01*
X0062773Y0129065D01*
X0062730Y0129067D01*
X0062687Y0129065D01*
X0062644Y0129060D01*
X0062602Y0129050D01*
X0062561Y0129038D01*
X0062522Y0129021D01*
X0062483Y0129002D01*
X0062447Y0128979D01*
X0062413Y0128953D01*
X0062381Y0128924D01*
X0062352Y0128892D01*
X0062325Y0128858D01*
X0062302Y0128822D01*
X0053193Y0130081D02*
X0053193Y0130692D01*
X0053191Y0130740D01*
X0053185Y0130788D01*
X0053176Y0130835D01*
X0053163Y0130881D01*
X0053146Y0130926D01*
X0053126Y0130969D01*
X0053103Y0131011D01*
X0053076Y0131051D01*
X0053047Y0131089D01*
X0053014Y0131124D01*
X0052979Y0131157D01*
X0052941Y0131186D01*
X0052901Y0131213D01*
X0052859Y0131236D01*
X0052816Y0131256D01*
X0052771Y0131273D01*
X0052725Y0131286D01*
X0052678Y0131295D01*
X0052630Y0131301D01*
X0052582Y0131303D01*
X0051604Y0131303D01*
X0051556Y0131301D01*
X0051508Y0131295D01*
X0051461Y0131286D01*
X0051415Y0131273D01*
X0051370Y0131256D01*
X0051327Y0131236D01*
X0051285Y0131213D01*
X0051245Y0131186D01*
X0051207Y0131157D01*
X0051172Y0131124D01*
X0051139Y0131089D01*
X0051110Y0131051D01*
X0051083Y0131011D01*
X0051060Y0130969D01*
X0051040Y0130926D01*
X0051023Y0130881D01*
X0051010Y0130835D01*
X0051001Y0130788D01*
X0050995Y0130740D01*
X0050993Y0130692D01*
X0050993Y0130081D01*
X0053193Y0130081D01*
X0052276Y0128899D02*
X0051910Y0128226D01*
X0050993Y0128471D02*
X0050995Y0128530D01*
X0051001Y0128589D01*
X0051010Y0128647D01*
X0051023Y0128704D01*
X0051040Y0128761D01*
X0051061Y0128816D01*
X0051084Y0128870D01*
X0051112Y0128923D01*
X0051143Y0128973D01*
X0051176Y0129021D01*
X0051910Y0128227D02*
X0051887Y0128191D01*
X0051860Y0128157D01*
X0051831Y0128125D01*
X0051799Y0128096D01*
X0051765Y0128070D01*
X0051729Y0128047D01*
X0051690Y0128028D01*
X0051651Y0128011D01*
X0051610Y0127999D01*
X0051568Y0127989D01*
X0051525Y0127984D01*
X0051482Y0127982D01*
X0051439Y0127984D01*
X0051397Y0127989D01*
X0051355Y0127999D01*
X0051315Y0128011D01*
X0051275Y0128028D01*
X0051238Y0128048D01*
X0051202Y0128070D01*
X0051168Y0128096D01*
X0051136Y0128125D01*
X0051107Y0128157D01*
X0051081Y0128191D01*
X0051059Y0128227D01*
X0051039Y0128264D01*
X0051022Y0128304D01*
X0051010Y0128344D01*
X0051000Y0128386D01*
X0050995Y0128428D01*
X0050993Y0128471D01*
X0052887Y0127921D02*
X0052931Y0127966D01*
X0052971Y0128014D01*
X0053008Y0128064D01*
X0053042Y0128117D01*
X0053073Y0128172D01*
X0053101Y0128228D01*
X0053125Y0128286D01*
X0053146Y0128345D01*
X0053163Y0128406D01*
X0053176Y0128467D01*
X0053185Y0128529D01*
X0053191Y0128591D01*
X0053193Y0128654D01*
X0053191Y0128697D01*
X0053186Y0128739D01*
X0053176Y0128781D01*
X0053164Y0128821D01*
X0053147Y0128861D01*
X0053127Y0128899D01*
X0053105Y0128934D01*
X0053079Y0128968D01*
X0053050Y0129000D01*
X0053018Y0129029D01*
X0052984Y0129055D01*
X0052949Y0129077D01*
X0052911Y0129097D01*
X0052871Y0129114D01*
X0052831Y0129126D01*
X0052789Y0129136D01*
X0052747Y0129141D01*
X0052704Y0129143D01*
X0052704Y0129144D02*
X0052661Y0129142D01*
X0052618Y0129137D01*
X0052576Y0129127D01*
X0052535Y0129115D01*
X0052496Y0129098D01*
X0052457Y0129079D01*
X0052421Y0129056D01*
X0052387Y0129030D01*
X0052355Y0129001D01*
X0052326Y0128969D01*
X0052299Y0128935D01*
X0052276Y0128899D01*
X0053193Y0132191D02*
X0050993Y0132924D01*
X0053193Y0133657D01*
X0052643Y0133474D02*
X0052643Y0132374D01*
X0043519Y0132572D02*
X0043519Y0131961D01*
X0041319Y0131961D01*
X0041319Y0132572D01*
X0041321Y0132620D01*
X0041327Y0132668D01*
X0041336Y0132715D01*
X0041349Y0132761D01*
X0041366Y0132806D01*
X0041386Y0132849D01*
X0041409Y0132891D01*
X0041436Y0132931D01*
X0041465Y0132969D01*
X0041498Y0133004D01*
X0041533Y0133037D01*
X0041571Y0133066D01*
X0041611Y0133093D01*
X0041653Y0133116D01*
X0041696Y0133136D01*
X0041741Y0133153D01*
X0041787Y0133166D01*
X0041834Y0133175D01*
X0041882Y0133181D01*
X0041930Y0133183D01*
X0041930Y0133184D02*
X0042908Y0133184D01*
X0042908Y0133183D02*
X0042956Y0133181D01*
X0043004Y0133175D01*
X0043051Y0133166D01*
X0043097Y0133153D01*
X0043142Y0133136D01*
X0043185Y0133116D01*
X0043227Y0133093D01*
X0043267Y0133066D01*
X0043305Y0133037D01*
X0043340Y0133004D01*
X0043373Y0132969D01*
X0043402Y0132931D01*
X0043429Y0132891D01*
X0043452Y0132849D01*
X0043472Y0132806D01*
X0043489Y0132761D01*
X0043502Y0132715D01*
X0043511Y0132668D01*
X0043517Y0132620D01*
X0043519Y0132572D01*
X0043519Y0131074D02*
X0041319Y0129607D01*
X0041319Y0128936D02*
X0041319Y0127713D01*
X0041319Y0128325D02*
X0043519Y0128325D01*
X0043519Y0129607D02*
X0041319Y0131074D01*
X0032601Y0130697D02*
X0030401Y0129231D01*
X0030401Y0127818D02*
X0030401Y0127207D01*
X0032601Y0127207D01*
X0031623Y0127207D02*
X0031623Y0127818D01*
X0031623Y0127940D02*
X0032601Y0128429D01*
X0032601Y0129231D02*
X0030401Y0130697D01*
X0030401Y0131585D02*
X0030401Y0132196D01*
X0030403Y0132244D01*
X0030409Y0132292D01*
X0030418Y0132339D01*
X0030431Y0132385D01*
X0030448Y0132430D01*
X0030468Y0132473D01*
X0030491Y0132515D01*
X0030518Y0132555D01*
X0030547Y0132593D01*
X0030580Y0132628D01*
X0030615Y0132661D01*
X0030653Y0132690D01*
X0030693Y0132717D01*
X0030735Y0132740D01*
X0030778Y0132760D01*
X0030823Y0132777D01*
X0030869Y0132790D01*
X0030916Y0132799D01*
X0030964Y0132805D01*
X0031012Y0132807D01*
X0031989Y0132807D01*
X0032037Y0132805D01*
X0032085Y0132799D01*
X0032132Y0132790D01*
X0032178Y0132777D01*
X0032223Y0132760D01*
X0032266Y0132740D01*
X0032308Y0132717D01*
X0032348Y0132690D01*
X0032386Y0132661D01*
X0032421Y0132628D01*
X0032454Y0132593D01*
X0032483Y0132555D01*
X0032510Y0132515D01*
X0032533Y0132473D01*
X0032553Y0132430D01*
X0032570Y0132385D01*
X0032583Y0132339D01*
X0032592Y0132292D01*
X0032598Y0132244D01*
X0032600Y0132196D01*
X0032601Y0132196D02*
X0032601Y0131585D01*
X0030401Y0131585D01*
X0030401Y0127818D02*
X0030403Y0127866D01*
X0030409Y0127914D01*
X0030418Y0127961D01*
X0030431Y0128007D01*
X0030448Y0128052D01*
X0030468Y0128095D01*
X0030491Y0128137D01*
X0030518Y0128177D01*
X0030547Y0128215D01*
X0030580Y0128250D01*
X0030615Y0128283D01*
X0030653Y0128312D01*
X0030693Y0128339D01*
X0030735Y0128362D01*
X0030778Y0128382D01*
X0030823Y0128399D01*
X0030869Y0128412D01*
X0030916Y0128421D01*
X0030964Y0128427D01*
X0031012Y0128429D01*
X0031060Y0128427D01*
X0031108Y0128421D01*
X0031155Y0128412D01*
X0031201Y0128399D01*
X0031246Y0128382D01*
X0031289Y0128362D01*
X0031331Y0128339D01*
X0031371Y0128312D01*
X0031409Y0128283D01*
X0031444Y0128250D01*
X0031477Y0128215D01*
X0031506Y0128177D01*
X0031533Y0128137D01*
X0031556Y0128095D01*
X0031576Y0128052D01*
X0031593Y0128007D01*
X0031606Y0127961D01*
X0031615Y0127914D01*
X0031621Y0127866D01*
X0031623Y0127818D01*
X0173325Y0131659D02*
X0173325Y0132393D01*
X0173325Y0131659D02*
X0173327Y0131616D01*
X0173332Y0131574D01*
X0173342Y0131532D01*
X0173354Y0131492D01*
X0173371Y0131452D01*
X0173391Y0131414D01*
X0173413Y0131379D01*
X0173439Y0131345D01*
X0173468Y0131313D01*
X0173500Y0131284D01*
X0173534Y0131258D01*
X0173570Y0131236D01*
X0173607Y0131216D01*
X0173647Y0131199D01*
X0173687Y0131187D01*
X0173729Y0131177D01*
X0173771Y0131172D01*
X0173814Y0131170D01*
X0173814Y0131171D02*
X0175036Y0131171D01*
X0175036Y0131170D02*
X0175079Y0131172D01*
X0175121Y0131177D01*
X0175163Y0131187D01*
X0175203Y0131199D01*
X0175243Y0131216D01*
X0175281Y0131236D01*
X0175316Y0131258D01*
X0175350Y0131284D01*
X0175382Y0131313D01*
X0175411Y0131345D01*
X0175437Y0131379D01*
X0175459Y0131415D01*
X0175479Y0131452D01*
X0175496Y0131492D01*
X0175508Y0131532D01*
X0175518Y0131574D01*
X0175523Y0131616D01*
X0175525Y0131659D01*
X0175525Y0132393D01*
X0174303Y0132393D01*
X0174303Y0132026D01*
X0173325Y0133475D02*
X0175525Y0134697D01*
X0173325Y0134697D01*
X0173325Y0135779D02*
X0173325Y0136390D01*
X0173327Y0136438D01*
X0173333Y0136486D01*
X0173342Y0136533D01*
X0173355Y0136579D01*
X0173372Y0136624D01*
X0173392Y0136667D01*
X0173415Y0136709D01*
X0173442Y0136749D01*
X0173471Y0136787D01*
X0173504Y0136822D01*
X0173539Y0136855D01*
X0173577Y0136884D01*
X0173617Y0136911D01*
X0173659Y0136934D01*
X0173702Y0136954D01*
X0173747Y0136971D01*
X0173793Y0136984D01*
X0173840Y0136993D01*
X0173888Y0136999D01*
X0173936Y0137001D01*
X0174914Y0137001D01*
X0174962Y0136999D01*
X0175010Y0136993D01*
X0175057Y0136984D01*
X0175103Y0136971D01*
X0175148Y0136954D01*
X0175191Y0136934D01*
X0175233Y0136911D01*
X0175273Y0136884D01*
X0175311Y0136855D01*
X0175346Y0136822D01*
X0175379Y0136787D01*
X0175408Y0136749D01*
X0175435Y0136709D01*
X0175458Y0136667D01*
X0175478Y0136624D01*
X0175495Y0136579D01*
X0175508Y0136533D01*
X0175517Y0136486D01*
X0175523Y0136438D01*
X0175525Y0136390D01*
X0175525Y0135779D01*
X0173325Y0135779D01*
X0173325Y0133475D02*
X0175525Y0133475D01*
D13*
X0175823Y0141923D02*
X0002595Y0141923D01*
X0002595Y0197041D01*
X0175823Y0197041D01*
X0175823Y0141923D01*
X0190890Y0123134D02*
X0190890Y0118410D01*
X0192858Y0120772D02*
X0188921Y0120772D01*
X0190496Y0104630D02*
X0190496Y0099906D01*
X0154422Y0104463D02*
X0154422Y0074542D01*
X0154413Y0074542D02*
X0153704Y0074542D01*
X0143192Y0074503D02*
X0142523Y0074503D01*
X0142513Y0074542D02*
X0142513Y0104463D01*
X0142523Y0104503D02*
X0143113Y0104503D01*
X0140259Y0103695D02*
X0140259Y0091884D01*
X0127661Y0091884D01*
X0127661Y0103695D01*
X0140259Y0103695D01*
X0152599Y0096235D02*
X0152601Y0096268D01*
X0152607Y0096300D01*
X0152616Y0096332D01*
X0152630Y0096362D01*
X0152646Y0096390D01*
X0152666Y0096416D01*
X0152689Y0096440D01*
X0152715Y0096461D01*
X0152743Y0096478D01*
X0152773Y0096493D01*
X0152804Y0096503D01*
X0152836Y0096510D01*
X0152869Y0096513D01*
X0152902Y0096512D01*
X0152934Y0096507D01*
X0152966Y0096498D01*
X0152997Y0096486D01*
X0153025Y0096470D01*
X0153052Y0096451D01*
X0153076Y0096429D01*
X0153098Y0096404D01*
X0153116Y0096376D01*
X0153131Y0096347D01*
X0153143Y0096316D01*
X0153151Y0096284D01*
X0153155Y0096251D01*
X0153155Y0096219D01*
X0153151Y0096186D01*
X0153143Y0096154D01*
X0153131Y0096123D01*
X0153116Y0096094D01*
X0153098Y0096066D01*
X0153076Y0096041D01*
X0153052Y0096019D01*
X0153025Y0096000D01*
X0152997Y0095984D01*
X0152966Y0095972D01*
X0152934Y0095963D01*
X0152902Y0095958D01*
X0152869Y0095957D01*
X0152836Y0095960D01*
X0152804Y0095967D01*
X0152773Y0095977D01*
X0152743Y0095992D01*
X0152715Y0096009D01*
X0152689Y0096030D01*
X0152666Y0096054D01*
X0152646Y0096080D01*
X0152630Y0096108D01*
X0152616Y0096138D01*
X0152607Y0096170D01*
X0152601Y0096202D01*
X0152599Y0096235D01*
X0153783Y0104542D02*
X0154413Y0104542D01*
X0133717Y0074326D02*
X0133717Y0047161D01*
X0106551Y0047161D01*
X0106551Y0074326D01*
X0133717Y0074326D01*
X0113870Y0077551D02*
X0098122Y0077551D01*
X0098122Y0087394D01*
X0100090Y0089362D01*
X0113870Y0089362D01*
X0113870Y0077551D01*
X0100090Y0089362D02*
X0098122Y0089362D01*
X0098122Y0087394D01*
X0094817Y0095974D02*
X0086943Y0095974D01*
X0086943Y0103849D01*
X0094817Y0103849D01*
X0094817Y0095974D01*
X0098323Y0070468D02*
X0098325Y0070495D01*
X0098331Y0070522D01*
X0098340Y0070548D01*
X0098353Y0070572D01*
X0098369Y0070595D01*
X0098388Y0070614D01*
X0098410Y0070631D01*
X0098434Y0070645D01*
X0098459Y0070655D01*
X0098486Y0070662D01*
X0098513Y0070665D01*
X0098541Y0070664D01*
X0098568Y0070659D01*
X0098594Y0070651D01*
X0098618Y0070639D01*
X0098641Y0070623D01*
X0098662Y0070605D01*
X0098679Y0070584D01*
X0098694Y0070560D01*
X0098705Y0070535D01*
X0098713Y0070509D01*
X0098717Y0070482D01*
X0098717Y0070454D01*
X0098713Y0070427D01*
X0098705Y0070401D01*
X0098694Y0070376D01*
X0098679Y0070352D01*
X0098662Y0070331D01*
X0098641Y0070313D01*
X0098619Y0070297D01*
X0098594Y0070285D01*
X0098568Y0070277D01*
X0098541Y0070272D01*
X0098513Y0070271D01*
X0098486Y0070274D01*
X0098459Y0070281D01*
X0098434Y0070291D01*
X0098410Y0070305D01*
X0098388Y0070322D01*
X0098369Y0070341D01*
X0098353Y0070364D01*
X0098340Y0070388D01*
X0098331Y0070414D01*
X0098325Y0070441D01*
X0098323Y0070468D01*
X0069543Y0072712D02*
X0069543Y0056964D01*
X0061669Y0056964D01*
X0061669Y0072712D01*
X0069543Y0072712D01*
X0158107Y0163576D02*
X0158107Y0175387D01*
X0164012Y0169482D02*
X0152201Y0169482D01*
X0026217Y0169482D02*
X0014406Y0169482D01*
D14*
X0089403Y0100404D02*
X0089403Y0096467D01*
X0092356Y0096467D02*
X0092356Y0100404D01*
X0089403Y0100404D01*
X0097732Y0072043D02*
X0104031Y0072043D01*
X0104031Y0068893D01*
X0097732Y0068893D01*
X0097732Y0072043D01*
X0075803Y0024012D02*
X0063205Y0024012D01*
X0063205Y0009445D01*
X0075803Y0009445D01*
X0075803Y0024012D01*
D15*
X0089268Y0035939D02*
X0089268Y0036179D01*
X0101630Y0036061D02*
X0101630Y0035821D01*
X0073207Y0061098D02*
X0072967Y0061098D01*
X0076000Y0069718D02*
X0076000Y0069958D01*
X0094548Y0071488D02*
X0094788Y0071488D01*
X0114937Y0095351D02*
X0115178Y0095351D01*
X0119146Y0095335D02*
X0119387Y0095335D01*
X0123455Y0095396D02*
X0123695Y0095396D01*
X0149777Y0069245D02*
X0149777Y0069005D01*
X0133605Y0042262D02*
X0133605Y0042022D01*
D16*
X0133619Y0044399D02*
X0133619Y0045899D01*
X0133202Y0045565D01*
X0132665Y0045899D02*
X0132332Y0045899D01*
X0132332Y0045898D02*
X0132297Y0045896D01*
X0132263Y0045891D01*
X0132229Y0045882D01*
X0132197Y0045869D01*
X0132165Y0045853D01*
X0132136Y0045834D01*
X0132109Y0045812D01*
X0132085Y0045788D01*
X0132063Y0045761D01*
X0132044Y0045731D01*
X0132028Y0045700D01*
X0132015Y0045668D01*
X0132006Y0045634D01*
X0132001Y0045600D01*
X0131999Y0045565D01*
X0131999Y0044732D01*
X0132001Y0044697D01*
X0132006Y0044663D01*
X0132015Y0044629D01*
X0132028Y0044597D01*
X0132044Y0044566D01*
X0132063Y0044536D01*
X0132085Y0044509D01*
X0132109Y0044485D01*
X0132136Y0044463D01*
X0132166Y0044444D01*
X0132197Y0044428D01*
X0132229Y0044415D01*
X0132263Y0044406D01*
X0132297Y0044401D01*
X0132332Y0044399D01*
X0132665Y0044399D01*
X0133202Y0044399D02*
X0134036Y0044399D01*
X0134726Y0044732D02*
X0135392Y0045565D01*
X0135350Y0045690D02*
X0135338Y0045719D01*
X0135324Y0045748D01*
X0135306Y0045774D01*
X0135286Y0045799D01*
X0135263Y0045821D01*
X0135238Y0045841D01*
X0135211Y0045858D01*
X0135183Y0045872D01*
X0135153Y0045883D01*
X0135122Y0045891D01*
X0135091Y0045896D01*
X0135059Y0045898D01*
X0135027Y0045896D01*
X0134996Y0045891D01*
X0134965Y0045883D01*
X0134935Y0045872D01*
X0134907Y0045858D01*
X0134880Y0045841D01*
X0134855Y0045821D01*
X0134832Y0045799D01*
X0134812Y0045774D01*
X0134794Y0045748D01*
X0134780Y0045719D01*
X0134768Y0045690D01*
X0135351Y0045691D02*
X0135377Y0045634D01*
X0135400Y0045576D01*
X0135420Y0045517D01*
X0135437Y0045457D01*
X0135451Y0045396D01*
X0135462Y0045335D01*
X0135470Y0045273D01*
X0135474Y0045211D01*
X0135476Y0045149D01*
X0134643Y0045149D02*
X0134645Y0045211D01*
X0134649Y0045273D01*
X0134657Y0045335D01*
X0134668Y0045396D01*
X0134682Y0045457D01*
X0134699Y0045517D01*
X0134719Y0045576D01*
X0134742Y0045634D01*
X0134768Y0045691D01*
X0135476Y0045149D02*
X0135474Y0045087D01*
X0135470Y0045025D01*
X0135462Y0044963D01*
X0135451Y0044902D01*
X0135437Y0044841D01*
X0135420Y0044781D01*
X0135400Y0044722D01*
X0135377Y0044664D01*
X0135351Y0044607D01*
X0135059Y0044399D02*
X0135027Y0044401D01*
X0134996Y0044406D01*
X0134965Y0044414D01*
X0134935Y0044425D01*
X0134907Y0044439D01*
X0134880Y0044456D01*
X0134855Y0044476D01*
X0134832Y0044498D01*
X0134812Y0044523D01*
X0134794Y0044549D01*
X0134780Y0044578D01*
X0134768Y0044607D01*
X0135059Y0044399D02*
X0135091Y0044401D01*
X0135122Y0044406D01*
X0135153Y0044414D01*
X0135183Y0044425D01*
X0135211Y0044439D01*
X0135238Y0044456D01*
X0135263Y0044476D01*
X0135286Y0044498D01*
X0135306Y0044523D01*
X0135324Y0044549D01*
X0135338Y0044578D01*
X0135350Y0044607D01*
X0134768Y0044607D02*
X0134742Y0044664D01*
X0134719Y0044722D01*
X0134699Y0044781D01*
X0134682Y0044841D01*
X0134668Y0044902D01*
X0134657Y0044963D01*
X0134649Y0045025D01*
X0134645Y0045087D01*
X0134643Y0045149D01*
X0152030Y0060812D02*
X0152030Y0062312D01*
X0152446Y0062312D01*
X0152446Y0062313D02*
X0152486Y0062311D01*
X0152525Y0062305D01*
X0152563Y0062296D01*
X0152601Y0062283D01*
X0152637Y0062267D01*
X0152671Y0062247D01*
X0152704Y0062224D01*
X0152734Y0062198D01*
X0152761Y0062169D01*
X0152786Y0062138D01*
X0152807Y0062105D01*
X0152825Y0062069D01*
X0152840Y0062032D01*
X0152851Y0061994D01*
X0152859Y0061955D01*
X0152863Y0061916D01*
X0152863Y0061876D01*
X0152859Y0061837D01*
X0152851Y0061798D01*
X0152840Y0061760D01*
X0152825Y0061723D01*
X0152807Y0061688D01*
X0152786Y0061654D01*
X0152761Y0061623D01*
X0152734Y0061594D01*
X0152704Y0061568D01*
X0152671Y0061545D01*
X0152637Y0061525D01*
X0152601Y0061509D01*
X0152563Y0061496D01*
X0152525Y0061487D01*
X0152486Y0061481D01*
X0152446Y0061479D01*
X0152030Y0061479D01*
X0152530Y0061479D02*
X0152863Y0060812D01*
X0153461Y0060812D02*
X0154295Y0060812D01*
X0153878Y0060812D02*
X0153878Y0062312D01*
X0153461Y0061979D01*
X0153418Y0071591D02*
X0152585Y0071591D01*
X0153001Y0071591D02*
X0153001Y0073091D01*
X0152585Y0072758D01*
X0152048Y0073091D02*
X0151714Y0073091D01*
X0151679Y0073089D01*
X0151645Y0073084D01*
X0151611Y0073075D01*
X0151579Y0073062D01*
X0151547Y0073046D01*
X0151518Y0073027D01*
X0151491Y0073005D01*
X0151467Y0072981D01*
X0151445Y0072954D01*
X0151426Y0072924D01*
X0151410Y0072893D01*
X0151397Y0072861D01*
X0151388Y0072827D01*
X0151383Y0072793D01*
X0151381Y0072758D01*
X0151381Y0071924D01*
X0151383Y0071889D01*
X0151388Y0071855D01*
X0151397Y0071821D01*
X0151410Y0071789D01*
X0151426Y0071758D01*
X0151445Y0071728D01*
X0151467Y0071701D01*
X0151491Y0071677D01*
X0151518Y0071655D01*
X0151548Y0071636D01*
X0151579Y0071620D01*
X0151611Y0071607D01*
X0151645Y0071598D01*
X0151679Y0071593D01*
X0151714Y0071591D01*
X0152048Y0071591D01*
X0141181Y0085632D02*
X0141181Y0086299D01*
X0141181Y0085632D02*
X0139681Y0085632D01*
X0140306Y0086990D02*
X0140556Y0087448D01*
X0141181Y0087281D02*
X0141179Y0087231D01*
X0141174Y0087180D01*
X0141165Y0087131D01*
X0141152Y0087082D01*
X0141136Y0087034D01*
X0141117Y0086987D01*
X0141094Y0086942D01*
X0141068Y0086899D01*
X0141039Y0086857D01*
X0141007Y0086818D01*
X0140973Y0086781D01*
X0140556Y0087448D02*
X0140575Y0087477D01*
X0140598Y0087505D01*
X0140623Y0087529D01*
X0140650Y0087551D01*
X0140680Y0087570D01*
X0140711Y0087586D01*
X0140744Y0087599D01*
X0140778Y0087608D01*
X0140813Y0087613D01*
X0140848Y0087615D01*
X0140848Y0087614D02*
X0140883Y0087612D01*
X0140917Y0087607D01*
X0140951Y0087598D01*
X0140983Y0087585D01*
X0141015Y0087569D01*
X0141044Y0087550D01*
X0141071Y0087528D01*
X0141095Y0087504D01*
X0141117Y0087477D01*
X0141136Y0087448D01*
X0141152Y0087416D01*
X0141165Y0087384D01*
X0141174Y0087350D01*
X0141179Y0087316D01*
X0141181Y0087281D01*
X0139806Y0087531D02*
X0139780Y0087494D01*
X0139758Y0087456D01*
X0139738Y0087416D01*
X0139721Y0087375D01*
X0139706Y0087332D01*
X0139695Y0087289D01*
X0139687Y0087245D01*
X0139683Y0087201D01*
X0139681Y0087156D01*
X0139683Y0087121D01*
X0139688Y0087087D01*
X0139697Y0087053D01*
X0139710Y0087021D01*
X0139726Y0086990D01*
X0139745Y0086960D01*
X0139767Y0086933D01*
X0139791Y0086909D01*
X0139818Y0086887D01*
X0139848Y0086868D01*
X0139879Y0086852D01*
X0139911Y0086839D01*
X0139945Y0086830D01*
X0139979Y0086825D01*
X0140014Y0086823D01*
X0140049Y0086825D01*
X0140084Y0086830D01*
X0140118Y0086839D01*
X0140151Y0086852D01*
X0140182Y0086868D01*
X0140212Y0086887D01*
X0140239Y0086909D01*
X0140264Y0086933D01*
X0140287Y0086961D01*
X0140306Y0086990D01*
X0141181Y0088173D02*
X0141181Y0089007D01*
X0141181Y0088173D02*
X0140348Y0088882D01*
X0139681Y0088632D02*
X0139683Y0088592D01*
X0139688Y0088552D01*
X0139696Y0088512D01*
X0139708Y0088473D01*
X0139723Y0088436D01*
X0139741Y0088400D01*
X0139762Y0088365D01*
X0139785Y0088332D01*
X0139812Y0088302D01*
X0139841Y0088274D01*
X0139872Y0088248D01*
X0139905Y0088225D01*
X0139940Y0088205D01*
X0139977Y0088187D01*
X0140015Y0088173D01*
X0140348Y0088882D02*
X0140322Y0088907D01*
X0140293Y0088930D01*
X0140263Y0088950D01*
X0140231Y0088967D01*
X0140198Y0088981D01*
X0140163Y0088992D01*
X0140128Y0089000D01*
X0140092Y0089005D01*
X0140056Y0089007D01*
X0140019Y0089005D01*
X0139983Y0089000D01*
X0139947Y0088991D01*
X0139912Y0088978D01*
X0139879Y0088963D01*
X0139848Y0088944D01*
X0139818Y0088922D01*
X0139791Y0088897D01*
X0139766Y0088870D01*
X0139744Y0088840D01*
X0139725Y0088809D01*
X0139710Y0088776D01*
X0139697Y0088741D01*
X0139688Y0088705D01*
X0139683Y0088669D01*
X0139681Y0088632D01*
X0132698Y0088583D02*
X0131865Y0088583D01*
X0132282Y0088583D02*
X0132282Y0090083D01*
X0131865Y0089749D01*
X0130667Y0090083D02*
X0130667Y0088583D01*
X0131334Y0088583D01*
X0125690Y0088945D02*
X0125690Y0089279D01*
X0125690Y0088945D02*
X0125688Y0088910D01*
X0125683Y0088876D01*
X0125674Y0088842D01*
X0125661Y0088810D01*
X0125645Y0088779D01*
X0125626Y0088749D01*
X0125604Y0088722D01*
X0125580Y0088698D01*
X0125553Y0088676D01*
X0125524Y0088657D01*
X0125492Y0088641D01*
X0125460Y0088628D01*
X0125426Y0088619D01*
X0125392Y0088614D01*
X0125357Y0088612D01*
X0124524Y0088612D01*
X0124489Y0088614D01*
X0124455Y0088619D01*
X0124421Y0088628D01*
X0124389Y0088641D01*
X0124358Y0088657D01*
X0124328Y0088676D01*
X0124301Y0088698D01*
X0124277Y0088722D01*
X0124255Y0088749D01*
X0124236Y0088778D01*
X0124220Y0088810D01*
X0124207Y0088842D01*
X0124198Y0088876D01*
X0124193Y0088910D01*
X0124191Y0088945D01*
X0124190Y0088945D02*
X0124190Y0089279D01*
X0124190Y0089816D02*
X0124190Y0090649D01*
X0125690Y0090232D01*
X0124357Y0089816D02*
X0124190Y0089816D01*
X0120238Y0089483D02*
X0120238Y0089150D01*
X0120236Y0089115D01*
X0120231Y0089081D01*
X0120222Y0089047D01*
X0120209Y0089015D01*
X0120193Y0088984D01*
X0120174Y0088954D01*
X0120152Y0088927D01*
X0120128Y0088903D01*
X0120101Y0088881D01*
X0120072Y0088862D01*
X0120040Y0088846D01*
X0120008Y0088833D01*
X0119974Y0088824D01*
X0119940Y0088819D01*
X0119905Y0088817D01*
X0119905Y0088816D02*
X0119071Y0088816D01*
X0119071Y0088817D02*
X0119036Y0088819D01*
X0119002Y0088824D01*
X0118968Y0088833D01*
X0118936Y0088846D01*
X0118905Y0088862D01*
X0118875Y0088881D01*
X0118848Y0088903D01*
X0118824Y0088927D01*
X0118802Y0088954D01*
X0118783Y0088983D01*
X0118767Y0089015D01*
X0118754Y0089047D01*
X0118745Y0089081D01*
X0118740Y0089115D01*
X0118738Y0089150D01*
X0118738Y0089483D01*
X0119071Y0090104D02*
X0119106Y0090106D01*
X0119140Y0090111D01*
X0119174Y0090120D01*
X0119206Y0090133D01*
X0119238Y0090149D01*
X0119267Y0090168D01*
X0119294Y0090190D01*
X0119318Y0090214D01*
X0119340Y0090241D01*
X0119359Y0090271D01*
X0119375Y0090302D01*
X0119388Y0090334D01*
X0119397Y0090368D01*
X0119402Y0090402D01*
X0119404Y0090437D01*
X0119402Y0090472D01*
X0119397Y0090506D01*
X0119388Y0090540D01*
X0119375Y0090572D01*
X0119359Y0090604D01*
X0119340Y0090633D01*
X0119318Y0090660D01*
X0119294Y0090684D01*
X0119267Y0090706D01*
X0119238Y0090725D01*
X0119206Y0090741D01*
X0119174Y0090754D01*
X0119140Y0090763D01*
X0119106Y0090768D01*
X0119071Y0090770D01*
X0119036Y0090768D01*
X0119002Y0090763D01*
X0118968Y0090754D01*
X0118936Y0090741D01*
X0118905Y0090725D01*
X0118875Y0090706D01*
X0118848Y0090684D01*
X0118824Y0090660D01*
X0118802Y0090633D01*
X0118783Y0090604D01*
X0118767Y0090572D01*
X0118754Y0090540D01*
X0118745Y0090506D01*
X0118740Y0090472D01*
X0118738Y0090437D01*
X0118740Y0090402D01*
X0118745Y0090368D01*
X0118754Y0090334D01*
X0118767Y0090302D01*
X0118783Y0090271D01*
X0118802Y0090241D01*
X0118824Y0090214D01*
X0118848Y0090190D01*
X0118875Y0090168D01*
X0118905Y0090149D01*
X0118936Y0090133D01*
X0118968Y0090120D01*
X0119002Y0090111D01*
X0119036Y0090106D01*
X0119071Y0090104D01*
X0119821Y0090020D02*
X0119861Y0090022D01*
X0119900Y0090028D01*
X0119938Y0090037D01*
X0119976Y0090050D01*
X0120012Y0090066D01*
X0120046Y0090086D01*
X0120079Y0090109D01*
X0120109Y0090135D01*
X0120136Y0090164D01*
X0120161Y0090195D01*
X0120182Y0090229D01*
X0120200Y0090264D01*
X0120215Y0090301D01*
X0120226Y0090339D01*
X0120234Y0090378D01*
X0120238Y0090417D01*
X0120238Y0090457D01*
X0120234Y0090496D01*
X0120226Y0090535D01*
X0120215Y0090573D01*
X0120200Y0090610D01*
X0120182Y0090646D01*
X0120161Y0090679D01*
X0120136Y0090710D01*
X0120109Y0090739D01*
X0120079Y0090765D01*
X0120046Y0090788D01*
X0120012Y0090808D01*
X0119976Y0090824D01*
X0119938Y0090837D01*
X0119900Y0090846D01*
X0119861Y0090852D01*
X0119821Y0090854D01*
X0119781Y0090852D01*
X0119742Y0090846D01*
X0119704Y0090837D01*
X0119666Y0090824D01*
X0119630Y0090808D01*
X0119596Y0090788D01*
X0119563Y0090765D01*
X0119533Y0090739D01*
X0119506Y0090710D01*
X0119481Y0090679D01*
X0119460Y0090646D01*
X0119442Y0090610D01*
X0119427Y0090573D01*
X0119416Y0090535D01*
X0119408Y0090496D01*
X0119404Y0090457D01*
X0119404Y0090417D01*
X0119408Y0090378D01*
X0119416Y0090339D01*
X0119427Y0090301D01*
X0119442Y0090264D01*
X0119460Y0090229D01*
X0119481Y0090195D01*
X0119506Y0090164D01*
X0119533Y0090135D01*
X0119563Y0090109D01*
X0119596Y0090086D01*
X0119630Y0090066D01*
X0119666Y0090050D01*
X0119704Y0090037D01*
X0119742Y0090028D01*
X0119781Y0090022D01*
X0119821Y0090020D01*
X0116031Y0089541D02*
X0116031Y0089207D01*
X0116029Y0089172D01*
X0116024Y0089138D01*
X0116015Y0089104D01*
X0116002Y0089072D01*
X0115986Y0089041D01*
X0115967Y0089011D01*
X0115945Y0088984D01*
X0115921Y0088960D01*
X0115894Y0088938D01*
X0115865Y0088919D01*
X0115833Y0088903D01*
X0115801Y0088890D01*
X0115767Y0088881D01*
X0115733Y0088876D01*
X0115698Y0088874D01*
X0114865Y0088874D01*
X0114830Y0088876D01*
X0114796Y0088881D01*
X0114762Y0088890D01*
X0114730Y0088903D01*
X0114699Y0088919D01*
X0114669Y0088938D01*
X0114642Y0088960D01*
X0114618Y0088984D01*
X0114596Y0089011D01*
X0114577Y0089040D01*
X0114561Y0089072D01*
X0114548Y0089104D01*
X0114539Y0089138D01*
X0114534Y0089172D01*
X0114532Y0089207D01*
X0114531Y0089207D02*
X0114531Y0089541D01*
X0114948Y0090078D02*
X0115031Y0090078D01*
X0115066Y0090080D01*
X0115100Y0090085D01*
X0115134Y0090094D01*
X0115166Y0090107D01*
X0115197Y0090123D01*
X0115227Y0090142D01*
X0115254Y0090164D01*
X0115278Y0090188D01*
X0115300Y0090215D01*
X0115319Y0090244D01*
X0115335Y0090276D01*
X0115348Y0090308D01*
X0115357Y0090342D01*
X0115362Y0090376D01*
X0115364Y0090411D01*
X0115365Y0090411D02*
X0115365Y0090911D01*
X0114948Y0090911D01*
X0114908Y0090909D01*
X0114869Y0090903D01*
X0114831Y0090894D01*
X0114793Y0090881D01*
X0114757Y0090865D01*
X0114723Y0090845D01*
X0114690Y0090822D01*
X0114660Y0090796D01*
X0114633Y0090767D01*
X0114608Y0090736D01*
X0114587Y0090703D01*
X0114569Y0090667D01*
X0114554Y0090630D01*
X0114543Y0090592D01*
X0114535Y0090553D01*
X0114531Y0090514D01*
X0114531Y0090474D01*
X0114535Y0090435D01*
X0114543Y0090396D01*
X0114554Y0090358D01*
X0114569Y0090321D01*
X0114587Y0090286D01*
X0114608Y0090252D01*
X0114633Y0090221D01*
X0114660Y0090192D01*
X0114690Y0090166D01*
X0114723Y0090143D01*
X0114757Y0090123D01*
X0114793Y0090107D01*
X0114831Y0090094D01*
X0114869Y0090085D01*
X0114908Y0090079D01*
X0114948Y0090077D01*
X0115365Y0090911D02*
X0115415Y0090909D01*
X0115464Y0090904D01*
X0115513Y0090894D01*
X0115562Y0090881D01*
X0115609Y0090865D01*
X0115654Y0090845D01*
X0115699Y0090822D01*
X0115741Y0090795D01*
X0115781Y0090765D01*
X0115819Y0090733D01*
X0115854Y0090698D01*
X0115886Y0090660D01*
X0115916Y0090620D01*
X0115943Y0090578D01*
X0115966Y0090533D01*
X0115986Y0090488D01*
X0116002Y0090441D01*
X0116015Y0090392D01*
X0116025Y0090343D01*
X0116030Y0090294D01*
X0116032Y0090244D01*
X0125339Y0101164D02*
X0126839Y0101164D01*
X0126839Y0101830D01*
X0126505Y0102361D02*
X0126505Y0103194D01*
X0126172Y0102944D02*
X0126839Y0102944D01*
X0126505Y0102361D02*
X0125339Y0102694D01*
X0131432Y0078210D02*
X0131467Y0078208D01*
X0131501Y0078203D01*
X0131535Y0078194D01*
X0131567Y0078181D01*
X0131599Y0078165D01*
X0131628Y0078146D01*
X0131655Y0078124D01*
X0131679Y0078100D01*
X0131701Y0078073D01*
X0131720Y0078044D01*
X0131736Y0078012D01*
X0131749Y0077980D01*
X0131758Y0077946D01*
X0131763Y0077912D01*
X0131765Y0077877D01*
X0131763Y0077842D01*
X0131758Y0077808D01*
X0131749Y0077774D01*
X0131736Y0077742D01*
X0131720Y0077711D01*
X0131701Y0077681D01*
X0131679Y0077654D01*
X0131655Y0077630D01*
X0131628Y0077608D01*
X0131599Y0077589D01*
X0131567Y0077573D01*
X0131535Y0077560D01*
X0131501Y0077551D01*
X0131467Y0077546D01*
X0131432Y0077544D01*
X0131397Y0077546D01*
X0131363Y0077551D01*
X0131329Y0077560D01*
X0131297Y0077573D01*
X0131266Y0077589D01*
X0131236Y0077608D01*
X0131209Y0077630D01*
X0131185Y0077654D01*
X0131163Y0077681D01*
X0131144Y0077711D01*
X0131128Y0077742D01*
X0131115Y0077774D01*
X0131106Y0077808D01*
X0131101Y0077842D01*
X0131099Y0077877D01*
X0131101Y0077912D01*
X0131106Y0077946D01*
X0131115Y0077980D01*
X0131128Y0078012D01*
X0131144Y0078044D01*
X0131163Y0078073D01*
X0131185Y0078100D01*
X0131209Y0078124D01*
X0131236Y0078146D01*
X0131266Y0078165D01*
X0131297Y0078181D01*
X0131329Y0078194D01*
X0131363Y0078203D01*
X0131397Y0078208D01*
X0131432Y0078210D01*
X0132182Y0078294D02*
X0132222Y0078292D01*
X0132261Y0078286D01*
X0132299Y0078277D01*
X0132337Y0078264D01*
X0132373Y0078248D01*
X0132407Y0078228D01*
X0132440Y0078205D01*
X0132470Y0078179D01*
X0132497Y0078150D01*
X0132522Y0078119D01*
X0132543Y0078086D01*
X0132561Y0078050D01*
X0132576Y0078013D01*
X0132587Y0077975D01*
X0132595Y0077936D01*
X0132599Y0077897D01*
X0132599Y0077857D01*
X0132595Y0077818D01*
X0132587Y0077779D01*
X0132576Y0077741D01*
X0132561Y0077704D01*
X0132543Y0077669D01*
X0132522Y0077635D01*
X0132497Y0077604D01*
X0132470Y0077575D01*
X0132440Y0077549D01*
X0132407Y0077526D01*
X0132373Y0077506D01*
X0132337Y0077490D01*
X0132299Y0077477D01*
X0132261Y0077468D01*
X0132222Y0077462D01*
X0132182Y0077460D01*
X0132142Y0077462D01*
X0132103Y0077468D01*
X0132065Y0077477D01*
X0132027Y0077490D01*
X0131991Y0077506D01*
X0131957Y0077526D01*
X0131924Y0077549D01*
X0131894Y0077575D01*
X0131867Y0077604D01*
X0131842Y0077635D01*
X0131821Y0077669D01*
X0131803Y0077704D01*
X0131788Y0077741D01*
X0131777Y0077779D01*
X0131769Y0077818D01*
X0131765Y0077857D01*
X0131765Y0077897D01*
X0131769Y0077936D01*
X0131777Y0077975D01*
X0131788Y0078013D01*
X0131803Y0078050D01*
X0131821Y0078086D01*
X0131842Y0078119D01*
X0131867Y0078150D01*
X0131894Y0078179D01*
X0131924Y0078205D01*
X0131957Y0078228D01*
X0131991Y0078248D01*
X0132027Y0078264D01*
X0132065Y0078277D01*
X0132103Y0078286D01*
X0132142Y0078292D01*
X0132182Y0078294D01*
X0132599Y0076862D02*
X0131932Y0076529D01*
X0131932Y0076445D02*
X0131932Y0076029D01*
X0131932Y0076445D02*
X0131930Y0076485D01*
X0131924Y0076524D01*
X0131915Y0076562D01*
X0131902Y0076600D01*
X0131886Y0076636D01*
X0131866Y0076670D01*
X0131843Y0076703D01*
X0131817Y0076733D01*
X0131788Y0076760D01*
X0131757Y0076785D01*
X0131724Y0076806D01*
X0131688Y0076824D01*
X0131651Y0076839D01*
X0131613Y0076850D01*
X0131574Y0076858D01*
X0131535Y0076862D01*
X0131495Y0076862D01*
X0131456Y0076858D01*
X0131417Y0076850D01*
X0131379Y0076839D01*
X0131342Y0076824D01*
X0131307Y0076806D01*
X0131273Y0076785D01*
X0131242Y0076760D01*
X0131213Y0076733D01*
X0131187Y0076703D01*
X0131164Y0076670D01*
X0131144Y0076636D01*
X0131128Y0076600D01*
X0131115Y0076562D01*
X0131106Y0076524D01*
X0131100Y0076485D01*
X0131098Y0076445D01*
X0131099Y0076445D02*
X0131099Y0076029D01*
X0132599Y0076029D01*
X0155295Y0088713D02*
X0155295Y0089047D01*
X0155295Y0088713D02*
X0155297Y0088678D01*
X0155302Y0088644D01*
X0155311Y0088610D01*
X0155324Y0088578D01*
X0155340Y0088546D01*
X0155359Y0088517D01*
X0155381Y0088490D01*
X0155405Y0088466D01*
X0155432Y0088444D01*
X0155462Y0088425D01*
X0155493Y0088409D01*
X0155525Y0088396D01*
X0155559Y0088387D01*
X0155593Y0088382D01*
X0155628Y0088380D01*
X0156461Y0088380D01*
X0156496Y0088382D01*
X0156530Y0088387D01*
X0156564Y0088396D01*
X0156596Y0088409D01*
X0156628Y0088425D01*
X0156657Y0088444D01*
X0156684Y0088466D01*
X0156708Y0088490D01*
X0156730Y0088517D01*
X0156749Y0088547D01*
X0156765Y0088578D01*
X0156778Y0088610D01*
X0156787Y0088644D01*
X0156792Y0088678D01*
X0156794Y0088713D01*
X0156795Y0088713D02*
X0156795Y0089047D01*
X0156795Y0089584D02*
X0156795Y0090417D01*
X0156795Y0091024D02*
X0156795Y0091857D01*
X0156795Y0091024D02*
X0155961Y0091732D01*
X0155294Y0091482D02*
X0155296Y0091442D01*
X0155301Y0091402D01*
X0155309Y0091362D01*
X0155321Y0091323D01*
X0155336Y0091286D01*
X0155354Y0091250D01*
X0155375Y0091215D01*
X0155398Y0091182D01*
X0155425Y0091152D01*
X0155454Y0091124D01*
X0155485Y0091098D01*
X0155518Y0091075D01*
X0155553Y0091055D01*
X0155590Y0091037D01*
X0155628Y0091023D01*
X0155962Y0091732D02*
X0155936Y0091757D01*
X0155907Y0091780D01*
X0155877Y0091800D01*
X0155845Y0091817D01*
X0155812Y0091831D01*
X0155777Y0091842D01*
X0155742Y0091850D01*
X0155706Y0091855D01*
X0155670Y0091857D01*
X0155633Y0091855D01*
X0155597Y0091850D01*
X0155561Y0091841D01*
X0155526Y0091828D01*
X0155493Y0091813D01*
X0155462Y0091794D01*
X0155432Y0091772D01*
X0155405Y0091747D01*
X0155380Y0091720D01*
X0155358Y0091690D01*
X0155339Y0091659D01*
X0155324Y0091626D01*
X0155311Y0091591D01*
X0155302Y0091555D01*
X0155297Y0091519D01*
X0155295Y0091482D01*
X0155961Y0090292D02*
X0156795Y0089584D01*
X0155628Y0089583D02*
X0155590Y0089597D01*
X0155553Y0089615D01*
X0155518Y0089635D01*
X0155485Y0089658D01*
X0155454Y0089684D01*
X0155425Y0089712D01*
X0155398Y0089742D01*
X0155375Y0089775D01*
X0155354Y0089810D01*
X0155336Y0089846D01*
X0155321Y0089883D01*
X0155309Y0089922D01*
X0155301Y0089962D01*
X0155296Y0090002D01*
X0155294Y0090042D01*
X0155295Y0090042D02*
X0155297Y0090079D01*
X0155302Y0090115D01*
X0155311Y0090151D01*
X0155324Y0090186D01*
X0155339Y0090219D01*
X0155358Y0090250D01*
X0155380Y0090280D01*
X0155405Y0090307D01*
X0155432Y0090332D01*
X0155462Y0090354D01*
X0155493Y0090373D01*
X0155526Y0090388D01*
X0155561Y0090401D01*
X0155597Y0090410D01*
X0155633Y0090415D01*
X0155670Y0090417D01*
X0155706Y0090415D01*
X0155742Y0090410D01*
X0155777Y0090402D01*
X0155812Y0090391D01*
X0155845Y0090377D01*
X0155877Y0090360D01*
X0155907Y0090340D01*
X0155936Y0090317D01*
X0155962Y0090292D01*
X0172589Y0090712D02*
X0172589Y0091046D01*
X0172590Y0090712D02*
X0172592Y0090677D01*
X0172597Y0090643D01*
X0172606Y0090609D01*
X0172619Y0090577D01*
X0172635Y0090545D01*
X0172654Y0090516D01*
X0172676Y0090489D01*
X0172700Y0090465D01*
X0172727Y0090443D01*
X0172757Y0090424D01*
X0172788Y0090408D01*
X0172820Y0090395D01*
X0172854Y0090386D01*
X0172888Y0090381D01*
X0172923Y0090379D01*
X0173756Y0090379D01*
X0173791Y0090381D01*
X0173825Y0090386D01*
X0173859Y0090395D01*
X0173891Y0090408D01*
X0173923Y0090424D01*
X0173952Y0090443D01*
X0173979Y0090465D01*
X0174003Y0090489D01*
X0174025Y0090516D01*
X0174044Y0090546D01*
X0174060Y0090577D01*
X0174073Y0090609D01*
X0174082Y0090643D01*
X0174087Y0090677D01*
X0174089Y0090712D01*
X0174089Y0091046D01*
X0174089Y0091583D02*
X0174089Y0092416D01*
X0174089Y0093023D02*
X0174089Y0093440D01*
X0174090Y0093440D02*
X0174088Y0093480D01*
X0174082Y0093519D01*
X0174073Y0093557D01*
X0174060Y0093595D01*
X0174044Y0093631D01*
X0174024Y0093665D01*
X0174001Y0093698D01*
X0173975Y0093728D01*
X0173946Y0093755D01*
X0173915Y0093780D01*
X0173882Y0093801D01*
X0173846Y0093819D01*
X0173809Y0093834D01*
X0173771Y0093845D01*
X0173732Y0093853D01*
X0173693Y0093857D01*
X0173653Y0093857D01*
X0173614Y0093853D01*
X0173575Y0093845D01*
X0173537Y0093834D01*
X0173500Y0093819D01*
X0173465Y0093801D01*
X0173431Y0093780D01*
X0173400Y0093755D01*
X0173371Y0093728D01*
X0173345Y0093698D01*
X0173322Y0093665D01*
X0173302Y0093631D01*
X0173286Y0093595D01*
X0173273Y0093557D01*
X0173264Y0093519D01*
X0173258Y0093480D01*
X0173256Y0093440D01*
X0173256Y0093523D02*
X0173256Y0093190D01*
X0173256Y0093523D02*
X0173254Y0093558D01*
X0173249Y0093592D01*
X0173240Y0093626D01*
X0173227Y0093658D01*
X0173211Y0093690D01*
X0173192Y0093719D01*
X0173170Y0093746D01*
X0173146Y0093770D01*
X0173119Y0093792D01*
X0173090Y0093811D01*
X0173058Y0093827D01*
X0173026Y0093840D01*
X0172992Y0093849D01*
X0172958Y0093854D01*
X0172923Y0093856D01*
X0172888Y0093854D01*
X0172854Y0093849D01*
X0172820Y0093840D01*
X0172788Y0093827D01*
X0172757Y0093811D01*
X0172727Y0093792D01*
X0172700Y0093770D01*
X0172676Y0093746D01*
X0172654Y0093719D01*
X0172635Y0093690D01*
X0172619Y0093658D01*
X0172606Y0093626D01*
X0172597Y0093592D01*
X0172592Y0093558D01*
X0172590Y0093523D01*
X0172589Y0093523D02*
X0172589Y0093023D01*
X0173256Y0092291D02*
X0174089Y0091583D01*
X0172923Y0091582D02*
X0172885Y0091596D01*
X0172848Y0091614D01*
X0172813Y0091634D01*
X0172780Y0091657D01*
X0172749Y0091683D01*
X0172720Y0091711D01*
X0172693Y0091741D01*
X0172670Y0091774D01*
X0172649Y0091809D01*
X0172631Y0091845D01*
X0172616Y0091882D01*
X0172604Y0091921D01*
X0172596Y0091961D01*
X0172591Y0092001D01*
X0172589Y0092041D01*
X0172591Y0092078D01*
X0172596Y0092114D01*
X0172605Y0092150D01*
X0172618Y0092185D01*
X0172633Y0092218D01*
X0172652Y0092249D01*
X0172674Y0092279D01*
X0172699Y0092306D01*
X0172726Y0092331D01*
X0172756Y0092353D01*
X0172787Y0092372D01*
X0172820Y0092387D01*
X0172855Y0092400D01*
X0172891Y0092409D01*
X0172927Y0092414D01*
X0172964Y0092416D01*
X0173000Y0092414D01*
X0173036Y0092409D01*
X0173071Y0092401D01*
X0173106Y0092390D01*
X0173139Y0092376D01*
X0173171Y0092359D01*
X0173201Y0092339D01*
X0173230Y0092316D01*
X0173256Y0092291D01*
X0116731Y0028614D02*
X0116314Y0027114D01*
X0115299Y0027114D02*
X0114966Y0027781D01*
X0114882Y0027781D02*
X0114466Y0027781D01*
X0114882Y0027780D02*
X0114922Y0027782D01*
X0114961Y0027788D01*
X0114999Y0027797D01*
X0115037Y0027810D01*
X0115073Y0027826D01*
X0115107Y0027846D01*
X0115140Y0027869D01*
X0115170Y0027895D01*
X0115197Y0027924D01*
X0115222Y0027955D01*
X0115243Y0027989D01*
X0115261Y0028024D01*
X0115276Y0028061D01*
X0115287Y0028099D01*
X0115295Y0028138D01*
X0115299Y0028177D01*
X0115299Y0028217D01*
X0115295Y0028256D01*
X0115287Y0028295D01*
X0115276Y0028333D01*
X0115261Y0028370D01*
X0115243Y0028405D01*
X0115222Y0028439D01*
X0115197Y0028470D01*
X0115170Y0028499D01*
X0115140Y0028525D01*
X0115107Y0028548D01*
X0115073Y0028568D01*
X0115037Y0028584D01*
X0114999Y0028597D01*
X0114961Y0028606D01*
X0114922Y0028612D01*
X0114882Y0028614D01*
X0114466Y0028614D01*
X0114466Y0027114D01*
X0115897Y0028447D02*
X0115897Y0028614D01*
X0116731Y0028614D01*
X0116913Y0022279D02*
X0116913Y0021779D01*
X0116913Y0022279D02*
X0116915Y0022314D01*
X0116920Y0022348D01*
X0116929Y0022382D01*
X0116942Y0022414D01*
X0116958Y0022446D01*
X0116977Y0022475D01*
X0116999Y0022502D01*
X0117023Y0022526D01*
X0117050Y0022548D01*
X0117080Y0022567D01*
X0117111Y0022583D01*
X0117143Y0022596D01*
X0117177Y0022605D01*
X0117211Y0022610D01*
X0117246Y0022612D01*
X0117281Y0022610D01*
X0117315Y0022605D01*
X0117349Y0022596D01*
X0117381Y0022583D01*
X0117413Y0022567D01*
X0117442Y0022548D01*
X0117469Y0022526D01*
X0117493Y0022502D01*
X0117515Y0022475D01*
X0117534Y0022446D01*
X0117550Y0022414D01*
X0117563Y0022382D01*
X0117572Y0022348D01*
X0117577Y0022314D01*
X0117579Y0022279D01*
X0117579Y0021945D01*
X0117579Y0022195D02*
X0117581Y0022235D01*
X0117587Y0022274D01*
X0117596Y0022312D01*
X0117609Y0022350D01*
X0117625Y0022386D01*
X0117645Y0022420D01*
X0117668Y0022453D01*
X0117694Y0022483D01*
X0117723Y0022510D01*
X0117754Y0022535D01*
X0117788Y0022556D01*
X0117823Y0022574D01*
X0117860Y0022589D01*
X0117898Y0022600D01*
X0117937Y0022608D01*
X0117976Y0022612D01*
X0118016Y0022612D01*
X0118055Y0022608D01*
X0118094Y0022600D01*
X0118132Y0022589D01*
X0118169Y0022574D01*
X0118205Y0022556D01*
X0118238Y0022535D01*
X0118269Y0022510D01*
X0118298Y0022483D01*
X0118324Y0022453D01*
X0118347Y0022420D01*
X0118367Y0022386D01*
X0118383Y0022350D01*
X0118396Y0022312D01*
X0118405Y0022274D01*
X0118411Y0022235D01*
X0118413Y0022195D01*
X0118413Y0021779D01*
X0118413Y0021172D02*
X0118413Y0020339D01*
X0118413Y0020755D02*
X0116913Y0020755D01*
X0117246Y0020339D01*
X0116912Y0019324D02*
X0116914Y0019364D01*
X0116920Y0019403D01*
X0116929Y0019441D01*
X0116942Y0019479D01*
X0116958Y0019515D01*
X0116978Y0019549D01*
X0117001Y0019582D01*
X0117027Y0019612D01*
X0117056Y0019639D01*
X0117087Y0019664D01*
X0117121Y0019685D01*
X0117156Y0019703D01*
X0117193Y0019718D01*
X0117231Y0019729D01*
X0117270Y0019737D01*
X0117309Y0019741D01*
X0117349Y0019741D01*
X0117388Y0019737D01*
X0117427Y0019729D01*
X0117465Y0019718D01*
X0117502Y0019703D01*
X0117538Y0019685D01*
X0117571Y0019664D01*
X0117602Y0019639D01*
X0117631Y0019612D01*
X0117657Y0019582D01*
X0117680Y0019549D01*
X0117700Y0019515D01*
X0117716Y0019479D01*
X0117729Y0019441D01*
X0117738Y0019403D01*
X0117744Y0019364D01*
X0117746Y0019324D01*
X0117746Y0018907D01*
X0117746Y0019407D02*
X0118413Y0019740D01*
X0118413Y0018907D02*
X0116913Y0018907D01*
X0116913Y0019324D01*
X0107527Y0019588D02*
X0106694Y0019588D01*
X0106694Y0018921D01*
X0107194Y0018921D01*
X0107229Y0018919D01*
X0107263Y0018914D01*
X0107297Y0018905D01*
X0107329Y0018892D01*
X0107361Y0018876D01*
X0107390Y0018857D01*
X0107417Y0018835D01*
X0107441Y0018811D01*
X0107463Y0018784D01*
X0107482Y0018755D01*
X0107498Y0018723D01*
X0107511Y0018691D01*
X0107520Y0018657D01*
X0107525Y0018623D01*
X0107527Y0018588D01*
X0107527Y0018421D01*
X0107525Y0018386D01*
X0107520Y0018352D01*
X0107511Y0018318D01*
X0107498Y0018286D01*
X0107482Y0018255D01*
X0107463Y0018225D01*
X0107441Y0018198D01*
X0107417Y0018174D01*
X0107390Y0018152D01*
X0107361Y0018133D01*
X0107329Y0018117D01*
X0107297Y0018104D01*
X0107263Y0018095D01*
X0107229Y0018090D01*
X0107194Y0018088D01*
X0106694Y0018088D01*
X0106087Y0018088D02*
X0105254Y0018088D01*
X0105671Y0018088D02*
X0105671Y0019588D01*
X0105254Y0019255D01*
X0104239Y0019588D02*
X0104279Y0019586D01*
X0104318Y0019580D01*
X0104356Y0019571D01*
X0104394Y0019558D01*
X0104430Y0019542D01*
X0104464Y0019522D01*
X0104497Y0019499D01*
X0104527Y0019473D01*
X0104554Y0019444D01*
X0104579Y0019413D01*
X0104600Y0019379D01*
X0104618Y0019344D01*
X0104633Y0019307D01*
X0104644Y0019269D01*
X0104652Y0019230D01*
X0104656Y0019191D01*
X0104656Y0019151D01*
X0104652Y0019112D01*
X0104644Y0019073D01*
X0104633Y0019035D01*
X0104618Y0018998D01*
X0104600Y0018963D01*
X0104579Y0018929D01*
X0104554Y0018898D01*
X0104527Y0018869D01*
X0104497Y0018843D01*
X0104464Y0018820D01*
X0104430Y0018800D01*
X0104394Y0018784D01*
X0104356Y0018771D01*
X0104318Y0018762D01*
X0104279Y0018756D01*
X0104239Y0018754D01*
X0104239Y0018755D02*
X0103822Y0018755D01*
X0104322Y0018755D02*
X0104656Y0018088D01*
X0103822Y0018088D02*
X0103822Y0019588D01*
X0104239Y0019588D01*
X0101277Y0011141D02*
X0100944Y0009974D01*
X0101777Y0009974D01*
X0101527Y0009641D02*
X0101527Y0010308D01*
X0100337Y0009641D02*
X0099504Y0009641D01*
X0099920Y0009641D02*
X0099920Y0011141D01*
X0099504Y0010808D01*
X0098489Y0011141D02*
X0098529Y0011139D01*
X0098568Y0011133D01*
X0098606Y0011124D01*
X0098644Y0011111D01*
X0098680Y0011095D01*
X0098714Y0011075D01*
X0098747Y0011052D01*
X0098777Y0011026D01*
X0098804Y0010997D01*
X0098829Y0010966D01*
X0098850Y0010932D01*
X0098868Y0010897D01*
X0098883Y0010860D01*
X0098894Y0010822D01*
X0098902Y0010783D01*
X0098906Y0010744D01*
X0098906Y0010704D01*
X0098902Y0010665D01*
X0098894Y0010626D01*
X0098883Y0010588D01*
X0098868Y0010551D01*
X0098850Y0010515D01*
X0098829Y0010482D01*
X0098804Y0010451D01*
X0098777Y0010422D01*
X0098747Y0010396D01*
X0098714Y0010373D01*
X0098680Y0010353D01*
X0098644Y0010337D01*
X0098606Y0010324D01*
X0098568Y0010315D01*
X0098529Y0010309D01*
X0098489Y0010307D01*
X0098489Y0010308D02*
X0098072Y0010308D01*
X0098572Y0010308D02*
X0098905Y0009641D01*
X0098072Y0009641D02*
X0098072Y0011141D01*
X0098489Y0011141D01*
X0088100Y0012575D02*
X0088100Y0013475D01*
X0087600Y0013475D02*
X0088100Y0012575D01*
X0087600Y0012575D02*
X0087600Y0013475D01*
X0086965Y0013475D02*
X0086715Y0013475D01*
X0086715Y0012575D01*
X0086715Y0012975D02*
X0086965Y0012975D01*
X0086995Y0012977D01*
X0087025Y0012982D01*
X0087054Y0012991D01*
X0087081Y0013004D01*
X0087107Y0013019D01*
X0087131Y0013038D01*
X0087152Y0013059D01*
X0087171Y0013083D01*
X0087186Y0013109D01*
X0087199Y0013136D01*
X0087208Y0013165D01*
X0087213Y0013195D01*
X0087215Y0013225D01*
X0087213Y0013255D01*
X0087208Y0013285D01*
X0087199Y0013314D01*
X0087186Y0013341D01*
X0087171Y0013367D01*
X0087152Y0013391D01*
X0087131Y0013412D01*
X0087107Y0013431D01*
X0087081Y0013446D01*
X0087054Y0013459D01*
X0087025Y0013468D01*
X0086995Y0013473D01*
X0086965Y0013475D01*
X0086240Y0013475D02*
X0086240Y0012575D01*
X0085740Y0013475D01*
X0085740Y0012575D01*
X0101936Y0031641D02*
X0102270Y0031641D01*
X0101936Y0031641D02*
X0101901Y0031643D01*
X0101867Y0031648D01*
X0101833Y0031657D01*
X0101801Y0031670D01*
X0101770Y0031686D01*
X0101740Y0031705D01*
X0101713Y0031727D01*
X0101689Y0031751D01*
X0101667Y0031778D01*
X0101648Y0031808D01*
X0101632Y0031839D01*
X0101619Y0031871D01*
X0101610Y0031905D01*
X0101605Y0031939D01*
X0101603Y0031974D01*
X0101603Y0032807D01*
X0101605Y0032842D01*
X0101610Y0032876D01*
X0101619Y0032910D01*
X0101632Y0032942D01*
X0101648Y0032973D01*
X0101667Y0033003D01*
X0101689Y0033030D01*
X0101713Y0033054D01*
X0101740Y0033076D01*
X0101769Y0033095D01*
X0101801Y0033111D01*
X0101833Y0033124D01*
X0101867Y0033133D01*
X0101901Y0033138D01*
X0101936Y0033140D01*
X0101936Y0033141D02*
X0102270Y0033141D01*
X0102807Y0032807D02*
X0103223Y0033141D01*
X0103223Y0031641D01*
X0102807Y0031641D02*
X0103640Y0031641D01*
X0104247Y0032057D02*
X0104247Y0032474D01*
X0104747Y0032474D01*
X0104246Y0032474D02*
X0104248Y0032524D01*
X0104253Y0032573D01*
X0104263Y0032622D01*
X0104276Y0032671D01*
X0104292Y0032718D01*
X0104312Y0032763D01*
X0104335Y0032807D01*
X0104362Y0032850D01*
X0104392Y0032890D01*
X0104424Y0032928D01*
X0104459Y0032963D01*
X0104497Y0032995D01*
X0104537Y0033025D01*
X0104579Y0033052D01*
X0104624Y0033075D01*
X0104669Y0033095D01*
X0104716Y0033111D01*
X0104765Y0033124D01*
X0104814Y0033134D01*
X0104863Y0033139D01*
X0104913Y0033141D01*
X0104747Y0032474D02*
X0104782Y0032472D01*
X0104816Y0032467D01*
X0104850Y0032458D01*
X0104882Y0032445D01*
X0104914Y0032429D01*
X0104943Y0032410D01*
X0104970Y0032388D01*
X0104994Y0032364D01*
X0105016Y0032337D01*
X0105035Y0032308D01*
X0105051Y0032276D01*
X0105064Y0032244D01*
X0105073Y0032210D01*
X0105078Y0032176D01*
X0105080Y0032141D01*
X0105080Y0032057D01*
X0105078Y0032017D01*
X0105072Y0031978D01*
X0105063Y0031940D01*
X0105050Y0031902D01*
X0105034Y0031866D01*
X0105014Y0031832D01*
X0104991Y0031799D01*
X0104965Y0031769D01*
X0104936Y0031742D01*
X0104905Y0031717D01*
X0104872Y0031696D01*
X0104836Y0031678D01*
X0104799Y0031663D01*
X0104761Y0031652D01*
X0104722Y0031644D01*
X0104683Y0031640D01*
X0104643Y0031640D01*
X0104604Y0031644D01*
X0104565Y0031652D01*
X0104527Y0031663D01*
X0104490Y0031678D01*
X0104455Y0031696D01*
X0104421Y0031717D01*
X0104390Y0031742D01*
X0104361Y0031769D01*
X0104335Y0031799D01*
X0104312Y0031832D01*
X0104292Y0031866D01*
X0104276Y0031902D01*
X0104263Y0031940D01*
X0104254Y0031978D01*
X0104248Y0032017D01*
X0104246Y0032057D01*
X0102798Y0040109D02*
X0101965Y0040109D01*
X0102673Y0040942D01*
X0102423Y0041609D02*
X0102383Y0041607D01*
X0102343Y0041602D01*
X0102303Y0041594D01*
X0102264Y0041582D01*
X0102227Y0041567D01*
X0102191Y0041549D01*
X0102156Y0041528D01*
X0102123Y0041505D01*
X0102093Y0041478D01*
X0102065Y0041449D01*
X0102039Y0041418D01*
X0102016Y0041385D01*
X0101996Y0041350D01*
X0101978Y0041313D01*
X0101964Y0041275D01*
X0102674Y0040942D02*
X0102699Y0040968D01*
X0102722Y0040997D01*
X0102742Y0041027D01*
X0102759Y0041059D01*
X0102773Y0041092D01*
X0102784Y0041127D01*
X0102792Y0041162D01*
X0102797Y0041198D01*
X0102799Y0041234D01*
X0102798Y0041234D02*
X0102796Y0041271D01*
X0102791Y0041307D01*
X0102782Y0041343D01*
X0102769Y0041378D01*
X0102754Y0041411D01*
X0102735Y0041442D01*
X0102713Y0041472D01*
X0102688Y0041499D01*
X0102661Y0041524D01*
X0102631Y0041546D01*
X0102600Y0041565D01*
X0102567Y0041580D01*
X0102532Y0041593D01*
X0102496Y0041602D01*
X0102460Y0041607D01*
X0102423Y0041609D01*
X0101310Y0041192D02*
X0101310Y0040525D01*
X0101311Y0040525D02*
X0101309Y0040487D01*
X0101304Y0040448D01*
X0101295Y0040411D01*
X0101283Y0040374D01*
X0101267Y0040339D01*
X0101249Y0040305D01*
X0101227Y0040274D01*
X0101202Y0040244D01*
X0101175Y0040217D01*
X0101145Y0040192D01*
X0101114Y0040170D01*
X0101080Y0040152D01*
X0101045Y0040136D01*
X0101008Y0040124D01*
X0100971Y0040115D01*
X0100932Y0040110D01*
X0100894Y0040108D01*
X0100894Y0040109D02*
X0100477Y0040109D01*
X0100477Y0041609D01*
X0100894Y0041609D01*
X0100932Y0041607D01*
X0100971Y0041602D01*
X0101008Y0041593D01*
X0101045Y0041581D01*
X0101080Y0041565D01*
X0101114Y0041547D01*
X0101145Y0041525D01*
X0101175Y0041500D01*
X0101202Y0041473D01*
X0101227Y0041443D01*
X0101249Y0041412D01*
X0101267Y0041378D01*
X0101283Y0041343D01*
X0101295Y0041306D01*
X0101304Y0041269D01*
X0101309Y0041230D01*
X0101311Y0041192D01*
X0099898Y0041609D02*
X0099232Y0041609D01*
X0099232Y0040109D01*
X0099898Y0040109D01*
X0099732Y0040942D02*
X0099232Y0040942D01*
X0098650Y0040109D02*
X0097984Y0040109D01*
X0097984Y0041609D01*
X0093931Y0044696D02*
X0092431Y0044696D01*
X0092431Y0045113D01*
X0092433Y0045153D01*
X0092439Y0045192D01*
X0092448Y0045230D01*
X0092461Y0045268D01*
X0092477Y0045304D01*
X0092497Y0045338D01*
X0092520Y0045371D01*
X0092546Y0045401D01*
X0092575Y0045428D01*
X0092606Y0045453D01*
X0092640Y0045474D01*
X0092675Y0045492D01*
X0092712Y0045507D01*
X0092750Y0045518D01*
X0092789Y0045526D01*
X0092828Y0045530D01*
X0092868Y0045530D01*
X0092907Y0045526D01*
X0092946Y0045518D01*
X0092984Y0045507D01*
X0093021Y0045492D01*
X0093057Y0045474D01*
X0093090Y0045453D01*
X0093121Y0045428D01*
X0093150Y0045401D01*
X0093176Y0045371D01*
X0093199Y0045338D01*
X0093219Y0045304D01*
X0093235Y0045268D01*
X0093248Y0045230D01*
X0093257Y0045192D01*
X0093263Y0045153D01*
X0093265Y0045113D01*
X0093265Y0044696D01*
X0093265Y0045196D02*
X0093931Y0045530D01*
X0093931Y0046128D02*
X0093931Y0046628D01*
X0093929Y0046663D01*
X0093924Y0046697D01*
X0093915Y0046731D01*
X0093902Y0046763D01*
X0093886Y0046795D01*
X0093867Y0046824D01*
X0093845Y0046851D01*
X0093821Y0046875D01*
X0093794Y0046897D01*
X0093765Y0046916D01*
X0093733Y0046932D01*
X0093701Y0046945D01*
X0093667Y0046954D01*
X0093633Y0046959D01*
X0093598Y0046961D01*
X0093431Y0046961D01*
X0093396Y0046959D01*
X0093362Y0046954D01*
X0093328Y0046945D01*
X0093296Y0046932D01*
X0093265Y0046916D01*
X0093235Y0046897D01*
X0093208Y0046875D01*
X0093184Y0046851D01*
X0093162Y0046824D01*
X0093143Y0046795D01*
X0093127Y0046763D01*
X0093114Y0046731D01*
X0093105Y0046697D01*
X0093100Y0046663D01*
X0093098Y0046628D01*
X0093098Y0046128D01*
X0092431Y0046128D01*
X0092431Y0046961D01*
X0092416Y0048140D02*
X0092416Y0048556D01*
X0092416Y0048140D02*
X0093916Y0048140D01*
X0093250Y0048140D02*
X0093250Y0048556D01*
X0093250Y0048640D02*
X0093916Y0048973D01*
X0093583Y0049571D02*
X0093583Y0050405D01*
X0093250Y0050155D02*
X0093916Y0050155D01*
X0093583Y0049571D02*
X0092416Y0049905D01*
X0092416Y0048556D02*
X0092418Y0048596D01*
X0092424Y0048635D01*
X0092433Y0048673D01*
X0092446Y0048711D01*
X0092462Y0048747D01*
X0092482Y0048781D01*
X0092505Y0048814D01*
X0092531Y0048844D01*
X0092560Y0048871D01*
X0092591Y0048896D01*
X0092625Y0048917D01*
X0092660Y0048935D01*
X0092697Y0048950D01*
X0092735Y0048961D01*
X0092774Y0048969D01*
X0092813Y0048973D01*
X0092853Y0048973D01*
X0092892Y0048969D01*
X0092931Y0048961D01*
X0092969Y0048950D01*
X0093006Y0048935D01*
X0093042Y0048917D01*
X0093075Y0048896D01*
X0093106Y0048871D01*
X0093135Y0048844D01*
X0093161Y0048814D01*
X0093184Y0048781D01*
X0093204Y0048747D01*
X0093220Y0048711D01*
X0093233Y0048673D01*
X0093242Y0048635D01*
X0093248Y0048596D01*
X0093250Y0048556D01*
X0087122Y0047966D02*
X0087122Y0047132D01*
X0087122Y0047549D02*
X0085622Y0047549D01*
X0085956Y0047132D01*
X0086039Y0046478D02*
X0086706Y0046478D01*
X0086744Y0046476D01*
X0086783Y0046471D01*
X0086820Y0046462D01*
X0086857Y0046450D01*
X0086892Y0046434D01*
X0086926Y0046416D01*
X0086957Y0046394D01*
X0086987Y0046369D01*
X0087014Y0046342D01*
X0087039Y0046312D01*
X0087061Y0046281D01*
X0087079Y0046247D01*
X0087095Y0046212D01*
X0087107Y0046175D01*
X0087116Y0046138D01*
X0087121Y0046099D01*
X0087123Y0046061D01*
X0087122Y0046061D02*
X0087122Y0045644D01*
X0085622Y0045644D01*
X0085622Y0046061D01*
X0085624Y0046099D01*
X0085629Y0046138D01*
X0085638Y0046175D01*
X0085650Y0046212D01*
X0085666Y0046247D01*
X0085684Y0046281D01*
X0085706Y0046312D01*
X0085731Y0046342D01*
X0085758Y0046369D01*
X0085788Y0046394D01*
X0085819Y0046416D01*
X0085853Y0046434D01*
X0085888Y0046450D01*
X0085925Y0046462D01*
X0085962Y0046471D01*
X0086001Y0046476D01*
X0086039Y0046478D01*
X0085622Y0045066D02*
X0085622Y0044399D01*
X0087122Y0044399D01*
X0087122Y0045066D01*
X0086289Y0044899D02*
X0086289Y0044399D01*
X0087122Y0043818D02*
X0087122Y0043151D01*
X0085622Y0043151D01*
X0085329Y0051989D02*
X0084496Y0051989D01*
X0085204Y0052823D01*
X0084954Y0053490D02*
X0084914Y0053488D01*
X0084874Y0053483D01*
X0084834Y0053475D01*
X0084795Y0053463D01*
X0084758Y0053448D01*
X0084722Y0053430D01*
X0084687Y0053409D01*
X0084654Y0053386D01*
X0084624Y0053359D01*
X0084596Y0053330D01*
X0084570Y0053299D01*
X0084547Y0053266D01*
X0084527Y0053231D01*
X0084509Y0053194D01*
X0084495Y0053156D01*
X0085205Y0052822D02*
X0085230Y0052848D01*
X0085253Y0052877D01*
X0085273Y0052907D01*
X0085290Y0052939D01*
X0085304Y0052972D01*
X0085315Y0053007D01*
X0085323Y0053042D01*
X0085328Y0053078D01*
X0085330Y0053114D01*
X0085329Y0053114D02*
X0085327Y0053151D01*
X0085322Y0053187D01*
X0085313Y0053223D01*
X0085300Y0053258D01*
X0085285Y0053291D01*
X0085266Y0053322D01*
X0085244Y0053352D01*
X0085219Y0053379D01*
X0085192Y0053404D01*
X0085162Y0053426D01*
X0085131Y0053445D01*
X0085098Y0053460D01*
X0085063Y0053473D01*
X0085027Y0053482D01*
X0084991Y0053487D01*
X0084954Y0053489D01*
X0083481Y0053489D02*
X0083064Y0053489D01*
X0083064Y0051989D01*
X0083064Y0052656D02*
X0083481Y0052656D01*
X0083564Y0052656D02*
X0083898Y0051989D01*
X0083481Y0052656D02*
X0083521Y0052658D01*
X0083560Y0052664D01*
X0083598Y0052673D01*
X0083636Y0052686D01*
X0083672Y0052702D01*
X0083706Y0052722D01*
X0083739Y0052745D01*
X0083769Y0052771D01*
X0083796Y0052800D01*
X0083821Y0052831D01*
X0083842Y0052865D01*
X0083860Y0052900D01*
X0083875Y0052937D01*
X0083886Y0052975D01*
X0083894Y0053014D01*
X0083898Y0053053D01*
X0083898Y0053093D01*
X0083894Y0053132D01*
X0083886Y0053171D01*
X0083875Y0053209D01*
X0083860Y0053246D01*
X0083842Y0053282D01*
X0083821Y0053315D01*
X0083796Y0053346D01*
X0083769Y0053375D01*
X0083739Y0053401D01*
X0083706Y0053424D01*
X0083672Y0053444D01*
X0083636Y0053460D01*
X0083598Y0053473D01*
X0083560Y0053482D01*
X0083521Y0053488D01*
X0083481Y0053490D01*
X0076806Y0059480D02*
X0076806Y0059813D01*
X0076806Y0059480D02*
X0076804Y0059445D01*
X0076799Y0059411D01*
X0076790Y0059377D01*
X0076777Y0059345D01*
X0076761Y0059314D01*
X0076742Y0059284D01*
X0076720Y0059257D01*
X0076696Y0059233D01*
X0076669Y0059211D01*
X0076640Y0059192D01*
X0076608Y0059176D01*
X0076576Y0059163D01*
X0076542Y0059154D01*
X0076508Y0059149D01*
X0076473Y0059147D01*
X0076473Y0059146D02*
X0075640Y0059146D01*
X0075640Y0059147D02*
X0075605Y0059149D01*
X0075571Y0059154D01*
X0075537Y0059163D01*
X0075505Y0059176D01*
X0075474Y0059192D01*
X0075444Y0059211D01*
X0075417Y0059233D01*
X0075393Y0059257D01*
X0075371Y0059284D01*
X0075352Y0059313D01*
X0075336Y0059345D01*
X0075323Y0059377D01*
X0075314Y0059411D01*
X0075309Y0059445D01*
X0075307Y0059480D01*
X0075306Y0059480D02*
X0075306Y0059813D01*
X0075640Y0060350D02*
X0075306Y0060767D01*
X0076806Y0060767D01*
X0076806Y0060350D02*
X0076806Y0061184D01*
X0076806Y0061790D02*
X0076806Y0062624D01*
X0076806Y0061790D02*
X0075973Y0062499D01*
X0075306Y0062249D02*
X0075308Y0062209D01*
X0075313Y0062169D01*
X0075321Y0062129D01*
X0075333Y0062090D01*
X0075348Y0062053D01*
X0075366Y0062017D01*
X0075387Y0061982D01*
X0075410Y0061949D01*
X0075437Y0061919D01*
X0075466Y0061891D01*
X0075497Y0061865D01*
X0075530Y0061842D01*
X0075565Y0061822D01*
X0075602Y0061804D01*
X0075640Y0061790D01*
X0075973Y0062499D02*
X0075947Y0062524D01*
X0075918Y0062547D01*
X0075888Y0062567D01*
X0075856Y0062584D01*
X0075823Y0062598D01*
X0075788Y0062609D01*
X0075753Y0062617D01*
X0075717Y0062622D01*
X0075681Y0062624D01*
X0075644Y0062622D01*
X0075608Y0062617D01*
X0075572Y0062608D01*
X0075537Y0062595D01*
X0075504Y0062580D01*
X0075473Y0062561D01*
X0075443Y0062539D01*
X0075416Y0062514D01*
X0075391Y0062487D01*
X0075369Y0062457D01*
X0075350Y0062426D01*
X0075335Y0062393D01*
X0075322Y0062358D01*
X0075313Y0062322D01*
X0075308Y0062286D01*
X0075306Y0062249D01*
X0077787Y0071975D02*
X0078120Y0071975D01*
X0077787Y0071976D02*
X0077752Y0071978D01*
X0077718Y0071983D01*
X0077684Y0071992D01*
X0077652Y0072005D01*
X0077621Y0072021D01*
X0077591Y0072040D01*
X0077564Y0072062D01*
X0077540Y0072086D01*
X0077518Y0072113D01*
X0077499Y0072143D01*
X0077483Y0072174D01*
X0077470Y0072206D01*
X0077461Y0072240D01*
X0077456Y0072274D01*
X0077454Y0072309D01*
X0077454Y0073142D01*
X0077456Y0073177D01*
X0077461Y0073211D01*
X0077470Y0073245D01*
X0077483Y0073277D01*
X0077499Y0073308D01*
X0077518Y0073338D01*
X0077540Y0073365D01*
X0077564Y0073389D01*
X0077591Y0073411D01*
X0077620Y0073430D01*
X0077652Y0073446D01*
X0077684Y0073459D01*
X0077718Y0073468D01*
X0077752Y0073473D01*
X0077787Y0073475D01*
X0078120Y0073475D01*
X0078657Y0073142D02*
X0079074Y0073475D01*
X0079074Y0071975D01*
X0078657Y0071975D02*
X0079491Y0071975D01*
X0080097Y0071975D02*
X0080931Y0071975D01*
X0080514Y0071975D02*
X0080514Y0073475D01*
X0080097Y0073142D01*
X0085379Y0078337D02*
X0085379Y0079837D01*
X0085796Y0079837D01*
X0085796Y0079838D02*
X0085836Y0079836D01*
X0085875Y0079830D01*
X0085913Y0079821D01*
X0085951Y0079808D01*
X0085987Y0079792D01*
X0086021Y0079772D01*
X0086054Y0079749D01*
X0086084Y0079723D01*
X0086111Y0079694D01*
X0086136Y0079663D01*
X0086157Y0079630D01*
X0086175Y0079594D01*
X0086190Y0079557D01*
X0086201Y0079519D01*
X0086209Y0079480D01*
X0086213Y0079441D01*
X0086213Y0079401D01*
X0086209Y0079362D01*
X0086201Y0079323D01*
X0086190Y0079285D01*
X0086175Y0079248D01*
X0086157Y0079213D01*
X0086136Y0079179D01*
X0086111Y0079148D01*
X0086084Y0079119D01*
X0086054Y0079093D01*
X0086021Y0079070D01*
X0085987Y0079050D01*
X0085951Y0079034D01*
X0085913Y0079021D01*
X0085875Y0079012D01*
X0085836Y0079006D01*
X0085796Y0079004D01*
X0085379Y0079004D01*
X0085879Y0079004D02*
X0086213Y0078337D01*
X0086811Y0078337D02*
X0087644Y0078337D01*
X0088251Y0078337D02*
X0089084Y0078337D01*
X0088668Y0078337D02*
X0088668Y0079837D01*
X0088251Y0079504D01*
X0087519Y0079171D02*
X0086811Y0078337D01*
X0086810Y0079504D02*
X0086824Y0079542D01*
X0086842Y0079579D01*
X0086862Y0079614D01*
X0086885Y0079647D01*
X0086911Y0079678D01*
X0086939Y0079707D01*
X0086969Y0079734D01*
X0087002Y0079757D01*
X0087037Y0079778D01*
X0087073Y0079796D01*
X0087110Y0079811D01*
X0087149Y0079823D01*
X0087189Y0079831D01*
X0087229Y0079836D01*
X0087269Y0079838D01*
X0087269Y0079837D02*
X0087306Y0079835D01*
X0087342Y0079830D01*
X0087378Y0079821D01*
X0087413Y0079808D01*
X0087446Y0079793D01*
X0087477Y0079774D01*
X0087507Y0079752D01*
X0087534Y0079727D01*
X0087559Y0079700D01*
X0087581Y0079670D01*
X0087600Y0079639D01*
X0087615Y0079606D01*
X0087628Y0079571D01*
X0087637Y0079535D01*
X0087642Y0079499D01*
X0087644Y0079462D01*
X0087645Y0079462D02*
X0087643Y0079426D01*
X0087638Y0079390D01*
X0087630Y0079355D01*
X0087619Y0079320D01*
X0087605Y0079287D01*
X0087588Y0079255D01*
X0087568Y0079225D01*
X0087545Y0079196D01*
X0087520Y0079170D01*
X0090709Y0072557D02*
X0090711Y0072507D01*
X0090716Y0072458D01*
X0090726Y0072409D01*
X0090739Y0072360D01*
X0090755Y0072313D01*
X0090775Y0072268D01*
X0090798Y0072223D01*
X0090825Y0072181D01*
X0090855Y0072141D01*
X0090887Y0072103D01*
X0090922Y0072068D01*
X0090960Y0072036D01*
X0091000Y0072006D01*
X0091043Y0071979D01*
X0091087Y0071956D01*
X0091132Y0071936D01*
X0091179Y0071920D01*
X0091228Y0071907D01*
X0091277Y0071897D01*
X0091326Y0071892D01*
X0091376Y0071890D01*
X0091792Y0071890D01*
X0091376Y0071890D02*
X0091376Y0072390D01*
X0091378Y0072425D01*
X0091383Y0072459D01*
X0091392Y0072493D01*
X0091405Y0072525D01*
X0091421Y0072557D01*
X0091440Y0072586D01*
X0091462Y0072613D01*
X0091486Y0072637D01*
X0091513Y0072659D01*
X0091543Y0072678D01*
X0091574Y0072694D01*
X0091606Y0072707D01*
X0091640Y0072716D01*
X0091674Y0072721D01*
X0091709Y0072723D01*
X0091709Y0072724D02*
X0091792Y0072724D01*
X0091832Y0072722D01*
X0091871Y0072716D01*
X0091909Y0072707D01*
X0091947Y0072694D01*
X0091983Y0072678D01*
X0092017Y0072658D01*
X0092050Y0072635D01*
X0092080Y0072609D01*
X0092107Y0072580D01*
X0092132Y0072549D01*
X0092153Y0072516D01*
X0092171Y0072480D01*
X0092186Y0072443D01*
X0092197Y0072405D01*
X0092205Y0072366D01*
X0092209Y0072327D01*
X0092209Y0072287D01*
X0092205Y0072248D01*
X0092197Y0072209D01*
X0092186Y0072171D01*
X0092171Y0072134D01*
X0092153Y0072099D01*
X0092132Y0072065D01*
X0092107Y0072034D01*
X0092080Y0072005D01*
X0092050Y0071979D01*
X0092017Y0071956D01*
X0091983Y0071936D01*
X0091947Y0071920D01*
X0091909Y0071907D01*
X0091871Y0071898D01*
X0091832Y0071892D01*
X0091792Y0071890D01*
X0092209Y0071284D02*
X0092209Y0070450D01*
X0091376Y0071159D01*
X0090709Y0070909D02*
X0090711Y0070869D01*
X0090716Y0070829D01*
X0090724Y0070789D01*
X0090736Y0070750D01*
X0090751Y0070713D01*
X0090769Y0070677D01*
X0090790Y0070642D01*
X0090813Y0070609D01*
X0090840Y0070579D01*
X0090869Y0070551D01*
X0090900Y0070525D01*
X0090933Y0070502D01*
X0090968Y0070482D01*
X0091005Y0070464D01*
X0091043Y0070450D01*
X0091376Y0071159D02*
X0091350Y0071184D01*
X0091321Y0071207D01*
X0091291Y0071227D01*
X0091259Y0071244D01*
X0091226Y0071258D01*
X0091191Y0071269D01*
X0091156Y0071277D01*
X0091120Y0071282D01*
X0091084Y0071284D01*
X0091047Y0071282D01*
X0091011Y0071277D01*
X0090975Y0071268D01*
X0090940Y0071255D01*
X0090907Y0071240D01*
X0090876Y0071221D01*
X0090846Y0071199D01*
X0090819Y0071174D01*
X0090794Y0071147D01*
X0090772Y0071117D01*
X0090753Y0071086D01*
X0090738Y0071053D01*
X0090725Y0071018D01*
X0090716Y0070982D01*
X0090711Y0070946D01*
X0090709Y0070909D01*
X0090709Y0069913D02*
X0090709Y0069580D01*
X0090711Y0069545D01*
X0090716Y0069511D01*
X0090725Y0069477D01*
X0090738Y0069445D01*
X0090754Y0069413D01*
X0090773Y0069384D01*
X0090795Y0069357D01*
X0090819Y0069333D01*
X0090846Y0069311D01*
X0090876Y0069292D01*
X0090907Y0069276D01*
X0090939Y0069263D01*
X0090973Y0069254D01*
X0091007Y0069249D01*
X0091042Y0069247D01*
X0091876Y0069247D01*
X0091911Y0069249D01*
X0091945Y0069254D01*
X0091979Y0069263D01*
X0092011Y0069276D01*
X0092043Y0069292D01*
X0092072Y0069311D01*
X0092099Y0069333D01*
X0092123Y0069357D01*
X0092145Y0069384D01*
X0092164Y0069414D01*
X0092180Y0069445D01*
X0092193Y0069477D01*
X0092202Y0069511D01*
X0092207Y0069545D01*
X0092209Y0069580D01*
X0092209Y0069913D01*
X0077132Y0084882D02*
X0075632Y0084882D01*
X0075632Y0085299D01*
X0075634Y0085339D01*
X0075640Y0085378D01*
X0075649Y0085416D01*
X0075662Y0085454D01*
X0075678Y0085490D01*
X0075698Y0085524D01*
X0075721Y0085557D01*
X0075747Y0085587D01*
X0075776Y0085614D01*
X0075807Y0085639D01*
X0075841Y0085660D01*
X0075876Y0085678D01*
X0075913Y0085693D01*
X0075951Y0085704D01*
X0075990Y0085712D01*
X0076029Y0085716D01*
X0076069Y0085716D01*
X0076108Y0085712D01*
X0076147Y0085704D01*
X0076185Y0085693D01*
X0076222Y0085678D01*
X0076258Y0085660D01*
X0076291Y0085639D01*
X0076322Y0085614D01*
X0076351Y0085587D01*
X0076377Y0085557D01*
X0076400Y0085524D01*
X0076420Y0085490D01*
X0076436Y0085454D01*
X0076449Y0085416D01*
X0076458Y0085378D01*
X0076464Y0085339D01*
X0076466Y0085299D01*
X0076465Y0085299D02*
X0076465Y0084882D01*
X0076465Y0085382D02*
X0077132Y0085716D01*
X0077132Y0086314D02*
X0077132Y0087147D01*
X0077132Y0086731D02*
X0075632Y0086731D01*
X0075965Y0086314D01*
X0075965Y0087838D02*
X0076000Y0087840D01*
X0076034Y0087845D01*
X0076068Y0087854D01*
X0076100Y0087867D01*
X0076132Y0087883D01*
X0076161Y0087902D01*
X0076188Y0087924D01*
X0076212Y0087948D01*
X0076234Y0087975D01*
X0076253Y0088005D01*
X0076269Y0088036D01*
X0076282Y0088068D01*
X0076291Y0088102D01*
X0076296Y0088136D01*
X0076298Y0088171D01*
X0076296Y0088206D01*
X0076291Y0088240D01*
X0076282Y0088274D01*
X0076269Y0088306D01*
X0076253Y0088338D01*
X0076234Y0088367D01*
X0076212Y0088394D01*
X0076188Y0088418D01*
X0076161Y0088440D01*
X0076132Y0088459D01*
X0076100Y0088475D01*
X0076068Y0088488D01*
X0076034Y0088497D01*
X0076000Y0088502D01*
X0075965Y0088504D01*
X0075930Y0088502D01*
X0075896Y0088497D01*
X0075862Y0088488D01*
X0075830Y0088475D01*
X0075799Y0088459D01*
X0075769Y0088440D01*
X0075742Y0088418D01*
X0075718Y0088394D01*
X0075696Y0088367D01*
X0075677Y0088338D01*
X0075661Y0088306D01*
X0075648Y0088274D01*
X0075639Y0088240D01*
X0075634Y0088206D01*
X0075632Y0088171D01*
X0075634Y0088136D01*
X0075639Y0088102D01*
X0075648Y0088068D01*
X0075661Y0088036D01*
X0075677Y0088005D01*
X0075696Y0087975D01*
X0075718Y0087948D01*
X0075742Y0087924D01*
X0075769Y0087902D01*
X0075799Y0087883D01*
X0075830Y0087867D01*
X0075862Y0087854D01*
X0075896Y0087845D01*
X0075930Y0087840D01*
X0075965Y0087838D01*
X0076715Y0087754D02*
X0076755Y0087756D01*
X0076794Y0087762D01*
X0076832Y0087771D01*
X0076870Y0087784D01*
X0076906Y0087800D01*
X0076940Y0087820D01*
X0076973Y0087843D01*
X0077003Y0087869D01*
X0077030Y0087898D01*
X0077055Y0087929D01*
X0077076Y0087963D01*
X0077094Y0087998D01*
X0077109Y0088035D01*
X0077120Y0088073D01*
X0077128Y0088112D01*
X0077132Y0088151D01*
X0077132Y0088191D01*
X0077128Y0088230D01*
X0077120Y0088269D01*
X0077109Y0088307D01*
X0077094Y0088344D01*
X0077076Y0088380D01*
X0077055Y0088413D01*
X0077030Y0088444D01*
X0077003Y0088473D01*
X0076973Y0088499D01*
X0076940Y0088522D01*
X0076906Y0088542D01*
X0076870Y0088558D01*
X0076832Y0088571D01*
X0076794Y0088580D01*
X0076755Y0088586D01*
X0076715Y0088588D01*
X0076675Y0088586D01*
X0076636Y0088580D01*
X0076598Y0088571D01*
X0076560Y0088558D01*
X0076524Y0088542D01*
X0076490Y0088522D01*
X0076457Y0088499D01*
X0076427Y0088473D01*
X0076400Y0088444D01*
X0076375Y0088413D01*
X0076354Y0088380D01*
X0076336Y0088344D01*
X0076321Y0088307D01*
X0076310Y0088269D01*
X0076302Y0088230D01*
X0076298Y0088191D01*
X0076298Y0088151D01*
X0076302Y0088112D01*
X0076310Y0088073D01*
X0076321Y0088035D01*
X0076336Y0087998D01*
X0076354Y0087963D01*
X0076375Y0087929D01*
X0076400Y0087898D01*
X0076427Y0087869D01*
X0076457Y0087843D01*
X0076490Y0087820D01*
X0076524Y0087800D01*
X0076560Y0087784D01*
X0076598Y0087771D01*
X0076636Y0087762D01*
X0076675Y0087756D01*
X0076715Y0087754D01*
X0069113Y0091149D02*
X0067613Y0091149D01*
X0067613Y0091566D01*
X0067615Y0091606D01*
X0067621Y0091645D01*
X0067630Y0091683D01*
X0067643Y0091721D01*
X0067659Y0091757D01*
X0067679Y0091791D01*
X0067702Y0091824D01*
X0067728Y0091854D01*
X0067757Y0091881D01*
X0067788Y0091906D01*
X0067822Y0091927D01*
X0067857Y0091945D01*
X0067894Y0091960D01*
X0067932Y0091971D01*
X0067971Y0091979D01*
X0068010Y0091983D01*
X0068050Y0091983D01*
X0068089Y0091979D01*
X0068128Y0091971D01*
X0068166Y0091960D01*
X0068203Y0091945D01*
X0068239Y0091927D01*
X0068272Y0091906D01*
X0068303Y0091881D01*
X0068332Y0091854D01*
X0068358Y0091824D01*
X0068381Y0091791D01*
X0068401Y0091757D01*
X0068417Y0091721D01*
X0068430Y0091683D01*
X0068439Y0091645D01*
X0068445Y0091606D01*
X0068447Y0091566D01*
X0068446Y0091566D02*
X0068446Y0091149D01*
X0068446Y0091649D02*
X0069113Y0091983D01*
X0069113Y0092581D02*
X0069113Y0093414D01*
X0069113Y0092998D02*
X0067613Y0092998D01*
X0067946Y0092581D01*
X0067780Y0094021D02*
X0067613Y0094021D01*
X0067613Y0094854D01*
X0069113Y0094438D01*
X0060632Y0093566D02*
X0060632Y0092733D01*
X0060632Y0093149D02*
X0059132Y0093149D01*
X0059465Y0092733D01*
X0059132Y0092196D02*
X0059132Y0091862D01*
X0059134Y0091827D01*
X0059139Y0091793D01*
X0059148Y0091759D01*
X0059161Y0091727D01*
X0059177Y0091695D01*
X0059196Y0091666D01*
X0059218Y0091639D01*
X0059242Y0091615D01*
X0059269Y0091593D01*
X0059299Y0091574D01*
X0059330Y0091558D01*
X0059362Y0091545D01*
X0059396Y0091536D01*
X0059430Y0091531D01*
X0059465Y0091529D01*
X0060298Y0091529D01*
X0060333Y0091531D01*
X0060367Y0091536D01*
X0060401Y0091545D01*
X0060433Y0091558D01*
X0060465Y0091574D01*
X0060494Y0091593D01*
X0060521Y0091615D01*
X0060545Y0091639D01*
X0060567Y0091666D01*
X0060586Y0091696D01*
X0060602Y0091727D01*
X0060615Y0091759D01*
X0060624Y0091793D01*
X0060629Y0091827D01*
X0060631Y0091862D01*
X0060632Y0091862D02*
X0060632Y0092196D01*
X0059632Y0094173D02*
X0059548Y0094173D01*
X0059632Y0094173D02*
X0059667Y0094175D01*
X0059701Y0094180D01*
X0059735Y0094189D01*
X0059767Y0094202D01*
X0059798Y0094218D01*
X0059828Y0094237D01*
X0059855Y0094259D01*
X0059879Y0094283D01*
X0059901Y0094310D01*
X0059920Y0094339D01*
X0059936Y0094371D01*
X0059949Y0094403D01*
X0059958Y0094437D01*
X0059963Y0094471D01*
X0059965Y0094506D01*
X0059965Y0095006D01*
X0059548Y0095006D01*
X0059508Y0095004D01*
X0059469Y0094998D01*
X0059431Y0094989D01*
X0059393Y0094976D01*
X0059357Y0094960D01*
X0059323Y0094940D01*
X0059290Y0094917D01*
X0059260Y0094891D01*
X0059233Y0094862D01*
X0059208Y0094831D01*
X0059187Y0094798D01*
X0059169Y0094762D01*
X0059154Y0094725D01*
X0059143Y0094687D01*
X0059135Y0094648D01*
X0059131Y0094609D01*
X0059131Y0094569D01*
X0059135Y0094530D01*
X0059143Y0094491D01*
X0059154Y0094453D01*
X0059169Y0094416D01*
X0059187Y0094381D01*
X0059208Y0094347D01*
X0059233Y0094316D01*
X0059260Y0094287D01*
X0059290Y0094261D01*
X0059323Y0094238D01*
X0059357Y0094218D01*
X0059393Y0094202D01*
X0059431Y0094189D01*
X0059469Y0094180D01*
X0059508Y0094174D01*
X0059548Y0094172D01*
X0059965Y0095006D02*
X0060015Y0095004D01*
X0060064Y0094999D01*
X0060113Y0094989D01*
X0060162Y0094976D01*
X0060209Y0094960D01*
X0060254Y0094940D01*
X0060299Y0094917D01*
X0060341Y0094890D01*
X0060381Y0094860D01*
X0060419Y0094828D01*
X0060454Y0094793D01*
X0060486Y0094755D01*
X0060516Y0094715D01*
X0060543Y0094673D01*
X0060566Y0094628D01*
X0060586Y0094583D01*
X0060602Y0094536D01*
X0060615Y0094487D01*
X0060625Y0094438D01*
X0060630Y0094389D01*
X0060632Y0094339D01*
X0064496Y0080394D02*
X0064912Y0080394D01*
X0064496Y0080394D02*
X0064496Y0078894D01*
X0064496Y0079561D02*
X0064912Y0079561D01*
X0064996Y0079561D02*
X0065329Y0078894D01*
X0065927Y0078894D02*
X0066761Y0078894D01*
X0066344Y0078894D02*
X0066344Y0080394D01*
X0065927Y0080061D01*
X0064912Y0080394D02*
X0064952Y0080392D01*
X0064991Y0080386D01*
X0065029Y0080377D01*
X0065067Y0080364D01*
X0065103Y0080348D01*
X0065137Y0080328D01*
X0065170Y0080305D01*
X0065200Y0080279D01*
X0065227Y0080250D01*
X0065252Y0080219D01*
X0065273Y0080186D01*
X0065291Y0080150D01*
X0065306Y0080113D01*
X0065317Y0080075D01*
X0065325Y0080036D01*
X0065329Y0079997D01*
X0065329Y0079957D01*
X0065325Y0079918D01*
X0065317Y0079879D01*
X0065306Y0079841D01*
X0065291Y0079804D01*
X0065273Y0079769D01*
X0065252Y0079735D01*
X0065227Y0079704D01*
X0065200Y0079675D01*
X0065170Y0079649D01*
X0065137Y0079626D01*
X0065103Y0079606D01*
X0065067Y0079590D01*
X0065029Y0079577D01*
X0064991Y0079568D01*
X0064952Y0079562D01*
X0064912Y0079560D01*
X0067367Y0079727D02*
X0067367Y0079311D01*
X0067367Y0079727D02*
X0067867Y0079727D01*
X0067367Y0079727D02*
X0067369Y0079777D01*
X0067374Y0079826D01*
X0067384Y0079875D01*
X0067397Y0079924D01*
X0067413Y0079971D01*
X0067433Y0080016D01*
X0067456Y0080060D01*
X0067483Y0080103D01*
X0067513Y0080143D01*
X0067545Y0080181D01*
X0067580Y0080216D01*
X0067618Y0080248D01*
X0067658Y0080278D01*
X0067700Y0080305D01*
X0067745Y0080328D01*
X0067790Y0080348D01*
X0067837Y0080364D01*
X0067886Y0080377D01*
X0067935Y0080387D01*
X0067984Y0080392D01*
X0068034Y0080394D01*
X0068201Y0079394D02*
X0068201Y0079311D01*
X0068200Y0079394D02*
X0068198Y0079429D01*
X0068193Y0079463D01*
X0068184Y0079497D01*
X0068171Y0079529D01*
X0068155Y0079561D01*
X0068136Y0079590D01*
X0068114Y0079617D01*
X0068090Y0079641D01*
X0068063Y0079663D01*
X0068034Y0079682D01*
X0068002Y0079698D01*
X0067970Y0079711D01*
X0067936Y0079720D01*
X0067902Y0079725D01*
X0067867Y0079727D01*
X0068201Y0079311D02*
X0068199Y0079271D01*
X0068193Y0079232D01*
X0068184Y0079194D01*
X0068171Y0079156D01*
X0068155Y0079120D01*
X0068135Y0079086D01*
X0068112Y0079053D01*
X0068086Y0079023D01*
X0068057Y0078996D01*
X0068026Y0078971D01*
X0067993Y0078950D01*
X0067957Y0078932D01*
X0067920Y0078917D01*
X0067882Y0078906D01*
X0067843Y0078898D01*
X0067804Y0078894D01*
X0067764Y0078894D01*
X0067725Y0078898D01*
X0067686Y0078906D01*
X0067648Y0078917D01*
X0067611Y0078932D01*
X0067576Y0078950D01*
X0067542Y0078971D01*
X0067511Y0078996D01*
X0067482Y0079023D01*
X0067456Y0079053D01*
X0067433Y0079086D01*
X0067413Y0079120D01*
X0067397Y0079156D01*
X0067384Y0079194D01*
X0067375Y0079232D01*
X0067369Y0079271D01*
X0067367Y0079311D01*
X0066701Y0048368D02*
X0066284Y0048368D01*
X0066284Y0046868D01*
X0066284Y0047535D02*
X0066701Y0047535D01*
X0066784Y0047535D02*
X0067117Y0046868D01*
X0067716Y0047285D02*
X0067716Y0047701D01*
X0068216Y0047701D01*
X0067716Y0047701D02*
X0067718Y0047751D01*
X0067723Y0047800D01*
X0067733Y0047849D01*
X0067746Y0047898D01*
X0067762Y0047945D01*
X0067782Y0047990D01*
X0067805Y0048034D01*
X0067832Y0048077D01*
X0067862Y0048117D01*
X0067894Y0048155D01*
X0067929Y0048190D01*
X0067967Y0048222D01*
X0068007Y0048252D01*
X0068049Y0048279D01*
X0068094Y0048302D01*
X0068139Y0048322D01*
X0068186Y0048338D01*
X0068235Y0048351D01*
X0068284Y0048361D01*
X0068333Y0048366D01*
X0068383Y0048368D01*
X0068549Y0047368D02*
X0068549Y0047285D01*
X0068549Y0047368D02*
X0068547Y0047403D01*
X0068542Y0047437D01*
X0068533Y0047471D01*
X0068520Y0047503D01*
X0068504Y0047535D01*
X0068485Y0047564D01*
X0068463Y0047591D01*
X0068439Y0047615D01*
X0068412Y0047637D01*
X0068383Y0047656D01*
X0068351Y0047672D01*
X0068319Y0047685D01*
X0068285Y0047694D01*
X0068251Y0047699D01*
X0068216Y0047701D01*
X0068550Y0047285D02*
X0068548Y0047245D01*
X0068542Y0047206D01*
X0068533Y0047168D01*
X0068520Y0047130D01*
X0068504Y0047094D01*
X0068484Y0047060D01*
X0068461Y0047027D01*
X0068435Y0046997D01*
X0068406Y0046970D01*
X0068375Y0046945D01*
X0068342Y0046924D01*
X0068306Y0046906D01*
X0068269Y0046891D01*
X0068231Y0046880D01*
X0068192Y0046872D01*
X0068153Y0046868D01*
X0068113Y0046868D01*
X0068074Y0046872D01*
X0068035Y0046880D01*
X0067997Y0046891D01*
X0067960Y0046906D01*
X0067925Y0046924D01*
X0067891Y0046945D01*
X0067860Y0046970D01*
X0067831Y0046997D01*
X0067805Y0047027D01*
X0067782Y0047060D01*
X0067762Y0047094D01*
X0067746Y0047130D01*
X0067733Y0047168D01*
X0067724Y0047206D01*
X0067718Y0047245D01*
X0067716Y0047285D01*
X0066701Y0047534D02*
X0066741Y0047536D01*
X0066780Y0047542D01*
X0066818Y0047551D01*
X0066856Y0047564D01*
X0066892Y0047580D01*
X0066926Y0047600D01*
X0066959Y0047623D01*
X0066989Y0047649D01*
X0067016Y0047678D01*
X0067041Y0047709D01*
X0067062Y0047743D01*
X0067080Y0047778D01*
X0067095Y0047815D01*
X0067106Y0047853D01*
X0067114Y0047892D01*
X0067118Y0047931D01*
X0067118Y0047971D01*
X0067114Y0048010D01*
X0067106Y0048049D01*
X0067095Y0048087D01*
X0067080Y0048124D01*
X0067062Y0048160D01*
X0067041Y0048193D01*
X0067016Y0048224D01*
X0066989Y0048253D01*
X0066959Y0048279D01*
X0066926Y0048302D01*
X0066892Y0048322D01*
X0066856Y0048338D01*
X0066818Y0048351D01*
X0066780Y0048360D01*
X0066741Y0048366D01*
X0066701Y0048368D01*
X0073843Y0041644D02*
X0074259Y0041644D01*
X0073843Y0041644D02*
X0073843Y0040144D01*
X0073843Y0040810D02*
X0074259Y0040810D01*
X0074343Y0040810D02*
X0074676Y0040144D01*
X0075275Y0040144D02*
X0075691Y0040144D01*
X0075691Y0040143D02*
X0075731Y0040145D01*
X0075770Y0040151D01*
X0075808Y0040160D01*
X0075846Y0040173D01*
X0075882Y0040189D01*
X0075916Y0040209D01*
X0075949Y0040232D01*
X0075979Y0040258D01*
X0076006Y0040287D01*
X0076031Y0040318D01*
X0076052Y0040352D01*
X0076070Y0040387D01*
X0076085Y0040424D01*
X0076096Y0040462D01*
X0076104Y0040501D01*
X0076108Y0040540D01*
X0076108Y0040580D01*
X0076104Y0040619D01*
X0076096Y0040658D01*
X0076085Y0040696D01*
X0076070Y0040733D01*
X0076052Y0040769D01*
X0076031Y0040802D01*
X0076006Y0040833D01*
X0075979Y0040862D01*
X0075949Y0040888D01*
X0075916Y0040911D01*
X0075882Y0040931D01*
X0075846Y0040947D01*
X0075808Y0040960D01*
X0075770Y0040969D01*
X0075731Y0040975D01*
X0075691Y0040977D01*
X0075775Y0040977D02*
X0075441Y0040977D01*
X0075775Y0040977D02*
X0075810Y0040979D01*
X0075844Y0040984D01*
X0075878Y0040993D01*
X0075910Y0041006D01*
X0075942Y0041022D01*
X0075971Y0041041D01*
X0075998Y0041063D01*
X0076022Y0041087D01*
X0076044Y0041114D01*
X0076063Y0041144D01*
X0076079Y0041175D01*
X0076092Y0041207D01*
X0076101Y0041241D01*
X0076106Y0041275D01*
X0076108Y0041310D01*
X0076106Y0041345D01*
X0076101Y0041379D01*
X0076092Y0041413D01*
X0076079Y0041445D01*
X0076063Y0041477D01*
X0076044Y0041506D01*
X0076022Y0041533D01*
X0075998Y0041557D01*
X0075971Y0041579D01*
X0075942Y0041598D01*
X0075910Y0041614D01*
X0075878Y0041627D01*
X0075844Y0041636D01*
X0075810Y0041641D01*
X0075775Y0041643D01*
X0075775Y0041644D02*
X0075275Y0041644D01*
X0074259Y0041644D02*
X0074299Y0041642D01*
X0074338Y0041636D01*
X0074376Y0041627D01*
X0074414Y0041614D01*
X0074450Y0041598D01*
X0074484Y0041578D01*
X0074517Y0041555D01*
X0074547Y0041529D01*
X0074574Y0041500D01*
X0074599Y0041469D01*
X0074620Y0041436D01*
X0074638Y0041400D01*
X0074653Y0041363D01*
X0074664Y0041325D01*
X0074672Y0041286D01*
X0074676Y0041247D01*
X0074676Y0041207D01*
X0074672Y0041168D01*
X0074664Y0041129D01*
X0074653Y0041091D01*
X0074638Y0041054D01*
X0074620Y0041019D01*
X0074599Y0040985D01*
X0074574Y0040954D01*
X0074547Y0040925D01*
X0074517Y0040899D01*
X0074484Y0040876D01*
X0074450Y0040856D01*
X0074414Y0040840D01*
X0074376Y0040827D01*
X0074338Y0040818D01*
X0074299Y0040812D01*
X0074259Y0040810D01*
X0087934Y0033397D02*
X0087934Y0032563D01*
X0087936Y0032528D01*
X0087941Y0032494D01*
X0087950Y0032460D01*
X0087963Y0032428D01*
X0087979Y0032397D01*
X0087998Y0032367D01*
X0088020Y0032340D01*
X0088044Y0032316D01*
X0088071Y0032294D01*
X0088101Y0032275D01*
X0088132Y0032259D01*
X0088164Y0032246D01*
X0088198Y0032237D01*
X0088232Y0032232D01*
X0088267Y0032230D01*
X0088600Y0032230D01*
X0089137Y0032230D02*
X0089971Y0032230D01*
X0089554Y0032230D02*
X0089554Y0033730D01*
X0089137Y0033397D01*
X0088600Y0033730D02*
X0088267Y0033730D01*
X0088232Y0033728D01*
X0088198Y0033723D01*
X0088164Y0033714D01*
X0088132Y0033701D01*
X0088100Y0033685D01*
X0088071Y0033666D01*
X0088044Y0033644D01*
X0088020Y0033620D01*
X0087998Y0033593D01*
X0087979Y0033563D01*
X0087963Y0033532D01*
X0087950Y0033500D01*
X0087941Y0033466D01*
X0087936Y0033432D01*
X0087934Y0033397D01*
X0090577Y0033563D02*
X0090577Y0033730D01*
X0091411Y0033730D01*
X0090994Y0032230D01*
X0132102Y0025151D02*
X0132352Y0025151D01*
X0132102Y0025151D02*
X0132102Y0024251D01*
X0132102Y0024651D02*
X0132352Y0024651D01*
X0132382Y0024653D01*
X0132412Y0024658D01*
X0132441Y0024667D01*
X0132468Y0024680D01*
X0132494Y0024695D01*
X0132518Y0024714D01*
X0132539Y0024735D01*
X0132558Y0024759D01*
X0132573Y0024785D01*
X0132586Y0024812D01*
X0132595Y0024841D01*
X0132600Y0024871D01*
X0132602Y0024901D01*
X0132600Y0024931D01*
X0132595Y0024961D01*
X0132586Y0024990D01*
X0132573Y0025017D01*
X0132558Y0025043D01*
X0132539Y0025067D01*
X0132518Y0025088D01*
X0132494Y0025107D01*
X0132468Y0025122D01*
X0132441Y0025135D01*
X0132412Y0025144D01*
X0132382Y0025149D01*
X0132352Y0025151D01*
X0132987Y0025151D02*
X0133487Y0024251D01*
X0133487Y0025151D01*
X0133962Y0025151D02*
X0134212Y0025151D01*
X0133962Y0025151D02*
X0133962Y0024251D01*
X0133962Y0024651D02*
X0134212Y0024651D01*
X0134242Y0024653D01*
X0134272Y0024658D01*
X0134301Y0024667D01*
X0134328Y0024680D01*
X0134354Y0024695D01*
X0134378Y0024714D01*
X0134399Y0024735D01*
X0134418Y0024759D01*
X0134433Y0024785D01*
X0134446Y0024812D01*
X0134455Y0024841D01*
X0134460Y0024871D01*
X0134462Y0024901D01*
X0134460Y0024931D01*
X0134455Y0024961D01*
X0134446Y0024990D01*
X0134433Y0025017D01*
X0134418Y0025043D01*
X0134399Y0025067D01*
X0134378Y0025088D01*
X0134354Y0025107D01*
X0134328Y0025122D01*
X0134301Y0025135D01*
X0134272Y0025144D01*
X0134242Y0025149D01*
X0134212Y0025151D01*
X0132987Y0025151D02*
X0132987Y0024251D01*
D17*
X0076591Y0024799D03*
D18*
X0091795Y0039312D02*
X0091795Y0041123D01*
X0093015Y0042044D01*
X0091795Y0042934D02*
X0091795Y0041123D01*
X0091855Y0041023D02*
X0093015Y0040263D01*
X0091315Y0047673D02*
X0089504Y0047673D01*
X0088583Y0048893D01*
X0087693Y0047673D02*
X0089504Y0047673D01*
X0089604Y0047734D02*
X0090364Y0048893D01*
X0098760Y0017136D02*
X0098760Y0017136D01*
X0098760Y0017136D01*
X0098760Y0017136D01*
X0098760Y0017136D01*
X0098760Y0017136D01*
X0098760Y0017136D01*
X0098760Y0017136D01*
X0098760Y0017136D01*
X0131746Y0022990D02*
X0131746Y0022990D01*
X0131746Y0022990D01*
X0131746Y0022990D01*
X0131746Y0022990D01*
X0131746Y0022990D01*
X0131746Y0022990D01*
X0131746Y0022990D01*
X0131746Y0022990D01*
X0176157Y0058468D02*
X0176157Y0059068D01*
X0176157Y0058468D02*
X0189657Y0058468D01*
X0189657Y0059068D01*
X0189657Y0062868D02*
X0189657Y0064068D01*
X0189657Y0067868D02*
X0189657Y0069068D01*
X0189657Y0072868D02*
X0189657Y0074068D01*
X0189657Y0077868D02*
X0189657Y0079068D01*
X0189657Y0082868D02*
X0189657Y0083468D01*
X0176157Y0083468D01*
X0176157Y0082868D01*
X0176157Y0079068D02*
X0176157Y0077868D01*
X0176157Y0074068D02*
X0176157Y0072868D01*
X0176157Y0069068D02*
X0176157Y0067868D01*
X0176157Y0064068D02*
X0176157Y0062868D01*
X0140056Y0080557D02*
X0140056Y0080951D01*
X0138481Y0080951D01*
X0138481Y0080557D01*
X0140056Y0080557D01*
X0139533Y0118507D02*
X0134533Y0118507D01*
X0132033Y0121007D01*
X0129533Y0118507D01*
X0124533Y0118507D01*
X0122033Y0121007D01*
X0119533Y0118507D01*
X0114533Y0118507D01*
X0112033Y0121007D01*
X0109533Y0118507D01*
X0104533Y0118507D01*
X0102033Y0121007D01*
X0099533Y0118507D01*
X0094533Y0118507D01*
X0092033Y0121007D01*
X0089533Y0118507D01*
X0084533Y0118507D01*
X0082033Y0121007D01*
X0079533Y0118507D01*
X0074533Y0118507D01*
X0072033Y0121007D01*
X0069533Y0118507D01*
X0064533Y0118507D01*
X0062033Y0121007D01*
X0059533Y0118507D01*
X0054533Y0118507D01*
X0052033Y0121007D01*
X0049533Y0118507D01*
X0044533Y0118507D01*
X0042033Y0121007D01*
X0039533Y0118507D01*
X0034533Y0118507D01*
X0032033Y0121007D01*
X0032033Y0126007D01*
X0034533Y0128507D01*
X0039533Y0128507D01*
X0042033Y0126007D01*
X0044533Y0128507D01*
X0049533Y0128507D01*
X0052033Y0126007D01*
X0054533Y0128507D01*
X0059533Y0128507D01*
X0062033Y0126007D01*
X0064533Y0128507D01*
X0069533Y0128507D01*
X0072033Y0126007D01*
X0074533Y0128507D01*
X0079533Y0128507D01*
X0082033Y0126007D01*
X0084533Y0128507D01*
X0089533Y0128507D01*
X0092033Y0126007D01*
X0094533Y0128507D01*
X0099533Y0128507D01*
X0102033Y0126007D01*
X0104533Y0128507D01*
X0109533Y0128507D01*
X0112033Y0126007D01*
X0114533Y0128507D01*
X0119533Y0128507D01*
X0122033Y0126007D01*
X0124533Y0128507D01*
X0129533Y0128507D01*
X0132033Y0126007D01*
X0134533Y0128507D01*
X0139533Y0128507D01*
X0142033Y0126007D01*
X0144533Y0128507D01*
X0149533Y0128507D01*
X0152033Y0126007D01*
X0154533Y0128507D01*
X0159533Y0128507D01*
X0162033Y0126007D01*
X0164533Y0128507D01*
X0169533Y0128507D01*
X0172033Y0126007D01*
X0172033Y0121007D01*
X0169533Y0118507D01*
X0164533Y0118507D01*
X0162033Y0121007D01*
X0159533Y0118507D01*
X0154533Y0118507D01*
X0152033Y0121007D01*
X0149533Y0118507D01*
X0144533Y0118507D01*
X0142033Y0121007D01*
X0139533Y0118507D01*
X0152206Y0131790D02*
X0154706Y0129290D01*
X0159706Y0129290D01*
X0162206Y0131790D01*
X0164706Y0129290D01*
X0169706Y0129290D01*
X0172206Y0131790D01*
X0172206Y0136790D01*
X0169706Y0139290D01*
X0164706Y0139290D01*
X0162206Y0136790D01*
X0159706Y0139290D01*
X0154706Y0139290D01*
X0152206Y0136790D01*
X0152206Y0131790D01*
D19*
X0108695Y0071452D02*
X0108697Y0071506D01*
X0108703Y0071560D01*
X0108713Y0071613D01*
X0108727Y0071665D01*
X0108744Y0071716D01*
X0108766Y0071765D01*
X0108791Y0071813D01*
X0108819Y0071859D01*
X0108851Y0071903D01*
X0108886Y0071944D01*
X0108923Y0071982D01*
X0108964Y0072018D01*
X0109007Y0072050D01*
X0109052Y0072080D01*
X0109100Y0072105D01*
X0109149Y0072128D01*
X0109199Y0072146D01*
X0109251Y0072161D01*
X0109304Y0072172D01*
X0109358Y0072179D01*
X0109412Y0072182D01*
X0109465Y0072181D01*
X0109519Y0072176D01*
X0109572Y0072167D01*
X0109625Y0072154D01*
X0109676Y0072137D01*
X0109726Y0072117D01*
X0109774Y0072093D01*
X0109821Y0072065D01*
X0109865Y0072035D01*
X0109907Y0072000D01*
X0109946Y0071963D01*
X0109982Y0071924D01*
X0110016Y0071881D01*
X0110046Y0071836D01*
X0110072Y0071789D01*
X0110095Y0071741D01*
X0110115Y0071690D01*
X0110131Y0071639D01*
X0110143Y0071586D01*
X0110151Y0071533D01*
X0110155Y0071479D01*
X0110155Y0071425D01*
X0110151Y0071371D01*
X0110143Y0071318D01*
X0110131Y0071265D01*
X0110115Y0071214D01*
X0110095Y0071163D01*
X0110072Y0071115D01*
X0110046Y0071068D01*
X0110016Y0071023D01*
X0109982Y0070980D01*
X0109946Y0070941D01*
X0109907Y0070904D01*
X0109865Y0070869D01*
X0109821Y0070839D01*
X0109774Y0070811D01*
X0109726Y0070787D01*
X0109676Y0070767D01*
X0109625Y0070750D01*
X0109572Y0070737D01*
X0109519Y0070728D01*
X0109465Y0070723D01*
X0109412Y0070722D01*
X0109358Y0070725D01*
X0109304Y0070732D01*
X0109251Y0070743D01*
X0109199Y0070758D01*
X0109149Y0070776D01*
X0109100Y0070799D01*
X0109052Y0070824D01*
X0109007Y0070854D01*
X0108964Y0070886D01*
X0108923Y0070922D01*
X0108886Y0070960D01*
X0108851Y0071001D01*
X0108819Y0071045D01*
X0108791Y0071091D01*
X0108766Y0071139D01*
X0108744Y0071188D01*
X0108727Y0071239D01*
X0108713Y0071291D01*
X0108703Y0071344D01*
X0108697Y0071398D01*
X0108695Y0071452D01*
D20*
X0098441Y0050783D03*
X0098559Y0046019D03*
X0079307Y0044602D03*
X0079346Y0049720D03*
X0067220Y0044563D03*
X0105774Y0011771D03*
X0107727Y0016027D03*
X0112728Y0020698D03*
X0112845Y0024961D03*
X0149867Y0064811D03*
D21*
X0063196Y0093170D02*
X0062956Y0093170D01*
D22*
X0134767Y0080159D03*
D23*
X0157747Y0089090D02*
X0157747Y0091452D01*
X0162472Y0091452D02*
X0162472Y0089090D01*
X0175124Y0090778D02*
X0175124Y0093141D01*
X0179849Y0093141D02*
X0179849Y0090778D01*
D24*
X0086629Y0075911D03*
X0066336Y0082683D03*
D25*
X0071394Y0093029D03*
X0079725Y0086130D03*
M02*
