G75*
%MOIN*%
%OFA0B0*%
%FSLAX25Y25*%
%IPPOS*%
%LPD*%
%AMOC8*
5,1,8,0,0,1.08239X$1,22.5*
%
%ADD10C,0.16248*%
%ADD11R,0.03256X0.04043*%
%ADD12R,0.05224X0.03650*%
%ADD13R,0.14673X0.48925*%
%ADD14C,0.02862*%
%ADD15R,0.03256X0.01917*%
%ADD16R,0.01917X0.03256*%
%ADD17R,0.03650X0.03650*%
%ADD18R,0.04043X0.03256*%
%ADD19C,0.01563*%
%ADD20R,0.04437X0.04437*%
%ADD21R,0.04437X0.08374*%
%ADD22C,0.03478*%
%ADD23C,0.06406*%
%ADD24R,0.03846X0.02272*%
%ADD25C,0.00500*%
%ADD26R,0.04831X0.04437*%
%ADD27R,0.04437X0.04831*%
%ADD28R,0.02075X0.03846*%
%ADD29R,0.02075X0.07193*%
%ADD30R,0.02075X0.02075*%
%ADD31C,0.07900*%
%ADD32C,0.02678*%
D10*
X0013600Y0103449D03*
D11*
X0085803Y0093578D03*
X0085803Y0089130D03*
X0090921Y0089130D03*
X0090921Y0093578D03*
X0103165Y0091413D03*
X0108283Y0091413D03*
X0115370Y0091374D03*
X0120488Y0091374D03*
X0132024Y0078972D03*
X0137142Y0078972D03*
X0160610Y0062803D03*
X0165728Y0062803D03*
X0165717Y0056657D03*
X0160599Y0056657D03*
X0160450Y0049939D03*
X0165569Y0049939D03*
X0165610Y0043306D03*
X0160492Y0043306D03*
X0160496Y0036672D03*
X0165614Y0036672D03*
X0135881Y0037274D03*
X0130763Y0037274D03*
X0130808Y0044744D03*
X0135926Y0044744D03*
X0135961Y0052139D03*
X0130843Y0052139D03*
D12*
X0149346Y0071689D03*
X0149346Y0078775D03*
D13*
X0182248Y0169356D03*
X0009807Y0168962D03*
D14*
X0090449Y0072082D03*
X0090449Y0066177D03*
X0096354Y0066177D03*
X0096354Y0072082D03*
X0102260Y0072082D03*
X0102260Y0066177D03*
X0108165Y0066177D03*
X0108165Y0072082D03*
X0114071Y0072082D03*
X0114071Y0066177D03*
X0114071Y0060271D03*
X0114071Y0054366D03*
X0108165Y0054366D03*
X0102260Y0054366D03*
X0102260Y0060271D03*
X0108165Y0060271D03*
X0108165Y0048460D03*
X0102260Y0048460D03*
X0096354Y0048460D03*
X0090449Y0048460D03*
X0090449Y0054366D03*
X0096354Y0054366D03*
X0096354Y0060271D03*
X0090449Y0060271D03*
X0114071Y0048460D03*
D15*
X0120724Y0047673D03*
X0120724Y0044523D03*
X0120724Y0050823D03*
X0120724Y0053972D03*
X0120724Y0057122D03*
X0120724Y0060271D03*
X0120724Y0063421D03*
X0120724Y0066571D03*
X0120724Y0069720D03*
X0120724Y0072870D03*
X0120724Y0076019D03*
X0083795Y0076019D03*
X0083795Y0072870D03*
X0083795Y0069720D03*
X0083795Y0066571D03*
X0083795Y0063421D03*
X0083795Y0060271D03*
X0083795Y0057122D03*
X0083795Y0053972D03*
X0083795Y0050823D03*
X0083795Y0047673D03*
X0083795Y0044523D03*
D16*
X0086512Y0041807D03*
X0089661Y0041807D03*
X0092811Y0041807D03*
X0095961Y0041807D03*
X0099110Y0041807D03*
X0102260Y0041807D03*
X0105409Y0041807D03*
X0108559Y0041807D03*
X0111709Y0041807D03*
X0114858Y0041807D03*
X0118008Y0041807D03*
X0118008Y0078736D03*
X0114858Y0078736D03*
X0111709Y0078736D03*
X0108559Y0078736D03*
X0105409Y0078736D03*
X0102260Y0078736D03*
X0099110Y0078736D03*
X0095961Y0078736D03*
X0092811Y0078736D03*
X0089661Y0078736D03*
X0086512Y0078736D03*
D17*
X0102339Y0100941D03*
X0108244Y0100941D03*
X0137000Y0074002D03*
X0137000Y0068097D03*
D18*
X0131000Y0067690D03*
X0131000Y0072808D03*
X0138098Y0092936D03*
X0138098Y0098054D03*
X0077378Y0069760D03*
X0077378Y0064641D03*
X0063094Y0051116D03*
X0063094Y0045998D03*
D19*
X0128047Y0090665D03*
X0128047Y0092634D03*
X0128047Y0094602D03*
X0130016Y0094602D03*
X0131984Y0094602D03*
X0131984Y0092634D03*
X0130016Y0092634D03*
X0130016Y0090665D03*
X0131984Y0090665D03*
D20*
X0145528Y0089287D03*
X0153008Y0089287D03*
X0153008Y0098736D03*
X0145528Y0098736D03*
D21*
X0164307Y0010468D03*
X0191866Y0010468D03*
D22*
X0007304Y0011479D03*
X0007304Y0019353D03*
X0007304Y0027227D03*
X0007304Y0035101D03*
X0007304Y0042975D03*
X0007304Y0050849D03*
X0007304Y0058723D03*
X0007304Y0066597D03*
X0007304Y0074471D03*
X0007304Y0082345D03*
X0030926Y0074471D03*
X0030926Y0066597D03*
X0030926Y0058723D03*
X0030926Y0050849D03*
X0030926Y0042975D03*
X0030926Y0035101D03*
X0030926Y0027227D03*
X0030926Y0019353D03*
X0030926Y0011479D03*
D23*
X0190496Y0095969D03*
X0190496Y0127465D03*
D24*
X0096589Y0022833D03*
X0096589Y0018896D03*
X0096589Y0014959D03*
X0085172Y0014959D03*
X0085172Y0018896D03*
X0085172Y0022833D03*
D25*
X0087731Y0022587D02*
X0093193Y0022587D01*
X0092695Y0023085D02*
X0087731Y0023085D01*
X0087731Y0023325D02*
X0087731Y0014467D01*
X0094030Y0014467D01*
X0094030Y0021110D01*
X0094030Y0021750D01*
X0092455Y0023325D01*
X0087731Y0023325D01*
X0087731Y0022088D02*
X0093692Y0022088D01*
X0094030Y0021590D02*
X0087731Y0021590D01*
X0087731Y0021091D02*
X0094030Y0021091D01*
X0094030Y0020593D02*
X0087731Y0020593D01*
X0087731Y0020094D02*
X0094030Y0020094D01*
X0094030Y0019596D02*
X0087731Y0019596D01*
X0087731Y0019097D02*
X0094030Y0019097D01*
X0094030Y0018599D02*
X0087731Y0018599D01*
X0087731Y0018100D02*
X0094030Y0018100D01*
X0094030Y0017602D02*
X0087731Y0017602D01*
X0087731Y0017103D02*
X0094030Y0017103D01*
X0094030Y0016605D02*
X0087731Y0016605D01*
X0087731Y0016106D02*
X0094030Y0016106D01*
X0094030Y0015608D02*
X0087731Y0015608D01*
X0087731Y0015109D02*
X0094030Y0015109D01*
X0094030Y0014611D02*
X0087731Y0014611D01*
D26*
X0085851Y0034234D03*
X0092544Y0034234D03*
X0118474Y0022763D03*
X0125167Y0022763D03*
X0172854Y0075249D03*
X0179546Y0075249D03*
D27*
X0132072Y0022650D03*
X0132072Y0015957D03*
X0140200Y0017196D03*
X0140200Y0010503D03*
X0099224Y0029129D03*
X0099224Y0035822D03*
D28*
X0104904Y0011037D03*
D29*
X0102148Y0009364D03*
X0107660Y0009364D03*
D30*
X0104904Y0006805D03*
D31*
X0107033Y0123507D03*
X0117033Y0123507D03*
X0127033Y0123507D03*
X0137033Y0123507D03*
X0147033Y0123507D03*
X0157033Y0123507D03*
X0167033Y0123507D03*
X0167000Y0134449D03*
X0157000Y0134449D03*
X0147206Y0134290D03*
X0137206Y0134290D03*
X0097033Y0123507D03*
X0087033Y0123507D03*
X0077033Y0123507D03*
X0067033Y0123507D03*
X0057033Y0123507D03*
X0047033Y0123507D03*
X0037033Y0123507D03*
D32*
X0052493Y0091104D03*
X0052725Y0076877D03*
X0052921Y0067865D03*
X0052921Y0057580D03*
X0052947Y0047703D03*
X0053236Y0036452D03*
X0053318Y0025043D03*
X0053529Y0012535D03*
X0077559Y0036762D03*
X0080796Y0035414D03*
X0083269Y0038774D03*
X0081097Y0040479D03*
X0071519Y0048412D03*
X0067890Y0051098D03*
X0067915Y0055399D03*
X0074150Y0053618D03*
X0078756Y0053657D03*
X0069441Y0040536D03*
X0089596Y0030450D03*
X0093669Y0030441D03*
X0104453Y0028582D03*
X0106778Y0031239D03*
X0111068Y0030994D03*
X0111276Y0037583D03*
X0115190Y0037938D03*
X0117079Y0035103D03*
X0125055Y0038214D03*
X0125767Y0034842D03*
X0130808Y0030916D03*
X0137258Y0030034D03*
X0151104Y0017417D03*
X0151361Y0005106D03*
X0141155Y0005050D03*
X0132990Y0010536D03*
X0128078Y0011753D03*
X0125293Y0014112D03*
X0128828Y0005219D03*
X0115039Y0014138D03*
X0113589Y0011771D03*
X0101298Y0015299D03*
X0083316Y0011624D03*
X0136420Y0057869D03*
X0138024Y0060052D03*
X0141283Y0060330D03*
X0141267Y0064572D03*
X0150143Y0059122D03*
X0157913Y0067329D03*
X0157896Y0078768D03*
X0166513Y0091078D03*
X0166428Y0096473D03*
X0172573Y0103512D03*
X0192612Y0101297D03*
X0192969Y0089921D03*
X0191951Y0050317D03*
X0192069Y0039384D03*
X0192135Y0029022D03*
X0182780Y0029069D03*
X0172442Y0029022D03*
X0162577Y0028842D03*
X0153067Y0043834D03*
X0139491Y0055823D03*
X0127024Y0077073D03*
X0126353Y0079700D03*
X0124055Y0081578D03*
X0121118Y0079514D03*
X0119150Y0081759D03*
X0118441Y0084355D03*
X0111005Y0097500D03*
X0116545Y0101640D03*
X0122694Y0101966D03*
X0134979Y0087619D03*
X0139247Y0087573D03*
X0103559Y0096728D03*
X0096896Y0089130D03*
X0096443Y0083216D03*
X0089661Y0083716D03*
X0068296Y0103291D03*
X0067343Y0074424D03*
X0193200Y0167849D03*
M02*
