G75*
%MOIN*%
%OFA0B0*%
%FSLAX25Y25*%
%IPPOS*%
%LPD*%
%AMOC8*
5,1,8,0,0,1.08239X$1,22.5*
%
%ADD10R,0.03256X0.04043*%
%ADD11R,0.05224X0.03650*%
%ADD12R,1.85539X0.09161*%
%ADD13R,1.85539X0.04831*%
%ADD14C,0.02862*%
%ADD15R,0.03256X0.01917*%
%ADD16R,0.01917X0.03256*%
%ADD17R,0.03650X0.03650*%
%ADD18R,0.04437X0.04831*%
%ADD19R,0.04831X0.04437*%
%ADD20R,0.04043X0.03256*%
%ADD21C,0.01563*%
%ADD22R,0.04437X0.04437*%
%ADD23R,0.04437X0.08374*%
%ADD24C,0.03478*%
%ADD25R,0.02075X0.03846*%
%ADD26R,0.02075X0.07193*%
%ADD27R,0.02075X0.02075*%
%ADD28C,0.02678*%
D10*
X0085935Y0089130D03*
X0085935Y0093578D03*
X0091053Y0093578D03*
X0091053Y0089130D03*
X0103297Y0091413D03*
X0108415Y0091413D03*
X0115502Y0091374D03*
X0120620Y0091374D03*
X0132156Y0078972D03*
X0137274Y0078972D03*
X0136133Y0047841D03*
X0136093Y0043539D03*
X0136058Y0039344D03*
X0136013Y0035074D03*
X0130894Y0035074D03*
X0130940Y0039344D03*
X0130974Y0043539D03*
X0131015Y0047841D03*
X0142942Y0047803D03*
X0142982Y0043539D03*
X0143024Y0039306D03*
X0143028Y0035072D03*
X0148146Y0035072D03*
X0148142Y0039306D03*
X0148100Y0043539D03*
X0148060Y0047803D03*
D11*
X0149478Y0071689D03*
X0149478Y0078775D03*
D12*
X0099675Y0110586D03*
D13*
X0099675Y0191492D03*
D14*
X0102392Y0072082D03*
X0102392Y0066177D03*
X0108297Y0066177D03*
X0108297Y0072082D03*
X0114203Y0072082D03*
X0114203Y0066177D03*
X0114203Y0060271D03*
X0114203Y0054366D03*
X0114203Y0048460D03*
X0108297Y0048460D03*
X0102392Y0048460D03*
X0096486Y0048460D03*
X0090581Y0048460D03*
X0090581Y0054366D03*
X0096486Y0054366D03*
X0096486Y0060271D03*
X0090581Y0060271D03*
X0090581Y0066177D03*
X0096486Y0066177D03*
X0096486Y0072082D03*
X0090581Y0072082D03*
X0102392Y0060271D03*
X0102392Y0054366D03*
X0108297Y0054366D03*
X0108297Y0060271D03*
D15*
X0120856Y0060271D03*
X0120856Y0063421D03*
X0120856Y0066571D03*
X0120856Y0069720D03*
X0120856Y0072870D03*
X0120856Y0076019D03*
X0120856Y0057122D03*
X0120856Y0053972D03*
X0120856Y0050823D03*
X0120856Y0047673D03*
X0120856Y0044523D03*
X0083927Y0044523D03*
X0083927Y0047673D03*
X0083927Y0050823D03*
X0083927Y0053972D03*
X0083927Y0057122D03*
X0083927Y0060271D03*
X0083927Y0063421D03*
X0083927Y0066571D03*
X0083927Y0069720D03*
X0083927Y0072870D03*
X0083927Y0076019D03*
D16*
X0086644Y0078736D03*
X0089793Y0078736D03*
X0092943Y0078736D03*
X0096093Y0078736D03*
X0099242Y0078736D03*
X0102392Y0078736D03*
X0105541Y0078736D03*
X0108691Y0078736D03*
X0111841Y0078736D03*
X0114990Y0078736D03*
X0118140Y0078736D03*
X0118140Y0041807D03*
X0114990Y0041807D03*
X0111841Y0041807D03*
X0108691Y0041807D03*
X0105541Y0041807D03*
X0102392Y0041807D03*
X0099242Y0041807D03*
X0096093Y0041807D03*
X0092943Y0041807D03*
X0089793Y0041807D03*
X0086644Y0041807D03*
D17*
X0134281Y0055941D03*
X0134281Y0061846D03*
X0108376Y0100941D03*
X0102470Y0100941D03*
D18*
X0099872Y0037279D03*
X0099872Y0030586D03*
X0111183Y0030544D03*
X0111183Y0037237D03*
X0121372Y0035211D03*
X0121372Y0028518D03*
D19*
X0122436Y0021302D03*
X0129129Y0021302D03*
X0092628Y0035980D03*
X0085935Y0035980D03*
D20*
X0077510Y0064641D03*
X0077510Y0069760D03*
X0128967Y0061925D03*
X0128967Y0056807D03*
X0138230Y0092936D03*
X0138230Y0098054D03*
D21*
X0132116Y0094602D03*
X0130148Y0094602D03*
X0130148Y0092634D03*
X0132116Y0092634D03*
X0132116Y0090665D03*
X0130148Y0090665D03*
X0128179Y0090665D03*
X0128179Y0092634D03*
X0128179Y0094602D03*
D22*
X0145659Y0098736D03*
X0153140Y0098736D03*
X0153140Y0089287D03*
X0145659Y0089287D03*
D23*
X0164439Y0010468D03*
X0191998Y0010468D03*
D24*
X0007436Y0011479D03*
X0007436Y0019353D03*
X0007436Y0027227D03*
X0007436Y0035101D03*
X0007436Y0042975D03*
X0007436Y0050849D03*
X0007436Y0058723D03*
X0007436Y0066597D03*
X0007436Y0074471D03*
X0007436Y0082345D03*
X0031058Y0074471D03*
X0031058Y0066597D03*
X0031058Y0058723D03*
X0031058Y0050849D03*
X0031058Y0042975D03*
X0031058Y0035101D03*
X0031058Y0027227D03*
X0031058Y0019353D03*
X0031058Y0011479D03*
D25*
X0110270Y0022264D03*
D26*
X0113025Y0020591D03*
X0107514Y0020591D03*
D27*
X0110270Y0018032D03*
D28*
X0116083Y0028594D03*
X0106910Y0031239D03*
X0093801Y0030441D03*
X0089728Y0030450D03*
X0081229Y0040479D03*
X0078481Y0037713D03*
X0070094Y0040560D03*
X0071650Y0048412D03*
X0068022Y0051098D03*
X0068047Y0055399D03*
X0074281Y0053618D03*
X0078888Y0053657D03*
X0069241Y0075995D03*
X0052857Y0076877D03*
X0053053Y0067865D03*
X0053053Y0057580D03*
X0053079Y0047703D03*
X0053368Y0036452D03*
X0053450Y0025043D03*
X0053661Y0012535D03*
X0095483Y0014628D03*
X0125899Y0034842D03*
X0133122Y0010536D03*
X0128959Y0005219D03*
X0141287Y0005050D03*
X0151493Y0005106D03*
X0151235Y0017417D03*
X0162709Y0028842D03*
X0172574Y0029022D03*
X0182912Y0029069D03*
X0192267Y0029022D03*
X0192201Y0039384D03*
X0192083Y0050317D03*
X0162132Y0076311D03*
X0158027Y0078768D03*
X0156368Y0073972D03*
X0158045Y0067329D03*
X0150275Y0059122D03*
X0141415Y0060330D03*
X0141399Y0064572D03*
X0139596Y0072830D03*
X0126485Y0079700D03*
X0121592Y0079748D03*
X0118573Y0083027D03*
X0111137Y0097500D03*
X0116677Y0101640D03*
X0122825Y0101966D03*
X0132611Y0102299D03*
X0135111Y0087619D03*
X0138968Y0087602D03*
X0166645Y0091078D03*
X0166560Y0096473D03*
X0172705Y0103512D03*
X0192744Y0101297D03*
X0193101Y0089921D03*
X0158154Y0048595D03*
X0153199Y0043834D03*
X0103691Y0096728D03*
X0097028Y0089130D03*
X0096575Y0083216D03*
X0089793Y0083716D03*
X0068428Y0103291D03*
X0052625Y0091104D03*
X0099865Y0121242D03*
M02*
