G75*
%MOIN*%
%OFA0B0*%
%FSLAX25Y25*%
%IPPOS*%
%LPD*%
%AMOC8*
5,1,8,0,0,1.08239X$1,22.5*
%
%ADD10C,0.02178*%
%ADD11C,0.00600*%
%ADD12C,0.01000*%
D10*
X0007436Y0011479D03*
X0007436Y0019353D03*
X0007436Y0027227D03*
X0007436Y0035101D03*
X0007436Y0042975D03*
X0007436Y0050849D03*
X0007436Y0058723D03*
X0007436Y0066597D03*
X0007436Y0074471D03*
X0007436Y0082345D03*
X0031058Y0074471D03*
X0031058Y0066597D03*
X0031058Y0058723D03*
X0031058Y0050849D03*
X0031058Y0042975D03*
X0031058Y0035101D03*
X0031058Y0027227D03*
X0031058Y0019353D03*
X0031058Y0011479D03*
X0053661Y0012535D03*
X0053450Y0025043D03*
X0053368Y0036452D03*
X0053079Y0047703D03*
X0053053Y0057580D03*
X0053053Y0067865D03*
X0052857Y0076877D03*
X0052625Y0091104D03*
X0068428Y0103291D03*
X0089793Y0083716D03*
X0096575Y0083216D03*
X0097028Y0089130D03*
X0103691Y0096728D03*
X0111137Y0097500D03*
X0116677Y0101640D03*
X0122825Y0101966D03*
X0132611Y0102299D03*
X0135111Y0087619D03*
X0138968Y0087602D03*
X0126485Y0079700D03*
X0121592Y0079748D03*
X0118573Y0083027D03*
X0139596Y0072830D03*
X0141399Y0064572D03*
X0141415Y0060330D03*
X0150275Y0059122D03*
X0158045Y0067329D03*
X0156368Y0073972D03*
X0158027Y0078768D03*
X0162132Y0076311D03*
X0166645Y0091078D03*
X0166560Y0096473D03*
X0172705Y0103512D03*
X0192744Y0101297D03*
X0193101Y0089921D03*
X0192083Y0050317D03*
X0192201Y0039384D03*
X0192267Y0029022D03*
X0182912Y0029069D03*
X0172574Y0029022D03*
X0162709Y0028842D03*
X0151235Y0017417D03*
X0151493Y0005106D03*
X0141287Y0005050D03*
X0133122Y0010536D03*
X0128959Y0005219D03*
X0130674Y0029171D03*
X0125899Y0034842D03*
X0113609Y0028621D03*
X0106910Y0031239D03*
X0093801Y0030441D03*
X0089728Y0030450D03*
X0081229Y0040479D03*
X0078481Y0037713D03*
X0070094Y0040560D03*
X0071650Y0048412D03*
X0068022Y0051098D03*
X0068047Y0055399D03*
X0074281Y0053618D03*
X0078888Y0053657D03*
X0069241Y0075995D03*
X0099865Y0121242D03*
X0159523Y0044848D03*
X0153199Y0043834D03*
X0095483Y0014628D03*
D11*
X0056561Y0036351D01*
X0056561Y0093643D01*
X0053767Y0096437D01*
X0042945Y0096437D01*
X0015750Y0123632D01*
X0015750Y0174055D01*
X0031412Y0189718D01*
X0166984Y0189718D01*
X0183900Y0172802D01*
X0183900Y0057999D01*
X0145006Y0019105D01*
X0091070Y0019105D01*
X0058775Y0037037D01*
X0058728Y0094050D01*
X0054366Y0098429D01*
X0044163Y0098457D01*
X0018539Y0124047D01*
X0018555Y0173591D01*
X0032168Y0187184D01*
X0166056Y0187184D01*
X0181079Y0172162D01*
X0181079Y0058121D01*
X0144285Y0021328D01*
X0090846Y0021280D01*
X0060966Y0037865D01*
X0060943Y0094937D01*
X0055262Y0100618D01*
X0045304Y0100618D01*
X0021254Y0124668D01*
X0021254Y0172626D01*
X0033038Y0184411D01*
X0165707Y0184411D01*
X0178213Y0171904D01*
X0178213Y0057527D01*
X0144291Y0023605D01*
X0090246Y0023615D01*
X0062951Y0038679D01*
X0062905Y0095746D01*
X0056028Y0102623D01*
X0046078Y0102623D01*
X0023718Y0124982D01*
X0023718Y0172097D01*
X0033888Y0182267D01*
X0165350Y0182267D01*
X0175865Y0171752D01*
X0175865Y0057683D01*
X0143813Y0025631D01*
X0089833Y0025683D01*
X0065070Y0039909D01*
X0065070Y0096433D01*
X0056737Y0104767D01*
X0046896Y0104767D01*
X0025987Y0125676D01*
X0025987Y0171427D01*
X0034731Y0180170D01*
X0164255Y0180170D01*
X0173476Y0170949D01*
X0173476Y0114269D01*
X0169281Y0110073D01*
X0123299Y0110073D01*
X0116677Y0103451D01*
X0116677Y0101640D01*
X0118566Y0101601D02*
X0120936Y0101601D01*
X0120936Y0101184D02*
X0122043Y0100077D01*
X0123608Y0100077D01*
X0124714Y0101184D01*
X0124714Y0102749D01*
X0123608Y0103855D01*
X0122043Y0103855D01*
X0120936Y0102749D01*
X0120936Y0101184D01*
X0121118Y0101002D02*
X0118566Y0101002D01*
X0118566Y0100858D02*
X0118566Y0102422D01*
X0117885Y0103103D01*
X0119594Y0104813D01*
X0167044Y0104674D01*
X0167242Y0104872D01*
X0171597Y0100557D01*
X0171736Y0091825D01*
X0161363Y0081491D01*
X0161356Y0078200D01*
X0161350Y0078200D01*
X0160243Y0077094D01*
X0160243Y0075529D01*
X0161349Y0074423D01*
X0161292Y0044666D01*
X0143358Y0026731D01*
X0114419Y0026760D01*
X0115498Y0027839D01*
X0115498Y0029404D01*
X0114391Y0030510D01*
X0112826Y0030510D01*
X0111720Y0029404D01*
X0111720Y0027839D01*
X0112798Y0026761D01*
X0090127Y0026783D01*
X0079737Y0032752D01*
X0070776Y0038671D01*
X0070876Y0038671D01*
X0071983Y0039778D01*
X0071983Y0041342D01*
X0070876Y0042449D01*
X0069311Y0042449D01*
X0068205Y0041342D01*
X0068205Y0040369D01*
X0066170Y0041713D01*
X0066170Y0050278D01*
X0067239Y0049209D01*
X0068804Y0049209D01*
X0069911Y0050316D01*
X0069911Y0051881D01*
X0068804Y0052987D01*
X0067239Y0052987D01*
X0066170Y0051918D01*
X0066170Y0054604D01*
X0067264Y0053510D01*
X0068829Y0053510D01*
X0069936Y0054617D01*
X0069936Y0056182D01*
X0068829Y0057288D01*
X0067264Y0057288D01*
X0066170Y0056194D01*
X0066170Y0096889D01*
X0065924Y0097135D01*
X0066042Y0104296D01*
X0066000Y0104969D01*
X0067430Y0104965D01*
X0066539Y0104074D01*
X0066539Y0102509D01*
X0067645Y0101402D01*
X0069210Y0101402D01*
X0070317Y0102509D01*
X0070317Y0104074D01*
X0069431Y0104959D01*
X0116492Y0104822D01*
X0116221Y0104551D01*
X0116221Y0104551D01*
X0115577Y0103907D01*
X0115577Y0103211D01*
X0114788Y0102422D01*
X0114788Y0100858D01*
X0115894Y0099751D01*
X0117459Y0099751D01*
X0118566Y0100858D01*
X0118112Y0100404D02*
X0121717Y0100404D01*
X0120936Y0102199D02*
X0118566Y0102199D01*
X0118191Y0102798D02*
X0120985Y0102798D01*
X0121584Y0103396D02*
X0118178Y0103396D01*
X0118776Y0103995D02*
X0131636Y0103995D01*
X0131828Y0104188D02*
X0130722Y0103081D01*
X0130722Y0101516D01*
X0131828Y0100410D01*
X0133393Y0100410D01*
X0134500Y0101516D01*
X0134500Y0103081D01*
X0133393Y0104188D01*
X0131828Y0104188D01*
X0131037Y0103396D02*
X0124067Y0103396D01*
X0124666Y0102798D02*
X0130722Y0102798D01*
X0130722Y0102199D02*
X0124714Y0102199D01*
X0124714Y0101601D02*
X0130722Y0101601D01*
X0131236Y0101002D02*
X0124533Y0101002D01*
X0123934Y0100404D02*
X0171599Y0100404D01*
X0171609Y0099805D02*
X0117513Y0099805D01*
X0115840Y0099805D02*
X0065968Y0099805D01*
X0065958Y0099207D02*
X0110173Y0099207D01*
X0110355Y0099389D02*
X0109248Y0098282D01*
X0109248Y0096717D01*
X0110355Y0095611D01*
X0111920Y0095611D01*
X0113026Y0096717D01*
X0113026Y0098282D01*
X0111920Y0099389D01*
X0110355Y0099389D01*
X0109575Y0098608D02*
X0104482Y0098608D01*
X0104473Y0098617D02*
X0102909Y0098617D01*
X0101802Y0097510D01*
X0101802Y0095946D01*
X0102909Y0094839D01*
X0104473Y0094839D01*
X0105580Y0095946D01*
X0105580Y0097510D01*
X0104473Y0098617D01*
X0105081Y0098010D02*
X0109248Y0098010D01*
X0109248Y0097411D02*
X0105580Y0097411D01*
X0105580Y0096813D02*
X0109248Y0096813D01*
X0109751Y0096214D02*
X0105580Y0096214D01*
X0105250Y0095616D02*
X0110350Y0095616D01*
X0111925Y0095616D02*
X0171675Y0095616D01*
X0171666Y0096214D02*
X0112523Y0096214D01*
X0113026Y0096813D02*
X0171656Y0096813D01*
X0171647Y0097411D02*
X0113026Y0097411D01*
X0113026Y0098010D02*
X0171637Y0098010D01*
X0171628Y0098608D02*
X0112700Y0098608D01*
X0112102Y0099207D02*
X0171618Y0099207D01*
X0171147Y0101002D02*
X0133986Y0101002D01*
X0134500Y0101601D02*
X0170543Y0101601D01*
X0169939Y0102199D02*
X0134500Y0102199D01*
X0134500Y0102798D02*
X0169335Y0102798D01*
X0168731Y0103396D02*
X0134185Y0103396D01*
X0133586Y0103995D02*
X0168127Y0103995D01*
X0167523Y0104593D02*
X0119375Y0104593D01*
X0116263Y0104593D02*
X0069797Y0104593D01*
X0070317Y0103995D02*
X0115665Y0103995D01*
X0115577Y0103396D02*
X0070317Y0103396D01*
X0070317Y0102798D02*
X0115163Y0102798D01*
X0114788Y0102199D02*
X0070007Y0102199D01*
X0069409Y0101601D02*
X0114788Y0101601D01*
X0114788Y0101002D02*
X0065988Y0101002D01*
X0065978Y0100404D02*
X0115242Y0100404D01*
X0104651Y0095017D02*
X0171685Y0095017D01*
X0171694Y0094419D02*
X0066170Y0094419D01*
X0066170Y0095017D02*
X0102730Y0095017D01*
X0102132Y0095616D02*
X0066170Y0095616D01*
X0066170Y0096214D02*
X0101802Y0096214D01*
X0101802Y0096813D02*
X0066170Y0096813D01*
X0065929Y0097411D02*
X0101802Y0097411D01*
X0102301Y0098010D02*
X0065939Y0098010D01*
X0065949Y0098608D02*
X0102900Y0098608D01*
X0097028Y0089687D02*
X0097028Y0089130D01*
X0097357Y0085105D02*
X0095792Y0085105D01*
X0094686Y0083998D01*
X0094686Y0082433D01*
X0095792Y0081327D01*
X0097357Y0081327D01*
X0098464Y0082433D01*
X0098464Y0083998D01*
X0097357Y0085105D01*
X0097620Y0084842D02*
X0164727Y0084842D01*
X0165327Y0085441D02*
X0066170Y0085441D01*
X0066170Y0086039D02*
X0134019Y0086039D01*
X0134329Y0085730D02*
X0135893Y0085730D01*
X0137000Y0086836D01*
X0137000Y0088401D01*
X0135893Y0089508D01*
X0134329Y0089508D01*
X0133222Y0088401D01*
X0133222Y0086836D01*
X0134329Y0085730D01*
X0133420Y0086638D02*
X0066170Y0086638D01*
X0066170Y0087236D02*
X0133222Y0087236D01*
X0133222Y0087835D02*
X0066170Y0087835D01*
X0066170Y0088433D02*
X0133254Y0088433D01*
X0133853Y0089032D02*
X0066170Y0089032D01*
X0066170Y0089630D02*
X0165421Y0089630D01*
X0165862Y0089189D02*
X0164756Y0090295D01*
X0164756Y0091860D01*
X0165862Y0092967D01*
X0167427Y0092967D01*
X0168534Y0091860D01*
X0168534Y0090295D01*
X0167427Y0089189D01*
X0165862Y0089189D01*
X0164822Y0090229D02*
X0066170Y0090229D01*
X0066170Y0090827D02*
X0164756Y0090827D01*
X0164756Y0091426D02*
X0066170Y0091426D01*
X0066170Y0092025D02*
X0164920Y0092025D01*
X0165519Y0092623D02*
X0066170Y0092623D01*
X0066170Y0093222D02*
X0171713Y0093222D01*
X0171704Y0093820D02*
X0066170Y0093820D01*
X0065998Y0101601D02*
X0067447Y0101601D01*
X0066848Y0102199D02*
X0066007Y0102199D01*
X0066017Y0102798D02*
X0066539Y0102798D01*
X0066539Y0103396D02*
X0066027Y0103396D01*
X0066037Y0103995D02*
X0066539Y0103995D01*
X0066023Y0104593D02*
X0067058Y0104593D01*
X0066170Y0084842D02*
X0095530Y0084842D01*
X0094931Y0084244D02*
X0066170Y0084244D01*
X0066170Y0083645D02*
X0094686Y0083645D01*
X0094686Y0083047D02*
X0066170Y0083047D01*
X0066170Y0082448D02*
X0094686Y0082448D01*
X0095269Y0081850D02*
X0066170Y0081850D01*
X0066170Y0081251D02*
X0120424Y0081251D01*
X0120810Y0081637D02*
X0119703Y0080530D01*
X0119703Y0078965D01*
X0120810Y0077859D01*
X0122375Y0077859D01*
X0123481Y0078965D01*
X0123481Y0080530D01*
X0122375Y0081637D01*
X0120810Y0081637D01*
X0119826Y0080653D02*
X0066170Y0080653D01*
X0066170Y0080054D02*
X0119703Y0080054D01*
X0119703Y0079456D02*
X0066170Y0079456D01*
X0066170Y0078857D02*
X0119811Y0078857D01*
X0120410Y0078259D02*
X0066170Y0078259D01*
X0066170Y0077660D02*
X0068235Y0077660D01*
X0068458Y0077884D02*
X0067352Y0076777D01*
X0067352Y0075212D01*
X0068458Y0074106D01*
X0070023Y0074106D01*
X0071130Y0075212D01*
X0071130Y0076777D01*
X0070023Y0077884D01*
X0068458Y0077884D01*
X0067637Y0077062D02*
X0066170Y0077062D01*
X0066170Y0076463D02*
X0067352Y0076463D01*
X0067352Y0075865D02*
X0066170Y0075865D01*
X0066170Y0075266D02*
X0067352Y0075266D01*
X0067896Y0074668D02*
X0066170Y0074668D01*
X0066170Y0074069D02*
X0138164Y0074069D01*
X0137707Y0073613D02*
X0138814Y0074719D01*
X0140379Y0074719D01*
X0141485Y0073613D01*
X0141485Y0072048D01*
X0140379Y0070941D01*
X0138814Y0070941D01*
X0137707Y0072048D01*
X0137707Y0073613D01*
X0137707Y0073471D02*
X0066170Y0073471D01*
X0066170Y0072872D02*
X0137707Y0072872D01*
X0137707Y0072274D02*
X0066170Y0072274D01*
X0066170Y0071675D02*
X0138080Y0071675D01*
X0138679Y0071077D02*
X0066170Y0071077D01*
X0066170Y0070478D02*
X0161342Y0070478D01*
X0161341Y0069880D02*
X0066170Y0069880D01*
X0066170Y0069281D02*
X0161339Y0069281D01*
X0161338Y0068683D02*
X0159363Y0068683D01*
X0158828Y0069218D02*
X0157263Y0069218D01*
X0156156Y0068111D01*
X0156156Y0066547D01*
X0157263Y0065440D01*
X0158828Y0065440D01*
X0159934Y0066547D01*
X0159934Y0068111D01*
X0158828Y0069218D01*
X0159934Y0068084D02*
X0161337Y0068084D01*
X0161336Y0067486D02*
X0159934Y0067486D01*
X0159934Y0066887D02*
X0161335Y0066887D01*
X0161334Y0066289D02*
X0159676Y0066289D01*
X0159078Y0065690D02*
X0161333Y0065690D01*
X0161331Y0065092D02*
X0143288Y0065092D01*
X0143288Y0065354D02*
X0142182Y0066461D01*
X0140617Y0066461D01*
X0139510Y0065354D01*
X0139510Y0063789D01*
X0140617Y0062683D01*
X0142182Y0062683D01*
X0143288Y0063789D01*
X0143288Y0065354D01*
X0142952Y0065690D02*
X0157013Y0065690D01*
X0156414Y0066289D02*
X0142354Y0066289D01*
X0140445Y0066289D02*
X0066170Y0066289D01*
X0066170Y0066887D02*
X0156156Y0066887D01*
X0156156Y0067486D02*
X0066170Y0067486D01*
X0066170Y0068084D02*
X0156156Y0068084D01*
X0156727Y0068683D02*
X0066170Y0068683D01*
X0066170Y0065690D02*
X0139846Y0065690D01*
X0139510Y0065092D02*
X0066170Y0065092D01*
X0066170Y0064493D02*
X0139510Y0064493D01*
X0139510Y0063894D02*
X0066170Y0063894D01*
X0066170Y0063296D02*
X0140003Y0063296D01*
X0140602Y0062697D02*
X0066170Y0062697D01*
X0066170Y0062099D02*
X0140513Y0062099D01*
X0140633Y0062219D02*
X0139526Y0061112D01*
X0139526Y0059548D01*
X0140633Y0058441D01*
X0142198Y0058441D01*
X0143304Y0059548D01*
X0143304Y0061112D01*
X0142198Y0062219D01*
X0140633Y0062219D01*
X0139914Y0061500D02*
X0066170Y0061500D01*
X0066170Y0060902D02*
X0139526Y0060902D01*
X0139526Y0060303D02*
X0066170Y0060303D01*
X0066170Y0059705D02*
X0139526Y0059705D01*
X0139968Y0059106D02*
X0066170Y0059106D01*
X0066170Y0058508D02*
X0140566Y0058508D01*
X0142265Y0058508D02*
X0161319Y0058508D01*
X0161320Y0059106D02*
X0142863Y0059106D01*
X0143304Y0059705D02*
X0161321Y0059705D01*
X0161322Y0060303D02*
X0143304Y0060303D01*
X0143304Y0060902D02*
X0161323Y0060902D01*
X0161325Y0061500D02*
X0142916Y0061500D01*
X0142318Y0062099D02*
X0161326Y0062099D01*
X0161327Y0062697D02*
X0142196Y0062697D01*
X0142795Y0063296D02*
X0161328Y0063296D01*
X0161329Y0063894D02*
X0143288Y0063894D01*
X0143288Y0064493D02*
X0161330Y0064493D01*
X0161318Y0057909D02*
X0066170Y0057909D01*
X0066170Y0057311D02*
X0161317Y0057311D01*
X0161315Y0056712D02*
X0069405Y0056712D01*
X0069936Y0056114D02*
X0161314Y0056114D01*
X0161313Y0055515D02*
X0079701Y0055515D01*
X0079670Y0055546D02*
X0078105Y0055546D01*
X0076999Y0054440D01*
X0076999Y0052875D01*
X0078105Y0051768D01*
X0079670Y0051768D01*
X0080777Y0052875D01*
X0080777Y0054440D01*
X0079670Y0055546D01*
X0080300Y0054917D02*
X0161312Y0054917D01*
X0161311Y0054318D02*
X0080777Y0054318D01*
X0080777Y0053720D02*
X0161310Y0053720D01*
X0161309Y0053121D02*
X0080777Y0053121D01*
X0080425Y0052523D02*
X0161307Y0052523D01*
X0161306Y0051924D02*
X0079826Y0051924D01*
X0077949Y0051924D02*
X0075259Y0051924D01*
X0075064Y0051729D02*
X0073499Y0051729D01*
X0072393Y0052835D01*
X0072393Y0054400D01*
X0073499Y0055507D01*
X0075064Y0055507D01*
X0076170Y0054400D01*
X0076170Y0052835D01*
X0075064Y0051729D01*
X0075858Y0052523D02*
X0077351Y0052523D01*
X0076999Y0053121D02*
X0076170Y0053121D01*
X0076170Y0053720D02*
X0076999Y0053720D01*
X0076999Y0054318D02*
X0076170Y0054318D01*
X0075654Y0054917D02*
X0077476Y0054917D01*
X0078075Y0055515D02*
X0069936Y0055515D01*
X0069936Y0054917D02*
X0072909Y0054917D01*
X0072393Y0054318D02*
X0069637Y0054318D01*
X0069039Y0053720D02*
X0072393Y0053720D01*
X0072393Y0053121D02*
X0066170Y0053121D01*
X0066170Y0052523D02*
X0066775Y0052523D01*
X0066176Y0051924D02*
X0066170Y0051924D01*
X0066170Y0050129D02*
X0066320Y0050129D01*
X0066170Y0049530D02*
X0066918Y0049530D01*
X0066170Y0048932D02*
X0161301Y0048932D01*
X0161302Y0049530D02*
X0069125Y0049530D01*
X0069724Y0050129D02*
X0161303Y0050129D01*
X0161304Y0050727D02*
X0069911Y0050727D01*
X0069911Y0051326D02*
X0161305Y0051326D01*
X0161299Y0048333D02*
X0066170Y0048333D01*
X0066170Y0047735D02*
X0161298Y0047735D01*
X0161297Y0047136D02*
X0066170Y0047136D01*
X0066170Y0046538D02*
X0161296Y0046538D01*
X0161295Y0045939D02*
X0066170Y0045939D01*
X0066170Y0045341D02*
X0152034Y0045341D01*
X0152416Y0045723D02*
X0151310Y0044617D01*
X0151310Y0043052D01*
X0152416Y0041945D01*
X0153981Y0041945D01*
X0155088Y0043052D01*
X0155088Y0044617D01*
X0153981Y0045723D01*
X0152416Y0045723D01*
X0151435Y0044742D02*
X0066170Y0044742D01*
X0066170Y0044144D02*
X0151310Y0044144D01*
X0151310Y0043545D02*
X0066170Y0043545D01*
X0066170Y0042947D02*
X0151415Y0042947D01*
X0152013Y0042348D02*
X0082031Y0042348D01*
X0082012Y0042368D02*
X0080447Y0042368D01*
X0079340Y0041261D01*
X0079340Y0039696D01*
X0080447Y0038590D01*
X0082012Y0038590D01*
X0083118Y0039696D01*
X0083118Y0041261D01*
X0082012Y0042368D01*
X0082630Y0041750D02*
X0158376Y0041750D01*
X0158974Y0042348D02*
X0154384Y0042348D01*
X0154982Y0042947D02*
X0159573Y0042947D01*
X0160171Y0043545D02*
X0155088Y0043545D01*
X0155088Y0044144D02*
X0160770Y0044144D01*
X0161293Y0044742D02*
X0154962Y0044742D01*
X0154363Y0045341D02*
X0161294Y0045341D01*
X0159523Y0044848D02*
X0158997Y0044123D01*
X0157777Y0041151D02*
X0083118Y0041151D01*
X0083118Y0040553D02*
X0157179Y0040553D01*
X0156580Y0039954D02*
X0083118Y0039954D01*
X0082777Y0039356D02*
X0155982Y0039356D01*
X0155383Y0038757D02*
X0082179Y0038757D01*
X0080280Y0038757D02*
X0070962Y0038757D01*
X0071552Y0038159D02*
X0154785Y0038159D01*
X0154186Y0037560D02*
X0072458Y0037560D01*
X0073364Y0036961D02*
X0153588Y0036961D01*
X0152989Y0036363D02*
X0074270Y0036363D01*
X0075176Y0035764D02*
X0152391Y0035764D01*
X0151792Y0035166D02*
X0076082Y0035166D01*
X0076988Y0034567D02*
X0151194Y0034567D01*
X0150595Y0033969D02*
X0077894Y0033969D01*
X0078800Y0033370D02*
X0149997Y0033370D01*
X0149398Y0032772D02*
X0079706Y0032772D01*
X0080744Y0032173D02*
X0092862Y0032173D01*
X0093019Y0032330D02*
X0091912Y0031223D01*
X0091912Y0029658D01*
X0093019Y0028552D01*
X0094584Y0028552D01*
X0095690Y0029658D01*
X0095690Y0031223D01*
X0094584Y0032330D01*
X0093019Y0032330D01*
X0092264Y0031575D02*
X0081785Y0031575D01*
X0082827Y0030976D02*
X0091912Y0030976D01*
X0091912Y0030378D02*
X0083869Y0030378D01*
X0084911Y0029779D02*
X0091912Y0029779D01*
X0092389Y0029181D02*
X0085953Y0029181D01*
X0086995Y0028582D02*
X0092988Y0028582D01*
X0094614Y0028582D02*
X0111720Y0028582D01*
X0111720Y0027984D02*
X0088036Y0027984D01*
X0089078Y0027385D02*
X0112173Y0027385D01*
X0112772Y0026787D02*
X0090120Y0026787D01*
X0090153Y0030194D02*
X0089728Y0030450D01*
X0094740Y0032173D02*
X0148800Y0032173D01*
X0148201Y0031575D02*
X0095338Y0031575D01*
X0095690Y0030976D02*
X0129808Y0030976D01*
X0129891Y0031060D02*
X0128785Y0029954D01*
X0128785Y0028389D01*
X0129891Y0027282D01*
X0131456Y0027282D01*
X0132563Y0028389D01*
X0132563Y0029954D01*
X0131456Y0031060D01*
X0129891Y0031060D01*
X0129209Y0030378D02*
X0114524Y0030378D01*
X0115122Y0029779D02*
X0128785Y0029779D01*
X0128785Y0029181D02*
X0115498Y0029181D01*
X0115498Y0028582D02*
X0128785Y0028582D01*
X0129190Y0027984D02*
X0115498Y0027984D01*
X0115044Y0027385D02*
X0129788Y0027385D01*
X0131559Y0027385D02*
X0144012Y0027385D01*
X0144610Y0027984D02*
X0132158Y0027984D01*
X0132563Y0028582D02*
X0145209Y0028582D01*
X0145807Y0029181D02*
X0132563Y0029181D01*
X0132563Y0029779D02*
X0146406Y0029779D01*
X0147004Y0030378D02*
X0132139Y0030378D01*
X0131540Y0030976D02*
X0147603Y0030976D01*
X0143413Y0026787D02*
X0114446Y0026787D01*
X0111720Y0029181D02*
X0095213Y0029181D01*
X0095690Y0029779D02*
X0112096Y0029779D01*
X0112694Y0030378D02*
X0095690Y0030378D01*
X0106892Y0030321D02*
X0106910Y0031239D01*
X0125899Y0033651D02*
X0125899Y0034842D01*
X0150275Y0059122D02*
X0151605Y0059122D01*
X0161343Y0071077D02*
X0140514Y0071077D01*
X0141113Y0071675D02*
X0161344Y0071675D01*
X0161345Y0072274D02*
X0157341Y0072274D01*
X0157151Y0072083D02*
X0158257Y0073190D01*
X0158257Y0074755D01*
X0157151Y0075861D01*
X0155586Y0075861D01*
X0154479Y0074755D01*
X0154479Y0073190D01*
X0155586Y0072083D01*
X0157151Y0072083D01*
X0157940Y0072872D02*
X0161346Y0072872D01*
X0161347Y0073471D02*
X0158257Y0073471D01*
X0158257Y0074069D02*
X0161349Y0074069D01*
X0161104Y0074668D02*
X0158257Y0074668D01*
X0157745Y0075266D02*
X0160506Y0075266D01*
X0160243Y0075865D02*
X0071130Y0075865D01*
X0071130Y0076463D02*
X0160243Y0076463D01*
X0160243Y0077062D02*
X0070845Y0077062D01*
X0070247Y0077660D02*
X0160810Y0077660D01*
X0161357Y0078259D02*
X0127715Y0078259D01*
X0127267Y0077811D02*
X0128374Y0078918D01*
X0128374Y0080483D01*
X0127267Y0081589D01*
X0125703Y0081589D01*
X0124596Y0080483D01*
X0124596Y0078918D01*
X0125703Y0077811D01*
X0127267Y0077811D01*
X0128313Y0078857D02*
X0161358Y0078857D01*
X0161359Y0079456D02*
X0128374Y0079456D01*
X0128374Y0080054D02*
X0161360Y0080054D01*
X0161361Y0080653D02*
X0128204Y0080653D01*
X0127606Y0081251D02*
X0161362Y0081251D01*
X0161722Y0081850D02*
X0097880Y0081850D01*
X0098464Y0082448D02*
X0162323Y0082448D01*
X0162924Y0083047D02*
X0098464Y0083047D01*
X0098464Y0083645D02*
X0163525Y0083645D01*
X0164126Y0084244D02*
X0098218Y0084244D01*
X0090269Y0084192D02*
X0089793Y0083716D01*
X0071130Y0075266D02*
X0154991Y0075266D01*
X0154479Y0074668D02*
X0140431Y0074668D01*
X0141029Y0074069D02*
X0154479Y0074069D01*
X0154479Y0073471D02*
X0141485Y0073471D01*
X0141485Y0072872D02*
X0154797Y0072872D01*
X0155395Y0072274D02*
X0141485Y0072274D01*
X0138762Y0074668D02*
X0070585Y0074668D01*
X0066688Y0056712D02*
X0066170Y0056712D01*
X0066170Y0054318D02*
X0066456Y0054318D01*
X0066170Y0053720D02*
X0067055Y0053720D01*
X0069268Y0052523D02*
X0072705Y0052523D01*
X0073304Y0051924D02*
X0069867Y0051924D01*
X0071650Y0048412D02*
X0072827Y0048412D01*
X0070977Y0042348D02*
X0080427Y0042348D01*
X0079829Y0041750D02*
X0071575Y0041750D01*
X0071983Y0041151D02*
X0079340Y0041151D01*
X0079340Y0040553D02*
X0071983Y0040553D01*
X0071983Y0039954D02*
X0079340Y0039954D01*
X0079681Y0039356D02*
X0071560Y0039356D01*
X0068205Y0040553D02*
X0067927Y0040553D01*
X0068205Y0041151D02*
X0067021Y0041151D01*
X0066170Y0041750D02*
X0068612Y0041750D01*
X0069210Y0042348D02*
X0066170Y0042348D01*
X0078233Y0037412D02*
X0078481Y0037713D01*
X0122775Y0078259D02*
X0125255Y0078259D01*
X0124657Y0078857D02*
X0123373Y0078857D01*
X0123481Y0079456D02*
X0124596Y0079456D01*
X0124596Y0080054D02*
X0123481Y0080054D01*
X0123358Y0080653D02*
X0124766Y0080653D01*
X0125364Y0081251D02*
X0122760Y0081251D01*
X0119675Y0082870D02*
X0118573Y0083027D01*
X0136203Y0086039D02*
X0165928Y0086039D01*
X0166529Y0086638D02*
X0136802Y0086638D01*
X0137000Y0087236D02*
X0167130Y0087236D01*
X0167731Y0087835D02*
X0137000Y0087835D01*
X0136968Y0088433D02*
X0168331Y0088433D01*
X0168932Y0089032D02*
X0136369Y0089032D01*
X0138968Y0087602D02*
X0139173Y0087526D01*
X0158027Y0078768D02*
X0158426Y0079261D01*
X0167869Y0089630D02*
X0169533Y0089630D01*
X0170134Y0090229D02*
X0168467Y0090229D01*
X0168534Y0090827D02*
X0170735Y0090827D01*
X0171335Y0091426D02*
X0168534Y0091426D01*
X0168369Y0092025D02*
X0171732Y0092025D01*
X0171723Y0092623D02*
X0167771Y0092623D01*
D12*
X0166560Y0096473D02*
X0166417Y0097592D01*
M02*
