G75*
%MOIN*%
%OFA0B0*%
%FSLAX25Y25*%
%IPPOS*%
%LPD*%
%AMOC8*
5,1,8,0,0,1.08239X$1,22.5*
%
%ADD10R,0.02756X0.03543*%
%ADD11R,0.04724X0.03150*%
%ADD12R,1.85039X0.08661*%
%ADD13R,1.85039X0.04331*%
%ADD14C,0.02362*%
%ADD15R,0.02756X0.01417*%
%ADD16R,0.01417X0.02756*%
%ADD17R,0.03150X0.03150*%
%ADD18R,0.03937X0.04331*%
%ADD19R,0.04331X0.03937*%
%ADD20R,0.03543X0.02756*%
%ADD21C,0.01063*%
%ADD22R,0.03937X0.03937*%
%ADD23R,0.03937X0.07874*%
%ADD24C,0.02978*%
%ADD25R,0.01575X0.03346*%
%ADD26R,0.01575X0.06693*%
%ADD27R,0.01575X0.01575*%
%ADD28C,0.00600*%
%ADD29C,0.02178*%
%ADD30C,0.01000*%
%ADD31C,0.04000*%
%ADD32C,0.02000*%
D10*
X0085935Y0089130D03*
X0085935Y0093578D03*
X0091053Y0093578D03*
X0091053Y0089130D03*
X0103297Y0091413D03*
X0108415Y0091413D03*
X0115502Y0091374D03*
X0120620Y0091374D03*
X0132156Y0078972D03*
X0137274Y0078972D03*
X0136133Y0047841D03*
X0136093Y0043539D03*
X0136058Y0039344D03*
X0136013Y0035074D03*
X0130894Y0035074D03*
X0130940Y0039344D03*
X0130974Y0043539D03*
X0131015Y0047841D03*
X0142942Y0047803D03*
X0142982Y0043539D03*
X0143024Y0039306D03*
X0143028Y0035072D03*
X0148146Y0035072D03*
X0148142Y0039306D03*
X0148100Y0043539D03*
X0148060Y0047803D03*
D11*
X0149478Y0071689D03*
X0149478Y0078775D03*
D12*
X0099675Y0110586D03*
D13*
X0099675Y0191492D03*
D14*
X0102392Y0072082D03*
X0102392Y0066177D03*
X0108297Y0066177D03*
X0108297Y0072082D03*
X0114203Y0072082D03*
X0114203Y0066177D03*
X0114203Y0060271D03*
X0114203Y0054366D03*
X0114203Y0048460D03*
X0108297Y0048460D03*
X0102392Y0048460D03*
X0096486Y0048460D03*
X0090581Y0048460D03*
X0090581Y0054366D03*
X0096486Y0054366D03*
X0096486Y0060271D03*
X0090581Y0060271D03*
X0090581Y0066177D03*
X0096486Y0066177D03*
X0096486Y0072082D03*
X0090581Y0072082D03*
X0102392Y0060271D03*
X0102392Y0054366D03*
X0108297Y0054366D03*
X0108297Y0060271D03*
D15*
X0120856Y0060271D03*
X0120856Y0063421D03*
X0120856Y0066571D03*
X0120856Y0069720D03*
X0120856Y0072870D03*
X0120856Y0076019D03*
X0120856Y0057122D03*
X0120856Y0053972D03*
X0120856Y0050823D03*
X0120856Y0047673D03*
X0120856Y0044523D03*
X0083927Y0044523D03*
X0083927Y0047673D03*
X0083927Y0050823D03*
X0083927Y0053972D03*
X0083927Y0057122D03*
X0083927Y0060271D03*
X0083927Y0063421D03*
X0083927Y0066571D03*
X0083927Y0069720D03*
X0083927Y0072870D03*
X0083927Y0076019D03*
D16*
X0086644Y0078736D03*
X0089793Y0078736D03*
X0092943Y0078736D03*
X0096093Y0078736D03*
X0099242Y0078736D03*
X0102392Y0078736D03*
X0105541Y0078736D03*
X0108691Y0078736D03*
X0111841Y0078736D03*
X0114990Y0078736D03*
X0118140Y0078736D03*
X0118140Y0041807D03*
X0114990Y0041807D03*
X0111841Y0041807D03*
X0108691Y0041807D03*
X0105541Y0041807D03*
X0102392Y0041807D03*
X0099242Y0041807D03*
X0096093Y0041807D03*
X0092943Y0041807D03*
X0089793Y0041807D03*
X0086644Y0041807D03*
D17*
X0134281Y0055941D03*
X0134281Y0061846D03*
X0108376Y0100941D03*
X0102470Y0100941D03*
D18*
X0099872Y0037279D03*
X0099872Y0030586D03*
X0111183Y0030544D03*
X0111183Y0037237D03*
X0121372Y0035211D03*
X0121372Y0028518D03*
D19*
X0122436Y0021302D03*
X0129129Y0021302D03*
X0092628Y0035980D03*
X0085935Y0035980D03*
D20*
X0077510Y0064641D03*
X0077510Y0069760D03*
X0128967Y0061925D03*
X0128967Y0056807D03*
X0138230Y0092936D03*
X0138230Y0098054D03*
D21*
X0132116Y0094602D03*
X0130148Y0094602D03*
X0130148Y0092634D03*
X0132116Y0092634D03*
X0132116Y0090665D03*
X0130148Y0090665D03*
X0128179Y0090665D03*
X0128179Y0092634D03*
X0128179Y0094602D03*
D22*
X0145659Y0098736D03*
X0153140Y0098736D03*
X0153140Y0089287D03*
X0145659Y0089287D03*
D23*
X0164439Y0010468D03*
X0191998Y0010468D03*
D24*
X0007436Y0011479D03*
X0007436Y0019353D03*
X0007436Y0027227D03*
X0007436Y0035101D03*
X0007436Y0042975D03*
X0007436Y0050849D03*
X0007436Y0058723D03*
X0007436Y0066597D03*
X0007436Y0074471D03*
X0007436Y0082345D03*
X0031058Y0074471D03*
X0031058Y0066597D03*
X0031058Y0058723D03*
X0031058Y0050849D03*
X0031058Y0042975D03*
X0031058Y0035101D03*
X0031058Y0027227D03*
X0031058Y0019353D03*
X0031058Y0011479D03*
D25*
X0110270Y0022264D03*
D26*
X0113025Y0020591D03*
X0107514Y0020591D03*
D27*
X0110270Y0018032D03*
D28*
X0107514Y0018032D01*
X0107514Y0020591D01*
X0107607Y0020684D02*
X0107420Y0020684D01*
X0107420Y0020497D01*
X0107607Y0020497D01*
X0107607Y0015944D01*
X0108472Y0015944D01*
X0108803Y0016033D01*
X0108892Y0016084D01*
X0108980Y0016033D01*
X0109311Y0015944D01*
X0110176Y0015944D01*
X0110176Y0017938D01*
X0110363Y0017938D01*
X0110363Y0015944D01*
X0111228Y0015944D01*
X0111559Y0016033D01*
X0111648Y0016084D01*
X0111736Y0016033D01*
X0112067Y0015944D01*
X0112932Y0015944D01*
X0112932Y0020497D01*
X0113119Y0020497D01*
X0113119Y0015944D01*
X0113984Y0015944D01*
X0114315Y0016033D01*
X0114611Y0016204D01*
X0114853Y0016446D01*
X0115024Y0016742D01*
X0115113Y0017073D01*
X0115113Y0020497D01*
X0113119Y0020497D01*
X0113119Y0020684D01*
X0115113Y0020684D01*
X0115113Y0024108D01*
X0115024Y0024439D01*
X0114853Y0024735D01*
X0114611Y0024977D01*
X0114315Y0025149D01*
X0113984Y0025237D01*
X0113119Y0025237D01*
X0113119Y0020684D01*
X0112932Y0020684D01*
X0112932Y0025237D01*
X0112067Y0025237D01*
X0111736Y0025149D01*
X0111440Y0024977D01*
X0111370Y0024907D01*
X0111370Y0027578D01*
X0113483Y0027578D01*
X0113952Y0028047D01*
X0113952Y0033041D01*
X0113483Y0033509D01*
X0108883Y0033509D01*
X0108415Y0033041D01*
X0108415Y0032405D01*
X0107692Y0033128D01*
X0106127Y0033128D01*
X0105021Y0032021D01*
X0105021Y0030456D01*
X0106127Y0029350D01*
X0107692Y0029350D01*
X0108415Y0030072D01*
X0108415Y0028047D01*
X0108883Y0027578D01*
X0109170Y0027578D01*
X0109170Y0024907D01*
X0109099Y0024977D01*
X0108803Y0025149D01*
X0108472Y0025237D01*
X0107607Y0025237D01*
X0107607Y0020684D01*
X0107607Y0020802D02*
X0107420Y0020802D01*
X0107420Y0020684D02*
X0107420Y0025237D01*
X0106555Y0025237D01*
X0106224Y0025149D01*
X0105928Y0024977D01*
X0105686Y0024735D01*
X0105515Y0024439D01*
X0105426Y0024108D01*
X0105426Y0020684D01*
X0107420Y0020684D01*
X0107420Y0020497D02*
X0105426Y0020497D01*
X0105426Y0017073D01*
X0105515Y0016742D01*
X0105686Y0016446D01*
X0105928Y0016204D01*
X0106224Y0016033D01*
X0106555Y0015944D01*
X0107420Y0015944D01*
X0107420Y0020497D01*
X0107420Y0020203D02*
X0107607Y0020203D01*
X0107607Y0019605D02*
X0107420Y0019605D01*
X0107420Y0019006D02*
X0107607Y0019006D01*
X0107607Y0018408D02*
X0107420Y0018408D01*
X0107420Y0017809D02*
X0107607Y0017809D01*
X0107607Y0017211D02*
X0107420Y0017211D01*
X0107420Y0016612D02*
X0107607Y0016612D01*
X0107607Y0016014D02*
X0107420Y0016014D01*
X0106296Y0016014D02*
X0096769Y0016014D01*
X0096265Y0016517D02*
X0094701Y0016517D01*
X0093594Y0015410D01*
X0093594Y0013846D01*
X0094701Y0012739D01*
X0096265Y0012739D01*
X0097372Y0013846D01*
X0097372Y0015410D01*
X0096265Y0016517D01*
X0097367Y0015415D02*
X0131333Y0015415D01*
X0130692Y0016014D02*
X0114243Y0016014D01*
X0114949Y0016612D02*
X0130050Y0016612D01*
X0129409Y0017211D02*
X0115113Y0017211D01*
X0115113Y0017809D02*
X0128768Y0017809D01*
X0128126Y0018408D02*
X0125514Y0018408D01*
X0125400Y0018293D02*
X0125642Y0018535D01*
X0125813Y0018832D01*
X0125901Y0019162D01*
X0125901Y0021002D01*
X0122736Y0021002D01*
X0122736Y0021602D01*
X0122136Y0021602D01*
X0122136Y0024570D01*
X0120099Y0024570D01*
X0119769Y0024482D01*
X0119472Y0024311D01*
X0119230Y0024069D01*
X0119059Y0023772D01*
X0118971Y0023441D01*
X0118971Y0021602D01*
X0122136Y0021602D01*
X0122136Y0021002D01*
X0118971Y0021002D01*
X0118971Y0019162D01*
X0119059Y0018832D01*
X0119230Y0018535D01*
X0119472Y0018293D01*
X0119769Y0018122D01*
X0120099Y0018033D01*
X0122136Y0018033D01*
X0122136Y0021002D01*
X0122736Y0021002D01*
X0122736Y0018033D01*
X0124773Y0018033D01*
X0125103Y0018122D01*
X0125400Y0018293D01*
X0125860Y0019006D02*
X0126164Y0019006D01*
X0126164Y0019002D02*
X0126632Y0018533D01*
X0127992Y0018533D01*
X0138792Y0008454D01*
X0139152Y0008094D01*
X0139198Y0008075D01*
X0139235Y0008041D01*
X0139711Y0007863D01*
X0140181Y0007668D01*
X0140231Y0007668D01*
X0140278Y0007651D01*
X0140787Y0007668D01*
X0153524Y0007668D01*
X0153504Y0003449D01*
X0152508Y0003449D01*
X0153382Y0004323D01*
X0153382Y0005888D01*
X0152275Y0006995D01*
X0150710Y0006995D01*
X0149604Y0005888D01*
X0149604Y0004323D01*
X0150478Y0003449D01*
X0142358Y0003449D01*
X0143176Y0004268D01*
X0143176Y0005832D01*
X0142069Y0006939D01*
X0140505Y0006939D01*
X0139398Y0005832D01*
X0139398Y0004268D01*
X0140216Y0003449D01*
X0129861Y0003449D01*
X0130848Y0004437D01*
X0130848Y0006002D01*
X0129742Y0007108D01*
X0128177Y0007108D01*
X0127070Y0006002D01*
X0127070Y0004437D01*
X0128058Y0003449D01*
X0080541Y0003449D01*
X0080684Y0027558D01*
X0059225Y0027667D01*
X0059384Y0035533D01*
X0059384Y0104525D01*
X0059329Y0104525D01*
X0059329Y0104727D01*
X0120651Y0104727D01*
X0119336Y0103412D01*
X0119336Y0102740D01*
X0118248Y0102740D01*
X0117459Y0103529D01*
X0115894Y0103529D01*
X0114788Y0102422D01*
X0114788Y0100858D01*
X0115894Y0099751D01*
X0117459Y0099751D01*
X0118248Y0100540D01*
X0119336Y0100540D01*
X0119336Y0100521D01*
X0125711Y0094146D01*
X0126124Y0093734D01*
X0122541Y0093734D01*
X0122329Y0093945D01*
X0121349Y0093945D01*
X0110779Y0104515D01*
X0105973Y0104515D01*
X0104575Y0103117D01*
X0104377Y0103315D01*
X0100564Y0103315D01*
X0100096Y0102847D01*
X0100096Y0099034D01*
X0100564Y0098566D01*
X0104377Y0098566D01*
X0104845Y0099034D01*
X0104845Y0100277D01*
X0106001Y0101433D01*
X0106001Y0099034D01*
X0106470Y0098566D01*
X0107286Y0098566D01*
X0107305Y0093985D01*
X0106706Y0093985D01*
X0106237Y0093516D01*
X0106237Y0090033D01*
X0106128Y0090146D01*
X0106120Y0090146D01*
X0105475Y0090791D01*
X0105475Y0093516D01*
X0105007Y0093985D01*
X0101588Y0093985D01*
X0101119Y0093516D01*
X0101119Y0090791D01*
X0098917Y0088589D01*
X0098917Y0089912D01*
X0097811Y0091019D01*
X0096246Y0091019D01*
X0095457Y0090230D01*
X0093231Y0090230D01*
X0093231Y0090768D01*
X0093471Y0091009D01*
X0093642Y0091305D01*
X0093731Y0091636D01*
X0093731Y0093278D01*
X0091353Y0093278D01*
X0091353Y0093878D01*
X0093731Y0093878D01*
X0093731Y0095521D01*
X0093642Y0095852D01*
X0093471Y0096148D01*
X0093229Y0096390D01*
X0092933Y0096561D01*
X0092602Y0096650D01*
X0091353Y0096650D01*
X0091353Y0093878D01*
X0090753Y0093878D01*
X0090753Y0096650D01*
X0089504Y0096650D01*
X0089173Y0096561D01*
X0089019Y0096472D01*
X0088669Y0096823D01*
X0088669Y0096823D01*
X0088141Y0097350D01*
X0083729Y0097350D01*
X0070793Y0084414D01*
X0070793Y0056117D01*
X0068170Y0052987D01*
X0067239Y0052987D01*
X0066133Y0051881D01*
X0066133Y0050316D01*
X0067239Y0049209D01*
X0068804Y0049209D01*
X0069911Y0050316D01*
X0069911Y0051640D01*
X0072704Y0054973D01*
X0072993Y0055261D01*
X0072993Y0055317D01*
X0073028Y0055360D01*
X0072993Y0055765D01*
X0072993Y0070878D01*
X0073065Y0070657D01*
X0073171Y0055178D01*
X0072393Y0054400D01*
X0072393Y0052835D01*
X0073499Y0051729D01*
X0075064Y0051729D01*
X0076170Y0052835D01*
X0076170Y0054400D01*
X0075371Y0055200D01*
X0075320Y0062550D01*
X0075407Y0062463D01*
X0076436Y0062463D01*
X0076528Y0054910D01*
X0076528Y0054461D01*
X0076533Y0054456D01*
X0076534Y0054448D01*
X0076855Y0054135D01*
X0076999Y0053991D01*
X0076999Y0052875D01*
X0078105Y0051768D01*
X0079670Y0051768D01*
X0080777Y0052875D01*
X0080777Y0054440D01*
X0079670Y0055546D01*
X0078720Y0055546D01*
X0078636Y0062463D01*
X0079613Y0062463D01*
X0080081Y0062932D01*
X0080081Y0066351D01*
X0079613Y0066819D01*
X0075407Y0066819D01*
X0075292Y0066704D01*
X0075285Y0067704D01*
X0075407Y0067582D01*
X0079613Y0067582D01*
X0080081Y0068050D01*
X0080081Y0068620D01*
X0081809Y0068620D01*
X0082218Y0068212D01*
X0085636Y0068212D01*
X0086105Y0068680D01*
X0086105Y0070760D01*
X0085636Y0071229D01*
X0082218Y0071229D01*
X0081809Y0070820D01*
X0080081Y0070820D01*
X0080081Y0071469D01*
X0079613Y0071937D01*
X0075958Y0071937D01*
X0077454Y0074880D01*
X0080914Y0074880D01*
X0080921Y0074873D01*
X0081368Y0074880D01*
X0081815Y0074880D01*
X0081822Y0074887D01*
X0081842Y0074887D01*
X0082218Y0074511D01*
X0085636Y0074511D01*
X0086105Y0074979D01*
X0086105Y0076558D01*
X0087684Y0076558D01*
X0088152Y0077027D01*
X0088152Y0080445D01*
X0087684Y0080914D01*
X0087035Y0080914D01*
X0087035Y0086558D01*
X0087107Y0086558D01*
X0087107Y0086373D01*
X0087103Y0085923D01*
X0087107Y0085919D01*
X0087107Y0085913D01*
X0087426Y0085594D01*
X0087741Y0085273D01*
X0087747Y0085273D01*
X0087752Y0085268D01*
X0088202Y0085268D01*
X0088652Y0085264D01*
X0088657Y0085268D01*
X0088674Y0085268D01*
X0087904Y0084499D01*
X0087904Y0082934D01*
X0088693Y0082145D01*
X0088693Y0080854D01*
X0088285Y0080445D01*
X0088285Y0077027D01*
X0088753Y0076558D01*
X0090833Y0076558D01*
X0091302Y0077027D01*
X0091302Y0080445D01*
X0090893Y0080854D01*
X0090893Y0082145D01*
X0091682Y0082934D01*
X0091682Y0084499D01*
X0090913Y0085268D01*
X0098708Y0085268D01*
X0099352Y0085913D01*
X0102281Y0088841D01*
X0104313Y0088841D01*
X0104554Y0088600D01*
X0104466Y0080878D01*
X0104033Y0080445D01*
X0104033Y0077027D01*
X0104501Y0076558D01*
X0106581Y0076558D01*
X0107050Y0077027D01*
X0107050Y0080445D01*
X0106665Y0080830D01*
X0106754Y0088590D01*
X0106759Y0088595D01*
X0106759Y0088841D01*
X0110125Y0088841D01*
X0110593Y0089310D01*
X0110593Y0093516D01*
X0110125Y0093985D01*
X0109505Y0093985D01*
X0109494Y0096471D01*
X0110355Y0095611D01*
X0111920Y0095611D01*
X0113026Y0096717D01*
X0113026Y0098282D01*
X0111920Y0099389D01*
X0110751Y0099389D01*
X0110751Y0101433D01*
X0118574Y0093609D01*
X0118442Y0093477D01*
X0118442Y0090751D01*
X0118117Y0090426D01*
X0117680Y0089989D01*
X0117680Y0093477D01*
X0117211Y0093945D01*
X0113793Y0093945D01*
X0113324Y0093477D01*
X0113324Y0090751D01*
X0111186Y0088613D01*
X0110865Y0088300D01*
X0110865Y0088292D01*
X0110859Y0088286D01*
X0110859Y0087838D01*
X0110768Y0080882D01*
X0110332Y0080445D01*
X0110332Y0077027D01*
X0110801Y0076558D01*
X0112881Y0076558D01*
X0113110Y0076787D01*
X0113241Y0076560D01*
X0113483Y0076318D01*
X0113780Y0076147D01*
X0114110Y0076058D01*
X0114936Y0076058D01*
X0114936Y0078682D01*
X0115044Y0078682D01*
X0115044Y0076058D01*
X0115870Y0076058D01*
X0116201Y0076147D01*
X0116497Y0076318D01*
X0116565Y0076386D01*
X0116633Y0076318D01*
X0116929Y0076147D01*
X0117260Y0076058D01*
X0118085Y0076058D01*
X0118085Y0078682D01*
X0116131Y0078682D01*
X0115045Y0078682D01*
X0115045Y0078790D01*
X0118085Y0078790D01*
X0118085Y0078682D01*
X0118194Y0078682D01*
X0118194Y0076058D01*
X0118678Y0076058D01*
X0118678Y0074979D01*
X0119147Y0074511D01*
X0122566Y0074511D01*
X0123034Y0074979D01*
X0123034Y0077059D01*
X0122566Y0077528D01*
X0120148Y0077528D01*
X0120148Y0078520D01*
X0120810Y0077859D01*
X0122375Y0077859D01*
X0123481Y0078965D01*
X0123481Y0080081D01*
X0128635Y0085235D01*
X0129048Y0085648D01*
X0129048Y0083657D01*
X0126875Y0081589D01*
X0125703Y0081589D01*
X0124596Y0080483D01*
X0124596Y0078918D01*
X0125703Y0077811D01*
X0127267Y0077811D01*
X0128374Y0078918D01*
X0128374Y0079979D01*
X0130587Y0082085D01*
X0130603Y0082085D01*
X0130916Y0082397D01*
X0131016Y0082493D01*
X0131016Y0081544D01*
X0130446Y0081544D01*
X0129978Y0081075D01*
X0129978Y0076869D01*
X0130446Y0076400D01*
X0133865Y0076400D01*
X0134333Y0076869D01*
X0134333Y0081075D01*
X0133865Y0081544D01*
X0133216Y0081544D01*
X0133216Y0089882D01*
X0133448Y0090114D01*
X0133448Y0090997D01*
X0133556Y0090997D01*
X0135045Y0089508D01*
X0134329Y0089508D01*
X0133222Y0088401D01*
X0133222Y0086836D01*
X0134329Y0085730D01*
X0135893Y0085730D01*
X0137000Y0086836D01*
X0137000Y0088401D01*
X0136528Y0088873D01*
X0137568Y0088873D01*
X0137079Y0088384D01*
X0137079Y0086819D01*
X0138186Y0085713D01*
X0139632Y0085713D01*
X0136174Y0082255D01*
X0136174Y0081544D01*
X0135564Y0081544D01*
X0135096Y0081075D01*
X0135096Y0076869D01*
X0135564Y0076400D01*
X0138983Y0076400D01*
X0139452Y0076869D01*
X0139452Y0077675D01*
X0146316Y0077675D01*
X0146316Y0076869D01*
X0146785Y0076400D01*
X0152172Y0076400D01*
X0152641Y0076869D01*
X0152641Y0077675D01*
X0153922Y0077675D01*
X0156453Y0077671D01*
X0157245Y0076879D01*
X0158810Y0076879D01*
X0159916Y0077985D01*
X0159916Y0079550D01*
X0159327Y0080139D01*
X0159327Y0084286D01*
X0159349Y0084310D01*
X0159327Y0084820D01*
X0159327Y0085332D01*
X0159305Y0085354D01*
X0159304Y0085386D01*
X0158927Y0085732D01*
X0158566Y0086093D01*
X0158534Y0086093D01*
X0155908Y0088508D01*
X0155908Y0091587D01*
X0155440Y0092056D01*
X0150840Y0092056D01*
X0150371Y0091587D01*
X0150371Y0086987D01*
X0150840Y0086519D01*
X0154230Y0086519D01*
X0156727Y0084222D01*
X0156727Y0080139D01*
X0156459Y0079871D01*
X0154377Y0079874D01*
X0154376Y0079875D01*
X0153919Y0079875D01*
X0153466Y0079876D01*
X0153466Y0079875D01*
X0152641Y0079875D01*
X0152641Y0080681D01*
X0152172Y0081150D01*
X0146785Y0081150D01*
X0146316Y0080681D01*
X0146316Y0079875D01*
X0139452Y0079875D01*
X0139452Y0081075D01*
X0138983Y0081544D01*
X0138574Y0081544D01*
X0143169Y0086138D01*
X0143169Y0086709D01*
X0143360Y0086519D01*
X0147959Y0086519D01*
X0148428Y0086987D01*
X0148428Y0091587D01*
X0147959Y0092056D01*
X0144600Y0092056D01*
X0142002Y0094869D01*
X0142002Y0095142D01*
X0140800Y0096343D01*
X0140802Y0096345D01*
X0140802Y0099070D01*
X0142236Y0100504D01*
X0142391Y0100504D01*
X0142391Y0099036D01*
X0145359Y0099036D01*
X0145359Y0098436D01*
X0142391Y0098436D01*
X0142391Y0096596D01*
X0142480Y0096266D01*
X0142651Y0095969D01*
X0142893Y0095727D01*
X0143189Y0095556D01*
X0143520Y0095467D01*
X0145359Y0095467D01*
X0145359Y0098436D01*
X0145959Y0098436D01*
X0145959Y0095467D01*
X0147799Y0095467D01*
X0148130Y0095556D01*
X0148426Y0095727D01*
X0148668Y0095969D01*
X0148839Y0096266D01*
X0148928Y0096596D01*
X0148928Y0098436D01*
X0145959Y0098436D01*
X0145959Y0099036D01*
X0148928Y0099036D01*
X0148928Y0099122D01*
X0150371Y0097678D01*
X0150371Y0096436D01*
X0150840Y0095967D01*
X0155440Y0095967D01*
X0155908Y0096436D01*
X0155908Y0097498D01*
X0160621Y0097265D01*
X0160643Y0097242D01*
X0161071Y0097242D01*
X0161499Y0097221D01*
X0161523Y0097242D01*
X0161554Y0097242D01*
X0161857Y0097545D01*
X0162175Y0097833D01*
X0162176Y0097864D01*
X0166692Y0102380D01*
X0171165Y0102380D01*
X0171923Y0101623D01*
X0173487Y0101623D01*
X0174594Y0102729D01*
X0174594Y0104294D01*
X0174161Y0104727D01*
X0195605Y0104727D01*
X0195689Y0025287D01*
X0153611Y0025118D01*
X0153552Y0013268D01*
X0141842Y0013268D01*
X0132094Y0022364D01*
X0132094Y0023602D01*
X0131626Y0024070D01*
X0129720Y0024070D01*
X0129589Y0024119D01*
X0128881Y0024095D01*
X0124140Y0028836D01*
X0124140Y0031014D01*
X0123671Y0031483D01*
X0119072Y0031483D01*
X0118603Y0031014D01*
X0118603Y0026021D01*
X0119072Y0025552D01*
X0122333Y0025552D01*
X0123315Y0024570D01*
X0122736Y0024570D01*
X0122736Y0021602D01*
X0125901Y0021602D01*
X0125901Y0021984D01*
X0126164Y0021722D01*
X0126164Y0019002D01*
X0126164Y0019605D02*
X0125901Y0019605D01*
X0125901Y0020203D02*
X0126164Y0020203D01*
X0126164Y0020802D02*
X0125901Y0020802D01*
X0126164Y0021400D02*
X0122736Y0021400D01*
X0122736Y0020802D02*
X0122136Y0020802D01*
X0122136Y0021400D02*
X0115113Y0021400D01*
X0115113Y0020802D02*
X0118971Y0020802D01*
X0118971Y0020203D02*
X0115113Y0020203D01*
X0115113Y0019605D02*
X0118971Y0019605D01*
X0119012Y0019006D02*
X0115113Y0019006D01*
X0115113Y0018408D02*
X0119358Y0018408D01*
X0122136Y0018408D02*
X0122736Y0018408D01*
X0122736Y0019006D02*
X0122136Y0019006D01*
X0122136Y0019605D02*
X0122736Y0019605D01*
X0122736Y0020203D02*
X0122136Y0020203D01*
X0122136Y0021999D02*
X0122736Y0021999D01*
X0122736Y0022597D02*
X0122136Y0022597D01*
X0122136Y0023196D02*
X0122736Y0023196D01*
X0122736Y0023794D02*
X0122136Y0023794D01*
X0122136Y0024393D02*
X0122736Y0024393D01*
X0122894Y0024991D02*
X0114587Y0024991D01*
X0115037Y0024393D02*
X0119615Y0024393D01*
X0119072Y0023794D02*
X0115113Y0023794D01*
X0115113Y0023196D02*
X0118971Y0023196D01*
X0118971Y0022597D02*
X0115113Y0022597D01*
X0115113Y0021999D02*
X0118971Y0021999D01*
X0119034Y0025590D02*
X0111370Y0025590D01*
X0111370Y0026188D02*
X0118603Y0026188D01*
X0118603Y0026787D02*
X0111370Y0026787D01*
X0111370Y0027385D02*
X0118603Y0027385D01*
X0118603Y0027984D02*
X0113888Y0027984D01*
X0113952Y0028582D02*
X0118603Y0028582D01*
X0118603Y0029181D02*
X0113952Y0029181D01*
X0113952Y0029779D02*
X0118603Y0029779D01*
X0118603Y0030378D02*
X0113952Y0030378D01*
X0113952Y0030976D02*
X0118603Y0030976D01*
X0119072Y0032245D02*
X0123671Y0032245D01*
X0124140Y0032714D01*
X0124140Y0033929D01*
X0125116Y0032953D01*
X0126681Y0032953D01*
X0127788Y0034059D01*
X0127788Y0035624D01*
X0126999Y0036413D01*
X0126999Y0052745D01*
X0126354Y0053389D01*
X0123063Y0056681D01*
X0123034Y0056681D01*
X0123034Y0058162D01*
X0122566Y0058630D01*
X0119147Y0058630D01*
X0118738Y0058222D01*
X0111902Y0058222D01*
X0110278Y0059846D01*
X0110278Y0061092D01*
X0109118Y0062252D01*
X0107477Y0062252D01*
X0106316Y0061092D01*
X0106316Y0059451D01*
X0107477Y0058290D01*
X0108723Y0058290D01*
X0110347Y0056666D01*
X0110991Y0056022D01*
X0112350Y0056022D01*
X0112276Y0055947D01*
X0112004Y0055541D01*
X0111817Y0055090D01*
X0111731Y0054656D01*
X0113912Y0054656D01*
X0113912Y0054075D01*
X0114493Y0054075D01*
X0114493Y0051894D01*
X0114926Y0051980D01*
X0115378Y0052167D01*
X0115784Y0052439D01*
X0116130Y0052784D01*
X0116401Y0053191D01*
X0116588Y0053642D01*
X0116675Y0054075D01*
X0114493Y0054075D01*
X0114493Y0054656D01*
X0116675Y0054656D01*
X0116588Y0055090D01*
X0116401Y0055541D01*
X0116130Y0055947D01*
X0116056Y0056022D01*
X0118738Y0056022D01*
X0118908Y0055852D01*
X0118680Y0055721D01*
X0118438Y0055479D01*
X0118267Y0055183D01*
X0118178Y0054852D01*
X0118178Y0054026D01*
X0120802Y0054026D01*
X0120802Y0053918D01*
X0118178Y0053918D01*
X0118178Y0053092D01*
X0118267Y0052762D01*
X0118438Y0052465D01*
X0118680Y0052223D01*
X0118908Y0052092D01*
X0118678Y0051863D01*
X0118678Y0049783D01*
X0118908Y0049553D01*
X0118680Y0049422D01*
X0118438Y0049180D01*
X0118267Y0048883D01*
X0118178Y0048553D01*
X0118178Y0047727D01*
X0120802Y0047727D01*
X0120802Y0047619D01*
X0118178Y0047619D01*
X0118178Y0046793D01*
X0118267Y0046462D01*
X0118438Y0046166D01*
X0118506Y0046098D01*
X0118438Y0046030D01*
X0118267Y0045734D01*
X0118178Y0045403D01*
X0118178Y0044578D01*
X0120802Y0044578D01*
X0120802Y0047619D01*
X0120911Y0047619D01*
X0120911Y0047727D01*
X0123534Y0047727D01*
X0123534Y0048553D01*
X0123446Y0048883D01*
X0123274Y0049180D01*
X0123032Y0049422D01*
X0122805Y0049553D01*
X0123034Y0049783D01*
X0123034Y0051863D01*
X0122805Y0052092D01*
X0123032Y0052223D01*
X0123274Y0052465D01*
X0123446Y0052762D01*
X0123534Y0053092D01*
X0123534Y0053098D01*
X0124799Y0051833D01*
X0124799Y0036413D01*
X0124140Y0035755D01*
X0124140Y0037707D01*
X0123671Y0038176D01*
X0120952Y0038176D01*
X0120091Y0039037D01*
X0113952Y0039037D01*
X0113952Y0039171D01*
X0114110Y0039129D01*
X0114936Y0039129D01*
X0114936Y0041752D01*
X0115044Y0041752D01*
X0115044Y0039129D01*
X0115870Y0039129D01*
X0116201Y0039217D01*
X0116497Y0039389D01*
X0116739Y0039631D01*
X0116870Y0039858D01*
X0117100Y0039629D01*
X0119180Y0039629D01*
X0119648Y0040097D01*
X0119648Y0042515D01*
X0120802Y0042515D01*
X0120802Y0044469D01*
X0120911Y0044469D01*
X0120911Y0044578D01*
X0123534Y0044578D01*
X0123534Y0045403D01*
X0123446Y0045734D01*
X0123274Y0046030D01*
X0123207Y0046098D01*
X0123274Y0046166D01*
X0123446Y0046462D01*
X0123534Y0046793D01*
X0123534Y0047619D01*
X0120911Y0047619D01*
X0120911Y0045664D01*
X0120911Y0044578D01*
X0120802Y0044578D01*
X0120802Y0044469D01*
X0118178Y0044469D01*
X0118178Y0043985D01*
X0117100Y0043985D01*
X0116870Y0043755D01*
X0116739Y0043983D01*
X0116497Y0044225D01*
X0116201Y0044396D01*
X0115870Y0044485D01*
X0115044Y0044485D01*
X0115044Y0041861D01*
X0114936Y0041861D01*
X0114936Y0044485D01*
X0114110Y0044485D01*
X0113780Y0044396D01*
X0113483Y0044225D01*
X0113415Y0044157D01*
X0113347Y0044225D01*
X0113051Y0044396D01*
X0112720Y0044485D01*
X0111895Y0044485D01*
X0111895Y0041861D01*
X0114936Y0041861D01*
X0114936Y0041752D01*
X0112981Y0041752D01*
X0111895Y0041752D01*
X0111895Y0041861D01*
X0111786Y0041861D01*
X0111786Y0044485D01*
X0110961Y0044485D01*
X0110630Y0044396D01*
X0110334Y0044225D01*
X0110092Y0043983D01*
X0109960Y0043755D01*
X0109731Y0043985D01*
X0107651Y0043985D01*
X0107422Y0043755D01*
X0107290Y0043983D01*
X0107048Y0044225D01*
X0106752Y0044396D01*
X0106421Y0044485D01*
X0105596Y0044485D01*
X0105596Y0041861D01*
X0105487Y0041861D01*
X0105487Y0041752D01*
X0105596Y0041752D01*
X0105596Y0039129D01*
X0106421Y0039129D01*
X0106752Y0039217D01*
X0107048Y0039389D01*
X0107290Y0039631D01*
X0107422Y0039858D01*
X0107651Y0039629D01*
X0108415Y0039629D01*
X0108415Y0039079D01*
X0102641Y0039079D01*
X0102641Y0039129D01*
X0103272Y0039129D01*
X0103602Y0039217D01*
X0103899Y0039389D01*
X0103967Y0039457D01*
X0104034Y0039389D01*
X0104331Y0039217D01*
X0104662Y0039129D01*
X0105487Y0039129D01*
X0105487Y0041752D01*
X0103533Y0041752D01*
X0102446Y0041752D01*
X0102446Y0041861D01*
X0105487Y0041861D01*
X0105487Y0044485D01*
X0104662Y0044485D01*
X0104331Y0044396D01*
X0104034Y0044225D01*
X0103967Y0044157D01*
X0103899Y0044225D01*
X0103602Y0044396D01*
X0103272Y0044485D01*
X0102446Y0044485D01*
X0102446Y0041861D01*
X0102337Y0041861D01*
X0102337Y0041752D01*
X0099297Y0041752D01*
X0099297Y0041861D01*
X0101251Y0041861D01*
X0102337Y0041861D01*
X0102337Y0044485D01*
X0101512Y0044485D01*
X0101181Y0044396D01*
X0100885Y0044225D01*
X0100817Y0044157D01*
X0100749Y0044225D01*
X0100453Y0044396D01*
X0100122Y0044485D01*
X0099296Y0044485D01*
X0099296Y0041861D01*
X0099188Y0041861D01*
X0099188Y0044485D01*
X0098362Y0044485D01*
X0098032Y0044396D01*
X0097735Y0044225D01*
X0097493Y0043983D01*
X0097362Y0043755D01*
X0097133Y0043985D01*
X0095052Y0043985D01*
X0094823Y0043755D01*
X0094692Y0043983D01*
X0094450Y0044225D01*
X0094153Y0044396D01*
X0093823Y0044485D01*
X0092997Y0044485D01*
X0092997Y0041861D01*
X0092889Y0041861D01*
X0092889Y0044485D01*
X0092063Y0044485D01*
X0091732Y0044396D01*
X0091436Y0044225D01*
X0091194Y0043983D01*
X0091063Y0043755D01*
X0090833Y0043985D01*
X0088753Y0043985D01*
X0088524Y0043755D01*
X0088393Y0043983D01*
X0088151Y0044225D01*
X0087854Y0044396D01*
X0087524Y0044485D01*
X0086698Y0044485D01*
X0086698Y0041861D01*
X0086589Y0041861D01*
X0086589Y0041752D01*
X0086698Y0041752D01*
X0086698Y0039129D01*
X0087245Y0039129D01*
X0086865Y0038749D01*
X0083438Y0038749D01*
X0082970Y0038280D01*
X0082970Y0033680D01*
X0083438Y0033212D01*
X0088432Y0033212D01*
X0088900Y0033680D01*
X0088900Y0037107D01*
X0089663Y0037869D01*
X0089663Y0033680D01*
X0090131Y0033212D01*
X0095125Y0033212D01*
X0095593Y0033680D01*
X0095593Y0034180D01*
X0099318Y0034180D01*
X0099452Y0034314D01*
X0102172Y0034314D01*
X0102641Y0034783D01*
X0102641Y0035479D01*
X0108415Y0035479D01*
X0108415Y0034740D01*
X0108883Y0034271D01*
X0113483Y0034271D01*
X0113952Y0034740D01*
X0113952Y0035437D01*
X0118600Y0035437D01*
X0118603Y0035433D01*
X0118603Y0032714D01*
X0119072Y0032245D01*
X0118603Y0032772D02*
X0113952Y0032772D01*
X0113952Y0032173D02*
X0128871Y0032173D01*
X0129015Y0032091D02*
X0129345Y0032002D01*
X0130594Y0032002D01*
X0130594Y0034774D01*
X0128216Y0034774D01*
X0128216Y0033131D01*
X0128305Y0032800D01*
X0128476Y0032504D01*
X0128718Y0032262D01*
X0129015Y0032091D01*
X0128321Y0032772D02*
X0124140Y0032772D01*
X0124140Y0033370D02*
X0124699Y0033370D01*
X0125899Y0034842D02*
X0125899Y0052289D01*
X0122607Y0055581D01*
X0122397Y0055581D01*
X0120856Y0057122D01*
X0111447Y0057122D01*
X0108297Y0060271D01*
X0106316Y0060303D02*
X0104373Y0060303D01*
X0104373Y0059705D02*
X0106316Y0059705D01*
X0106660Y0059106D02*
X0104028Y0059106D01*
X0104373Y0059451D02*
X0104373Y0061092D01*
X0103212Y0062252D01*
X0101571Y0062252D01*
X0100411Y0061092D01*
X0100411Y0059451D01*
X0101571Y0058290D01*
X0103212Y0058290D01*
X0104373Y0059451D01*
X0103430Y0058508D02*
X0107259Y0058508D01*
X0109104Y0057909D02*
X0086105Y0057909D01*
X0086105Y0058162D02*
X0085636Y0058630D01*
X0082218Y0058630D01*
X0081749Y0058162D01*
X0081749Y0056082D01*
X0082218Y0055613D01*
X0085636Y0055613D01*
X0086105Y0056082D01*
X0086105Y0058162D01*
X0085759Y0058508D02*
X0089542Y0058508D01*
X0089760Y0058290D02*
X0088600Y0059451D01*
X0088600Y0061092D01*
X0089760Y0062252D01*
X0091401Y0062252D01*
X0092562Y0061092D01*
X0092562Y0059451D01*
X0091401Y0058290D01*
X0089760Y0058290D01*
X0088944Y0059106D02*
X0085980Y0059106D01*
X0086105Y0059231D02*
X0086105Y0061311D01*
X0085636Y0061780D01*
X0082218Y0061780D01*
X0081749Y0061311D01*
X0081749Y0059231D01*
X0082218Y0058763D01*
X0085636Y0058763D01*
X0086105Y0059231D01*
X0086105Y0059705D02*
X0088600Y0059705D01*
X0088600Y0060303D02*
X0086105Y0060303D01*
X0086105Y0060902D02*
X0088600Y0060902D01*
X0089008Y0061500D02*
X0085916Y0061500D01*
X0085636Y0061912D02*
X0086105Y0062381D01*
X0086105Y0064461D01*
X0085636Y0064930D01*
X0082218Y0064930D01*
X0081749Y0064461D01*
X0081749Y0062381D01*
X0082218Y0061912D01*
X0085636Y0061912D01*
X0085823Y0062099D02*
X0089607Y0062099D01*
X0091555Y0062099D02*
X0095512Y0062099D01*
X0095666Y0062252D02*
X0094505Y0061092D01*
X0094505Y0059451D01*
X0095666Y0058290D01*
X0097307Y0058290D01*
X0098467Y0059451D01*
X0098467Y0061092D01*
X0097307Y0062252D01*
X0095666Y0062252D01*
X0094914Y0061500D02*
X0092153Y0061500D01*
X0092562Y0060902D02*
X0094505Y0060902D01*
X0094505Y0060303D02*
X0092562Y0060303D01*
X0092562Y0059705D02*
X0094505Y0059705D01*
X0094849Y0059106D02*
X0092217Y0059106D01*
X0091619Y0058508D02*
X0095448Y0058508D01*
X0095762Y0056752D02*
X0095311Y0056565D01*
X0094905Y0056293D01*
X0094559Y0055947D01*
X0094287Y0055541D01*
X0094100Y0055090D01*
X0094014Y0054656D01*
X0096196Y0054656D01*
X0096196Y0054075D01*
X0096777Y0054075D01*
X0096777Y0051894D01*
X0097210Y0051980D01*
X0097661Y0052167D01*
X0098068Y0052439D01*
X0098413Y0052784D01*
X0098685Y0053191D01*
X0098872Y0053642D01*
X0098958Y0054075D01*
X0096777Y0054075D01*
X0096777Y0054656D01*
X0098958Y0054656D01*
X0098872Y0055090D01*
X0098685Y0055541D01*
X0098413Y0055947D01*
X0098068Y0056293D01*
X0097661Y0056565D01*
X0097210Y0056752D01*
X0096777Y0056838D01*
X0096777Y0054656D01*
X0096196Y0054656D01*
X0096196Y0056838D01*
X0095762Y0056752D01*
X0095668Y0056712D02*
X0091399Y0056712D01*
X0091304Y0056752D02*
X0090871Y0056838D01*
X0090871Y0054656D01*
X0093053Y0054656D01*
X0092966Y0055090D01*
X0092779Y0055541D01*
X0092508Y0055947D01*
X0092162Y0056293D01*
X0091756Y0056565D01*
X0091304Y0056752D01*
X0090871Y0056712D02*
X0090290Y0056712D01*
X0090290Y0056838D02*
X0089857Y0056752D01*
X0089405Y0056565D01*
X0088999Y0056293D01*
X0088654Y0055947D01*
X0088382Y0055541D01*
X0088195Y0055090D01*
X0088109Y0054656D01*
X0090290Y0054656D01*
X0090290Y0054075D01*
X0090871Y0054075D01*
X0090871Y0051894D01*
X0091304Y0051980D01*
X0091756Y0052167D01*
X0092162Y0052439D01*
X0092508Y0052784D01*
X0092779Y0053191D01*
X0092966Y0053642D01*
X0093053Y0054075D01*
X0090871Y0054075D01*
X0090871Y0054656D01*
X0090290Y0054656D01*
X0090290Y0056838D01*
X0089762Y0056712D02*
X0086105Y0056712D01*
X0086105Y0056114D02*
X0088820Y0056114D01*
X0088371Y0055515D02*
X0079701Y0055515D01*
X0080300Y0054917D02*
X0081749Y0054917D01*
X0081749Y0055012D02*
X0081749Y0052932D01*
X0082218Y0052463D01*
X0085636Y0052463D01*
X0086105Y0052932D01*
X0086105Y0055012D01*
X0085636Y0055481D01*
X0082218Y0055481D01*
X0081749Y0055012D01*
X0081749Y0054318D02*
X0080777Y0054318D01*
X0080777Y0053720D02*
X0081749Y0053720D01*
X0081749Y0053121D02*
X0080777Y0053121D01*
X0080425Y0052523D02*
X0082159Y0052523D01*
X0082218Y0052331D02*
X0081749Y0051863D01*
X0081749Y0049783D01*
X0082218Y0049314D01*
X0085636Y0049314D01*
X0086105Y0049783D01*
X0086105Y0051863D01*
X0085636Y0052331D01*
X0082218Y0052331D01*
X0081811Y0051924D02*
X0079826Y0051924D01*
X0077949Y0051924D02*
X0075259Y0051924D01*
X0075858Y0052523D02*
X0077351Y0052523D01*
X0076999Y0053121D02*
X0076170Y0053121D01*
X0076170Y0053720D02*
X0076999Y0053720D01*
X0076666Y0054318D02*
X0076170Y0054318D01*
X0076528Y0054917D02*
X0075654Y0054917D01*
X0075369Y0055515D02*
X0076521Y0055515D01*
X0076513Y0056114D02*
X0075364Y0056114D01*
X0075360Y0056712D02*
X0076506Y0056712D01*
X0076499Y0057311D02*
X0075356Y0057311D01*
X0075352Y0057909D02*
X0076492Y0057909D01*
X0076484Y0058508D02*
X0075348Y0058508D01*
X0075344Y0059106D02*
X0076477Y0059106D01*
X0076470Y0059705D02*
X0075340Y0059705D01*
X0075336Y0060303D02*
X0076462Y0060303D01*
X0076455Y0060902D02*
X0075332Y0060902D01*
X0075327Y0061500D02*
X0076448Y0061500D01*
X0076441Y0062099D02*
X0075323Y0062099D01*
X0073123Y0062099D02*
X0072993Y0062099D01*
X0072993Y0062697D02*
X0073119Y0062697D01*
X0073115Y0063296D02*
X0072993Y0063296D01*
X0072993Y0063894D02*
X0073111Y0063894D01*
X0073107Y0064493D02*
X0072993Y0064493D01*
X0072993Y0065092D02*
X0073103Y0065092D01*
X0073099Y0065690D02*
X0072993Y0065690D01*
X0072993Y0066289D02*
X0073095Y0066289D01*
X0073090Y0066887D02*
X0072993Y0066887D01*
X0072993Y0067486D02*
X0073086Y0067486D01*
X0073082Y0068084D02*
X0072993Y0068084D01*
X0072993Y0068683D02*
X0073078Y0068683D01*
X0073074Y0069281D02*
X0072993Y0069281D01*
X0072993Y0069880D02*
X0073070Y0069880D01*
X0073066Y0070478D02*
X0072993Y0070478D01*
X0074163Y0070835D02*
X0076780Y0075980D01*
X0081360Y0075980D01*
X0083927Y0076019D01*
X0086105Y0075865D02*
X0118678Y0075865D01*
X0118678Y0075266D02*
X0086105Y0075266D01*
X0085793Y0074668D02*
X0118990Y0074668D01*
X0119147Y0074378D02*
X0118678Y0073910D01*
X0118678Y0071830D01*
X0119147Y0071361D01*
X0122566Y0071361D01*
X0123034Y0071830D01*
X0123034Y0073910D01*
X0122566Y0074378D01*
X0119147Y0074378D01*
X0118838Y0074069D02*
X0115695Y0074069D01*
X0115784Y0074010D02*
X0115378Y0074281D01*
X0114926Y0074468D01*
X0114493Y0074554D01*
X0114493Y0072373D01*
X0113912Y0072373D01*
X0113912Y0071792D01*
X0111731Y0071792D01*
X0111817Y0071359D01*
X0112004Y0070907D01*
X0112276Y0070501D01*
X0112621Y0070155D01*
X0113028Y0069884D01*
X0113479Y0069697D01*
X0113912Y0069610D01*
X0113912Y0071792D01*
X0114493Y0071792D01*
X0114493Y0069610D01*
X0114926Y0069697D01*
X0115378Y0069884D01*
X0115784Y0070155D01*
X0116130Y0070501D01*
X0116401Y0070907D01*
X0116588Y0071359D01*
X0116675Y0071792D01*
X0114493Y0071792D01*
X0114493Y0072373D01*
X0116675Y0072373D01*
X0116588Y0072806D01*
X0116401Y0073258D01*
X0116130Y0073664D01*
X0115784Y0074010D01*
X0116259Y0073471D02*
X0118678Y0073471D01*
X0118678Y0072872D02*
X0116561Y0072872D01*
X0116651Y0071675D02*
X0118833Y0071675D01*
X0119147Y0071229D02*
X0118678Y0070760D01*
X0118678Y0068680D01*
X0118908Y0068451D01*
X0118680Y0068319D01*
X0118438Y0068077D01*
X0118267Y0067781D01*
X0118178Y0067450D01*
X0118178Y0066625D01*
X0120802Y0066625D01*
X0120802Y0066516D01*
X0118178Y0066516D01*
X0118178Y0065691D01*
X0118267Y0065360D01*
X0118438Y0065064D01*
X0118680Y0064822D01*
X0118908Y0064690D01*
X0118678Y0064461D01*
X0118678Y0062381D01*
X0119147Y0061912D01*
X0122566Y0061912D01*
X0123034Y0062381D01*
X0123034Y0064461D01*
X0122805Y0064690D01*
X0123032Y0064822D01*
X0123274Y0065064D01*
X0123446Y0065360D01*
X0123534Y0065691D01*
X0123534Y0066516D01*
X0120911Y0066516D01*
X0120911Y0066625D01*
X0123534Y0066625D01*
X0123534Y0067450D01*
X0123446Y0067781D01*
X0123274Y0068077D01*
X0123032Y0068319D01*
X0122805Y0068451D01*
X0123034Y0068680D01*
X0123034Y0070760D01*
X0122566Y0071229D01*
X0119147Y0071229D01*
X0118995Y0071077D02*
X0116472Y0071077D01*
X0116107Y0070478D02*
X0118678Y0070478D01*
X0118678Y0069880D02*
X0115368Y0069880D01*
X0114493Y0069880D02*
X0113912Y0069880D01*
X0113912Y0070478D02*
X0114493Y0070478D01*
X0114493Y0071077D02*
X0113912Y0071077D01*
X0113912Y0071675D02*
X0114493Y0071675D01*
X0114203Y0072082D02*
X0119715Y0066571D01*
X0120856Y0066571D01*
X0122397Y0065030D01*
X0122607Y0065030D01*
X0126295Y0061342D01*
X0126295Y0060174D01*
X0128967Y0057503D01*
X0128967Y0056807D01*
X0128666Y0056712D02*
X0123034Y0056712D01*
X0123034Y0057311D02*
X0125895Y0057311D01*
X0125895Y0057107D02*
X0128666Y0057107D01*
X0128666Y0056507D01*
X0125895Y0056507D01*
X0125895Y0055258D01*
X0125983Y0054927D01*
X0126155Y0054631D01*
X0126397Y0054389D01*
X0126693Y0054217D01*
X0127024Y0054129D01*
X0128667Y0054129D01*
X0128667Y0056507D01*
X0129266Y0056507D01*
X0129266Y0054129D01*
X0130909Y0054129D01*
X0131240Y0054217D01*
X0131536Y0054389D01*
X0131778Y0054631D01*
X0131907Y0054853D01*
X0131907Y0054034D01*
X0132375Y0053566D01*
X0132981Y0053566D01*
X0132981Y0050774D01*
X0132895Y0050824D01*
X0132564Y0050913D01*
X0131315Y0050913D01*
X0131315Y0048141D01*
X0133693Y0048141D01*
X0133693Y0048443D01*
X0133955Y0048181D01*
X0133955Y0045738D01*
X0133983Y0045711D01*
X0133915Y0045642D01*
X0133915Y0041481D01*
X0133880Y0041447D01*
X0133880Y0037241D01*
X0133889Y0037231D01*
X0133835Y0037177D01*
X0133835Y0032971D01*
X0134303Y0032502D01*
X0137722Y0032502D01*
X0138191Y0032971D01*
X0138191Y0033774D01*
X0140850Y0033774D01*
X0140850Y0032969D01*
X0141318Y0032501D01*
X0144737Y0032501D01*
X0145206Y0032969D01*
X0145206Y0037175D01*
X0145190Y0037191D01*
X0145202Y0037203D01*
X0145202Y0041409D01*
X0145160Y0041451D01*
X0145160Y0045642D01*
X0145111Y0045691D01*
X0145120Y0045700D01*
X0145120Y0049906D01*
X0144651Y0050375D01*
X0141232Y0050375D01*
X0140764Y0049906D01*
X0140764Y0049103D01*
X0138311Y0049103D01*
X0138311Y0049944D01*
X0137842Y0050413D01*
X0135581Y0050413D01*
X0135581Y0053566D01*
X0136188Y0053566D01*
X0136656Y0054034D01*
X0136656Y0054641D01*
X0147631Y0054641D01*
X0150224Y0057233D01*
X0151057Y0057233D01*
X0152164Y0058340D01*
X0152164Y0059905D01*
X0151057Y0061011D01*
X0149492Y0061011D01*
X0148386Y0059905D01*
X0148386Y0059072D01*
X0146554Y0057241D01*
X0136656Y0057241D01*
X0136656Y0057847D01*
X0136188Y0058315D01*
X0132375Y0058315D01*
X0132038Y0057978D01*
X0132038Y0058356D01*
X0131950Y0058687D01*
X0131778Y0058983D01*
X0131536Y0059225D01*
X0131240Y0059396D01*
X0130909Y0059485D01*
X0129266Y0059485D01*
X0129266Y0057107D01*
X0128667Y0057107D01*
X0128667Y0059485D01*
X0127024Y0059485D01*
X0126693Y0059396D01*
X0126397Y0059225D01*
X0126155Y0058983D01*
X0125983Y0058687D01*
X0125895Y0058356D01*
X0125895Y0057107D01*
X0125895Y0057909D02*
X0123034Y0057909D01*
X0122688Y0058508D02*
X0125936Y0058508D01*
X0126278Y0059106D02*
X0122909Y0059106D01*
X0123034Y0059231D02*
X0123034Y0061311D01*
X0122566Y0061780D01*
X0119147Y0061780D01*
X0118678Y0061311D01*
X0118678Y0059231D01*
X0119147Y0058763D01*
X0122566Y0058763D01*
X0123034Y0059231D01*
X0123034Y0059705D02*
X0132142Y0059705D01*
X0132375Y0059471D02*
X0136188Y0059471D01*
X0136656Y0059940D01*
X0136656Y0063752D01*
X0136188Y0064221D01*
X0135381Y0064221D01*
X0135381Y0067060D01*
X0139263Y0070941D01*
X0140379Y0070941D01*
X0141485Y0072048D01*
X0141485Y0073613D01*
X0140379Y0074719D01*
X0138814Y0074719D01*
X0137707Y0073613D01*
X0137707Y0072497D01*
X0133181Y0067971D01*
X0133181Y0064221D01*
X0132375Y0064221D01*
X0131907Y0063752D01*
X0131907Y0062946D01*
X0131538Y0062946D01*
X0131538Y0063634D01*
X0131070Y0064103D01*
X0126864Y0064103D01*
X0126395Y0063634D01*
X0126395Y0060216D01*
X0126864Y0059747D01*
X0131070Y0059747D01*
X0131538Y0060216D01*
X0131538Y0060746D01*
X0131907Y0060746D01*
X0131907Y0059940D01*
X0132375Y0059471D01*
X0131655Y0059106D02*
X0148386Y0059106D01*
X0148386Y0059705D02*
X0136421Y0059705D01*
X0136656Y0060303D02*
X0148784Y0060303D01*
X0149383Y0060902D02*
X0136656Y0060902D01*
X0136656Y0061500D02*
X0195650Y0061500D01*
X0195651Y0060902D02*
X0151166Y0060902D01*
X0151765Y0060303D02*
X0195652Y0060303D01*
X0195652Y0059705D02*
X0152164Y0059705D01*
X0152164Y0059106D02*
X0195653Y0059106D01*
X0195654Y0058508D02*
X0152164Y0058508D01*
X0151733Y0057909D02*
X0195654Y0057909D01*
X0195655Y0057311D02*
X0151135Y0057311D01*
X0149703Y0056712D02*
X0195655Y0056712D01*
X0195656Y0056114D02*
X0149105Y0056114D01*
X0148506Y0055515D02*
X0195657Y0055515D01*
X0195657Y0054917D02*
X0147908Y0054917D01*
X0146625Y0057311D02*
X0136656Y0057311D01*
X0136594Y0057909D02*
X0147223Y0057909D01*
X0147822Y0058508D02*
X0131997Y0058508D01*
X0131907Y0060303D02*
X0131538Y0060303D01*
X0129266Y0059106D02*
X0128667Y0059106D01*
X0128667Y0058508D02*
X0129266Y0058508D01*
X0129266Y0057909D02*
X0128667Y0057909D01*
X0128667Y0057311D02*
X0129266Y0057311D01*
X0129266Y0056114D02*
X0128667Y0056114D01*
X0128667Y0055515D02*
X0129266Y0055515D01*
X0129266Y0054917D02*
X0128667Y0054917D01*
X0128667Y0054318D02*
X0129266Y0054318D01*
X0131415Y0054318D02*
X0131907Y0054318D01*
X0132221Y0053720D02*
X0126024Y0053720D01*
X0126518Y0054318D02*
X0125425Y0054318D01*
X0125989Y0054917D02*
X0124827Y0054917D01*
X0124228Y0055515D02*
X0125895Y0055515D01*
X0125895Y0056114D02*
X0123630Y0056114D01*
X0120856Y0053972D02*
X0114596Y0053972D01*
X0114203Y0054366D01*
X0114203Y0048460D01*
X0114990Y0047673D01*
X0120856Y0047673D01*
X0120856Y0044523D01*
X0120911Y0044469D02*
X0123534Y0044469D01*
X0123534Y0043644D01*
X0123446Y0043313D01*
X0123274Y0043016D01*
X0123032Y0042774D01*
X0122736Y0042603D01*
X0122405Y0042515D01*
X0120911Y0042515D01*
X0120911Y0044469D01*
X0120911Y0044742D02*
X0120802Y0044742D01*
X0120802Y0044144D02*
X0120911Y0044144D01*
X0120911Y0043545D02*
X0120802Y0043545D01*
X0120802Y0042947D02*
X0120911Y0042947D01*
X0119648Y0042348D02*
X0124799Y0042348D01*
X0124799Y0041750D02*
X0119648Y0041750D01*
X0119648Y0041151D02*
X0124799Y0041151D01*
X0124799Y0040553D02*
X0119648Y0040553D01*
X0119505Y0039954D02*
X0124799Y0039954D01*
X0124799Y0039356D02*
X0116440Y0039356D01*
X0115044Y0039356D02*
X0114936Y0039356D01*
X0114936Y0039954D02*
X0115044Y0039954D01*
X0115044Y0040553D02*
X0114936Y0040553D01*
X0114936Y0041151D02*
X0115044Y0041151D01*
X0115044Y0041750D02*
X0114936Y0041750D01*
X0114990Y0041807D02*
X0114203Y0042594D01*
X0114203Y0045712D01*
X0109237Y0045712D01*
X0107082Y0043558D01*
X0107082Y0043348D01*
X0105541Y0041807D01*
X0102392Y0041807D01*
X0099242Y0041807D01*
X0097701Y0043348D01*
X0097701Y0043558D01*
X0095356Y0045903D01*
X0092943Y0045903D01*
X0092943Y0046098D01*
X0090581Y0048460D01*
X0090581Y0054366D01*
X0096486Y0054366D01*
X0102392Y0054366D01*
X0102682Y0054318D02*
X0106316Y0054318D01*
X0106316Y0053720D02*
X0104793Y0053720D01*
X0104777Y0053642D02*
X0104864Y0054075D01*
X0102682Y0054075D01*
X0102682Y0051894D01*
X0103115Y0051980D01*
X0103567Y0052167D01*
X0103973Y0052439D01*
X0104319Y0052784D01*
X0104590Y0053191D01*
X0104777Y0053642D01*
X0104544Y0053121D02*
X0106740Y0053121D01*
X0106316Y0053545D02*
X0107477Y0052385D01*
X0109118Y0052385D01*
X0110278Y0053545D01*
X0110278Y0055186D01*
X0109118Y0056347D01*
X0107477Y0056347D01*
X0106316Y0055186D01*
X0106316Y0053545D01*
X0106316Y0054917D02*
X0104812Y0054917D01*
X0104777Y0055090D02*
X0104590Y0055541D01*
X0104319Y0055947D01*
X0103973Y0056293D01*
X0103567Y0056565D01*
X0103115Y0056752D01*
X0102682Y0056838D01*
X0102682Y0054656D01*
X0104864Y0054656D01*
X0104777Y0055090D01*
X0104601Y0055515D02*
X0106645Y0055515D01*
X0107244Y0056114D02*
X0104153Y0056114D01*
X0103210Y0056712D02*
X0110301Y0056712D01*
X0110899Y0056114D02*
X0109351Y0056114D01*
X0109949Y0055515D02*
X0111993Y0055515D01*
X0111783Y0054917D02*
X0110278Y0054917D01*
X0110278Y0054318D02*
X0113912Y0054318D01*
X0113912Y0054075D02*
X0111731Y0054075D01*
X0111817Y0053642D01*
X0112004Y0053191D01*
X0112276Y0052784D01*
X0112621Y0052439D01*
X0113028Y0052167D01*
X0113479Y0051980D01*
X0113912Y0051894D01*
X0113912Y0054075D01*
X0113912Y0053720D02*
X0114493Y0053720D01*
X0114493Y0054318D02*
X0118178Y0054318D01*
X0118178Y0053720D02*
X0116604Y0053720D01*
X0116355Y0053121D02*
X0118178Y0053121D01*
X0118405Y0052523D02*
X0115868Y0052523D01*
X0114646Y0051924D02*
X0118740Y0051924D01*
X0118678Y0051326D02*
X0086105Y0051326D01*
X0086105Y0050727D02*
X0089570Y0050727D01*
X0089405Y0050659D02*
X0088999Y0050388D01*
X0088654Y0050042D01*
X0088382Y0049636D01*
X0088195Y0049184D01*
X0088109Y0048751D01*
X0090290Y0048751D01*
X0090290Y0048170D01*
X0088109Y0048170D01*
X0088195Y0047737D01*
X0088382Y0047285D01*
X0088654Y0046879D01*
X0088999Y0046533D01*
X0089405Y0046262D01*
X0089857Y0046075D01*
X0090290Y0045988D01*
X0090290Y0048170D01*
X0090871Y0048170D01*
X0090871Y0045988D01*
X0091304Y0046075D01*
X0091756Y0046262D01*
X0092162Y0046533D01*
X0092508Y0046879D01*
X0092779Y0047285D01*
X0092966Y0047737D01*
X0093053Y0048170D01*
X0090871Y0048170D01*
X0090871Y0048751D01*
X0090290Y0048751D01*
X0090290Y0050932D01*
X0089857Y0050846D01*
X0089405Y0050659D01*
X0088740Y0050129D02*
X0086105Y0050129D01*
X0085853Y0049530D02*
X0088338Y0049530D01*
X0088145Y0048932D02*
X0085886Y0048932D01*
X0086105Y0048713D02*
X0085636Y0049182D01*
X0082218Y0049182D01*
X0081749Y0048713D01*
X0081749Y0046633D01*
X0082218Y0046164D01*
X0085636Y0046164D01*
X0086105Y0046633D01*
X0086105Y0048713D01*
X0086105Y0048333D02*
X0090290Y0048333D01*
X0090581Y0048460D02*
X0086644Y0044523D01*
X0086644Y0041807D01*
X0086589Y0041861D02*
X0084635Y0041861D01*
X0084635Y0043015D01*
X0082218Y0043015D01*
X0081749Y0043483D01*
X0081749Y0045563D01*
X0082218Y0046032D01*
X0085636Y0046032D01*
X0086105Y0045563D01*
X0086105Y0044485D01*
X0086589Y0044485D01*
X0086589Y0041861D01*
X0086589Y0041752D02*
X0084635Y0041752D01*
X0084635Y0040258D01*
X0084724Y0039927D01*
X0084895Y0039631D01*
X0085137Y0039389D01*
X0085433Y0039217D01*
X0085764Y0039129D01*
X0086589Y0039129D01*
X0086589Y0041752D01*
X0086589Y0041750D02*
X0086698Y0041750D01*
X0086698Y0042348D02*
X0086589Y0042348D01*
X0086589Y0042947D02*
X0086698Y0042947D01*
X0086698Y0043545D02*
X0086589Y0043545D01*
X0086589Y0044144D02*
X0086698Y0044144D01*
X0086105Y0044742D02*
X0118178Y0044742D01*
X0118178Y0044144D02*
X0116578Y0044144D01*
X0115044Y0044144D02*
X0114936Y0044144D01*
X0114936Y0043545D02*
X0115044Y0043545D01*
X0115044Y0042947D02*
X0114936Y0042947D01*
X0114936Y0042348D02*
X0115044Y0042348D01*
X0114990Y0041807D02*
X0111841Y0041807D01*
X0111786Y0042348D02*
X0111895Y0042348D01*
X0111895Y0042947D02*
X0111786Y0042947D01*
X0111786Y0043545D02*
X0111895Y0043545D01*
X0111895Y0044144D02*
X0111786Y0044144D01*
X0110252Y0044144D02*
X0107130Y0044144D01*
X0105596Y0044144D02*
X0105487Y0044144D01*
X0105487Y0043545D02*
X0105596Y0043545D01*
X0105596Y0042947D02*
X0105487Y0042947D01*
X0105487Y0042348D02*
X0105596Y0042348D01*
X0105596Y0041750D02*
X0105487Y0041750D01*
X0105487Y0041151D02*
X0105596Y0041151D01*
X0105596Y0040553D02*
X0105487Y0040553D01*
X0105487Y0039954D02*
X0105596Y0039954D01*
X0105596Y0039356D02*
X0105487Y0039356D01*
X0104092Y0039356D02*
X0103841Y0039356D01*
X0106991Y0039356D02*
X0108415Y0039356D01*
X0111141Y0037279D02*
X0111183Y0037237D01*
X0108415Y0035166D02*
X0102641Y0035166D01*
X0102425Y0034567D02*
X0108587Y0034567D01*
X0108744Y0033370D02*
X0102984Y0033370D01*
X0103052Y0033253D02*
X0102881Y0033550D01*
X0102639Y0033792D01*
X0102342Y0033963D01*
X0102012Y0034052D01*
X0100172Y0034052D01*
X0100172Y0030886D01*
X0103141Y0030886D01*
X0103141Y0032923D01*
X0103052Y0033253D01*
X0103141Y0032772D02*
X0105772Y0032772D01*
X0105173Y0032173D02*
X0103141Y0032173D01*
X0103141Y0031575D02*
X0105021Y0031575D01*
X0105021Y0030976D02*
X0103141Y0030976D01*
X0103141Y0030286D02*
X0103141Y0028250D01*
X0103052Y0027919D01*
X0102881Y0027623D01*
X0102639Y0027381D01*
X0102342Y0027210D01*
X0102012Y0027121D01*
X0100172Y0027121D01*
X0100172Y0030286D01*
X0099572Y0030286D01*
X0099572Y0027121D01*
X0097732Y0027121D01*
X0097402Y0027210D01*
X0097105Y0027381D01*
X0096863Y0027623D01*
X0096692Y0027919D01*
X0096604Y0028250D01*
X0096604Y0030286D01*
X0099572Y0030286D01*
X0099572Y0030886D01*
X0096604Y0030886D01*
X0096604Y0032923D01*
X0096692Y0033253D01*
X0096863Y0033550D01*
X0097105Y0033792D01*
X0097402Y0033963D01*
X0097732Y0034052D01*
X0099572Y0034052D01*
X0099572Y0030886D01*
X0100172Y0030886D01*
X0100172Y0030286D01*
X0103141Y0030286D01*
X0103141Y0029779D02*
X0105697Y0029779D01*
X0105099Y0030378D02*
X0100172Y0030378D01*
X0099872Y0030586D02*
X0093947Y0030586D01*
X0093801Y0030441D01*
X0091617Y0030378D02*
X0099572Y0030378D01*
X0099572Y0030976D02*
X0100172Y0030976D01*
X0100172Y0031575D02*
X0099572Y0031575D01*
X0099572Y0032173D02*
X0100172Y0032173D01*
X0100172Y0032772D02*
X0099572Y0032772D01*
X0099572Y0033370D02*
X0100172Y0033370D01*
X0100172Y0033969D02*
X0099572Y0033969D01*
X0097424Y0033969D02*
X0095593Y0033969D01*
X0095284Y0033370D02*
X0096760Y0033370D01*
X0096604Y0032772D02*
X0059328Y0032772D01*
X0059340Y0033370D02*
X0083279Y0033370D01*
X0082970Y0033969D02*
X0059352Y0033969D01*
X0059365Y0034567D02*
X0082970Y0034567D01*
X0082970Y0035166D02*
X0059377Y0035166D01*
X0059384Y0035764D02*
X0082970Y0035764D01*
X0082970Y0036363D02*
X0079802Y0036363D01*
X0079263Y0035824D02*
X0080370Y0036930D01*
X0080370Y0038495D01*
X0079480Y0039385D01*
X0079652Y0039384D01*
X0080447Y0038590D01*
X0082012Y0038590D01*
X0083118Y0039696D01*
X0083118Y0041261D01*
X0082012Y0042368D01*
X0080447Y0042368D01*
X0079663Y0041584D01*
X0078599Y0041588D01*
X0071678Y0041647D01*
X0070876Y0042449D01*
X0069311Y0042449D01*
X0068205Y0041342D01*
X0068205Y0039778D01*
X0069311Y0038671D01*
X0070876Y0038671D01*
X0071652Y0039447D01*
X0077493Y0039397D01*
X0076592Y0038495D01*
X0076592Y0036930D01*
X0077698Y0035824D01*
X0079263Y0035824D01*
X0080370Y0036961D02*
X0082970Y0036961D01*
X0082970Y0037560D02*
X0080370Y0037560D01*
X0080370Y0038159D02*
X0082970Y0038159D01*
X0082179Y0038757D02*
X0086874Y0038757D01*
X0086698Y0039356D02*
X0086589Y0039356D01*
X0086589Y0039954D02*
X0086698Y0039954D01*
X0086698Y0040553D02*
X0086589Y0040553D01*
X0086589Y0041151D02*
X0086698Y0041151D01*
X0084635Y0041151D02*
X0083118Y0041151D01*
X0083118Y0040553D02*
X0084635Y0040553D01*
X0084716Y0039954D02*
X0083118Y0039954D01*
X0082777Y0039356D02*
X0085194Y0039356D01*
X0084635Y0041750D02*
X0082630Y0041750D01*
X0082031Y0042348D02*
X0084635Y0042348D01*
X0084635Y0042947D02*
X0059384Y0042947D01*
X0059384Y0043545D02*
X0081749Y0043545D01*
X0081749Y0044144D02*
X0059384Y0044144D01*
X0059384Y0044742D02*
X0081749Y0044742D01*
X0081749Y0045341D02*
X0059384Y0045341D01*
X0059384Y0045939D02*
X0082125Y0045939D01*
X0081844Y0046538D02*
X0072448Y0046538D01*
X0072433Y0046523D02*
X0073539Y0047629D01*
X0073539Y0049194D01*
X0072433Y0050301D01*
X0070868Y0050301D01*
X0069762Y0049194D01*
X0069762Y0047629D01*
X0070868Y0046523D01*
X0072433Y0046523D01*
X0073046Y0047136D02*
X0081749Y0047136D01*
X0081749Y0047735D02*
X0073539Y0047735D01*
X0073539Y0048333D02*
X0081749Y0048333D01*
X0081968Y0048932D02*
X0073539Y0048932D01*
X0073203Y0049530D02*
X0082002Y0049530D01*
X0081749Y0050129D02*
X0072605Y0050129D01*
X0070696Y0050129D02*
X0069724Y0050129D01*
X0069911Y0050727D02*
X0081749Y0050727D01*
X0081749Y0051326D02*
X0069911Y0051326D01*
X0070149Y0051924D02*
X0073304Y0051924D01*
X0072705Y0052523D02*
X0070651Y0052523D01*
X0071152Y0053121D02*
X0072393Y0053121D01*
X0072393Y0053720D02*
X0071654Y0053720D01*
X0072155Y0054318D02*
X0072393Y0054318D01*
X0072657Y0054917D02*
X0072909Y0054917D01*
X0073015Y0055515D02*
X0073168Y0055515D01*
X0073164Y0056114D02*
X0072993Y0056114D01*
X0072993Y0056712D02*
X0073160Y0056712D01*
X0073156Y0057311D02*
X0072993Y0057311D01*
X0072993Y0057909D02*
X0073152Y0057909D01*
X0073148Y0058508D02*
X0072993Y0058508D01*
X0072993Y0059106D02*
X0073144Y0059106D01*
X0073140Y0059705D02*
X0072993Y0059705D01*
X0072993Y0060303D02*
X0073136Y0060303D01*
X0073131Y0060902D02*
X0072993Y0060902D01*
X0072993Y0061500D02*
X0073127Y0061500D01*
X0070793Y0061500D02*
X0059384Y0061500D01*
X0059384Y0060902D02*
X0070793Y0060902D01*
X0070793Y0060303D02*
X0059384Y0060303D01*
X0059384Y0059705D02*
X0070793Y0059705D01*
X0070793Y0059106D02*
X0059384Y0059106D01*
X0059384Y0058508D02*
X0070793Y0058508D01*
X0070793Y0057909D02*
X0059384Y0057909D01*
X0059384Y0057311D02*
X0070793Y0057311D01*
X0070793Y0056712D02*
X0059384Y0056712D01*
X0059384Y0056114D02*
X0070790Y0056114D01*
X0070288Y0055515D02*
X0059384Y0055515D01*
X0059384Y0054917D02*
X0069787Y0054917D01*
X0069285Y0054318D02*
X0059384Y0054318D01*
X0059384Y0053720D02*
X0068784Y0053720D01*
X0068282Y0053121D02*
X0059384Y0053121D01*
X0059384Y0052523D02*
X0066775Y0052523D01*
X0066176Y0051924D02*
X0059384Y0051924D01*
X0059384Y0051326D02*
X0066133Y0051326D01*
X0066133Y0050727D02*
X0059384Y0050727D01*
X0059384Y0050129D02*
X0066320Y0050129D01*
X0066918Y0049530D02*
X0059384Y0049530D01*
X0059384Y0048932D02*
X0069762Y0048932D01*
X0069762Y0048333D02*
X0059384Y0048333D01*
X0059384Y0047735D02*
X0069762Y0047735D01*
X0070255Y0047136D02*
X0059384Y0047136D01*
X0059384Y0046538D02*
X0070853Y0046538D01*
X0070098Y0049530D02*
X0069125Y0049530D01*
X0068022Y0051098D02*
X0071893Y0055717D01*
X0071893Y0083958D01*
X0084184Y0096250D01*
X0087686Y0096250D01*
X0088213Y0095723D01*
X0088213Y0086985D01*
X0088207Y0086368D01*
X0098252Y0086368D01*
X0103297Y0091413D01*
X0105659Y0089051D01*
X0105541Y0078736D01*
X0104033Y0078857D02*
X0103900Y0078857D01*
X0103900Y0078259D02*
X0104033Y0078259D01*
X0104033Y0077660D02*
X0103900Y0077660D01*
X0103900Y0077062D02*
X0104033Y0077062D01*
X0103900Y0077027D02*
X0103900Y0080445D01*
X0103432Y0080914D01*
X0101352Y0080914D01*
X0100883Y0080445D01*
X0100883Y0077027D01*
X0101352Y0076558D01*
X0103432Y0076558D01*
X0103900Y0077027D01*
X0103900Y0079456D02*
X0104033Y0079456D01*
X0104033Y0080054D02*
X0103900Y0080054D01*
X0103693Y0080653D02*
X0104240Y0080653D01*
X0104470Y0081251D02*
X0090893Y0081251D01*
X0090893Y0081850D02*
X0095269Y0081850D01*
X0095792Y0081327D02*
X0094686Y0082433D01*
X0094686Y0083998D01*
X0095792Y0085105D01*
X0097357Y0085105D01*
X0098464Y0083998D01*
X0098464Y0082433D01*
X0097357Y0081327D01*
X0095792Y0081327D01*
X0095052Y0080914D02*
X0097133Y0080914D01*
X0097601Y0080445D01*
X0097601Y0077027D01*
X0097133Y0076558D01*
X0095052Y0076558D01*
X0094584Y0077027D01*
X0094584Y0080445D01*
X0095052Y0080914D01*
X0094791Y0080653D02*
X0094244Y0080653D01*
X0094452Y0080445D02*
X0093983Y0080914D01*
X0091903Y0080914D01*
X0091434Y0080445D01*
X0091434Y0077027D01*
X0091903Y0076558D01*
X0093983Y0076558D01*
X0094452Y0077027D01*
X0094452Y0080445D01*
X0094452Y0080054D02*
X0094584Y0080054D01*
X0094584Y0079456D02*
X0094452Y0079456D01*
X0094452Y0078857D02*
X0094584Y0078857D01*
X0094584Y0078259D02*
X0094452Y0078259D01*
X0094452Y0077660D02*
X0094584Y0077660D01*
X0094584Y0077062D02*
X0094452Y0077062D01*
X0091434Y0077062D02*
X0091302Y0077062D01*
X0091302Y0077660D02*
X0091434Y0077660D01*
X0091434Y0078259D02*
X0091302Y0078259D01*
X0091302Y0078857D02*
X0091434Y0078857D01*
X0091434Y0079456D02*
X0091302Y0079456D01*
X0091302Y0080054D02*
X0091434Y0080054D01*
X0091642Y0080653D02*
X0091094Y0080653D01*
X0091197Y0082448D02*
X0094686Y0082448D01*
X0094686Y0083047D02*
X0091682Y0083047D01*
X0091682Y0083645D02*
X0094686Y0083645D01*
X0094931Y0084244D02*
X0091682Y0084244D01*
X0091339Y0084842D02*
X0095530Y0084842D01*
X0097620Y0084842D02*
X0104511Y0084842D01*
X0104504Y0084244D02*
X0098218Y0084244D01*
X0098464Y0083645D02*
X0104497Y0083645D01*
X0104491Y0083047D02*
X0098464Y0083047D01*
X0098464Y0082448D02*
X0104484Y0082448D01*
X0104477Y0081850D02*
X0097880Y0081850D01*
X0098202Y0080914D02*
X0097733Y0080445D01*
X0097733Y0077027D01*
X0098202Y0076558D01*
X0100282Y0076558D01*
X0100751Y0077027D01*
X0100751Y0080445D01*
X0100282Y0080914D01*
X0098202Y0080914D01*
X0097941Y0080653D02*
X0097394Y0080653D01*
X0097601Y0080054D02*
X0097733Y0080054D01*
X0097733Y0079456D02*
X0097601Y0079456D01*
X0097601Y0078857D02*
X0097733Y0078857D01*
X0097733Y0078259D02*
X0097601Y0078259D01*
X0097601Y0077660D02*
X0097733Y0077660D01*
X0097733Y0077062D02*
X0097601Y0077062D01*
X0097307Y0074063D02*
X0095666Y0074063D01*
X0094505Y0072903D01*
X0094505Y0071262D01*
X0095666Y0070101D01*
X0097307Y0070101D01*
X0098467Y0071262D01*
X0098467Y0072903D01*
X0097307Y0074063D01*
X0097900Y0073471D02*
X0100978Y0073471D01*
X0100411Y0072903D02*
X0100411Y0071262D01*
X0101571Y0070101D01*
X0103212Y0070101D01*
X0104373Y0071262D01*
X0104373Y0072903D01*
X0103212Y0074063D01*
X0101571Y0074063D01*
X0100411Y0072903D01*
X0100411Y0072872D02*
X0098467Y0072872D01*
X0098467Y0072274D02*
X0100411Y0072274D01*
X0100411Y0071675D02*
X0098467Y0071675D01*
X0098282Y0071077D02*
X0100596Y0071077D01*
X0101194Y0070478D02*
X0097684Y0070478D01*
X0097307Y0068158D02*
X0095666Y0068158D01*
X0094505Y0066997D01*
X0094505Y0065356D01*
X0095666Y0064196D01*
X0097307Y0064196D01*
X0098467Y0065356D01*
X0098467Y0066997D01*
X0097307Y0068158D01*
X0097381Y0068084D02*
X0101497Y0068084D01*
X0101571Y0068158D02*
X0100411Y0066997D01*
X0100411Y0065356D01*
X0101571Y0064196D01*
X0103212Y0064196D01*
X0104373Y0065356D01*
X0104373Y0066997D01*
X0103212Y0068158D01*
X0101571Y0068158D01*
X0100899Y0067486D02*
X0097979Y0067486D01*
X0098467Y0066887D02*
X0100411Y0066887D01*
X0100411Y0066289D02*
X0098467Y0066289D01*
X0098467Y0065690D02*
X0100411Y0065690D01*
X0100675Y0065092D02*
X0098203Y0065092D01*
X0097604Y0064493D02*
X0101274Y0064493D01*
X0101418Y0062099D02*
X0097460Y0062099D01*
X0098059Y0061500D02*
X0100819Y0061500D01*
X0100411Y0060902D02*
X0098467Y0060902D01*
X0098467Y0060303D02*
X0100411Y0060303D01*
X0100411Y0059705D02*
X0098467Y0059705D01*
X0098123Y0059106D02*
X0100755Y0059106D01*
X0101353Y0058508D02*
X0097524Y0058508D01*
X0097305Y0056712D02*
X0101573Y0056712D01*
X0101668Y0056752D02*
X0101216Y0056565D01*
X0100810Y0056293D01*
X0100465Y0055947D01*
X0100193Y0055541D01*
X0100006Y0055090D01*
X0099920Y0054656D01*
X0102101Y0054656D01*
X0102101Y0054075D01*
X0102682Y0054075D01*
X0102682Y0054656D01*
X0102101Y0054656D01*
X0102101Y0056838D01*
X0101668Y0056752D01*
X0102101Y0056712D02*
X0102682Y0056712D01*
X0102682Y0056114D02*
X0102101Y0056114D01*
X0102101Y0055515D02*
X0102682Y0055515D01*
X0102682Y0054917D02*
X0102101Y0054917D01*
X0102101Y0054318D02*
X0096777Y0054318D01*
X0096196Y0054318D02*
X0090871Y0054318D01*
X0090290Y0054318D02*
X0086105Y0054318D01*
X0086105Y0053720D02*
X0088180Y0053720D01*
X0088195Y0053642D02*
X0088382Y0053191D01*
X0088654Y0052784D01*
X0088999Y0052439D01*
X0089405Y0052167D01*
X0089857Y0051980D01*
X0090290Y0051894D01*
X0090290Y0054075D01*
X0088109Y0054075D01*
X0088195Y0053642D01*
X0088428Y0053121D02*
X0086105Y0053121D01*
X0085696Y0052523D02*
X0088915Y0052523D01*
X0090138Y0051924D02*
X0086043Y0051924D01*
X0086105Y0054917D02*
X0088161Y0054917D01*
X0090290Y0054917D02*
X0090871Y0054917D01*
X0090871Y0055515D02*
X0090290Y0055515D01*
X0090290Y0056114D02*
X0090871Y0056114D01*
X0092342Y0056114D02*
X0094725Y0056114D01*
X0094277Y0055515D02*
X0092790Y0055515D01*
X0093001Y0054917D02*
X0094066Y0054917D01*
X0094014Y0054075D02*
X0094100Y0053642D01*
X0094287Y0053191D01*
X0094559Y0052784D01*
X0094905Y0052439D01*
X0095311Y0052167D01*
X0095762Y0051980D01*
X0096196Y0051894D01*
X0096196Y0054075D01*
X0094014Y0054075D01*
X0094085Y0053720D02*
X0092982Y0053720D01*
X0092733Y0053121D02*
X0094334Y0053121D01*
X0094820Y0052523D02*
X0092246Y0052523D01*
X0091024Y0051924D02*
X0096043Y0051924D01*
X0096196Y0051924D02*
X0096777Y0051924D01*
X0096929Y0051924D02*
X0101949Y0051924D01*
X0102101Y0051924D02*
X0102682Y0051924D01*
X0102835Y0051924D02*
X0113760Y0051924D01*
X0113912Y0051924D02*
X0114493Y0051924D01*
X0114493Y0052523D02*
X0113912Y0052523D01*
X0113912Y0053121D02*
X0114493Y0053121D01*
X0112537Y0052523D02*
X0109256Y0052523D01*
X0109854Y0053121D02*
X0112050Y0053121D01*
X0111802Y0053720D02*
X0110278Y0053720D01*
X0109118Y0050441D02*
X0107477Y0050441D01*
X0106316Y0049281D01*
X0106316Y0047640D01*
X0107477Y0046479D01*
X0109118Y0046479D01*
X0110278Y0047640D01*
X0110278Y0049281D01*
X0109118Y0050441D01*
X0109431Y0050129D02*
X0112362Y0050129D01*
X0112276Y0050042D02*
X0112004Y0049636D01*
X0111817Y0049184D01*
X0111731Y0048751D01*
X0113912Y0048751D01*
X0113912Y0048170D01*
X0111731Y0048170D01*
X0111817Y0047737D01*
X0112004Y0047285D01*
X0112276Y0046879D01*
X0112621Y0046533D01*
X0113028Y0046262D01*
X0113479Y0046075D01*
X0113912Y0045988D01*
X0113912Y0048170D01*
X0114493Y0048170D01*
X0114493Y0045988D01*
X0114926Y0046075D01*
X0115378Y0046262D01*
X0115784Y0046533D01*
X0116130Y0046879D01*
X0116401Y0047285D01*
X0116588Y0047737D01*
X0116675Y0048170D01*
X0114493Y0048170D01*
X0114493Y0048751D01*
X0113912Y0048751D01*
X0113912Y0050932D01*
X0113479Y0050846D01*
X0113028Y0050659D01*
X0112621Y0050388D01*
X0112276Y0050042D01*
X0111960Y0049530D02*
X0110029Y0049530D01*
X0110278Y0048932D02*
X0111767Y0048932D01*
X0111818Y0047735D02*
X0110278Y0047735D01*
X0110278Y0048333D02*
X0113912Y0048333D01*
X0114203Y0048460D02*
X0114203Y0045712D01*
X0113912Y0046538D02*
X0114493Y0046538D01*
X0114493Y0047136D02*
X0113912Y0047136D01*
X0113912Y0047735D02*
X0114493Y0047735D01*
X0114493Y0048333D02*
X0118178Y0048333D01*
X0118178Y0047735D02*
X0116588Y0047735D01*
X0116302Y0047136D02*
X0118178Y0047136D01*
X0118247Y0046538D02*
X0115789Y0046538D01*
X0116675Y0048751D02*
X0114493Y0048751D01*
X0114493Y0050932D01*
X0114926Y0050846D01*
X0115378Y0050659D01*
X0115784Y0050388D01*
X0116130Y0050042D01*
X0116401Y0049636D01*
X0116588Y0049184D01*
X0116675Y0048751D01*
X0116639Y0048932D02*
X0118295Y0048932D01*
X0118868Y0049530D02*
X0116445Y0049530D01*
X0116043Y0050129D02*
X0118678Y0050129D01*
X0118678Y0050727D02*
X0115213Y0050727D01*
X0114493Y0050727D02*
X0113912Y0050727D01*
X0113912Y0050129D02*
X0114493Y0050129D01*
X0114493Y0049530D02*
X0113912Y0049530D01*
X0113912Y0048932D02*
X0114493Y0048932D01*
X0113192Y0050727D02*
X0091591Y0050727D01*
X0091756Y0050659D02*
X0091304Y0050846D01*
X0090871Y0050932D01*
X0090871Y0048751D01*
X0093053Y0048751D01*
X0092966Y0049184D01*
X0092779Y0049636D01*
X0092508Y0050042D01*
X0092162Y0050388D01*
X0091756Y0050659D01*
X0092421Y0050129D02*
X0095353Y0050129D01*
X0095666Y0050441D02*
X0094505Y0049281D01*
X0094505Y0047640D01*
X0095666Y0046479D01*
X0097307Y0046479D01*
X0098467Y0047640D01*
X0098467Y0049281D01*
X0097307Y0050441D01*
X0095666Y0050441D01*
X0094754Y0049530D02*
X0092823Y0049530D01*
X0093017Y0048932D02*
X0094505Y0048932D01*
X0094505Y0048333D02*
X0090871Y0048333D01*
X0090871Y0047735D02*
X0090290Y0047735D01*
X0090290Y0047136D02*
X0090871Y0047136D01*
X0090871Y0046538D02*
X0090290Y0046538D01*
X0088995Y0046538D02*
X0086010Y0046538D01*
X0086105Y0047136D02*
X0088481Y0047136D01*
X0088196Y0047735D02*
X0086105Y0047735D01*
X0085729Y0045939D02*
X0118386Y0045939D01*
X0118178Y0045341D02*
X0086105Y0045341D01*
X0088232Y0044144D02*
X0091355Y0044144D01*
X0092889Y0044144D02*
X0092997Y0044144D01*
X0092997Y0043545D02*
X0092889Y0043545D01*
X0092889Y0042947D02*
X0092997Y0042947D01*
X0092997Y0042348D02*
X0092889Y0042348D01*
X0092943Y0041807D02*
X0092943Y0045903D01*
X0092167Y0046538D02*
X0095607Y0046538D01*
X0095009Y0047136D02*
X0092680Y0047136D01*
X0092966Y0047735D02*
X0094505Y0047735D01*
X0094531Y0044144D02*
X0097654Y0044144D01*
X0099188Y0044144D02*
X0099296Y0044144D01*
X0099296Y0043545D02*
X0099188Y0043545D01*
X0099188Y0042947D02*
X0099296Y0042947D01*
X0099296Y0042348D02*
X0099188Y0042348D01*
X0102337Y0042348D02*
X0102446Y0042348D01*
X0102446Y0042947D02*
X0102337Y0042947D01*
X0102337Y0043545D02*
X0102446Y0043545D01*
X0102446Y0044144D02*
X0102337Y0044144D01*
X0101571Y0046479D02*
X0100411Y0047640D01*
X0100411Y0049281D01*
X0101571Y0050441D01*
X0103212Y0050441D01*
X0104373Y0049281D01*
X0104373Y0047640D01*
X0103212Y0046479D01*
X0101571Y0046479D01*
X0101513Y0046538D02*
X0097365Y0046538D01*
X0097964Y0047136D02*
X0100914Y0047136D01*
X0100411Y0047735D02*
X0098467Y0047735D01*
X0098467Y0048333D02*
X0100411Y0048333D01*
X0100411Y0048932D02*
X0098467Y0048932D01*
X0098218Y0049530D02*
X0100660Y0049530D01*
X0101258Y0050129D02*
X0097620Y0050129D01*
X0098152Y0052523D02*
X0100726Y0052523D01*
X0100810Y0052439D02*
X0101216Y0052167D01*
X0101668Y0051980D01*
X0102101Y0051894D01*
X0102101Y0054075D01*
X0099920Y0054075D01*
X0100006Y0053642D01*
X0100193Y0053191D01*
X0100465Y0052784D01*
X0100810Y0052439D01*
X0100239Y0053121D02*
X0098639Y0053121D01*
X0098887Y0053720D02*
X0099991Y0053720D01*
X0099972Y0054917D02*
X0098906Y0054917D01*
X0098696Y0055515D02*
X0100182Y0055515D01*
X0100631Y0056114D02*
X0098247Y0056114D01*
X0096777Y0056114D02*
X0096196Y0056114D01*
X0096196Y0056712D02*
X0096777Y0056712D01*
X0096777Y0055515D02*
X0096196Y0055515D01*
X0096196Y0054917D02*
X0096777Y0054917D01*
X0096777Y0053720D02*
X0096196Y0053720D01*
X0096196Y0053121D02*
X0096777Y0053121D01*
X0096777Y0052523D02*
X0096196Y0052523D01*
X0090871Y0052523D02*
X0090290Y0052523D01*
X0090290Y0053121D02*
X0090871Y0053121D01*
X0090871Y0053720D02*
X0090290Y0053720D01*
X0090290Y0051924D02*
X0090871Y0051924D01*
X0090871Y0050727D02*
X0090290Y0050727D01*
X0090290Y0050129D02*
X0090871Y0050129D01*
X0090871Y0049530D02*
X0090290Y0049530D01*
X0090290Y0048932D02*
X0090871Y0048932D01*
X0092889Y0041752D02*
X0092997Y0041752D01*
X0092997Y0039129D01*
X0093823Y0039129D01*
X0094153Y0039217D01*
X0094450Y0039389D01*
X0094692Y0039631D01*
X0094823Y0039858D01*
X0095052Y0039629D01*
X0097104Y0039629D01*
X0097104Y0037780D01*
X0095593Y0037780D01*
X0095593Y0038280D01*
X0095125Y0038749D01*
X0090542Y0038749D01*
X0091093Y0039300D01*
X0091093Y0039805D01*
X0091194Y0039631D01*
X0091436Y0039389D01*
X0091732Y0039217D01*
X0092063Y0039129D01*
X0092889Y0039129D01*
X0092889Y0041752D01*
X0092889Y0041750D02*
X0092997Y0041750D01*
X0092997Y0041151D02*
X0092889Y0041151D01*
X0092889Y0040553D02*
X0092997Y0040553D01*
X0092997Y0039954D02*
X0092889Y0039954D01*
X0092889Y0039356D02*
X0092997Y0039356D01*
X0094393Y0039356D02*
X0097104Y0039356D01*
X0097104Y0038757D02*
X0090550Y0038757D01*
X0091093Y0039356D02*
X0091493Y0039356D01*
X0089663Y0037560D02*
X0089353Y0037560D01*
X0089663Y0036961D02*
X0088900Y0036961D01*
X0088900Y0036363D02*
X0089663Y0036363D01*
X0089663Y0035764D02*
X0088900Y0035764D01*
X0088900Y0035166D02*
X0089663Y0035166D01*
X0089663Y0034567D02*
X0088900Y0034567D01*
X0088900Y0033969D02*
X0089663Y0033969D01*
X0089972Y0033370D02*
X0088591Y0033370D01*
X0088945Y0032339D02*
X0087839Y0031232D01*
X0087839Y0029668D01*
X0088945Y0028561D01*
X0090510Y0028561D01*
X0091617Y0029668D01*
X0091617Y0031232D01*
X0090510Y0032339D01*
X0088945Y0032339D01*
X0088780Y0032173D02*
X0059316Y0032173D01*
X0059304Y0031575D02*
X0088181Y0031575D01*
X0087839Y0030976D02*
X0059292Y0030976D01*
X0059280Y0030378D02*
X0087839Y0030378D01*
X0087839Y0029779D02*
X0059267Y0029779D01*
X0059255Y0029181D02*
X0088326Y0029181D01*
X0088924Y0028582D02*
X0059243Y0028582D01*
X0059231Y0027984D02*
X0096675Y0027984D01*
X0096604Y0028582D02*
X0090532Y0028582D01*
X0091130Y0029181D02*
X0096604Y0029181D01*
X0096604Y0029779D02*
X0091617Y0029779D01*
X0091617Y0030976D02*
X0096604Y0030976D01*
X0096604Y0031575D02*
X0091274Y0031575D01*
X0090676Y0032173D02*
X0096604Y0032173D01*
X0099572Y0029779D02*
X0100172Y0029779D01*
X0100172Y0029181D02*
X0099572Y0029181D01*
X0099572Y0028582D02*
X0100172Y0028582D01*
X0100172Y0027984D02*
X0099572Y0027984D01*
X0099572Y0027385D02*
X0100172Y0027385D01*
X0102643Y0027385D02*
X0109170Y0027385D01*
X0109170Y0026787D02*
X0080679Y0026787D01*
X0080683Y0027385D02*
X0097101Y0027385D01*
X0103069Y0027984D02*
X0108478Y0027984D01*
X0108415Y0028582D02*
X0103141Y0028582D01*
X0103141Y0029181D02*
X0108415Y0029181D01*
X0108415Y0029779D02*
X0108122Y0029779D01*
X0110270Y0029787D02*
X0111183Y0030544D01*
X0110270Y0029787D02*
X0110270Y0022264D01*
X0112932Y0021999D02*
X0113119Y0021999D01*
X0113119Y0022597D02*
X0112932Y0022597D01*
X0112932Y0023196D02*
X0113119Y0023196D01*
X0113119Y0023794D02*
X0112932Y0023794D01*
X0112932Y0024393D02*
X0113119Y0024393D01*
X0113119Y0024991D02*
X0112932Y0024991D01*
X0111464Y0024991D02*
X0111370Y0024991D01*
X0109170Y0024991D02*
X0109075Y0024991D01*
X0109170Y0025590D02*
X0080672Y0025590D01*
X0080676Y0026188D02*
X0109170Y0026188D01*
X0107607Y0024991D02*
X0107420Y0024991D01*
X0107420Y0024393D02*
X0107607Y0024393D01*
X0107607Y0023794D02*
X0107420Y0023794D01*
X0107420Y0023196D02*
X0107607Y0023196D01*
X0107607Y0022597D02*
X0107420Y0022597D01*
X0107420Y0021999D02*
X0107607Y0021999D01*
X0107607Y0021400D02*
X0107420Y0021400D01*
X0105426Y0021400D02*
X0080647Y0021400D01*
X0080644Y0020802D02*
X0105426Y0020802D01*
X0105426Y0020203D02*
X0080640Y0020203D01*
X0080637Y0019605D02*
X0105426Y0019605D01*
X0105426Y0019006D02*
X0080633Y0019006D01*
X0080630Y0018408D02*
X0105426Y0018408D01*
X0105426Y0017809D02*
X0080626Y0017809D01*
X0080623Y0017211D02*
X0105426Y0017211D01*
X0105590Y0016612D02*
X0080619Y0016612D01*
X0080616Y0016014D02*
X0094197Y0016014D01*
X0093599Y0015415D02*
X0080612Y0015415D01*
X0080609Y0014817D02*
X0093594Y0014817D01*
X0093594Y0014218D02*
X0080605Y0014218D01*
X0080601Y0013620D02*
X0093820Y0013620D01*
X0094419Y0013021D02*
X0080598Y0013021D01*
X0080594Y0012423D02*
X0132337Y0012423D01*
X0132340Y0012425D02*
X0131233Y0011318D01*
X0131233Y0009753D01*
X0132340Y0008647D01*
X0133905Y0008647D01*
X0135011Y0009753D01*
X0135011Y0011318D01*
X0133905Y0012425D01*
X0132340Y0012425D01*
X0131739Y0011824D02*
X0080591Y0011824D01*
X0080587Y0011225D02*
X0131233Y0011225D01*
X0131233Y0010627D02*
X0080584Y0010627D01*
X0080580Y0010028D02*
X0131233Y0010028D01*
X0131557Y0009430D02*
X0080577Y0009430D01*
X0080573Y0008831D02*
X0132155Y0008831D01*
X0134089Y0008831D02*
X0138388Y0008831D01*
X0139014Y0008233D02*
X0080570Y0008233D01*
X0080566Y0007634D02*
X0153524Y0007634D01*
X0153521Y0007036D02*
X0129814Y0007036D01*
X0130413Y0006437D02*
X0140003Y0006437D01*
X0139404Y0005839D02*
X0130848Y0005839D01*
X0130848Y0005240D02*
X0139398Y0005240D01*
X0139398Y0004642D02*
X0130848Y0004642D01*
X0130455Y0004043D02*
X0139622Y0004043D01*
X0142952Y0004043D02*
X0149884Y0004043D01*
X0149604Y0004642D02*
X0143176Y0004642D01*
X0143176Y0005240D02*
X0149604Y0005240D01*
X0149604Y0005839D02*
X0143170Y0005839D01*
X0142571Y0006437D02*
X0150153Y0006437D01*
X0152832Y0006437D02*
X0153518Y0006437D01*
X0153515Y0005839D02*
X0153382Y0005839D01*
X0153382Y0005240D02*
X0153512Y0005240D01*
X0153509Y0004642D02*
X0153382Y0004642D01*
X0153506Y0004043D02*
X0153102Y0004043D01*
X0153554Y0013620D02*
X0141465Y0013620D01*
X0140824Y0014218D02*
X0153557Y0014218D01*
X0153560Y0014817D02*
X0140183Y0014817D01*
X0139541Y0015415D02*
X0153563Y0015415D01*
X0153566Y0016014D02*
X0152503Y0016014D01*
X0152018Y0015528D02*
X0153124Y0016635D01*
X0153124Y0018200D01*
X0152018Y0019306D01*
X0150453Y0019306D01*
X0149346Y0018200D01*
X0149346Y0016635D01*
X0150453Y0015528D01*
X0152018Y0015528D01*
X0153101Y0016612D02*
X0153569Y0016612D01*
X0153572Y0017211D02*
X0153124Y0017211D01*
X0153124Y0017809D02*
X0153575Y0017809D01*
X0153578Y0018408D02*
X0152917Y0018408D01*
X0152318Y0019006D02*
X0153581Y0019006D01*
X0153583Y0019605D02*
X0135052Y0019605D01*
X0135693Y0019006D02*
X0150153Y0019006D01*
X0149554Y0018408D02*
X0136334Y0018408D01*
X0136976Y0017809D02*
X0149346Y0017809D01*
X0149346Y0017211D02*
X0137617Y0017211D01*
X0138258Y0016612D02*
X0149369Y0016612D01*
X0149968Y0016014D02*
X0138900Y0016014D01*
X0134540Y0012423D02*
X0133907Y0012423D01*
X0133899Y0013021D02*
X0096547Y0013021D01*
X0097146Y0013620D02*
X0133257Y0013620D01*
X0132616Y0014218D02*
X0097372Y0014218D01*
X0097372Y0014817D02*
X0131974Y0014817D01*
X0134505Y0011824D02*
X0135181Y0011824D01*
X0135011Y0011225D02*
X0135823Y0011225D01*
X0136464Y0010627D02*
X0135011Y0010627D01*
X0135011Y0010028D02*
X0137105Y0010028D01*
X0137747Y0009430D02*
X0134688Y0009430D01*
X0128105Y0007036D02*
X0080563Y0007036D01*
X0080559Y0006437D02*
X0127506Y0006437D01*
X0127070Y0005839D02*
X0080555Y0005839D01*
X0080552Y0005240D02*
X0127070Y0005240D01*
X0127070Y0004642D02*
X0080548Y0004642D01*
X0080545Y0004043D02*
X0127464Y0004043D01*
X0113119Y0016014D02*
X0112932Y0016014D01*
X0112932Y0016612D02*
X0113119Y0016612D01*
X0113119Y0017211D02*
X0112932Y0017211D01*
X0112932Y0017809D02*
X0113119Y0017809D01*
X0113025Y0018032D02*
X0110270Y0018032D01*
X0110363Y0017809D02*
X0110176Y0017809D01*
X0110176Y0017211D02*
X0110363Y0017211D01*
X0110363Y0016612D02*
X0110176Y0016612D01*
X0110176Y0016014D02*
X0110363Y0016014D01*
X0111487Y0016014D02*
X0111808Y0016014D01*
X0113025Y0018032D02*
X0113025Y0020591D01*
X0112932Y0020802D02*
X0113119Y0020802D01*
X0113119Y0021400D02*
X0112932Y0021400D01*
X0112932Y0020203D02*
X0113119Y0020203D01*
X0113119Y0019605D02*
X0112932Y0019605D01*
X0112932Y0019006D02*
X0113119Y0019006D01*
X0113119Y0018408D02*
X0112932Y0018408D01*
X0109052Y0016014D02*
X0108731Y0016014D01*
X0105426Y0021999D02*
X0080651Y0021999D01*
X0080655Y0022597D02*
X0105426Y0022597D01*
X0105426Y0023196D02*
X0080658Y0023196D01*
X0080662Y0023794D02*
X0105426Y0023794D01*
X0105502Y0024393D02*
X0080665Y0024393D01*
X0080669Y0024991D02*
X0105952Y0024991D01*
X0108048Y0032772D02*
X0108415Y0032772D01*
X0113622Y0033370D02*
X0118603Y0033370D01*
X0118603Y0033969D02*
X0102320Y0033969D01*
X0099872Y0037279D02*
X0098573Y0035980D01*
X0097104Y0038159D02*
X0095593Y0038159D01*
X0103271Y0046538D02*
X0107418Y0046538D01*
X0106820Y0047136D02*
X0103869Y0047136D01*
X0104373Y0047735D02*
X0106316Y0047735D01*
X0106316Y0048333D02*
X0104373Y0048333D01*
X0104373Y0048932D02*
X0106316Y0048932D01*
X0106565Y0049530D02*
X0104124Y0049530D01*
X0103525Y0050129D02*
X0107164Y0050129D01*
X0107339Y0052523D02*
X0104057Y0052523D01*
X0102682Y0052523D02*
X0102101Y0052523D01*
X0102101Y0053121D02*
X0102682Y0053121D01*
X0102682Y0053720D02*
X0102101Y0053720D01*
X0109176Y0046538D02*
X0112617Y0046538D01*
X0112104Y0047136D02*
X0109775Y0047136D01*
X0116623Y0054917D02*
X0118196Y0054917D01*
X0118474Y0055515D02*
X0116412Y0055515D01*
X0115023Y0058290D02*
X0113382Y0058290D01*
X0112222Y0059451D01*
X0112222Y0061092D01*
X0113382Y0062252D01*
X0115023Y0062252D01*
X0116184Y0061092D01*
X0116184Y0059451D01*
X0115023Y0058290D01*
X0115241Y0058508D02*
X0119024Y0058508D01*
X0118803Y0059106D02*
X0115839Y0059106D01*
X0116184Y0059705D02*
X0118678Y0059705D01*
X0118678Y0060303D02*
X0116184Y0060303D01*
X0116184Y0060902D02*
X0118678Y0060902D01*
X0118867Y0061500D02*
X0115775Y0061500D01*
X0115177Y0062099D02*
X0118960Y0062099D01*
X0118678Y0062697D02*
X0086105Y0062697D01*
X0086105Y0063296D02*
X0118678Y0063296D01*
X0118678Y0063894D02*
X0086105Y0063894D01*
X0086073Y0064493D02*
X0089463Y0064493D01*
X0089760Y0064196D02*
X0088600Y0065356D01*
X0088600Y0066997D01*
X0089760Y0068158D01*
X0091401Y0068158D01*
X0092562Y0066997D01*
X0092562Y0065356D01*
X0091401Y0064196D01*
X0089760Y0064196D01*
X0088864Y0065092D02*
X0085666Y0065092D01*
X0085636Y0065062D02*
X0086105Y0065531D01*
X0086105Y0067611D01*
X0085636Y0068079D01*
X0082218Y0068079D01*
X0081749Y0067611D01*
X0081749Y0065531D01*
X0082218Y0065062D01*
X0085636Y0065062D01*
X0086105Y0065690D02*
X0088600Y0065690D01*
X0088600Y0066289D02*
X0086105Y0066289D01*
X0086105Y0066887D02*
X0088600Y0066887D01*
X0089088Y0067486D02*
X0086105Y0067486D01*
X0086105Y0068683D02*
X0118678Y0068683D01*
X0118678Y0069281D02*
X0086105Y0069281D01*
X0086105Y0069880D02*
X0113037Y0069880D01*
X0112298Y0070478D02*
X0109495Y0070478D01*
X0109118Y0070101D02*
X0110278Y0071262D01*
X0110278Y0072903D01*
X0109118Y0074063D01*
X0107477Y0074063D01*
X0106316Y0072903D01*
X0106316Y0071262D01*
X0107477Y0070101D01*
X0109118Y0070101D01*
X0110093Y0071077D02*
X0111934Y0071077D01*
X0111754Y0071675D02*
X0110278Y0071675D01*
X0110278Y0072274D02*
X0113912Y0072274D01*
X0113912Y0072373D02*
X0111731Y0072373D01*
X0111817Y0072806D01*
X0112004Y0073258D01*
X0112276Y0073664D01*
X0112621Y0074010D01*
X0113028Y0074281D01*
X0113479Y0074468D01*
X0113912Y0074554D01*
X0113912Y0072373D01*
X0114203Y0072082D02*
X0114203Y0077949D01*
X0114990Y0078736D01*
X0118140Y0078736D01*
X0118085Y0078259D02*
X0118194Y0078259D01*
X0118194Y0077660D02*
X0118085Y0077660D01*
X0118085Y0077062D02*
X0118194Y0077062D01*
X0118194Y0076463D02*
X0118085Y0076463D01*
X0120148Y0077660D02*
X0129978Y0077660D01*
X0129978Y0077062D02*
X0123032Y0077062D01*
X0123034Y0076463D02*
X0130383Y0076463D01*
X0129978Y0078259D02*
X0127715Y0078259D01*
X0128313Y0078857D02*
X0129978Y0078857D01*
X0129978Y0079456D02*
X0128374Y0079456D01*
X0128453Y0080054D02*
X0129978Y0080054D01*
X0129978Y0080653D02*
X0129082Y0080653D01*
X0129711Y0081251D02*
X0130154Y0081251D01*
X0130340Y0081850D02*
X0131016Y0081850D01*
X0131016Y0082448D02*
X0130969Y0082448D01*
X0130148Y0083185D02*
X0126485Y0079700D01*
X0125255Y0078259D02*
X0122775Y0078259D01*
X0123373Y0078857D02*
X0124657Y0078857D01*
X0124596Y0079456D02*
X0123481Y0079456D01*
X0123481Y0080054D02*
X0124596Y0080054D01*
X0124766Y0080653D02*
X0124053Y0080653D01*
X0124651Y0081251D02*
X0125364Y0081251D01*
X0125250Y0081850D02*
X0127148Y0081850D01*
X0127778Y0082448D02*
X0125848Y0082448D01*
X0126447Y0083047D02*
X0128407Y0083047D01*
X0129036Y0083645D02*
X0127045Y0083645D01*
X0127644Y0084244D02*
X0129048Y0084244D01*
X0129048Y0084842D02*
X0128243Y0084842D01*
X0128841Y0085441D02*
X0129048Y0085441D01*
X0128179Y0086335D02*
X0128179Y0090665D01*
X0128179Y0092634D02*
X0121880Y0092634D01*
X0120620Y0091374D01*
X0120620Y0093119D01*
X0110324Y0103415D01*
X0106428Y0103415D01*
X0103954Y0100941D01*
X0102470Y0100941D01*
X0100096Y0101002D02*
X0059384Y0101002D01*
X0059384Y0100404D02*
X0100096Y0100404D01*
X0100096Y0099805D02*
X0059384Y0099805D01*
X0059384Y0099207D02*
X0100096Y0099207D01*
X0100522Y0098608D02*
X0059384Y0098608D01*
X0059384Y0098010D02*
X0107288Y0098010D01*
X0107291Y0097411D02*
X0059384Y0097411D01*
X0059384Y0096813D02*
X0083191Y0096813D01*
X0082593Y0096214D02*
X0059384Y0096214D01*
X0059384Y0095616D02*
X0081994Y0095616D01*
X0081396Y0095017D02*
X0059384Y0095017D01*
X0059384Y0094419D02*
X0080797Y0094419D01*
X0080199Y0093820D02*
X0059384Y0093820D01*
X0059384Y0093222D02*
X0079600Y0093222D01*
X0079002Y0092623D02*
X0059384Y0092623D01*
X0059384Y0092025D02*
X0078403Y0092025D01*
X0077805Y0091426D02*
X0059384Y0091426D01*
X0059384Y0090827D02*
X0077206Y0090827D01*
X0076608Y0090229D02*
X0059384Y0090229D01*
X0059384Y0089630D02*
X0076009Y0089630D01*
X0075411Y0089032D02*
X0059384Y0089032D01*
X0059384Y0088433D02*
X0074812Y0088433D01*
X0074214Y0087835D02*
X0059384Y0087835D01*
X0059384Y0087236D02*
X0073615Y0087236D01*
X0073016Y0086638D02*
X0059384Y0086638D01*
X0059384Y0086039D02*
X0072418Y0086039D01*
X0071819Y0085441D02*
X0059384Y0085441D01*
X0059384Y0084842D02*
X0071221Y0084842D01*
X0070793Y0084244D02*
X0059384Y0084244D01*
X0059384Y0083645D02*
X0070793Y0083645D01*
X0070793Y0083047D02*
X0059384Y0083047D01*
X0059384Y0082448D02*
X0070793Y0082448D01*
X0070793Y0081850D02*
X0059384Y0081850D01*
X0059384Y0081251D02*
X0070793Y0081251D01*
X0070793Y0080653D02*
X0059384Y0080653D01*
X0059384Y0080054D02*
X0070793Y0080054D01*
X0070793Y0079456D02*
X0059384Y0079456D01*
X0059384Y0078857D02*
X0070793Y0078857D01*
X0070793Y0078259D02*
X0059384Y0078259D01*
X0059384Y0077660D02*
X0070793Y0077660D01*
X0070793Y0077062D02*
X0059384Y0077062D01*
X0059384Y0076463D02*
X0070793Y0076463D01*
X0070793Y0075865D02*
X0059384Y0075865D01*
X0059384Y0075266D02*
X0070793Y0075266D01*
X0070793Y0074668D02*
X0059384Y0074668D01*
X0059384Y0074069D02*
X0070793Y0074069D01*
X0070793Y0073471D02*
X0059384Y0073471D01*
X0059384Y0072872D02*
X0070793Y0072872D01*
X0070793Y0072274D02*
X0059384Y0072274D01*
X0059384Y0071675D02*
X0070793Y0071675D01*
X0070793Y0071077D02*
X0059384Y0071077D01*
X0059384Y0070478D02*
X0070793Y0070478D01*
X0070793Y0069880D02*
X0059384Y0069880D01*
X0059384Y0069281D02*
X0070793Y0069281D01*
X0070793Y0068683D02*
X0059384Y0068683D01*
X0059384Y0068084D02*
X0070793Y0068084D01*
X0070793Y0067486D02*
X0059384Y0067486D01*
X0059384Y0066887D02*
X0070793Y0066887D01*
X0070793Y0066289D02*
X0059384Y0066289D01*
X0059384Y0065690D02*
X0070793Y0065690D01*
X0070793Y0065092D02*
X0059384Y0065092D01*
X0059384Y0064493D02*
X0070793Y0064493D01*
X0070793Y0063894D02*
X0059384Y0063894D01*
X0059384Y0063296D02*
X0070793Y0063296D01*
X0070793Y0062697D02*
X0059384Y0062697D01*
X0059384Y0062099D02*
X0070793Y0062099D01*
X0075290Y0066887D02*
X0081749Y0066887D01*
X0081749Y0066289D02*
X0080081Y0066289D01*
X0080081Y0065690D02*
X0081749Y0065690D01*
X0082188Y0065092D02*
X0080081Y0065092D01*
X0080081Y0064493D02*
X0081781Y0064493D01*
X0081749Y0063894D02*
X0080081Y0063894D01*
X0080081Y0063296D02*
X0081749Y0063296D01*
X0081749Y0062697D02*
X0079847Y0062697D01*
X0078641Y0062099D02*
X0082031Y0062099D01*
X0081938Y0061500D02*
X0078648Y0061500D01*
X0078655Y0060902D02*
X0081749Y0060902D01*
X0081749Y0060303D02*
X0078663Y0060303D01*
X0078670Y0059705D02*
X0081749Y0059705D01*
X0081874Y0059106D02*
X0078677Y0059106D01*
X0078684Y0058508D02*
X0082095Y0058508D01*
X0081749Y0057909D02*
X0078692Y0057909D01*
X0078699Y0057311D02*
X0081749Y0057311D01*
X0081749Y0056712D02*
X0078706Y0056712D01*
X0078713Y0056114D02*
X0081749Y0056114D01*
X0078888Y0053657D02*
X0077628Y0054917D01*
X0077510Y0064641D01*
X0077195Y0064641D01*
X0075286Y0067486D02*
X0081749Y0067486D01*
X0080081Y0068084D02*
X0089686Y0068084D01*
X0091475Y0068084D02*
X0095592Y0068084D01*
X0094993Y0067486D02*
X0092074Y0067486D01*
X0092562Y0066887D02*
X0094505Y0066887D01*
X0094505Y0066289D02*
X0092562Y0066289D01*
X0092562Y0065690D02*
X0094505Y0065690D01*
X0094770Y0065092D02*
X0092297Y0065092D01*
X0091699Y0064493D02*
X0095368Y0064493D01*
X0095289Y0070478D02*
X0091778Y0070478D01*
X0091401Y0070101D02*
X0092562Y0071262D01*
X0092562Y0072903D01*
X0091401Y0074063D01*
X0089760Y0074063D01*
X0088600Y0072903D01*
X0088600Y0071262D01*
X0089760Y0070101D01*
X0091401Y0070101D01*
X0092377Y0071077D02*
X0094690Y0071077D01*
X0094505Y0071675D02*
X0092562Y0071675D01*
X0092562Y0072274D02*
X0094505Y0072274D01*
X0094505Y0072872D02*
X0092562Y0072872D01*
X0091994Y0073471D02*
X0095073Y0073471D01*
X0089383Y0070478D02*
X0086105Y0070478D01*
X0085789Y0071077D02*
X0088785Y0071077D01*
X0088600Y0071675D02*
X0085950Y0071675D01*
X0086105Y0071830D02*
X0085636Y0071361D01*
X0082218Y0071361D01*
X0081749Y0071830D01*
X0081749Y0073910D01*
X0082218Y0074378D01*
X0085636Y0074378D01*
X0086105Y0073910D01*
X0086105Y0071830D01*
X0086105Y0072274D02*
X0088600Y0072274D01*
X0088600Y0072872D02*
X0086105Y0072872D01*
X0086105Y0073471D02*
X0089167Y0073471D01*
X0085946Y0074069D02*
X0112710Y0074069D01*
X0112146Y0073471D02*
X0109711Y0073471D01*
X0110278Y0072872D02*
X0111844Y0072872D01*
X0113912Y0072872D02*
X0114493Y0072872D01*
X0114493Y0072274D02*
X0118678Y0072274D01*
X0118445Y0068084D02*
X0115097Y0068084D01*
X0115023Y0068158D02*
X0113382Y0068158D01*
X0112222Y0066997D01*
X0112222Y0065356D01*
X0113382Y0064196D01*
X0115023Y0064196D01*
X0116184Y0065356D01*
X0116184Y0066997D01*
X0115023Y0068158D01*
X0115696Y0067486D02*
X0118188Y0067486D01*
X0118178Y0066887D02*
X0116184Y0066887D01*
X0116184Y0066289D02*
X0118178Y0066289D01*
X0118179Y0065690D02*
X0116184Y0065690D01*
X0115919Y0065092D02*
X0118422Y0065092D01*
X0118710Y0064493D02*
X0115321Y0064493D01*
X0113085Y0064493D02*
X0109415Y0064493D01*
X0109118Y0064196D02*
X0110278Y0065356D01*
X0110278Y0066997D01*
X0109118Y0068158D01*
X0107477Y0068158D01*
X0106316Y0066997D01*
X0106316Y0065356D01*
X0107477Y0064196D01*
X0109118Y0064196D01*
X0110014Y0065092D02*
X0112486Y0065092D01*
X0112222Y0065690D02*
X0110278Y0065690D01*
X0110278Y0066289D02*
X0112222Y0066289D01*
X0112222Y0066887D02*
X0110278Y0066887D01*
X0109790Y0067486D02*
X0112710Y0067486D01*
X0113308Y0068084D02*
X0109192Y0068084D01*
X0107403Y0068084D02*
X0103286Y0068084D01*
X0103885Y0067486D02*
X0106804Y0067486D01*
X0106316Y0066887D02*
X0104373Y0066887D01*
X0104373Y0066289D02*
X0106316Y0066289D01*
X0106316Y0065690D02*
X0104373Y0065690D01*
X0104108Y0065092D02*
X0106581Y0065092D01*
X0107179Y0064493D02*
X0103510Y0064493D01*
X0103366Y0062099D02*
X0107323Y0062099D01*
X0106725Y0061500D02*
X0103964Y0061500D01*
X0104373Y0060902D02*
X0106316Y0060902D01*
X0109271Y0062099D02*
X0113229Y0062099D01*
X0112630Y0061500D02*
X0109870Y0061500D01*
X0110278Y0060902D02*
X0112222Y0060902D01*
X0112222Y0060303D02*
X0110278Y0060303D01*
X0110419Y0059705D02*
X0112222Y0059705D01*
X0112566Y0059106D02*
X0111018Y0059106D01*
X0111616Y0058508D02*
X0113165Y0058508D01*
X0109702Y0057311D02*
X0086105Y0057311D01*
X0074281Y0053618D02*
X0074163Y0070835D01*
X0076129Y0072274D02*
X0081749Y0072274D01*
X0081749Y0072872D02*
X0076433Y0072872D01*
X0076738Y0073471D02*
X0081749Y0073471D01*
X0081909Y0074069D02*
X0077042Y0074069D01*
X0077347Y0074668D02*
X0082061Y0074668D01*
X0081904Y0071675D02*
X0079875Y0071675D01*
X0080081Y0071077D02*
X0082066Y0071077D01*
X0083888Y0069760D02*
X0083927Y0069720D01*
X0077549Y0069720D01*
X0077510Y0069760D01*
X0086105Y0076463D02*
X0113338Y0076463D01*
X0114936Y0076463D02*
X0115044Y0076463D01*
X0115044Y0077062D02*
X0114936Y0077062D01*
X0114936Y0077660D02*
X0115044Y0077660D01*
X0115044Y0078259D02*
X0114936Y0078259D01*
X0114936Y0078790D02*
X0114936Y0081414D01*
X0114110Y0081414D01*
X0113780Y0081325D01*
X0113483Y0081154D01*
X0113241Y0080912D01*
X0113110Y0080685D01*
X0112968Y0080827D01*
X0113053Y0087369D01*
X0114486Y0088802D01*
X0117211Y0088802D01*
X0117473Y0089064D01*
X0117473Y0084599D01*
X0116684Y0083810D01*
X0116684Y0082245D01*
X0117515Y0081414D01*
X0117260Y0081414D01*
X0116929Y0081325D01*
X0116633Y0081154D01*
X0116565Y0081086D01*
X0116497Y0081154D01*
X0116201Y0081325D01*
X0115870Y0081414D01*
X0115044Y0081414D01*
X0115044Y0078790D01*
X0114936Y0078790D01*
X0114936Y0078857D02*
X0115044Y0078857D01*
X0115044Y0079456D02*
X0114936Y0079456D01*
X0114936Y0080054D02*
X0115044Y0080054D01*
X0115044Y0080653D02*
X0114936Y0080653D01*
X0114936Y0081251D02*
X0115044Y0081251D01*
X0116329Y0081251D02*
X0116801Y0081251D01*
X0117079Y0081850D02*
X0112981Y0081850D01*
X0112989Y0082448D02*
X0116684Y0082448D01*
X0116684Y0083047D02*
X0112997Y0083047D01*
X0113004Y0083645D02*
X0116684Y0083645D01*
X0117118Y0084244D02*
X0113012Y0084244D01*
X0113020Y0084842D02*
X0117473Y0084842D01*
X0117473Y0085441D02*
X0113028Y0085441D01*
X0113035Y0086039D02*
X0117473Y0086039D01*
X0117473Y0086638D02*
X0113043Y0086638D01*
X0113051Y0087236D02*
X0117473Y0087236D01*
X0117473Y0087835D02*
X0113519Y0087835D01*
X0114117Y0088433D02*
X0117473Y0088433D01*
X0117441Y0089032D02*
X0117473Y0089032D01*
X0118573Y0089326D02*
X0118573Y0083027D01*
X0121592Y0079748D02*
X0128179Y0086335D01*
X0130148Y0083185D02*
X0130148Y0090665D01*
X0132116Y0090665D02*
X0132116Y0079012D01*
X0132156Y0078972D01*
X0134333Y0078857D02*
X0135096Y0078857D01*
X0135096Y0078259D02*
X0134333Y0078259D01*
X0134333Y0077660D02*
X0135096Y0077660D01*
X0135096Y0077062D02*
X0134333Y0077062D01*
X0133928Y0076463D02*
X0135502Y0076463D01*
X0135096Y0079456D02*
X0134333Y0079456D01*
X0134333Y0080054D02*
X0135096Y0080054D01*
X0135096Y0080653D02*
X0134333Y0080653D01*
X0134157Y0081251D02*
X0135272Y0081251D01*
X0136174Y0081850D02*
X0133216Y0081850D01*
X0133216Y0082448D02*
X0136367Y0082448D01*
X0136966Y0083047D02*
X0133216Y0083047D01*
X0133216Y0083645D02*
X0137564Y0083645D01*
X0138163Y0084244D02*
X0133216Y0084244D01*
X0133216Y0084842D02*
X0138761Y0084842D01*
X0139360Y0085441D02*
X0133216Y0085441D01*
X0133216Y0086039D02*
X0134019Y0086039D01*
X0133420Y0086638D02*
X0133216Y0086638D01*
X0133216Y0087236D02*
X0133222Y0087236D01*
X0133216Y0087835D02*
X0133222Y0087835D01*
X0133216Y0088433D02*
X0133254Y0088433D01*
X0133216Y0089032D02*
X0133853Y0089032D01*
X0133216Y0089630D02*
X0134922Y0089630D01*
X0134324Y0090229D02*
X0133448Y0090229D01*
X0133448Y0090827D02*
X0133725Y0090827D01*
X0134012Y0092097D02*
X0132653Y0092097D01*
X0132116Y0092634D01*
X0132116Y0094602D02*
X0136564Y0094602D01*
X0138230Y0092936D01*
X0140902Y0094439D02*
X0145659Y0089287D01*
X0143240Y0086638D02*
X0143169Y0086638D01*
X0143070Y0086039D02*
X0154751Y0086039D01*
X0155402Y0085441D02*
X0142471Y0085441D01*
X0141873Y0084842D02*
X0156053Y0084842D01*
X0156704Y0084244D02*
X0141274Y0084244D01*
X0140676Y0083645D02*
X0156727Y0083645D01*
X0156727Y0083047D02*
X0140077Y0083047D01*
X0139479Y0082448D02*
X0156727Y0082448D01*
X0156727Y0081850D02*
X0138880Y0081850D01*
X0139275Y0081251D02*
X0156727Y0081251D01*
X0156727Y0080653D02*
X0152641Y0080653D01*
X0152641Y0080054D02*
X0156643Y0080054D01*
X0158027Y0078768D02*
X0153920Y0078775D01*
X0149478Y0078775D01*
X0137470Y0078775D01*
X0137274Y0078972D01*
X0137274Y0081799D01*
X0142069Y0086594D01*
X0142069Y0088573D01*
X0140669Y0089973D01*
X0136135Y0089973D01*
X0134012Y0092097D01*
X0130148Y0092634D02*
X0130148Y0092634D01*
X0130148Y0092771D01*
X0130148Y0094602D01*
X0130148Y0094602D01*
X0130148Y0094602D01*
X0130148Y0096434D01*
X0130389Y0096434D01*
X0130855Y0096309D01*
X0130911Y0096276D01*
X0123932Y0103255D01*
X0122291Y0103255D01*
X0121536Y0102500D01*
X0121536Y0101433D01*
X0127267Y0095702D01*
X0127396Y0095702D01*
X0127628Y0095934D01*
X0128731Y0095934D01*
X0128810Y0095854D01*
X0129023Y0096068D01*
X0129441Y0096309D01*
X0129907Y0096434D01*
X0130148Y0096434D01*
X0130148Y0094602D01*
X0130148Y0094658D01*
X0128772Y0096034D01*
X0128758Y0096034D01*
X0122825Y0101966D01*
X0121967Y0101002D02*
X0126185Y0101002D01*
X0126783Y0100404D02*
X0122565Y0100404D01*
X0123164Y0099805D02*
X0127382Y0099805D01*
X0127980Y0099207D02*
X0123762Y0099207D01*
X0124361Y0098608D02*
X0128579Y0098608D01*
X0129177Y0098010D02*
X0124959Y0098010D01*
X0125558Y0097411D02*
X0129776Y0097411D01*
X0130374Y0096813D02*
X0126156Y0096813D01*
X0126755Y0096214D02*
X0129277Y0096214D01*
X0130148Y0096214D02*
X0130148Y0096214D01*
X0130148Y0095616D02*
X0130148Y0095616D01*
X0130148Y0095017D02*
X0130148Y0095017D01*
X0130148Y0094602D02*
X0130148Y0092634D01*
X0130148Y0094602D01*
X0130148Y0094419D02*
X0130148Y0094419D01*
X0130148Y0093820D02*
X0130148Y0093820D01*
X0130148Y0093222D02*
X0130148Y0093222D01*
X0128179Y0094602D02*
X0126811Y0094602D01*
X0120436Y0100977D01*
X0120436Y0101640D01*
X0116677Y0101640D01*
X0114788Y0101601D02*
X0113694Y0101601D01*
X0113095Y0102199D02*
X0114788Y0102199D01*
X0115163Y0102798D02*
X0112497Y0102798D01*
X0111898Y0103396D02*
X0115762Y0103396D01*
X0117592Y0103396D02*
X0119336Y0103396D01*
X0119336Y0102798D02*
X0118191Y0102798D01*
X0119919Y0103995D02*
X0111300Y0103995D01*
X0111181Y0101002D02*
X0110751Y0101002D01*
X0110751Y0100404D02*
X0111780Y0100404D01*
X0112378Y0099805D02*
X0110751Y0099805D01*
X0112102Y0099207D02*
X0112977Y0099207D01*
X0112700Y0098608D02*
X0113575Y0098608D01*
X0113026Y0098010D02*
X0114174Y0098010D01*
X0114772Y0097411D02*
X0113026Y0097411D01*
X0113026Y0096813D02*
X0115371Y0096813D01*
X0115969Y0096214D02*
X0112523Y0096214D01*
X0111925Y0095616D02*
X0116568Y0095616D01*
X0117166Y0095017D02*
X0109500Y0095017D01*
X0109503Y0094419D02*
X0117765Y0094419D01*
X0117337Y0093820D02*
X0118363Y0093820D01*
X0118442Y0093222D02*
X0117680Y0093222D01*
X0117680Y0092623D02*
X0118442Y0092623D01*
X0118442Y0092025D02*
X0117680Y0092025D01*
X0117680Y0091426D02*
X0118442Y0091426D01*
X0118442Y0090827D02*
X0117680Y0090827D01*
X0117680Y0090229D02*
X0117920Y0090229D01*
X0118573Y0089326D02*
X0120620Y0091374D01*
X0120876Y0094419D02*
X0125439Y0094419D01*
X0124841Y0095017D02*
X0120278Y0095017D01*
X0119679Y0095616D02*
X0124242Y0095616D01*
X0123644Y0096214D02*
X0119081Y0096214D01*
X0118482Y0096813D02*
X0123045Y0096813D01*
X0122447Y0097411D02*
X0117884Y0097411D01*
X0117285Y0098010D02*
X0121848Y0098010D01*
X0121250Y0098608D02*
X0116687Y0098608D01*
X0116088Y0099207D02*
X0120651Y0099207D01*
X0120052Y0099805D02*
X0117513Y0099805D01*
X0118112Y0100404D02*
X0119454Y0100404D01*
X0120436Y0101640D02*
X0120436Y0102956D01*
X0121836Y0104355D01*
X0124387Y0104355D01*
X0132709Y0096034D01*
X0139554Y0096034D01*
X0140902Y0094686D01*
X0140902Y0094439D01*
X0142002Y0095017D02*
X0165344Y0095017D01*
X0165777Y0094584D02*
X0167342Y0094584D01*
X0168449Y0095690D01*
X0168449Y0097255D01*
X0167342Y0098361D01*
X0165777Y0098361D01*
X0164671Y0097255D01*
X0164671Y0095690D01*
X0165777Y0094584D01*
X0164745Y0095616D02*
X0148233Y0095616D01*
X0148810Y0096214D02*
X0150593Y0096214D01*
X0150371Y0096813D02*
X0148928Y0096813D01*
X0148928Y0097411D02*
X0150371Y0097411D01*
X0150040Y0098010D02*
X0148928Y0098010D01*
X0149441Y0098608D02*
X0145959Y0098608D01*
X0145959Y0098010D02*
X0145359Y0098010D01*
X0145359Y0098608D02*
X0140802Y0098608D01*
X0140802Y0098010D02*
X0142391Y0098010D01*
X0142391Y0097411D02*
X0140802Y0097411D01*
X0140802Y0096813D02*
X0142391Y0096813D01*
X0142509Y0096214D02*
X0140929Y0096214D01*
X0141528Y0095616D02*
X0143086Y0095616D01*
X0142418Y0094419D02*
X0195616Y0094419D01*
X0195615Y0095017D02*
X0167776Y0095017D01*
X0168374Y0095616D02*
X0195614Y0095616D01*
X0195614Y0096214D02*
X0168449Y0096214D01*
X0168449Y0096813D02*
X0195613Y0096813D01*
X0195612Y0097411D02*
X0168293Y0097411D01*
X0167694Y0098010D02*
X0195612Y0098010D01*
X0195611Y0098608D02*
X0162920Y0098608D01*
X0162322Y0098010D02*
X0165425Y0098010D01*
X0164827Y0097411D02*
X0161723Y0097411D01*
X0161099Y0098342D02*
X0166236Y0103480D01*
X0172673Y0103480D01*
X0172705Y0103512D01*
X0172264Y0103441D01*
X0171346Y0102199D02*
X0166511Y0102199D01*
X0165913Y0101601D02*
X0190855Y0101601D01*
X0190855Y0102079D02*
X0190855Y0100515D01*
X0191961Y0099408D01*
X0193526Y0099408D01*
X0194633Y0100515D01*
X0194633Y0102079D01*
X0193526Y0103186D01*
X0191961Y0103186D01*
X0190855Y0102079D01*
X0190975Y0102199D02*
X0174064Y0102199D01*
X0174594Y0102798D02*
X0191573Y0102798D01*
X0190855Y0101002D02*
X0165314Y0101002D01*
X0164716Y0100404D02*
X0190966Y0100404D01*
X0191564Y0099805D02*
X0164117Y0099805D01*
X0163519Y0099207D02*
X0195611Y0099207D01*
X0195610Y0099805D02*
X0193923Y0099805D01*
X0194522Y0100404D02*
X0195609Y0100404D01*
X0195609Y0101002D02*
X0194633Y0101002D01*
X0194633Y0101601D02*
X0195608Y0101601D01*
X0195607Y0102199D02*
X0194513Y0102199D01*
X0193914Y0102798D02*
X0195607Y0102798D01*
X0195606Y0103396D02*
X0174594Y0103396D01*
X0174594Y0103995D02*
X0195606Y0103995D01*
X0195605Y0104593D02*
X0174295Y0104593D01*
X0164671Y0096813D02*
X0155908Y0096813D01*
X0155908Y0097411D02*
X0157657Y0097411D01*
X0155686Y0096214D02*
X0164671Y0096214D01*
X0161099Y0098342D02*
X0153140Y0098736D01*
X0150869Y0098736D01*
X0148001Y0101604D01*
X0141780Y0101604D01*
X0138230Y0098054D01*
X0140938Y0099207D02*
X0142391Y0099207D01*
X0142391Y0099805D02*
X0141537Y0099805D01*
X0142135Y0100404D02*
X0142391Y0100404D01*
X0145359Y0097411D02*
X0145959Y0097411D01*
X0145959Y0096813D02*
X0145359Y0096813D01*
X0145359Y0096214D02*
X0145959Y0096214D01*
X0145959Y0095616D02*
X0145359Y0095616D01*
X0142970Y0093820D02*
X0195616Y0093820D01*
X0195617Y0093222D02*
X0143523Y0093222D01*
X0144076Y0092623D02*
X0195618Y0092623D01*
X0195618Y0092025D02*
X0155471Y0092025D01*
X0155908Y0091426D02*
X0191934Y0091426D01*
X0192318Y0091810D02*
X0191212Y0090703D01*
X0191212Y0089138D01*
X0192318Y0088032D01*
X0193883Y0088032D01*
X0194990Y0089138D01*
X0194990Y0090703D01*
X0193883Y0091810D01*
X0192318Y0091810D01*
X0191336Y0090827D02*
X0155908Y0090827D01*
X0155908Y0090229D02*
X0191212Y0090229D01*
X0191212Y0089630D02*
X0155908Y0089630D01*
X0155908Y0089032D02*
X0191318Y0089032D01*
X0191917Y0088433D02*
X0155989Y0088433D01*
X0156640Y0087835D02*
X0195623Y0087835D01*
X0195622Y0088433D02*
X0194285Y0088433D01*
X0194883Y0089032D02*
X0195621Y0089032D01*
X0195621Y0089630D02*
X0194990Y0089630D01*
X0194990Y0090229D02*
X0195620Y0090229D01*
X0195619Y0090827D02*
X0194866Y0090827D01*
X0194267Y0091426D02*
X0195619Y0091426D01*
X0195623Y0087236D02*
X0157291Y0087236D01*
X0157942Y0086638D02*
X0195624Y0086638D01*
X0195624Y0086039D02*
X0158620Y0086039D01*
X0159244Y0085441D02*
X0195625Y0085441D01*
X0195626Y0084842D02*
X0159327Y0084842D01*
X0159327Y0084244D02*
X0195626Y0084244D01*
X0195627Y0083645D02*
X0159327Y0083645D01*
X0159327Y0083047D02*
X0195628Y0083047D01*
X0195628Y0082448D02*
X0159327Y0082448D01*
X0159327Y0081850D02*
X0195629Y0081850D01*
X0195630Y0081251D02*
X0159327Y0081251D01*
X0159327Y0080653D02*
X0195630Y0080653D01*
X0195631Y0080054D02*
X0159412Y0080054D01*
X0159916Y0079456D02*
X0195631Y0079456D01*
X0195632Y0078857D02*
X0159916Y0078857D01*
X0159916Y0078259D02*
X0195633Y0078259D01*
X0195633Y0077660D02*
X0163455Y0077660D01*
X0162915Y0078200D02*
X0164021Y0077094D01*
X0164021Y0075529D01*
X0162915Y0074422D01*
X0161350Y0074422D01*
X0160243Y0075529D01*
X0160243Y0077094D01*
X0161350Y0078200D01*
X0162915Y0078200D01*
X0164021Y0077062D02*
X0195634Y0077062D01*
X0195635Y0076463D02*
X0164021Y0076463D01*
X0164021Y0075865D02*
X0195635Y0075865D01*
X0195636Y0075266D02*
X0163759Y0075266D01*
X0163160Y0074668D02*
X0195636Y0074668D01*
X0195637Y0074069D02*
X0158257Y0074069D01*
X0158257Y0073471D02*
X0195638Y0073471D01*
X0195638Y0072872D02*
X0157940Y0072872D01*
X0158257Y0073190D02*
X0157151Y0072083D01*
X0155586Y0072083D01*
X0154479Y0073190D01*
X0154479Y0074755D01*
X0155586Y0075861D01*
X0157151Y0075861D01*
X0158257Y0074755D01*
X0158257Y0073190D01*
X0157341Y0072274D02*
X0195639Y0072274D01*
X0195640Y0071675D02*
X0149778Y0071675D01*
X0149778Y0071389D02*
X0149778Y0071989D01*
X0149178Y0071989D01*
X0149178Y0071389D01*
X0145816Y0071389D01*
X0145816Y0069943D01*
X0145905Y0069612D01*
X0146076Y0069316D01*
X0146318Y0069074D01*
X0146614Y0068902D01*
X0146945Y0068814D01*
X0149178Y0068814D01*
X0149178Y0071389D01*
X0149778Y0071389D01*
X0149778Y0068814D01*
X0152012Y0068814D01*
X0152342Y0068902D01*
X0152639Y0069074D01*
X0152881Y0069316D01*
X0153052Y0069612D01*
X0153141Y0069943D01*
X0153141Y0071389D01*
X0149778Y0071389D01*
X0149778Y0071077D02*
X0149178Y0071077D01*
X0149178Y0071675D02*
X0141113Y0071675D01*
X0141485Y0072274D02*
X0145816Y0072274D01*
X0145816Y0071989D02*
X0149178Y0071989D01*
X0149178Y0074563D01*
X0146945Y0074563D01*
X0146614Y0074475D01*
X0146318Y0074304D01*
X0146076Y0074062D01*
X0145905Y0073765D01*
X0145816Y0073435D01*
X0145816Y0071989D01*
X0145816Y0072872D02*
X0141485Y0072872D01*
X0141485Y0073471D02*
X0145826Y0073471D01*
X0146083Y0074069D02*
X0141029Y0074069D01*
X0140431Y0074668D02*
X0154479Y0074668D01*
X0154479Y0074069D02*
X0152873Y0074069D01*
X0152881Y0074062D02*
X0152639Y0074304D01*
X0152342Y0074475D01*
X0152012Y0074563D01*
X0149778Y0074563D01*
X0149778Y0071989D01*
X0153141Y0071989D01*
X0153141Y0073435D01*
X0153052Y0073765D01*
X0152881Y0074062D01*
X0153131Y0073471D02*
X0154479Y0073471D01*
X0154797Y0072872D02*
X0153141Y0072872D01*
X0153141Y0072274D02*
X0155395Y0072274D01*
X0153686Y0071689D02*
X0158045Y0067329D01*
X0153124Y0069880D02*
X0195642Y0069880D01*
X0195641Y0070478D02*
X0153141Y0070478D01*
X0153141Y0071077D02*
X0195640Y0071077D01*
X0195642Y0069281D02*
X0152846Y0069281D01*
X0153686Y0071689D02*
X0149478Y0071689D01*
X0149178Y0072274D02*
X0149778Y0072274D01*
X0149778Y0072872D02*
X0149178Y0072872D01*
X0149178Y0073471D02*
X0149778Y0073471D01*
X0149778Y0074069D02*
X0149178Y0074069D01*
X0146722Y0076463D02*
X0139046Y0076463D01*
X0139452Y0077062D02*
X0146316Y0077062D01*
X0146316Y0077660D02*
X0139452Y0077660D01*
X0138762Y0074668D02*
X0122723Y0074668D01*
X0122875Y0074069D02*
X0138164Y0074069D01*
X0137707Y0073471D02*
X0123034Y0073471D01*
X0123034Y0072872D02*
X0137707Y0072872D01*
X0137484Y0072274D02*
X0123034Y0072274D01*
X0122880Y0071675D02*
X0136886Y0071675D01*
X0136287Y0071077D02*
X0122718Y0071077D01*
X0123034Y0070478D02*
X0135689Y0070478D01*
X0135090Y0069880D02*
X0123034Y0069880D01*
X0123034Y0069281D02*
X0134491Y0069281D01*
X0133893Y0068683D02*
X0123034Y0068683D01*
X0123268Y0068084D02*
X0133294Y0068084D01*
X0133181Y0067486D02*
X0123525Y0067486D01*
X0123534Y0066887D02*
X0133181Y0066887D01*
X0133181Y0066289D02*
X0123534Y0066289D01*
X0123534Y0065690D02*
X0133181Y0065690D01*
X0133181Y0065092D02*
X0123291Y0065092D01*
X0123002Y0064493D02*
X0133181Y0064493D01*
X0132049Y0063894D02*
X0131278Y0063894D01*
X0131538Y0063296D02*
X0131907Y0063296D01*
X0134281Y0061846D02*
X0134281Y0067515D01*
X0139596Y0072830D01*
X0138573Y0071807D01*
X0138800Y0070478D02*
X0145816Y0070478D01*
X0145816Y0071077D02*
X0140514Y0071077D01*
X0138201Y0069880D02*
X0145833Y0069880D01*
X0146110Y0069281D02*
X0137603Y0069281D01*
X0137004Y0068683D02*
X0195643Y0068683D01*
X0195643Y0068084D02*
X0136406Y0068084D01*
X0135807Y0067486D02*
X0195644Y0067486D01*
X0195645Y0066887D02*
X0135381Y0066887D01*
X0135381Y0066289D02*
X0140445Y0066289D01*
X0140617Y0066461D02*
X0139510Y0065354D01*
X0139510Y0063789D01*
X0140617Y0062683D01*
X0142182Y0062683D01*
X0142971Y0063472D01*
X0143252Y0063472D01*
X0143897Y0064116D01*
X0143897Y0065027D01*
X0143252Y0065672D01*
X0142971Y0065672D01*
X0142182Y0066461D01*
X0140617Y0066461D01*
X0139846Y0065690D02*
X0135381Y0065690D01*
X0135381Y0065092D02*
X0139510Y0065092D01*
X0139510Y0064493D02*
X0135381Y0064493D01*
X0136514Y0063894D02*
X0139510Y0063894D01*
X0140003Y0063296D02*
X0136656Y0063296D01*
X0136656Y0062697D02*
X0140602Y0062697D01*
X0142196Y0062697D02*
X0195649Y0062697D01*
X0195650Y0062099D02*
X0136656Y0062099D01*
X0134281Y0061846D02*
X0129045Y0061846D01*
X0129030Y0061848D01*
X0129015Y0061852D01*
X0129001Y0061859D01*
X0128989Y0061869D01*
X0128979Y0061881D01*
X0128972Y0061895D01*
X0128968Y0061910D01*
X0128966Y0061925D01*
X0126395Y0062099D02*
X0122752Y0062099D01*
X0122845Y0061500D02*
X0126395Y0061500D01*
X0126395Y0060902D02*
X0123034Y0060902D01*
X0123034Y0060303D02*
X0126395Y0060303D01*
X0126395Y0062697D02*
X0123034Y0062697D01*
X0123034Y0063296D02*
X0126395Y0063296D01*
X0126655Y0063894D02*
X0123034Y0063894D01*
X0114493Y0073471D02*
X0113912Y0073471D01*
X0113912Y0074069D02*
X0114493Y0074069D01*
X0110332Y0077062D02*
X0110200Y0077062D01*
X0110200Y0077027D02*
X0110200Y0080445D01*
X0109731Y0080914D01*
X0107651Y0080914D01*
X0107182Y0080445D01*
X0107182Y0077027D01*
X0107651Y0076558D01*
X0109731Y0076558D01*
X0110200Y0077027D01*
X0110200Y0077660D02*
X0110332Y0077660D01*
X0110332Y0078259D02*
X0110200Y0078259D01*
X0110200Y0078857D02*
X0110332Y0078857D01*
X0110332Y0079456D02*
X0110200Y0079456D01*
X0110200Y0080054D02*
X0110332Y0080054D01*
X0110539Y0080653D02*
X0109992Y0080653D01*
X0110773Y0081251D02*
X0106670Y0081251D01*
X0106677Y0081850D02*
X0110781Y0081850D01*
X0110789Y0082448D02*
X0106684Y0082448D01*
X0106691Y0083047D02*
X0110796Y0083047D01*
X0110804Y0083645D02*
X0106698Y0083645D01*
X0106704Y0084244D02*
X0110812Y0084244D01*
X0110820Y0084842D02*
X0106711Y0084842D01*
X0106718Y0085441D02*
X0110828Y0085441D01*
X0110835Y0086039D02*
X0106725Y0086039D01*
X0106732Y0086638D02*
X0110843Y0086638D01*
X0110851Y0087236D02*
X0106739Y0087236D01*
X0106746Y0087835D02*
X0110859Y0087835D01*
X0111001Y0088433D02*
X0106752Y0088433D01*
X0106237Y0090229D02*
X0106037Y0090229D01*
X0106237Y0090827D02*
X0105475Y0090827D01*
X0105475Y0091426D02*
X0106237Y0091426D01*
X0106237Y0092025D02*
X0105475Y0092025D01*
X0105475Y0092623D02*
X0106237Y0092623D01*
X0106237Y0093222D02*
X0105475Y0093222D01*
X0105171Y0093820D02*
X0106541Y0093820D01*
X0107303Y0094419D02*
X0093731Y0094419D01*
X0093731Y0095017D02*
X0107300Y0095017D01*
X0107298Y0095616D02*
X0093706Y0095616D01*
X0093406Y0096214D02*
X0107296Y0096214D01*
X0107293Y0096813D02*
X0088679Y0096813D01*
X0090753Y0096214D02*
X0091353Y0096214D01*
X0091353Y0095616D02*
X0090753Y0095616D01*
X0090753Y0095017D02*
X0091353Y0095017D01*
X0091353Y0094419D02*
X0090753Y0094419D01*
X0091353Y0093820D02*
X0101423Y0093820D01*
X0101119Y0093222D02*
X0093731Y0093222D01*
X0093731Y0092623D02*
X0101119Y0092623D01*
X0101119Y0092025D02*
X0093731Y0092025D01*
X0093675Y0091426D02*
X0101119Y0091426D01*
X0101119Y0090827D02*
X0098002Y0090827D01*
X0098600Y0090229D02*
X0100558Y0090229D01*
X0099959Y0089630D02*
X0098917Y0089630D01*
X0098917Y0089032D02*
X0099360Y0089032D01*
X0100676Y0087236D02*
X0104539Y0087236D01*
X0104532Y0086638D02*
X0100078Y0086638D01*
X0099479Y0086039D02*
X0104525Y0086039D01*
X0104518Y0085441D02*
X0098881Y0085441D01*
X0101275Y0087835D02*
X0104545Y0087835D01*
X0104552Y0088433D02*
X0101873Y0088433D01*
X0100541Y0093578D02*
X0103691Y0096728D01*
X0104675Y0096728D01*
X0104419Y0098608D02*
X0106428Y0098608D01*
X0106001Y0099207D02*
X0104845Y0099207D01*
X0104845Y0099805D02*
X0106001Y0099805D01*
X0106001Y0100404D02*
X0104972Y0100404D01*
X0105571Y0101002D02*
X0106001Y0101002D01*
X0108376Y0100941D02*
X0108415Y0091413D01*
X0110593Y0091426D02*
X0113324Y0091426D01*
X0113324Y0090827D02*
X0110593Y0090827D01*
X0110593Y0090229D02*
X0112802Y0090229D01*
X0112203Y0089630D02*
X0110593Y0089630D01*
X0110315Y0089032D02*
X0111605Y0089032D01*
X0111959Y0087830D02*
X0115502Y0091374D01*
X0113324Y0092025D02*
X0110593Y0092025D01*
X0110593Y0092623D02*
X0113324Y0092623D01*
X0113324Y0093222D02*
X0110593Y0093222D01*
X0110289Y0093820D02*
X0113667Y0093820D01*
X0110350Y0095616D02*
X0109498Y0095616D01*
X0109496Y0096214D02*
X0109751Y0096214D01*
X0114292Y0101002D02*
X0114788Y0101002D01*
X0114891Y0100404D02*
X0115242Y0100404D01*
X0115489Y0099805D02*
X0115840Y0099805D01*
X0121536Y0101601D02*
X0125586Y0101601D01*
X0124988Y0102199D02*
X0121536Y0102199D01*
X0121834Y0102798D02*
X0124389Y0102798D01*
X0120518Y0104593D02*
X0059329Y0104593D01*
X0059384Y0103995D02*
X0105452Y0103995D01*
X0104854Y0103396D02*
X0059384Y0103396D01*
X0059384Y0102798D02*
X0100096Y0102798D01*
X0100096Y0102199D02*
X0059384Y0102199D01*
X0059384Y0101601D02*
X0100096Y0101601D01*
X0100541Y0093578D02*
X0091053Y0093578D01*
X0093290Y0090827D02*
X0096055Y0090827D01*
X0097028Y0089130D02*
X0091053Y0089130D01*
X0087104Y0086039D02*
X0087035Y0086039D01*
X0087035Y0085441D02*
X0087576Y0085441D01*
X0087035Y0084842D02*
X0088248Y0084842D01*
X0087904Y0084244D02*
X0087035Y0084244D01*
X0087035Y0083645D02*
X0087904Y0083645D01*
X0087904Y0083047D02*
X0087035Y0083047D01*
X0087035Y0082448D02*
X0088390Y0082448D01*
X0088693Y0081850D02*
X0087035Y0081850D01*
X0087035Y0081251D02*
X0088693Y0081251D01*
X0088492Y0080653D02*
X0087945Y0080653D01*
X0088152Y0080054D02*
X0088285Y0080054D01*
X0088285Y0079456D02*
X0088152Y0079456D01*
X0088152Y0078857D02*
X0088285Y0078857D01*
X0088285Y0078259D02*
X0088152Y0078259D01*
X0088152Y0077660D02*
X0088285Y0077660D01*
X0088285Y0077062D02*
X0088152Y0077062D01*
X0086644Y0078736D02*
X0085935Y0079445D01*
X0085935Y0089130D01*
X0085935Y0093578D01*
X0089793Y0083716D02*
X0089793Y0078736D01*
X0100543Y0080653D02*
X0101091Y0080653D01*
X0100883Y0080054D02*
X0100751Y0080054D01*
X0100751Y0079456D02*
X0100883Y0079456D01*
X0100883Y0078857D02*
X0100751Y0078857D01*
X0100751Y0078259D02*
X0100883Y0078259D01*
X0100883Y0077660D02*
X0100751Y0077660D01*
X0100751Y0077062D02*
X0100883Y0077062D01*
X0103805Y0073471D02*
X0106884Y0073471D01*
X0106316Y0072872D02*
X0104373Y0072872D01*
X0104373Y0072274D02*
X0106316Y0072274D01*
X0106316Y0071675D02*
X0104373Y0071675D01*
X0104188Y0071077D02*
X0106501Y0071077D01*
X0107100Y0070478D02*
X0103589Y0070478D01*
X0107050Y0077062D02*
X0107182Y0077062D01*
X0107182Y0077660D02*
X0107050Y0077660D01*
X0107050Y0078259D02*
X0107182Y0078259D01*
X0107182Y0078857D02*
X0107050Y0078857D01*
X0107050Y0079456D02*
X0107182Y0079456D01*
X0107182Y0080054D02*
X0107050Y0080054D01*
X0106842Y0080653D02*
X0107390Y0080653D01*
X0111841Y0078736D02*
X0111959Y0087830D01*
X0112973Y0081251D02*
X0113652Y0081251D01*
X0120148Y0078259D02*
X0120410Y0078259D01*
X0123034Y0075865D02*
X0160243Y0075865D01*
X0160243Y0076463D02*
X0152235Y0076463D01*
X0152641Y0077062D02*
X0157062Y0077062D01*
X0156464Y0077660D02*
X0152641Y0077660D01*
X0154991Y0075266D02*
X0123034Y0075266D01*
X0135111Y0087619D02*
X0135618Y0087820D01*
X0137000Y0087835D02*
X0137079Y0087835D01*
X0137079Y0087236D02*
X0137000Y0087236D01*
X0136802Y0086638D02*
X0137261Y0086638D01*
X0137859Y0086039D02*
X0136203Y0086039D01*
X0136968Y0088433D02*
X0137129Y0088433D01*
X0139452Y0080653D02*
X0146316Y0080653D01*
X0146316Y0080054D02*
X0139452Y0080054D01*
X0148079Y0086638D02*
X0150721Y0086638D01*
X0150371Y0087236D02*
X0148428Y0087236D01*
X0148428Y0087835D02*
X0150371Y0087835D01*
X0150371Y0088433D02*
X0148428Y0088433D01*
X0148428Y0089032D02*
X0150371Y0089032D01*
X0150371Y0089630D02*
X0148428Y0089630D01*
X0148428Y0090229D02*
X0150371Y0090229D01*
X0150371Y0090827D02*
X0148428Y0090827D01*
X0148428Y0091426D02*
X0150371Y0091426D01*
X0150809Y0092025D02*
X0147990Y0092025D01*
X0132611Y0102299D02*
X0131988Y0102062D01*
X0132611Y0110586D02*
X0099675Y0110586D01*
X0122455Y0093820D02*
X0126038Y0093820D01*
X0149178Y0070478D02*
X0149778Y0070478D01*
X0149778Y0069880D02*
X0149178Y0069880D01*
X0149178Y0069281D02*
X0149778Y0069281D01*
X0143832Y0065092D02*
X0195647Y0065092D01*
X0195646Y0065690D02*
X0142952Y0065690D01*
X0142354Y0066289D02*
X0195645Y0066289D01*
X0195647Y0064493D02*
X0143897Y0064493D01*
X0143675Y0063894D02*
X0195648Y0063894D01*
X0195648Y0063296D02*
X0142795Y0063296D01*
X0142797Y0064572D02*
X0141399Y0064572D01*
X0141415Y0060330D02*
X0142402Y0060241D01*
X0136656Y0054318D02*
X0195658Y0054318D01*
X0195659Y0053720D02*
X0136342Y0053720D01*
X0135581Y0053121D02*
X0195659Y0053121D01*
X0195660Y0052523D02*
X0135581Y0052523D01*
X0135581Y0051924D02*
X0191019Y0051924D01*
X0191301Y0052206D02*
X0190194Y0051099D01*
X0190194Y0049534D01*
X0191301Y0048428D01*
X0192866Y0048428D01*
X0193972Y0049534D01*
X0193972Y0051099D01*
X0192866Y0052206D01*
X0191301Y0052206D01*
X0190421Y0051326D02*
X0135581Y0051326D01*
X0135581Y0050727D02*
X0146078Y0050727D01*
X0146180Y0050786D02*
X0145884Y0050615D01*
X0145642Y0050373D01*
X0145470Y0050077D01*
X0145382Y0049746D01*
X0145382Y0048103D01*
X0147760Y0048103D01*
X0147760Y0047503D01*
X0148360Y0047503D01*
X0148360Y0048103D01*
X0150738Y0048103D01*
X0150738Y0049746D01*
X0150649Y0050077D01*
X0150478Y0050373D01*
X0150236Y0050615D01*
X0149940Y0050786D01*
X0149609Y0050875D01*
X0148360Y0050875D01*
X0148360Y0048103D01*
X0147760Y0048103D01*
X0147760Y0050875D01*
X0146511Y0050875D01*
X0146180Y0050786D01*
X0145501Y0050129D02*
X0144897Y0050129D01*
X0145120Y0049530D02*
X0145382Y0049530D01*
X0145382Y0048932D02*
X0145120Y0048932D01*
X0145120Y0048333D02*
X0145382Y0048333D01*
X0145120Y0047735D02*
X0147760Y0047735D01*
X0147760Y0047503D02*
X0145382Y0047503D01*
X0145382Y0045860D01*
X0145453Y0045595D01*
X0145422Y0045482D01*
X0145422Y0043839D01*
X0147800Y0043839D01*
X0147800Y0043239D01*
X0145422Y0043239D01*
X0145422Y0041596D01*
X0145490Y0041344D01*
X0145464Y0041249D01*
X0145464Y0039606D01*
X0147842Y0039606D01*
X0147842Y0042377D01*
X0147800Y0042377D01*
X0147800Y0043239D01*
X0148400Y0043239D01*
X0148400Y0040467D01*
X0148442Y0040467D01*
X0148442Y0039606D01*
X0147842Y0039606D01*
X0147842Y0039006D01*
X0145464Y0039006D01*
X0145464Y0037363D01*
X0145513Y0037182D01*
X0145468Y0037015D01*
X0145468Y0035372D01*
X0147846Y0035372D01*
X0147846Y0034772D01*
X0148446Y0034772D01*
X0148446Y0032001D01*
X0149695Y0032001D01*
X0150026Y0032089D01*
X0150322Y0032260D01*
X0150564Y0032502D01*
X0150735Y0032799D01*
X0150824Y0033130D01*
X0150824Y0034772D01*
X0148446Y0034772D01*
X0148446Y0035372D01*
X0150824Y0035372D01*
X0150824Y0037015D01*
X0150775Y0037196D01*
X0150820Y0037363D01*
X0150820Y0039006D01*
X0148442Y0039006D01*
X0148442Y0039606D01*
X0150820Y0039606D01*
X0150820Y0041249D01*
X0150753Y0041500D01*
X0150778Y0041596D01*
X0150778Y0043239D01*
X0148400Y0043239D01*
X0148400Y0043839D01*
X0147800Y0043839D01*
X0147800Y0046611D01*
X0147760Y0046611D01*
X0147760Y0047503D01*
X0147760Y0047136D02*
X0148360Y0047136D01*
X0148360Y0047503D02*
X0148360Y0044732D01*
X0148400Y0044732D01*
X0148400Y0043839D01*
X0150778Y0043839D01*
X0150778Y0045482D01*
X0150707Y0045747D01*
X0150738Y0045860D01*
X0150738Y0047503D01*
X0148360Y0047503D01*
X0148360Y0047735D02*
X0156342Y0047735D01*
X0156265Y0047812D02*
X0157371Y0046706D01*
X0158936Y0046706D01*
X0160043Y0047812D01*
X0160043Y0049377D01*
X0158936Y0050483D01*
X0157371Y0050483D01*
X0156265Y0049377D01*
X0156265Y0047812D01*
X0156265Y0048333D02*
X0150738Y0048333D01*
X0150738Y0048932D02*
X0156265Y0048932D01*
X0156418Y0049530D02*
X0150738Y0049530D01*
X0150619Y0050129D02*
X0157016Y0050129D01*
X0159291Y0050129D02*
X0190194Y0050129D01*
X0190194Y0050727D02*
X0150042Y0050727D01*
X0148360Y0050727D02*
X0147760Y0050727D01*
X0147760Y0050129D02*
X0148360Y0050129D01*
X0148360Y0049530D02*
X0147760Y0049530D01*
X0147760Y0048932D02*
X0148360Y0048932D01*
X0148360Y0048333D02*
X0147760Y0048333D01*
X0147800Y0046538D02*
X0148360Y0046538D01*
X0148360Y0045939D02*
X0147800Y0045939D01*
X0147800Y0045341D02*
X0148360Y0045341D01*
X0148360Y0044742D02*
X0147800Y0044742D01*
X0147800Y0044144D02*
X0148400Y0044144D01*
X0148400Y0043545D02*
X0195669Y0043545D01*
X0195670Y0042947D02*
X0150778Y0042947D01*
X0150778Y0042348D02*
X0195671Y0042348D01*
X0195671Y0041750D02*
X0150778Y0041750D01*
X0150820Y0041151D02*
X0191296Y0041151D01*
X0191418Y0041273D02*
X0190312Y0040167D01*
X0190312Y0038602D01*
X0191418Y0037495D01*
X0192983Y0037495D01*
X0194090Y0038602D01*
X0194090Y0040167D01*
X0192983Y0041273D01*
X0191418Y0041273D01*
X0190698Y0040553D02*
X0150820Y0040553D01*
X0150820Y0039954D02*
X0190312Y0039954D01*
X0190312Y0039356D02*
X0148442Y0039356D01*
X0148442Y0039006D02*
X0148442Y0036234D01*
X0148446Y0036234D01*
X0148446Y0035372D01*
X0147846Y0035372D01*
X0147846Y0038144D01*
X0147842Y0038144D01*
X0147842Y0039006D01*
X0148442Y0039006D01*
X0148442Y0038757D02*
X0147842Y0038757D01*
X0147842Y0038159D02*
X0148442Y0038159D01*
X0148442Y0037560D02*
X0147846Y0037560D01*
X0147846Y0036961D02*
X0148442Y0036961D01*
X0148442Y0036363D02*
X0147846Y0036363D01*
X0147846Y0035764D02*
X0148446Y0035764D01*
X0148446Y0035166D02*
X0195678Y0035166D01*
X0195678Y0035764D02*
X0150824Y0035764D01*
X0150824Y0036363D02*
X0195677Y0036363D01*
X0195676Y0036961D02*
X0150824Y0036961D01*
X0150820Y0037560D02*
X0191353Y0037560D01*
X0190755Y0038159D02*
X0150820Y0038159D01*
X0150820Y0038757D02*
X0190312Y0038757D01*
X0193048Y0037560D02*
X0195676Y0037560D01*
X0195675Y0038159D02*
X0193646Y0038159D01*
X0194090Y0038757D02*
X0195674Y0038757D01*
X0195674Y0039356D02*
X0194090Y0039356D01*
X0194090Y0039954D02*
X0195673Y0039954D01*
X0195672Y0040553D02*
X0193704Y0040553D01*
X0193105Y0041151D02*
X0195672Y0041151D01*
X0195669Y0044144D02*
X0150778Y0044144D01*
X0150778Y0044742D02*
X0195668Y0044742D01*
X0195667Y0045341D02*
X0150778Y0045341D01*
X0150738Y0045939D02*
X0195667Y0045939D01*
X0195666Y0046538D02*
X0150738Y0046538D01*
X0150738Y0047136D02*
X0156941Y0047136D01*
X0159367Y0047136D02*
X0195666Y0047136D01*
X0195665Y0047735D02*
X0159965Y0047735D01*
X0160043Y0048333D02*
X0195664Y0048333D01*
X0195664Y0048932D02*
X0193370Y0048932D01*
X0193968Y0049530D02*
X0195663Y0049530D01*
X0195662Y0050129D02*
X0193972Y0050129D01*
X0193972Y0050727D02*
X0195662Y0050727D01*
X0195661Y0051326D02*
X0193745Y0051326D01*
X0193147Y0051924D02*
X0195660Y0051924D01*
X0190797Y0048932D02*
X0160043Y0048932D01*
X0159889Y0049530D02*
X0190198Y0049530D01*
X0195679Y0034567D02*
X0150824Y0034567D01*
X0150824Y0033969D02*
X0195679Y0033969D01*
X0195680Y0033370D02*
X0150824Y0033370D01*
X0150720Y0032772D02*
X0195681Y0032772D01*
X0195681Y0032173D02*
X0150171Y0032173D01*
X0148446Y0032173D02*
X0147846Y0032173D01*
X0147846Y0032001D02*
X0147846Y0034772D01*
X0145468Y0034772D01*
X0145468Y0033130D01*
X0145556Y0032799D01*
X0145728Y0032502D01*
X0145970Y0032260D01*
X0146266Y0032089D01*
X0146597Y0032001D01*
X0147846Y0032001D01*
X0147846Y0032772D02*
X0148446Y0032772D01*
X0148446Y0033370D02*
X0147846Y0033370D01*
X0147846Y0033969D02*
X0148446Y0033969D01*
X0148446Y0034567D02*
X0147846Y0034567D01*
X0147846Y0035166D02*
X0145206Y0035166D01*
X0145206Y0035764D02*
X0145468Y0035764D01*
X0145468Y0036363D02*
X0145206Y0036363D01*
X0145206Y0036961D02*
X0145468Y0036961D01*
X0145464Y0037560D02*
X0145202Y0037560D01*
X0145202Y0038159D02*
X0145464Y0038159D01*
X0145464Y0038757D02*
X0145202Y0038757D01*
X0145202Y0039356D02*
X0147842Y0039356D01*
X0147842Y0039954D02*
X0148442Y0039954D01*
X0148400Y0040553D02*
X0147842Y0040553D01*
X0147842Y0041151D02*
X0148400Y0041151D01*
X0148400Y0041750D02*
X0147842Y0041750D01*
X0147842Y0042348D02*
X0148400Y0042348D01*
X0148400Y0042947D02*
X0147800Y0042947D01*
X0147800Y0043545D02*
X0145160Y0043545D01*
X0145160Y0042947D02*
X0145422Y0042947D01*
X0145422Y0042348D02*
X0145160Y0042348D01*
X0145160Y0041750D02*
X0145422Y0041750D01*
X0145464Y0041151D02*
X0145202Y0041151D01*
X0145202Y0040553D02*
X0145464Y0040553D01*
X0145464Y0039954D02*
X0145202Y0039954D01*
X0145160Y0044144D02*
X0145422Y0044144D01*
X0145422Y0044742D02*
X0145160Y0044742D01*
X0145160Y0045341D02*
X0145422Y0045341D01*
X0145382Y0045939D02*
X0145120Y0045939D01*
X0145120Y0046538D02*
X0145382Y0046538D01*
X0145382Y0047136D02*
X0145120Y0047136D01*
X0140764Y0049530D02*
X0138311Y0049530D01*
X0138127Y0050129D02*
X0140986Y0050129D01*
X0133955Y0047735D02*
X0131315Y0047735D01*
X0131315Y0047541D02*
X0131315Y0048141D01*
X0130715Y0048141D01*
X0130715Y0047541D01*
X0131315Y0047541D01*
X0131315Y0046611D01*
X0131274Y0046611D01*
X0131274Y0043839D01*
X0130674Y0043839D01*
X0130674Y0043239D01*
X0128296Y0043239D01*
X0128296Y0041596D01*
X0128321Y0041506D01*
X0128262Y0041287D01*
X0128262Y0039644D01*
X0130640Y0039644D01*
X0130640Y0040467D01*
X0130674Y0040467D01*
X0130674Y0043239D01*
X0131274Y0043239D01*
X0131274Y0042416D01*
X0131240Y0042416D01*
X0131240Y0039644D01*
X0130640Y0039644D01*
X0130640Y0039044D01*
X0128262Y0039044D01*
X0128262Y0037401D01*
X0128291Y0037294D01*
X0128216Y0037016D01*
X0128216Y0035374D01*
X0130594Y0035374D01*
X0130594Y0036272D01*
X0130640Y0036272D01*
X0130640Y0039044D01*
X0131240Y0039044D01*
X0131240Y0039644D01*
X0133618Y0039644D01*
X0133618Y0041287D01*
X0133594Y0041377D01*
X0133652Y0041596D01*
X0133652Y0043239D01*
X0131274Y0043239D01*
X0131274Y0043839D01*
X0133652Y0043839D01*
X0133652Y0045482D01*
X0133617Y0045615D01*
X0133693Y0045899D01*
X0133693Y0047541D01*
X0131315Y0047541D01*
X0131315Y0047136D02*
X0130715Y0047136D01*
X0130715Y0047541D02*
X0130715Y0044770D01*
X0130674Y0044770D01*
X0130674Y0043839D01*
X0128296Y0043839D01*
X0128296Y0045482D01*
X0128373Y0045766D01*
X0128337Y0045899D01*
X0128337Y0047541D01*
X0130715Y0047541D01*
X0130715Y0047735D02*
X0126999Y0047735D01*
X0126999Y0048333D02*
X0128337Y0048333D01*
X0128337Y0048141D02*
X0130715Y0048141D01*
X0130715Y0050913D01*
X0129466Y0050913D01*
X0129135Y0050824D01*
X0128839Y0050653D01*
X0128597Y0050411D01*
X0128426Y0050115D01*
X0128337Y0049784D01*
X0128337Y0048141D01*
X0128337Y0048932D02*
X0126999Y0048932D01*
X0126999Y0049530D02*
X0128337Y0049530D01*
X0128434Y0050129D02*
X0126999Y0050129D01*
X0126999Y0050727D02*
X0128967Y0050727D01*
X0130715Y0050727D02*
X0131315Y0050727D01*
X0131315Y0050129D02*
X0130715Y0050129D01*
X0130715Y0049530D02*
X0131315Y0049530D01*
X0131315Y0048932D02*
X0130715Y0048932D01*
X0130715Y0048333D02*
X0131315Y0048333D01*
X0131274Y0046538D02*
X0130715Y0046538D01*
X0130715Y0045939D02*
X0131274Y0045939D01*
X0131274Y0045341D02*
X0130715Y0045341D01*
X0130674Y0044742D02*
X0131274Y0044742D01*
X0131274Y0044144D02*
X0130674Y0044144D01*
X0130674Y0043545D02*
X0126999Y0043545D01*
X0126999Y0042947D02*
X0128296Y0042947D01*
X0128296Y0042348D02*
X0126999Y0042348D01*
X0126999Y0041750D02*
X0128296Y0041750D01*
X0128262Y0041151D02*
X0126999Y0041151D01*
X0126999Y0040553D02*
X0128262Y0040553D01*
X0128262Y0039954D02*
X0126999Y0039954D01*
X0126999Y0039356D02*
X0130640Y0039356D01*
X0130640Y0039954D02*
X0131240Y0039954D01*
X0131240Y0039356D02*
X0133880Y0039356D01*
X0133618Y0039044D02*
X0133618Y0037401D01*
X0133544Y0037124D01*
X0133572Y0037016D01*
X0133572Y0035374D01*
X0131194Y0035374D01*
X0130594Y0035374D01*
X0130594Y0034774D01*
X0131194Y0034774D01*
X0131194Y0032002D01*
X0132444Y0032002D01*
X0132774Y0032091D01*
X0133071Y0032262D01*
X0133313Y0032504D01*
X0133484Y0032800D01*
X0133572Y0033131D01*
X0133572Y0034774D01*
X0131194Y0034774D01*
X0131194Y0035374D01*
X0131194Y0038145D01*
X0131240Y0038145D01*
X0131240Y0039044D01*
X0133618Y0039044D01*
X0133618Y0038757D02*
X0133880Y0038757D01*
X0133880Y0038159D02*
X0133618Y0038159D01*
X0133618Y0037560D02*
X0133880Y0037560D01*
X0133835Y0036961D02*
X0133572Y0036961D01*
X0133572Y0036363D02*
X0133835Y0036363D01*
X0133835Y0035764D02*
X0133572Y0035764D01*
X0133835Y0035166D02*
X0131194Y0035166D01*
X0131194Y0035764D02*
X0130594Y0035764D01*
X0130594Y0035166D02*
X0127788Y0035166D01*
X0127788Y0034567D02*
X0128216Y0034567D01*
X0128216Y0033969D02*
X0127697Y0033969D01*
X0128216Y0033370D02*
X0127099Y0033370D01*
X0127648Y0035764D02*
X0128216Y0035764D01*
X0128216Y0036363D02*
X0127049Y0036363D01*
X0126999Y0036961D02*
X0128216Y0036961D01*
X0128262Y0037560D02*
X0126999Y0037560D01*
X0126999Y0038159D02*
X0128262Y0038159D01*
X0128262Y0038757D02*
X0126999Y0038757D01*
X0124799Y0038757D02*
X0120371Y0038757D01*
X0123689Y0038159D02*
X0124799Y0038159D01*
X0124799Y0037560D02*
X0124140Y0037560D01*
X0124140Y0036961D02*
X0124799Y0036961D01*
X0124748Y0036363D02*
X0124140Y0036363D01*
X0124140Y0035764D02*
X0124150Y0035764D01*
X0124140Y0030976D02*
X0195683Y0030976D01*
X0195683Y0030378D02*
X0193583Y0030378D01*
X0193050Y0030911D02*
X0191485Y0030911D01*
X0190378Y0029804D01*
X0190378Y0028239D01*
X0191485Y0027133D01*
X0193050Y0027133D01*
X0194156Y0028239D01*
X0194156Y0029804D01*
X0193050Y0030911D01*
X0194156Y0029779D02*
X0195684Y0029779D01*
X0195684Y0029181D02*
X0194156Y0029181D01*
X0194156Y0028582D02*
X0195685Y0028582D01*
X0195686Y0027984D02*
X0193901Y0027984D01*
X0193302Y0027385D02*
X0195686Y0027385D01*
X0195687Y0026787D02*
X0126190Y0026787D01*
X0126788Y0026188D02*
X0195688Y0026188D01*
X0195688Y0025590D02*
X0127387Y0025590D01*
X0127985Y0024991D02*
X0153610Y0024991D01*
X0153607Y0024393D02*
X0128584Y0024393D01*
X0131902Y0023794D02*
X0153604Y0023794D01*
X0153601Y0023196D02*
X0132094Y0023196D01*
X0132094Y0022597D02*
X0153598Y0022597D01*
X0153595Y0021999D02*
X0132486Y0021999D01*
X0133127Y0021400D02*
X0153592Y0021400D01*
X0153589Y0020802D02*
X0133769Y0020802D01*
X0134410Y0020203D02*
X0153586Y0020203D01*
X0160896Y0027984D02*
X0124993Y0027984D01*
X0125591Y0027385D02*
X0161495Y0027385D01*
X0161927Y0026953D02*
X0163492Y0026953D01*
X0164598Y0028060D01*
X0164598Y0029625D01*
X0163492Y0030731D01*
X0161927Y0030731D01*
X0160820Y0029625D01*
X0160820Y0028060D01*
X0161927Y0026953D01*
X0160820Y0028582D02*
X0124394Y0028582D01*
X0124140Y0029181D02*
X0160820Y0029181D01*
X0160975Y0029779D02*
X0124140Y0029779D01*
X0124140Y0030378D02*
X0161573Y0030378D01*
X0163845Y0030378D02*
X0171259Y0030378D01*
X0171792Y0030911D02*
X0170685Y0029804D01*
X0170685Y0028239D01*
X0171792Y0027133D01*
X0173357Y0027133D01*
X0174463Y0028239D01*
X0174463Y0029804D01*
X0173357Y0030911D01*
X0171792Y0030911D01*
X0170685Y0029779D02*
X0164444Y0029779D01*
X0164598Y0029181D02*
X0170685Y0029181D01*
X0170685Y0028582D02*
X0164598Y0028582D01*
X0164522Y0027984D02*
X0170941Y0027984D01*
X0171539Y0027385D02*
X0163924Y0027385D01*
X0173609Y0027385D02*
X0181924Y0027385D01*
X0182130Y0027180D02*
X0183694Y0027180D01*
X0184801Y0028287D01*
X0184801Y0029852D01*
X0183694Y0030958D01*
X0182130Y0030958D01*
X0181023Y0029852D01*
X0181023Y0028287D01*
X0182130Y0027180D01*
X0181326Y0027984D02*
X0174208Y0027984D01*
X0174463Y0028582D02*
X0181023Y0028582D01*
X0181023Y0029181D02*
X0174463Y0029181D01*
X0174463Y0029779D02*
X0181023Y0029779D01*
X0181549Y0030378D02*
X0173890Y0030378D01*
X0184275Y0030378D02*
X0190952Y0030378D01*
X0190378Y0029779D02*
X0184801Y0029779D01*
X0184801Y0029181D02*
X0190378Y0029181D01*
X0190378Y0028582D02*
X0184801Y0028582D01*
X0184498Y0027984D02*
X0190634Y0027984D01*
X0191233Y0027385D02*
X0183900Y0027385D01*
X0195682Y0031575D02*
X0113952Y0031575D01*
X0113779Y0034567D02*
X0118603Y0034567D01*
X0118603Y0035166D02*
X0113952Y0035166D01*
X0121372Y0028518D02*
X0121913Y0028518D01*
X0130594Y0032173D02*
X0131194Y0032173D01*
X0131194Y0032772D02*
X0130594Y0032772D01*
X0130594Y0033370D02*
X0131194Y0033370D01*
X0131194Y0033969D02*
X0130594Y0033969D01*
X0130594Y0034567D02*
X0131194Y0034567D01*
X0131194Y0036363D02*
X0130640Y0036363D01*
X0130640Y0036961D02*
X0131194Y0036961D01*
X0131194Y0037560D02*
X0130640Y0037560D01*
X0130640Y0038159D02*
X0131240Y0038159D01*
X0131240Y0038757D02*
X0130640Y0038757D01*
X0130674Y0040553D02*
X0131240Y0040553D01*
X0131240Y0041151D02*
X0130674Y0041151D01*
X0130674Y0041750D02*
X0131240Y0041750D01*
X0131240Y0042348D02*
X0130674Y0042348D01*
X0130674Y0042947D02*
X0131274Y0042947D01*
X0131274Y0043545D02*
X0133915Y0043545D01*
X0133915Y0042947D02*
X0133652Y0042947D01*
X0133652Y0042348D02*
X0133915Y0042348D01*
X0133915Y0041750D02*
X0133652Y0041750D01*
X0133618Y0041151D02*
X0133880Y0041151D01*
X0133880Y0040553D02*
X0133618Y0040553D01*
X0133618Y0039954D02*
X0133880Y0039954D01*
X0133915Y0044144D02*
X0133652Y0044144D01*
X0133652Y0044742D02*
X0133915Y0044742D01*
X0133915Y0045341D02*
X0133652Y0045341D01*
X0133693Y0045939D02*
X0133955Y0045939D01*
X0133955Y0046538D02*
X0133693Y0046538D01*
X0133693Y0047136D02*
X0133955Y0047136D01*
X0133803Y0048333D02*
X0133693Y0048333D01*
X0132981Y0051326D02*
X0126999Y0051326D01*
X0126999Y0051924D02*
X0132981Y0051924D01*
X0132981Y0052523D02*
X0126999Y0052523D01*
X0126622Y0053121D02*
X0132981Y0053121D01*
X0128337Y0047136D02*
X0126999Y0047136D01*
X0126999Y0046538D02*
X0128337Y0046538D01*
X0128337Y0045939D02*
X0126999Y0045939D01*
X0126999Y0045341D02*
X0128296Y0045341D01*
X0128296Y0044742D02*
X0126999Y0044742D01*
X0126999Y0044144D02*
X0128296Y0044144D01*
X0124799Y0044144D02*
X0123534Y0044144D01*
X0123534Y0044742D02*
X0124799Y0044742D01*
X0124799Y0045341D02*
X0123534Y0045341D01*
X0123327Y0045939D02*
X0124799Y0045939D01*
X0124799Y0046538D02*
X0123466Y0046538D01*
X0123534Y0047136D02*
X0124799Y0047136D01*
X0124799Y0047735D02*
X0123534Y0047735D01*
X0123534Y0048333D02*
X0124799Y0048333D01*
X0124799Y0048932D02*
X0123418Y0048932D01*
X0122845Y0049530D02*
X0124799Y0049530D01*
X0124799Y0050129D02*
X0123034Y0050129D01*
X0123034Y0050727D02*
X0124799Y0050727D01*
X0124799Y0051326D02*
X0123034Y0051326D01*
X0122973Y0051924D02*
X0124708Y0051924D01*
X0124109Y0052523D02*
X0123308Y0052523D01*
X0120911Y0047136D02*
X0120802Y0047136D01*
X0120802Y0046538D02*
X0120911Y0046538D01*
X0120911Y0045939D02*
X0120802Y0045939D01*
X0120802Y0045341D02*
X0120911Y0045341D01*
X0123508Y0043545D02*
X0124799Y0043545D01*
X0124799Y0042947D02*
X0123205Y0042947D01*
X0133572Y0034567D02*
X0133835Y0034567D01*
X0133835Y0033969D02*
X0133572Y0033969D01*
X0133572Y0033370D02*
X0133835Y0033370D01*
X0134033Y0032772D02*
X0133467Y0032772D01*
X0132918Y0032173D02*
X0146120Y0032173D01*
X0145572Y0032772D02*
X0145008Y0032772D01*
X0145206Y0033370D02*
X0145468Y0033370D01*
X0145468Y0033969D02*
X0145206Y0033969D01*
X0145206Y0034567D02*
X0145468Y0034567D01*
X0140850Y0033370D02*
X0138191Y0033370D01*
X0137992Y0032772D02*
X0141047Y0032772D01*
X0158257Y0074668D02*
X0161104Y0074668D01*
X0160506Y0075266D02*
X0157745Y0075266D01*
X0158993Y0077062D02*
X0160243Y0077062D01*
X0160810Y0077660D02*
X0159591Y0077660D01*
X0081368Y0040359D02*
X0081229Y0040479D01*
X0078593Y0040488D01*
X0070094Y0040560D01*
X0068205Y0040553D02*
X0059384Y0040553D01*
X0059384Y0041151D02*
X0068205Y0041151D01*
X0068612Y0041750D02*
X0059384Y0041750D01*
X0059384Y0042348D02*
X0069210Y0042348D01*
X0070977Y0042348D02*
X0080427Y0042348D01*
X0079829Y0041750D02*
X0071575Y0041750D01*
X0071560Y0039356D02*
X0077452Y0039356D01*
X0076853Y0038757D02*
X0070962Y0038757D01*
X0069225Y0038757D02*
X0059384Y0038757D01*
X0059384Y0038159D02*
X0076592Y0038159D01*
X0076592Y0037560D02*
X0059384Y0037560D01*
X0059384Y0036961D02*
X0076592Y0036961D01*
X0077159Y0036363D02*
X0059384Y0036363D01*
X0059384Y0039356D02*
X0068627Y0039356D01*
X0068205Y0039954D02*
X0059384Y0039954D01*
X0079509Y0039356D02*
X0079681Y0039356D01*
X0080108Y0038757D02*
X0080280Y0038757D01*
D29*
X0081229Y0040479D03*
X0078481Y0037713D03*
X0070094Y0040560D03*
X0071650Y0048412D03*
X0068022Y0051098D03*
X0068047Y0055399D03*
X0074281Y0053618D03*
X0078888Y0053657D03*
X0089728Y0030450D03*
X0093801Y0030441D03*
X0106910Y0031239D03*
X0116083Y0028594D03*
X0125899Y0034842D03*
X0133122Y0010536D03*
X0128959Y0005219D03*
X0141287Y0005050D03*
X0151493Y0005106D03*
X0151235Y0017417D03*
X0162709Y0028842D03*
X0172574Y0029022D03*
X0182912Y0029069D03*
X0192267Y0029022D03*
X0192201Y0039384D03*
X0192083Y0050317D03*
X0162132Y0076311D03*
X0158027Y0078768D03*
X0156368Y0073972D03*
X0158045Y0067329D03*
X0150275Y0059122D03*
X0141415Y0060330D03*
X0141399Y0064572D03*
X0139596Y0072830D03*
X0126485Y0079700D03*
X0121592Y0079748D03*
X0118573Y0083027D03*
X0111137Y0097500D03*
X0116677Y0101640D03*
X0122825Y0101966D03*
X0132611Y0102299D03*
X0135111Y0087619D03*
X0138968Y0087602D03*
X0166645Y0091078D03*
X0166560Y0096473D03*
X0172705Y0103512D03*
X0192744Y0101297D03*
X0193101Y0089921D03*
X0158154Y0048595D03*
X0153199Y0043834D03*
X0103691Y0096728D03*
X0097028Y0089130D03*
X0096575Y0083216D03*
X0089793Y0083716D03*
X0069241Y0075995D03*
X0052857Y0076877D03*
X0053053Y0067865D03*
X0053053Y0057580D03*
X0053079Y0047703D03*
X0053368Y0036452D03*
X0053450Y0025043D03*
X0053661Y0012535D03*
X0095483Y0014628D03*
X0052625Y0091104D03*
X0068428Y0103291D03*
X0099865Y0121242D03*
D30*
X0153140Y0089287D02*
X0158027Y0084793D01*
X0158027Y0078768D01*
X0150275Y0059122D02*
X0147093Y0055941D01*
X0134281Y0055941D01*
X0134281Y0049693D01*
X0136133Y0047841D01*
X0136171Y0047803D01*
X0142942Y0047803D01*
X0142942Y0043580D01*
X0142982Y0043539D01*
X0136093Y0043539D01*
X0136133Y0043580D01*
X0136133Y0047841D01*
X0136093Y0043539D02*
X0136058Y0043505D01*
X0136058Y0039344D01*
X0142986Y0039344D01*
X0143024Y0039306D01*
X0143024Y0035076D01*
X0143028Y0035072D01*
X0143027Y0035074D01*
X0136013Y0035074D01*
X0136013Y0039298D01*
X0136058Y0039344D01*
X0130974Y0039344D02*
X0130940Y0039344D01*
X0130940Y0035074D01*
X0130894Y0035074D01*
X0130974Y0039344D02*
X0130974Y0043539D01*
X0131015Y0043539D01*
X0131015Y0046952D01*
X0128967Y0049000D01*
X0128967Y0056807D01*
X0131015Y0047841D02*
X0131015Y0046952D01*
X0142982Y0043539D02*
X0142982Y0039348D01*
X0143024Y0039306D01*
X0148060Y0043539D02*
X0148100Y0043539D01*
X0148100Y0043834D01*
X0153199Y0043834D01*
X0148100Y0043539D02*
X0148100Y0039306D01*
X0148142Y0039306D01*
X0148142Y0035072D01*
X0148146Y0035072D01*
X0148060Y0043539D02*
X0148060Y0047803D01*
X0116083Y0028594D02*
X0116112Y0026118D01*
X0113025Y0023031D01*
X0113025Y0020591D01*
X0089793Y0039838D02*
X0085935Y0035980D01*
X0089793Y0039838D02*
X0089793Y0041807D01*
D31*
X0129129Y0021302D02*
X0140738Y0010468D01*
X0164439Y0010468D01*
X0132611Y0102299D02*
X0132611Y0110586D01*
X0099865Y0121242D02*
X0099675Y0191492D01*
X0007436Y0082345D02*
X0011507Y0078412D01*
X0027117Y0078412D01*
X0031058Y0074471D01*
X0027181Y0070474D02*
X0011433Y0070474D01*
X0007436Y0074471D01*
X0007436Y0066597D02*
X0011522Y0062511D01*
X0027358Y0062511D01*
X0031058Y0058810D01*
X0031058Y0058723D01*
X0027136Y0054801D02*
X0031058Y0050879D01*
X0031058Y0050849D01*
X0027280Y0046817D02*
X0031058Y0043039D01*
X0031058Y0042975D01*
X0027280Y0046817D02*
X0011468Y0046817D01*
X0007436Y0050849D01*
X0011357Y0054801D02*
X0027136Y0054801D01*
X0031058Y0066597D02*
X0027181Y0070474D01*
X0011357Y0054801D02*
X0007436Y0058723D01*
X0007436Y0042975D02*
X0011427Y0038984D01*
X0027175Y0038984D01*
X0031058Y0035101D01*
X0031058Y0035101D01*
X0027189Y0031135D02*
X0031058Y0027266D01*
X0031058Y0027227D01*
X0027189Y0031135D02*
X0011402Y0031135D01*
X0007436Y0035101D01*
X0007436Y0027227D02*
X0011436Y0023227D01*
X0027234Y0023227D01*
X0031058Y0019403D01*
X0031058Y0019353D01*
X0027374Y0015246D02*
X0031058Y0011562D01*
X0031058Y0011479D01*
X0027374Y0015246D02*
X0011542Y0015246D01*
X0007436Y0019353D01*
D32*
X0092628Y0035980D02*
X0098573Y0035980D01*
X0099872Y0037279D02*
X0111141Y0037279D01*
X0111183Y0037237D02*
X0119345Y0037237D01*
X0121372Y0035211D01*
X0121913Y0028518D02*
X0129129Y0021302D01*
M02*
