G75*
%MOIN*%
%OFA0B0*%
%FSLAX25Y25*%
%IPPOS*%
%LPD*%
%AMOC8*
5,1,8,0,0,1.08239X$1,22.5*
%
%ADD10R,0.02756X0.03543*%
%ADD11R,0.04724X0.03150*%
%ADD12R,1.92913X0.19685*%
%ADD13R,1.92913X0.09843*%
%ADD14C,0.02362*%
%ADD15R,0.02756X0.01417*%
%ADD16R,0.01417X0.02756*%
%ADD17R,0.03150X0.03150*%
%ADD18R,0.04331X0.03937*%
%ADD19R,0.03543X0.02756*%
%ADD20C,0.01063*%
%ADD21R,0.03937X0.03937*%
%ADD22R,0.03937X0.07874*%
%ADD23C,0.02978*%
%ADD24C,0.07400*%
%ADD25C,0.00600*%
%ADD26C,0.02178*%
%ADD27C,0.01000*%
%ADD28C,0.04000*%
%ADD29C,0.01800*%
%ADD30C,0.02000*%
D10*
X0086198Y0089130D03*
X0086198Y0093578D03*
X0091316Y0093578D03*
X0091316Y0089130D03*
X0103561Y0091413D03*
X0108679Y0091413D03*
X0115765Y0091374D03*
X0120883Y0091374D03*
X0132419Y0078972D03*
X0137537Y0078972D03*
X0136396Y0047841D03*
X0136356Y0043539D03*
X0136321Y0039344D03*
X0136276Y0035074D03*
X0131158Y0035074D03*
X0131203Y0039344D03*
X0131238Y0043539D03*
X0131278Y0047841D03*
X0143205Y0047803D03*
X0143246Y0043539D03*
X0143287Y0039306D03*
X0143291Y0035072D03*
X0148409Y0035072D03*
X0148405Y0039306D03*
X0148364Y0043539D03*
X0148323Y0047803D03*
D11*
X0149742Y0071689D03*
X0149742Y0078775D03*
D12*
X0099677Y0119286D03*
D13*
X0099677Y0191530D03*
D14*
X0096749Y0072082D03*
X0090844Y0072082D03*
X0090844Y0066177D03*
X0096749Y0066177D03*
X0096749Y0060271D03*
X0090844Y0060271D03*
X0090844Y0054366D03*
X0096749Y0054366D03*
X0096749Y0048460D03*
X0090844Y0048460D03*
X0102655Y0048460D03*
X0108561Y0048460D03*
X0114466Y0048460D03*
X0114466Y0054366D03*
X0114466Y0060271D03*
X0108561Y0060271D03*
X0108561Y0054366D03*
X0102655Y0054366D03*
X0102655Y0060271D03*
X0102655Y0066177D03*
X0102655Y0072082D03*
X0108561Y0072082D03*
X0114466Y0072082D03*
X0114466Y0066177D03*
X0108561Y0066177D03*
D15*
X0121120Y0066571D03*
X0121120Y0069720D03*
X0121120Y0072870D03*
X0121120Y0076019D03*
X0121120Y0063421D03*
X0121120Y0060271D03*
X0121120Y0057122D03*
X0121120Y0053972D03*
X0121120Y0050823D03*
X0121120Y0047673D03*
X0121120Y0044523D03*
X0084190Y0044523D03*
X0084190Y0047673D03*
X0084190Y0050823D03*
X0084190Y0053972D03*
X0084190Y0057122D03*
X0084190Y0060271D03*
X0084190Y0063421D03*
X0084190Y0066571D03*
X0084190Y0069720D03*
X0084190Y0072870D03*
X0084190Y0076019D03*
D16*
X0086907Y0078736D03*
X0090057Y0078736D03*
X0093206Y0078736D03*
X0096356Y0078736D03*
X0099505Y0078736D03*
X0102655Y0078736D03*
X0105805Y0078736D03*
X0108954Y0078736D03*
X0112104Y0078736D03*
X0115253Y0078736D03*
X0118403Y0078736D03*
X0118403Y0041807D03*
X0115253Y0041807D03*
X0112104Y0041807D03*
X0108954Y0041807D03*
X0105805Y0041807D03*
X0102655Y0041807D03*
X0099505Y0041807D03*
X0096356Y0041807D03*
X0093206Y0041807D03*
X0090057Y0041807D03*
X0086907Y0041807D03*
D17*
X0134545Y0055941D03*
X0134545Y0061846D03*
X0108639Y0100941D03*
X0102734Y0100941D03*
D18*
X0122699Y0021302D03*
X0129392Y0021302D03*
D19*
X0129230Y0056807D03*
X0129230Y0061925D03*
X0138493Y0092936D03*
X0138493Y0098054D03*
X0077773Y0069760D03*
X0077773Y0064641D03*
D20*
X0128442Y0090665D03*
X0128442Y0092634D03*
X0128442Y0094602D03*
X0130411Y0094602D03*
X0132379Y0094602D03*
X0132379Y0092634D03*
X0130411Y0092634D03*
X0130411Y0090665D03*
X0132379Y0090665D03*
D21*
X0145923Y0089287D03*
X0153403Y0089287D03*
X0153403Y0098736D03*
X0145923Y0098736D03*
D22*
X0164702Y0010468D03*
X0192261Y0010468D03*
D23*
X0007699Y0011479D03*
X0007699Y0019353D03*
X0007699Y0027227D03*
X0007699Y0035101D03*
X0007699Y0042975D03*
X0007699Y0050849D03*
X0007699Y0058723D03*
X0007699Y0066597D03*
X0007699Y0074471D03*
X0007699Y0082345D03*
X0031321Y0074471D03*
X0031321Y0066597D03*
X0031321Y0058723D03*
X0031321Y0050849D03*
X0031321Y0042975D03*
X0031321Y0035101D03*
X0031321Y0027227D03*
X0031321Y0019353D03*
X0031321Y0011479D03*
D24*
X0085268Y0102804D03*
X0095268Y0102804D03*
D25*
X0091902Y0099805D02*
X0088633Y0099805D01*
X0089083Y0100255D02*
X0089768Y0101909D01*
X0089768Y0103699D01*
X0089390Y0104612D01*
X0091146Y0104612D01*
X0090768Y0103699D01*
X0090768Y0101909D01*
X0091453Y0100255D01*
X0092719Y0098989D01*
X0094373Y0098304D01*
X0096163Y0098304D01*
X0097817Y0098989D01*
X0099083Y0100255D01*
X0099768Y0101909D01*
X0099768Y0103699D01*
X0099388Y0104616D01*
X0120814Y0104626D01*
X0119600Y0103412D01*
X0119600Y0102740D01*
X0118511Y0102740D01*
X0117723Y0103529D01*
X0116158Y0103529D01*
X0115051Y0102422D01*
X0115051Y0100858D01*
X0116158Y0099751D01*
X0117723Y0099751D01*
X0118511Y0100540D01*
X0119600Y0100540D01*
X0119600Y0100521D01*
X0120244Y0099877D01*
X0125975Y0094146D01*
X0126387Y0093734D01*
X0122804Y0093734D01*
X0122593Y0093945D01*
X0121613Y0093945D01*
X0111042Y0104515D01*
X0106236Y0104515D01*
X0104838Y0103117D01*
X0104640Y0103315D01*
X0100828Y0103315D01*
X0100359Y0102847D01*
X0100359Y0099034D01*
X0100828Y0098566D01*
X0104640Y0098566D01*
X0105109Y0099034D01*
X0105109Y0100277D01*
X0106264Y0101433D01*
X0106264Y0099034D01*
X0106733Y0098566D01*
X0107549Y0098566D01*
X0107568Y0093985D01*
X0106969Y0093985D01*
X0106501Y0093516D01*
X0106501Y0090033D01*
X0106391Y0090146D01*
X0106384Y0090146D01*
X0105738Y0090791D01*
X0105738Y0093516D01*
X0105270Y0093985D01*
X0101851Y0093985D01*
X0101383Y0093516D01*
X0101383Y0090791D01*
X0099180Y0088589D01*
X0099180Y0089912D01*
X0098074Y0091019D01*
X0096509Y0091019D01*
X0095720Y0090230D01*
X0093494Y0090230D01*
X0093494Y0090768D01*
X0093735Y0091009D01*
X0093906Y0091305D01*
X0093994Y0091636D01*
X0093994Y0093278D01*
X0091616Y0093278D01*
X0091616Y0093878D01*
X0091016Y0093878D01*
X0091016Y0096650D01*
X0089767Y0096650D01*
X0089437Y0096561D01*
X0089282Y0096472D01*
X0088932Y0096823D01*
X0088405Y0097350D01*
X0083992Y0097350D01*
X0071056Y0084414D01*
X0071056Y0056117D01*
X0068433Y0052987D01*
X0067502Y0052987D01*
X0066396Y0051881D01*
X0066396Y0050316D01*
X0067502Y0049209D01*
X0069067Y0049209D01*
X0070174Y0050316D01*
X0070174Y0051640D01*
X0072968Y0054973D01*
X0073256Y0055261D01*
X0073256Y0055317D01*
X0073292Y0055360D01*
X0073256Y0055765D01*
X0073256Y0070878D01*
X0073328Y0070657D01*
X0073434Y0055178D01*
X0072656Y0054400D01*
X0072656Y0052835D01*
X0073762Y0051729D01*
X0075327Y0051729D01*
X0076434Y0052835D01*
X0076434Y0054400D01*
X0075634Y0055200D01*
X0075583Y0062550D01*
X0075670Y0062463D01*
X0076699Y0062463D01*
X0076791Y0054910D01*
X0076791Y0054461D01*
X0076797Y0054456D01*
X0076797Y0054448D01*
X0077118Y0054135D01*
X0077262Y0053991D01*
X0077262Y0052875D01*
X0078369Y0051768D01*
X0079933Y0051768D01*
X0081040Y0052875D01*
X0081040Y0054440D01*
X0079933Y0055546D01*
X0078984Y0055546D01*
X0078900Y0062463D01*
X0079876Y0062463D01*
X0080345Y0062932D01*
X0080345Y0066351D01*
X0079876Y0066819D01*
X0075670Y0066819D01*
X0075555Y0066704D01*
X0075548Y0067704D01*
X0075670Y0067582D01*
X0079876Y0067582D01*
X0080345Y0068050D01*
X0080345Y0068620D01*
X0082072Y0068620D01*
X0082481Y0068212D01*
X0085900Y0068212D01*
X0086368Y0068680D01*
X0086368Y0070760D01*
X0085900Y0071229D01*
X0082481Y0071229D01*
X0082072Y0070820D01*
X0080345Y0070820D01*
X0080345Y0071469D01*
X0079876Y0071937D01*
X0076221Y0071937D01*
X0077718Y0074880D01*
X0081177Y0074880D01*
X0081184Y0074873D01*
X0081631Y0074880D01*
X0082079Y0074880D01*
X0082086Y0074887D01*
X0082105Y0074887D01*
X0082481Y0074511D01*
X0085900Y0074511D01*
X0086368Y0074979D01*
X0086368Y0076558D01*
X0087947Y0076558D01*
X0088416Y0077027D01*
X0088416Y0080445D01*
X0087947Y0080914D01*
X0087298Y0080914D01*
X0087298Y0086558D01*
X0087370Y0086558D01*
X0087370Y0086373D01*
X0087366Y0085923D01*
X0087370Y0085919D01*
X0087370Y0085913D01*
X0087689Y0085594D01*
X0088004Y0085273D01*
X0088010Y0085273D01*
X0088015Y0085268D01*
X0088465Y0085268D01*
X0088916Y0085264D01*
X0088920Y0085268D01*
X0088937Y0085268D01*
X0088168Y0084499D01*
X0088168Y0082934D01*
X0088957Y0082145D01*
X0088957Y0080854D01*
X0088548Y0080445D01*
X0088548Y0077027D01*
X0089017Y0076558D01*
X0091097Y0076558D01*
X0091565Y0077027D01*
X0091565Y0080445D01*
X0091157Y0080854D01*
X0091157Y0082145D01*
X0091946Y0082934D01*
X0091946Y0084499D01*
X0091176Y0085268D01*
X0098971Y0085268D01*
X0099616Y0085913D01*
X0102544Y0088841D01*
X0104577Y0088841D01*
X0104817Y0088600D01*
X0104729Y0080878D01*
X0104296Y0080445D01*
X0104296Y0077027D01*
X0104765Y0076558D01*
X0106845Y0076558D01*
X0107313Y0077027D01*
X0107313Y0080445D01*
X0106929Y0080830D01*
X0107017Y0088590D01*
X0107023Y0088595D01*
X0107023Y0088841D01*
X0110388Y0088841D01*
X0110857Y0089310D01*
X0110857Y0093516D01*
X0110388Y0093985D01*
X0109768Y0093985D01*
X0109758Y0096471D01*
X0110618Y0095611D01*
X0112183Y0095611D01*
X0113290Y0096717D01*
X0113290Y0098282D01*
X0112183Y0099389D01*
X0111014Y0099389D01*
X0111014Y0101433D01*
X0118838Y0093609D01*
X0118705Y0093477D01*
X0118705Y0090751D01*
X0118380Y0090426D01*
X0117943Y0089989D01*
X0117943Y0093477D01*
X0117475Y0093945D01*
X0114056Y0093945D01*
X0113587Y0093477D01*
X0113587Y0090751D01*
X0111449Y0088613D01*
X0111128Y0088300D01*
X0111128Y0088292D01*
X0111122Y0088286D01*
X0111122Y0087838D01*
X0111032Y0080882D01*
X0110595Y0080445D01*
X0110595Y0077027D01*
X0111064Y0076558D01*
X0113144Y0076558D01*
X0113373Y0076787D01*
X0113505Y0076560D01*
X0113747Y0076318D01*
X0114043Y0076147D01*
X0114374Y0076058D01*
X0115199Y0076058D01*
X0115199Y0078682D01*
X0115308Y0078682D01*
X0116394Y0078682D01*
X0118349Y0078682D01*
X0118349Y0078790D01*
X0115308Y0078790D01*
X0115308Y0078682D01*
X0115308Y0076058D01*
X0116133Y0076058D01*
X0116464Y0076147D01*
X0116760Y0076318D01*
X0116828Y0076386D01*
X0116896Y0076318D01*
X0117193Y0076147D01*
X0117523Y0076058D01*
X0118349Y0076058D01*
X0118349Y0078682D01*
X0118457Y0078682D01*
X0118457Y0076058D01*
X0118942Y0076058D01*
X0118942Y0074979D01*
X0119410Y0074511D01*
X0122829Y0074511D01*
X0123298Y0074979D01*
X0123298Y0077059D01*
X0122829Y0077528D01*
X0120412Y0077528D01*
X0120412Y0078520D01*
X0121073Y0077859D01*
X0122638Y0077859D01*
X0123744Y0078965D01*
X0123744Y0080081D01*
X0128898Y0085235D01*
X0129311Y0085648D01*
X0129311Y0083657D01*
X0127138Y0081589D01*
X0125966Y0081589D01*
X0124859Y0080483D01*
X0124859Y0078918D01*
X0125966Y0077811D01*
X0127531Y0077811D01*
X0128637Y0078918D01*
X0128637Y0079979D01*
X0130851Y0082085D01*
X0130867Y0082085D01*
X0131179Y0082397D01*
X0131279Y0082493D01*
X0131279Y0081544D01*
X0130709Y0081544D01*
X0130241Y0081075D01*
X0130241Y0076869D01*
X0130709Y0076400D01*
X0134128Y0076400D01*
X0134597Y0076869D01*
X0134597Y0081075D01*
X0134128Y0081544D01*
X0133479Y0081544D01*
X0133479Y0089882D01*
X0133711Y0090114D01*
X0133711Y0090997D01*
X0133819Y0090997D01*
X0135308Y0089508D01*
X0134592Y0089508D01*
X0133485Y0088401D01*
X0133485Y0086836D01*
X0134592Y0085730D01*
X0136157Y0085730D01*
X0137263Y0086836D01*
X0137263Y0088401D01*
X0136792Y0088873D01*
X0137831Y0088873D01*
X0137343Y0088384D01*
X0137343Y0086819D01*
X0138449Y0085713D01*
X0139895Y0085713D01*
X0136437Y0082255D01*
X0136437Y0081544D01*
X0135828Y0081544D01*
X0135359Y0081075D01*
X0135359Y0076869D01*
X0135828Y0076400D01*
X0139246Y0076400D01*
X0139715Y0076869D01*
X0139715Y0077675D01*
X0146579Y0077675D01*
X0146579Y0076869D01*
X0147048Y0076400D01*
X0152435Y0076400D01*
X0152904Y0076869D01*
X0152904Y0077675D01*
X0154185Y0077675D01*
X0156716Y0077671D01*
X0157508Y0076879D01*
X0159073Y0076879D01*
X0160180Y0077985D01*
X0160180Y0079550D01*
X0159591Y0080139D01*
X0159591Y0084286D01*
X0159612Y0084310D01*
X0159591Y0084820D01*
X0159591Y0085332D01*
X0159568Y0085354D01*
X0159567Y0085386D01*
X0159191Y0085732D01*
X0158829Y0086093D01*
X0158798Y0086093D01*
X0156172Y0088508D01*
X0156172Y0091587D01*
X0155703Y0092056D01*
X0151103Y0092056D01*
X0150635Y0091587D01*
X0150635Y0086987D01*
X0151103Y0086519D01*
X0154493Y0086519D01*
X0156991Y0084222D01*
X0156991Y0080139D01*
X0156722Y0079871D01*
X0154640Y0079874D01*
X0154639Y0079875D01*
X0154182Y0079875D01*
X0153730Y0079876D01*
X0153729Y0079875D01*
X0152904Y0079875D01*
X0152904Y0080681D01*
X0152435Y0081150D01*
X0147048Y0081150D01*
X0146579Y0080681D01*
X0146579Y0079875D01*
X0139715Y0079875D01*
X0139715Y0081075D01*
X0139246Y0081544D01*
X0138837Y0081544D01*
X0143432Y0086138D01*
X0143432Y0086709D01*
X0143623Y0086519D01*
X0148223Y0086519D01*
X0148691Y0086987D01*
X0148691Y0091587D01*
X0148223Y0092056D01*
X0144863Y0092056D01*
X0142265Y0094869D01*
X0142265Y0095142D01*
X0141620Y0095786D01*
X0141064Y0096343D01*
X0141065Y0096345D01*
X0141065Y0099070D01*
X0142499Y0100504D01*
X0142654Y0100504D01*
X0142654Y0099036D01*
X0145623Y0099036D01*
X0145623Y0098436D01*
X0146223Y0098436D01*
X0146223Y0099036D01*
X0149191Y0099036D01*
X0149191Y0099122D01*
X0150635Y0097678D01*
X0150635Y0096436D01*
X0151103Y0095967D01*
X0155703Y0095967D01*
X0156172Y0096436D01*
X0156172Y0097498D01*
X0160884Y0097265D01*
X0160906Y0097242D01*
X0161335Y0097242D01*
X0161763Y0097221D01*
X0161786Y0097242D01*
X0161817Y0097242D01*
X0162120Y0097545D01*
X0162438Y0097833D01*
X0162440Y0097864D01*
X0166955Y0102380D01*
X0171429Y0102380D01*
X0172186Y0101623D01*
X0173751Y0101623D01*
X0174857Y0102729D01*
X0174857Y0104294D01*
X0174502Y0104650D01*
X0195801Y0104659D01*
X0195952Y0025287D01*
X0153955Y0025118D01*
X0153896Y0013268D01*
X0142105Y0013268D01*
X0132358Y0022364D01*
X0132358Y0023602D01*
X0131889Y0024070D01*
X0129983Y0024070D01*
X0129852Y0024119D01*
X0129145Y0024095D01*
X0114110Y0039130D01*
X0112987Y0039130D01*
X0113314Y0039217D01*
X0113611Y0039389D01*
X0113679Y0039457D01*
X0113747Y0039389D01*
X0114043Y0039217D01*
X0114374Y0039129D01*
X0115199Y0039129D01*
X0115199Y0041752D01*
X0115308Y0041752D01*
X0115308Y0039129D01*
X0116133Y0039129D01*
X0116464Y0039217D01*
X0116760Y0039389D01*
X0117002Y0039631D01*
X0117134Y0039858D01*
X0117363Y0039629D01*
X0119443Y0039629D01*
X0119912Y0040097D01*
X0119912Y0042515D01*
X0121065Y0042515D01*
X0121065Y0044469D01*
X0118442Y0044469D01*
X0118442Y0043985D01*
X0117363Y0043985D01*
X0117134Y0043755D01*
X0117002Y0043983D01*
X0116760Y0044225D01*
X0116464Y0044396D01*
X0116133Y0044485D01*
X0115308Y0044485D01*
X0115308Y0041861D01*
X0115199Y0041861D01*
X0115199Y0041752D01*
X0113245Y0041752D01*
X0112158Y0041752D01*
X0112158Y0041861D01*
X0112049Y0041861D01*
X0112049Y0044485D01*
X0111224Y0044485D01*
X0110893Y0044396D01*
X0110597Y0044225D01*
X0110355Y0043983D01*
X0110224Y0043755D01*
X0109994Y0043985D01*
X0107914Y0043985D01*
X0107685Y0043755D01*
X0107554Y0043983D01*
X0107311Y0044225D01*
X0107015Y0044396D01*
X0106684Y0044485D01*
X0105859Y0044485D01*
X0105859Y0041861D01*
X0105750Y0041861D01*
X0105750Y0041752D01*
X0103796Y0041752D01*
X0102709Y0041752D01*
X0102709Y0041861D01*
X0102601Y0041861D01*
X0102601Y0044485D01*
X0101775Y0044485D01*
X0101445Y0044396D01*
X0101148Y0044225D01*
X0101080Y0044157D01*
X0101012Y0044225D01*
X0100716Y0044396D01*
X0100385Y0044485D01*
X0099560Y0044485D01*
X0099560Y0041861D01*
X0101514Y0041861D01*
X0102601Y0041861D01*
X0102601Y0041752D01*
X0099560Y0041752D01*
X0099560Y0041861D01*
X0099451Y0041861D01*
X0099451Y0044485D01*
X0098626Y0044485D01*
X0098295Y0044396D01*
X0097998Y0044225D01*
X0097756Y0043983D01*
X0097625Y0043755D01*
X0097396Y0043985D01*
X0095316Y0043985D01*
X0095086Y0043755D01*
X0094955Y0043983D01*
X0094713Y0044225D01*
X0094417Y0044396D01*
X0094086Y0044485D01*
X0093261Y0044485D01*
X0093261Y0041861D01*
X0093152Y0041861D01*
X0093152Y0044485D01*
X0092326Y0044485D01*
X0091996Y0044396D01*
X0091699Y0044225D01*
X0091457Y0043983D01*
X0091326Y0043755D01*
X0091097Y0043985D01*
X0089017Y0043985D01*
X0088787Y0043755D01*
X0088656Y0043983D01*
X0088414Y0044225D01*
X0088117Y0044396D01*
X0087787Y0044485D01*
X0086961Y0044485D01*
X0086961Y0041861D01*
X0086853Y0041861D01*
X0086853Y0044485D01*
X0086368Y0044485D01*
X0086368Y0045563D01*
X0085900Y0046032D01*
X0082481Y0046032D01*
X0082012Y0045563D01*
X0082012Y0043483D01*
X0082481Y0043015D01*
X0084898Y0043015D01*
X0084898Y0041861D01*
X0086853Y0041861D01*
X0086853Y0041752D01*
X0086961Y0041752D01*
X0086961Y0039129D01*
X0087787Y0039129D01*
X0088117Y0039217D01*
X0088414Y0039389D01*
X0088656Y0039631D01*
X0088757Y0039805D01*
X0088757Y0037909D01*
X0089374Y0037291D01*
X0089374Y0036584D01*
X0090429Y0035530D01*
X0112619Y0035530D01*
X0123578Y0024570D01*
X0122999Y0024570D01*
X0122999Y0021602D01*
X0122399Y0021602D01*
X0122399Y0021002D01*
X0119234Y0021002D01*
X0119234Y0019162D01*
X0119323Y0018832D01*
X0119494Y0018535D01*
X0119736Y0018293D01*
X0120032Y0018122D01*
X0120363Y0018033D01*
X0122399Y0018033D01*
X0122399Y0021002D01*
X0122999Y0021002D01*
X0122999Y0018033D01*
X0125036Y0018033D01*
X0125366Y0018122D01*
X0125663Y0018293D01*
X0125905Y0018535D01*
X0126076Y0018832D01*
X0126165Y0019162D01*
X0126165Y0021002D01*
X0122999Y0021002D01*
X0122999Y0021602D01*
X0126165Y0021602D01*
X0126165Y0021984D01*
X0126427Y0021722D01*
X0126427Y0019002D01*
X0126895Y0018533D01*
X0128255Y0018533D01*
X0139056Y0008454D01*
X0139415Y0008094D01*
X0139462Y0008075D01*
X0139498Y0008041D01*
X0139975Y0007863D01*
X0140444Y0007668D01*
X0140495Y0007668D01*
X0140542Y0007651D01*
X0141050Y0007668D01*
X0153868Y0007668D01*
X0153848Y0003449D01*
X0152771Y0003449D01*
X0153645Y0004323D01*
X0153645Y0005888D01*
X0152538Y0006995D01*
X0150974Y0006995D01*
X0149867Y0005888D01*
X0149867Y0004323D01*
X0150741Y0003449D01*
X0142621Y0003449D01*
X0143439Y0004268D01*
X0143439Y0005832D01*
X0142333Y0006939D01*
X0140768Y0006939D01*
X0139661Y0005832D01*
X0139661Y0004268D01*
X0140480Y0003449D01*
X0130124Y0003449D01*
X0131112Y0004437D01*
X0131112Y0006002D01*
X0130005Y0007108D01*
X0128440Y0007108D01*
X0127334Y0006002D01*
X0127334Y0004437D01*
X0128321Y0003449D01*
X0080805Y0003449D01*
X0080947Y0027558D01*
X0059488Y0027667D01*
X0059647Y0035533D01*
X0059647Y0104525D01*
X0059592Y0104525D01*
X0059592Y0104598D01*
X0074574Y0104605D01*
X0074574Y0097895D01*
X0075628Y0096841D01*
X0077120Y0096841D01*
X0078174Y0097895D01*
X0078174Y0104607D01*
X0081144Y0104608D01*
X0080768Y0103699D01*
X0080768Y0101909D01*
X0081453Y0100255D01*
X0082719Y0098989D01*
X0084373Y0098304D01*
X0086163Y0098304D01*
X0087817Y0098989D01*
X0089083Y0100255D01*
X0089144Y0100404D02*
X0091391Y0100404D01*
X0091143Y0101002D02*
X0089392Y0101002D01*
X0089640Y0101601D02*
X0090895Y0101601D01*
X0090768Y0102199D02*
X0089768Y0102199D01*
X0089768Y0102798D02*
X0090768Y0102798D01*
X0090768Y0103396D02*
X0089768Y0103396D01*
X0089645Y0103995D02*
X0090890Y0103995D01*
X0091138Y0104593D02*
X0089397Y0104593D01*
X0088035Y0099207D02*
X0092501Y0099207D01*
X0093638Y0098608D02*
X0086897Y0098608D01*
X0087949Y0096250D02*
X0084448Y0096250D01*
X0072156Y0083958D01*
X0072156Y0055717D01*
X0068285Y0051098D01*
X0067038Y0052523D02*
X0059647Y0052523D01*
X0059647Y0053121D02*
X0068545Y0053121D01*
X0069047Y0053720D02*
X0059647Y0053720D01*
X0059647Y0054318D02*
X0069548Y0054318D01*
X0070050Y0054917D02*
X0059647Y0054917D01*
X0059647Y0055515D02*
X0070552Y0055515D01*
X0071053Y0056114D02*
X0059647Y0056114D01*
X0059647Y0056712D02*
X0071056Y0056712D01*
X0071056Y0057311D02*
X0059647Y0057311D01*
X0059647Y0057909D02*
X0071056Y0057909D01*
X0071056Y0058508D02*
X0059647Y0058508D01*
X0059647Y0059106D02*
X0071056Y0059106D01*
X0071056Y0059705D02*
X0059647Y0059705D01*
X0059647Y0060303D02*
X0071056Y0060303D01*
X0071056Y0060902D02*
X0059647Y0060902D01*
X0059647Y0061500D02*
X0071056Y0061500D01*
X0071056Y0062099D02*
X0059647Y0062099D01*
X0059647Y0062697D02*
X0071056Y0062697D01*
X0071056Y0063296D02*
X0059647Y0063296D01*
X0059647Y0063894D02*
X0071056Y0063894D01*
X0071056Y0064493D02*
X0059647Y0064493D01*
X0059647Y0065092D02*
X0071056Y0065092D01*
X0071056Y0065690D02*
X0059647Y0065690D01*
X0059647Y0066289D02*
X0071056Y0066289D01*
X0071056Y0066887D02*
X0059647Y0066887D01*
X0059647Y0067486D02*
X0071056Y0067486D01*
X0071056Y0068084D02*
X0059647Y0068084D01*
X0059647Y0068683D02*
X0071056Y0068683D01*
X0071056Y0069281D02*
X0059647Y0069281D01*
X0059647Y0069880D02*
X0071056Y0069880D01*
X0071056Y0070478D02*
X0059647Y0070478D01*
X0059647Y0071077D02*
X0071056Y0071077D01*
X0071056Y0071675D02*
X0059647Y0071675D01*
X0059647Y0072274D02*
X0071056Y0072274D01*
X0071056Y0072872D02*
X0059647Y0072872D01*
X0059647Y0073471D02*
X0071056Y0073471D01*
X0071056Y0074069D02*
X0059647Y0074069D01*
X0059647Y0074668D02*
X0071056Y0074668D01*
X0071056Y0075266D02*
X0059647Y0075266D01*
X0059647Y0075865D02*
X0071056Y0075865D01*
X0071056Y0076463D02*
X0059647Y0076463D01*
X0059647Y0077062D02*
X0071056Y0077062D01*
X0071056Y0077660D02*
X0059647Y0077660D01*
X0059647Y0078259D02*
X0071056Y0078259D01*
X0071056Y0078857D02*
X0059647Y0078857D01*
X0059647Y0079456D02*
X0071056Y0079456D01*
X0071056Y0080054D02*
X0059647Y0080054D01*
X0059647Y0080653D02*
X0071056Y0080653D01*
X0071056Y0081251D02*
X0059647Y0081251D01*
X0059647Y0081850D02*
X0071056Y0081850D01*
X0071056Y0082448D02*
X0059647Y0082448D01*
X0059647Y0083047D02*
X0071056Y0083047D01*
X0071056Y0083645D02*
X0059647Y0083645D01*
X0059647Y0084244D02*
X0071056Y0084244D01*
X0071484Y0084842D02*
X0059647Y0084842D01*
X0059647Y0085441D02*
X0072083Y0085441D01*
X0072681Y0086039D02*
X0059647Y0086039D01*
X0059647Y0086638D02*
X0073280Y0086638D01*
X0073878Y0087236D02*
X0059647Y0087236D01*
X0059647Y0087835D02*
X0074477Y0087835D01*
X0075075Y0088433D02*
X0059647Y0088433D01*
X0059647Y0089032D02*
X0075674Y0089032D01*
X0076272Y0089630D02*
X0059647Y0089630D01*
X0059647Y0090229D02*
X0076871Y0090229D01*
X0077469Y0090827D02*
X0059647Y0090827D01*
X0059647Y0091426D02*
X0078068Y0091426D01*
X0078666Y0092025D02*
X0059647Y0092025D01*
X0059647Y0092623D02*
X0079265Y0092623D01*
X0079863Y0093222D02*
X0059647Y0093222D01*
X0059647Y0093820D02*
X0080462Y0093820D01*
X0081060Y0094419D02*
X0059647Y0094419D01*
X0059647Y0095017D02*
X0081659Y0095017D01*
X0082257Y0095616D02*
X0059647Y0095616D01*
X0059647Y0096214D02*
X0082856Y0096214D01*
X0083454Y0096813D02*
X0059647Y0096813D01*
X0059647Y0097411D02*
X0075058Y0097411D01*
X0074574Y0098010D02*
X0059647Y0098010D01*
X0059647Y0098608D02*
X0074574Y0098608D01*
X0074574Y0099207D02*
X0059647Y0099207D01*
X0059647Y0099805D02*
X0074574Y0099805D01*
X0074574Y0100404D02*
X0059647Y0100404D01*
X0059647Y0101002D02*
X0074574Y0101002D01*
X0074574Y0101601D02*
X0059647Y0101601D01*
X0059647Y0102199D02*
X0074574Y0102199D01*
X0074574Y0102798D02*
X0059647Y0102798D01*
X0059647Y0103396D02*
X0074574Y0103396D01*
X0074574Y0103995D02*
X0059647Y0103995D01*
X0059592Y0104593D02*
X0074574Y0104593D01*
X0078174Y0104593D02*
X0081138Y0104593D01*
X0080890Y0103995D02*
X0078174Y0103995D01*
X0078174Y0103396D02*
X0080768Y0103396D01*
X0080768Y0102798D02*
X0078174Y0102798D01*
X0078174Y0102199D02*
X0080768Y0102199D01*
X0080895Y0101601D02*
X0078174Y0101601D01*
X0078174Y0101002D02*
X0081143Y0101002D01*
X0081391Y0100404D02*
X0078174Y0100404D01*
X0078174Y0099805D02*
X0081902Y0099805D01*
X0082501Y0099207D02*
X0078174Y0099207D01*
X0078174Y0098608D02*
X0083638Y0098608D01*
X0078174Y0098010D02*
X0107551Y0098010D01*
X0107554Y0097411D02*
X0077690Y0097411D01*
X0086198Y0093578D02*
X0086198Y0089130D01*
X0086198Y0079445D01*
X0086907Y0078736D01*
X0088416Y0078857D02*
X0088548Y0078857D01*
X0088548Y0078259D02*
X0088416Y0078259D01*
X0088416Y0077660D02*
X0088548Y0077660D01*
X0088548Y0077062D02*
X0088416Y0077062D01*
X0086368Y0076463D02*
X0113601Y0076463D01*
X0115199Y0076463D02*
X0115308Y0076463D01*
X0115308Y0077062D02*
X0115199Y0077062D01*
X0115199Y0077660D02*
X0115308Y0077660D01*
X0115308Y0078259D02*
X0115199Y0078259D01*
X0115253Y0078736D02*
X0118403Y0078736D01*
X0118349Y0078259D02*
X0118457Y0078259D01*
X0118457Y0077660D02*
X0118349Y0077660D01*
X0118349Y0077062D02*
X0118457Y0077062D01*
X0118457Y0076463D02*
X0118349Y0076463D01*
X0118942Y0075865D02*
X0086368Y0075865D01*
X0086368Y0075266D02*
X0118942Y0075266D01*
X0119253Y0074668D02*
X0086057Y0074668D01*
X0085900Y0074378D02*
X0082481Y0074378D01*
X0082012Y0073910D01*
X0082012Y0071830D01*
X0082481Y0071361D01*
X0085900Y0071361D01*
X0086368Y0071830D01*
X0086368Y0073910D01*
X0085900Y0074378D01*
X0086209Y0074069D02*
X0112974Y0074069D01*
X0112884Y0074010D02*
X0112539Y0073664D01*
X0112267Y0073258D01*
X0112080Y0072806D01*
X0111994Y0072373D01*
X0114175Y0072373D01*
X0114175Y0071792D01*
X0111994Y0071792D01*
X0112080Y0071359D01*
X0112267Y0070907D01*
X0112539Y0070501D01*
X0112884Y0070155D01*
X0113291Y0069884D01*
X0113742Y0069697D01*
X0114175Y0069610D01*
X0114175Y0071792D01*
X0114757Y0071792D01*
X0114757Y0072373D01*
X0116938Y0072373D01*
X0116852Y0072806D01*
X0116665Y0073258D01*
X0116393Y0073664D01*
X0116048Y0074010D01*
X0115641Y0074281D01*
X0115190Y0074468D01*
X0114757Y0074554D01*
X0114757Y0072373D01*
X0114175Y0072373D01*
X0114175Y0074554D01*
X0113742Y0074468D01*
X0113291Y0074281D01*
X0112884Y0074010D01*
X0112410Y0073471D02*
X0109974Y0073471D01*
X0110542Y0072903D02*
X0109381Y0074063D01*
X0107740Y0074063D01*
X0106579Y0072903D01*
X0106579Y0071262D01*
X0107740Y0070101D01*
X0109381Y0070101D01*
X0110542Y0071262D01*
X0110542Y0072903D01*
X0110542Y0072872D02*
X0112108Y0072872D01*
X0112017Y0071675D02*
X0110542Y0071675D01*
X0110542Y0072274D02*
X0114175Y0072274D01*
X0114466Y0072082D02*
X0119978Y0066571D01*
X0121120Y0066571D01*
X0122661Y0065030D01*
X0122870Y0065030D01*
X0126558Y0061342D01*
X0126558Y0060174D01*
X0129230Y0057503D01*
X0129230Y0056807D01*
X0128930Y0056712D02*
X0123298Y0056712D01*
X0123298Y0056681D02*
X0123298Y0058162D01*
X0122829Y0058630D01*
X0119410Y0058630D01*
X0119002Y0058222D01*
X0112166Y0058222D01*
X0110542Y0059846D01*
X0110542Y0061092D01*
X0109381Y0062252D01*
X0107740Y0062252D01*
X0106579Y0061092D01*
X0106579Y0059451D01*
X0107740Y0058290D01*
X0108986Y0058290D01*
X0110610Y0056666D01*
X0111254Y0056022D01*
X0112613Y0056022D01*
X0112539Y0055947D01*
X0112267Y0055541D01*
X0112080Y0055090D01*
X0111994Y0054656D01*
X0114175Y0054656D01*
X0114175Y0054075D01*
X0111994Y0054075D01*
X0112080Y0053642D01*
X0112267Y0053191D01*
X0112539Y0052784D01*
X0112884Y0052439D01*
X0113291Y0052167D01*
X0113742Y0051980D01*
X0114175Y0051894D01*
X0114175Y0054075D01*
X0114757Y0054075D01*
X0114757Y0054656D01*
X0116938Y0054656D01*
X0116852Y0055090D01*
X0116665Y0055541D01*
X0116393Y0055947D01*
X0116319Y0056022D01*
X0119002Y0056022D01*
X0119171Y0055852D01*
X0118943Y0055721D01*
X0118701Y0055479D01*
X0118530Y0055183D01*
X0118442Y0054852D01*
X0118442Y0054026D01*
X0121065Y0054026D01*
X0121065Y0053918D01*
X0118442Y0053918D01*
X0118442Y0053092D01*
X0118530Y0052762D01*
X0118701Y0052465D01*
X0118943Y0052223D01*
X0119171Y0052092D01*
X0118942Y0051863D01*
X0118942Y0049783D01*
X0119171Y0049553D01*
X0118943Y0049422D01*
X0118701Y0049180D01*
X0118530Y0048883D01*
X0118442Y0048553D01*
X0118442Y0047727D01*
X0121065Y0047727D01*
X0121065Y0047619D01*
X0118442Y0047619D01*
X0118442Y0046793D01*
X0118530Y0046462D01*
X0118701Y0046166D01*
X0118769Y0046098D01*
X0118701Y0046030D01*
X0118530Y0045734D01*
X0118442Y0045403D01*
X0118442Y0044578D01*
X0121065Y0044578D01*
X0121065Y0047619D01*
X0121174Y0047619D01*
X0121174Y0047727D01*
X0123798Y0047727D01*
X0123798Y0048553D01*
X0123709Y0048883D01*
X0123538Y0049180D01*
X0123296Y0049422D01*
X0123068Y0049553D01*
X0123298Y0049783D01*
X0123298Y0051863D01*
X0123068Y0052092D01*
X0123296Y0052223D01*
X0123538Y0052465D01*
X0123709Y0052762D01*
X0123798Y0053092D01*
X0123798Y0053098D01*
X0125062Y0051833D01*
X0125062Y0036413D01*
X0124273Y0035624D01*
X0124273Y0034059D01*
X0125380Y0032953D01*
X0126944Y0032953D01*
X0128051Y0034059D01*
X0128051Y0035624D01*
X0127262Y0036413D01*
X0127262Y0052745D01*
X0126618Y0053389D01*
X0123326Y0056681D01*
X0123298Y0056681D01*
X0123298Y0057311D02*
X0126158Y0057311D01*
X0126158Y0057107D02*
X0128930Y0057107D01*
X0128930Y0059485D01*
X0127287Y0059485D01*
X0126956Y0059396D01*
X0126660Y0059225D01*
X0126418Y0058983D01*
X0126247Y0058687D01*
X0126158Y0058356D01*
X0126158Y0057107D01*
X0126158Y0056507D02*
X0126158Y0055258D01*
X0126247Y0054927D01*
X0126418Y0054631D01*
X0126660Y0054389D01*
X0126956Y0054217D01*
X0127287Y0054129D01*
X0128930Y0054129D01*
X0128930Y0056507D01*
X0129530Y0056507D01*
X0129530Y0054129D01*
X0131173Y0054129D01*
X0131503Y0054217D01*
X0131800Y0054389D01*
X0132042Y0054631D01*
X0132170Y0054853D01*
X0132170Y0054034D01*
X0132639Y0053566D01*
X0133245Y0053566D01*
X0133245Y0050774D01*
X0133158Y0050824D01*
X0132827Y0050913D01*
X0131578Y0050913D01*
X0131578Y0048141D01*
X0133956Y0048141D01*
X0133956Y0048443D01*
X0134218Y0048181D01*
X0134218Y0045738D01*
X0134246Y0045711D01*
X0134178Y0045642D01*
X0134178Y0041481D01*
X0134143Y0041447D01*
X0134143Y0037241D01*
X0134153Y0037231D01*
X0134098Y0037177D01*
X0134098Y0032971D01*
X0134566Y0032502D01*
X0137985Y0032502D01*
X0138454Y0032971D01*
X0138454Y0033774D01*
X0141113Y0033774D01*
X0141113Y0032969D01*
X0141582Y0032501D01*
X0145000Y0032501D01*
X0145469Y0032969D01*
X0145469Y0037175D01*
X0145453Y0037191D01*
X0145465Y0037203D01*
X0145465Y0041409D01*
X0145423Y0041451D01*
X0145423Y0045642D01*
X0145374Y0045691D01*
X0145383Y0045700D01*
X0145383Y0049906D01*
X0144914Y0050375D01*
X0141496Y0050375D01*
X0141027Y0049906D01*
X0141027Y0049103D01*
X0138574Y0049103D01*
X0138574Y0049944D01*
X0138106Y0050413D01*
X0135845Y0050413D01*
X0135845Y0053566D01*
X0136451Y0053566D01*
X0136920Y0054034D01*
X0136920Y0054641D01*
X0147895Y0054641D01*
X0150487Y0057233D01*
X0151320Y0057233D01*
X0152427Y0058340D01*
X0152427Y0059905D01*
X0151320Y0061011D01*
X0149755Y0061011D01*
X0148649Y0059905D01*
X0148649Y0059072D01*
X0146818Y0057241D01*
X0136920Y0057241D01*
X0136920Y0057847D01*
X0136451Y0058315D01*
X0132639Y0058315D01*
X0132301Y0057978D01*
X0132301Y0058356D01*
X0132213Y0058687D01*
X0132042Y0058983D01*
X0131800Y0059225D01*
X0131503Y0059396D01*
X0131173Y0059485D01*
X0129530Y0059485D01*
X0129530Y0057107D01*
X0128930Y0057107D01*
X0128930Y0056507D01*
X0126158Y0056507D01*
X0126158Y0056114D02*
X0123893Y0056114D01*
X0124491Y0055515D02*
X0126158Y0055515D01*
X0126253Y0054917D02*
X0125090Y0054917D01*
X0125688Y0054318D02*
X0126782Y0054318D01*
X0126287Y0053720D02*
X0132485Y0053720D01*
X0132170Y0054318D02*
X0131678Y0054318D01*
X0133245Y0053121D02*
X0126885Y0053121D01*
X0127262Y0052523D02*
X0133245Y0052523D01*
X0133245Y0051924D02*
X0127262Y0051924D01*
X0127262Y0051326D02*
X0133245Y0051326D01*
X0131578Y0050727D02*
X0130978Y0050727D01*
X0130978Y0050913D02*
X0129729Y0050913D01*
X0129399Y0050824D01*
X0129102Y0050653D01*
X0128860Y0050411D01*
X0128689Y0050115D01*
X0128600Y0049784D01*
X0128600Y0048141D01*
X0130978Y0048141D01*
X0130978Y0047541D01*
X0131578Y0047541D01*
X0131578Y0046611D01*
X0131538Y0046611D01*
X0131538Y0043839D01*
X0133916Y0043839D01*
X0133916Y0045482D01*
X0133880Y0045615D01*
X0133956Y0045899D01*
X0133956Y0047541D01*
X0131578Y0047541D01*
X0131578Y0048141D01*
X0130978Y0048141D01*
X0130978Y0050913D01*
X0130978Y0050129D02*
X0131578Y0050129D01*
X0131578Y0049530D02*
X0130978Y0049530D01*
X0130978Y0048932D02*
X0131578Y0048932D01*
X0131578Y0048333D02*
X0130978Y0048333D01*
X0130978Y0047735D02*
X0127262Y0047735D01*
X0127262Y0048333D02*
X0128600Y0048333D01*
X0128600Y0048932D02*
X0127262Y0048932D01*
X0127262Y0049530D02*
X0128600Y0049530D01*
X0128697Y0050129D02*
X0127262Y0050129D01*
X0127262Y0050727D02*
X0129230Y0050727D01*
X0126162Y0052289D02*
X0126162Y0034842D01*
X0124962Y0033370D02*
X0119869Y0033370D01*
X0120468Y0032772D02*
X0128585Y0032772D01*
X0128568Y0032800D02*
X0128740Y0032504D01*
X0128982Y0032262D01*
X0129278Y0032091D01*
X0129609Y0032002D01*
X0130858Y0032002D01*
X0130858Y0034774D01*
X0128480Y0034774D01*
X0128480Y0033131D01*
X0128568Y0032800D01*
X0128480Y0033370D02*
X0127362Y0033370D01*
X0127960Y0033969D02*
X0128480Y0033969D01*
X0128480Y0034567D02*
X0128051Y0034567D01*
X0128051Y0035166D02*
X0130858Y0035166D01*
X0130858Y0035374D02*
X0130858Y0034774D01*
X0131458Y0034774D01*
X0131458Y0035374D01*
X0130858Y0035374D01*
X0130858Y0036272D01*
X0130903Y0036272D01*
X0130903Y0039044D01*
X0128525Y0039044D01*
X0128525Y0037401D01*
X0128554Y0037294D01*
X0128480Y0037016D01*
X0128480Y0035374D01*
X0130858Y0035374D01*
X0130858Y0035764D02*
X0131458Y0035764D01*
X0131458Y0035374D02*
X0131458Y0038145D01*
X0131503Y0038145D01*
X0131503Y0039044D01*
X0130903Y0039044D01*
X0130903Y0039644D01*
X0128525Y0039644D01*
X0128525Y0041287D01*
X0128584Y0041506D01*
X0128560Y0041596D01*
X0128560Y0043239D01*
X0130938Y0043239D01*
X0131538Y0043239D01*
X0131538Y0043839D01*
X0130938Y0043839D01*
X0130938Y0044770D01*
X0130978Y0044770D01*
X0130978Y0047541D01*
X0128600Y0047541D01*
X0128600Y0045899D01*
X0128636Y0045766D01*
X0128560Y0045482D01*
X0128560Y0043839D01*
X0130938Y0043839D01*
X0130938Y0043239D01*
X0130938Y0040467D01*
X0130903Y0040467D01*
X0130903Y0039644D01*
X0131503Y0039644D01*
X0131503Y0042416D01*
X0131538Y0042416D01*
X0131538Y0043239D01*
X0133916Y0043239D01*
X0133916Y0041596D01*
X0133857Y0041377D01*
X0133881Y0041287D01*
X0133881Y0039644D01*
X0131503Y0039644D01*
X0131503Y0039044D01*
X0133881Y0039044D01*
X0133881Y0037401D01*
X0133807Y0037124D01*
X0133836Y0037016D01*
X0133836Y0035374D01*
X0131458Y0035374D01*
X0131458Y0035166D02*
X0134098Y0035166D01*
X0133836Y0034774D02*
X0131458Y0034774D01*
X0131458Y0032002D01*
X0132707Y0032002D01*
X0133037Y0032091D01*
X0133334Y0032262D01*
X0133576Y0032504D01*
X0133747Y0032800D01*
X0133836Y0033131D01*
X0133836Y0034774D01*
X0133836Y0034567D02*
X0134098Y0034567D01*
X0134098Y0033969D02*
X0133836Y0033969D01*
X0133836Y0033370D02*
X0134098Y0033370D01*
X0134297Y0032772D02*
X0133731Y0032772D01*
X0133181Y0032173D02*
X0146384Y0032173D01*
X0146529Y0032089D02*
X0146860Y0032001D01*
X0148109Y0032001D01*
X0148109Y0034772D01*
X0148709Y0034772D01*
X0148709Y0032001D01*
X0149958Y0032001D01*
X0150289Y0032089D01*
X0150585Y0032260D01*
X0150827Y0032502D01*
X0150998Y0032799D01*
X0151087Y0033130D01*
X0151087Y0034772D01*
X0148709Y0034772D01*
X0148709Y0035372D01*
X0151087Y0035372D01*
X0151087Y0037015D01*
X0151039Y0037196D01*
X0151083Y0037363D01*
X0151083Y0039006D01*
X0148705Y0039006D01*
X0148705Y0036234D01*
X0148709Y0036234D01*
X0148709Y0035372D01*
X0148109Y0035372D01*
X0148109Y0034772D01*
X0145731Y0034772D01*
X0145731Y0033130D01*
X0145820Y0032799D01*
X0145991Y0032502D01*
X0146233Y0032260D01*
X0146529Y0032089D01*
X0145835Y0032772D02*
X0145271Y0032772D01*
X0145469Y0033370D02*
X0145731Y0033370D01*
X0145731Y0033969D02*
X0145469Y0033969D01*
X0145469Y0034567D02*
X0145731Y0034567D01*
X0145469Y0035166D02*
X0148109Y0035166D01*
X0148109Y0035372D02*
X0145731Y0035372D01*
X0145731Y0037015D01*
X0145776Y0037182D01*
X0145728Y0037363D01*
X0145727Y0039006D01*
X0148105Y0039006D01*
X0148105Y0039606D01*
X0145727Y0039606D01*
X0145728Y0041249D01*
X0145753Y0041344D01*
X0145686Y0041596D01*
X0145686Y0043239D01*
X0148064Y0043239D01*
X0148664Y0043239D01*
X0148664Y0043839D01*
X0151042Y0043839D01*
X0151042Y0045482D01*
X0150971Y0045747D01*
X0151001Y0045860D01*
X0151001Y0047503D01*
X0148623Y0047503D01*
X0148623Y0044732D01*
X0148664Y0044732D01*
X0148664Y0043839D01*
X0148064Y0043839D01*
X0148064Y0046611D01*
X0148023Y0046611D01*
X0148023Y0047503D01*
X0148623Y0047503D01*
X0148623Y0048103D01*
X0151001Y0048103D01*
X0151001Y0049746D01*
X0150912Y0050077D01*
X0150741Y0050373D01*
X0150499Y0050615D01*
X0150203Y0050786D01*
X0149872Y0050875D01*
X0148623Y0050875D01*
X0148623Y0048103D01*
X0148023Y0048103D01*
X0148023Y0047503D01*
X0145645Y0047503D01*
X0145645Y0045860D01*
X0145716Y0045595D01*
X0145686Y0045482D01*
X0145686Y0043839D01*
X0148064Y0043839D01*
X0148064Y0043239D01*
X0148064Y0042377D01*
X0148105Y0042377D01*
X0148105Y0039606D01*
X0148705Y0039606D01*
X0148705Y0040467D01*
X0148664Y0040467D01*
X0148664Y0043239D01*
X0151042Y0043239D01*
X0151042Y0041596D01*
X0151016Y0041500D01*
X0151083Y0041249D01*
X0151083Y0039606D01*
X0148705Y0039606D01*
X0148705Y0039006D01*
X0148105Y0039006D01*
X0148105Y0038144D01*
X0148109Y0038144D01*
X0148109Y0035372D01*
X0148109Y0035764D02*
X0148709Y0035764D01*
X0148709Y0035166D02*
X0195933Y0035166D01*
X0195932Y0035764D02*
X0151087Y0035764D01*
X0151087Y0036363D02*
X0195931Y0036363D01*
X0195930Y0036961D02*
X0151087Y0036961D01*
X0151083Y0037560D02*
X0191617Y0037560D01*
X0191681Y0037495D02*
X0193246Y0037495D01*
X0194353Y0038602D01*
X0194353Y0040167D01*
X0193246Y0041273D01*
X0191681Y0041273D01*
X0190575Y0040167D01*
X0190575Y0038602D01*
X0191681Y0037495D01*
X0191018Y0038159D02*
X0151083Y0038159D01*
X0151083Y0038757D02*
X0190575Y0038757D01*
X0190575Y0039356D02*
X0148705Y0039356D01*
X0148705Y0039954D02*
X0148105Y0039954D01*
X0148105Y0039356D02*
X0145465Y0039356D01*
X0145465Y0039954D02*
X0145728Y0039954D01*
X0145728Y0040553D02*
X0145465Y0040553D01*
X0145465Y0041151D02*
X0145728Y0041151D01*
X0145686Y0041750D02*
X0145423Y0041750D01*
X0145423Y0042348D02*
X0145686Y0042348D01*
X0145686Y0042947D02*
X0145423Y0042947D01*
X0145423Y0043545D02*
X0148064Y0043545D01*
X0148064Y0042947D02*
X0148664Y0042947D01*
X0148664Y0043545D02*
X0195917Y0043545D01*
X0195918Y0042947D02*
X0151042Y0042947D01*
X0151042Y0042348D02*
X0195919Y0042348D01*
X0195921Y0041750D02*
X0151042Y0041750D01*
X0151083Y0041151D02*
X0191559Y0041151D01*
X0190961Y0040553D02*
X0151083Y0040553D01*
X0151083Y0039954D02*
X0190575Y0039954D01*
X0193368Y0041151D02*
X0195922Y0041151D01*
X0195923Y0040553D02*
X0193967Y0040553D01*
X0194353Y0039954D02*
X0195924Y0039954D01*
X0195925Y0039356D02*
X0194353Y0039356D01*
X0194353Y0038757D02*
X0195926Y0038757D01*
X0195927Y0038159D02*
X0193910Y0038159D01*
X0193311Y0037560D02*
X0195928Y0037560D01*
X0195934Y0034567D02*
X0151087Y0034567D01*
X0151087Y0033969D02*
X0195935Y0033969D01*
X0195936Y0033370D02*
X0151087Y0033370D01*
X0150983Y0032772D02*
X0195938Y0032772D01*
X0195939Y0032173D02*
X0150434Y0032173D01*
X0148709Y0032173D02*
X0148109Y0032173D01*
X0148109Y0032772D02*
X0148709Y0032772D01*
X0148709Y0033370D02*
X0148109Y0033370D01*
X0148109Y0033969D02*
X0148709Y0033969D01*
X0148709Y0034567D02*
X0148109Y0034567D01*
X0148109Y0036363D02*
X0148705Y0036363D01*
X0148705Y0036961D02*
X0148109Y0036961D01*
X0148109Y0037560D02*
X0148705Y0037560D01*
X0148705Y0038159D02*
X0148105Y0038159D01*
X0148105Y0038757D02*
X0148705Y0038757D01*
X0148664Y0040553D02*
X0148105Y0040553D01*
X0148105Y0041151D02*
X0148664Y0041151D01*
X0148664Y0041750D02*
X0148105Y0041750D01*
X0148105Y0042348D02*
X0148664Y0042348D01*
X0148664Y0044144D02*
X0148064Y0044144D01*
X0148064Y0044742D02*
X0148623Y0044742D01*
X0148623Y0045341D02*
X0148064Y0045341D01*
X0148064Y0045939D02*
X0148623Y0045939D01*
X0148623Y0046538D02*
X0148064Y0046538D01*
X0148023Y0047136D02*
X0148623Y0047136D01*
X0148623Y0047735D02*
X0195909Y0047735D01*
X0195908Y0048333D02*
X0151001Y0048333D01*
X0151001Y0048932D02*
X0191060Y0048932D01*
X0191564Y0048428D02*
X0190457Y0049534D01*
X0190457Y0051099D01*
X0191564Y0052206D01*
X0193129Y0052206D01*
X0194235Y0051099D01*
X0194235Y0049534D01*
X0193129Y0048428D01*
X0191564Y0048428D01*
X0190461Y0049530D02*
X0151001Y0049530D01*
X0150882Y0050129D02*
X0190457Y0050129D01*
X0190457Y0050727D02*
X0150305Y0050727D01*
X0148623Y0050727D02*
X0148023Y0050727D01*
X0148023Y0050875D02*
X0146774Y0050875D01*
X0146443Y0050786D01*
X0146147Y0050615D01*
X0145905Y0050373D01*
X0145734Y0050077D01*
X0145645Y0049746D01*
X0145645Y0048103D01*
X0148023Y0048103D01*
X0148023Y0050875D01*
X0148023Y0050129D02*
X0148623Y0050129D01*
X0148623Y0049530D02*
X0148023Y0049530D01*
X0148023Y0048932D02*
X0148623Y0048932D01*
X0148623Y0048333D02*
X0148023Y0048333D01*
X0148023Y0047735D02*
X0145383Y0047735D01*
X0145383Y0048333D02*
X0145645Y0048333D01*
X0145645Y0048932D02*
X0145383Y0048932D01*
X0145383Y0049530D02*
X0145645Y0049530D01*
X0145764Y0050129D02*
X0145160Y0050129D01*
X0146341Y0050727D02*
X0135845Y0050727D01*
X0135845Y0051326D02*
X0190684Y0051326D01*
X0191283Y0051924D02*
X0135845Y0051924D01*
X0135845Y0052523D02*
X0195900Y0052523D01*
X0195899Y0053121D02*
X0135845Y0053121D01*
X0136605Y0053720D02*
X0195898Y0053720D01*
X0195897Y0054318D02*
X0136920Y0054318D01*
X0136920Y0057311D02*
X0146888Y0057311D01*
X0147486Y0057909D02*
X0136857Y0057909D01*
X0136451Y0059471D02*
X0136920Y0059940D01*
X0136920Y0063752D01*
X0136451Y0064221D01*
X0135645Y0064221D01*
X0135645Y0067060D01*
X0139526Y0070941D01*
X0140642Y0070941D01*
X0141749Y0072048D01*
X0141749Y0073613D01*
X0140642Y0074719D01*
X0139077Y0074719D01*
X0137971Y0073613D01*
X0137971Y0072497D01*
X0133445Y0067971D01*
X0133445Y0064221D01*
X0132639Y0064221D01*
X0132170Y0063752D01*
X0132170Y0062946D01*
X0131801Y0062946D01*
X0131801Y0063634D01*
X0131333Y0064103D01*
X0127127Y0064103D01*
X0126658Y0063634D01*
X0126658Y0060216D01*
X0127127Y0059747D01*
X0131333Y0059747D01*
X0131801Y0060216D01*
X0131801Y0060746D01*
X0132170Y0060746D01*
X0132170Y0059940D01*
X0132639Y0059471D01*
X0136451Y0059471D01*
X0136684Y0059705D02*
X0148649Y0059705D01*
X0148649Y0059106D02*
X0131918Y0059106D01*
X0132261Y0058508D02*
X0148085Y0058508D01*
X0149048Y0060303D02*
X0136920Y0060303D01*
X0136920Y0060902D02*
X0149646Y0060902D01*
X0151430Y0060902D02*
X0195884Y0060902D01*
X0195883Y0061500D02*
X0136920Y0061500D01*
X0136920Y0062099D02*
X0195882Y0062099D01*
X0195881Y0062697D02*
X0142460Y0062697D01*
X0142445Y0062683D02*
X0143234Y0063472D01*
X0143515Y0063472D01*
X0144160Y0064116D01*
X0144160Y0065027D01*
X0143515Y0065672D01*
X0143234Y0065672D01*
X0142445Y0066461D01*
X0140880Y0066461D01*
X0139773Y0065354D01*
X0139773Y0063789D01*
X0140880Y0062683D01*
X0142445Y0062683D01*
X0143058Y0063296D02*
X0195879Y0063296D01*
X0195878Y0063894D02*
X0143938Y0063894D01*
X0144160Y0064493D02*
X0195877Y0064493D01*
X0195876Y0065092D02*
X0144096Y0065092D01*
X0143215Y0065690D02*
X0195875Y0065690D01*
X0195874Y0066289D02*
X0142617Y0066289D01*
X0143060Y0064572D02*
X0141662Y0064572D01*
X0139773Y0064493D02*
X0135645Y0064493D01*
X0135645Y0065092D02*
X0139773Y0065092D01*
X0140109Y0065690D02*
X0135645Y0065690D01*
X0135645Y0066289D02*
X0140708Y0066289D01*
X0139773Y0063894D02*
X0136777Y0063894D01*
X0136920Y0063296D02*
X0140267Y0063296D01*
X0140865Y0062697D02*
X0136920Y0062697D01*
X0134545Y0061846D02*
X0134545Y0067515D01*
X0139860Y0072830D01*
X0138836Y0071807D01*
X0137747Y0072274D02*
X0123298Y0072274D01*
X0123298Y0071830D02*
X0123298Y0073910D01*
X0122829Y0074378D01*
X0119410Y0074378D01*
X0118942Y0073910D01*
X0118942Y0071830D01*
X0119410Y0071361D01*
X0122829Y0071361D01*
X0123298Y0071830D01*
X0123143Y0071675D02*
X0137149Y0071675D01*
X0136550Y0071077D02*
X0122981Y0071077D01*
X0122829Y0071229D02*
X0119410Y0071229D01*
X0118942Y0070760D01*
X0118942Y0068680D01*
X0119171Y0068451D01*
X0118943Y0068319D01*
X0118701Y0068077D01*
X0118530Y0067781D01*
X0118442Y0067450D01*
X0118442Y0066625D01*
X0121065Y0066625D01*
X0121065Y0066516D01*
X0118442Y0066516D01*
X0118442Y0065691D01*
X0118530Y0065360D01*
X0118701Y0065064D01*
X0118943Y0064822D01*
X0119171Y0064690D01*
X0118942Y0064461D01*
X0118942Y0062381D01*
X0119410Y0061912D01*
X0122829Y0061912D01*
X0123298Y0062381D01*
X0123298Y0064461D01*
X0123068Y0064690D01*
X0123296Y0064822D01*
X0123538Y0065064D01*
X0123709Y0065360D01*
X0123798Y0065691D01*
X0123798Y0066516D01*
X0121174Y0066516D01*
X0121174Y0066625D01*
X0123798Y0066625D01*
X0123798Y0067450D01*
X0123709Y0067781D01*
X0123538Y0068077D01*
X0123296Y0068319D01*
X0123068Y0068451D01*
X0123298Y0068680D01*
X0123298Y0070760D01*
X0122829Y0071229D01*
X0123298Y0070478D02*
X0135952Y0070478D01*
X0135353Y0069880D02*
X0123298Y0069880D01*
X0123298Y0069281D02*
X0134755Y0069281D01*
X0134156Y0068683D02*
X0123298Y0068683D01*
X0123531Y0068084D02*
X0133558Y0068084D01*
X0133445Y0067486D02*
X0123788Y0067486D01*
X0123798Y0066887D02*
X0133445Y0066887D01*
X0133445Y0066289D02*
X0123798Y0066289D01*
X0123797Y0065690D02*
X0133445Y0065690D01*
X0133445Y0065092D02*
X0123554Y0065092D01*
X0123265Y0064493D02*
X0133445Y0064493D01*
X0132312Y0063894D02*
X0131541Y0063894D01*
X0131801Y0063296D02*
X0132170Y0063296D01*
X0134545Y0061846D02*
X0129309Y0061846D01*
X0129294Y0061848D01*
X0129279Y0061852D01*
X0129265Y0061859D01*
X0129253Y0061869D01*
X0129243Y0061881D01*
X0129236Y0061895D01*
X0129232Y0061910D01*
X0129230Y0061925D01*
X0126658Y0062099D02*
X0123016Y0062099D01*
X0122829Y0061780D02*
X0119410Y0061780D01*
X0118942Y0061311D01*
X0118942Y0059231D01*
X0119410Y0058763D01*
X0122829Y0058763D01*
X0123298Y0059231D01*
X0123298Y0061311D01*
X0122829Y0061780D01*
X0123108Y0061500D02*
X0126658Y0061500D01*
X0126658Y0060902D02*
X0123298Y0060902D01*
X0123298Y0060303D02*
X0126658Y0060303D01*
X0126541Y0059106D02*
X0123173Y0059106D01*
X0123298Y0059705D02*
X0132405Y0059705D01*
X0132170Y0060303D02*
X0131801Y0060303D01*
X0129530Y0059106D02*
X0128930Y0059106D01*
X0128930Y0058508D02*
X0129530Y0058508D01*
X0129530Y0057909D02*
X0128930Y0057909D01*
X0128930Y0057311D02*
X0129530Y0057311D01*
X0129530Y0056114D02*
X0128930Y0056114D01*
X0128930Y0055515D02*
X0129530Y0055515D01*
X0129530Y0054917D02*
X0128930Y0054917D01*
X0128930Y0054318D02*
X0129530Y0054318D01*
X0126162Y0052289D02*
X0122870Y0055581D01*
X0122661Y0055581D01*
X0121120Y0057122D01*
X0111710Y0057122D01*
X0108561Y0060271D01*
X0110542Y0060303D02*
X0112485Y0060303D01*
X0112485Y0059705D02*
X0110683Y0059705D01*
X0111281Y0059106D02*
X0112829Y0059106D01*
X0112485Y0059451D02*
X0113645Y0058290D01*
X0115287Y0058290D01*
X0116447Y0059451D01*
X0116447Y0061092D01*
X0115287Y0062252D01*
X0113645Y0062252D01*
X0112485Y0061092D01*
X0112485Y0059451D01*
X0111880Y0058508D02*
X0113428Y0058508D01*
X0115504Y0058508D02*
X0119288Y0058508D01*
X0119067Y0059106D02*
X0116103Y0059106D01*
X0116447Y0059705D02*
X0118942Y0059705D01*
X0118942Y0060303D02*
X0116447Y0060303D01*
X0116447Y0060902D02*
X0118942Y0060902D01*
X0119131Y0061500D02*
X0116039Y0061500D01*
X0115440Y0062099D02*
X0119224Y0062099D01*
X0118942Y0062697D02*
X0086368Y0062697D01*
X0086368Y0062381D02*
X0086368Y0064461D01*
X0085900Y0064930D01*
X0082481Y0064930D01*
X0082012Y0064461D01*
X0082012Y0062381D01*
X0082481Y0061912D01*
X0085900Y0061912D01*
X0086368Y0062381D01*
X0086086Y0062099D02*
X0089870Y0062099D01*
X0090023Y0062252D02*
X0088863Y0061092D01*
X0088863Y0059451D01*
X0090023Y0058290D01*
X0091665Y0058290D01*
X0092825Y0059451D01*
X0092825Y0061092D01*
X0091665Y0062252D01*
X0090023Y0062252D01*
X0089271Y0061500D02*
X0086179Y0061500D01*
X0086368Y0061311D02*
X0085900Y0061780D01*
X0082481Y0061780D01*
X0082012Y0061311D01*
X0082012Y0059231D01*
X0082481Y0058763D01*
X0085900Y0058763D01*
X0086368Y0059231D01*
X0086368Y0061311D01*
X0086368Y0060902D02*
X0088863Y0060902D01*
X0088863Y0060303D02*
X0086368Y0060303D01*
X0086368Y0059705D02*
X0088863Y0059705D01*
X0089207Y0059106D02*
X0086243Y0059106D01*
X0085900Y0058630D02*
X0082481Y0058630D01*
X0082012Y0058162D01*
X0082012Y0056082D01*
X0082481Y0055613D01*
X0085900Y0055613D01*
X0086368Y0056082D01*
X0086368Y0058162D01*
X0085900Y0058630D01*
X0086022Y0058508D02*
X0089806Y0058508D01*
X0090120Y0056752D02*
X0089669Y0056565D01*
X0089262Y0056293D01*
X0088917Y0055947D01*
X0088645Y0055541D01*
X0088458Y0055090D01*
X0088372Y0054656D01*
X0090553Y0054656D01*
X0090553Y0054075D01*
X0088372Y0054075D01*
X0088458Y0053642D01*
X0088645Y0053191D01*
X0088917Y0052784D01*
X0089262Y0052439D01*
X0089669Y0052167D01*
X0090120Y0051980D01*
X0090553Y0051894D01*
X0090553Y0054075D01*
X0091135Y0054075D01*
X0091135Y0054656D01*
X0093316Y0054656D01*
X0093230Y0055090D01*
X0093043Y0055541D01*
X0092771Y0055947D01*
X0092426Y0056293D01*
X0092019Y0056565D01*
X0091568Y0056752D01*
X0091135Y0056838D01*
X0091135Y0054656D01*
X0090553Y0054656D01*
X0090553Y0056838D01*
X0090120Y0056752D01*
X0090026Y0056712D02*
X0086368Y0056712D01*
X0086368Y0056114D02*
X0089083Y0056114D01*
X0088635Y0055515D02*
X0079964Y0055515D01*
X0080563Y0054917D02*
X0082012Y0054917D01*
X0082012Y0055012D02*
X0082012Y0052932D01*
X0082481Y0052463D01*
X0085900Y0052463D01*
X0086368Y0052932D01*
X0086368Y0055012D01*
X0085900Y0055481D01*
X0082481Y0055481D01*
X0082012Y0055012D01*
X0082012Y0054318D02*
X0081040Y0054318D01*
X0081040Y0053720D02*
X0082012Y0053720D01*
X0082012Y0053121D02*
X0081040Y0053121D01*
X0080688Y0052523D02*
X0082422Y0052523D01*
X0082481Y0052331D02*
X0082012Y0051863D01*
X0082012Y0049783D01*
X0082481Y0049314D01*
X0085900Y0049314D01*
X0086368Y0049783D01*
X0086368Y0051863D01*
X0085900Y0052331D01*
X0082481Y0052331D01*
X0082074Y0051924D02*
X0080090Y0051924D01*
X0078213Y0051924D02*
X0075523Y0051924D01*
X0076121Y0052523D02*
X0077614Y0052523D01*
X0077262Y0053121D02*
X0076434Y0053121D01*
X0076434Y0053720D02*
X0077262Y0053720D01*
X0076930Y0054318D02*
X0076434Y0054318D01*
X0076791Y0054917D02*
X0075917Y0054917D01*
X0075632Y0055515D02*
X0076784Y0055515D01*
X0076777Y0056114D02*
X0075628Y0056114D01*
X0075624Y0056712D02*
X0076769Y0056712D01*
X0076762Y0057311D02*
X0075619Y0057311D01*
X0075615Y0057909D02*
X0076755Y0057909D01*
X0076748Y0058508D02*
X0075611Y0058508D01*
X0075607Y0059106D02*
X0076740Y0059106D01*
X0076733Y0059705D02*
X0075603Y0059705D01*
X0075599Y0060303D02*
X0076726Y0060303D01*
X0076718Y0060902D02*
X0075595Y0060902D01*
X0075591Y0061500D02*
X0076711Y0061500D01*
X0076704Y0062099D02*
X0075587Y0062099D01*
X0073387Y0062099D02*
X0073256Y0062099D01*
X0073256Y0062697D02*
X0073382Y0062697D01*
X0073378Y0063296D02*
X0073256Y0063296D01*
X0073256Y0063894D02*
X0073374Y0063894D01*
X0073370Y0064493D02*
X0073256Y0064493D01*
X0073256Y0065092D02*
X0073366Y0065092D01*
X0073362Y0065690D02*
X0073256Y0065690D01*
X0073256Y0066289D02*
X0073358Y0066289D01*
X0073354Y0066887D02*
X0073256Y0066887D01*
X0073256Y0067486D02*
X0073350Y0067486D01*
X0073345Y0068084D02*
X0073256Y0068084D01*
X0073256Y0068683D02*
X0073341Y0068683D01*
X0073337Y0069281D02*
X0073256Y0069281D01*
X0073256Y0069880D02*
X0073333Y0069880D01*
X0073329Y0070478D02*
X0073256Y0070478D01*
X0074427Y0070835D02*
X0077043Y0075980D01*
X0077538Y0075980D01*
X0077538Y0085657D01*
X0079537Y0087655D01*
X0087298Y0086039D02*
X0087367Y0086039D01*
X0087298Y0085441D02*
X0087839Y0085441D01*
X0087298Y0084842D02*
X0088511Y0084842D01*
X0088168Y0084244D02*
X0087298Y0084244D01*
X0087298Y0083645D02*
X0088168Y0083645D01*
X0088168Y0083047D02*
X0087298Y0083047D01*
X0087298Y0082448D02*
X0088653Y0082448D01*
X0088957Y0081850D02*
X0087298Y0081850D01*
X0087298Y0081251D02*
X0088957Y0081251D01*
X0088755Y0080653D02*
X0088208Y0080653D01*
X0088416Y0080054D02*
X0088548Y0080054D01*
X0088548Y0079456D02*
X0088416Y0079456D01*
X0090057Y0078736D02*
X0090057Y0083716D01*
X0091946Y0083645D02*
X0094949Y0083645D01*
X0094949Y0083998D02*
X0094949Y0082433D01*
X0096055Y0081327D01*
X0097620Y0081327D01*
X0098727Y0082433D01*
X0098727Y0083998D01*
X0097620Y0085105D01*
X0096055Y0085105D01*
X0094949Y0083998D01*
X0095194Y0084244D02*
X0091946Y0084244D01*
X0091602Y0084842D02*
X0095793Y0084842D01*
X0094949Y0083047D02*
X0091946Y0083047D01*
X0091460Y0082448D02*
X0094949Y0082448D01*
X0095533Y0081850D02*
X0091157Y0081850D01*
X0091157Y0081251D02*
X0104733Y0081251D01*
X0104740Y0081850D02*
X0098143Y0081850D01*
X0098727Y0082448D02*
X0104747Y0082448D01*
X0104754Y0083047D02*
X0098727Y0083047D01*
X0098727Y0083645D02*
X0104761Y0083645D01*
X0104768Y0084244D02*
X0098481Y0084244D01*
X0097883Y0084842D02*
X0104774Y0084842D01*
X0104781Y0085441D02*
X0099144Y0085441D01*
X0099742Y0086039D02*
X0104788Y0086039D01*
X0104795Y0086638D02*
X0100341Y0086638D01*
X0100939Y0087236D02*
X0104802Y0087236D01*
X0104809Y0087835D02*
X0101538Y0087835D01*
X0102137Y0088433D02*
X0104816Y0088433D01*
X0105923Y0089051D02*
X0103561Y0091413D01*
X0098516Y0086368D01*
X0088470Y0086368D01*
X0088476Y0086985D01*
X0088476Y0095723D01*
X0087949Y0096250D01*
X0088942Y0096813D02*
X0107556Y0096813D01*
X0107559Y0096214D02*
X0093669Y0096214D01*
X0093735Y0096148D02*
X0093493Y0096390D01*
X0093196Y0096561D01*
X0092866Y0096650D01*
X0091616Y0096650D01*
X0091616Y0093878D01*
X0093994Y0093878D01*
X0093994Y0095521D01*
X0093906Y0095852D01*
X0093735Y0096148D01*
X0093969Y0095616D02*
X0107561Y0095616D01*
X0107564Y0095017D02*
X0093994Y0095017D01*
X0093994Y0094419D02*
X0107566Y0094419D01*
X0106805Y0093820D02*
X0105434Y0093820D01*
X0105738Y0093222D02*
X0106501Y0093222D01*
X0106501Y0092623D02*
X0105738Y0092623D01*
X0105738Y0092025D02*
X0106501Y0092025D01*
X0106501Y0091426D02*
X0105738Y0091426D01*
X0105738Y0090827D02*
X0106501Y0090827D01*
X0106501Y0090229D02*
X0106300Y0090229D01*
X0105923Y0089051D02*
X0105805Y0078736D01*
X0107313Y0078857D02*
X0107446Y0078857D01*
X0107446Y0078259D02*
X0107313Y0078259D01*
X0107313Y0077660D02*
X0107446Y0077660D01*
X0107446Y0077062D02*
X0107313Y0077062D01*
X0107446Y0077027D02*
X0107914Y0076558D01*
X0109994Y0076558D01*
X0110463Y0077027D01*
X0110463Y0080445D01*
X0109994Y0080914D01*
X0107914Y0080914D01*
X0107446Y0080445D01*
X0107446Y0077027D01*
X0107446Y0079456D02*
X0107313Y0079456D01*
X0107313Y0080054D02*
X0107446Y0080054D01*
X0107653Y0080653D02*
X0107106Y0080653D01*
X0106933Y0081251D02*
X0111036Y0081251D01*
X0111044Y0081850D02*
X0106940Y0081850D01*
X0106947Y0082448D02*
X0111052Y0082448D01*
X0111060Y0083047D02*
X0106954Y0083047D01*
X0106961Y0083645D02*
X0111067Y0083645D01*
X0111075Y0084244D02*
X0106968Y0084244D01*
X0106975Y0084842D02*
X0111083Y0084842D01*
X0111091Y0085441D02*
X0106981Y0085441D01*
X0106988Y0086039D02*
X0111099Y0086039D01*
X0111106Y0086638D02*
X0106995Y0086638D01*
X0107002Y0087236D02*
X0111114Y0087236D01*
X0111122Y0087835D02*
X0107009Y0087835D01*
X0107016Y0088433D02*
X0111265Y0088433D01*
X0111868Y0089032D02*
X0110578Y0089032D01*
X0110857Y0089630D02*
X0112466Y0089630D01*
X0113065Y0090229D02*
X0110857Y0090229D01*
X0110857Y0090827D02*
X0113587Y0090827D01*
X0113587Y0091426D02*
X0110857Y0091426D01*
X0110857Y0092025D02*
X0113587Y0092025D01*
X0113587Y0092623D02*
X0110857Y0092623D01*
X0110857Y0093222D02*
X0113587Y0093222D01*
X0113931Y0093820D02*
X0110553Y0093820D01*
X0109766Y0094419D02*
X0118028Y0094419D01*
X0117600Y0093820D02*
X0118627Y0093820D01*
X0118705Y0093222D02*
X0117943Y0093222D01*
X0117943Y0092623D02*
X0118705Y0092623D01*
X0118705Y0092025D02*
X0117943Y0092025D01*
X0117943Y0091426D02*
X0118705Y0091426D01*
X0118705Y0090827D02*
X0117943Y0090827D01*
X0117943Y0090229D02*
X0118183Y0090229D01*
X0118836Y0089326D02*
X0118836Y0083027D01*
X0116947Y0083047D02*
X0113260Y0083047D01*
X0113268Y0083645D02*
X0116947Y0083645D01*
X0116947Y0083810D02*
X0116947Y0082245D01*
X0117778Y0081414D01*
X0117523Y0081414D01*
X0117193Y0081325D01*
X0116896Y0081154D01*
X0116828Y0081086D01*
X0116760Y0081154D01*
X0116464Y0081325D01*
X0116133Y0081414D01*
X0115308Y0081414D01*
X0115308Y0078790D01*
X0115199Y0078790D01*
X0115199Y0081414D01*
X0114374Y0081414D01*
X0114043Y0081325D01*
X0113747Y0081154D01*
X0113505Y0080912D01*
X0113373Y0080685D01*
X0113231Y0080827D01*
X0113316Y0087369D01*
X0114749Y0088802D01*
X0117475Y0088802D01*
X0117736Y0089064D01*
X0117736Y0084599D01*
X0116947Y0083810D01*
X0117381Y0084244D02*
X0113275Y0084244D01*
X0113283Y0084842D02*
X0117736Y0084842D01*
X0117736Y0085441D02*
X0113291Y0085441D01*
X0113299Y0086039D02*
X0117736Y0086039D01*
X0117736Y0086638D02*
X0113307Y0086638D01*
X0113314Y0087236D02*
X0117736Y0087236D01*
X0117736Y0087835D02*
X0113782Y0087835D01*
X0114381Y0088433D02*
X0117736Y0088433D01*
X0117704Y0089032D02*
X0117736Y0089032D01*
X0118836Y0089326D02*
X0120883Y0091374D01*
X0120883Y0093119D01*
X0110587Y0103415D01*
X0106692Y0103415D01*
X0104217Y0100941D01*
X0102734Y0100941D01*
X0100359Y0101002D02*
X0099392Y0101002D01*
X0099144Y0100404D02*
X0100359Y0100404D01*
X0100359Y0099805D02*
X0098633Y0099805D01*
X0098035Y0099207D02*
X0100359Y0099207D01*
X0100785Y0098608D02*
X0096897Y0098608D01*
X0099640Y0101601D02*
X0100359Y0101601D01*
X0100359Y0102199D02*
X0099768Y0102199D01*
X0099768Y0102798D02*
X0100359Y0102798D01*
X0099768Y0103396D02*
X0105117Y0103396D01*
X0105715Y0103995D02*
X0099645Y0103995D01*
X0099397Y0104593D02*
X0120781Y0104593D01*
X0120183Y0103995D02*
X0111563Y0103995D01*
X0112162Y0103396D02*
X0116025Y0103396D01*
X0115426Y0102798D02*
X0112760Y0102798D01*
X0113359Y0102199D02*
X0115051Y0102199D01*
X0115051Y0101601D02*
X0113957Y0101601D01*
X0114556Y0101002D02*
X0115051Y0101002D01*
X0115154Y0100404D02*
X0115505Y0100404D01*
X0115753Y0099805D02*
X0116104Y0099805D01*
X0116351Y0099207D02*
X0120914Y0099207D01*
X0120316Y0099805D02*
X0117777Y0099805D01*
X0118375Y0100404D02*
X0119717Y0100404D01*
X0120244Y0099877D02*
X0120244Y0099877D01*
X0120700Y0100977D02*
X0127075Y0094602D01*
X0128442Y0094602D01*
X0127659Y0095702D02*
X0127530Y0095702D01*
X0121800Y0101433D01*
X0121800Y0102500D01*
X0122555Y0103255D01*
X0124195Y0103255D01*
X0131174Y0096276D01*
X0131118Y0096309D01*
X0130652Y0096434D01*
X0130411Y0096434D01*
X0130411Y0094602D01*
X0130411Y0094465D01*
X0130411Y0092634D01*
X0130411Y0092634D01*
X0130411Y0094602D01*
X0130411Y0094602D01*
X0130411Y0094658D01*
X0129035Y0096034D01*
X0129022Y0096034D01*
X0123089Y0101966D01*
X0122230Y0101002D02*
X0126448Y0101002D01*
X0127047Y0100404D02*
X0122829Y0100404D01*
X0123427Y0099805D02*
X0127645Y0099805D01*
X0128244Y0099207D02*
X0124026Y0099207D01*
X0124624Y0098608D02*
X0128842Y0098608D01*
X0129441Y0098010D02*
X0125223Y0098010D01*
X0125821Y0097411D02*
X0130039Y0097411D01*
X0130638Y0096813D02*
X0126420Y0096813D01*
X0127018Y0096214D02*
X0129540Y0096214D01*
X0129704Y0096309D02*
X0129286Y0096068D01*
X0129073Y0095854D01*
X0128994Y0095934D01*
X0127891Y0095934D01*
X0127659Y0095702D01*
X0129704Y0096309D02*
X0130170Y0096434D01*
X0130411Y0096434D01*
X0130411Y0094602D01*
X0130411Y0092634D01*
X0130411Y0093222D02*
X0130411Y0093222D01*
X0130411Y0093820D02*
X0130411Y0093820D01*
X0130411Y0094419D02*
X0130411Y0094419D01*
X0130411Y0094602D02*
X0130411Y0094602D01*
X0130411Y0095017D02*
X0130411Y0095017D01*
X0130411Y0095616D02*
X0130411Y0095616D01*
X0130411Y0096214D02*
X0130411Y0096214D01*
X0132379Y0094602D02*
X0136827Y0094602D01*
X0138493Y0092936D01*
X0141165Y0094439D02*
X0145923Y0089287D01*
X0148691Y0089032D02*
X0150635Y0089032D01*
X0150635Y0089630D02*
X0148691Y0089630D01*
X0148691Y0090229D02*
X0150635Y0090229D01*
X0150635Y0090827D02*
X0148691Y0090827D01*
X0148691Y0091426D02*
X0150635Y0091426D01*
X0151072Y0092025D02*
X0148254Y0092025D01*
X0148062Y0095467D02*
X0146223Y0095467D01*
X0146223Y0098436D01*
X0149191Y0098436D01*
X0149191Y0096596D01*
X0149103Y0096266D01*
X0148931Y0095969D01*
X0148689Y0095727D01*
X0148393Y0095556D01*
X0148062Y0095467D01*
X0148496Y0095616D02*
X0165009Y0095616D01*
X0164934Y0095690D02*
X0166041Y0094584D01*
X0167605Y0094584D01*
X0168712Y0095690D01*
X0168712Y0097255D01*
X0167605Y0098361D01*
X0166041Y0098361D01*
X0164934Y0097255D01*
X0164934Y0095690D01*
X0164934Y0096214D02*
X0155950Y0096214D01*
X0156172Y0096813D02*
X0164934Y0096813D01*
X0165090Y0097411D02*
X0161986Y0097411D01*
X0162585Y0098010D02*
X0165689Y0098010D01*
X0164380Y0099805D02*
X0191827Y0099805D01*
X0192225Y0099408D02*
X0193789Y0099408D01*
X0194896Y0100515D01*
X0194896Y0102079D01*
X0193789Y0103186D01*
X0192225Y0103186D01*
X0191118Y0102079D01*
X0191118Y0100515D01*
X0192225Y0099408D01*
X0191229Y0100404D02*
X0164979Y0100404D01*
X0165577Y0101002D02*
X0191118Y0101002D01*
X0191118Y0101601D02*
X0166176Y0101601D01*
X0166774Y0102199D02*
X0171609Y0102199D01*
X0172528Y0103441D02*
X0172968Y0103512D01*
X0172936Y0103480D01*
X0166500Y0103480D01*
X0161362Y0098342D01*
X0153403Y0098736D01*
X0151133Y0098736D01*
X0148264Y0101604D01*
X0142044Y0101604D01*
X0138493Y0098054D01*
X0139818Y0096034D02*
X0141165Y0094686D01*
X0141165Y0094439D01*
X0142265Y0095017D02*
X0165607Y0095017D01*
X0168039Y0095017D02*
X0195819Y0095017D01*
X0195820Y0094419D02*
X0142681Y0094419D01*
X0143234Y0093820D02*
X0195821Y0093820D01*
X0195822Y0093222D02*
X0143786Y0093222D01*
X0144339Y0092623D02*
X0195824Y0092623D01*
X0195825Y0092025D02*
X0155734Y0092025D01*
X0156172Y0091426D02*
X0192198Y0091426D01*
X0192582Y0091810D02*
X0191475Y0090703D01*
X0191475Y0089138D01*
X0192582Y0088032D01*
X0194146Y0088032D01*
X0195253Y0089138D01*
X0195253Y0090703D01*
X0194146Y0091810D01*
X0192582Y0091810D01*
X0191599Y0090827D02*
X0156172Y0090827D01*
X0156172Y0090229D02*
X0191475Y0090229D01*
X0191475Y0089630D02*
X0156172Y0089630D01*
X0156172Y0089032D02*
X0191582Y0089032D01*
X0192180Y0088433D02*
X0156252Y0088433D01*
X0156903Y0087835D02*
X0195833Y0087835D01*
X0195832Y0088433D02*
X0194548Y0088433D01*
X0195146Y0089032D02*
X0195830Y0089032D01*
X0195829Y0089630D02*
X0195253Y0089630D01*
X0195253Y0090229D02*
X0195828Y0090229D01*
X0195827Y0090827D02*
X0195129Y0090827D01*
X0194530Y0091426D02*
X0195826Y0091426D01*
X0195834Y0087236D02*
X0157554Y0087236D01*
X0158205Y0086638D02*
X0195835Y0086638D01*
X0195836Y0086039D02*
X0158883Y0086039D01*
X0159507Y0085441D02*
X0195837Y0085441D01*
X0195838Y0084842D02*
X0159591Y0084842D01*
X0159591Y0084244D02*
X0195840Y0084244D01*
X0195841Y0083645D02*
X0159591Y0083645D01*
X0159591Y0083047D02*
X0195842Y0083047D01*
X0195843Y0082448D02*
X0159591Y0082448D01*
X0159591Y0081850D02*
X0195844Y0081850D01*
X0195845Y0081251D02*
X0159591Y0081251D01*
X0159591Y0080653D02*
X0195846Y0080653D01*
X0195848Y0080054D02*
X0159676Y0080054D01*
X0160180Y0079456D02*
X0195849Y0079456D01*
X0195850Y0078857D02*
X0160180Y0078857D01*
X0160180Y0078259D02*
X0195851Y0078259D01*
X0195852Y0077660D02*
X0159855Y0077660D01*
X0159256Y0077062D02*
X0195853Y0077062D01*
X0195854Y0076463D02*
X0152498Y0076463D01*
X0152904Y0077062D02*
X0157325Y0077062D01*
X0156727Y0077660D02*
X0152904Y0077660D01*
X0154183Y0078775D02*
X0149742Y0078775D01*
X0137734Y0078775D01*
X0137537Y0078972D01*
X0137537Y0081799D01*
X0142332Y0086594D01*
X0142332Y0088573D01*
X0140933Y0089973D01*
X0136399Y0089973D01*
X0134275Y0092097D01*
X0132916Y0092097D01*
X0132379Y0092634D01*
X0132379Y0090665D02*
X0132379Y0079012D01*
X0132419Y0078972D01*
X0134597Y0078857D02*
X0135359Y0078857D01*
X0135359Y0078259D02*
X0134597Y0078259D01*
X0134597Y0077660D02*
X0135359Y0077660D01*
X0135359Y0077062D02*
X0134597Y0077062D01*
X0134191Y0076463D02*
X0135765Y0076463D01*
X0135359Y0079456D02*
X0134597Y0079456D01*
X0134597Y0080054D02*
X0135359Y0080054D01*
X0135359Y0080653D02*
X0134597Y0080653D01*
X0134421Y0081251D02*
X0135535Y0081251D01*
X0136437Y0081850D02*
X0133479Y0081850D01*
X0133479Y0082448D02*
X0136631Y0082448D01*
X0137229Y0083047D02*
X0133479Y0083047D01*
X0133479Y0083645D02*
X0137828Y0083645D01*
X0138426Y0084244D02*
X0133479Y0084244D01*
X0133479Y0084842D02*
X0139025Y0084842D01*
X0139623Y0085441D02*
X0133479Y0085441D01*
X0133479Y0086039D02*
X0134282Y0086039D01*
X0133684Y0086638D02*
X0133479Y0086638D01*
X0133479Y0087236D02*
X0133485Y0087236D01*
X0133479Y0087835D02*
X0133485Y0087835D01*
X0133479Y0088433D02*
X0133518Y0088433D01*
X0133479Y0089032D02*
X0134116Y0089032D01*
X0133479Y0089630D02*
X0135185Y0089630D01*
X0134587Y0090229D02*
X0133711Y0090229D01*
X0133711Y0090827D02*
X0133988Y0090827D01*
X0135374Y0087619D02*
X0135881Y0087820D01*
X0137263Y0087835D02*
X0137343Y0087835D01*
X0137343Y0087236D02*
X0137263Y0087236D01*
X0137065Y0086638D02*
X0137524Y0086638D01*
X0138123Y0086039D02*
X0136466Y0086039D01*
X0137231Y0088433D02*
X0137392Y0088433D01*
X0141537Y0084244D02*
X0156967Y0084244D01*
X0156991Y0083645D02*
X0140939Y0083645D01*
X0140340Y0083047D02*
X0156991Y0083047D01*
X0156991Y0082448D02*
X0139742Y0082448D01*
X0139143Y0081850D02*
X0156991Y0081850D01*
X0156991Y0081251D02*
X0139539Y0081251D01*
X0139715Y0080653D02*
X0146579Y0080653D01*
X0146579Y0080054D02*
X0139715Y0080054D01*
X0139715Y0077660D02*
X0146579Y0077660D01*
X0146579Y0077062D02*
X0139715Y0077062D01*
X0139309Y0076463D02*
X0146985Y0076463D01*
X0147208Y0074563D02*
X0146878Y0074475D01*
X0146581Y0074304D01*
X0146339Y0074062D01*
X0146168Y0073765D01*
X0146079Y0073435D01*
X0146079Y0071989D01*
X0149442Y0071989D01*
X0149442Y0074563D01*
X0147208Y0074563D01*
X0146347Y0074069D02*
X0141292Y0074069D01*
X0141749Y0073471D02*
X0146089Y0073471D01*
X0146079Y0072872D02*
X0141749Y0072872D01*
X0141749Y0072274D02*
X0146079Y0072274D01*
X0146079Y0071389D02*
X0146079Y0069943D01*
X0146168Y0069612D01*
X0146339Y0069316D01*
X0146581Y0069074D01*
X0146878Y0068902D01*
X0147208Y0068814D01*
X0149442Y0068814D01*
X0149442Y0071389D01*
X0150042Y0071389D01*
X0150042Y0071989D01*
X0149442Y0071989D01*
X0149442Y0071389D01*
X0146079Y0071389D01*
X0146079Y0071077D02*
X0140777Y0071077D01*
X0141376Y0071675D02*
X0149442Y0071675D01*
X0149742Y0071689D02*
X0153949Y0071689D01*
X0158309Y0067329D01*
X0153315Y0069612D02*
X0153404Y0069943D01*
X0153404Y0071389D01*
X0150042Y0071389D01*
X0150042Y0068814D01*
X0152275Y0068814D01*
X0152606Y0068902D01*
X0152902Y0069074D01*
X0153144Y0069316D01*
X0153315Y0069612D01*
X0153387Y0069880D02*
X0195867Y0069880D01*
X0195866Y0070478D02*
X0153404Y0070478D01*
X0153404Y0071077D02*
X0195865Y0071077D01*
X0195864Y0071675D02*
X0150042Y0071675D01*
X0150042Y0071989D02*
X0153404Y0071989D01*
X0153404Y0073435D01*
X0153315Y0073765D01*
X0153144Y0074062D01*
X0152902Y0074304D01*
X0152606Y0074475D01*
X0152275Y0074563D01*
X0150042Y0074563D01*
X0150042Y0071989D01*
X0150042Y0072274D02*
X0149442Y0072274D01*
X0149442Y0072872D02*
X0150042Y0072872D01*
X0150042Y0073471D02*
X0149442Y0073471D01*
X0149442Y0074069D02*
X0150042Y0074069D01*
X0153137Y0074069D02*
X0195859Y0074069D01*
X0195860Y0073471D02*
X0153394Y0073471D01*
X0153404Y0072872D02*
X0195861Y0072872D01*
X0195862Y0072274D02*
X0153404Y0072274D01*
X0150042Y0071077D02*
X0149442Y0071077D01*
X0149442Y0070478D02*
X0150042Y0070478D01*
X0150042Y0069880D02*
X0149442Y0069880D01*
X0149442Y0069281D02*
X0150042Y0069281D01*
X0153109Y0069281D02*
X0195868Y0069281D01*
X0195869Y0068683D02*
X0137268Y0068683D01*
X0137866Y0069281D02*
X0146374Y0069281D01*
X0146096Y0069880D02*
X0138465Y0069880D01*
X0139063Y0070478D02*
X0146079Y0070478D01*
X0140694Y0074668D02*
X0195858Y0074668D01*
X0195857Y0075266D02*
X0123298Y0075266D01*
X0123298Y0075865D02*
X0195856Y0075865D01*
X0195870Y0068084D02*
X0136669Y0068084D01*
X0136070Y0067486D02*
X0195871Y0067486D01*
X0195873Y0066887D02*
X0135645Y0066887D01*
X0137971Y0072872D02*
X0123298Y0072872D01*
X0123298Y0073471D02*
X0137971Y0073471D01*
X0138427Y0074069D02*
X0123138Y0074069D01*
X0122986Y0074668D02*
X0139026Y0074668D01*
X0130647Y0076463D02*
X0123298Y0076463D01*
X0123295Y0077062D02*
X0130241Y0077062D01*
X0130241Y0077660D02*
X0120412Y0077660D01*
X0120412Y0078259D02*
X0120673Y0078259D01*
X0121855Y0079748D02*
X0128442Y0086335D01*
X0128442Y0090665D01*
X0128442Y0092634D02*
X0122143Y0092634D01*
X0120883Y0091374D01*
X0121139Y0094419D02*
X0125702Y0094419D01*
X0125975Y0094146D02*
X0125975Y0094146D01*
X0126301Y0093820D02*
X0122718Y0093820D01*
X0120541Y0095017D02*
X0125104Y0095017D01*
X0124505Y0095616D02*
X0119942Y0095616D01*
X0119344Y0096214D02*
X0123907Y0096214D01*
X0123308Y0096813D02*
X0118745Y0096813D01*
X0118147Y0097411D02*
X0122710Y0097411D01*
X0122111Y0098010D02*
X0117548Y0098010D01*
X0116950Y0098608D02*
X0121513Y0098608D01*
X0120700Y0100977D02*
X0120700Y0101640D01*
X0116940Y0101640D01*
X0118454Y0102798D02*
X0119600Y0102798D01*
X0119600Y0103396D02*
X0117855Y0103396D01*
X0120700Y0102956D02*
X0120700Y0101640D01*
X0121800Y0101601D02*
X0125850Y0101601D01*
X0125251Y0102199D02*
X0121800Y0102199D01*
X0122097Y0102798D02*
X0124653Y0102798D01*
X0124650Y0104355D02*
X0122099Y0104355D01*
X0120700Y0102956D01*
X0124650Y0104355D02*
X0132972Y0096034D01*
X0139818Y0096034D01*
X0141193Y0096214D02*
X0142773Y0096214D01*
X0142743Y0096266D02*
X0142914Y0095969D01*
X0143156Y0095727D01*
X0143452Y0095556D01*
X0143783Y0095467D01*
X0145623Y0095467D01*
X0145623Y0098436D01*
X0142654Y0098436D01*
X0142654Y0096596D01*
X0142743Y0096266D01*
X0142654Y0096813D02*
X0141065Y0096813D01*
X0141065Y0097411D02*
X0142654Y0097411D01*
X0142654Y0098010D02*
X0141065Y0098010D01*
X0141065Y0098608D02*
X0145623Y0098608D01*
X0145623Y0098010D02*
X0146223Y0098010D01*
X0146223Y0098608D02*
X0149705Y0098608D01*
X0149191Y0098010D02*
X0150303Y0098010D01*
X0150635Y0097411D02*
X0149191Y0097411D01*
X0149191Y0096813D02*
X0150635Y0096813D01*
X0150856Y0096214D02*
X0149073Y0096214D01*
X0146223Y0096214D02*
X0145623Y0096214D01*
X0145623Y0095616D02*
X0146223Y0095616D01*
X0146223Y0096813D02*
X0145623Y0096813D01*
X0145623Y0097411D02*
X0146223Y0097411D01*
X0143349Y0095616D02*
X0141791Y0095616D01*
X0141620Y0095786D02*
X0141620Y0095786D01*
X0141202Y0099207D02*
X0142654Y0099207D01*
X0142654Y0099805D02*
X0141800Y0099805D01*
X0142399Y0100404D02*
X0142654Y0100404D01*
X0148691Y0088433D02*
X0150635Y0088433D01*
X0150635Y0087835D02*
X0148691Y0087835D01*
X0148691Y0087236D02*
X0150635Y0087236D01*
X0150984Y0086638D02*
X0148342Y0086638D01*
X0143504Y0086638D02*
X0143432Y0086638D01*
X0143333Y0086039D02*
X0155015Y0086039D01*
X0155665Y0085441D02*
X0142734Y0085441D01*
X0142136Y0084842D02*
X0156316Y0084842D01*
X0156991Y0080653D02*
X0152904Y0080653D01*
X0152904Y0080054D02*
X0156906Y0080054D01*
X0158291Y0078768D02*
X0154183Y0078775D01*
X0168637Y0095616D02*
X0195818Y0095616D01*
X0195817Y0096214D02*
X0168712Y0096214D01*
X0168712Y0096813D02*
X0195816Y0096813D01*
X0195815Y0097411D02*
X0168556Y0097411D01*
X0167957Y0098010D02*
X0195813Y0098010D01*
X0195812Y0098608D02*
X0163183Y0098608D01*
X0163782Y0099207D02*
X0195811Y0099207D01*
X0195810Y0099805D02*
X0194187Y0099805D01*
X0194785Y0100404D02*
X0195809Y0100404D01*
X0195808Y0101002D02*
X0194896Y0101002D01*
X0194896Y0101601D02*
X0195807Y0101601D01*
X0195805Y0102199D02*
X0194776Y0102199D01*
X0194178Y0102798D02*
X0195804Y0102798D01*
X0195803Y0103396D02*
X0174857Y0103396D01*
X0174857Y0102798D02*
X0191836Y0102798D01*
X0191238Y0102199D02*
X0174327Y0102199D01*
X0174857Y0103995D02*
X0195802Y0103995D01*
X0195801Y0104593D02*
X0174558Y0104593D01*
X0157920Y0097411D02*
X0156172Y0097411D01*
X0130411Y0090665D02*
X0130411Y0083185D01*
X0126748Y0079700D01*
X0125519Y0078259D02*
X0123038Y0078259D01*
X0123636Y0078857D02*
X0124920Y0078857D01*
X0124859Y0079456D02*
X0123744Y0079456D01*
X0123744Y0080054D02*
X0124859Y0080054D01*
X0125029Y0080653D02*
X0124316Y0080653D01*
X0124915Y0081251D02*
X0125628Y0081251D01*
X0125513Y0081850D02*
X0127412Y0081850D01*
X0128041Y0082448D02*
X0126112Y0082448D01*
X0126710Y0083047D02*
X0128670Y0083047D01*
X0129299Y0083645D02*
X0127309Y0083645D01*
X0127907Y0084244D02*
X0129311Y0084244D01*
X0129311Y0084842D02*
X0128506Y0084842D01*
X0129104Y0085441D02*
X0129311Y0085441D01*
X0131233Y0082448D02*
X0131279Y0082448D01*
X0131279Y0081850D02*
X0130604Y0081850D01*
X0130417Y0081251D02*
X0129974Y0081251D01*
X0130241Y0080653D02*
X0129345Y0080653D01*
X0128716Y0080054D02*
X0130241Y0080054D01*
X0130241Y0079456D02*
X0128637Y0079456D01*
X0128577Y0078857D02*
X0130241Y0078857D01*
X0130241Y0078259D02*
X0127978Y0078259D01*
X0119101Y0074069D02*
X0115958Y0074069D01*
X0116522Y0073471D02*
X0118942Y0073471D01*
X0118942Y0072872D02*
X0116824Y0072872D01*
X0116938Y0071792D02*
X0114757Y0071792D01*
X0114757Y0069610D01*
X0115190Y0069697D01*
X0115641Y0069884D01*
X0116048Y0070155D01*
X0116393Y0070501D01*
X0116665Y0070907D01*
X0116852Y0071359D01*
X0116938Y0071792D01*
X0116915Y0071675D02*
X0119096Y0071675D01*
X0118942Y0072274D02*
X0114757Y0072274D01*
X0114466Y0072082D02*
X0114466Y0077949D01*
X0115253Y0078736D01*
X0115199Y0078857D02*
X0115308Y0078857D01*
X0115308Y0079456D02*
X0115199Y0079456D01*
X0115199Y0080054D02*
X0115308Y0080054D01*
X0115308Y0080653D02*
X0115199Y0080653D01*
X0115199Y0081251D02*
X0115308Y0081251D01*
X0116592Y0081251D02*
X0117064Y0081251D01*
X0117342Y0081850D02*
X0113244Y0081850D01*
X0113252Y0082448D02*
X0116947Y0082448D01*
X0113915Y0081251D02*
X0113237Y0081251D01*
X0110803Y0080653D02*
X0110255Y0080653D01*
X0110463Y0080054D02*
X0110595Y0080054D01*
X0110595Y0079456D02*
X0110463Y0079456D01*
X0110463Y0078857D02*
X0110595Y0078857D01*
X0110595Y0078259D02*
X0110463Y0078259D01*
X0110463Y0077660D02*
X0110595Y0077660D01*
X0110595Y0077062D02*
X0110463Y0077062D01*
X0112104Y0078736D02*
X0112222Y0087830D01*
X0115765Y0091374D01*
X0117430Y0095017D02*
X0109764Y0095017D01*
X0109761Y0095616D02*
X0110613Y0095616D01*
X0110015Y0096214D02*
X0109759Y0096214D01*
X0112188Y0095616D02*
X0116831Y0095616D01*
X0116233Y0096214D02*
X0112787Y0096214D01*
X0113290Y0096813D02*
X0115634Y0096813D01*
X0115036Y0097411D02*
X0113290Y0097411D01*
X0113290Y0098010D02*
X0114437Y0098010D01*
X0113839Y0098608D02*
X0112963Y0098608D01*
X0113240Y0099207D02*
X0112365Y0099207D01*
X0112641Y0099805D02*
X0111014Y0099805D01*
X0111014Y0100404D02*
X0112043Y0100404D01*
X0111444Y0101002D02*
X0111014Y0101002D01*
X0108639Y0100941D02*
X0108679Y0091413D01*
X0104938Y0096728D02*
X0103954Y0096728D01*
X0100805Y0093578D01*
X0091316Y0093578D01*
X0091616Y0093820D02*
X0101687Y0093820D01*
X0101383Y0093222D02*
X0093994Y0093222D01*
X0093994Y0092623D02*
X0101383Y0092623D01*
X0101383Y0092025D02*
X0093994Y0092025D01*
X0093938Y0091426D02*
X0101383Y0091426D01*
X0101383Y0090827D02*
X0098265Y0090827D01*
X0098863Y0090229D02*
X0100821Y0090229D01*
X0100222Y0089630D02*
X0099180Y0089630D01*
X0099180Y0089032D02*
X0099624Y0089032D01*
X0097291Y0089130D02*
X0091316Y0089130D01*
X0093554Y0090827D02*
X0096318Y0090827D01*
X0091616Y0094419D02*
X0091016Y0094419D01*
X0091016Y0095017D02*
X0091616Y0095017D01*
X0091616Y0095616D02*
X0091016Y0095616D01*
X0091016Y0096214D02*
X0091616Y0096214D01*
X0104682Y0098608D02*
X0106691Y0098608D01*
X0106264Y0099207D02*
X0105109Y0099207D01*
X0105109Y0099805D02*
X0106264Y0099805D01*
X0106264Y0100404D02*
X0105236Y0100404D01*
X0105834Y0101002D02*
X0106264Y0101002D01*
X0103695Y0080914D02*
X0101615Y0080914D01*
X0101146Y0080445D01*
X0101146Y0077027D01*
X0101615Y0076558D01*
X0103695Y0076558D01*
X0104164Y0077027D01*
X0104164Y0080445D01*
X0103695Y0080914D01*
X0103956Y0080653D02*
X0104504Y0080653D01*
X0104296Y0080054D02*
X0104164Y0080054D01*
X0104164Y0079456D02*
X0104296Y0079456D01*
X0104296Y0078857D02*
X0104164Y0078857D01*
X0104164Y0078259D02*
X0104296Y0078259D01*
X0104296Y0077660D02*
X0104164Y0077660D01*
X0104164Y0077062D02*
X0104296Y0077062D01*
X0103476Y0074063D02*
X0101834Y0074063D01*
X0100674Y0072903D01*
X0100674Y0071262D01*
X0101834Y0070101D01*
X0103476Y0070101D01*
X0104636Y0071262D01*
X0104636Y0072903D01*
X0103476Y0074063D01*
X0104068Y0073471D02*
X0107147Y0073471D01*
X0106579Y0072872D02*
X0104636Y0072872D01*
X0104636Y0072274D02*
X0106579Y0072274D01*
X0106579Y0071675D02*
X0104636Y0071675D01*
X0104451Y0071077D02*
X0106765Y0071077D01*
X0107363Y0070478D02*
X0103852Y0070478D01*
X0103476Y0068158D02*
X0101834Y0068158D01*
X0100674Y0066997D01*
X0100674Y0065356D01*
X0101834Y0064196D01*
X0103476Y0064196D01*
X0104636Y0065356D01*
X0104636Y0066997D01*
X0103476Y0068158D01*
X0103549Y0068084D02*
X0107666Y0068084D01*
X0107740Y0068158D02*
X0106579Y0066997D01*
X0106579Y0065356D01*
X0107740Y0064196D01*
X0109381Y0064196D01*
X0110542Y0065356D01*
X0110542Y0066997D01*
X0109381Y0068158D01*
X0107740Y0068158D01*
X0107067Y0067486D02*
X0104148Y0067486D01*
X0104636Y0066887D02*
X0106579Y0066887D01*
X0106579Y0066289D02*
X0104636Y0066289D01*
X0104636Y0065690D02*
X0106579Y0065690D01*
X0106844Y0065092D02*
X0104371Y0065092D01*
X0103773Y0064493D02*
X0107443Y0064493D01*
X0107586Y0062099D02*
X0103629Y0062099D01*
X0103476Y0062252D02*
X0101834Y0062252D01*
X0100674Y0061092D01*
X0100674Y0059451D01*
X0101834Y0058290D01*
X0103476Y0058290D01*
X0104636Y0059451D01*
X0104636Y0061092D01*
X0103476Y0062252D01*
X0104228Y0061500D02*
X0106988Y0061500D01*
X0106579Y0060902D02*
X0104636Y0060902D01*
X0104636Y0060303D02*
X0106579Y0060303D01*
X0106579Y0059705D02*
X0104636Y0059705D01*
X0104292Y0059106D02*
X0106924Y0059106D01*
X0107522Y0058508D02*
X0103693Y0058508D01*
X0103379Y0056752D02*
X0102946Y0056838D01*
X0102946Y0054656D01*
X0105127Y0054656D01*
X0105041Y0055090D01*
X0104854Y0055541D01*
X0104582Y0055947D01*
X0104237Y0056293D01*
X0103830Y0056565D01*
X0103379Y0056752D01*
X0103473Y0056712D02*
X0110564Y0056712D01*
X0110610Y0056666D02*
X0110610Y0056666D01*
X0111162Y0056114D02*
X0109614Y0056114D01*
X0109381Y0056347D02*
X0107740Y0056347D01*
X0106579Y0055186D01*
X0106579Y0053545D01*
X0107740Y0052385D01*
X0109381Y0052385D01*
X0110542Y0053545D01*
X0110542Y0055186D01*
X0109381Y0056347D01*
X0109965Y0057311D02*
X0086368Y0057311D01*
X0086368Y0057909D02*
X0109367Y0057909D01*
X0107507Y0056114D02*
X0104416Y0056114D01*
X0104864Y0055515D02*
X0106908Y0055515D01*
X0106579Y0054917D02*
X0105075Y0054917D01*
X0105127Y0054075D02*
X0105041Y0053642D01*
X0104854Y0053191D01*
X0104582Y0052784D01*
X0104237Y0052439D01*
X0103830Y0052167D01*
X0103379Y0051980D01*
X0102946Y0051894D01*
X0102946Y0054075D01*
X0102946Y0054656D01*
X0102364Y0054656D01*
X0102364Y0054075D01*
X0100183Y0054075D01*
X0100269Y0053642D01*
X0100456Y0053191D01*
X0100728Y0052784D01*
X0101073Y0052439D01*
X0101480Y0052167D01*
X0101931Y0051980D01*
X0102364Y0051894D01*
X0102364Y0054075D01*
X0102946Y0054075D01*
X0105127Y0054075D01*
X0105056Y0053720D02*
X0106579Y0053720D01*
X0106579Y0054318D02*
X0102946Y0054318D01*
X0102655Y0054366D02*
X0096749Y0054366D01*
X0090844Y0054366D01*
X0090844Y0048460D01*
X0086907Y0044523D01*
X0086907Y0041807D01*
X0086853Y0041752D02*
X0086853Y0039129D01*
X0086027Y0039129D01*
X0085697Y0039217D01*
X0085400Y0039389D01*
X0085158Y0039631D01*
X0084987Y0039927D01*
X0084898Y0040258D01*
X0084898Y0041752D01*
X0086853Y0041752D01*
X0086853Y0041750D02*
X0086961Y0041750D01*
X0086961Y0042348D02*
X0086853Y0042348D01*
X0086853Y0042947D02*
X0086961Y0042947D01*
X0086961Y0043545D02*
X0086853Y0043545D01*
X0086853Y0044144D02*
X0086961Y0044144D01*
X0086368Y0044742D02*
X0118442Y0044742D01*
X0118442Y0044144D02*
X0116842Y0044144D01*
X0115308Y0044144D02*
X0115199Y0044144D01*
X0115199Y0044485D02*
X0114374Y0044485D01*
X0114043Y0044396D01*
X0113747Y0044225D01*
X0113679Y0044157D01*
X0113611Y0044225D01*
X0113314Y0044396D01*
X0112984Y0044485D01*
X0112158Y0044485D01*
X0112158Y0041861D01*
X0115199Y0041861D01*
X0115199Y0044485D01*
X0115199Y0043545D02*
X0115308Y0043545D01*
X0115308Y0042947D02*
X0115199Y0042947D01*
X0115199Y0042348D02*
X0115308Y0042348D01*
X0115253Y0041807D02*
X0114466Y0042594D01*
X0114466Y0045712D01*
X0109500Y0045712D01*
X0107346Y0043558D01*
X0107346Y0043348D01*
X0105805Y0041807D01*
X0102655Y0041807D01*
X0099505Y0041807D01*
X0097964Y0043348D01*
X0097964Y0043558D01*
X0095619Y0045903D01*
X0093206Y0045903D01*
X0093206Y0046098D01*
X0090844Y0048460D01*
X0091135Y0048333D02*
X0094768Y0048333D01*
X0094768Y0047735D02*
X0093229Y0047735D01*
X0093230Y0047737D02*
X0093316Y0048170D01*
X0091135Y0048170D01*
X0091135Y0048751D01*
X0093316Y0048751D01*
X0093230Y0049184D01*
X0093043Y0049636D01*
X0092771Y0050042D01*
X0092426Y0050388D01*
X0092019Y0050659D01*
X0091568Y0050846D01*
X0091135Y0050932D01*
X0091135Y0048751D01*
X0090553Y0048751D01*
X0090553Y0048170D01*
X0088372Y0048170D01*
X0088458Y0047737D01*
X0088645Y0047285D01*
X0088917Y0046879D01*
X0089262Y0046533D01*
X0089669Y0046262D01*
X0090120Y0046075D01*
X0090553Y0045988D01*
X0090553Y0048170D01*
X0091135Y0048170D01*
X0091135Y0045988D01*
X0091568Y0046075D01*
X0092019Y0046262D01*
X0092426Y0046533D01*
X0092771Y0046879D01*
X0093043Y0047285D01*
X0093230Y0047737D01*
X0092943Y0047136D02*
X0095272Y0047136D01*
X0094768Y0047640D02*
X0095929Y0046479D01*
X0097570Y0046479D01*
X0098731Y0047640D01*
X0098731Y0049281D01*
X0097570Y0050441D01*
X0095929Y0050441D01*
X0094768Y0049281D01*
X0094768Y0047640D01*
X0094768Y0048932D02*
X0093280Y0048932D01*
X0093086Y0049530D02*
X0095018Y0049530D01*
X0095616Y0050129D02*
X0092684Y0050129D01*
X0091855Y0050727D02*
X0113455Y0050727D01*
X0113291Y0050659D02*
X0112884Y0050388D01*
X0112539Y0050042D01*
X0112267Y0049636D01*
X0112080Y0049184D01*
X0111994Y0048751D01*
X0114175Y0048751D01*
X0114175Y0048170D01*
X0111994Y0048170D01*
X0112080Y0047737D01*
X0112267Y0047285D01*
X0112539Y0046879D01*
X0112884Y0046533D01*
X0113291Y0046262D01*
X0113742Y0046075D01*
X0114175Y0045988D01*
X0114175Y0048170D01*
X0114757Y0048170D01*
X0114757Y0048751D01*
X0116938Y0048751D01*
X0116852Y0049184D01*
X0116665Y0049636D01*
X0116393Y0050042D01*
X0116048Y0050388D01*
X0115641Y0050659D01*
X0115190Y0050846D01*
X0114757Y0050932D01*
X0114757Y0048751D01*
X0114175Y0048751D01*
X0114175Y0050932D01*
X0113742Y0050846D01*
X0113291Y0050659D01*
X0112626Y0050129D02*
X0109694Y0050129D01*
X0109381Y0050441D02*
X0110542Y0049281D01*
X0110542Y0047640D01*
X0109381Y0046479D01*
X0107740Y0046479D01*
X0106579Y0047640D01*
X0106579Y0049281D01*
X0107740Y0050441D01*
X0109381Y0050441D01*
X0110292Y0049530D02*
X0112224Y0049530D01*
X0112030Y0048932D02*
X0110542Y0048932D01*
X0110542Y0048333D02*
X0114175Y0048333D01*
X0114466Y0048460D02*
X0115253Y0047673D01*
X0121120Y0047673D01*
X0121120Y0044523D01*
X0121174Y0044469D02*
X0121174Y0042515D01*
X0122669Y0042515D01*
X0122999Y0042603D01*
X0123296Y0042774D01*
X0123538Y0043016D01*
X0123709Y0043313D01*
X0123798Y0043644D01*
X0123798Y0044469D01*
X0121174Y0044469D01*
X0121174Y0044578D01*
X0121065Y0044578D01*
X0121065Y0044469D01*
X0121174Y0044469D01*
X0121174Y0044578D02*
X0123798Y0044578D01*
X0123798Y0045403D01*
X0123709Y0045734D01*
X0123538Y0046030D01*
X0123470Y0046098D01*
X0123538Y0046166D01*
X0123709Y0046462D01*
X0123798Y0046793D01*
X0123798Y0047619D01*
X0121174Y0047619D01*
X0121174Y0045664D01*
X0121174Y0044578D01*
X0121174Y0044742D02*
X0121065Y0044742D01*
X0121065Y0044144D02*
X0121174Y0044144D01*
X0121174Y0043545D02*
X0121065Y0043545D01*
X0121065Y0042947D02*
X0121174Y0042947D01*
X0119912Y0042348D02*
X0125062Y0042348D01*
X0125062Y0041750D02*
X0119912Y0041750D01*
X0119912Y0041151D02*
X0125062Y0041151D01*
X0125062Y0040553D02*
X0119912Y0040553D01*
X0119768Y0039954D02*
X0125062Y0039954D01*
X0125062Y0039356D02*
X0116703Y0039356D01*
X0115308Y0039356D02*
X0115199Y0039356D01*
X0115199Y0039954D02*
X0115308Y0039954D01*
X0115308Y0040553D02*
X0115199Y0040553D01*
X0115199Y0041151D02*
X0115308Y0041151D01*
X0115308Y0041750D02*
X0115199Y0041750D01*
X0115253Y0041807D02*
X0112104Y0041807D01*
X0112049Y0042348D02*
X0112158Y0042348D01*
X0112158Y0042947D02*
X0112049Y0042947D01*
X0112049Y0043545D02*
X0112158Y0043545D01*
X0112158Y0044144D02*
X0112049Y0044144D01*
X0110516Y0044144D02*
X0107393Y0044144D01*
X0105859Y0044144D02*
X0105750Y0044144D01*
X0105750Y0044485D02*
X0104925Y0044485D01*
X0104594Y0044396D01*
X0104298Y0044225D01*
X0104230Y0044157D01*
X0104162Y0044225D01*
X0103865Y0044396D01*
X0103535Y0044485D01*
X0102709Y0044485D01*
X0102709Y0041861D01*
X0105750Y0041861D01*
X0105750Y0044485D01*
X0105750Y0043545D02*
X0105859Y0043545D01*
X0105859Y0042947D02*
X0105750Y0042947D01*
X0105750Y0042348D02*
X0105859Y0042348D01*
X0102709Y0042348D02*
X0102601Y0042348D01*
X0102601Y0042947D02*
X0102709Y0042947D01*
X0102709Y0043545D02*
X0102601Y0043545D01*
X0102601Y0044144D02*
X0102709Y0044144D01*
X0103476Y0046479D02*
X0104636Y0047640D01*
X0104636Y0049281D01*
X0103476Y0050441D01*
X0101834Y0050441D01*
X0100674Y0049281D01*
X0100674Y0047640D01*
X0101834Y0046479D01*
X0103476Y0046479D01*
X0103534Y0046538D02*
X0107681Y0046538D01*
X0107083Y0047136D02*
X0104133Y0047136D01*
X0104636Y0047735D02*
X0106579Y0047735D01*
X0106579Y0048333D02*
X0104636Y0048333D01*
X0104636Y0048932D02*
X0106579Y0048932D01*
X0106829Y0049530D02*
X0104387Y0049530D01*
X0103788Y0050129D02*
X0107427Y0050129D01*
X0107602Y0052523D02*
X0104321Y0052523D01*
X0104807Y0053121D02*
X0107003Y0053121D01*
X0109519Y0052523D02*
X0112800Y0052523D01*
X0112314Y0053121D02*
X0110118Y0053121D01*
X0110542Y0053720D02*
X0112065Y0053720D01*
X0112046Y0054917D02*
X0110542Y0054917D01*
X0110542Y0054318D02*
X0114175Y0054318D01*
X0114466Y0054366D02*
X0114860Y0053972D01*
X0121120Y0053972D01*
X0118442Y0053720D02*
X0116867Y0053720D01*
X0116852Y0053642D02*
X0116938Y0054075D01*
X0114757Y0054075D01*
X0114757Y0051894D01*
X0115190Y0051980D01*
X0115641Y0052167D01*
X0116048Y0052439D01*
X0116393Y0052784D01*
X0116665Y0053191D01*
X0116852Y0053642D01*
X0116618Y0053121D02*
X0118442Y0053121D01*
X0118668Y0052523D02*
X0116132Y0052523D01*
X0114909Y0051924D02*
X0119003Y0051924D01*
X0118942Y0051326D02*
X0086368Y0051326D01*
X0086368Y0050727D02*
X0089833Y0050727D01*
X0089669Y0050659D02*
X0090120Y0050846D01*
X0090553Y0050932D01*
X0090553Y0048751D01*
X0088372Y0048751D01*
X0088458Y0049184D01*
X0088645Y0049636D01*
X0088917Y0050042D01*
X0089262Y0050388D01*
X0089669Y0050659D01*
X0089004Y0050129D02*
X0086368Y0050129D01*
X0086116Y0049530D02*
X0088602Y0049530D01*
X0088408Y0048932D02*
X0086150Y0048932D01*
X0086368Y0048713D02*
X0085900Y0049182D01*
X0082481Y0049182D01*
X0082012Y0048713D01*
X0082012Y0046633D01*
X0082481Y0046164D01*
X0085900Y0046164D01*
X0086368Y0046633D01*
X0086368Y0048713D01*
X0086368Y0048333D02*
X0090553Y0048333D01*
X0090553Y0047735D02*
X0091135Y0047735D01*
X0091135Y0047136D02*
X0090553Y0047136D01*
X0090553Y0046538D02*
X0091135Y0046538D01*
X0092430Y0046538D02*
X0095870Y0046538D01*
X0097629Y0046538D02*
X0101776Y0046538D01*
X0101177Y0047136D02*
X0098227Y0047136D01*
X0098731Y0047735D02*
X0100674Y0047735D01*
X0100674Y0048333D02*
X0098731Y0048333D01*
X0098731Y0048932D02*
X0100674Y0048932D01*
X0100923Y0049530D02*
X0098481Y0049530D01*
X0097883Y0050129D02*
X0101522Y0050129D01*
X0102212Y0051924D02*
X0097193Y0051924D01*
X0097040Y0051924D02*
X0096459Y0051924D01*
X0096459Y0051894D02*
X0096459Y0054075D01*
X0097040Y0054075D01*
X0097040Y0051894D01*
X0097473Y0051980D01*
X0097925Y0052167D01*
X0098331Y0052439D01*
X0098677Y0052784D01*
X0098948Y0053191D01*
X0099135Y0053642D01*
X0099221Y0054075D01*
X0097040Y0054075D01*
X0097040Y0054656D01*
X0099221Y0054656D01*
X0099135Y0055090D01*
X0098948Y0055541D01*
X0098677Y0055947D01*
X0098331Y0056293D01*
X0097925Y0056565D01*
X0097473Y0056752D01*
X0097040Y0056838D01*
X0097040Y0054656D01*
X0096459Y0054656D01*
X0096459Y0054075D01*
X0094278Y0054075D01*
X0094364Y0053642D01*
X0094551Y0053191D01*
X0094822Y0052784D01*
X0095168Y0052439D01*
X0095574Y0052167D01*
X0096026Y0051980D01*
X0096459Y0051894D01*
X0096306Y0051924D02*
X0091287Y0051924D01*
X0091135Y0051924D02*
X0090553Y0051924D01*
X0090401Y0051924D02*
X0086307Y0051924D01*
X0085959Y0052523D02*
X0089178Y0052523D01*
X0088692Y0053121D02*
X0086368Y0053121D01*
X0086368Y0053720D02*
X0088443Y0053720D01*
X0088424Y0054917D02*
X0086368Y0054917D01*
X0086368Y0054318D02*
X0090553Y0054318D01*
X0091135Y0054318D02*
X0096459Y0054318D01*
X0096459Y0054656D02*
X0094278Y0054656D01*
X0094364Y0055090D01*
X0094551Y0055541D01*
X0094822Y0055947D01*
X0095168Y0056293D01*
X0095574Y0056565D01*
X0096026Y0056752D01*
X0096459Y0056838D01*
X0096459Y0054656D01*
X0096459Y0054917D02*
X0097040Y0054917D01*
X0097040Y0055515D02*
X0096459Y0055515D01*
X0096459Y0056114D02*
X0097040Y0056114D01*
X0097040Y0056712D02*
X0096459Y0056712D01*
X0095931Y0056712D02*
X0091662Y0056712D01*
X0091135Y0056712D02*
X0090553Y0056712D01*
X0090553Y0056114D02*
X0091135Y0056114D01*
X0091135Y0055515D02*
X0090553Y0055515D01*
X0090553Y0054917D02*
X0091135Y0054917D01*
X0091135Y0054075D02*
X0093316Y0054075D01*
X0093230Y0053642D01*
X0093043Y0053191D01*
X0092771Y0052784D01*
X0092426Y0052439D01*
X0092019Y0052167D01*
X0091568Y0051980D01*
X0091135Y0051894D01*
X0091135Y0054075D01*
X0091135Y0053720D02*
X0090553Y0053720D01*
X0090553Y0053121D02*
X0091135Y0053121D01*
X0091135Y0052523D02*
X0090553Y0052523D01*
X0090553Y0050727D02*
X0091135Y0050727D01*
X0091135Y0050129D02*
X0090553Y0050129D01*
X0090553Y0049530D02*
X0091135Y0049530D01*
X0091135Y0048932D02*
X0090553Y0048932D01*
X0088459Y0047735D02*
X0086368Y0047735D01*
X0086368Y0047136D02*
X0088745Y0047136D01*
X0089258Y0046538D02*
X0086273Y0046538D01*
X0085993Y0045939D02*
X0118649Y0045939D01*
X0118510Y0046538D02*
X0116052Y0046538D01*
X0116048Y0046533D02*
X0116393Y0046879D01*
X0116665Y0047285D01*
X0116852Y0047737D01*
X0116938Y0048170D01*
X0114757Y0048170D01*
X0114757Y0045988D01*
X0115190Y0046075D01*
X0115641Y0046262D01*
X0116048Y0046533D01*
X0116565Y0047136D02*
X0118442Y0047136D01*
X0118442Y0047735D02*
X0116851Y0047735D01*
X0116902Y0048932D02*
X0118558Y0048932D01*
X0118442Y0048333D02*
X0114757Y0048333D01*
X0114466Y0048460D02*
X0114466Y0045712D01*
X0114175Y0046538D02*
X0114757Y0046538D01*
X0114757Y0047136D02*
X0114175Y0047136D01*
X0114175Y0047735D02*
X0114757Y0047735D01*
X0114466Y0048460D02*
X0114466Y0054366D01*
X0114757Y0054318D02*
X0118442Y0054318D01*
X0118459Y0054917D02*
X0116886Y0054917D01*
X0116675Y0055515D02*
X0118738Y0055515D01*
X0114757Y0053720D02*
X0114175Y0053720D01*
X0114175Y0053121D02*
X0114757Y0053121D01*
X0114757Y0052523D02*
X0114175Y0052523D01*
X0114175Y0051924D02*
X0114757Y0051924D01*
X0114023Y0051924D02*
X0103098Y0051924D01*
X0102946Y0051924D02*
X0102364Y0051924D01*
X0102364Y0052523D02*
X0102946Y0052523D01*
X0102946Y0053121D02*
X0102364Y0053121D01*
X0102364Y0053720D02*
X0102946Y0053720D01*
X0102364Y0054318D02*
X0097040Y0054318D01*
X0097040Y0053720D02*
X0096459Y0053720D01*
X0096459Y0053121D02*
X0097040Y0053121D01*
X0097040Y0052523D02*
X0096459Y0052523D01*
X0095084Y0052523D02*
X0092510Y0052523D01*
X0092996Y0053121D02*
X0094597Y0053121D01*
X0094348Y0053720D02*
X0093245Y0053720D01*
X0093264Y0054917D02*
X0094329Y0054917D01*
X0094540Y0055515D02*
X0093053Y0055515D01*
X0092605Y0056114D02*
X0094989Y0056114D01*
X0095929Y0058290D02*
X0094768Y0059451D01*
X0094768Y0061092D01*
X0095929Y0062252D01*
X0097570Y0062252D01*
X0098731Y0061092D01*
X0098731Y0059451D01*
X0097570Y0058290D01*
X0095929Y0058290D01*
X0095711Y0058508D02*
X0091882Y0058508D01*
X0092481Y0059106D02*
X0095113Y0059106D01*
X0094768Y0059705D02*
X0092825Y0059705D01*
X0092825Y0060303D02*
X0094768Y0060303D01*
X0094768Y0060902D02*
X0092825Y0060902D01*
X0092417Y0061500D02*
X0095177Y0061500D01*
X0095775Y0062099D02*
X0091818Y0062099D01*
X0091665Y0064196D02*
X0092825Y0065356D01*
X0092825Y0066997D01*
X0091665Y0068158D01*
X0090023Y0068158D01*
X0088863Y0066997D01*
X0088863Y0065356D01*
X0090023Y0064196D01*
X0091665Y0064196D01*
X0091962Y0064493D02*
X0095632Y0064493D01*
X0095929Y0064196D02*
X0094768Y0065356D01*
X0094768Y0066997D01*
X0095929Y0068158D01*
X0097570Y0068158D01*
X0098731Y0066997D01*
X0098731Y0065356D01*
X0097570Y0064196D01*
X0095929Y0064196D01*
X0095033Y0065092D02*
X0092560Y0065092D01*
X0092825Y0065690D02*
X0094768Y0065690D01*
X0094768Y0066289D02*
X0092825Y0066289D01*
X0092825Y0066887D02*
X0094768Y0066887D01*
X0095256Y0067486D02*
X0092337Y0067486D01*
X0091738Y0068084D02*
X0095855Y0068084D01*
X0097644Y0068084D02*
X0101760Y0068084D01*
X0101162Y0067486D02*
X0098242Y0067486D01*
X0098731Y0066887D02*
X0100674Y0066887D01*
X0100674Y0066289D02*
X0098731Y0066289D01*
X0098731Y0065690D02*
X0100674Y0065690D01*
X0100939Y0065092D02*
X0098466Y0065092D01*
X0097867Y0064493D02*
X0101537Y0064493D01*
X0101681Y0062099D02*
X0097724Y0062099D01*
X0098322Y0061500D02*
X0101082Y0061500D01*
X0100674Y0060902D02*
X0098731Y0060902D01*
X0098731Y0060303D02*
X0100674Y0060303D01*
X0100674Y0059705D02*
X0098731Y0059705D01*
X0098386Y0059106D02*
X0101018Y0059106D01*
X0101617Y0058508D02*
X0097788Y0058508D01*
X0097568Y0056712D02*
X0101837Y0056712D01*
X0101931Y0056752D02*
X0101480Y0056565D01*
X0101073Y0056293D01*
X0100728Y0055947D01*
X0100456Y0055541D01*
X0100269Y0055090D01*
X0100183Y0054656D01*
X0102364Y0054656D01*
X0102364Y0056838D01*
X0101931Y0056752D01*
X0102364Y0056712D02*
X0102946Y0056712D01*
X0102946Y0056114D02*
X0102364Y0056114D01*
X0102364Y0055515D02*
X0102946Y0055515D01*
X0102946Y0054917D02*
X0102364Y0054917D01*
X0100894Y0056114D02*
X0098510Y0056114D01*
X0098959Y0055515D02*
X0100446Y0055515D01*
X0100235Y0054917D02*
X0099170Y0054917D01*
X0099151Y0053720D02*
X0100254Y0053720D01*
X0100503Y0053121D02*
X0098902Y0053121D01*
X0098415Y0052523D02*
X0100989Y0052523D01*
X0099560Y0044144D02*
X0099451Y0044144D01*
X0099451Y0043545D02*
X0099560Y0043545D01*
X0099560Y0042947D02*
X0099451Y0042947D01*
X0099451Y0042348D02*
X0099560Y0042348D01*
X0097917Y0044144D02*
X0094794Y0044144D01*
X0093261Y0044144D02*
X0093152Y0044144D01*
X0093152Y0043545D02*
X0093261Y0043545D01*
X0093261Y0042947D02*
X0093152Y0042947D01*
X0093152Y0042348D02*
X0093261Y0042348D01*
X0093206Y0041807D02*
X0093206Y0045903D01*
X0091618Y0044144D02*
X0088495Y0044144D01*
X0086368Y0045341D02*
X0118442Y0045341D01*
X0121065Y0045341D02*
X0121174Y0045341D01*
X0121174Y0045939D02*
X0121065Y0045939D01*
X0121065Y0046538D02*
X0121174Y0046538D01*
X0121174Y0047136D02*
X0121065Y0047136D01*
X0123590Y0045939D02*
X0125062Y0045939D01*
X0125062Y0045341D02*
X0123798Y0045341D01*
X0123798Y0044742D02*
X0125062Y0044742D01*
X0125062Y0044144D02*
X0123798Y0044144D01*
X0123771Y0043545D02*
X0125062Y0043545D01*
X0125062Y0042947D02*
X0123468Y0042947D01*
X0123729Y0046538D02*
X0125062Y0046538D01*
X0125062Y0047136D02*
X0123798Y0047136D01*
X0123798Y0047735D02*
X0125062Y0047735D01*
X0125062Y0048333D02*
X0123798Y0048333D01*
X0123681Y0048932D02*
X0125062Y0048932D01*
X0125062Y0049530D02*
X0123108Y0049530D01*
X0123298Y0050129D02*
X0125062Y0050129D01*
X0125062Y0050727D02*
X0123298Y0050727D01*
X0123298Y0051326D02*
X0125062Y0051326D01*
X0124971Y0051924D02*
X0123236Y0051924D01*
X0123571Y0052523D02*
X0124373Y0052523D01*
X0123298Y0057909D02*
X0126158Y0057909D01*
X0126199Y0058508D02*
X0122951Y0058508D01*
X0123298Y0062697D02*
X0126658Y0062697D01*
X0126658Y0063296D02*
X0123298Y0063296D01*
X0123298Y0063894D02*
X0126918Y0063894D01*
X0118974Y0064493D02*
X0115584Y0064493D01*
X0115287Y0064196D02*
X0116447Y0065356D01*
X0116447Y0066997D01*
X0115287Y0068158D01*
X0113645Y0068158D01*
X0112485Y0066997D01*
X0112485Y0065356D01*
X0113645Y0064196D01*
X0115287Y0064196D01*
X0116182Y0065092D02*
X0118685Y0065092D01*
X0118442Y0065690D02*
X0116447Y0065690D01*
X0116447Y0066289D02*
X0118442Y0066289D01*
X0118442Y0066887D02*
X0116447Y0066887D01*
X0115959Y0067486D02*
X0118451Y0067486D01*
X0118708Y0068084D02*
X0115361Y0068084D01*
X0113572Y0068084D02*
X0109455Y0068084D01*
X0110054Y0067486D02*
X0112973Y0067486D01*
X0112485Y0066887D02*
X0110542Y0066887D01*
X0110542Y0066289D02*
X0112485Y0066289D01*
X0112485Y0065690D02*
X0110542Y0065690D01*
X0110277Y0065092D02*
X0112750Y0065092D01*
X0113348Y0064493D02*
X0109678Y0064493D01*
X0109535Y0062099D02*
X0113492Y0062099D01*
X0112893Y0061500D02*
X0110133Y0061500D01*
X0110542Y0060902D02*
X0112485Y0060902D01*
X0112257Y0055515D02*
X0110213Y0055515D01*
X0114175Y0050727D02*
X0114757Y0050727D01*
X0114757Y0050129D02*
X0114175Y0050129D01*
X0114175Y0049530D02*
X0114757Y0049530D01*
X0114757Y0048932D02*
X0114175Y0048932D01*
X0115477Y0050727D02*
X0118942Y0050727D01*
X0118942Y0050129D02*
X0116306Y0050129D01*
X0116708Y0049530D02*
X0119131Y0049530D01*
X0112880Y0046538D02*
X0109440Y0046538D01*
X0110038Y0047136D02*
X0112367Y0047136D01*
X0112081Y0047735D02*
X0110542Y0047735D01*
X0113553Y0039356D02*
X0113804Y0039356D01*
X0114483Y0038757D02*
X0125062Y0038757D01*
X0125062Y0038159D02*
X0115081Y0038159D01*
X0115680Y0037560D02*
X0125062Y0037560D01*
X0125062Y0036961D02*
X0116278Y0036961D01*
X0116877Y0036363D02*
X0125012Y0036363D01*
X0124413Y0035764D02*
X0117475Y0035764D01*
X0118074Y0035166D02*
X0124273Y0035166D01*
X0124273Y0034567D02*
X0118672Y0034567D01*
X0119271Y0033969D02*
X0124364Y0033969D01*
X0127312Y0036363D02*
X0128480Y0036363D01*
X0128480Y0036961D02*
X0127262Y0036961D01*
X0127262Y0037560D02*
X0128525Y0037560D01*
X0128525Y0038159D02*
X0127262Y0038159D01*
X0127262Y0038757D02*
X0128525Y0038757D01*
X0128525Y0039954D02*
X0127262Y0039954D01*
X0127262Y0039356D02*
X0130903Y0039356D01*
X0130903Y0039954D02*
X0131503Y0039954D01*
X0131503Y0039356D02*
X0134143Y0039356D01*
X0134143Y0039954D02*
X0133881Y0039954D01*
X0133881Y0040553D02*
X0134143Y0040553D01*
X0134143Y0041151D02*
X0133881Y0041151D01*
X0133916Y0041750D02*
X0134178Y0041750D01*
X0134178Y0042348D02*
X0133916Y0042348D01*
X0133916Y0042947D02*
X0134178Y0042947D01*
X0134178Y0043545D02*
X0131538Y0043545D01*
X0131538Y0042947D02*
X0130938Y0042947D01*
X0130938Y0043545D02*
X0127262Y0043545D01*
X0127262Y0042947D02*
X0128560Y0042947D01*
X0128560Y0042348D02*
X0127262Y0042348D01*
X0127262Y0041750D02*
X0128560Y0041750D01*
X0128525Y0041151D02*
X0127262Y0041151D01*
X0127262Y0040553D02*
X0128525Y0040553D01*
X0130938Y0040553D02*
X0131503Y0040553D01*
X0131503Y0041151D02*
X0130938Y0041151D01*
X0130938Y0041750D02*
X0131503Y0041750D01*
X0131503Y0042348D02*
X0130938Y0042348D01*
X0130938Y0044144D02*
X0131538Y0044144D01*
X0131538Y0044742D02*
X0130938Y0044742D01*
X0130978Y0045341D02*
X0131538Y0045341D01*
X0131538Y0045939D02*
X0130978Y0045939D01*
X0130978Y0046538D02*
X0131538Y0046538D01*
X0131578Y0047136D02*
X0130978Y0047136D01*
X0131578Y0047735D02*
X0134218Y0047735D01*
X0134218Y0047136D02*
X0133956Y0047136D01*
X0133956Y0046538D02*
X0134218Y0046538D01*
X0134218Y0045939D02*
X0133956Y0045939D01*
X0133916Y0045341D02*
X0134178Y0045341D01*
X0134178Y0044742D02*
X0133916Y0044742D01*
X0133916Y0044144D02*
X0134178Y0044144D01*
X0134066Y0048333D02*
X0133956Y0048333D01*
X0138574Y0049530D02*
X0141027Y0049530D01*
X0141249Y0050129D02*
X0138390Y0050129D01*
X0145383Y0047136D02*
X0145645Y0047136D01*
X0145645Y0046538D02*
X0145383Y0046538D01*
X0145383Y0045939D02*
X0145645Y0045939D01*
X0145686Y0045341D02*
X0145423Y0045341D01*
X0145423Y0044742D02*
X0145686Y0044742D01*
X0145686Y0044144D02*
X0145423Y0044144D01*
X0145465Y0038757D02*
X0145727Y0038757D01*
X0145727Y0038159D02*
X0145465Y0038159D01*
X0145465Y0037560D02*
X0145727Y0037560D01*
X0145731Y0036961D02*
X0145469Y0036961D01*
X0145469Y0036363D02*
X0145731Y0036363D01*
X0145731Y0035764D02*
X0145469Y0035764D01*
X0141113Y0033370D02*
X0138454Y0033370D01*
X0138255Y0032772D02*
X0141310Y0032772D01*
X0134098Y0035764D02*
X0133836Y0035764D01*
X0133836Y0036363D02*
X0134098Y0036363D01*
X0134098Y0036961D02*
X0133836Y0036961D01*
X0133881Y0037560D02*
X0134143Y0037560D01*
X0134143Y0038159D02*
X0133881Y0038159D01*
X0133881Y0038757D02*
X0134143Y0038757D01*
X0131503Y0038757D02*
X0130903Y0038757D01*
X0130903Y0038159D02*
X0131503Y0038159D01*
X0131458Y0037560D02*
X0130903Y0037560D01*
X0130903Y0036961D02*
X0131458Y0036961D01*
X0131458Y0036363D02*
X0130903Y0036363D01*
X0130858Y0034567D02*
X0131458Y0034567D01*
X0131458Y0033969D02*
X0130858Y0033969D01*
X0130858Y0033370D02*
X0131458Y0033370D01*
X0131458Y0032772D02*
X0130858Y0032772D01*
X0130858Y0032173D02*
X0131458Y0032173D01*
X0129134Y0032173D02*
X0121066Y0032173D01*
X0121665Y0031575D02*
X0195940Y0031575D01*
X0195941Y0030976D02*
X0122263Y0030976D01*
X0122862Y0030378D02*
X0161837Y0030378D01*
X0162190Y0030731D02*
X0161084Y0029625D01*
X0161084Y0028060D01*
X0162190Y0026953D01*
X0163755Y0026953D01*
X0164862Y0028060D01*
X0164862Y0029625D01*
X0163755Y0030731D01*
X0162190Y0030731D01*
X0161238Y0029779D02*
X0123460Y0029779D01*
X0124059Y0029181D02*
X0161084Y0029181D01*
X0161084Y0028582D02*
X0124657Y0028582D01*
X0125256Y0027984D02*
X0161160Y0027984D01*
X0161758Y0027385D02*
X0125854Y0027385D01*
X0126453Y0026787D02*
X0195949Y0026787D01*
X0195948Y0027385D02*
X0193565Y0027385D01*
X0193313Y0027133D02*
X0194420Y0028239D01*
X0194420Y0029804D01*
X0193313Y0030911D01*
X0191748Y0030911D01*
X0190642Y0029804D01*
X0190642Y0028239D01*
X0191748Y0027133D01*
X0193313Y0027133D01*
X0194164Y0027984D02*
X0195947Y0027984D01*
X0195946Y0028582D02*
X0194420Y0028582D01*
X0194420Y0029181D02*
X0195944Y0029181D01*
X0195943Y0029779D02*
X0194420Y0029779D01*
X0193846Y0030378D02*
X0195942Y0030378D01*
X0195950Y0026188D02*
X0127051Y0026188D01*
X0127650Y0025590D02*
X0195951Y0025590D01*
X0191496Y0027385D02*
X0184163Y0027385D01*
X0183958Y0027180D02*
X0185064Y0028287D01*
X0185064Y0029852D01*
X0183958Y0030958D01*
X0182393Y0030958D01*
X0181286Y0029852D01*
X0181286Y0028287D01*
X0182393Y0027180D01*
X0183958Y0027180D01*
X0184761Y0027984D02*
X0190897Y0027984D01*
X0190642Y0028582D02*
X0185064Y0028582D01*
X0185064Y0029181D02*
X0190642Y0029181D01*
X0190642Y0029779D02*
X0185064Y0029779D01*
X0184538Y0030378D02*
X0191215Y0030378D01*
X0181813Y0030378D02*
X0174153Y0030378D01*
X0173620Y0030911D02*
X0172055Y0030911D01*
X0170949Y0029804D01*
X0170949Y0028239D01*
X0172055Y0027133D01*
X0173620Y0027133D01*
X0174726Y0028239D01*
X0174726Y0029804D01*
X0173620Y0030911D01*
X0174726Y0029779D02*
X0181286Y0029779D01*
X0181286Y0029181D02*
X0174726Y0029181D01*
X0174726Y0028582D02*
X0181286Y0028582D01*
X0181589Y0027984D02*
X0174471Y0027984D01*
X0173872Y0027385D02*
X0182188Y0027385D01*
X0171803Y0027385D02*
X0164187Y0027385D01*
X0164786Y0027984D02*
X0171204Y0027984D01*
X0170949Y0028582D02*
X0164862Y0028582D01*
X0164862Y0029181D02*
X0170949Y0029181D01*
X0170949Y0029779D02*
X0164707Y0029779D01*
X0164108Y0030378D02*
X0171522Y0030378D01*
X0153954Y0024991D02*
X0128248Y0024991D01*
X0128847Y0024393D02*
X0153951Y0024393D01*
X0153948Y0023794D02*
X0132165Y0023794D01*
X0132358Y0023196D02*
X0153945Y0023196D01*
X0153942Y0022597D02*
X0132358Y0022597D01*
X0132749Y0021999D02*
X0153939Y0021999D01*
X0153936Y0021400D02*
X0133391Y0021400D01*
X0134032Y0020802D02*
X0153933Y0020802D01*
X0153931Y0020203D02*
X0134673Y0020203D01*
X0135315Y0019605D02*
X0153928Y0019605D01*
X0153925Y0019006D02*
X0152581Y0019006D01*
X0152281Y0019306D02*
X0150716Y0019306D01*
X0149610Y0018200D01*
X0149610Y0016635D01*
X0150716Y0015528D01*
X0152281Y0015528D01*
X0153388Y0016635D01*
X0153388Y0018200D01*
X0152281Y0019306D01*
X0153180Y0018408D02*
X0153922Y0018408D01*
X0153919Y0017809D02*
X0153388Y0017809D01*
X0153388Y0017211D02*
X0153916Y0017211D01*
X0153913Y0016612D02*
X0153365Y0016612D01*
X0153910Y0016014D02*
X0152766Y0016014D01*
X0153907Y0015415D02*
X0139804Y0015415D01*
X0139163Y0016014D02*
X0150231Y0016014D01*
X0149633Y0016612D02*
X0138522Y0016612D01*
X0137880Y0017211D02*
X0149610Y0017211D01*
X0149610Y0017809D02*
X0137239Y0017809D01*
X0136598Y0018408D02*
X0149817Y0018408D01*
X0150416Y0019006D02*
X0135956Y0019006D01*
X0132238Y0014817D02*
X0097635Y0014817D01*
X0097635Y0015410D02*
X0096529Y0016517D01*
X0094964Y0016517D01*
X0093857Y0015410D01*
X0093857Y0013846D01*
X0094964Y0012739D01*
X0096529Y0012739D01*
X0097635Y0013846D01*
X0097635Y0015410D01*
X0097631Y0015415D02*
X0131596Y0015415D01*
X0130955Y0016014D02*
X0097032Y0016014D01*
X0097635Y0014218D02*
X0132879Y0014218D01*
X0133520Y0013620D02*
X0097409Y0013620D01*
X0096811Y0013021D02*
X0134162Y0013021D01*
X0134168Y0012425D02*
X0132603Y0012425D01*
X0131496Y0011318D01*
X0131496Y0009753D01*
X0132603Y0008647D01*
X0134168Y0008647D01*
X0135274Y0009753D01*
X0135274Y0011318D01*
X0134168Y0012425D01*
X0134170Y0012423D02*
X0134803Y0012423D01*
X0134769Y0011824D02*
X0135445Y0011824D01*
X0135274Y0011225D02*
X0136086Y0011225D01*
X0136727Y0010627D02*
X0135274Y0010627D01*
X0135274Y0010028D02*
X0137369Y0010028D01*
X0138010Y0009430D02*
X0134951Y0009430D01*
X0134352Y0008831D02*
X0138651Y0008831D01*
X0139277Y0008233D02*
X0080833Y0008233D01*
X0080836Y0008831D02*
X0132418Y0008831D01*
X0131820Y0009430D02*
X0080840Y0009430D01*
X0080843Y0010028D02*
X0131496Y0010028D01*
X0131496Y0010627D02*
X0080847Y0010627D01*
X0080851Y0011225D02*
X0131496Y0011225D01*
X0132002Y0011824D02*
X0080854Y0011824D01*
X0080858Y0012423D02*
X0132601Y0012423D01*
X0130314Y0016612D02*
X0080882Y0016612D01*
X0080879Y0016014D02*
X0094460Y0016014D01*
X0093862Y0015415D02*
X0080875Y0015415D01*
X0080872Y0014817D02*
X0093857Y0014817D01*
X0093857Y0014218D02*
X0080868Y0014218D01*
X0080865Y0013620D02*
X0094083Y0013620D01*
X0094682Y0013021D02*
X0080861Y0013021D01*
X0080886Y0017211D02*
X0129672Y0017211D01*
X0129031Y0017809D02*
X0080890Y0017809D01*
X0080893Y0018408D02*
X0119621Y0018408D01*
X0119276Y0019006D02*
X0080897Y0019006D01*
X0080900Y0019605D02*
X0119234Y0019605D01*
X0119234Y0020203D02*
X0080904Y0020203D01*
X0080907Y0020802D02*
X0119234Y0020802D01*
X0119234Y0021602D02*
X0122399Y0021602D01*
X0122399Y0024570D01*
X0120363Y0024570D01*
X0120032Y0024482D01*
X0119736Y0024311D01*
X0119494Y0024069D01*
X0119323Y0023772D01*
X0119234Y0023441D01*
X0119234Y0021602D01*
X0119234Y0021999D02*
X0080914Y0021999D01*
X0080918Y0022597D02*
X0119234Y0022597D01*
X0119234Y0023196D02*
X0080921Y0023196D01*
X0080925Y0023794D02*
X0119335Y0023794D01*
X0119878Y0024393D02*
X0080928Y0024393D01*
X0080932Y0024991D02*
X0123157Y0024991D01*
X0122999Y0024393D02*
X0122399Y0024393D01*
X0122399Y0023794D02*
X0122999Y0023794D01*
X0122999Y0023196D02*
X0122399Y0023196D01*
X0122399Y0022597D02*
X0122999Y0022597D01*
X0122999Y0021999D02*
X0122399Y0021999D01*
X0122399Y0021400D02*
X0080911Y0021400D01*
X0080936Y0025590D02*
X0122559Y0025590D01*
X0121960Y0026188D02*
X0080939Y0026188D01*
X0080943Y0026787D02*
X0121362Y0026787D01*
X0120763Y0027385D02*
X0080946Y0027385D01*
X0088102Y0029668D02*
X0089209Y0028561D01*
X0090774Y0028561D01*
X0091880Y0029668D01*
X0091880Y0031232D01*
X0090774Y0032339D01*
X0089209Y0032339D01*
X0088102Y0031232D01*
X0088102Y0029668D01*
X0088102Y0029779D02*
X0059531Y0029779D01*
X0059519Y0029181D02*
X0088589Y0029181D01*
X0089187Y0028582D02*
X0059506Y0028582D01*
X0059494Y0027984D02*
X0120165Y0027984D01*
X0119566Y0028582D02*
X0090795Y0028582D01*
X0091393Y0029181D02*
X0118968Y0029181D01*
X0118369Y0029779D02*
X0108385Y0029779D01*
X0107955Y0029350D02*
X0109062Y0030456D01*
X0109062Y0032021D01*
X0107955Y0033128D01*
X0106390Y0033128D01*
X0105284Y0032021D01*
X0105284Y0030456D01*
X0106390Y0029350D01*
X0107955Y0029350D01*
X0108984Y0030378D02*
X0117771Y0030378D01*
X0117172Y0030976D02*
X0109062Y0030976D01*
X0109062Y0031575D02*
X0116574Y0031575D01*
X0115975Y0032173D02*
X0108909Y0032173D01*
X0108311Y0032772D02*
X0115377Y0032772D01*
X0114778Y0033370D02*
X0059604Y0033370D01*
X0059591Y0032772D02*
X0106035Y0032772D01*
X0105436Y0032173D02*
X0090939Y0032173D01*
X0091538Y0031575D02*
X0105284Y0031575D01*
X0105284Y0030976D02*
X0091880Y0030976D01*
X0091880Y0030378D02*
X0105362Y0030378D01*
X0105961Y0029779D02*
X0091880Y0029779D01*
X0094064Y0030441D02*
X0094210Y0030586D01*
X0090194Y0035764D02*
X0059647Y0035764D01*
X0059640Y0035166D02*
X0112982Y0035166D01*
X0113581Y0034567D02*
X0059628Y0034567D01*
X0059616Y0033969D02*
X0114179Y0033969D01*
X0127262Y0044144D02*
X0128560Y0044144D01*
X0128560Y0044742D02*
X0127262Y0044742D01*
X0127262Y0045341D02*
X0128560Y0045341D01*
X0128600Y0045939D02*
X0127262Y0045939D01*
X0127262Y0046538D02*
X0128600Y0046538D01*
X0128600Y0047136D02*
X0127262Y0047136D01*
X0127911Y0035764D02*
X0128480Y0035764D01*
X0126427Y0021400D02*
X0122999Y0021400D01*
X0122999Y0020802D02*
X0122399Y0020802D01*
X0122399Y0020203D02*
X0122999Y0020203D01*
X0122999Y0019605D02*
X0122399Y0019605D01*
X0122399Y0019006D02*
X0122999Y0019006D01*
X0122999Y0018408D02*
X0122399Y0018408D01*
X0125777Y0018408D02*
X0128390Y0018408D01*
X0126427Y0019006D02*
X0126123Y0019006D01*
X0126165Y0019605D02*
X0126427Y0019605D01*
X0126427Y0020203D02*
X0126165Y0020203D01*
X0126165Y0020802D02*
X0126427Y0020802D01*
X0128368Y0007036D02*
X0080826Y0007036D01*
X0080829Y0007634D02*
X0153868Y0007634D01*
X0153865Y0007036D02*
X0130077Y0007036D01*
X0130676Y0006437D02*
X0140266Y0006437D01*
X0139668Y0005839D02*
X0131112Y0005839D01*
X0131112Y0005240D02*
X0139661Y0005240D01*
X0139661Y0004642D02*
X0131112Y0004642D01*
X0130718Y0004043D02*
X0139885Y0004043D01*
X0143215Y0004043D02*
X0150147Y0004043D01*
X0149867Y0004642D02*
X0143439Y0004642D01*
X0143439Y0005240D02*
X0149867Y0005240D01*
X0149867Y0005839D02*
X0143433Y0005839D01*
X0142834Y0006437D02*
X0150416Y0006437D01*
X0153096Y0006437D02*
X0153862Y0006437D01*
X0153859Y0005839D02*
X0153645Y0005839D01*
X0153645Y0005240D02*
X0153856Y0005240D01*
X0153853Y0004642D02*
X0153645Y0004642D01*
X0153851Y0004043D02*
X0153365Y0004043D01*
X0153898Y0013620D02*
X0141728Y0013620D01*
X0141087Y0014218D02*
X0153901Y0014218D01*
X0153904Y0014817D02*
X0140446Y0014817D01*
X0127769Y0006437D02*
X0080822Y0006437D01*
X0080819Y0005839D02*
X0127334Y0005839D01*
X0127334Y0005240D02*
X0080815Y0005240D01*
X0080812Y0004642D02*
X0127334Y0004642D01*
X0127727Y0004043D02*
X0080808Y0004043D01*
X0088102Y0030378D02*
X0059543Y0030378D01*
X0059555Y0030976D02*
X0088102Y0030976D01*
X0088445Y0031575D02*
X0059567Y0031575D01*
X0059579Y0032173D02*
X0089043Y0032173D01*
X0089596Y0036363D02*
X0080065Y0036363D01*
X0079526Y0035824D02*
X0080633Y0036930D01*
X0080633Y0038495D01*
X0079743Y0039385D01*
X0079916Y0039384D01*
X0080710Y0038590D01*
X0082275Y0038590D01*
X0083381Y0039696D01*
X0083381Y0041261D01*
X0082275Y0042368D01*
X0080710Y0042368D01*
X0079926Y0041584D01*
X0078862Y0041588D01*
X0071942Y0041647D01*
X0071139Y0042449D01*
X0069574Y0042449D01*
X0068468Y0041342D01*
X0068468Y0039778D01*
X0069574Y0038671D01*
X0071139Y0038671D01*
X0071915Y0039447D01*
X0077757Y0039397D01*
X0076855Y0038495D01*
X0076855Y0036930D01*
X0077961Y0035824D01*
X0079526Y0035824D01*
X0080633Y0036961D02*
X0089374Y0036961D01*
X0089106Y0037560D02*
X0080633Y0037560D01*
X0080633Y0038159D02*
X0088757Y0038159D01*
X0088757Y0038757D02*
X0082442Y0038757D01*
X0083041Y0039356D02*
X0085457Y0039356D01*
X0084980Y0039954D02*
X0083381Y0039954D01*
X0083381Y0040553D02*
X0084898Y0040553D01*
X0084898Y0041151D02*
X0083381Y0041151D01*
X0082893Y0041750D02*
X0084898Y0041750D01*
X0084898Y0042348D02*
X0082295Y0042348D01*
X0082012Y0043545D02*
X0059647Y0043545D01*
X0059647Y0042947D02*
X0084898Y0042947D01*
X0086853Y0041151D02*
X0086961Y0041151D01*
X0086961Y0040553D02*
X0086853Y0040553D01*
X0086853Y0039954D02*
X0086961Y0039954D01*
X0086961Y0039356D02*
X0086853Y0039356D01*
X0088357Y0039356D02*
X0088757Y0039356D01*
X0082012Y0044144D02*
X0059647Y0044144D01*
X0059647Y0044742D02*
X0082012Y0044742D01*
X0082012Y0045341D02*
X0059647Y0045341D01*
X0059647Y0045939D02*
X0082388Y0045939D01*
X0082108Y0046538D02*
X0072711Y0046538D01*
X0072696Y0046523D02*
X0073803Y0047629D01*
X0073803Y0049194D01*
X0072696Y0050301D01*
X0071131Y0050301D01*
X0070025Y0049194D01*
X0070025Y0047629D01*
X0071131Y0046523D01*
X0072696Y0046523D01*
X0073310Y0047136D02*
X0082012Y0047136D01*
X0082012Y0047735D02*
X0073803Y0047735D01*
X0073803Y0048333D02*
X0082012Y0048333D01*
X0082231Y0048932D02*
X0073803Y0048932D01*
X0073467Y0049530D02*
X0082265Y0049530D01*
X0082012Y0050129D02*
X0072868Y0050129D01*
X0070959Y0050129D02*
X0069987Y0050129D01*
X0070174Y0050727D02*
X0082012Y0050727D01*
X0082012Y0051326D02*
X0070174Y0051326D01*
X0070412Y0051924D02*
X0073567Y0051924D01*
X0072968Y0052523D02*
X0070914Y0052523D01*
X0071416Y0053121D02*
X0072656Y0053121D01*
X0072656Y0053720D02*
X0071917Y0053720D01*
X0072419Y0054318D02*
X0072656Y0054318D01*
X0072920Y0054917D02*
X0073172Y0054917D01*
X0073278Y0055515D02*
X0073432Y0055515D01*
X0073428Y0056114D02*
X0073256Y0056114D01*
X0073256Y0056712D02*
X0073423Y0056712D01*
X0073419Y0057311D02*
X0073256Y0057311D01*
X0073256Y0057909D02*
X0073415Y0057909D01*
X0073411Y0058508D02*
X0073256Y0058508D01*
X0073256Y0059106D02*
X0073407Y0059106D01*
X0073403Y0059705D02*
X0073256Y0059705D01*
X0073256Y0060303D02*
X0073399Y0060303D01*
X0073395Y0060902D02*
X0073256Y0060902D01*
X0073256Y0061500D02*
X0073391Y0061500D01*
X0077458Y0064641D02*
X0077773Y0064641D01*
X0077891Y0054917D01*
X0079151Y0053657D01*
X0078977Y0056114D02*
X0082012Y0056114D01*
X0082012Y0056712D02*
X0078969Y0056712D01*
X0078962Y0057311D02*
X0082012Y0057311D01*
X0082012Y0057909D02*
X0078955Y0057909D01*
X0078948Y0058508D02*
X0082359Y0058508D01*
X0082137Y0059106D02*
X0078940Y0059106D01*
X0078933Y0059705D02*
X0082012Y0059705D01*
X0082012Y0060303D02*
X0078926Y0060303D01*
X0078919Y0060902D02*
X0082012Y0060902D01*
X0082202Y0061500D02*
X0078911Y0061500D01*
X0078904Y0062099D02*
X0082294Y0062099D01*
X0082012Y0062697D02*
X0080110Y0062697D01*
X0080345Y0063296D02*
X0082012Y0063296D01*
X0082012Y0063894D02*
X0080345Y0063894D01*
X0080345Y0064493D02*
X0082044Y0064493D01*
X0082481Y0065062D02*
X0082012Y0065531D01*
X0082012Y0067611D01*
X0082481Y0068079D01*
X0085900Y0068079D01*
X0086368Y0067611D01*
X0086368Y0065531D01*
X0085900Y0065062D01*
X0082481Y0065062D01*
X0082452Y0065092D02*
X0080345Y0065092D01*
X0080345Y0065690D02*
X0082012Y0065690D01*
X0082012Y0066289D02*
X0080345Y0066289D01*
X0082012Y0066887D02*
X0075554Y0066887D01*
X0075550Y0067486D02*
X0082012Y0067486D01*
X0080345Y0068084D02*
X0089949Y0068084D01*
X0089351Y0067486D02*
X0086368Y0067486D01*
X0086368Y0066887D02*
X0088863Y0066887D01*
X0088863Y0066289D02*
X0086368Y0066289D01*
X0086368Y0065690D02*
X0088863Y0065690D01*
X0089128Y0065092D02*
X0085929Y0065092D01*
X0086336Y0064493D02*
X0089726Y0064493D01*
X0086368Y0063894D02*
X0118942Y0063894D01*
X0118942Y0063296D02*
X0086368Y0063296D01*
X0086368Y0068683D02*
X0118942Y0068683D01*
X0118942Y0069281D02*
X0086368Y0069281D01*
X0086368Y0069880D02*
X0113301Y0069880D01*
X0114175Y0069880D02*
X0114757Y0069880D01*
X0114757Y0070478D02*
X0114175Y0070478D01*
X0114175Y0071077D02*
X0114757Y0071077D01*
X0114757Y0071675D02*
X0114175Y0071675D01*
X0114175Y0072872D02*
X0114757Y0072872D01*
X0114757Y0073471D02*
X0114175Y0073471D01*
X0114175Y0074069D02*
X0114757Y0074069D01*
X0116735Y0071077D02*
X0119258Y0071077D01*
X0118942Y0070478D02*
X0116371Y0070478D01*
X0115631Y0069880D02*
X0118942Y0069880D01*
X0112561Y0070478D02*
X0109758Y0070478D01*
X0110356Y0071077D02*
X0112197Y0071077D01*
X0101458Y0070478D02*
X0097947Y0070478D01*
X0097570Y0070101D02*
X0098731Y0071262D01*
X0098731Y0072903D01*
X0097570Y0074063D01*
X0095929Y0074063D01*
X0094768Y0072903D01*
X0094768Y0071262D01*
X0095929Y0070101D01*
X0097570Y0070101D01*
X0098545Y0071077D02*
X0100859Y0071077D01*
X0100674Y0071675D02*
X0098731Y0071675D01*
X0098731Y0072274D02*
X0100674Y0072274D01*
X0100674Y0072872D02*
X0098731Y0072872D01*
X0098163Y0073471D02*
X0101242Y0073471D01*
X0100545Y0076558D02*
X0098465Y0076558D01*
X0097997Y0077027D01*
X0097997Y0080445D01*
X0098465Y0080914D01*
X0100545Y0080914D01*
X0101014Y0080445D01*
X0101014Y0077027D01*
X0100545Y0076558D01*
X0101014Y0077062D02*
X0101146Y0077062D01*
X0101146Y0077660D02*
X0101014Y0077660D01*
X0101014Y0078259D02*
X0101146Y0078259D01*
X0101146Y0078857D02*
X0101014Y0078857D01*
X0101014Y0079456D02*
X0101146Y0079456D01*
X0101146Y0080054D02*
X0101014Y0080054D01*
X0100806Y0080653D02*
X0101354Y0080653D01*
X0098204Y0080653D02*
X0097657Y0080653D01*
X0097864Y0080445D02*
X0097396Y0080914D01*
X0095316Y0080914D01*
X0094847Y0080445D01*
X0094847Y0077027D01*
X0095316Y0076558D01*
X0097396Y0076558D01*
X0097864Y0077027D01*
X0097864Y0080445D01*
X0097864Y0080054D02*
X0097997Y0080054D01*
X0097997Y0079456D02*
X0097864Y0079456D01*
X0097864Y0078857D02*
X0097997Y0078857D01*
X0097997Y0078259D02*
X0097864Y0078259D01*
X0097864Y0077660D02*
X0097997Y0077660D01*
X0097997Y0077062D02*
X0097864Y0077062D01*
X0094847Y0077062D02*
X0094715Y0077062D01*
X0094715Y0077027D02*
X0094715Y0080445D01*
X0094246Y0080914D01*
X0092166Y0080914D01*
X0091698Y0080445D01*
X0091698Y0077027D01*
X0092166Y0076558D01*
X0094246Y0076558D01*
X0094715Y0077027D01*
X0094715Y0077660D02*
X0094847Y0077660D01*
X0094847Y0078259D02*
X0094715Y0078259D01*
X0094715Y0078857D02*
X0094847Y0078857D01*
X0094847Y0079456D02*
X0094715Y0079456D01*
X0094715Y0080054D02*
X0094847Y0080054D01*
X0095055Y0080653D02*
X0094507Y0080653D01*
X0091905Y0080653D02*
X0091358Y0080653D01*
X0091565Y0080054D02*
X0091698Y0080054D01*
X0091698Y0079456D02*
X0091565Y0079456D01*
X0091565Y0078857D02*
X0091698Y0078857D01*
X0091698Y0078259D02*
X0091565Y0078259D01*
X0091565Y0077660D02*
X0091698Y0077660D01*
X0091698Y0077062D02*
X0091565Y0077062D01*
X0091665Y0074063D02*
X0090023Y0074063D01*
X0088863Y0072903D01*
X0088863Y0071262D01*
X0090023Y0070101D01*
X0091665Y0070101D01*
X0092825Y0071262D01*
X0092825Y0072903D01*
X0091665Y0074063D01*
X0092257Y0073471D02*
X0095336Y0073471D01*
X0094768Y0072872D02*
X0092825Y0072872D01*
X0092825Y0072274D02*
X0094768Y0072274D01*
X0094768Y0071675D02*
X0092825Y0071675D01*
X0092640Y0071077D02*
X0094954Y0071077D01*
X0095552Y0070478D02*
X0092041Y0070478D01*
X0089647Y0070478D02*
X0086368Y0070478D01*
X0086052Y0071077D02*
X0089048Y0071077D01*
X0088863Y0071675D02*
X0086214Y0071675D01*
X0086368Y0072274D02*
X0088863Y0072274D01*
X0088863Y0072872D02*
X0086368Y0072872D01*
X0086368Y0073471D02*
X0089431Y0073471D01*
X0084190Y0076019D02*
X0081623Y0075980D01*
X0077538Y0075980D01*
X0077610Y0074668D02*
X0082324Y0074668D01*
X0082172Y0074069D02*
X0077305Y0074069D01*
X0077001Y0073471D02*
X0082012Y0073471D01*
X0082012Y0072872D02*
X0076697Y0072872D01*
X0076392Y0072274D02*
X0082012Y0072274D01*
X0082167Y0071675D02*
X0080138Y0071675D01*
X0080345Y0071077D02*
X0082329Y0071077D01*
X0084151Y0069760D02*
X0084190Y0069720D01*
X0077812Y0069720D01*
X0077773Y0069760D01*
X0074427Y0070835D02*
X0074545Y0053618D01*
X0070361Y0049530D02*
X0069388Y0049530D01*
X0070025Y0048932D02*
X0059647Y0048932D01*
X0059647Y0049530D02*
X0067181Y0049530D01*
X0066583Y0050129D02*
X0059647Y0050129D01*
X0059647Y0050727D02*
X0066396Y0050727D01*
X0066396Y0051326D02*
X0059647Y0051326D01*
X0059647Y0051924D02*
X0066440Y0051924D01*
X0070025Y0048333D02*
X0059647Y0048333D01*
X0059647Y0047735D02*
X0070025Y0047735D01*
X0070518Y0047136D02*
X0059647Y0047136D01*
X0059647Y0046538D02*
X0071116Y0046538D01*
X0071240Y0042348D02*
X0080690Y0042348D01*
X0080092Y0041750D02*
X0071839Y0041750D01*
X0070357Y0040560D02*
X0078856Y0040488D01*
X0081492Y0040479D01*
X0081631Y0040359D01*
X0080543Y0038757D02*
X0080371Y0038757D01*
X0079944Y0039356D02*
X0079773Y0039356D01*
X0077715Y0039356D02*
X0071824Y0039356D01*
X0071225Y0038757D02*
X0077117Y0038757D01*
X0076855Y0038159D02*
X0059647Y0038159D01*
X0059647Y0038757D02*
X0069488Y0038757D01*
X0068890Y0039356D02*
X0059647Y0039356D01*
X0059647Y0039954D02*
X0068468Y0039954D01*
X0068468Y0040553D02*
X0059647Y0040553D01*
X0059647Y0041151D02*
X0068468Y0041151D01*
X0068875Y0041750D02*
X0059647Y0041750D01*
X0059647Y0042348D02*
X0069473Y0042348D01*
X0076855Y0037560D02*
X0059647Y0037560D01*
X0059647Y0036961D02*
X0076855Y0036961D01*
X0077422Y0036363D02*
X0059647Y0036363D01*
X0067739Y0074424D02*
X0067739Y0075008D01*
X0141679Y0060330D02*
X0142665Y0060241D01*
X0148171Y0054917D02*
X0195895Y0054917D01*
X0195894Y0055515D02*
X0148769Y0055515D01*
X0149368Y0056114D02*
X0195893Y0056114D01*
X0195892Y0056712D02*
X0149966Y0056712D01*
X0151398Y0057311D02*
X0195891Y0057311D01*
X0195890Y0057909D02*
X0151996Y0057909D01*
X0152427Y0058508D02*
X0195889Y0058508D01*
X0195887Y0059106D02*
X0152427Y0059106D01*
X0152427Y0059705D02*
X0195886Y0059705D01*
X0195885Y0060303D02*
X0152028Y0060303D01*
X0151001Y0047136D02*
X0195910Y0047136D01*
X0195911Y0046538D02*
X0151001Y0046538D01*
X0151001Y0045939D02*
X0195913Y0045939D01*
X0195914Y0045341D02*
X0151042Y0045341D01*
X0151042Y0044742D02*
X0195915Y0044742D01*
X0195916Y0044144D02*
X0151042Y0044144D01*
X0193633Y0048932D02*
X0195907Y0048932D01*
X0195906Y0049530D02*
X0194231Y0049530D01*
X0194235Y0050129D02*
X0195905Y0050129D01*
X0195903Y0050727D02*
X0194235Y0050727D01*
X0194009Y0051326D02*
X0195902Y0051326D01*
X0195901Y0051924D02*
X0193410Y0051924D01*
D26*
X0192346Y0050317D03*
X0192464Y0039384D03*
X0192531Y0029022D03*
X0183175Y0029069D03*
X0172838Y0029022D03*
X0162973Y0028842D03*
X0151499Y0017417D03*
X0151756Y0005106D03*
X0141550Y0005050D03*
X0133385Y0010536D03*
X0129223Y0005219D03*
X0116346Y0028594D03*
X0107173Y0031239D03*
X0094064Y0030441D03*
X0089991Y0030450D03*
X0081492Y0040479D03*
X0078744Y0037713D03*
X0070357Y0040560D03*
X0071914Y0048412D03*
X0068285Y0051098D03*
X0068310Y0055399D03*
X0074545Y0053618D03*
X0079151Y0053657D03*
X0067739Y0074424D03*
X0079537Y0087655D03*
X0090057Y0083716D03*
X0096838Y0083216D03*
X0097291Y0089130D03*
X0103954Y0096728D03*
X0111401Y0097500D03*
X0116940Y0101640D03*
X0123089Y0101966D03*
X0135374Y0087619D03*
X0139232Y0087602D03*
X0126748Y0079700D03*
X0121855Y0079748D03*
X0118836Y0083027D03*
X0139860Y0072830D03*
X0141662Y0064572D03*
X0141679Y0060330D03*
X0150538Y0059122D03*
X0158309Y0067329D03*
X0158291Y0078768D03*
X0166908Y0091078D03*
X0166823Y0096473D03*
X0172968Y0103512D03*
X0193007Y0101297D03*
X0193364Y0089921D03*
X0153462Y0043834D03*
X0126162Y0034842D03*
X0095746Y0014628D03*
X0053924Y0012535D03*
X0053713Y0025043D03*
X0053631Y0036452D03*
X0053342Y0047703D03*
X0053316Y0057580D03*
X0053316Y0067865D03*
X0053120Y0076877D03*
X0052888Y0091104D03*
X0068691Y0103291D03*
X0099458Y0167186D03*
D27*
X0099677Y0119286D02*
X0076374Y0110586D01*
X0129230Y0056807D02*
X0129230Y0049000D01*
X0131278Y0046952D01*
X0131278Y0043539D01*
X0131238Y0043539D01*
X0131238Y0039344D01*
X0131203Y0039344D01*
X0131203Y0035074D01*
X0131158Y0035074D01*
X0136276Y0035074D02*
X0143290Y0035074D01*
X0143291Y0035072D01*
X0143287Y0035076D01*
X0143287Y0039306D01*
X0143249Y0039344D01*
X0136321Y0039344D01*
X0136321Y0043505D01*
X0136356Y0043539D01*
X0143246Y0043539D01*
X0143246Y0039348D01*
X0143287Y0039306D01*
X0143246Y0043539D02*
X0143205Y0043580D01*
X0143205Y0047803D01*
X0136435Y0047803D01*
X0136396Y0047841D01*
X0134545Y0049693D01*
X0134545Y0055941D01*
X0147356Y0055941D01*
X0150538Y0059122D01*
X0148323Y0047803D02*
X0148323Y0043539D01*
X0148364Y0043539D01*
X0148364Y0043834D01*
X0153462Y0043834D01*
X0148364Y0043539D02*
X0148364Y0039306D01*
X0148405Y0039306D01*
X0148405Y0035072D01*
X0148409Y0035072D01*
X0136276Y0035074D02*
X0136276Y0039298D01*
X0136321Y0039344D01*
X0136356Y0043539D02*
X0136396Y0043580D01*
X0136396Y0047841D01*
X0131278Y0047841D02*
X0131278Y0046952D01*
X0158291Y0078768D02*
X0158291Y0084793D01*
X0153403Y0089287D01*
X0090057Y0041807D02*
X0090057Y0038448D01*
X0091174Y0037330D01*
D28*
X0129392Y0021302D02*
X0141001Y0010468D01*
X0164702Y0010468D01*
X0031321Y0011479D02*
X0031321Y0011562D01*
X0027637Y0015246D01*
X0011806Y0015246D01*
X0007699Y0019353D01*
X0011699Y0023227D02*
X0027498Y0023227D01*
X0031321Y0019403D01*
X0031321Y0019353D01*
X0031321Y0027227D02*
X0031321Y0027266D01*
X0027452Y0031135D01*
X0011665Y0031135D01*
X0007699Y0035101D01*
X0011690Y0038984D02*
X0027438Y0038984D01*
X0031321Y0035101D01*
X0031321Y0035101D01*
X0031321Y0042975D02*
X0031321Y0043039D01*
X0027544Y0046817D01*
X0011731Y0046817D01*
X0007699Y0050849D01*
X0011620Y0054801D02*
X0027399Y0054801D01*
X0031321Y0050879D01*
X0031321Y0050849D01*
X0031321Y0058723D02*
X0031321Y0058810D01*
X0027621Y0062511D01*
X0011785Y0062511D01*
X0007699Y0066597D01*
X0011696Y0070474D02*
X0027444Y0070474D01*
X0031321Y0066597D01*
X0031321Y0074471D02*
X0027380Y0078412D01*
X0011770Y0078412D01*
X0007699Y0082345D01*
X0007699Y0074471D02*
X0011696Y0070474D01*
X0007699Y0058723D02*
X0011620Y0054801D01*
X0007699Y0042975D02*
X0011690Y0038984D01*
X0007699Y0027227D02*
X0011699Y0023227D01*
X0099458Y0167186D02*
X0099677Y0191530D01*
D29*
X0076374Y0098641D03*
D30*
X0076374Y0110586D01*
X0091174Y0037330D02*
X0113364Y0037330D01*
X0129392Y0021302D01*
M02*
