G75*
%MOIN*%
%OFA0B0*%
%FSLAX25Y25*%
%IPPOS*%
%LPD*%
%AMOC8*
5,1,8,0,0,1.08239X$1,22.5*
%
%ADD10C,0.02178*%
%ADD11C,0.05906*%
%ADD12C,0.06000*%
%ADD13C,0.00600*%
%ADD14C,0.01000*%
%ADD15C,0.00787*%
D10*
X0007304Y0011479D03*
X0007304Y0019353D03*
X0007304Y0027227D03*
X0007304Y0035101D03*
X0007304Y0042975D03*
X0007304Y0050849D03*
X0007304Y0058723D03*
X0007304Y0066597D03*
X0007304Y0074471D03*
X0007304Y0082345D03*
X0030926Y0074471D03*
X0030926Y0066597D03*
X0030926Y0058723D03*
X0030926Y0050849D03*
X0030926Y0042975D03*
X0030926Y0035101D03*
X0030926Y0027227D03*
X0030926Y0019353D03*
X0030926Y0011479D03*
X0053529Y0012535D03*
X0053318Y0025043D03*
X0053236Y0036452D03*
X0052947Y0047703D03*
X0052921Y0057580D03*
X0052921Y0067865D03*
X0052725Y0076877D03*
X0052493Y0091104D03*
X0068296Y0103291D03*
X0089661Y0083716D03*
X0096443Y0083216D03*
X0096896Y0089130D03*
X0103559Y0096728D03*
X0111005Y0097500D03*
X0116545Y0101640D03*
X0122694Y0101966D03*
X0134979Y0087619D03*
X0139247Y0087573D03*
X0126353Y0079700D03*
X0127024Y0077073D03*
X0124055Y0081578D03*
X0121118Y0079514D03*
X0119150Y0081759D03*
X0118441Y0084355D03*
X0141267Y0064572D03*
X0141283Y0060330D03*
X0138024Y0060052D03*
X0136420Y0057869D03*
X0139491Y0055823D03*
X0150143Y0059122D03*
X0157913Y0067329D03*
X0157896Y0078768D03*
X0166513Y0091078D03*
X0166428Y0096473D03*
X0172573Y0103512D03*
X0192612Y0101297D03*
X0192969Y0089921D03*
X0191951Y0050317D03*
X0192069Y0039384D03*
X0192135Y0029022D03*
X0182780Y0029069D03*
X0172442Y0029022D03*
X0162577Y0028842D03*
X0151104Y0017417D03*
X0151361Y0005106D03*
X0141155Y0005050D03*
X0132990Y0010536D03*
X0128078Y0011753D03*
X0125293Y0014112D03*
X0128828Y0005219D03*
X0115039Y0014138D03*
X0113589Y0011771D03*
X0101298Y0015299D03*
X0104453Y0028582D03*
X0106778Y0031239D03*
X0111068Y0030994D03*
X0111276Y0037583D03*
X0115190Y0037938D03*
X0117079Y0035103D03*
X0125055Y0038214D03*
X0125767Y0034842D03*
X0130808Y0030916D03*
X0137258Y0030034D03*
X0153067Y0043834D03*
X0093669Y0030441D03*
X0089596Y0030450D03*
X0083269Y0038774D03*
X0081097Y0040479D03*
X0077559Y0036762D03*
X0080796Y0035414D03*
X0069441Y0040536D03*
X0071519Y0048412D03*
X0067890Y0051098D03*
X0067915Y0055399D03*
X0074150Y0053618D03*
X0078756Y0053657D03*
X0067343Y0074424D03*
X0083316Y0011624D03*
X0190788Y0167474D03*
D11*
X0190496Y0127465D03*
X0190496Y0095969D03*
D12*
X0167033Y0123507D03*
X0157033Y0123507D03*
X0147033Y0123507D03*
X0137033Y0123507D03*
X0127033Y0123507D03*
X0117033Y0123507D03*
X0107033Y0123507D03*
X0097033Y0123507D03*
X0087033Y0123507D03*
X0077033Y0123507D03*
X0067033Y0123507D03*
X0057033Y0123507D03*
X0047033Y0123507D03*
X0037033Y0123507D03*
X0157206Y0134290D03*
X0167206Y0134290D03*
D13*
X0170728Y0135716D02*
X0172098Y0135716D01*
X0172107Y0136314D02*
X0170480Y0136314D01*
X0170427Y0136442D02*
X0169358Y0137511D01*
X0167961Y0138090D01*
X0166450Y0138090D01*
X0165053Y0137511D01*
X0163984Y0136442D01*
X0163406Y0135046D01*
X0163406Y0133534D01*
X0163984Y0132137D01*
X0165053Y0131068D01*
X0166450Y0130490D01*
X0167961Y0130490D01*
X0169358Y0131068D01*
X0170427Y0132137D01*
X0171006Y0133534D01*
X0171006Y0135046D01*
X0170427Y0136442D01*
X0169956Y0136913D02*
X0172116Y0136913D01*
X0172125Y0137511D02*
X0169358Y0137511D01*
X0172134Y0138110D02*
X0159180Y0138110D01*
X0159459Y0137968D02*
X0158856Y0138275D01*
X0158212Y0138484D01*
X0157544Y0138590D01*
X0157505Y0138590D01*
X0157505Y0134590D01*
X0156906Y0134590D01*
X0156906Y0138590D01*
X0156867Y0138590D01*
X0156199Y0138484D01*
X0155555Y0138275D01*
X0154952Y0137968D01*
X0154404Y0137570D01*
X0153926Y0137091D01*
X0153528Y0136544D01*
X0153221Y0135940D01*
X0153011Y0135297D01*
X0152906Y0134628D01*
X0152906Y0134590D01*
X0156905Y0134590D01*
X0156905Y0133990D01*
X0152906Y0133990D01*
X0152906Y0133951D01*
X0153011Y0133283D01*
X0153221Y0132639D01*
X0153528Y0132036D01*
X0153926Y0131489D01*
X0154404Y0131010D01*
X0154952Y0130612D01*
X0155555Y0130305D01*
X0156199Y0130096D01*
X0156867Y0129990D01*
X0156906Y0129990D01*
X0156906Y0133990D01*
X0157505Y0133990D01*
X0157505Y0129990D01*
X0157544Y0129990D01*
X0158212Y0130096D01*
X0158856Y0130305D01*
X0159459Y0130612D01*
X0160007Y0131010D01*
X0160485Y0131489D01*
X0160883Y0132036D01*
X0161190Y0132639D01*
X0161400Y0133283D01*
X0161506Y0133951D01*
X0161505Y0133990D01*
X0157506Y0133990D01*
X0157506Y0134590D01*
X0161506Y0134590D01*
X0161506Y0134628D01*
X0161400Y0135297D01*
X0161190Y0135940D01*
X0160883Y0136544D01*
X0160485Y0137091D01*
X0160007Y0137570D01*
X0159459Y0137968D01*
X0160065Y0137511D02*
X0165053Y0137511D01*
X0164455Y0136913D02*
X0160615Y0136913D01*
X0161000Y0136314D02*
X0163931Y0136314D01*
X0163683Y0135716D02*
X0161263Y0135716D01*
X0161428Y0135117D02*
X0163435Y0135117D01*
X0163406Y0134519D02*
X0157506Y0134519D01*
X0157505Y0135117D02*
X0156906Y0135117D01*
X0156905Y0134519D02*
X0066646Y0134519D01*
X0066661Y0135117D02*
X0152983Y0135117D01*
X0153148Y0135716D02*
X0066675Y0135716D01*
X0066690Y0136314D02*
X0153411Y0136314D01*
X0153796Y0136913D02*
X0066704Y0136913D01*
X0066719Y0137511D02*
X0154346Y0137511D01*
X0155231Y0138110D02*
X0066733Y0138110D01*
X0066748Y0138708D02*
X0172143Y0138708D01*
X0172153Y0139307D02*
X0066762Y0139307D01*
X0066777Y0139905D02*
X0147058Y0139905D01*
X0152910Y0133920D02*
X0066632Y0133920D01*
X0066617Y0133322D02*
X0153005Y0133322D01*
X0153193Y0132723D02*
X0066603Y0132723D01*
X0066588Y0132125D02*
X0153483Y0132125D01*
X0153898Y0131526D02*
X0066574Y0131526D01*
X0066559Y0130928D02*
X0154517Y0130928D01*
X0155507Y0130329D02*
X0066545Y0130329D01*
X0066530Y0129731D02*
X0172006Y0129731D01*
X0172015Y0130329D02*
X0158904Y0130329D01*
X0159894Y0130928D02*
X0165392Y0130928D01*
X0164595Y0131526D02*
X0160513Y0131526D01*
X0160928Y0132125D02*
X0163997Y0132125D01*
X0163741Y0132723D02*
X0161218Y0132723D01*
X0161406Y0133322D02*
X0163493Y0133322D01*
X0163406Y0133920D02*
X0161501Y0133920D01*
X0157505Y0133920D02*
X0156906Y0133920D01*
X0156906Y0133322D02*
X0157505Y0133322D01*
X0157505Y0132723D02*
X0156906Y0132723D01*
X0156906Y0132125D02*
X0157505Y0132125D01*
X0157505Y0131526D02*
X0156906Y0131526D01*
X0156906Y0130928D02*
X0157505Y0130928D01*
X0157505Y0130329D02*
X0156906Y0130329D01*
X0156277Y0127307D02*
X0154880Y0126729D01*
X0153811Y0125660D01*
X0153233Y0124263D01*
X0153233Y0122751D01*
X0153811Y0121355D01*
X0154880Y0120286D01*
X0156277Y0119707D01*
X0157789Y0119707D01*
X0159185Y0120286D01*
X0160254Y0121355D01*
X0160833Y0122751D01*
X0160833Y0124263D01*
X0160254Y0125660D01*
X0159185Y0126729D01*
X0157789Y0127307D01*
X0156277Y0127307D01*
X0154903Y0126738D02*
X0149162Y0126738D01*
X0149185Y0126729D02*
X0147789Y0127307D01*
X0146277Y0127307D01*
X0144880Y0126729D01*
X0143811Y0125660D01*
X0143233Y0124263D01*
X0143233Y0122751D01*
X0143811Y0121355D01*
X0144880Y0120286D01*
X0146277Y0119707D01*
X0147789Y0119707D01*
X0149185Y0120286D01*
X0150254Y0121355D01*
X0150833Y0122751D01*
X0150833Y0124263D01*
X0150254Y0125660D01*
X0149185Y0126729D01*
X0149774Y0126140D02*
X0154291Y0126140D01*
X0153762Y0125541D02*
X0150303Y0125541D01*
X0150551Y0124943D02*
X0153514Y0124943D01*
X0153266Y0124344D02*
X0150799Y0124344D01*
X0150833Y0123746D02*
X0153233Y0123746D01*
X0153233Y0123147D02*
X0150833Y0123147D01*
X0150749Y0122549D02*
X0153317Y0122549D01*
X0153565Y0121950D02*
X0150501Y0121950D01*
X0150251Y0121352D02*
X0153814Y0121352D01*
X0154413Y0120753D02*
X0149653Y0120753D01*
X0148869Y0120155D02*
X0155197Y0120155D01*
X0158869Y0120155D02*
X0165197Y0120155D01*
X0164880Y0120286D02*
X0166277Y0119707D01*
X0167789Y0119707D01*
X0169185Y0120286D01*
X0170254Y0121355D01*
X0170833Y0122751D01*
X0170833Y0124263D01*
X0170254Y0125660D01*
X0169185Y0126729D01*
X0167789Y0127307D01*
X0166277Y0127307D01*
X0164880Y0126729D01*
X0163811Y0125660D01*
X0163233Y0124263D01*
X0163233Y0122751D01*
X0163811Y0121355D01*
X0164880Y0120286D01*
X0164413Y0120753D02*
X0159653Y0120753D01*
X0160251Y0121352D02*
X0163814Y0121352D01*
X0163565Y0121950D02*
X0160501Y0121950D01*
X0160749Y0122549D02*
X0163317Y0122549D01*
X0163233Y0123147D02*
X0160833Y0123147D01*
X0160833Y0123746D02*
X0163233Y0123746D01*
X0163266Y0124344D02*
X0160799Y0124344D01*
X0160551Y0124943D02*
X0163514Y0124943D01*
X0163762Y0125541D02*
X0160303Y0125541D01*
X0159774Y0126140D02*
X0164291Y0126140D01*
X0164903Y0126738D02*
X0159162Y0126738D01*
X0169019Y0130928D02*
X0172024Y0130928D01*
X0172033Y0131526D02*
X0169816Y0131526D01*
X0170414Y0132125D02*
X0172043Y0132125D01*
X0172052Y0132723D02*
X0170670Y0132723D01*
X0170918Y0133322D02*
X0172061Y0133322D01*
X0172070Y0133920D02*
X0171006Y0133920D01*
X0171006Y0134519D02*
X0172079Y0134519D01*
X0172088Y0135117D02*
X0170976Y0135117D01*
X0172160Y0139798D02*
X0171769Y0114248D01*
X0168694Y0111173D01*
X0122712Y0111173D01*
X0116089Y0104551D01*
X0115445Y0103907D01*
X0115445Y0103211D01*
X0114656Y0102422D01*
X0114656Y0100858D01*
X0115762Y0099751D01*
X0117327Y0099751D01*
X0118434Y0100858D01*
X0118434Y0102422D01*
X0117753Y0103103D01*
X0123623Y0108973D01*
X0169605Y0108973D01*
X0170249Y0109618D01*
X0171720Y0111089D01*
X0171631Y0105241D01*
X0170684Y0104294D01*
X0170684Y0102729D01*
X0171653Y0101760D01*
X0171662Y0100725D01*
X0171725Y0092073D01*
X0161637Y0081957D01*
X0161549Y0045054D01*
X0143226Y0026731D01*
X0105310Y0026768D01*
X0106342Y0027800D01*
X0106342Y0029365D01*
X0105235Y0030471D01*
X0103670Y0030471D01*
X0102564Y0029365D01*
X0102564Y0027800D01*
X0103594Y0026770D01*
X0089995Y0026783D01*
X0079605Y0032752D01*
X0070405Y0038829D01*
X0071330Y0039753D01*
X0071330Y0041318D01*
X0070223Y0042425D01*
X0068658Y0042425D01*
X0067552Y0041318D01*
X0067552Y0040713D01*
X0066039Y0041713D01*
X0066039Y0050278D01*
X0067107Y0049209D01*
X0068672Y0049209D01*
X0069779Y0050316D01*
X0069779Y0051881D01*
X0068672Y0052987D01*
X0067107Y0052987D01*
X0066039Y0051918D01*
X0066039Y0054604D01*
X0067132Y0053510D01*
X0068697Y0053510D01*
X0069804Y0054617D01*
X0069804Y0056182D01*
X0068697Y0057288D01*
X0067132Y0057288D01*
X0066039Y0056194D01*
X0066039Y0073058D01*
X0066561Y0072535D01*
X0068126Y0072535D01*
X0069232Y0073642D01*
X0069232Y0075207D01*
X0068126Y0076313D01*
X0066561Y0076313D01*
X0066039Y0075791D01*
X0066039Y0095333D01*
X0073050Y0088322D01*
X0073050Y0055189D01*
X0072261Y0054400D01*
X0072261Y0052835D01*
X0073367Y0051729D01*
X0074932Y0051729D01*
X0076039Y0052835D01*
X0076039Y0054400D01*
X0075250Y0055189D01*
X0075250Y0055608D01*
X0076867Y0053991D01*
X0076867Y0052875D01*
X0077973Y0051768D01*
X0079538Y0051768D01*
X0079545Y0051775D01*
X0079545Y0041598D01*
X0079208Y0041261D01*
X0079208Y0039696D01*
X0080315Y0038590D01*
X0081380Y0038590D01*
X0081380Y0037992D01*
X0081599Y0037773D01*
X0081129Y0037303D01*
X0080014Y0037303D01*
X0078907Y0036197D01*
X0078907Y0034632D01*
X0080014Y0033525D01*
X0081579Y0033525D01*
X0082685Y0034632D01*
X0082685Y0035748D01*
X0082723Y0035785D01*
X0084507Y0035785D01*
X0085638Y0036916D01*
X0091780Y0030774D01*
X0091780Y0029658D01*
X0092887Y0028552D01*
X0094452Y0028552D01*
X0095558Y0029658D01*
X0095558Y0031223D01*
X0094452Y0032330D01*
X0093336Y0032330D01*
X0087358Y0038307D01*
X0087358Y0059945D01*
X0109387Y0037916D01*
X0109387Y0036801D01*
X0110493Y0035694D01*
X0112058Y0035694D01*
X0113165Y0036801D01*
X0113165Y0038365D01*
X0112058Y0039472D01*
X0110942Y0039472D01*
X0088458Y0061956D01*
X0088458Y0082248D01*
X0088879Y0081827D01*
X0090444Y0081827D01*
X0091139Y0082523D01*
X0091978Y0082523D01*
X0096695Y0087241D01*
X0097679Y0087241D01*
X0098468Y0088030D01*
X0133090Y0088030D01*
X0133090Y0086836D01*
X0134197Y0085730D01*
X0135761Y0085730D01*
X0136868Y0086836D01*
X0136868Y0088395D01*
X0137358Y0087906D01*
X0137358Y0086790D01*
X0138147Y0086001D01*
X0138147Y0061941D01*
X0137241Y0061941D01*
X0136135Y0060834D01*
X0136135Y0059758D01*
X0135638Y0059758D01*
X0134531Y0058651D01*
X0134531Y0057086D01*
X0135638Y0055980D01*
X0137203Y0055980D01*
X0137602Y0056379D01*
X0137602Y0055040D01*
X0138709Y0053934D01*
X0140273Y0053934D01*
X0140349Y0054009D01*
X0140349Y0042916D01*
X0139394Y0041961D01*
X0139136Y0041961D01*
X0139123Y0041948D01*
X0137583Y0041903D01*
X0137144Y0041903D01*
X0137131Y0041890D01*
X0137112Y0041889D01*
X0136810Y0041570D01*
X0127334Y0032094D01*
X0112639Y0032094D01*
X0111850Y0032883D01*
X0110285Y0032883D01*
X0109179Y0031776D01*
X0109179Y0030211D01*
X0110285Y0029105D01*
X0111850Y0029105D01*
X0112639Y0029894D01*
X0128246Y0029894D01*
X0128919Y0030567D01*
X0128919Y0030134D01*
X0130026Y0029027D01*
X0131590Y0029027D01*
X0132697Y0030134D01*
X0132697Y0031699D01*
X0131590Y0032805D01*
X0131157Y0032805D01*
X0138068Y0039716D01*
X0139608Y0039761D01*
X0140305Y0039761D01*
X0141905Y0041361D01*
X0142072Y0041529D01*
X0142072Y0036404D01*
X0137591Y0031923D01*
X0136475Y0031923D01*
X0135369Y0030816D01*
X0135369Y0029251D01*
X0136475Y0028145D01*
X0138040Y0028145D01*
X0139147Y0029251D01*
X0139147Y0030367D01*
X0143628Y0034848D01*
X0144272Y0035493D01*
X0144272Y0061568D01*
X0143628Y0062212D01*
X0143166Y0062675D01*
X0142604Y0063237D01*
X0143156Y0063789D01*
X0143156Y0065354D01*
X0142050Y0066461D01*
X0140485Y0066461D01*
X0140347Y0066322D01*
X0140347Y0086001D01*
X0141135Y0086790D01*
X0141135Y0088355D01*
X0140029Y0089462D01*
X0138913Y0089462D01*
X0137767Y0090608D01*
X0133741Y0090608D01*
X0133363Y0090230D01*
X0098468Y0090230D01*
X0097679Y0091019D01*
X0096114Y0091019D01*
X0095007Y0089912D01*
X0095007Y0088929D01*
X0091064Y0084985D01*
X0090444Y0085605D01*
X0088879Y0085605D01*
X0088458Y0085185D01*
X0088458Y0090467D01*
X0088133Y0090793D01*
X0088133Y0119850D01*
X0089185Y0120286D01*
X0090254Y0121355D01*
X0090833Y0122751D01*
X0090833Y0124263D01*
X0090254Y0125660D01*
X0089185Y0126729D01*
X0087789Y0127307D01*
X0086277Y0127307D01*
X0084880Y0126729D01*
X0083811Y0125660D01*
X0083233Y0124263D01*
X0083233Y0122751D01*
X0083811Y0121355D01*
X0084880Y0120286D01*
X0085933Y0119850D01*
X0085933Y0091437D01*
X0078133Y0099237D01*
X0078133Y0119850D01*
X0079185Y0120286D01*
X0080254Y0121355D01*
X0080833Y0122751D01*
X0080833Y0124263D01*
X0080254Y0125660D01*
X0079185Y0126729D01*
X0077789Y0127307D01*
X0076277Y0127307D01*
X0074880Y0126729D01*
X0073811Y0125660D01*
X0073233Y0124263D01*
X0073233Y0122751D01*
X0073811Y0121355D01*
X0074880Y0120286D01*
X0075933Y0119850D01*
X0075933Y0099881D01*
X0068133Y0107681D01*
X0068133Y0119850D01*
X0069185Y0120286D01*
X0070254Y0121355D01*
X0070833Y0122751D01*
X0070833Y0124263D01*
X0070254Y0125660D01*
X0069185Y0126729D01*
X0067789Y0127307D01*
X0066471Y0127307D01*
X0066785Y0140249D01*
X0172160Y0139798D01*
X0171997Y0129132D02*
X0066516Y0129132D01*
X0066501Y0128534D02*
X0171988Y0128534D01*
X0171978Y0127935D02*
X0066487Y0127935D01*
X0066472Y0127337D02*
X0171969Y0127337D01*
X0171960Y0126738D02*
X0169162Y0126738D01*
X0169774Y0126140D02*
X0171951Y0126140D01*
X0171942Y0125541D02*
X0170303Y0125541D01*
X0170551Y0124943D02*
X0171933Y0124943D01*
X0171923Y0124344D02*
X0170799Y0124344D01*
X0170833Y0123746D02*
X0171914Y0123746D01*
X0171905Y0123147D02*
X0170833Y0123147D01*
X0170749Y0122549D02*
X0171896Y0122549D01*
X0171887Y0121950D02*
X0170501Y0121950D01*
X0170251Y0121352D02*
X0171878Y0121352D01*
X0171868Y0120753D02*
X0169653Y0120753D01*
X0168869Y0120155D02*
X0171859Y0120155D01*
X0171850Y0119556D02*
X0088133Y0119556D01*
X0088133Y0118958D02*
X0171841Y0118958D01*
X0171832Y0118359D02*
X0088133Y0118359D01*
X0088133Y0117761D02*
X0171823Y0117761D01*
X0171813Y0117162D02*
X0088133Y0117162D01*
X0088133Y0116563D02*
X0171804Y0116563D01*
X0171795Y0115965D02*
X0088133Y0115965D01*
X0088133Y0115366D02*
X0171786Y0115366D01*
X0171777Y0114768D02*
X0088133Y0114768D01*
X0088133Y0114169D02*
X0171690Y0114169D01*
X0171091Y0113571D02*
X0088133Y0113571D01*
X0088133Y0112972D02*
X0170493Y0112972D01*
X0169894Y0112374D02*
X0088133Y0112374D01*
X0088133Y0111775D02*
X0169296Y0111775D01*
X0168697Y0111177D02*
X0088133Y0111177D01*
X0088133Y0110578D02*
X0122117Y0110578D01*
X0121518Y0109980D02*
X0088133Y0109980D01*
X0088133Y0109381D02*
X0120920Y0109381D01*
X0120321Y0108783D02*
X0088133Y0108783D01*
X0088133Y0108184D02*
X0119723Y0108184D01*
X0119124Y0107586D02*
X0088133Y0107586D01*
X0088133Y0106987D02*
X0118526Y0106987D01*
X0117927Y0106389D02*
X0088133Y0106389D01*
X0088133Y0105790D02*
X0117329Y0105790D01*
X0116730Y0105192D02*
X0088133Y0105192D01*
X0088133Y0104593D02*
X0116132Y0104593D01*
X0116089Y0104551D02*
X0116089Y0104551D01*
X0115533Y0103995D02*
X0088133Y0103995D01*
X0088133Y0103396D02*
X0115445Y0103396D01*
X0115031Y0102798D02*
X0088133Y0102798D01*
X0088133Y0102199D02*
X0114656Y0102199D01*
X0114656Y0101601D02*
X0088133Y0101601D01*
X0088133Y0101002D02*
X0114656Y0101002D01*
X0115110Y0100404D02*
X0088133Y0100404D01*
X0088133Y0099805D02*
X0115708Y0099805D01*
X0117381Y0099805D02*
X0171669Y0099805D01*
X0171673Y0099207D02*
X0111970Y0099207D01*
X0111788Y0099389D02*
X0110223Y0099389D01*
X0109117Y0098282D01*
X0109117Y0096717D01*
X0110223Y0095611D01*
X0111788Y0095611D01*
X0112894Y0096717D01*
X0112894Y0098282D01*
X0111788Y0099389D01*
X0112568Y0098608D02*
X0171678Y0098608D01*
X0171682Y0098010D02*
X0112894Y0098010D01*
X0112894Y0097411D02*
X0171686Y0097411D01*
X0171691Y0096813D02*
X0112894Y0096813D01*
X0112391Y0096214D02*
X0171695Y0096214D01*
X0171699Y0095616D02*
X0111793Y0095616D01*
X0110218Y0095616D02*
X0105118Y0095616D01*
X0105448Y0095946D02*
X0104341Y0094839D01*
X0102777Y0094839D01*
X0101670Y0095946D01*
X0101670Y0097510D01*
X0102777Y0098617D01*
X0104341Y0098617D01*
X0105448Y0097510D01*
X0105448Y0095946D01*
X0105448Y0096214D02*
X0109620Y0096214D01*
X0109117Y0096813D02*
X0105448Y0096813D01*
X0105448Y0097411D02*
X0109117Y0097411D01*
X0109117Y0098010D02*
X0104949Y0098010D01*
X0104350Y0098608D02*
X0109443Y0098608D01*
X0110041Y0099207D02*
X0088133Y0099207D01*
X0088133Y0098608D02*
X0102768Y0098608D01*
X0102169Y0098010D02*
X0088133Y0098010D01*
X0088133Y0097411D02*
X0101670Y0097411D01*
X0101670Y0096813D02*
X0088133Y0096813D01*
X0088133Y0096214D02*
X0101670Y0096214D01*
X0102000Y0095616D02*
X0088133Y0095616D01*
X0088133Y0095017D02*
X0102599Y0095017D01*
X0104519Y0095017D02*
X0171704Y0095017D01*
X0171708Y0094419D02*
X0088133Y0094419D01*
X0088133Y0093820D02*
X0171713Y0093820D01*
X0171717Y0093222D02*
X0088133Y0093222D01*
X0088133Y0092623D02*
X0165387Y0092623D01*
X0165730Y0092967D02*
X0164624Y0091860D01*
X0164624Y0090295D01*
X0165730Y0089189D01*
X0167295Y0089189D01*
X0168402Y0090295D01*
X0168402Y0091860D01*
X0167295Y0092967D01*
X0165730Y0092967D01*
X0164788Y0092025D02*
X0088133Y0092025D01*
X0088133Y0091426D02*
X0164624Y0091426D01*
X0164624Y0090827D02*
X0097870Y0090827D01*
X0096896Y0089687D02*
X0096896Y0089130D01*
X0133819Y0089130D01*
X0134197Y0089508D01*
X0137311Y0089508D01*
X0139247Y0087573D01*
X0139247Y0062219D01*
X0142066Y0062219D01*
X0143172Y0061112D01*
X0143172Y0035948D01*
X0137258Y0030034D01*
X0138478Y0028582D02*
X0145077Y0028582D01*
X0144478Y0027984D02*
X0106342Y0027984D01*
X0106342Y0028582D02*
X0136038Y0028582D01*
X0135439Y0029181D02*
X0131744Y0029181D01*
X0132343Y0029779D02*
X0135369Y0029779D01*
X0135369Y0030378D02*
X0132697Y0030378D01*
X0132697Y0030976D02*
X0135529Y0030976D01*
X0136128Y0031575D02*
X0132697Y0031575D01*
X0132222Y0032173D02*
X0137842Y0032173D01*
X0138440Y0032772D02*
X0131624Y0032772D01*
X0131722Y0033370D02*
X0139039Y0033370D01*
X0139637Y0033969D02*
X0132321Y0033969D01*
X0132919Y0034567D02*
X0140236Y0034567D01*
X0140834Y0035166D02*
X0133518Y0035166D01*
X0134116Y0035764D02*
X0141433Y0035764D01*
X0142031Y0036363D02*
X0134715Y0036363D01*
X0135313Y0036961D02*
X0142072Y0036961D01*
X0142072Y0037560D02*
X0135912Y0037560D01*
X0136510Y0038159D02*
X0142072Y0038159D01*
X0142072Y0038757D02*
X0137109Y0038757D01*
X0137707Y0039356D02*
X0142072Y0039356D01*
X0142072Y0039954D02*
X0140498Y0039954D01*
X0141096Y0040553D02*
X0142072Y0040553D01*
X0142072Y0041151D02*
X0141695Y0041151D01*
X0141449Y0042461D02*
X0141449Y0057526D01*
X0140549Y0057526D01*
X0138024Y0060052D01*
X0136801Y0061500D02*
X0088914Y0061500D01*
X0088458Y0062099D02*
X0138147Y0062099D01*
X0138147Y0062697D02*
X0088458Y0062697D01*
X0088458Y0063296D02*
X0138147Y0063296D01*
X0138147Y0063894D02*
X0088458Y0063894D01*
X0088458Y0064493D02*
X0138147Y0064493D01*
X0138147Y0065092D02*
X0088458Y0065092D01*
X0088458Y0065690D02*
X0138147Y0065690D01*
X0138147Y0066289D02*
X0088458Y0066289D01*
X0088458Y0066887D02*
X0138147Y0066887D01*
X0138147Y0067486D02*
X0088458Y0067486D01*
X0088458Y0068084D02*
X0138147Y0068084D01*
X0138147Y0068683D02*
X0088458Y0068683D01*
X0088458Y0069281D02*
X0138147Y0069281D01*
X0138147Y0069880D02*
X0088458Y0069880D01*
X0088458Y0070478D02*
X0138147Y0070478D01*
X0138147Y0071077D02*
X0088458Y0071077D01*
X0088458Y0071675D02*
X0138147Y0071675D01*
X0138147Y0072274D02*
X0088458Y0072274D01*
X0088458Y0072872D02*
X0138147Y0072872D01*
X0138147Y0073471D02*
X0088458Y0073471D01*
X0088458Y0074069D02*
X0138147Y0074069D01*
X0138147Y0074668D02*
X0088458Y0074668D01*
X0088458Y0075266D02*
X0126159Y0075266D01*
X0126241Y0075184D02*
X0127806Y0075184D01*
X0128913Y0076290D01*
X0128913Y0077855D01*
X0128046Y0078722D01*
X0128242Y0078918D01*
X0128242Y0080483D01*
X0127136Y0081589D01*
X0125944Y0081589D01*
X0125944Y0082361D01*
X0124838Y0083467D01*
X0123273Y0083467D01*
X0122166Y0082361D01*
X0122166Y0081137D01*
X0121901Y0081403D01*
X0121039Y0081403D01*
X0121039Y0082542D01*
X0119932Y0083648D01*
X0118367Y0083648D01*
X0117261Y0082542D01*
X0117261Y0080977D01*
X0118367Y0079870D01*
X0119229Y0079870D01*
X0119229Y0078731D01*
X0120336Y0077625D01*
X0121901Y0077625D01*
X0123007Y0078731D01*
X0123007Y0079955D01*
X0123273Y0079689D01*
X0124464Y0079689D01*
X0124464Y0078918D01*
X0125331Y0078051D01*
X0125135Y0077855D01*
X0125135Y0076290D01*
X0126241Y0075184D01*
X0125560Y0075865D02*
X0088458Y0075865D01*
X0088458Y0076463D02*
X0125135Y0076463D01*
X0125135Y0077062D02*
X0088458Y0077062D01*
X0088458Y0077660D02*
X0120300Y0077660D01*
X0119702Y0078259D02*
X0088458Y0078259D01*
X0088458Y0078857D02*
X0119229Y0078857D01*
X0119229Y0079456D02*
X0088458Y0079456D01*
X0088458Y0080054D02*
X0118183Y0080054D01*
X0117585Y0080653D02*
X0088458Y0080653D01*
X0088458Y0081251D02*
X0117261Y0081251D01*
X0117261Y0081850D02*
X0097748Y0081850D01*
X0097225Y0081327D02*
X0098332Y0082433D01*
X0098332Y0083998D01*
X0097225Y0085105D01*
X0095660Y0085105D01*
X0094554Y0083998D01*
X0094554Y0082433D01*
X0095660Y0081327D01*
X0097225Y0081327D01*
X0098332Y0082448D02*
X0117261Y0082448D01*
X0117766Y0083047D02*
X0098332Y0083047D01*
X0098332Y0083645D02*
X0118364Y0083645D01*
X0118749Y0084105D02*
X0118441Y0084355D01*
X0119935Y0083645D02*
X0138147Y0083645D01*
X0138147Y0083047D02*
X0125258Y0083047D01*
X0125856Y0082448D02*
X0138147Y0082448D01*
X0138147Y0081850D02*
X0125944Y0081850D01*
X0127474Y0081251D02*
X0138147Y0081251D01*
X0138147Y0080653D02*
X0128072Y0080653D01*
X0128242Y0080054D02*
X0138147Y0080054D01*
X0138147Y0079456D02*
X0128242Y0079456D01*
X0128181Y0078857D02*
X0138147Y0078857D01*
X0138147Y0078259D02*
X0128509Y0078259D01*
X0128913Y0077660D02*
X0138147Y0077660D01*
X0138147Y0077062D02*
X0128913Y0077062D01*
X0128913Y0076463D02*
X0138147Y0076463D01*
X0138147Y0075865D02*
X0128487Y0075865D01*
X0127888Y0075266D02*
X0138147Y0075266D01*
X0140347Y0075266D02*
X0161621Y0075266D01*
X0161620Y0074668D02*
X0140347Y0074668D01*
X0140347Y0074069D02*
X0161618Y0074069D01*
X0161617Y0073471D02*
X0140347Y0073471D01*
X0140347Y0072872D02*
X0161616Y0072872D01*
X0161614Y0072274D02*
X0140347Y0072274D01*
X0140347Y0071675D02*
X0161613Y0071675D01*
X0161611Y0071077D02*
X0140347Y0071077D01*
X0140347Y0070478D02*
X0161610Y0070478D01*
X0161608Y0069880D02*
X0140347Y0069880D01*
X0140347Y0069281D02*
X0161607Y0069281D01*
X0161606Y0068683D02*
X0159231Y0068683D01*
X0158696Y0069218D02*
X0159802Y0068111D01*
X0159802Y0066547D01*
X0158696Y0065440D01*
X0157131Y0065440D01*
X0156024Y0066547D01*
X0156024Y0068111D01*
X0157131Y0069218D01*
X0158696Y0069218D01*
X0159802Y0068084D02*
X0161604Y0068084D01*
X0161603Y0067486D02*
X0159802Y0067486D01*
X0159802Y0066887D02*
X0161601Y0066887D01*
X0161600Y0066289D02*
X0159544Y0066289D01*
X0158946Y0065690D02*
X0161598Y0065690D01*
X0161597Y0065092D02*
X0143156Y0065092D01*
X0143156Y0064493D02*
X0161595Y0064493D01*
X0161594Y0063894D02*
X0143156Y0063894D01*
X0142663Y0063296D02*
X0161593Y0063296D01*
X0161591Y0062697D02*
X0143143Y0062697D01*
X0143166Y0062675D02*
X0143166Y0062675D01*
X0143628Y0062212D02*
X0143628Y0062212D01*
X0143742Y0062099D02*
X0161590Y0062099D01*
X0161588Y0061500D02*
X0144272Y0061500D01*
X0144272Y0060902D02*
X0161587Y0060902D01*
X0161585Y0060303D02*
X0144272Y0060303D01*
X0144272Y0059705D02*
X0161584Y0059705D01*
X0161583Y0059106D02*
X0144272Y0059106D01*
X0144272Y0058508D02*
X0161581Y0058508D01*
X0161580Y0057909D02*
X0144272Y0057909D01*
X0144272Y0057311D02*
X0161578Y0057311D01*
X0161577Y0056712D02*
X0144272Y0056712D01*
X0144272Y0056114D02*
X0161575Y0056114D01*
X0161574Y0055515D02*
X0144272Y0055515D01*
X0144272Y0054917D02*
X0161572Y0054917D01*
X0161571Y0054318D02*
X0144272Y0054318D01*
X0144272Y0053720D02*
X0161570Y0053720D01*
X0161568Y0053121D02*
X0144272Y0053121D01*
X0144272Y0052523D02*
X0161567Y0052523D01*
X0161565Y0051924D02*
X0144272Y0051924D01*
X0144272Y0051326D02*
X0161564Y0051326D01*
X0161562Y0050727D02*
X0144272Y0050727D01*
X0144272Y0050129D02*
X0161561Y0050129D01*
X0161559Y0049530D02*
X0144272Y0049530D01*
X0144272Y0048932D02*
X0161558Y0048932D01*
X0161557Y0048333D02*
X0144272Y0048333D01*
X0144272Y0047735D02*
X0161555Y0047735D01*
X0161554Y0047136D02*
X0144272Y0047136D01*
X0144272Y0046538D02*
X0161552Y0046538D01*
X0161551Y0045939D02*
X0144272Y0045939D01*
X0144272Y0045341D02*
X0151902Y0045341D01*
X0152284Y0045723D02*
X0151178Y0044617D01*
X0151178Y0043052D01*
X0152284Y0041945D01*
X0153849Y0041945D01*
X0154956Y0043052D01*
X0154956Y0044617D01*
X0153849Y0045723D01*
X0152284Y0045723D01*
X0151303Y0044742D02*
X0144272Y0044742D01*
X0144272Y0044144D02*
X0151178Y0044144D01*
X0151178Y0043545D02*
X0144272Y0043545D01*
X0144272Y0042947D02*
X0151283Y0042947D01*
X0151881Y0042348D02*
X0144272Y0042348D01*
X0144272Y0041750D02*
X0158244Y0041750D01*
X0158843Y0042348D02*
X0154252Y0042348D01*
X0154850Y0042947D02*
X0159441Y0042947D01*
X0160040Y0043545D02*
X0154956Y0043545D01*
X0154956Y0044144D02*
X0160638Y0044144D01*
X0161237Y0044742D02*
X0154830Y0044742D01*
X0154232Y0045341D02*
X0161549Y0045341D01*
X0157646Y0041151D02*
X0144272Y0041151D01*
X0144272Y0040553D02*
X0157047Y0040553D01*
X0156448Y0039954D02*
X0144272Y0039954D01*
X0144272Y0039356D02*
X0155850Y0039356D01*
X0155251Y0038757D02*
X0144272Y0038757D01*
X0144272Y0038159D02*
X0154653Y0038159D01*
X0154054Y0037560D02*
X0144272Y0037560D01*
X0144272Y0036961D02*
X0153456Y0036961D01*
X0152857Y0036363D02*
X0144272Y0036363D01*
X0144272Y0035764D02*
X0152259Y0035764D01*
X0151660Y0035166D02*
X0143946Y0035166D01*
X0143347Y0034567D02*
X0151062Y0034567D01*
X0150463Y0033969D02*
X0142749Y0033969D01*
X0142150Y0033370D02*
X0149865Y0033370D01*
X0149266Y0032772D02*
X0141552Y0032772D01*
X0140953Y0032173D02*
X0148668Y0032173D01*
X0148069Y0031575D02*
X0140355Y0031575D01*
X0139756Y0030976D02*
X0147471Y0030976D01*
X0146872Y0030378D02*
X0139158Y0030378D01*
X0139147Y0029779D02*
X0146274Y0029779D01*
X0145675Y0029181D02*
X0139076Y0029181D01*
X0143281Y0026787D02*
X0105328Y0026787D01*
X0105927Y0027385D02*
X0143880Y0027385D01*
X0143681Y0025631D02*
X0089701Y0025683D01*
X0064939Y0039909D01*
X0064939Y0096433D01*
X0056605Y0104767D01*
X0046764Y0104767D01*
X0025855Y0125676D01*
X0025855Y0171427D01*
X0034599Y0180170D01*
X0164123Y0180170D01*
X0173345Y0170949D01*
X0173345Y0114269D01*
X0169149Y0110073D01*
X0123167Y0110073D01*
X0116545Y0103451D01*
X0116545Y0101640D01*
X0118434Y0101601D02*
X0120805Y0101601D01*
X0120805Y0101184D02*
X0121911Y0100077D01*
X0123476Y0100077D01*
X0124582Y0101184D01*
X0124582Y0102749D01*
X0123476Y0103855D01*
X0121911Y0103855D01*
X0120805Y0102749D01*
X0120805Y0101184D01*
X0120986Y0101002D02*
X0118434Y0101002D01*
X0117980Y0100404D02*
X0121585Y0100404D01*
X0120805Y0102199D02*
X0118434Y0102199D01*
X0118059Y0102798D02*
X0120853Y0102798D01*
X0121452Y0103396D02*
X0118046Y0103396D01*
X0118644Y0103995D02*
X0170684Y0103995D01*
X0170684Y0103396D02*
X0123935Y0103396D01*
X0124534Y0102798D02*
X0170684Y0102798D01*
X0171214Y0102199D02*
X0124582Y0102199D01*
X0124582Y0101601D02*
X0171655Y0101601D01*
X0171660Y0101002D02*
X0124401Y0101002D01*
X0123802Y0100404D02*
X0171665Y0100404D01*
X0170983Y0104593D02*
X0119243Y0104593D01*
X0119841Y0105192D02*
X0171582Y0105192D01*
X0171639Y0105790D02*
X0120440Y0105790D01*
X0121038Y0106389D02*
X0171648Y0106389D01*
X0171658Y0106987D02*
X0121637Y0106987D01*
X0122235Y0107586D02*
X0171667Y0107586D01*
X0171676Y0108184D02*
X0122834Y0108184D01*
X0123432Y0108783D02*
X0171685Y0108783D01*
X0171694Y0109381D02*
X0170013Y0109381D01*
X0170611Y0109980D02*
X0171703Y0109980D01*
X0171713Y0110578D02*
X0171210Y0110578D01*
X0171721Y0092623D02*
X0167639Y0092623D01*
X0168237Y0092025D02*
X0171677Y0092025D01*
X0171081Y0091426D02*
X0168402Y0091426D01*
X0168402Y0090827D02*
X0170484Y0090827D01*
X0169887Y0090229D02*
X0168336Y0090229D01*
X0167737Y0089630D02*
X0169290Y0089630D01*
X0168693Y0089032D02*
X0140459Y0089032D01*
X0141057Y0088433D02*
X0168096Y0088433D01*
X0167499Y0087835D02*
X0141135Y0087835D01*
X0141135Y0087236D02*
X0166902Y0087236D01*
X0166306Y0086638D02*
X0140983Y0086638D01*
X0140385Y0086039D02*
X0165709Y0086039D01*
X0165112Y0085441D02*
X0140347Y0085441D01*
X0140347Y0084842D02*
X0164515Y0084842D01*
X0163918Y0084244D02*
X0140347Y0084244D01*
X0140347Y0083645D02*
X0163321Y0083645D01*
X0162724Y0083047D02*
X0140347Y0083047D01*
X0140347Y0082448D02*
X0162128Y0082448D01*
X0161637Y0081850D02*
X0140347Y0081850D01*
X0140347Y0081251D02*
X0161636Y0081251D01*
X0161634Y0080653D02*
X0140347Y0080653D01*
X0140347Y0080054D02*
X0161633Y0080054D01*
X0161631Y0079456D02*
X0140347Y0079456D01*
X0140347Y0078857D02*
X0161630Y0078857D01*
X0161629Y0078259D02*
X0140347Y0078259D01*
X0140347Y0077660D02*
X0161627Y0077660D01*
X0161626Y0077062D02*
X0140347Y0077062D01*
X0140347Y0076463D02*
X0161624Y0076463D01*
X0161623Y0075865D02*
X0140347Y0075865D01*
X0140347Y0068683D02*
X0156596Y0068683D01*
X0156024Y0068084D02*
X0140347Y0068084D01*
X0140347Y0067486D02*
X0156024Y0067486D01*
X0156024Y0066887D02*
X0140347Y0066887D01*
X0142222Y0066289D02*
X0156283Y0066289D01*
X0156881Y0065690D02*
X0142820Y0065690D01*
X0136203Y0060902D02*
X0089512Y0060902D01*
X0090111Y0060303D02*
X0136135Y0060303D01*
X0135585Y0059705D02*
X0090709Y0059705D01*
X0091308Y0059106D02*
X0134986Y0059106D01*
X0134531Y0058508D02*
X0091906Y0058508D01*
X0092505Y0057909D02*
X0134531Y0057909D01*
X0134531Y0057311D02*
X0093103Y0057311D01*
X0093702Y0056712D02*
X0134905Y0056712D01*
X0135504Y0056114D02*
X0094300Y0056114D01*
X0094899Y0055515D02*
X0137602Y0055515D01*
X0137602Y0056114D02*
X0137337Y0056114D01*
X0137725Y0054917D02*
X0095497Y0054917D01*
X0096096Y0054318D02*
X0138324Y0054318D01*
X0140349Y0053720D02*
X0096694Y0053720D01*
X0097293Y0053121D02*
X0140349Y0053121D01*
X0140349Y0052523D02*
X0097891Y0052523D01*
X0098490Y0051924D02*
X0140349Y0051924D01*
X0140349Y0051326D02*
X0099088Y0051326D01*
X0099687Y0050727D02*
X0140349Y0050727D01*
X0140349Y0050129D02*
X0100286Y0050129D01*
X0100884Y0049530D02*
X0140349Y0049530D01*
X0140349Y0048932D02*
X0101483Y0048932D01*
X0102081Y0048333D02*
X0140349Y0048333D01*
X0140349Y0047735D02*
X0102680Y0047735D01*
X0103278Y0047136D02*
X0140349Y0047136D01*
X0140349Y0046538D02*
X0103877Y0046538D01*
X0104475Y0045939D02*
X0140349Y0045939D01*
X0140349Y0045341D02*
X0105074Y0045341D01*
X0105672Y0044742D02*
X0140349Y0044742D01*
X0140349Y0044144D02*
X0106271Y0044144D01*
X0106869Y0043545D02*
X0140349Y0043545D01*
X0140349Y0042947D02*
X0107468Y0042947D01*
X0108066Y0042348D02*
X0139781Y0042348D01*
X0139850Y0040861D02*
X0141449Y0042461D01*
X0139850Y0040861D02*
X0139591Y0040861D01*
X0137599Y0040803D01*
X0127790Y0030994D01*
X0111068Y0030994D01*
X0109179Y0030976D02*
X0095558Y0030976D01*
X0095558Y0030378D02*
X0103577Y0030378D01*
X0102978Y0029779D02*
X0095558Y0029779D01*
X0095081Y0029181D02*
X0102564Y0029181D01*
X0102564Y0028582D02*
X0094482Y0028582D01*
X0092856Y0028582D02*
X0086863Y0028582D01*
X0087905Y0027984D02*
X0102564Y0027984D01*
X0102978Y0027385D02*
X0088946Y0027385D01*
X0089988Y0026787D02*
X0103577Y0026787D01*
X0106342Y0029181D02*
X0110209Y0029181D01*
X0109611Y0029779D02*
X0105927Y0029779D01*
X0105328Y0030378D02*
X0109179Y0030378D01*
X0109179Y0031575D02*
X0095206Y0031575D01*
X0094608Y0032173D02*
X0109576Y0032173D01*
X0110174Y0032772D02*
X0092894Y0032772D01*
X0092295Y0033370D02*
X0116141Y0033370D01*
X0116297Y0033214D02*
X0117862Y0033214D01*
X0118968Y0034321D01*
X0118968Y0035886D01*
X0117862Y0036992D01*
X0116916Y0036992D01*
X0117079Y0037155D01*
X0117079Y0038720D01*
X0115973Y0039827D01*
X0114408Y0039827D01*
X0113301Y0038720D01*
X0113301Y0037155D01*
X0114408Y0036049D01*
X0115353Y0036049D01*
X0115190Y0035886D01*
X0115190Y0034321D01*
X0116297Y0033214D01*
X0115542Y0033969D02*
X0091697Y0033969D01*
X0091098Y0034567D02*
X0115190Y0034567D01*
X0115190Y0035166D02*
X0090500Y0035166D01*
X0089901Y0035764D02*
X0110423Y0035764D01*
X0109824Y0036363D02*
X0089302Y0036363D01*
X0088704Y0036961D02*
X0109387Y0036961D01*
X0109387Y0037560D02*
X0088105Y0037560D01*
X0087507Y0038159D02*
X0109144Y0038159D01*
X0108546Y0038757D02*
X0087358Y0038757D01*
X0087358Y0039356D02*
X0107947Y0039356D01*
X0107349Y0039954D02*
X0087358Y0039954D01*
X0087358Y0040553D02*
X0106750Y0040553D01*
X0106152Y0041151D02*
X0087358Y0041151D01*
X0087358Y0041750D02*
X0105553Y0041750D01*
X0104955Y0042348D02*
X0087358Y0042348D01*
X0087358Y0042947D02*
X0104356Y0042947D01*
X0103758Y0043545D02*
X0087358Y0043545D01*
X0087358Y0044144D02*
X0103159Y0044144D01*
X0102561Y0044742D02*
X0087358Y0044742D01*
X0087358Y0045341D02*
X0101962Y0045341D01*
X0101364Y0045939D02*
X0087358Y0045939D01*
X0087358Y0046538D02*
X0100765Y0046538D01*
X0100167Y0047136D02*
X0087358Y0047136D01*
X0087358Y0047735D02*
X0099568Y0047735D01*
X0098970Y0048333D02*
X0087358Y0048333D01*
X0087358Y0048932D02*
X0098371Y0048932D01*
X0097773Y0049530D02*
X0087358Y0049530D01*
X0087358Y0050129D02*
X0097174Y0050129D01*
X0096576Y0050727D02*
X0087358Y0050727D01*
X0087358Y0051326D02*
X0095977Y0051326D01*
X0095379Y0051924D02*
X0087358Y0051924D01*
X0087358Y0052523D02*
X0094780Y0052523D01*
X0094182Y0053121D02*
X0087358Y0053121D01*
X0087358Y0053720D02*
X0093583Y0053720D01*
X0092985Y0054318D02*
X0087358Y0054318D01*
X0087358Y0054917D02*
X0092386Y0054917D01*
X0091788Y0055515D02*
X0087358Y0055515D01*
X0087358Y0056114D02*
X0091189Y0056114D01*
X0090591Y0056712D02*
X0087358Y0056712D01*
X0087358Y0057311D02*
X0089992Y0057311D01*
X0089394Y0057909D02*
X0087358Y0057909D01*
X0087358Y0058508D02*
X0088795Y0058508D01*
X0088197Y0059106D02*
X0087358Y0059106D01*
X0087358Y0059705D02*
X0087598Y0059705D01*
X0087358Y0061500D02*
X0111276Y0037583D01*
X0111508Y0037351D01*
X0112727Y0036363D02*
X0114093Y0036363D01*
X0113495Y0036961D02*
X0113165Y0036961D01*
X0113165Y0037560D02*
X0113301Y0037560D01*
X0113301Y0038159D02*
X0113165Y0038159D01*
X0113338Y0038757D02*
X0112773Y0038757D01*
X0112174Y0039356D02*
X0113937Y0039356D01*
X0116444Y0039356D02*
X0123526Y0039356D01*
X0123166Y0038996D02*
X0123166Y0037431D01*
X0124273Y0036325D01*
X0125838Y0036325D01*
X0126944Y0037431D01*
X0126944Y0038996D01*
X0125838Y0040103D01*
X0124273Y0040103D01*
X0123166Y0038996D01*
X0123166Y0038757D02*
X0117042Y0038757D01*
X0117079Y0038159D02*
X0123166Y0038159D01*
X0123166Y0037560D02*
X0117079Y0037560D01*
X0117892Y0036961D02*
X0123636Y0036961D01*
X0124234Y0036363D02*
X0118491Y0036363D01*
X0118968Y0035764D02*
X0131005Y0035764D01*
X0130407Y0035166D02*
X0118968Y0035166D01*
X0118968Y0034567D02*
X0129808Y0034567D01*
X0129210Y0033969D02*
X0118616Y0033969D01*
X0118018Y0033370D02*
X0128611Y0033370D01*
X0128012Y0032772D02*
X0111961Y0032772D01*
X0112559Y0032173D02*
X0127414Y0032173D01*
X0125767Y0033651D02*
X0125767Y0034842D01*
X0125876Y0036363D02*
X0131604Y0036363D01*
X0132202Y0036961D02*
X0126474Y0036961D01*
X0126944Y0037560D02*
X0132801Y0037560D01*
X0133399Y0038159D02*
X0126944Y0038159D01*
X0126944Y0038757D02*
X0133998Y0038757D01*
X0134596Y0039356D02*
X0126585Y0039356D01*
X0125986Y0039954D02*
X0135195Y0039954D01*
X0135793Y0040553D02*
X0109862Y0040553D01*
X0109263Y0041151D02*
X0136392Y0041151D01*
X0136980Y0041750D02*
X0108665Y0041750D01*
X0110460Y0039954D02*
X0124124Y0039954D01*
X0125055Y0038214D02*
X0124731Y0037890D01*
X0128730Y0030378D02*
X0128919Y0030378D01*
X0129273Y0029779D02*
X0112525Y0029779D01*
X0111926Y0029181D02*
X0129872Y0029181D01*
X0143681Y0025631D02*
X0175733Y0057683D01*
X0175733Y0171752D01*
X0165218Y0182267D01*
X0033756Y0182267D01*
X0023587Y0172097D01*
X0023587Y0124982D01*
X0045946Y0102623D01*
X0055896Y0102623D01*
X0062774Y0095746D01*
X0062819Y0038679D01*
X0090114Y0023615D01*
X0144159Y0023605D01*
X0178081Y0057527D01*
X0178081Y0171904D01*
X0165575Y0184411D01*
X0032906Y0184411D01*
X0021122Y0172626D01*
X0021122Y0124668D01*
X0045172Y0100618D01*
X0055130Y0100618D01*
X0060811Y0094937D01*
X0060834Y0037865D01*
X0090714Y0021280D01*
X0144153Y0021328D01*
X0180947Y0058121D01*
X0180947Y0172162D01*
X0165924Y0187184D01*
X0032037Y0187184D01*
X0018424Y0173591D01*
X0018407Y0124047D01*
X0044031Y0098457D01*
X0054234Y0098429D01*
X0058596Y0094050D01*
X0058643Y0037037D01*
X0090938Y0019105D01*
X0144874Y0019105D01*
X0183768Y0057999D01*
X0183768Y0172802D01*
X0166852Y0189718D01*
X0031280Y0189718D01*
X0015618Y0174055D01*
X0015618Y0123632D01*
X0042813Y0096437D01*
X0053635Y0096437D01*
X0056429Y0093643D01*
X0056429Y0036351D01*
X0090002Y0017304D01*
X0099292Y0017304D01*
X0101298Y0015299D01*
X0092258Y0029181D02*
X0085821Y0029181D01*
X0084779Y0029779D02*
X0091780Y0029779D01*
X0091780Y0030378D02*
X0083737Y0030378D01*
X0082695Y0030976D02*
X0091578Y0030976D01*
X0090979Y0031575D02*
X0081654Y0031575D01*
X0080612Y0032173D02*
X0090381Y0032173D01*
X0089782Y0032772D02*
X0079574Y0032772D01*
X0078668Y0033370D02*
X0089184Y0033370D01*
X0088585Y0033969D02*
X0082022Y0033969D01*
X0082621Y0034567D02*
X0087987Y0034567D01*
X0087388Y0035166D02*
X0082685Y0035166D01*
X0082702Y0035764D02*
X0086790Y0035764D01*
X0086191Y0036363D02*
X0085085Y0036363D01*
X0084052Y0036885D02*
X0082267Y0036885D01*
X0080796Y0035414D01*
X0079570Y0033969D02*
X0077762Y0033969D01*
X0076856Y0034567D02*
X0078971Y0034567D01*
X0078907Y0035166D02*
X0075950Y0035166D01*
X0075044Y0035764D02*
X0078907Y0035764D01*
X0079073Y0036363D02*
X0074138Y0036363D01*
X0073232Y0036961D02*
X0079672Y0036961D01*
X0081386Y0037560D02*
X0072326Y0037560D01*
X0071420Y0038159D02*
X0081380Y0038159D01*
X0080148Y0038757D02*
X0070514Y0038757D01*
X0070932Y0039356D02*
X0079549Y0039356D01*
X0079208Y0039954D02*
X0071330Y0039954D01*
X0071330Y0040553D02*
X0079208Y0040553D01*
X0079208Y0041151D02*
X0071330Y0041151D01*
X0070898Y0041750D02*
X0079545Y0041750D01*
X0079545Y0042348D02*
X0070300Y0042348D01*
X0068582Y0042348D02*
X0066039Y0042348D01*
X0066039Y0041750D02*
X0067983Y0041750D01*
X0067552Y0041151D02*
X0066889Y0041151D01*
X0066039Y0042947D02*
X0079545Y0042947D01*
X0079545Y0043545D02*
X0066039Y0043545D01*
X0066039Y0044144D02*
X0079545Y0044144D01*
X0079545Y0044742D02*
X0066039Y0044742D01*
X0066039Y0045341D02*
X0079545Y0045341D01*
X0079545Y0045939D02*
X0066039Y0045939D01*
X0066039Y0046538D02*
X0079545Y0046538D01*
X0079545Y0047136D02*
X0066039Y0047136D01*
X0066039Y0047735D02*
X0079545Y0047735D01*
X0079545Y0048333D02*
X0066039Y0048333D01*
X0066039Y0048932D02*
X0079545Y0048932D01*
X0079545Y0049530D02*
X0068993Y0049530D01*
X0069592Y0050129D02*
X0079545Y0050129D01*
X0079545Y0050727D02*
X0069779Y0050727D01*
X0069779Y0051326D02*
X0079545Y0051326D01*
X0077817Y0051924D02*
X0075127Y0051924D01*
X0075726Y0052523D02*
X0077219Y0052523D01*
X0076867Y0053121D02*
X0076039Y0053121D01*
X0076039Y0053720D02*
X0076867Y0053720D01*
X0076539Y0054318D02*
X0076039Y0054318D01*
X0075941Y0054917D02*
X0075522Y0054917D01*
X0075342Y0055515D02*
X0075250Y0055515D01*
X0075250Y0057163D02*
X0075250Y0089233D01*
X0047033Y0117450D01*
X0047033Y0123507D01*
X0057033Y0123507D02*
X0057033Y0109006D01*
X0080645Y0085394D01*
X0080645Y0040931D01*
X0081097Y0040479D01*
X0084052Y0036885D02*
X0085158Y0037992D01*
X0085158Y0089100D01*
X0067033Y0107226D01*
X0067033Y0123507D01*
X0068869Y0120155D02*
X0075197Y0120155D01*
X0075933Y0119556D02*
X0068133Y0119556D01*
X0068133Y0118958D02*
X0075933Y0118958D01*
X0075933Y0118359D02*
X0068133Y0118359D01*
X0068133Y0117761D02*
X0075933Y0117761D01*
X0075933Y0117162D02*
X0068133Y0117162D01*
X0068133Y0116563D02*
X0075933Y0116563D01*
X0075933Y0115965D02*
X0068133Y0115965D01*
X0068133Y0115366D02*
X0075933Y0115366D01*
X0075933Y0114768D02*
X0068133Y0114768D01*
X0068133Y0114169D02*
X0075933Y0114169D01*
X0075933Y0113571D02*
X0068133Y0113571D01*
X0068133Y0112972D02*
X0075933Y0112972D01*
X0075933Y0112374D02*
X0068133Y0112374D01*
X0068133Y0111775D02*
X0075933Y0111775D01*
X0075933Y0111177D02*
X0068133Y0111177D01*
X0068133Y0110578D02*
X0075933Y0110578D01*
X0075933Y0109980D02*
X0068133Y0109980D01*
X0068133Y0109381D02*
X0075933Y0109381D01*
X0075933Y0108783D02*
X0068133Y0108783D01*
X0068133Y0108184D02*
X0075933Y0108184D01*
X0075933Y0107586D02*
X0068228Y0107586D01*
X0068827Y0106987D02*
X0075933Y0106987D01*
X0075933Y0106389D02*
X0069425Y0106389D01*
X0070024Y0105790D02*
X0075933Y0105790D01*
X0075933Y0105192D02*
X0070622Y0105192D01*
X0071221Y0104593D02*
X0075933Y0104593D01*
X0075933Y0103995D02*
X0071819Y0103995D01*
X0072418Y0103396D02*
X0075933Y0103396D01*
X0075933Y0102798D02*
X0073016Y0102798D01*
X0073615Y0102199D02*
X0075933Y0102199D01*
X0075933Y0101601D02*
X0074213Y0101601D01*
X0074812Y0101002D02*
X0075933Y0101002D01*
X0075933Y0100404D02*
X0075410Y0100404D01*
X0077033Y0098781D02*
X0086258Y0089556D01*
X0086258Y0037852D01*
X0093669Y0030441D01*
X0090021Y0030194D02*
X0089596Y0030450D01*
X0077559Y0036762D02*
X0077230Y0036703D01*
X0066786Y0049530D02*
X0066039Y0049530D01*
X0066039Y0050129D02*
X0066188Y0050129D01*
X0066045Y0051924D02*
X0066039Y0051924D01*
X0066039Y0052523D02*
X0066643Y0052523D01*
X0066039Y0053121D02*
X0072261Y0053121D01*
X0072261Y0053720D02*
X0068907Y0053720D01*
X0069505Y0054318D02*
X0072261Y0054318D01*
X0072777Y0054917D02*
X0069804Y0054917D01*
X0069804Y0055515D02*
X0073050Y0055515D01*
X0073050Y0056114D02*
X0069804Y0056114D01*
X0069273Y0056712D02*
X0073050Y0056712D01*
X0073050Y0057311D02*
X0066039Y0057311D01*
X0066039Y0057909D02*
X0073050Y0057909D01*
X0073050Y0058508D02*
X0066039Y0058508D01*
X0066039Y0059106D02*
X0073050Y0059106D01*
X0073050Y0059705D02*
X0066039Y0059705D01*
X0066039Y0060303D02*
X0073050Y0060303D01*
X0073050Y0060902D02*
X0066039Y0060902D01*
X0066039Y0061500D02*
X0073050Y0061500D01*
X0073050Y0062099D02*
X0066039Y0062099D01*
X0066039Y0062697D02*
X0073050Y0062697D01*
X0073050Y0063296D02*
X0066039Y0063296D01*
X0066039Y0063894D02*
X0073050Y0063894D01*
X0073050Y0064493D02*
X0066039Y0064493D01*
X0066039Y0065092D02*
X0073050Y0065092D01*
X0073050Y0065690D02*
X0066039Y0065690D01*
X0066039Y0066289D02*
X0073050Y0066289D01*
X0073050Y0066887D02*
X0066039Y0066887D01*
X0066039Y0067486D02*
X0073050Y0067486D01*
X0073050Y0068084D02*
X0066039Y0068084D01*
X0066039Y0068683D02*
X0073050Y0068683D01*
X0073050Y0069281D02*
X0066039Y0069281D01*
X0066039Y0069880D02*
X0073050Y0069880D01*
X0073050Y0070478D02*
X0066039Y0070478D01*
X0066039Y0071077D02*
X0073050Y0071077D01*
X0073050Y0071675D02*
X0066039Y0071675D01*
X0066039Y0072274D02*
X0073050Y0072274D01*
X0073050Y0072872D02*
X0068463Y0072872D01*
X0069061Y0073471D02*
X0073050Y0073471D01*
X0073050Y0074069D02*
X0069232Y0074069D01*
X0069232Y0074668D02*
X0073050Y0074668D01*
X0073050Y0075266D02*
X0069173Y0075266D01*
X0068574Y0075865D02*
X0073050Y0075865D01*
X0073050Y0076463D02*
X0066039Y0076463D01*
X0066039Y0075865D02*
X0066113Y0075865D01*
X0066039Y0077062D02*
X0073050Y0077062D01*
X0073050Y0077660D02*
X0066039Y0077660D01*
X0066039Y0078259D02*
X0073050Y0078259D01*
X0073050Y0078857D02*
X0066039Y0078857D01*
X0066039Y0079456D02*
X0073050Y0079456D01*
X0073050Y0080054D02*
X0066039Y0080054D01*
X0066039Y0080653D02*
X0073050Y0080653D01*
X0073050Y0081251D02*
X0066039Y0081251D01*
X0066039Y0081850D02*
X0073050Y0081850D01*
X0073050Y0082448D02*
X0066039Y0082448D01*
X0066039Y0083047D02*
X0073050Y0083047D01*
X0073050Y0083645D02*
X0066039Y0083645D01*
X0066039Y0084244D02*
X0073050Y0084244D01*
X0073050Y0084842D02*
X0066039Y0084842D01*
X0066039Y0085441D02*
X0073050Y0085441D01*
X0073050Y0086039D02*
X0066039Y0086039D01*
X0066039Y0086638D02*
X0073050Y0086638D01*
X0073050Y0087236D02*
X0066039Y0087236D01*
X0066039Y0087835D02*
X0073050Y0087835D01*
X0072938Y0088433D02*
X0066039Y0088433D01*
X0066039Y0089032D02*
X0072340Y0089032D01*
X0071741Y0089630D02*
X0066039Y0089630D01*
X0066039Y0090229D02*
X0071143Y0090229D01*
X0070544Y0090827D02*
X0066039Y0090827D01*
X0066039Y0091426D02*
X0069946Y0091426D01*
X0069347Y0092025D02*
X0066039Y0092025D01*
X0066039Y0092623D02*
X0068749Y0092623D01*
X0068150Y0093222D02*
X0066039Y0093222D01*
X0066039Y0093820D02*
X0067552Y0093820D01*
X0066953Y0094419D02*
X0066039Y0094419D01*
X0066039Y0095017D02*
X0066355Y0095017D01*
X0074150Y0088778D02*
X0074150Y0053618D01*
X0072573Y0052523D02*
X0069137Y0052523D01*
X0069735Y0051924D02*
X0073172Y0051924D01*
X0075250Y0057163D02*
X0078756Y0053657D01*
X0087358Y0061500D02*
X0087358Y0090011D01*
X0087033Y0090337D01*
X0087033Y0123507D01*
X0084413Y0120753D02*
X0079653Y0120753D01*
X0080251Y0121352D02*
X0083814Y0121352D01*
X0083565Y0121950D02*
X0080501Y0121950D01*
X0080749Y0122549D02*
X0083317Y0122549D01*
X0083233Y0123147D02*
X0080833Y0123147D01*
X0080833Y0123746D02*
X0083233Y0123746D01*
X0083266Y0124344D02*
X0080799Y0124344D01*
X0080551Y0124943D02*
X0083514Y0124943D01*
X0083762Y0125541D02*
X0080303Y0125541D01*
X0079774Y0126140D02*
X0084291Y0126140D01*
X0084903Y0126738D02*
X0079162Y0126738D01*
X0077033Y0123507D02*
X0077033Y0098781D01*
X0078163Y0099207D02*
X0085933Y0099207D01*
X0085933Y0099805D02*
X0078133Y0099805D01*
X0078133Y0100404D02*
X0085933Y0100404D01*
X0085933Y0101002D02*
X0078133Y0101002D01*
X0078133Y0101601D02*
X0085933Y0101601D01*
X0085933Y0102199D02*
X0078133Y0102199D01*
X0078133Y0102798D02*
X0085933Y0102798D01*
X0085933Y0103396D02*
X0078133Y0103396D01*
X0078133Y0103995D02*
X0085933Y0103995D01*
X0085933Y0104593D02*
X0078133Y0104593D01*
X0078133Y0105192D02*
X0085933Y0105192D01*
X0085933Y0105790D02*
X0078133Y0105790D01*
X0078133Y0106389D02*
X0085933Y0106389D01*
X0085933Y0106987D02*
X0078133Y0106987D01*
X0078133Y0107586D02*
X0085933Y0107586D01*
X0085933Y0108184D02*
X0078133Y0108184D01*
X0078133Y0108783D02*
X0085933Y0108783D01*
X0085933Y0109381D02*
X0078133Y0109381D01*
X0078133Y0109980D02*
X0085933Y0109980D01*
X0085933Y0110578D02*
X0078133Y0110578D01*
X0078133Y0111177D02*
X0085933Y0111177D01*
X0085933Y0111775D02*
X0078133Y0111775D01*
X0078133Y0112374D02*
X0085933Y0112374D01*
X0085933Y0112972D02*
X0078133Y0112972D01*
X0078133Y0113571D02*
X0085933Y0113571D01*
X0085933Y0114169D02*
X0078133Y0114169D01*
X0078133Y0114768D02*
X0085933Y0114768D01*
X0085933Y0115366D02*
X0078133Y0115366D01*
X0078133Y0115965D02*
X0085933Y0115965D01*
X0085933Y0116563D02*
X0078133Y0116563D01*
X0078133Y0117162D02*
X0085933Y0117162D01*
X0085933Y0117761D02*
X0078133Y0117761D01*
X0078133Y0118359D02*
X0085933Y0118359D01*
X0085933Y0118958D02*
X0078133Y0118958D01*
X0078133Y0119556D02*
X0085933Y0119556D01*
X0085197Y0120155D02*
X0078869Y0120155D01*
X0074413Y0120753D02*
X0069653Y0120753D01*
X0070251Y0121352D02*
X0073814Y0121352D01*
X0073565Y0121950D02*
X0070501Y0121950D01*
X0070749Y0122549D02*
X0073317Y0122549D01*
X0073233Y0123147D02*
X0070833Y0123147D01*
X0070833Y0123746D02*
X0073233Y0123746D01*
X0073266Y0124344D02*
X0070799Y0124344D01*
X0070551Y0124943D02*
X0073514Y0124943D01*
X0073762Y0125541D02*
X0070303Y0125541D01*
X0069774Y0126140D02*
X0074291Y0126140D01*
X0074903Y0126738D02*
X0069162Y0126738D01*
X0089162Y0126738D02*
X0094903Y0126738D01*
X0094880Y0126729D02*
X0093811Y0125660D01*
X0093233Y0124263D01*
X0093233Y0122751D01*
X0093811Y0121355D01*
X0094880Y0120286D01*
X0096277Y0119707D01*
X0097789Y0119707D01*
X0099185Y0120286D01*
X0100254Y0121355D01*
X0100833Y0122751D01*
X0100833Y0124263D01*
X0100254Y0125660D01*
X0099185Y0126729D01*
X0097789Y0127307D01*
X0096277Y0127307D01*
X0094880Y0126729D01*
X0094291Y0126140D02*
X0089774Y0126140D01*
X0090303Y0125541D02*
X0093762Y0125541D01*
X0093514Y0124943D02*
X0090551Y0124943D01*
X0090799Y0124344D02*
X0093266Y0124344D01*
X0093233Y0123746D02*
X0090833Y0123746D01*
X0090833Y0123147D02*
X0093233Y0123147D01*
X0093317Y0122549D02*
X0090749Y0122549D01*
X0090501Y0121950D02*
X0093565Y0121950D01*
X0093814Y0121352D02*
X0090251Y0121352D01*
X0089653Y0120753D02*
X0094413Y0120753D01*
X0095197Y0120155D02*
X0088869Y0120155D01*
X0098869Y0120155D02*
X0105197Y0120155D01*
X0104880Y0120286D02*
X0106277Y0119707D01*
X0107789Y0119707D01*
X0109185Y0120286D01*
X0110254Y0121355D01*
X0110833Y0122751D01*
X0110833Y0124263D01*
X0110254Y0125660D01*
X0109185Y0126729D01*
X0107789Y0127307D01*
X0106277Y0127307D01*
X0104880Y0126729D01*
X0103811Y0125660D01*
X0103233Y0124263D01*
X0103233Y0122751D01*
X0103811Y0121355D01*
X0104880Y0120286D01*
X0104413Y0120753D02*
X0099653Y0120753D01*
X0100251Y0121352D02*
X0103814Y0121352D01*
X0103565Y0121950D02*
X0100501Y0121950D01*
X0100749Y0122549D02*
X0103317Y0122549D01*
X0103233Y0123147D02*
X0100833Y0123147D01*
X0100833Y0123746D02*
X0103233Y0123746D01*
X0103266Y0124344D02*
X0100799Y0124344D01*
X0100551Y0124943D02*
X0103514Y0124943D01*
X0103762Y0125541D02*
X0100303Y0125541D01*
X0099774Y0126140D02*
X0104291Y0126140D01*
X0104903Y0126738D02*
X0099162Y0126738D01*
X0109162Y0126738D02*
X0114903Y0126738D01*
X0114880Y0126729D02*
X0113811Y0125660D01*
X0113233Y0124263D01*
X0113233Y0122751D01*
X0113811Y0121355D01*
X0114880Y0120286D01*
X0116277Y0119707D01*
X0117789Y0119707D01*
X0119185Y0120286D01*
X0120254Y0121355D01*
X0120833Y0122751D01*
X0120833Y0124263D01*
X0120254Y0125660D01*
X0119185Y0126729D01*
X0117789Y0127307D01*
X0116277Y0127307D01*
X0114880Y0126729D01*
X0114291Y0126140D02*
X0109774Y0126140D01*
X0110303Y0125541D02*
X0113762Y0125541D01*
X0113514Y0124943D02*
X0110551Y0124943D01*
X0110799Y0124344D02*
X0113266Y0124344D01*
X0113233Y0123746D02*
X0110833Y0123746D01*
X0110833Y0123147D02*
X0113233Y0123147D01*
X0113317Y0122549D02*
X0110749Y0122549D01*
X0110501Y0121950D02*
X0113565Y0121950D01*
X0113814Y0121352D02*
X0110251Y0121352D01*
X0109653Y0120753D02*
X0114413Y0120753D01*
X0115197Y0120155D02*
X0108869Y0120155D01*
X0118869Y0120155D02*
X0125197Y0120155D01*
X0124880Y0120286D02*
X0126277Y0119707D01*
X0127789Y0119707D01*
X0129185Y0120286D01*
X0130254Y0121355D01*
X0130833Y0122751D01*
X0130833Y0124263D01*
X0130254Y0125660D01*
X0129185Y0126729D01*
X0127789Y0127307D01*
X0126277Y0127307D01*
X0124880Y0126729D01*
X0123811Y0125660D01*
X0123233Y0124263D01*
X0123233Y0122751D01*
X0123811Y0121355D01*
X0124880Y0120286D01*
X0124413Y0120753D02*
X0119653Y0120753D01*
X0120251Y0121352D02*
X0123814Y0121352D01*
X0123565Y0121950D02*
X0120501Y0121950D01*
X0120749Y0122549D02*
X0123317Y0122549D01*
X0123233Y0123147D02*
X0120833Y0123147D01*
X0120833Y0123746D02*
X0123233Y0123746D01*
X0123266Y0124344D02*
X0120799Y0124344D01*
X0120551Y0124943D02*
X0123514Y0124943D01*
X0123762Y0125541D02*
X0120303Y0125541D01*
X0119774Y0126140D02*
X0124291Y0126140D01*
X0124903Y0126738D02*
X0119162Y0126738D01*
X0129162Y0126738D02*
X0134903Y0126738D01*
X0134880Y0126729D02*
X0133811Y0125660D01*
X0133233Y0124263D01*
X0133233Y0122751D01*
X0133811Y0121355D01*
X0134880Y0120286D01*
X0136277Y0119707D01*
X0137789Y0119707D01*
X0139185Y0120286D01*
X0140254Y0121355D01*
X0140833Y0122751D01*
X0140833Y0124263D01*
X0140254Y0125660D01*
X0139185Y0126729D01*
X0137789Y0127307D01*
X0136277Y0127307D01*
X0134880Y0126729D01*
X0134291Y0126140D02*
X0129774Y0126140D01*
X0130303Y0125541D02*
X0133762Y0125541D01*
X0133514Y0124943D02*
X0130551Y0124943D01*
X0130799Y0124344D02*
X0133266Y0124344D01*
X0133233Y0123746D02*
X0130833Y0123746D01*
X0130833Y0123147D02*
X0133233Y0123147D01*
X0133317Y0122549D02*
X0130749Y0122549D01*
X0130501Y0121950D02*
X0133565Y0121950D01*
X0133814Y0121352D02*
X0130251Y0121352D01*
X0129653Y0120753D02*
X0134413Y0120753D01*
X0135197Y0120155D02*
X0128869Y0120155D01*
X0138869Y0120155D02*
X0145197Y0120155D01*
X0144413Y0120753D02*
X0139653Y0120753D01*
X0140251Y0121352D02*
X0143814Y0121352D01*
X0143565Y0121950D02*
X0140501Y0121950D01*
X0140749Y0122549D02*
X0143317Y0122549D01*
X0143233Y0123147D02*
X0140833Y0123147D01*
X0140833Y0123746D02*
X0143233Y0123746D01*
X0143266Y0124344D02*
X0140799Y0124344D01*
X0140551Y0124943D02*
X0143514Y0124943D01*
X0143762Y0125541D02*
X0140303Y0125541D01*
X0139774Y0126140D02*
X0144291Y0126140D01*
X0144903Y0126738D02*
X0139162Y0126738D01*
X0156906Y0135716D02*
X0157505Y0135716D01*
X0157505Y0136314D02*
X0156906Y0136314D01*
X0156906Y0136913D02*
X0157505Y0136913D01*
X0157505Y0137511D02*
X0156906Y0137511D01*
X0156906Y0138110D02*
X0157505Y0138110D01*
X0164690Y0090229D02*
X0138146Y0090229D01*
X0138744Y0089630D02*
X0165289Y0089630D01*
X0158294Y0079261D02*
X0157896Y0078768D01*
X0138147Y0084244D02*
X0098086Y0084244D01*
X0097488Y0084842D02*
X0138147Y0084842D01*
X0138147Y0085441D02*
X0094896Y0085441D01*
X0095398Y0084842D02*
X0094297Y0084842D01*
X0094799Y0084244D02*
X0093699Y0084244D01*
X0093100Y0083645D02*
X0094554Y0083645D01*
X0094554Y0083047D02*
X0092502Y0083047D01*
X0091065Y0082448D02*
X0094554Y0082448D01*
X0095137Y0081850D02*
X0090466Y0081850D01*
X0088857Y0081850D02*
X0088458Y0081850D01*
X0089661Y0083716D02*
X0090137Y0084192D01*
X0090608Y0085441D02*
X0091519Y0085441D01*
X0092118Y0086039D02*
X0088458Y0086039D01*
X0088458Y0085441D02*
X0088714Y0085441D01*
X0088458Y0086638D02*
X0092716Y0086638D01*
X0093315Y0087236D02*
X0088458Y0087236D01*
X0088458Y0087835D02*
X0093913Y0087835D01*
X0094512Y0088433D02*
X0088458Y0088433D01*
X0088458Y0089032D02*
X0095007Y0089032D01*
X0095007Y0089630D02*
X0088458Y0089630D01*
X0088458Y0090229D02*
X0095324Y0090229D01*
X0095923Y0090827D02*
X0088133Y0090827D01*
X0085933Y0092025D02*
X0085345Y0092025D01*
X0085933Y0092623D02*
X0084747Y0092623D01*
X0084148Y0093222D02*
X0085933Y0093222D01*
X0085933Y0093820D02*
X0083550Y0093820D01*
X0082951Y0094419D02*
X0085933Y0094419D01*
X0085933Y0095017D02*
X0082353Y0095017D01*
X0081754Y0095616D02*
X0085933Y0095616D01*
X0085933Y0096214D02*
X0081156Y0096214D01*
X0080557Y0096813D02*
X0085933Y0096813D01*
X0085933Y0097411D02*
X0079959Y0097411D01*
X0079360Y0098010D02*
X0085933Y0098010D01*
X0085933Y0098608D02*
X0078762Y0098608D01*
X0074150Y0088778D02*
X0057061Y0105867D01*
X0054673Y0105867D01*
X0037033Y0123507D01*
X0066039Y0072872D02*
X0066224Y0072872D01*
X0066039Y0056712D02*
X0066557Y0056712D01*
X0066324Y0054318D02*
X0066039Y0054318D01*
X0066039Y0053720D02*
X0066923Y0053720D01*
X0095494Y0086039D02*
X0133887Y0086039D01*
X0133288Y0086638D02*
X0096093Y0086638D01*
X0096691Y0087236D02*
X0133090Y0087236D01*
X0133090Y0087835D02*
X0098273Y0087835D01*
X0118771Y0082281D02*
X0119150Y0081759D01*
X0120533Y0083047D02*
X0122853Y0083047D01*
X0122254Y0082448D02*
X0121039Y0082448D01*
X0121039Y0081850D02*
X0122166Y0081850D01*
X0122166Y0081251D02*
X0122052Y0081251D01*
X0121527Y0079923D02*
X0121118Y0079514D01*
X0123007Y0079456D02*
X0124464Y0079456D01*
X0124525Y0078857D02*
X0123007Y0078857D01*
X0122535Y0078259D02*
X0125123Y0078259D01*
X0125135Y0077660D02*
X0121936Y0077660D01*
X0136071Y0086039D02*
X0138108Y0086039D01*
X0137510Y0086638D02*
X0136670Y0086638D01*
X0136868Y0087236D02*
X0137358Y0087236D01*
X0137358Y0087835D02*
X0136868Y0087835D01*
X0150143Y0059122D02*
X0151473Y0059122D01*
X0115190Y0035764D02*
X0112128Y0035764D01*
X0106778Y0031239D02*
X0106803Y0030827D01*
D14*
X0166428Y0096473D02*
X0166285Y0097592D01*
D15*
X0096896Y0089130D02*
X0091483Y0083716D01*
X0089661Y0083716D01*
M02*
