G75*
%MOIN*%
%OFA0B0*%
%FSLAX25Y25*%
%IPPOS*%
%LPD*%
%AMOC8*
5,1,8,0,0,1.08239X$1,22.5*
%
%ADD10R,0.07587X0.04437*%
%ADD11R,0.01484X0.02272*%
%ADD12R,0.03256X0.04043*%
%ADD13R,0.04043X0.03256*%
%ADD14R,0.02272X0.01563*%
%ADD15R,0.01563X0.02272*%
%ADD16R,0.04831X0.04437*%
%ADD17R,0.03650X0.03650*%
%ADD18R,0.20776X0.20776*%
%ADD19C,0.01681*%
%ADD20R,0.04437X0.04831*%
%ADD21R,1.93413X0.20185*%
%ADD22R,1.93413X0.10343*%
%ADD23R,0.06012X0.05028*%
%ADD24R,0.04437X0.04437*%
%ADD25C,0.03478*%
%ADD26R,0.02154X0.07508*%
%ADD27R,0.03650X0.11130*%
%ADD28R,0.05224X0.03650*%
%ADD29R,0.03846X0.01406*%
%ADD30R,0.04437X0.01406*%
%ADD31R,0.05933X0.07587*%
%ADD32R,0.08374X0.07193*%
%ADD33C,0.02678*%
%ADD34C,0.02300*%
D10*
X0066001Y0059917D03*
X0066001Y0069760D03*
D11*
X0099309Y0068893D03*
X0101277Y0068893D03*
X0103246Y0068893D03*
X0103246Y0072043D03*
X0101277Y0072043D03*
X0099309Y0072043D03*
D12*
X0078954Y0069838D03*
X0073836Y0069838D03*
X0077183Y0049720D03*
X0082301Y0049720D03*
X0082261Y0044602D03*
X0077143Y0044602D03*
X0070175Y0044563D03*
X0065057Y0044563D03*
X0087104Y0036059D03*
X0092222Y0036059D03*
X0099466Y0035941D03*
X0104584Y0035941D03*
X0101513Y0046019D03*
X0101395Y0050783D03*
X0096277Y0050783D03*
X0096395Y0046019D03*
X0131442Y0042142D03*
X0136560Y0042142D03*
X0147703Y0064811D03*
X0147614Y0069125D03*
X0152732Y0069125D03*
X0152822Y0064811D03*
D13*
X0135163Y0077600D03*
X0135163Y0082718D03*
X0123970Y0092837D03*
X0119662Y0092776D03*
X0115453Y0092791D03*
X0115453Y0097910D03*
X0119662Y0097894D03*
X0123970Y0097955D03*
X0095063Y0074048D03*
X0095063Y0068929D03*
X0073482Y0063657D03*
X0073482Y0058539D03*
D14*
X0074722Y0022653D03*
X0074722Y0020960D03*
X0074722Y0019267D03*
X0074722Y0017575D03*
X0074722Y0015882D03*
X0074722Y0014189D03*
X0074722Y0012496D03*
X0074722Y0010803D03*
X0065076Y0010803D03*
X0065076Y0012496D03*
X0065076Y0014189D03*
X0065076Y0015882D03*
X0065076Y0017575D03*
X0065076Y0019267D03*
X0065076Y0020960D03*
X0065076Y0022653D03*
D15*
X0067360Y0022535D03*
X0069053Y0022535D03*
X0070746Y0022535D03*
X0072438Y0022535D03*
X0072438Y0010921D03*
X0070746Y0010921D03*
X0069053Y0010921D03*
X0067360Y0010921D03*
D16*
X0123466Y0085079D03*
X0130159Y0085079D03*
D17*
X0139664Y0083116D03*
X0139664Y0077211D03*
X0101749Y0040980D03*
X0095844Y0040980D03*
X0089899Y0045389D03*
X0089899Y0051295D03*
D18*
X0120529Y0060744D03*
D19*
X0132930Y0061728D02*
X0132930Y0061728D01*
X0134506Y0061728D01*
X0134506Y0061728D01*
X0132930Y0061728D01*
X0132930Y0059760D02*
X0132930Y0059760D01*
X0134506Y0059760D01*
X0134506Y0059760D01*
X0132930Y0059760D01*
X0132930Y0057791D02*
X0132930Y0057791D01*
X0134506Y0057791D01*
X0134506Y0057791D01*
X0132930Y0057791D01*
X0132930Y0055823D02*
X0132930Y0055823D01*
X0134506Y0055823D01*
X0134506Y0055823D01*
X0132930Y0055823D01*
X0132930Y0053854D02*
X0132930Y0053854D01*
X0134506Y0053854D01*
X0134506Y0053854D01*
X0132930Y0053854D01*
X0132930Y0051886D02*
X0132930Y0051886D01*
X0134506Y0051886D01*
X0134506Y0051886D01*
X0132930Y0051886D01*
X0132930Y0049917D02*
X0132930Y0049917D01*
X0134506Y0049917D01*
X0134506Y0049917D01*
X0132930Y0049917D01*
X0131356Y0048343D02*
X0131356Y0048343D01*
X0131356Y0046767D01*
X0131356Y0046767D01*
X0131356Y0048343D01*
X0129387Y0048343D02*
X0129387Y0048343D01*
X0129387Y0046767D01*
X0129387Y0046767D01*
X0129387Y0048343D01*
X0127419Y0048343D02*
X0127419Y0048343D01*
X0127419Y0046767D01*
X0127419Y0046767D01*
X0127419Y0048343D01*
X0125450Y0048343D02*
X0125450Y0048343D01*
X0125450Y0046767D01*
X0125450Y0046767D01*
X0125450Y0048343D01*
X0123482Y0048343D02*
X0123482Y0048343D01*
X0123482Y0046767D01*
X0123482Y0046767D01*
X0123482Y0048343D01*
X0121513Y0048343D02*
X0121513Y0048343D01*
X0121513Y0046767D01*
X0121513Y0046767D01*
X0121513Y0048343D01*
X0119545Y0048343D02*
X0119545Y0048343D01*
X0119545Y0046767D01*
X0119545Y0046767D01*
X0119545Y0048343D01*
X0117576Y0048343D02*
X0117576Y0048343D01*
X0117576Y0046767D01*
X0117576Y0046767D01*
X0117576Y0048343D01*
X0115608Y0048343D02*
X0115608Y0048343D01*
X0115608Y0046767D01*
X0115608Y0046767D01*
X0115608Y0048343D01*
X0113639Y0048343D02*
X0113639Y0048343D01*
X0113639Y0046767D01*
X0113639Y0046767D01*
X0113639Y0048343D01*
X0111671Y0048343D02*
X0111671Y0048343D01*
X0111671Y0046767D01*
X0111671Y0046767D01*
X0111671Y0048343D01*
X0109702Y0048343D02*
X0109702Y0048343D01*
X0109702Y0046767D01*
X0109702Y0046767D01*
X0109702Y0048343D01*
X0108128Y0049917D02*
X0108128Y0049917D01*
X0106552Y0049917D01*
X0106552Y0049917D01*
X0108128Y0049917D01*
X0108128Y0051886D02*
X0108128Y0051886D01*
X0106552Y0051886D01*
X0106552Y0051886D01*
X0108128Y0051886D01*
X0108128Y0053854D02*
X0108128Y0053854D01*
X0106552Y0053854D01*
X0106552Y0053854D01*
X0108128Y0053854D01*
X0108128Y0055823D02*
X0108128Y0055823D01*
X0106552Y0055823D01*
X0106552Y0055823D01*
X0108128Y0055823D01*
X0108128Y0057791D02*
X0108128Y0057791D01*
X0106552Y0057791D01*
X0106552Y0057791D01*
X0108128Y0057791D01*
X0108128Y0059760D02*
X0108128Y0059760D01*
X0106552Y0059760D01*
X0106552Y0059760D01*
X0108128Y0059760D01*
X0108128Y0061728D02*
X0108128Y0061728D01*
X0106552Y0061728D01*
X0106552Y0061728D01*
X0108128Y0061728D01*
X0108128Y0063697D02*
X0108128Y0063697D01*
X0106552Y0063697D01*
X0106552Y0063697D01*
X0108128Y0063697D01*
X0108128Y0065665D02*
X0108128Y0065665D01*
X0106552Y0065665D01*
X0106552Y0065665D01*
X0108128Y0065665D01*
X0108128Y0067634D02*
X0108128Y0067634D01*
X0106552Y0067634D01*
X0106552Y0067634D01*
X0108128Y0067634D01*
X0108128Y0069602D02*
X0108128Y0069602D01*
X0106552Y0069602D01*
X0106552Y0069602D01*
X0108128Y0069602D01*
X0108128Y0071571D02*
X0108128Y0071571D01*
X0106552Y0071571D01*
X0106552Y0071571D01*
X0108128Y0071571D01*
X0109702Y0073145D02*
X0109702Y0073145D01*
X0109702Y0074721D01*
X0109702Y0074721D01*
X0109702Y0073145D01*
X0111671Y0073145D02*
X0111671Y0073145D01*
X0111671Y0074721D01*
X0111671Y0074721D01*
X0111671Y0073145D01*
X0113639Y0073145D02*
X0113639Y0073145D01*
X0113639Y0074721D01*
X0113639Y0074721D01*
X0113639Y0073145D01*
X0115608Y0073145D02*
X0115608Y0073145D01*
X0115608Y0074721D01*
X0115608Y0074721D01*
X0115608Y0073145D01*
X0117576Y0074721D02*
X0117576Y0074721D01*
X0117576Y0073145D01*
X0117576Y0073145D01*
X0117576Y0074721D01*
X0119545Y0074721D02*
X0119545Y0074721D01*
X0119545Y0073145D01*
X0119545Y0073145D01*
X0119545Y0074721D01*
X0121513Y0074721D02*
X0121513Y0074721D01*
X0121513Y0073145D01*
X0121513Y0073145D01*
X0121513Y0074721D01*
X0123482Y0074721D02*
X0123482Y0074721D01*
X0123482Y0073145D01*
X0123482Y0073145D01*
X0123482Y0074721D01*
X0125450Y0073145D02*
X0125450Y0073145D01*
X0125450Y0074721D01*
X0125450Y0074721D01*
X0125450Y0073145D01*
X0127419Y0073145D02*
X0127419Y0073145D01*
X0127419Y0074721D01*
X0127419Y0074721D01*
X0127419Y0073145D01*
X0129387Y0073145D02*
X0129387Y0073145D01*
X0129387Y0074721D01*
X0129387Y0074721D01*
X0129387Y0073145D01*
X0131356Y0073145D02*
X0131356Y0073145D01*
X0131356Y0074721D01*
X0131356Y0074721D01*
X0131356Y0073145D01*
X0132930Y0071571D02*
X0132930Y0071571D01*
X0134506Y0071571D01*
X0134506Y0071571D01*
X0132930Y0071571D01*
X0132930Y0069602D02*
X0132930Y0069602D01*
X0134506Y0069602D01*
X0134506Y0069602D01*
X0132930Y0069602D01*
X0132930Y0067634D02*
X0132930Y0067634D01*
X0134506Y0067634D01*
X0134506Y0067634D01*
X0132930Y0067634D01*
X0132930Y0065665D02*
X0132930Y0065665D01*
X0134506Y0065665D01*
X0134506Y0065665D01*
X0132930Y0065665D01*
X0132930Y0063697D02*
X0132930Y0063697D01*
X0134506Y0063697D01*
X0134506Y0063697D01*
X0132930Y0063697D01*
D20*
X0063804Y0088954D03*
X0063804Y0095647D03*
D21*
X0099675Y0119301D03*
D22*
X0099675Y0191545D03*
D23*
X0102060Y0086606D03*
X0102060Y0080307D03*
X0110722Y0080307D03*
X0110722Y0086606D03*
D24*
X0056912Y0082345D03*
D25*
X0007699Y0011479D03*
X0007699Y0019353D03*
X0007699Y0027227D03*
X0007699Y0035101D03*
X0007699Y0042975D03*
X0007699Y0050849D03*
X0007699Y0058723D03*
X0007699Y0066597D03*
X0007699Y0074471D03*
X0007699Y0082345D03*
X0031321Y0074471D03*
X0031321Y0066597D03*
X0031321Y0058723D03*
X0031321Y0050849D03*
X0031321Y0042975D03*
X0031321Y0035101D03*
X0031321Y0027227D03*
X0031321Y0019353D03*
X0031321Y0011479D03*
D26*
X0145024Y0077810D03*
X0147583Y0077810D03*
X0150142Y0077810D03*
X0152701Y0077810D03*
X0152701Y0101195D03*
X0150142Y0101195D03*
X0147583Y0101195D03*
X0145024Y0101195D03*
D27*
X0138686Y0097789D03*
X0130025Y0097789D03*
D28*
X0160504Y0093815D03*
X0160504Y0086728D03*
X0177882Y0088416D03*
X0177882Y0095503D03*
D29*
X0172602Y0075865D03*
X0172602Y0074290D03*
X0172602Y0072715D03*
X0172602Y0071140D03*
X0172602Y0069565D03*
X0172602Y0067991D03*
X0172602Y0066416D03*
X0172602Y0064841D03*
X0172602Y0063266D03*
X0172602Y0061691D03*
D30*
X0177425Y0062479D03*
X0177425Y0064054D03*
X0177425Y0065628D03*
X0177425Y0067203D03*
X0177425Y0068778D03*
X0177425Y0070353D03*
X0177425Y0071928D03*
X0177425Y0073502D03*
X0177425Y0075077D03*
D31*
X0178173Y0079999D03*
X0178173Y0057558D03*
D32*
X0191401Y0057558D03*
X0191401Y0079999D03*
D33*
X0193364Y0089921D03*
X0193007Y0101297D03*
X0172968Y0103512D03*
X0166823Y0096473D03*
X0166908Y0091078D03*
X0158291Y0078768D03*
X0162396Y0076311D03*
X0156631Y0073972D03*
X0158309Y0067329D03*
X0150538Y0059122D03*
X0141679Y0060330D03*
X0141662Y0064572D03*
X0139860Y0072830D03*
X0126748Y0079700D03*
X0121855Y0079748D03*
X0118836Y0083027D03*
X0111401Y0097500D03*
X0116940Y0101640D03*
X0123089Y0101966D03*
X0135374Y0087619D03*
X0139232Y0087602D03*
X0103954Y0096728D03*
X0097291Y0089130D03*
X0096838Y0083216D03*
X0090057Y0083716D03*
X0067739Y0074424D03*
X0053120Y0076877D03*
X0053316Y0067865D03*
X0053316Y0057580D03*
X0053342Y0047703D03*
X0053631Y0036452D03*
X0053713Y0025043D03*
X0053924Y0012535D03*
X0078744Y0037713D03*
X0081492Y0040479D03*
X0071914Y0048412D03*
X0068285Y0051098D03*
X0068310Y0055399D03*
X0074545Y0053618D03*
X0079151Y0053657D03*
X0070357Y0040560D03*
X0089991Y0030450D03*
X0094064Y0030441D03*
X0107173Y0031239D03*
X0116346Y0028594D03*
X0126162Y0034842D03*
X0133385Y0010536D03*
X0129223Y0005219D03*
X0141550Y0005050D03*
X0151756Y0005106D03*
X0151499Y0017417D03*
X0162973Y0028842D03*
X0172838Y0029022D03*
X0183175Y0029069D03*
X0192531Y0029022D03*
X0192464Y0039384D03*
X0192346Y0050317D03*
X0158417Y0048595D03*
X0153462Y0043834D03*
X0095746Y0014628D03*
X0052888Y0091104D03*
X0068691Y0103291D03*
X0099458Y0167186D03*
D34*
X0076374Y0098641D03*
M02*
