G75*
%MOIN*%
%OFA0B0*%
%FSLAX25Y25*%
%IPPOS*%
%LPD*%
%AMOC8*
5,1,8,0,0,1.08239X$1,22.5*
%
%ADD10C,0.02178*%
%ADD11C,0.06000*%
%ADD12C,0.00600*%
%ADD13C,0.04000*%
%ADD14C,0.01000*%
%ADD15C,0.01800*%
D10*
X0007699Y0011479D03*
X0007699Y0019353D03*
X0007699Y0027227D03*
X0007699Y0035101D03*
X0007699Y0042975D03*
X0007699Y0050849D03*
X0007699Y0058723D03*
X0007699Y0066597D03*
X0007699Y0074471D03*
X0007699Y0082345D03*
X0031321Y0074471D03*
X0031321Y0066597D03*
X0031321Y0058723D03*
X0031321Y0050849D03*
X0031321Y0042975D03*
X0031321Y0035101D03*
X0031321Y0027227D03*
X0031321Y0019353D03*
X0031321Y0011479D03*
X0053713Y0025043D03*
X0053631Y0036452D03*
X0053342Y0047703D03*
X0053316Y0057580D03*
X0053316Y0067865D03*
X0053120Y0076877D03*
X0052888Y0091104D03*
X0068691Y0103291D03*
X0079537Y0087655D03*
X0090057Y0083716D03*
X0096838Y0083216D03*
X0097291Y0089130D03*
X0103954Y0096728D03*
X0111401Y0097500D03*
X0116940Y0101640D03*
X0123089Y0101966D03*
X0135374Y0087619D03*
X0139232Y0087602D03*
X0126748Y0079700D03*
X0121855Y0079748D03*
X0118836Y0083027D03*
X0139860Y0072830D03*
X0141662Y0064572D03*
X0141679Y0060330D03*
X0150538Y0059122D03*
X0158309Y0067329D03*
X0158291Y0078768D03*
X0166908Y0091078D03*
X0166823Y0096473D03*
X0172968Y0103512D03*
X0193007Y0101297D03*
X0193364Y0089921D03*
X0192346Y0050317D03*
X0192464Y0039384D03*
X0192531Y0029022D03*
X0183175Y0029069D03*
X0172838Y0029022D03*
X0162973Y0028842D03*
X0151499Y0017417D03*
X0151756Y0005106D03*
X0141550Y0005050D03*
X0133385Y0010536D03*
X0129223Y0005219D03*
X0116346Y0028594D03*
X0107173Y0031239D03*
X0094064Y0030441D03*
X0089991Y0030450D03*
X0081492Y0040479D03*
X0078744Y0037713D03*
X0070357Y0040560D03*
X0071914Y0048412D03*
X0068285Y0051098D03*
X0068310Y0055399D03*
X0074545Y0053618D03*
X0079151Y0053657D03*
X0067739Y0074424D03*
X0095746Y0014628D03*
X0126162Y0034842D03*
X0153462Y0043834D03*
X0053924Y0012535D03*
X0099458Y0167186D03*
D11*
X0095268Y0102804D03*
X0085268Y0102804D03*
D12*
X0081896Y0104593D02*
X0066171Y0104593D01*
X0066185Y0104843D02*
X0066379Y0105037D01*
X0082074Y0104984D01*
X0082046Y0104956D01*
X0081468Y0103560D01*
X0081468Y0102048D01*
X0082046Y0100651D01*
X0083115Y0099582D01*
X0084512Y0099004D01*
X0086024Y0099004D01*
X0087420Y0099582D01*
X0088489Y0100651D01*
X0089068Y0102048D01*
X0089068Y0103560D01*
X0088489Y0104956D01*
X0088484Y0104962D01*
X0092044Y0104950D01*
X0091468Y0103560D01*
X0091468Y0102048D01*
X0092046Y0100651D01*
X0093115Y0099582D01*
X0094512Y0099004D01*
X0096024Y0099004D01*
X0097420Y0099582D01*
X0098489Y0100651D01*
X0099068Y0102048D01*
X0099068Y0103560D01*
X0098501Y0104928D01*
X0167605Y0104693D01*
X0171787Y0100786D01*
X0171906Y0096514D01*
X0171906Y0091464D01*
X0161672Y0081425D01*
X0161739Y0044856D01*
X0143631Y0026748D01*
X0090728Y0026774D01*
X0090377Y0026774D01*
X0079058Y0033156D01*
X0070904Y0038671D01*
X0071139Y0038671D01*
X0072246Y0039778D01*
X0072246Y0041342D01*
X0071139Y0042449D01*
X0069574Y0042449D01*
X0068468Y0041342D01*
X0068468Y0040319D01*
X0066457Y0041680D01*
X0066458Y0041787D01*
X0066464Y0041793D01*
X0066464Y0042241D01*
X0066471Y0042690D01*
X0066464Y0042696D01*
X0066464Y0050247D01*
X0067502Y0049209D01*
X0069067Y0049209D01*
X0070174Y0050316D01*
X0070174Y0051881D01*
X0069067Y0052987D01*
X0067502Y0052987D01*
X0066464Y0051949D01*
X0066464Y0096840D01*
X0066055Y0097249D01*
X0066158Y0104340D01*
X0066185Y0104843D01*
X0066153Y0103995D02*
X0081648Y0103995D01*
X0081468Y0103396D02*
X0066144Y0103396D01*
X0066135Y0102798D02*
X0081468Y0102798D01*
X0081468Y0102199D02*
X0066127Y0102199D01*
X0066118Y0101601D02*
X0081653Y0101601D01*
X0081901Y0101002D02*
X0066110Y0101002D01*
X0066101Y0100404D02*
X0082294Y0100404D01*
X0082892Y0099805D02*
X0077614Y0099805D01*
X0078074Y0099345D02*
X0077078Y0100341D01*
X0075670Y0100341D01*
X0074674Y0099345D01*
X0074674Y0097937D01*
X0075670Y0096941D01*
X0077078Y0096941D01*
X0078074Y0097937D01*
X0078074Y0099345D01*
X0078074Y0099207D02*
X0084022Y0099207D01*
X0086513Y0099207D02*
X0094022Y0099207D01*
X0092892Y0099805D02*
X0087643Y0099805D01*
X0088242Y0100404D02*
X0092294Y0100404D01*
X0091901Y0101002D02*
X0088635Y0101002D01*
X0088882Y0101601D02*
X0091653Y0101601D01*
X0091468Y0102199D02*
X0089068Y0102199D01*
X0089068Y0102798D02*
X0091468Y0102798D01*
X0091468Y0103396D02*
X0089068Y0103396D01*
X0088888Y0103995D02*
X0091648Y0103995D01*
X0091896Y0104593D02*
X0088640Y0104593D01*
X0096513Y0099207D02*
X0110436Y0099207D01*
X0110618Y0099389D02*
X0109512Y0098282D01*
X0109512Y0097188D01*
X0097193Y0085105D01*
X0096055Y0085105D01*
X0094949Y0083998D01*
X0094949Y0082433D01*
X0096055Y0081327D01*
X0097620Y0081327D01*
X0098727Y0082433D01*
X0098727Y0083528D01*
X0111046Y0095611D01*
X0112183Y0095611D01*
X0113290Y0096717D01*
X0113290Y0098282D01*
X0112183Y0099389D01*
X0110618Y0099389D01*
X0109838Y0098608D02*
X0078074Y0098608D01*
X0078074Y0098010D02*
X0109512Y0098010D01*
X0109512Y0097411D02*
X0077548Y0097411D01*
X0075200Y0097411D02*
X0066058Y0097411D01*
X0066066Y0098010D02*
X0074674Y0098010D01*
X0074674Y0098608D02*
X0066075Y0098608D01*
X0066084Y0099207D02*
X0074674Y0099207D01*
X0075134Y0099805D02*
X0066092Y0099805D01*
X0068691Y0103291D02*
X0067460Y0104522D01*
X0066464Y0096813D02*
X0109129Y0096813D01*
X0108519Y0096214D02*
X0066464Y0096214D01*
X0066464Y0095616D02*
X0107909Y0095616D01*
X0107299Y0095017D02*
X0066464Y0095017D01*
X0066464Y0094419D02*
X0106689Y0094419D01*
X0106078Y0093820D02*
X0066464Y0093820D01*
X0066464Y0093222D02*
X0105468Y0093222D01*
X0104858Y0092623D02*
X0066464Y0092623D01*
X0066464Y0092025D02*
X0104248Y0092025D01*
X0103638Y0091426D02*
X0066464Y0091426D01*
X0066464Y0090827D02*
X0096318Y0090827D01*
X0096509Y0091019D02*
X0095402Y0089912D01*
X0095402Y0088347D01*
X0096509Y0087241D01*
X0098074Y0087241D01*
X0099180Y0088347D01*
X0099180Y0089912D01*
X0098074Y0091019D01*
X0096509Y0091019D01*
X0095719Y0090229D02*
X0066464Y0090229D01*
X0066464Y0089630D02*
X0095402Y0089630D01*
X0095402Y0089032D02*
X0080832Y0089032D01*
X0080319Y0089544D02*
X0078755Y0089544D01*
X0077648Y0088438D01*
X0077648Y0086873D01*
X0078755Y0085766D01*
X0080319Y0085766D01*
X0081426Y0086873D01*
X0081426Y0088438D01*
X0080319Y0089544D01*
X0081426Y0088433D02*
X0095402Y0088433D01*
X0095915Y0087835D02*
X0081426Y0087835D01*
X0081426Y0087236D02*
X0099366Y0087236D01*
X0098756Y0086638D02*
X0081191Y0086638D01*
X0080592Y0086039D02*
X0098146Y0086039D01*
X0097535Y0085441D02*
X0091004Y0085441D01*
X0090839Y0085605D02*
X0089274Y0085605D01*
X0088168Y0084499D01*
X0088168Y0082934D01*
X0089274Y0081827D01*
X0090839Y0081827D01*
X0091946Y0082934D01*
X0091946Y0084499D01*
X0090839Y0085605D01*
X0091602Y0084842D02*
X0095793Y0084842D01*
X0095194Y0084244D02*
X0091946Y0084244D01*
X0091946Y0083645D02*
X0094949Y0083645D01*
X0094949Y0083047D02*
X0091946Y0083047D01*
X0091460Y0082448D02*
X0094949Y0082448D01*
X0095533Y0081850D02*
X0090861Y0081850D01*
X0089252Y0081850D02*
X0066464Y0081850D01*
X0066464Y0082448D02*
X0088653Y0082448D01*
X0088168Y0083047D02*
X0066464Y0083047D01*
X0066464Y0083645D02*
X0088168Y0083645D01*
X0088168Y0084244D02*
X0066464Y0084244D01*
X0066464Y0084842D02*
X0088511Y0084842D01*
X0089110Y0085441D02*
X0066464Y0085441D01*
X0066464Y0086039D02*
X0078481Y0086039D01*
X0077883Y0086638D02*
X0066464Y0086638D01*
X0066464Y0087236D02*
X0077648Y0087236D01*
X0077648Y0087835D02*
X0066464Y0087835D01*
X0066464Y0088433D02*
X0077648Y0088433D01*
X0078242Y0089032D02*
X0066464Y0089032D01*
X0063294Y0095623D02*
X0056301Y0102615D01*
X0046332Y0102615D01*
X0024013Y0124934D01*
X0024013Y0172128D01*
X0034124Y0182240D01*
X0168200Y0182240D01*
X0178468Y0171972D01*
X0178468Y0054963D01*
X0144841Y0021336D01*
X0091087Y0021281D01*
X0061230Y0037823D01*
X0061230Y0094929D01*
X0055544Y0100616D01*
X0045562Y0100616D01*
X0021537Y0124640D01*
X0021537Y0172680D01*
X0033267Y0184410D01*
X0169107Y0184410D01*
X0181345Y0172172D01*
X0181345Y0055205D01*
X0145219Y0019079D01*
X0091219Y0019216D01*
X0059035Y0037059D01*
X0058988Y0094051D01*
X0054609Y0098430D01*
X0044449Y0098430D01*
X0018826Y0124053D01*
X0018826Y0173580D01*
X0032432Y0187186D01*
X0170240Y0187186D01*
X0184160Y0172723D01*
X0184160Y0055384D01*
X0145455Y0016679D01*
X0097797Y0016679D01*
X0095746Y0014628D01*
X0090475Y0023613D02*
X0063199Y0038662D01*
X0063294Y0095623D01*
X0065364Y0096384D02*
X0056977Y0104771D01*
X0046731Y0104771D01*
X0026261Y0125241D01*
X0026261Y0171614D01*
X0034799Y0180152D01*
X0167779Y0180152D01*
X0176105Y0171827D01*
X0176105Y0055158D01*
X0144559Y0023613D01*
X0090475Y0023613D01*
X0090272Y0025674D02*
X0144087Y0025648D01*
X0173006Y0054567D01*
X0173006Y0096825D01*
X0172968Y0103512D01*
X0170914Y0101601D02*
X0118829Y0101601D01*
X0118829Y0102199D02*
X0170274Y0102199D01*
X0169633Y0102798D02*
X0118454Y0102798D01*
X0118829Y0102422D02*
X0117723Y0103529D01*
X0116158Y0103529D01*
X0115051Y0102422D01*
X0115051Y0100858D01*
X0116158Y0099751D01*
X0117723Y0099751D01*
X0118829Y0100858D01*
X0118829Y0102422D01*
X0117855Y0103396D02*
X0168993Y0103396D01*
X0168352Y0103995D02*
X0098888Y0103995D01*
X0099068Y0103396D02*
X0116025Y0103396D01*
X0115426Y0102798D02*
X0099068Y0102798D01*
X0099068Y0102199D02*
X0115051Y0102199D01*
X0115051Y0101601D02*
X0098882Y0101601D01*
X0098635Y0101002D02*
X0115051Y0101002D01*
X0115505Y0100404D02*
X0098242Y0100404D01*
X0097643Y0099805D02*
X0116104Y0099805D01*
X0117777Y0099805D02*
X0171814Y0099805D01*
X0171831Y0099207D02*
X0112365Y0099207D01*
X0112963Y0098608D02*
X0171848Y0098608D01*
X0171864Y0098010D02*
X0167957Y0098010D01*
X0167605Y0098361D02*
X0166041Y0098361D01*
X0164934Y0097255D01*
X0164934Y0095690D01*
X0166041Y0094584D01*
X0167605Y0094584D01*
X0168712Y0095690D01*
X0168712Y0097255D01*
X0167605Y0098361D01*
X0168556Y0097411D02*
X0171881Y0097411D01*
X0171898Y0096813D02*
X0168712Y0096813D01*
X0168712Y0096214D02*
X0171906Y0096214D01*
X0171906Y0095616D02*
X0168637Y0095616D01*
X0168039Y0095017D02*
X0171906Y0095017D01*
X0171906Y0094419D02*
X0109830Y0094419D01*
X0110441Y0095017D02*
X0165607Y0095017D01*
X0165009Y0095616D02*
X0112188Y0095616D01*
X0112787Y0096214D02*
X0164934Y0096214D01*
X0164934Y0096813D02*
X0113290Y0096813D01*
X0113290Y0097411D02*
X0165090Y0097411D01*
X0165689Y0098010D02*
X0113290Y0098010D01*
X0111401Y0097500D02*
X0096838Y0083216D01*
X0098143Y0081850D02*
X0117342Y0081850D01*
X0116947Y0082245D02*
X0118054Y0081138D01*
X0119619Y0081138D01*
X0120725Y0082245D01*
X0120725Y0083810D01*
X0119619Y0084916D01*
X0118054Y0084916D01*
X0116947Y0083810D01*
X0116947Y0082245D01*
X0116947Y0082448D02*
X0098727Y0082448D01*
X0098727Y0083047D02*
X0116947Y0083047D01*
X0116947Y0083645D02*
X0098847Y0083645D01*
X0099457Y0084244D02*
X0117381Y0084244D01*
X0117980Y0084842D02*
X0100067Y0084842D01*
X0100677Y0085441D02*
X0135996Y0085441D01*
X0135708Y0085730D02*
X0141149Y0080289D01*
X0141149Y0074213D01*
X0140642Y0074719D01*
X0139077Y0074719D01*
X0137971Y0073613D01*
X0137971Y0072048D01*
X0139077Y0070941D01*
X0140562Y0070941D01*
X0140562Y0066143D01*
X0139773Y0065354D01*
X0139773Y0063789D01*
X0140880Y0062683D01*
X0142445Y0062683D01*
X0143551Y0063789D01*
X0143551Y0065354D01*
X0142762Y0066143D01*
X0142762Y0070799D01*
X0143349Y0071385D01*
X0143349Y0081200D01*
X0142704Y0081844D01*
X0138836Y0085713D01*
X0140014Y0085713D01*
X0141121Y0086819D01*
X0141121Y0088384D01*
X0140014Y0089491D01*
X0138449Y0089491D01*
X0137343Y0088384D01*
X0137343Y0087206D01*
X0137263Y0087285D01*
X0137263Y0088401D01*
X0136157Y0089508D01*
X0134592Y0089508D01*
X0133485Y0088401D01*
X0133485Y0086836D01*
X0134592Y0085730D01*
X0135708Y0085730D01*
X0136595Y0084842D02*
X0119692Y0084842D01*
X0120291Y0084244D02*
X0137193Y0084244D01*
X0137792Y0083645D02*
X0120725Y0083645D01*
X0120725Y0083047D02*
X0138390Y0083047D01*
X0138989Y0082448D02*
X0120725Y0082448D01*
X0120330Y0081850D02*
X0139587Y0081850D01*
X0140186Y0081251D02*
X0127869Y0081251D01*
X0127531Y0081589D02*
X0128637Y0080483D01*
X0128637Y0078918D01*
X0127531Y0077811D01*
X0125966Y0077811D01*
X0124859Y0078918D01*
X0124859Y0080483D01*
X0125966Y0081589D01*
X0127531Y0081589D01*
X0128467Y0080653D02*
X0140784Y0080653D01*
X0141149Y0080054D02*
X0128637Y0080054D01*
X0128637Y0079456D02*
X0141149Y0079456D01*
X0141149Y0078857D02*
X0128577Y0078857D01*
X0127978Y0078259D02*
X0141149Y0078259D01*
X0141149Y0077660D02*
X0066464Y0077660D01*
X0066464Y0077062D02*
X0141149Y0077062D01*
X0141149Y0076463D02*
X0066464Y0076463D01*
X0066464Y0075865D02*
X0141149Y0075865D01*
X0141149Y0075266D02*
X0066464Y0075266D01*
X0066464Y0074668D02*
X0139026Y0074668D01*
X0138427Y0074069D02*
X0066464Y0074069D01*
X0066464Y0073471D02*
X0137971Y0073471D01*
X0137971Y0072872D02*
X0066464Y0072872D01*
X0066464Y0072274D02*
X0137971Y0072274D01*
X0138344Y0071675D02*
X0066464Y0071675D01*
X0066464Y0071077D02*
X0138942Y0071077D01*
X0140562Y0070478D02*
X0066464Y0070478D01*
X0066464Y0069880D02*
X0140562Y0069880D01*
X0140562Y0069281D02*
X0066464Y0069281D01*
X0066464Y0068683D02*
X0140562Y0068683D01*
X0140562Y0068084D02*
X0066464Y0068084D01*
X0066464Y0067486D02*
X0140562Y0067486D01*
X0140562Y0066887D02*
X0066464Y0066887D01*
X0066464Y0066289D02*
X0140562Y0066289D01*
X0140109Y0065690D02*
X0066464Y0065690D01*
X0066464Y0065092D02*
X0139773Y0065092D01*
X0139773Y0064493D02*
X0066464Y0064493D01*
X0066464Y0063894D02*
X0139773Y0063894D01*
X0140267Y0063296D02*
X0066464Y0063296D01*
X0066464Y0062697D02*
X0140865Y0062697D01*
X0142460Y0062697D02*
X0161706Y0062697D01*
X0161707Y0062099D02*
X0066464Y0062099D01*
X0066464Y0061500D02*
X0161708Y0061500D01*
X0161709Y0060902D02*
X0151430Y0060902D01*
X0151320Y0061011D02*
X0149755Y0061011D01*
X0148649Y0059905D01*
X0148649Y0058340D01*
X0149755Y0057233D01*
X0151320Y0057233D01*
X0152427Y0058340D01*
X0152427Y0059905D01*
X0151320Y0061011D01*
X0152028Y0060303D02*
X0161711Y0060303D01*
X0161712Y0059705D02*
X0152427Y0059705D01*
X0152427Y0059106D02*
X0161713Y0059106D01*
X0161714Y0058508D02*
X0152427Y0058508D01*
X0151996Y0057909D02*
X0161715Y0057909D01*
X0161716Y0057311D02*
X0151398Y0057311D01*
X0149678Y0057311D02*
X0066464Y0057311D01*
X0066464Y0057909D02*
X0149079Y0057909D01*
X0148649Y0058508D02*
X0066464Y0058508D01*
X0066464Y0059106D02*
X0148649Y0059106D01*
X0148649Y0059705D02*
X0066464Y0059705D01*
X0066464Y0060303D02*
X0149048Y0060303D01*
X0149646Y0060902D02*
X0066464Y0060902D01*
X0066464Y0056712D02*
X0161717Y0056712D01*
X0161718Y0056114D02*
X0066464Y0056114D01*
X0066464Y0055515D02*
X0078338Y0055515D01*
X0078369Y0055546D02*
X0077262Y0054440D01*
X0077262Y0052875D01*
X0078369Y0051768D01*
X0079933Y0051768D01*
X0081040Y0052875D01*
X0081040Y0054440D01*
X0079933Y0055546D01*
X0078369Y0055546D01*
X0077739Y0054917D02*
X0075917Y0054917D01*
X0076434Y0054400D02*
X0075327Y0055507D01*
X0073762Y0055507D01*
X0072656Y0054400D01*
X0072656Y0052835D01*
X0073762Y0051729D01*
X0075327Y0051729D01*
X0076434Y0052835D01*
X0076434Y0054400D01*
X0076434Y0054318D02*
X0077262Y0054318D01*
X0077262Y0053720D02*
X0076434Y0053720D01*
X0076434Y0053121D02*
X0077262Y0053121D01*
X0077614Y0052523D02*
X0076121Y0052523D01*
X0075523Y0051924D02*
X0078213Y0051924D01*
X0080090Y0051924D02*
X0161726Y0051924D01*
X0161727Y0051326D02*
X0070174Y0051326D01*
X0070174Y0050727D02*
X0161728Y0050727D01*
X0161729Y0050129D02*
X0072868Y0050129D01*
X0072696Y0050301D02*
X0071131Y0050301D01*
X0070025Y0049194D01*
X0070025Y0047629D01*
X0071131Y0046523D01*
X0072696Y0046523D01*
X0073803Y0047629D01*
X0073803Y0049194D01*
X0072696Y0050301D01*
X0073467Y0049530D02*
X0161730Y0049530D01*
X0161731Y0048932D02*
X0073803Y0048932D01*
X0073803Y0048333D02*
X0161733Y0048333D01*
X0161734Y0047735D02*
X0073803Y0047735D01*
X0073310Y0047136D02*
X0161735Y0047136D01*
X0161736Y0046538D02*
X0072711Y0046538D01*
X0071116Y0046538D02*
X0066464Y0046538D01*
X0066464Y0047136D02*
X0070518Y0047136D01*
X0070025Y0047735D02*
X0066464Y0047735D01*
X0066464Y0048333D02*
X0070025Y0048333D01*
X0070025Y0048932D02*
X0066464Y0048932D01*
X0066464Y0049530D02*
X0067181Y0049530D01*
X0066583Y0050129D02*
X0066464Y0050129D01*
X0066464Y0052523D02*
X0067038Y0052523D01*
X0066464Y0053121D02*
X0072656Y0053121D01*
X0072656Y0053720D02*
X0066464Y0053720D01*
X0066464Y0054318D02*
X0072656Y0054318D01*
X0073172Y0054917D02*
X0066464Y0054917D01*
X0067356Y0054543D02*
X0068310Y0055399D01*
X0069532Y0052523D02*
X0072968Y0052523D01*
X0073567Y0051924D02*
X0070130Y0051924D01*
X0069987Y0050129D02*
X0070959Y0050129D01*
X0070361Y0049530D02*
X0069388Y0049530D01*
X0066464Y0045939D02*
X0161737Y0045939D01*
X0161738Y0045341D02*
X0066464Y0045341D01*
X0066464Y0044742D02*
X0161626Y0044742D01*
X0161027Y0044144D02*
X0066464Y0044144D01*
X0066464Y0043545D02*
X0160429Y0043545D01*
X0159830Y0042947D02*
X0066464Y0042947D01*
X0066466Y0042348D02*
X0069473Y0042348D01*
X0068875Y0041750D02*
X0066458Y0041750D01*
X0067238Y0041151D02*
X0068468Y0041151D01*
X0068468Y0040553D02*
X0068123Y0040553D01*
X0071225Y0038757D02*
X0077117Y0038757D01*
X0076855Y0038495D02*
X0076855Y0036930D01*
X0077961Y0035824D01*
X0079526Y0035824D01*
X0080633Y0036930D01*
X0080633Y0038495D01*
X0079526Y0039602D01*
X0077961Y0039602D01*
X0076855Y0038495D01*
X0076855Y0038159D02*
X0071662Y0038159D01*
X0072547Y0037560D02*
X0076855Y0037560D01*
X0076855Y0036961D02*
X0073432Y0036961D01*
X0074317Y0036363D02*
X0077422Y0036363D01*
X0076086Y0035166D02*
X0124273Y0035166D01*
X0124273Y0035624D02*
X0124273Y0034059D01*
X0125380Y0032953D01*
X0126944Y0032953D01*
X0128051Y0034059D01*
X0128051Y0035624D01*
X0126944Y0036731D01*
X0125380Y0036731D01*
X0124273Y0035624D01*
X0124413Y0035764D02*
X0075202Y0035764D01*
X0076971Y0034567D02*
X0124273Y0034567D01*
X0124364Y0033969D02*
X0077856Y0033969D01*
X0078741Y0033370D02*
X0124962Y0033370D01*
X0127362Y0033370D02*
X0150254Y0033370D01*
X0149655Y0032772D02*
X0108311Y0032772D01*
X0107955Y0033128D02*
X0106390Y0033128D01*
X0105284Y0032021D01*
X0105284Y0030456D01*
X0106390Y0029350D01*
X0107955Y0029350D01*
X0109062Y0030456D01*
X0109062Y0032021D01*
X0107955Y0033128D01*
X0108909Y0032173D02*
X0149057Y0032173D01*
X0148458Y0031575D02*
X0109062Y0031575D01*
X0109062Y0030976D02*
X0147860Y0030976D01*
X0147261Y0030378D02*
X0108984Y0030378D01*
X0108385Y0029779D02*
X0146663Y0029779D01*
X0146064Y0029181D02*
X0091393Y0029181D01*
X0091880Y0029668D02*
X0090774Y0028561D01*
X0089209Y0028561D01*
X0088102Y0029668D01*
X0088102Y0031232D01*
X0089209Y0032339D01*
X0090774Y0032339D01*
X0091880Y0031232D01*
X0091880Y0029668D01*
X0091880Y0029779D02*
X0105961Y0029779D01*
X0105362Y0030378D02*
X0091880Y0030378D01*
X0091880Y0030976D02*
X0105284Y0030976D01*
X0105284Y0031575D02*
X0091538Y0031575D01*
X0090939Y0032173D02*
X0105436Y0032173D01*
X0106035Y0032772D02*
X0079739Y0032772D01*
X0080801Y0032173D02*
X0089043Y0032173D01*
X0088445Y0031575D02*
X0081862Y0031575D01*
X0082924Y0030976D02*
X0088102Y0030976D01*
X0088102Y0030378D02*
X0083985Y0030378D01*
X0085047Y0029779D02*
X0088102Y0029779D01*
X0088589Y0029181D02*
X0086108Y0029181D01*
X0087170Y0028582D02*
X0089187Y0028582D01*
X0088231Y0027984D02*
X0144867Y0027984D01*
X0144269Y0027385D02*
X0089293Y0027385D01*
X0090354Y0026787D02*
X0143670Y0026787D01*
X0145466Y0028582D02*
X0090795Y0028582D01*
X0090728Y0026774D02*
X0090728Y0026774D01*
X0090272Y0025674D02*
X0090088Y0025674D01*
X0065329Y0039634D01*
X0065364Y0042249D01*
X0065364Y0096384D01*
X0066464Y0081251D02*
X0117941Y0081251D01*
X0119732Y0081251D02*
X0120688Y0081251D01*
X0121073Y0081637D02*
X0119966Y0080530D01*
X0119966Y0078965D01*
X0121073Y0077859D01*
X0122638Y0077859D01*
X0123744Y0078965D01*
X0123744Y0080530D01*
X0122638Y0081637D01*
X0121073Y0081637D01*
X0120089Y0080653D02*
X0066464Y0080653D01*
X0066464Y0080054D02*
X0119966Y0080054D01*
X0119966Y0079456D02*
X0066464Y0079456D01*
X0066464Y0078857D02*
X0120074Y0078857D01*
X0120673Y0078259D02*
X0066464Y0078259D01*
X0079964Y0055515D02*
X0161719Y0055515D01*
X0161720Y0054917D02*
X0080563Y0054917D01*
X0081040Y0054318D02*
X0161722Y0054318D01*
X0161723Y0053720D02*
X0081040Y0053720D01*
X0081040Y0053121D02*
X0161724Y0053121D01*
X0161725Y0052523D02*
X0080688Y0052523D01*
X0080710Y0042368D02*
X0079603Y0041261D01*
X0079603Y0039696D01*
X0080710Y0038590D01*
X0082275Y0038590D01*
X0083381Y0039696D01*
X0083381Y0041261D01*
X0082275Y0042368D01*
X0080710Y0042368D01*
X0080690Y0042348D02*
X0071240Y0042348D01*
X0071839Y0041750D02*
X0080092Y0041750D01*
X0079603Y0041151D02*
X0072246Y0041151D01*
X0072246Y0040553D02*
X0079603Y0040553D01*
X0079603Y0039954D02*
X0072246Y0039954D01*
X0071824Y0039356D02*
X0077715Y0039356D01*
X0079773Y0039356D02*
X0079944Y0039356D01*
X0080371Y0038757D02*
X0080543Y0038757D01*
X0080633Y0038159D02*
X0155042Y0038159D01*
X0155640Y0038757D02*
X0082442Y0038757D01*
X0083041Y0039356D02*
X0156239Y0039356D01*
X0156837Y0039954D02*
X0083381Y0039954D01*
X0083381Y0040553D02*
X0157436Y0040553D01*
X0158034Y0041151D02*
X0083381Y0041151D01*
X0082893Y0041750D02*
X0158633Y0041750D01*
X0159231Y0042348D02*
X0082295Y0042348D01*
X0080633Y0037560D02*
X0154443Y0037560D01*
X0153845Y0036961D02*
X0080633Y0036961D01*
X0080065Y0036363D02*
X0125012Y0036363D01*
X0127312Y0036363D02*
X0153246Y0036363D01*
X0152648Y0035764D02*
X0127911Y0035764D01*
X0128051Y0035166D02*
X0152049Y0035166D01*
X0151451Y0034567D02*
X0128051Y0034567D01*
X0127960Y0033969D02*
X0150852Y0033969D01*
X0153462Y0042647D02*
X0153462Y0043834D01*
X0161705Y0063296D02*
X0143058Y0063296D01*
X0143551Y0063894D02*
X0161704Y0063894D01*
X0161703Y0064493D02*
X0143551Y0064493D01*
X0143551Y0065092D02*
X0161702Y0065092D01*
X0161701Y0065690D02*
X0143215Y0065690D01*
X0142762Y0066289D02*
X0161699Y0066289D01*
X0161698Y0066887D02*
X0142762Y0066887D01*
X0142762Y0067486D02*
X0161697Y0067486D01*
X0161696Y0068084D02*
X0142762Y0068084D01*
X0142762Y0068683D02*
X0161695Y0068683D01*
X0161694Y0069281D02*
X0142762Y0069281D01*
X0142762Y0069880D02*
X0161693Y0069880D01*
X0161692Y0070478D02*
X0142762Y0070478D01*
X0143040Y0071077D02*
X0161691Y0071077D01*
X0161690Y0071675D02*
X0143349Y0071675D01*
X0143349Y0072274D02*
X0161688Y0072274D01*
X0161687Y0072872D02*
X0143349Y0072872D01*
X0143349Y0073471D02*
X0161686Y0073471D01*
X0161685Y0074069D02*
X0143349Y0074069D01*
X0143349Y0074668D02*
X0161684Y0074668D01*
X0161683Y0075266D02*
X0143349Y0075266D01*
X0143349Y0075865D02*
X0161682Y0075865D01*
X0161681Y0076463D02*
X0143349Y0076463D01*
X0143349Y0077062D02*
X0157325Y0077062D01*
X0157508Y0076879D02*
X0156402Y0077985D01*
X0156402Y0079550D01*
X0157508Y0080657D01*
X0159073Y0080657D01*
X0160180Y0079550D01*
X0160180Y0077985D01*
X0159073Y0076879D01*
X0157508Y0076879D01*
X0156727Y0077660D02*
X0143349Y0077660D01*
X0143349Y0078259D02*
X0156402Y0078259D01*
X0156402Y0078857D02*
X0143349Y0078857D01*
X0143349Y0079456D02*
X0156402Y0079456D01*
X0156906Y0080054D02*
X0143349Y0080054D01*
X0143349Y0080653D02*
X0157504Y0080653D01*
X0159077Y0080653D02*
X0161673Y0080653D01*
X0161672Y0081251D02*
X0143297Y0081251D01*
X0142699Y0081850D02*
X0162105Y0081850D01*
X0162715Y0082448D02*
X0142100Y0082448D01*
X0141502Y0083047D02*
X0163325Y0083047D01*
X0163935Y0083645D02*
X0140903Y0083645D01*
X0140305Y0084244D02*
X0164546Y0084244D01*
X0165156Y0084842D02*
X0139706Y0084842D01*
X0139108Y0085441D02*
X0165766Y0085441D01*
X0166376Y0086039D02*
X0140341Y0086039D01*
X0140939Y0086638D02*
X0166986Y0086638D01*
X0167596Y0087236D02*
X0141121Y0087236D01*
X0141121Y0087835D02*
X0168206Y0087835D01*
X0168817Y0088433D02*
X0141072Y0088433D01*
X0140473Y0089032D02*
X0169427Y0089032D01*
X0170037Y0089630D02*
X0104949Y0089630D01*
X0104338Y0089032D02*
X0134116Y0089032D01*
X0133518Y0088433D02*
X0103728Y0088433D01*
X0103118Y0087835D02*
X0133485Y0087835D01*
X0133485Y0087236D02*
X0102508Y0087236D01*
X0101898Y0086638D02*
X0133684Y0086638D01*
X0134282Y0086039D02*
X0101287Y0086039D01*
X0099976Y0087835D02*
X0098668Y0087835D01*
X0099180Y0088433D02*
X0100586Y0088433D01*
X0101197Y0089032D02*
X0099180Y0089032D01*
X0099180Y0089630D02*
X0101807Y0089630D01*
X0102417Y0090229D02*
X0098863Y0090229D01*
X0098265Y0090827D02*
X0103027Y0090827D01*
X0105559Y0090229D02*
X0170647Y0090229D01*
X0171257Y0090827D02*
X0106169Y0090827D01*
X0106779Y0091426D02*
X0171867Y0091426D01*
X0171906Y0092025D02*
X0107390Y0092025D01*
X0108000Y0092623D02*
X0171906Y0092623D01*
X0171906Y0093222D02*
X0108610Y0093222D01*
X0109220Y0093820D02*
X0171906Y0093820D01*
X0171797Y0100404D02*
X0118375Y0100404D01*
X0118829Y0101002D02*
X0171555Y0101002D01*
X0167712Y0104593D02*
X0098640Y0104593D01*
X0123089Y0101966D02*
X0123601Y0102479D01*
X0136632Y0089032D02*
X0137990Y0089032D01*
X0137392Y0088433D02*
X0137231Y0088433D01*
X0137263Y0087835D02*
X0137343Y0087835D01*
X0137312Y0087236D02*
X0137343Y0087236D01*
X0135374Y0087619D02*
X0142249Y0080744D01*
X0142249Y0071841D01*
X0141662Y0071255D01*
X0141662Y0064572D01*
X0141149Y0074668D02*
X0140694Y0074668D01*
X0125628Y0081251D02*
X0123023Y0081251D01*
X0123622Y0080653D02*
X0125029Y0080653D01*
X0124859Y0080054D02*
X0123744Y0080054D01*
X0123744Y0079456D02*
X0124859Y0079456D01*
X0124920Y0078857D02*
X0123636Y0078857D01*
X0123038Y0078259D02*
X0125519Y0078259D01*
X0159256Y0077062D02*
X0161680Y0077062D01*
X0161679Y0077660D02*
X0159855Y0077660D01*
X0160180Y0078259D02*
X0161677Y0078259D01*
X0161676Y0078857D02*
X0160180Y0078857D01*
X0160180Y0079456D02*
X0161675Y0079456D01*
X0161674Y0080054D02*
X0159676Y0080054D01*
X0158309Y0067329D02*
X0158817Y0067114D01*
X0130937Y0029171D02*
X0129486Y0029120D01*
X0116597Y0028665D02*
X0116346Y0028594D01*
X0094185Y0029766D02*
X0094064Y0030441D01*
X0065364Y0042249D02*
X0065321Y0042292D01*
X0034799Y0180152D02*
X0035095Y0180448D01*
D13*
X0099458Y0167186D02*
X0099458Y0123543D01*
X0099436Y0123521D01*
X0103693Y0116557D01*
X0103954Y0096728D01*
D14*
X0166908Y0091078D02*
X0167193Y0091700D01*
D15*
X0076374Y0098641D03*
M02*
