G75*
%MOIN*%
%OFA0B0*%
%FSLAX25Y25*%
%IPPOS*%
%LPD*%
%AMOC8*
5,1,8,0,0,1.08239X$1,22.5*
%
%ADD10R,0.02756X0.03543*%
%ADD11R,0.04724X0.03150*%
%ADD12R,0.07087X0.48425*%
%ADD13C,0.02362*%
%ADD14R,0.02756X0.01417*%
%ADD15R,0.01417X0.02756*%
%ADD16R,0.03150X0.03150*%
%ADD17R,0.03937X0.04331*%
%ADD18R,0.03543X0.02756*%
%ADD19C,0.01063*%
%ADD20R,0.03937X0.03937*%
%ADD21R,0.03937X0.07874*%
%ADD22R,0.03346X0.01772*%
%ADD23C,0.00500*%
%ADD24R,0.04331X0.03937*%
%ADD25R,0.01575X0.03346*%
%ADD26R,0.01575X0.06693*%
%ADD27R,0.01575X0.01575*%
D10*
X0085803Y0089130D03*
X0085803Y0093578D03*
X0090921Y0093578D03*
X0090921Y0089130D03*
X0103165Y0091413D03*
X0108283Y0091413D03*
X0115370Y0091374D03*
X0120488Y0091374D03*
X0132024Y0078972D03*
X0137142Y0078972D03*
X0136001Y0047841D03*
X0135961Y0043539D03*
X0135926Y0039344D03*
X0135881Y0035074D03*
X0130763Y0035074D03*
X0130808Y0039344D03*
X0130843Y0043539D03*
X0130883Y0047841D03*
X0142810Y0047803D03*
X0142850Y0043539D03*
X0142892Y0039306D03*
X0142896Y0035072D03*
X0148014Y0035072D03*
X0148010Y0039306D03*
X0147969Y0043539D03*
X0147928Y0047803D03*
D11*
X0149346Y0071689D03*
X0149346Y0078775D03*
D12*
X0171705Y0169356D03*
X0006350Y0168962D03*
D13*
X0090449Y0072082D03*
X0090449Y0066177D03*
X0096354Y0066177D03*
X0096354Y0072082D03*
X0102260Y0072082D03*
X0102260Y0066177D03*
X0108165Y0066177D03*
X0108165Y0072082D03*
X0114071Y0072082D03*
X0114071Y0066177D03*
X0114071Y0060271D03*
X0114071Y0054366D03*
X0108165Y0054366D03*
X0102260Y0054366D03*
X0102260Y0060271D03*
X0108165Y0060271D03*
X0108165Y0048460D03*
X0102260Y0048460D03*
X0096354Y0048460D03*
X0090449Y0048460D03*
X0090449Y0054366D03*
X0096354Y0054366D03*
X0096354Y0060271D03*
X0090449Y0060271D03*
X0114071Y0048460D03*
D14*
X0120724Y0047673D03*
X0120724Y0044523D03*
X0120724Y0050823D03*
X0120724Y0053972D03*
X0120724Y0057122D03*
X0120724Y0060271D03*
X0120724Y0063421D03*
X0120724Y0066571D03*
X0120724Y0069720D03*
X0120724Y0072870D03*
X0120724Y0076019D03*
X0083795Y0076019D03*
X0083795Y0072870D03*
X0083795Y0069720D03*
X0083795Y0066571D03*
X0083795Y0063421D03*
X0083795Y0060271D03*
X0083795Y0057122D03*
X0083795Y0053972D03*
X0083795Y0050823D03*
X0083795Y0047673D03*
X0083795Y0044523D03*
D15*
X0086512Y0041807D03*
X0089661Y0041807D03*
X0092811Y0041807D03*
X0095961Y0041807D03*
X0099110Y0041807D03*
X0102260Y0041807D03*
X0105409Y0041807D03*
X0108559Y0041807D03*
X0111709Y0041807D03*
X0114858Y0041807D03*
X0118008Y0041807D03*
X0118008Y0078736D03*
X0114858Y0078736D03*
X0111709Y0078736D03*
X0108559Y0078736D03*
X0105409Y0078736D03*
X0102260Y0078736D03*
X0099110Y0078736D03*
X0095961Y0078736D03*
X0092811Y0078736D03*
X0089661Y0078736D03*
X0086512Y0078736D03*
D16*
X0102339Y0100941D03*
X0108244Y0100941D03*
X0137000Y0074002D03*
X0137000Y0068097D03*
D17*
X0099224Y0035822D03*
X0099224Y0029129D03*
X0132072Y0022650D03*
X0132072Y0015957D03*
X0140608Y0017263D03*
X0140608Y0010570D03*
D18*
X0063094Y0045998D03*
X0063094Y0051116D03*
X0077378Y0064641D03*
X0077378Y0069760D03*
X0131000Y0067690D03*
X0131000Y0072808D03*
X0138098Y0092936D03*
X0138098Y0098054D03*
D19*
X0131984Y0094602D03*
X0130016Y0094602D03*
X0130016Y0092634D03*
X0131984Y0092634D03*
X0131984Y0090665D03*
X0130016Y0090665D03*
X0128047Y0090665D03*
X0128047Y0092634D03*
X0128047Y0094602D03*
D20*
X0145528Y0098736D03*
X0153008Y0098736D03*
X0153008Y0089287D03*
X0145528Y0089287D03*
D21*
X0164307Y0010468D03*
X0191866Y0010468D03*
D22*
X0096589Y0014959D03*
X0096589Y0018896D03*
X0096589Y0022833D03*
X0085172Y0022833D03*
X0085172Y0018896D03*
X0085172Y0014959D03*
D23*
X0087731Y0015109D02*
X0094030Y0015109D01*
X0094030Y0014611D02*
X0087731Y0014611D01*
X0087731Y0014467D02*
X0094030Y0014467D01*
X0094030Y0021110D01*
X0094030Y0021750D01*
X0092455Y0023325D01*
X0087731Y0023325D01*
X0087731Y0014467D01*
X0087731Y0015608D02*
X0094030Y0015608D01*
X0094030Y0016106D02*
X0087731Y0016106D01*
X0087731Y0016605D02*
X0094030Y0016605D01*
X0094030Y0017103D02*
X0087731Y0017103D01*
X0087731Y0017602D02*
X0094030Y0017602D01*
X0094030Y0018100D02*
X0087731Y0018100D01*
X0087731Y0018599D02*
X0094030Y0018599D01*
X0094030Y0019097D02*
X0087731Y0019097D01*
X0087731Y0019596D02*
X0094030Y0019596D01*
X0094030Y0020094D02*
X0087731Y0020094D01*
X0087731Y0020593D02*
X0094030Y0020593D01*
X0094030Y0021091D02*
X0087731Y0021091D01*
X0087731Y0021590D02*
X0094030Y0021590D01*
X0093692Y0022088D02*
X0087731Y0022088D01*
X0087731Y0022587D02*
X0093193Y0022587D01*
X0092695Y0023085D02*
X0087731Y0023085D01*
D24*
X0085851Y0034234D03*
X0092544Y0034234D03*
X0118474Y0022763D03*
X0125167Y0022763D03*
D25*
X0104904Y0011037D03*
D26*
X0102148Y0009364D03*
X0107660Y0009364D03*
D27*
X0104904Y0006805D03*
M02*
