G75*
%MOIN*%
%OFA0B0*%
%FSLAX25Y25*%
%IPPOS*%
%LPD*%
%AMOC8*
5,1,8,0,0,1.08239X$1,22.5*
%
%ADD10R,0.02756X0.03543*%
%ADD11R,0.04724X0.03150*%
%ADD12R,0.07087X0.48425*%
%ADD13C,0.02362*%
%ADD14R,0.02756X0.01417*%
%ADD15R,0.01417X0.02756*%
%ADD16R,0.03150X0.03150*%
%ADD17R,0.03937X0.04331*%
%ADD18R,0.03543X0.02756*%
%ADD19C,0.01063*%
%ADD20R,0.03937X0.03937*%
%ADD21R,0.03937X0.07874*%
%ADD22C,0.02978*%
%ADD23C,0.05906*%
%ADD24R,0.03346X0.01772*%
%ADD25C,0.00500*%
%ADD26R,0.04331X0.03937*%
%ADD27R,0.01575X0.03346*%
%ADD28R,0.01575X0.06693*%
%ADD29R,0.01575X0.01575*%
%ADD30C,0.07400*%
%ADD31C,0.02178*%
%ADD32C,0.01000*%
%ADD33C,0.00600*%
%ADD34C,0.00787*%
%ADD35C,0.02400*%
%ADD36C,0.04000*%
%ADD37C,0.01600*%
%ADD38C,0.01200*%
D10*
X0085803Y0089130D03*
X0085803Y0093578D03*
X0090921Y0093578D03*
X0090921Y0089130D03*
X0103165Y0091413D03*
X0108283Y0091413D03*
X0115370Y0091374D03*
X0120488Y0091374D03*
X0132024Y0078972D03*
X0137142Y0078972D03*
X0136001Y0047841D03*
X0135961Y0043539D03*
X0135926Y0039344D03*
X0135881Y0035074D03*
X0130763Y0035074D03*
X0130808Y0039344D03*
X0130843Y0043539D03*
X0130883Y0047841D03*
X0142810Y0047803D03*
X0142850Y0043539D03*
X0142892Y0039306D03*
X0142896Y0035072D03*
X0148014Y0035072D03*
X0148010Y0039306D03*
X0147969Y0043539D03*
X0147928Y0047803D03*
D11*
X0149346Y0071689D03*
X0149346Y0078775D03*
D12*
X0171705Y0169356D03*
X0006350Y0168962D03*
D13*
X0090449Y0072082D03*
X0090449Y0066177D03*
X0096354Y0066177D03*
X0096354Y0072082D03*
X0102260Y0072082D03*
X0102260Y0066177D03*
X0108165Y0066177D03*
X0108165Y0072082D03*
X0114071Y0072082D03*
X0114071Y0066177D03*
X0114071Y0060271D03*
X0114071Y0054366D03*
X0108165Y0054366D03*
X0102260Y0054366D03*
X0102260Y0060271D03*
X0108165Y0060271D03*
X0108165Y0048460D03*
X0102260Y0048460D03*
X0096354Y0048460D03*
X0090449Y0048460D03*
X0090449Y0054366D03*
X0096354Y0054366D03*
X0096354Y0060271D03*
X0090449Y0060271D03*
X0114071Y0048460D03*
D14*
X0120724Y0047673D03*
X0120724Y0044523D03*
X0120724Y0050823D03*
X0120724Y0053972D03*
X0120724Y0057122D03*
X0120724Y0060271D03*
X0120724Y0063421D03*
X0120724Y0066571D03*
X0120724Y0069720D03*
X0120724Y0072870D03*
X0120724Y0076019D03*
X0083795Y0076019D03*
X0083795Y0072870D03*
X0083795Y0069720D03*
X0083795Y0066571D03*
X0083795Y0063421D03*
X0083795Y0060271D03*
X0083795Y0057122D03*
X0083795Y0053972D03*
X0083795Y0050823D03*
X0083795Y0047673D03*
X0083795Y0044523D03*
D15*
X0086512Y0041807D03*
X0089661Y0041807D03*
X0092811Y0041807D03*
X0095961Y0041807D03*
X0099110Y0041807D03*
X0102260Y0041807D03*
X0105409Y0041807D03*
X0108559Y0041807D03*
X0111709Y0041807D03*
X0114858Y0041807D03*
X0118008Y0041807D03*
X0118008Y0078736D03*
X0114858Y0078736D03*
X0111709Y0078736D03*
X0108559Y0078736D03*
X0105409Y0078736D03*
X0102260Y0078736D03*
X0099110Y0078736D03*
X0095961Y0078736D03*
X0092811Y0078736D03*
X0089661Y0078736D03*
X0086512Y0078736D03*
D16*
X0102339Y0100941D03*
X0108244Y0100941D03*
X0137000Y0074002D03*
X0137000Y0068097D03*
D17*
X0099224Y0035822D03*
X0099224Y0029129D03*
X0132072Y0022650D03*
X0132072Y0015957D03*
X0140608Y0017263D03*
X0140608Y0010570D03*
D18*
X0131000Y0067690D03*
X0131000Y0072808D03*
X0138098Y0092936D03*
X0138098Y0098054D03*
X0077378Y0069760D03*
X0077378Y0064641D03*
X0063094Y0051116D03*
X0063094Y0045998D03*
D19*
X0128047Y0090665D03*
X0128047Y0092634D03*
X0128047Y0094602D03*
X0130016Y0094602D03*
X0131984Y0094602D03*
X0131984Y0092634D03*
X0130016Y0092634D03*
X0130016Y0090665D03*
X0131984Y0090665D03*
D20*
X0145528Y0089287D03*
X0153008Y0089287D03*
X0153008Y0098736D03*
X0145528Y0098736D03*
D21*
X0164307Y0010468D03*
X0191866Y0010468D03*
D22*
X0007304Y0011479D03*
X0007304Y0019353D03*
X0007304Y0027227D03*
X0007304Y0035101D03*
X0007304Y0042975D03*
X0007304Y0050849D03*
X0007304Y0058723D03*
X0007304Y0066597D03*
X0007304Y0074471D03*
X0007304Y0082345D03*
X0030926Y0074471D03*
X0030926Y0066597D03*
X0030926Y0058723D03*
X0030926Y0050849D03*
X0030926Y0042975D03*
X0030926Y0035101D03*
X0030926Y0027227D03*
X0030926Y0019353D03*
X0030926Y0011479D03*
D23*
X0190496Y0095969D03*
X0190496Y0127465D03*
D24*
X0096589Y0022833D03*
X0096589Y0018896D03*
X0096589Y0014959D03*
X0085172Y0014959D03*
X0085172Y0018896D03*
X0085172Y0022833D03*
D25*
X0087731Y0022587D02*
X0093193Y0022587D01*
X0092695Y0023085D02*
X0087731Y0023085D01*
X0087731Y0023325D02*
X0087731Y0014467D01*
X0094030Y0014467D01*
X0094030Y0021110D01*
X0094030Y0021750D01*
X0092455Y0023325D01*
X0087731Y0023325D01*
X0087731Y0022088D02*
X0093692Y0022088D01*
X0094030Y0021590D02*
X0087731Y0021590D01*
X0087731Y0021091D02*
X0094030Y0021091D01*
X0094030Y0020593D02*
X0087731Y0020593D01*
X0087731Y0020094D02*
X0094030Y0020094D01*
X0094030Y0019596D02*
X0087731Y0019596D01*
X0087731Y0019097D02*
X0094030Y0019097D01*
X0094030Y0018599D02*
X0087731Y0018599D01*
X0087731Y0018100D02*
X0094030Y0018100D01*
X0094030Y0017602D02*
X0087731Y0017602D01*
X0087731Y0017103D02*
X0094030Y0017103D01*
X0094030Y0016605D02*
X0087731Y0016605D01*
X0087731Y0016106D02*
X0094030Y0016106D01*
X0094030Y0015608D02*
X0087731Y0015608D01*
X0087731Y0015109D02*
X0094030Y0015109D01*
X0094030Y0014611D02*
X0087731Y0014611D01*
D26*
X0085851Y0034234D03*
X0092544Y0034234D03*
X0118474Y0022763D03*
X0125167Y0022763D03*
D27*
X0104904Y0011037D03*
D28*
X0102148Y0009364D03*
X0107660Y0009364D03*
D29*
X0104904Y0006805D03*
D30*
X0107033Y0123507D03*
X0117033Y0123507D03*
X0127033Y0123507D03*
X0137033Y0123507D03*
X0147033Y0123507D03*
X0157033Y0123507D03*
X0167033Y0123507D03*
X0167206Y0134290D03*
X0157206Y0134290D03*
X0097033Y0123507D03*
X0087033Y0123507D03*
X0077033Y0123507D03*
X0067033Y0123507D03*
X0057033Y0123507D03*
X0047033Y0123507D03*
X0037033Y0123507D03*
D31*
X0052493Y0091104D03*
X0052725Y0076877D03*
X0052921Y0067865D03*
X0052921Y0057580D03*
X0052947Y0047703D03*
X0053236Y0036452D03*
X0053318Y0025043D03*
X0053529Y0012535D03*
X0077559Y0036762D03*
X0080796Y0035414D03*
X0083269Y0038774D03*
X0081097Y0040479D03*
X0071519Y0048412D03*
X0067890Y0051098D03*
X0067915Y0055399D03*
X0074150Y0053618D03*
X0078756Y0053657D03*
X0069441Y0040536D03*
X0089596Y0030450D03*
X0093669Y0030441D03*
X0104453Y0028582D03*
X0106778Y0031239D03*
X0111068Y0030994D03*
X0111276Y0037583D03*
X0115190Y0037938D03*
X0117079Y0035103D03*
X0125055Y0038214D03*
X0125767Y0034842D03*
X0130808Y0030916D03*
X0137258Y0030034D03*
X0151104Y0017417D03*
X0151361Y0005106D03*
X0141155Y0005050D03*
X0132990Y0010536D03*
X0128078Y0011753D03*
X0125293Y0014112D03*
X0128828Y0005219D03*
X0115039Y0014138D03*
X0113589Y0011771D03*
X0101298Y0015299D03*
X0083316Y0011624D03*
X0136420Y0057869D03*
X0138024Y0060052D03*
X0141283Y0060330D03*
X0141267Y0064572D03*
X0150143Y0059122D03*
X0157913Y0067329D03*
X0157896Y0078768D03*
X0166513Y0091078D03*
X0166428Y0096473D03*
X0172573Y0103512D03*
X0192612Y0101297D03*
X0192969Y0089921D03*
X0191951Y0050317D03*
X0192069Y0039384D03*
X0192135Y0029022D03*
X0182780Y0029069D03*
X0172442Y0029022D03*
X0162577Y0028842D03*
X0153067Y0043834D03*
X0139491Y0055823D03*
X0127024Y0077073D03*
X0126353Y0079700D03*
X0124055Y0081578D03*
X0121118Y0079514D03*
X0119150Y0081759D03*
X0118441Y0084355D03*
X0111005Y0097500D03*
X0116545Y0101640D03*
X0122694Y0101966D03*
X0134979Y0087619D03*
X0139247Y0087573D03*
X0103559Y0096728D03*
X0096896Y0089130D03*
X0096443Y0083216D03*
X0089661Y0083716D03*
X0068296Y0103291D03*
X0067343Y0074424D03*
X0190788Y0167474D03*
D32*
X0153008Y0089287D02*
X0157896Y0084793D01*
X0157896Y0078768D01*
X0147928Y0047803D02*
X0147928Y0043539D01*
X0147969Y0043539D01*
X0147969Y0043834D01*
X0153067Y0043834D01*
X0147969Y0043539D02*
X0147969Y0039306D01*
X0148010Y0039306D01*
X0148010Y0035072D01*
X0148014Y0035072D01*
X0142896Y0035072D02*
X0142895Y0035074D01*
X0142896Y0035072D02*
X0142892Y0035076D01*
X0142892Y0039306D01*
X0142854Y0039344D01*
X0142850Y0039348D02*
X0142892Y0039306D01*
X0142850Y0039348D02*
X0142850Y0043539D01*
X0142810Y0043580D01*
X0142810Y0047803D01*
X0136039Y0047803D01*
X0136001Y0047841D01*
X0135961Y0043539D02*
X0135926Y0043505D01*
X0135926Y0039344D01*
X0135881Y0039298D01*
X0135881Y0035074D01*
X0130808Y0035074D02*
X0130808Y0039344D01*
X0130843Y0039344D02*
X0130843Y0043539D01*
X0071519Y0048412D02*
X0069104Y0045998D01*
X0063094Y0045998D01*
D33*
X0063394Y0048438D02*
X0065036Y0048438D01*
X0065367Y0048526D01*
X0065663Y0048697D01*
X0065906Y0048939D01*
X0066077Y0049236D01*
X0066165Y0049567D01*
X0066165Y0050151D01*
X0067107Y0049209D01*
X0068672Y0049209D01*
X0069779Y0050316D01*
X0069779Y0051640D01*
X0072573Y0054973D01*
X0072861Y0055261D01*
X0072861Y0055317D01*
X0072896Y0055360D01*
X0072861Y0055765D01*
X0072861Y0070878D01*
X0072933Y0070657D01*
X0073039Y0055178D01*
X0072261Y0054400D01*
X0072261Y0052835D01*
X0073367Y0051729D01*
X0074932Y0051729D01*
X0076039Y0052835D01*
X0076039Y0054400D01*
X0075239Y0055200D01*
X0075188Y0062550D01*
X0075275Y0062463D01*
X0076304Y0062463D01*
X0076396Y0054910D01*
X0076396Y0054461D01*
X0076402Y0054456D01*
X0076402Y0054448D01*
X0076723Y0054135D01*
X0076867Y0053991D01*
X0076867Y0052875D01*
X0077973Y0051768D01*
X0079538Y0051768D01*
X0080645Y0052875D01*
X0080645Y0054440D01*
X0079538Y0055546D01*
X0078588Y0055546D01*
X0078504Y0062463D01*
X0079481Y0062463D01*
X0079950Y0062932D01*
X0079950Y0066351D01*
X0079481Y0066819D01*
X0075275Y0066819D01*
X0075160Y0066704D01*
X0075153Y0067704D01*
X0075275Y0067582D01*
X0079481Y0067582D01*
X0079950Y0068050D01*
X0079950Y0068620D01*
X0081677Y0068620D01*
X0082086Y0068212D01*
X0085505Y0068212D01*
X0085973Y0068680D01*
X0085973Y0070760D01*
X0085505Y0071229D01*
X0082086Y0071229D01*
X0081677Y0070820D01*
X0079950Y0070820D01*
X0079950Y0071469D01*
X0079481Y0071937D01*
X0075826Y0071937D01*
X0077323Y0074880D01*
X0080782Y0074880D01*
X0080789Y0074873D01*
X0081236Y0074880D01*
X0081683Y0074880D01*
X0081690Y0074887D01*
X0081710Y0074887D01*
X0082086Y0074511D01*
X0085505Y0074511D01*
X0085973Y0074979D01*
X0085973Y0076558D01*
X0087552Y0076558D01*
X0088020Y0077027D01*
X0088020Y0080445D01*
X0087552Y0080914D01*
X0086903Y0080914D01*
X0086903Y0086558D01*
X0086975Y0086558D01*
X0086975Y0086373D01*
X0086971Y0085923D01*
X0086975Y0085919D01*
X0086975Y0085913D01*
X0087294Y0085594D01*
X0087609Y0085273D01*
X0087615Y0085273D01*
X0087620Y0085268D01*
X0088070Y0085268D01*
X0088520Y0085264D01*
X0088525Y0085268D01*
X0088542Y0085268D01*
X0087772Y0084499D01*
X0087772Y0082934D01*
X0088561Y0082145D01*
X0088561Y0080854D01*
X0088153Y0080445D01*
X0088153Y0077027D01*
X0088468Y0076712D01*
X0088468Y0074724D01*
X0087180Y0073436D01*
X0087180Y0064823D01*
X0089751Y0062252D01*
X0089628Y0062252D01*
X0088468Y0061092D01*
X0088468Y0059451D01*
X0089628Y0058290D01*
X0091269Y0058290D01*
X0092430Y0059451D01*
X0092430Y0059573D01*
X0095000Y0057003D01*
X0103614Y0057003D01*
X0104313Y0057702D01*
X0105688Y0059078D01*
X0106557Y0059078D01*
X0107345Y0058290D01*
X0108986Y0058290D01*
X0110146Y0059451D01*
X0110146Y0061092D01*
X0108986Y0062252D01*
X0107345Y0062252D01*
X0106557Y0061465D01*
X0104700Y0061465D01*
X0104241Y0061006D01*
X0104241Y0061092D01*
X0103080Y0062252D01*
X0101439Y0062252D01*
X0100279Y0061092D01*
X0100279Y0059451D01*
X0100339Y0059390D01*
X0098275Y0059390D01*
X0098335Y0059451D01*
X0098335Y0061092D01*
X0097175Y0062252D01*
X0095534Y0062252D01*
X0094373Y0061092D01*
X0094373Y0061006D01*
X0091184Y0064196D01*
X0091269Y0064196D01*
X0092430Y0065356D01*
X0092430Y0066997D01*
X0091269Y0068158D01*
X0089628Y0068158D01*
X0089568Y0068097D01*
X0089568Y0070162D01*
X0089628Y0070101D01*
X0091269Y0070101D01*
X0092430Y0071262D01*
X0092430Y0072903D01*
X0091269Y0074063D01*
X0090855Y0074063D01*
X0090855Y0076712D01*
X0091170Y0077027D01*
X0091170Y0080445D01*
X0090761Y0080854D01*
X0090761Y0082145D01*
X0091550Y0082934D01*
X0091550Y0084499D01*
X0090781Y0085268D01*
X0098576Y0085268D01*
X0099220Y0085913D01*
X0102149Y0088841D01*
X0104181Y0088841D01*
X0104422Y0088600D01*
X0104334Y0080878D01*
X0103901Y0080445D01*
X0103901Y0077027D01*
X0104369Y0076558D01*
X0106449Y0076558D01*
X0106918Y0077027D01*
X0106918Y0080445D01*
X0106533Y0080830D01*
X0106622Y0088590D01*
X0106628Y0088595D01*
X0106628Y0088841D01*
X0109993Y0088841D01*
X0110461Y0089310D01*
X0110461Y0093516D01*
X0109993Y0093985D01*
X0109373Y0093985D01*
X0109363Y0096471D01*
X0110223Y0095611D01*
X0111788Y0095611D01*
X0112894Y0096717D01*
X0112894Y0097412D01*
X0116361Y0093945D01*
X0113661Y0093945D01*
X0113192Y0093477D01*
X0113192Y0090751D01*
X0111054Y0088613D01*
X0110733Y0088300D01*
X0110733Y0088292D01*
X0110727Y0088286D01*
X0110727Y0087838D01*
X0110636Y0080882D01*
X0110200Y0080445D01*
X0110200Y0077027D01*
X0110669Y0076558D01*
X0112749Y0076558D01*
X0112978Y0076787D01*
X0113109Y0076560D01*
X0113351Y0076318D01*
X0113648Y0076147D01*
X0113978Y0076058D01*
X0114804Y0076058D01*
X0114804Y0078682D01*
X0114913Y0078682D01*
X0115999Y0078682D01*
X0117953Y0078682D01*
X0117953Y0078790D01*
X0114913Y0078790D01*
X0114913Y0078682D01*
X0114913Y0076058D01*
X0115738Y0076058D01*
X0116069Y0076147D01*
X0116365Y0076318D01*
X0116433Y0076386D01*
X0116501Y0076318D01*
X0116797Y0076147D01*
X0117128Y0076058D01*
X0117954Y0076058D01*
X0117954Y0078682D01*
X0118062Y0078682D01*
X0118062Y0076058D01*
X0118546Y0076058D01*
X0118546Y0074979D01*
X0119015Y0074511D01*
X0122434Y0074511D01*
X0122902Y0074979D01*
X0122902Y0077059D01*
X0122434Y0077528D01*
X0120017Y0077528D01*
X0120017Y0077944D01*
X0120336Y0077625D01*
X0121901Y0077625D01*
X0123007Y0078731D01*
X0123007Y0079955D01*
X0123273Y0079689D01*
X0124464Y0079689D01*
X0124464Y0078918D01*
X0125331Y0078051D01*
X0125135Y0077855D01*
X0125135Y0076290D01*
X0125900Y0075525D01*
X0125900Y0068994D01*
X0126544Y0068349D01*
X0128303Y0066590D01*
X0128428Y0066590D01*
X0128428Y0065981D01*
X0128897Y0065512D01*
X0133103Y0065512D01*
X0133572Y0065981D01*
X0133572Y0066590D01*
X0134625Y0066590D01*
X0134625Y0066190D01*
X0135094Y0065722D01*
X0138906Y0065722D01*
X0139375Y0066190D01*
X0139375Y0070003D01*
X0138906Y0070471D01*
X0135094Y0070471D01*
X0134625Y0070003D01*
X0134625Y0068790D01*
X0133572Y0068790D01*
X0133572Y0069400D01*
X0133103Y0069868D01*
X0128897Y0069868D01*
X0128517Y0069488D01*
X0128100Y0069905D01*
X0128100Y0070785D01*
X0128188Y0070632D01*
X0128430Y0070390D01*
X0128727Y0070219D01*
X0129057Y0070130D01*
X0130700Y0070130D01*
X0130700Y0072508D01*
X0131300Y0072508D01*
X0131300Y0070130D01*
X0132943Y0070130D01*
X0133273Y0070219D01*
X0133570Y0070390D01*
X0133812Y0070632D01*
X0133983Y0070929D01*
X0134072Y0071259D01*
X0134072Y0072508D01*
X0131300Y0072508D01*
X0131300Y0073108D01*
X0134072Y0073108D01*
X0134072Y0074357D01*
X0133983Y0074688D01*
X0133812Y0074985D01*
X0133570Y0075227D01*
X0133273Y0075398D01*
X0132943Y0075486D01*
X0131300Y0075486D01*
X0131300Y0073108D01*
X0130700Y0073108D01*
X0130700Y0075486D01*
X0129057Y0075486D01*
X0128727Y0075398D01*
X0128430Y0075227D01*
X0128188Y0074985D01*
X0128100Y0074832D01*
X0128100Y0075478D01*
X0128913Y0076290D01*
X0128913Y0077855D01*
X0128046Y0078722D01*
X0128242Y0078918D01*
X0128242Y0079979D01*
X0130455Y0082085D01*
X0130471Y0082085D01*
X0130784Y0082397D01*
X0130884Y0082493D01*
X0130884Y0081544D01*
X0130314Y0081544D01*
X0129846Y0081075D01*
X0129846Y0076869D01*
X0130314Y0076400D01*
X0133733Y0076400D01*
X0134202Y0076869D01*
X0134202Y0081075D01*
X0133733Y0081544D01*
X0133084Y0081544D01*
X0133084Y0089882D01*
X0133316Y0090114D01*
X0133316Y0090997D01*
X0133424Y0090997D01*
X0134913Y0089508D01*
X0134197Y0089508D01*
X0133090Y0088401D01*
X0133090Y0086836D01*
X0134197Y0085730D01*
X0135761Y0085730D01*
X0136868Y0086836D01*
X0136868Y0088395D01*
X0137358Y0087906D01*
X0137358Y0086790D01*
X0138464Y0085684D01*
X0139471Y0085684D01*
X0136686Y0082899D01*
X0136042Y0082255D01*
X0136042Y0081544D01*
X0135432Y0081544D01*
X0134964Y0081075D01*
X0134964Y0076869D01*
X0135432Y0076400D01*
X0135900Y0076400D01*
X0135900Y0076377D01*
X0135094Y0076377D01*
X0134625Y0075908D01*
X0134625Y0072096D01*
X0135094Y0071627D01*
X0138906Y0071627D01*
X0139375Y0072096D01*
X0139375Y0075908D01*
X0138906Y0076377D01*
X0138100Y0076377D01*
X0138100Y0076400D01*
X0138851Y0076400D01*
X0139320Y0076869D01*
X0139320Y0081075D01*
X0138851Y0081544D01*
X0138442Y0081544D01*
X0143037Y0086138D01*
X0143037Y0086709D01*
X0143228Y0086519D01*
X0147827Y0086519D01*
X0148296Y0086987D01*
X0148296Y0091587D01*
X0147827Y0092056D01*
X0144468Y0092056D01*
X0141870Y0094869D01*
X0141870Y0095142D01*
X0140668Y0096343D01*
X0140670Y0096345D01*
X0140670Y0099070D01*
X0142104Y0100504D01*
X0142259Y0100504D01*
X0142259Y0099036D01*
X0145228Y0099036D01*
X0145228Y0098436D01*
X0145828Y0098436D01*
X0145828Y0099036D01*
X0148796Y0099036D01*
X0148796Y0099122D01*
X0150239Y0097678D01*
X0150239Y0096436D01*
X0150708Y0095967D01*
X0155308Y0095967D01*
X0155776Y0096436D01*
X0155776Y0097641D01*
X0160915Y0097650D01*
X0161345Y0097631D01*
X0161367Y0097651D01*
X0161396Y0097651D01*
X0161700Y0097955D01*
X0166532Y0102380D01*
X0171033Y0102380D01*
X0171791Y0101623D01*
X0173356Y0101623D01*
X0174462Y0102729D01*
X0174462Y0104294D01*
X0174003Y0104753D01*
X0195598Y0104654D01*
X0195586Y0026451D01*
X0153680Y0025909D01*
X0153555Y0013268D01*
X0143175Y0013268D01*
X0142907Y0013536D01*
X0138308Y0013536D01*
X0137839Y0013067D01*
X0137839Y0012453D01*
X0134841Y0015451D01*
X0134841Y0018454D01*
X0134372Y0018922D01*
X0129772Y0018922D01*
X0129304Y0018454D01*
X0129304Y0013460D01*
X0129772Y0012992D01*
X0132775Y0012992D01*
X0133342Y0012425D01*
X0132208Y0012425D01*
X0131101Y0011318D01*
X0131101Y0009753D01*
X0132208Y0008647D01*
X0133773Y0008647D01*
X0134879Y0009753D01*
X0134879Y0010887D01*
X0135961Y0009805D01*
X0136898Y0008868D01*
X0137839Y0008868D01*
X0137839Y0008074D01*
X0138308Y0007605D01*
X0142907Y0007605D01*
X0142971Y0007668D01*
X0153499Y0007668D01*
X0153457Y0003449D01*
X0152376Y0003449D01*
X0153250Y0004323D01*
X0153250Y0005888D01*
X0152143Y0006995D01*
X0150578Y0006995D01*
X0149472Y0005888D01*
X0149472Y0004323D01*
X0150346Y0003449D01*
X0142226Y0003449D01*
X0143044Y0004268D01*
X0143044Y0005832D01*
X0141938Y0006939D01*
X0140373Y0006939D01*
X0139266Y0005832D01*
X0139266Y0004268D01*
X0140084Y0003449D01*
X0129729Y0003449D01*
X0130716Y0004437D01*
X0130716Y0006002D01*
X0129610Y0007108D01*
X0128045Y0007108D01*
X0126939Y0006002D01*
X0126939Y0004437D01*
X0127926Y0003449D01*
X0079930Y0003449D01*
X0079978Y0027050D01*
X0081599Y0025429D01*
X0081599Y0021160D01*
X0082243Y0020516D01*
X0082699Y0020060D01*
X0082699Y0017679D01*
X0083167Y0017210D01*
X0086681Y0017210D01*
X0086681Y0016645D01*
X0083167Y0016645D01*
X0082699Y0016176D01*
X0082699Y0013742D01*
X0083167Y0013273D01*
X0087176Y0013273D01*
X0087320Y0013417D01*
X0094441Y0013417D01*
X0094585Y0013273D01*
X0098594Y0013273D01*
X0099062Y0013742D01*
X0099062Y0016176D01*
X0098594Y0016645D01*
X0095080Y0016645D01*
X0095080Y0017210D01*
X0098594Y0017210D01*
X0099062Y0017679D01*
X0099062Y0020060D01*
X0100162Y0021160D01*
X0100162Y0024506D01*
X0099694Y0024974D01*
X0099049Y0025619D01*
X0099025Y0025619D01*
X0098480Y0026164D01*
X0100209Y0026164D01*
X0103389Y0022984D01*
X0103476Y0013899D01*
X0103437Y0013922D01*
X0103107Y0014010D01*
X0102681Y0014010D01*
X0103187Y0014516D01*
X0103187Y0016081D01*
X0102081Y0017187D01*
X0100516Y0017187D01*
X0099409Y0016081D01*
X0099409Y0014516D01*
X0100369Y0013557D01*
X0100321Y0013508D01*
X0100149Y0013212D01*
X0100061Y0012881D01*
X0100061Y0009457D01*
X0102054Y0009457D01*
X0102054Y0009270D01*
X0100061Y0009270D01*
X0100061Y0005846D01*
X0100149Y0005515D01*
X0100321Y0005219D01*
X0100563Y0004977D01*
X0100859Y0004806D01*
X0101190Y0004717D01*
X0102055Y0004717D01*
X0102055Y0009270D01*
X0102242Y0009270D01*
X0102242Y0004717D01*
X0103107Y0004717D01*
X0103437Y0004806D01*
X0103526Y0004857D01*
X0103615Y0004806D01*
X0103946Y0004717D01*
X0104810Y0004717D01*
X0104810Y0006711D01*
X0104998Y0006711D01*
X0104998Y0004717D01*
X0105863Y0004717D01*
X0106193Y0004806D01*
X0106282Y0004857D01*
X0106371Y0004806D01*
X0106701Y0004717D01*
X0107566Y0004717D01*
X0107566Y0009270D01*
X0107754Y0009270D01*
X0107754Y0009457D01*
X0109747Y0009457D01*
X0109747Y0012881D01*
X0109659Y0013212D01*
X0109488Y0013508D01*
X0109246Y0013750D01*
X0108949Y0013922D01*
X0108619Y0014010D01*
X0107754Y0014010D01*
X0107754Y0009457D01*
X0107566Y0009457D01*
X0107566Y0014010D01*
X0106701Y0014010D01*
X0106371Y0013922D01*
X0106277Y0013867D01*
X0106183Y0023576D01*
X0106183Y0024149D01*
X0106178Y0024155D01*
X0106178Y0024163D01*
X0105769Y0024564D01*
X0101992Y0028340D01*
X0101992Y0029487D01*
X0102564Y0028916D01*
X0102564Y0027800D01*
X0103670Y0026693D01*
X0105235Y0026693D01*
X0106342Y0027800D01*
X0106342Y0029350D01*
X0107560Y0029350D01*
X0108667Y0030456D01*
X0108667Y0032021D01*
X0107722Y0032965D01*
X0112701Y0032965D01*
X0119635Y0026032D01*
X0118774Y0026032D01*
X0118774Y0023063D01*
X0121939Y0023063D01*
X0121939Y0023728D01*
X0122201Y0023466D01*
X0122201Y0020463D01*
X0122670Y0019995D01*
X0127663Y0019995D01*
X0128132Y0020463D01*
X0128132Y0021163D01*
X0129304Y0021163D01*
X0129304Y0020153D01*
X0129772Y0019684D01*
X0134372Y0019684D01*
X0134841Y0020153D01*
X0134841Y0025147D01*
X0134372Y0025615D01*
X0129772Y0025615D01*
X0129304Y0025147D01*
X0129304Y0024363D01*
X0128132Y0024363D01*
X0128132Y0025063D01*
X0127663Y0025532D01*
X0124661Y0025532D01*
X0116978Y0033214D01*
X0117862Y0033214D01*
X0118968Y0034321D01*
X0118968Y0035886D01*
X0117862Y0036992D01*
X0116916Y0036992D01*
X0117079Y0037155D01*
X0117079Y0038720D01*
X0116388Y0039411D01*
X0116607Y0039631D01*
X0116739Y0039858D01*
X0116968Y0039629D01*
X0119048Y0039629D01*
X0119517Y0040097D01*
X0119517Y0042515D01*
X0120670Y0042515D01*
X0120670Y0044469D01*
X0118046Y0044469D01*
X0118046Y0043985D01*
X0116968Y0043985D01*
X0116739Y0043755D01*
X0116607Y0043983D01*
X0116365Y0044225D01*
X0116069Y0044396D01*
X0115738Y0044485D01*
X0114913Y0044485D01*
X0114913Y0041861D01*
X0114804Y0041861D01*
X0114804Y0041752D01*
X0112850Y0041752D01*
X0111763Y0041752D01*
X0111763Y0041861D01*
X0114804Y0041861D01*
X0114804Y0044485D01*
X0113978Y0044485D01*
X0113648Y0044396D01*
X0113351Y0044225D01*
X0113283Y0044157D01*
X0113216Y0044225D01*
X0112919Y0044396D01*
X0112588Y0044485D01*
X0111763Y0044485D01*
X0111763Y0041861D01*
X0111654Y0041861D01*
X0111654Y0044485D01*
X0110829Y0044485D01*
X0110498Y0044396D01*
X0110202Y0044225D01*
X0109960Y0043983D01*
X0109828Y0043755D01*
X0109599Y0043985D01*
X0107519Y0043985D01*
X0107290Y0043755D01*
X0107158Y0043983D01*
X0106916Y0044225D01*
X0106620Y0044396D01*
X0106289Y0044485D01*
X0105464Y0044485D01*
X0105464Y0041861D01*
X0105355Y0041861D01*
X0105355Y0041752D01*
X0105464Y0041752D01*
X0105464Y0039129D01*
X0106289Y0039129D01*
X0106620Y0039217D01*
X0106916Y0039389D01*
X0107158Y0039631D01*
X0107290Y0039858D01*
X0107519Y0039629D01*
X0109599Y0039629D01*
X0109828Y0039858D01*
X0109960Y0039631D01*
X0110202Y0039389D01*
X0110334Y0039312D01*
X0109387Y0038365D01*
X0109387Y0036801D01*
X0110022Y0036165D01*
X0101992Y0036165D01*
X0101992Y0038319D01*
X0101524Y0038787D01*
X0096924Y0038787D01*
X0096455Y0038319D01*
X0096455Y0036245D01*
X0095509Y0036245D01*
X0095509Y0036534D01*
X0095040Y0037002D01*
X0090047Y0037002D01*
X0089578Y0036534D01*
X0089578Y0032339D01*
X0088816Y0032339D01*
X0088816Y0035639D01*
X0090887Y0038547D01*
X0091261Y0038921D01*
X0091261Y0039072D01*
X0091349Y0039195D01*
X0091318Y0039381D01*
X0091601Y0039217D01*
X0091931Y0039129D01*
X0092757Y0039129D01*
X0092757Y0041752D01*
X0092865Y0041752D01*
X0092865Y0039129D01*
X0093691Y0039129D01*
X0094021Y0039217D01*
X0094318Y0039389D01*
X0094560Y0039631D01*
X0094691Y0039858D01*
X0094921Y0039629D01*
X0097001Y0039629D01*
X0097230Y0039858D01*
X0097361Y0039631D01*
X0097603Y0039389D01*
X0097900Y0039217D01*
X0098230Y0039129D01*
X0099056Y0039129D01*
X0099056Y0041752D01*
X0099165Y0041752D01*
X0099165Y0041861D01*
X0100251Y0041861D01*
X0102205Y0041861D01*
X0102205Y0041752D01*
X0099165Y0041752D01*
X0099165Y0039129D01*
X0099990Y0039129D01*
X0100321Y0039217D01*
X0100617Y0039389D01*
X0100685Y0039457D01*
X0100753Y0039389D01*
X0101049Y0039217D01*
X0101380Y0039129D01*
X0102205Y0039129D01*
X0102205Y0041752D01*
X0102314Y0041752D01*
X0102314Y0039129D01*
X0103140Y0039129D01*
X0103470Y0039217D01*
X0103767Y0039389D01*
X0103835Y0039457D01*
X0103903Y0039389D01*
X0104199Y0039217D01*
X0104530Y0039129D01*
X0105355Y0039129D01*
X0105355Y0041752D01*
X0103401Y0041752D01*
X0102314Y0041752D01*
X0102314Y0041861D01*
X0102205Y0041861D01*
X0102205Y0044485D01*
X0101380Y0044485D01*
X0101049Y0044396D01*
X0100753Y0044225D01*
X0100685Y0044157D01*
X0100617Y0044225D01*
X0100321Y0044396D01*
X0099990Y0044485D01*
X0099165Y0044485D01*
X0099165Y0041861D01*
X0099056Y0041861D01*
X0099056Y0044485D01*
X0098230Y0044485D01*
X0097900Y0044396D01*
X0097603Y0044225D01*
X0097361Y0043983D01*
X0097230Y0043755D01*
X0097001Y0043985D01*
X0094921Y0043985D01*
X0094691Y0043755D01*
X0094560Y0043983D01*
X0094318Y0044225D01*
X0094021Y0044396D01*
X0093691Y0044485D01*
X0092865Y0044485D01*
X0092865Y0041861D01*
X0092757Y0041861D01*
X0092757Y0044485D01*
X0091931Y0044485D01*
X0091601Y0044396D01*
X0091304Y0044225D01*
X0091062Y0043983D01*
X0090931Y0043755D01*
X0090701Y0043985D01*
X0088621Y0043985D01*
X0088392Y0043755D01*
X0088261Y0043983D01*
X0088019Y0044225D01*
X0087722Y0044396D01*
X0087392Y0044485D01*
X0086566Y0044485D01*
X0086566Y0041861D01*
X0086457Y0041861D01*
X0086457Y0041752D01*
X0086566Y0041752D01*
X0086566Y0039129D01*
X0087373Y0039129D01*
X0085858Y0037002D01*
X0083435Y0037002D01*
X0083141Y0037297D01*
X0082336Y0038102D01*
X0082336Y0039046D01*
X0082986Y0039696D01*
X0082986Y0041261D01*
X0081880Y0042368D01*
X0080315Y0042368D01*
X0079531Y0041584D01*
X0078465Y0041588D01*
X0071021Y0041627D01*
X0070223Y0042425D01*
X0068658Y0042425D01*
X0067552Y0041318D01*
X0067552Y0039753D01*
X0068658Y0038647D01*
X0070223Y0038647D01*
X0071004Y0039427D01*
X0078000Y0039390D01*
X0078001Y0039389D01*
X0078460Y0039388D01*
X0078910Y0039385D01*
X0078911Y0039386D01*
X0079520Y0039384D01*
X0080136Y0038769D01*
X0080136Y0037303D01*
X0080014Y0037303D01*
X0079448Y0036738D01*
X0079448Y0037544D01*
X0078342Y0038650D01*
X0076777Y0038650D01*
X0075670Y0037544D01*
X0075670Y0035979D01*
X0076777Y0034873D01*
X0077807Y0034873D01*
X0077807Y0029221D01*
X0079897Y0027131D01*
X0058996Y0027365D01*
X0059071Y0035965D01*
X0059252Y0104576D01*
X0059197Y0104525D01*
X0059267Y0105283D01*
X0120792Y0104999D01*
X0120604Y0104811D01*
X0119205Y0103412D01*
X0119205Y0102740D01*
X0118116Y0102740D01*
X0117327Y0103529D01*
X0115762Y0103529D01*
X0114656Y0102422D01*
X0114656Y0100858D01*
X0115762Y0099751D01*
X0117327Y0099751D01*
X0118116Y0100540D01*
X0119205Y0100540D01*
X0119205Y0100521D01*
X0125579Y0094146D01*
X0125992Y0093734D01*
X0122409Y0093734D01*
X0122198Y0093945D01*
X0119472Y0093945D01*
X0111719Y0101699D01*
X0111719Y0103302D01*
X0111075Y0103947D01*
X0111075Y0103947D01*
X0110606Y0104415D01*
X0105882Y0104415D01*
X0104514Y0103047D01*
X0104245Y0103315D01*
X0100432Y0103315D01*
X0099964Y0102847D01*
X0099964Y0100121D01*
X0095796Y0095954D01*
X0095796Y0090701D01*
X0095325Y0090230D01*
X0093099Y0090230D01*
X0093099Y0090768D01*
X0093339Y0091009D01*
X0093511Y0091305D01*
X0093599Y0091636D01*
X0093599Y0093278D01*
X0091221Y0093278D01*
X0091221Y0093878D01*
X0093599Y0093878D01*
X0093599Y0095521D01*
X0093511Y0095852D01*
X0093339Y0096148D01*
X0093097Y0096390D01*
X0092801Y0096561D01*
X0092470Y0096650D01*
X0091221Y0096650D01*
X0091221Y0093878D01*
X0090621Y0093878D01*
X0090621Y0096650D01*
X0089372Y0096650D01*
X0089042Y0096561D01*
X0088887Y0096472D01*
X0088537Y0096823D01*
X0088010Y0097350D01*
X0083597Y0097350D01*
X0070661Y0084414D01*
X0070661Y0056117D01*
X0068038Y0052987D01*
X0067107Y0052987D01*
X0066165Y0052045D01*
X0066165Y0052665D01*
X0066077Y0052995D01*
X0065906Y0053292D01*
X0065663Y0053534D01*
X0065367Y0053705D01*
X0065036Y0053794D01*
X0063394Y0053794D01*
X0063394Y0051416D01*
X0062794Y0051416D01*
X0062794Y0053794D01*
X0061151Y0053794D01*
X0060820Y0053705D01*
X0060524Y0053534D01*
X0060282Y0053292D01*
X0060111Y0052995D01*
X0060022Y0052665D01*
X0060022Y0051416D01*
X0062794Y0051416D01*
X0062794Y0050816D01*
X0063394Y0050816D01*
X0063394Y0048438D01*
X0063394Y0048932D02*
X0062794Y0048932D01*
X0062794Y0048438D02*
X0062794Y0050816D01*
X0060022Y0050816D01*
X0060022Y0049567D01*
X0060111Y0049236D01*
X0060282Y0048939D01*
X0060524Y0048697D01*
X0060820Y0048526D01*
X0061151Y0048438D01*
X0062794Y0048438D01*
X0062794Y0049530D02*
X0063394Y0049530D01*
X0063394Y0050129D02*
X0062794Y0050129D01*
X0062794Y0050727D02*
X0063394Y0050727D01*
X0062794Y0051326D02*
X0059111Y0051326D01*
X0059113Y0051924D02*
X0060022Y0051924D01*
X0060022Y0052523D02*
X0059115Y0052523D01*
X0059116Y0053121D02*
X0060183Y0053121D01*
X0060875Y0053720D02*
X0059118Y0053720D01*
X0059119Y0054318D02*
X0069153Y0054318D01*
X0068652Y0053720D02*
X0065312Y0053720D01*
X0066004Y0053121D02*
X0068150Y0053121D01*
X0066643Y0052523D02*
X0066165Y0052523D01*
X0067890Y0051098D02*
X0071761Y0055717D01*
X0071761Y0083958D01*
X0084052Y0096250D01*
X0087554Y0096250D01*
X0088081Y0095723D01*
X0088081Y0086985D01*
X0088075Y0086368D01*
X0098120Y0086368D01*
X0103165Y0091413D01*
X0105528Y0089051D01*
X0105409Y0078736D01*
X0103901Y0078857D02*
X0103768Y0078857D01*
X0103768Y0078259D02*
X0103901Y0078259D01*
X0103901Y0077660D02*
X0103768Y0077660D01*
X0103768Y0077062D02*
X0103901Y0077062D01*
X0103768Y0077027D02*
X0103768Y0080445D01*
X0103300Y0080914D01*
X0101220Y0080914D01*
X0100751Y0080445D01*
X0100751Y0077027D01*
X0101220Y0076558D01*
X0103300Y0076558D01*
X0103768Y0077027D01*
X0103768Y0079456D02*
X0103901Y0079456D01*
X0103901Y0080054D02*
X0103768Y0080054D01*
X0103561Y0080653D02*
X0104108Y0080653D01*
X0104338Y0081251D02*
X0090761Y0081251D01*
X0090761Y0081850D02*
X0095137Y0081850D01*
X0095660Y0081327D02*
X0094554Y0082433D01*
X0094554Y0083998D01*
X0095660Y0085105D01*
X0097225Y0085105D01*
X0098332Y0083998D01*
X0098332Y0082433D01*
X0097225Y0081327D01*
X0095660Y0081327D01*
X0094921Y0080914D02*
X0097001Y0080914D01*
X0097469Y0080445D01*
X0097469Y0077027D01*
X0097001Y0076558D01*
X0094921Y0076558D01*
X0094452Y0077027D01*
X0094452Y0080445D01*
X0094921Y0080914D01*
X0094660Y0080653D02*
X0094112Y0080653D01*
X0094320Y0080445D02*
X0093851Y0080914D01*
X0091771Y0080914D01*
X0091302Y0080445D01*
X0091302Y0077027D01*
X0091771Y0076558D01*
X0093851Y0076558D01*
X0094320Y0077027D01*
X0094320Y0080445D01*
X0094320Y0080054D02*
X0094452Y0080054D01*
X0094452Y0079456D02*
X0094320Y0079456D01*
X0094320Y0078857D02*
X0094452Y0078857D01*
X0094452Y0078259D02*
X0094320Y0078259D01*
X0094320Y0077660D02*
X0094452Y0077660D01*
X0094452Y0077062D02*
X0094320Y0077062D01*
X0095534Y0074063D02*
X0094373Y0072903D01*
X0094373Y0071262D01*
X0095534Y0070101D01*
X0097175Y0070101D01*
X0098335Y0071262D01*
X0098335Y0072903D01*
X0097175Y0074063D01*
X0095534Y0074063D01*
X0094941Y0073471D02*
X0091862Y0073471D01*
X0092430Y0072872D02*
X0094373Y0072872D01*
X0094373Y0072274D02*
X0092430Y0072274D01*
X0092430Y0071675D02*
X0094373Y0071675D01*
X0094558Y0071077D02*
X0092245Y0071077D01*
X0091646Y0070478D02*
X0095157Y0070478D01*
X0095534Y0068158D02*
X0094373Y0066997D01*
X0094373Y0065356D01*
X0095534Y0064196D01*
X0097175Y0064196D01*
X0098335Y0065356D01*
X0098335Y0066997D01*
X0097175Y0068158D01*
X0095534Y0068158D01*
X0095460Y0068084D02*
X0091343Y0068084D01*
X0091942Y0067486D02*
X0094861Y0067486D01*
X0094373Y0066887D02*
X0092430Y0066887D01*
X0092430Y0066289D02*
X0094373Y0066289D01*
X0094373Y0065690D02*
X0092430Y0065690D01*
X0092165Y0065092D02*
X0094638Y0065092D01*
X0095236Y0064493D02*
X0091567Y0064493D01*
X0091485Y0063894D02*
X0118546Y0063894D01*
X0118546Y0064461D02*
X0118546Y0062381D01*
X0119015Y0061912D01*
X0122434Y0061912D01*
X0122902Y0062381D01*
X0122902Y0064461D01*
X0122673Y0064690D01*
X0122901Y0064822D01*
X0123143Y0065064D01*
X0123314Y0065360D01*
X0123402Y0065691D01*
X0123402Y0066516D01*
X0120779Y0066516D01*
X0120779Y0066625D01*
X0123402Y0066625D01*
X0123402Y0067450D01*
X0123314Y0067781D01*
X0123143Y0068077D01*
X0122901Y0068319D01*
X0122673Y0068451D01*
X0122902Y0068680D01*
X0122902Y0070760D01*
X0122434Y0071229D01*
X0119015Y0071229D01*
X0118546Y0070760D01*
X0118546Y0068680D01*
X0118776Y0068451D01*
X0118548Y0068319D01*
X0118306Y0068077D01*
X0118135Y0067781D01*
X0118046Y0067450D01*
X0118046Y0066625D01*
X0120670Y0066625D01*
X0120670Y0066516D01*
X0118046Y0066516D01*
X0118046Y0065691D01*
X0118135Y0065360D01*
X0118306Y0065064D01*
X0118548Y0064822D01*
X0118776Y0064690D01*
X0118546Y0064461D01*
X0118578Y0064493D02*
X0115189Y0064493D01*
X0114891Y0064196D02*
X0116052Y0065356D01*
X0116052Y0066997D01*
X0114891Y0068158D01*
X0113250Y0068158D01*
X0112090Y0066997D01*
X0112090Y0065356D01*
X0113250Y0064196D01*
X0114891Y0064196D01*
X0115787Y0065092D02*
X0118290Y0065092D01*
X0118047Y0065690D02*
X0116052Y0065690D01*
X0116052Y0066289D02*
X0118046Y0066289D01*
X0118046Y0066887D02*
X0116052Y0066887D01*
X0115564Y0067486D02*
X0118056Y0067486D01*
X0118313Y0068084D02*
X0114965Y0068084D01*
X0114795Y0069697D02*
X0115246Y0069884D01*
X0115652Y0070155D01*
X0115998Y0070501D01*
X0116270Y0070907D01*
X0116457Y0071359D01*
X0116543Y0071792D01*
X0114361Y0071792D01*
X0114361Y0069610D01*
X0114795Y0069697D01*
X0114361Y0069880D02*
X0113780Y0069880D01*
X0113780Y0069610D02*
X0113780Y0071792D01*
X0111599Y0071792D01*
X0111685Y0071359D01*
X0111872Y0070907D01*
X0112144Y0070501D01*
X0112489Y0070155D01*
X0112896Y0069884D01*
X0113347Y0069697D01*
X0113780Y0069610D01*
X0113780Y0070478D02*
X0114361Y0070478D01*
X0114361Y0071077D02*
X0113780Y0071077D01*
X0113780Y0071675D02*
X0114361Y0071675D01*
X0114361Y0071792D02*
X0113780Y0071792D01*
X0113780Y0072373D01*
X0111599Y0072373D01*
X0111685Y0072806D01*
X0111872Y0073258D01*
X0112144Y0073664D01*
X0112489Y0074010D01*
X0112896Y0074281D01*
X0113347Y0074468D01*
X0113780Y0074554D01*
X0113780Y0072373D01*
X0114361Y0072373D01*
X0114361Y0074554D01*
X0114795Y0074468D01*
X0115246Y0074281D01*
X0115652Y0074010D01*
X0115998Y0073664D01*
X0116270Y0073258D01*
X0116457Y0072806D01*
X0116543Y0072373D01*
X0114361Y0072373D01*
X0114361Y0071792D01*
X0114071Y0072082D02*
X0119583Y0066571D01*
X0120724Y0066571D01*
X0123136Y0068084D02*
X0126810Y0068084D01*
X0127408Y0067486D02*
X0123393Y0067486D01*
X0123402Y0066887D02*
X0128007Y0066887D01*
X0128428Y0066289D02*
X0123402Y0066289D01*
X0123402Y0065690D02*
X0128719Y0065690D01*
X0128759Y0067690D02*
X0127000Y0069449D01*
X0127000Y0077049D01*
X0127024Y0077073D01*
X0127200Y0077649D01*
X0128509Y0078259D02*
X0129846Y0078259D01*
X0129846Y0078857D02*
X0128181Y0078857D01*
X0128242Y0079456D02*
X0129846Y0079456D01*
X0129846Y0080054D02*
X0128321Y0080054D01*
X0128950Y0080653D02*
X0129846Y0080653D01*
X0130022Y0081251D02*
X0129579Y0081251D01*
X0130208Y0081850D02*
X0130884Y0081850D01*
X0130884Y0082448D02*
X0130838Y0082448D01*
X0130016Y0083185D02*
X0126353Y0079700D01*
X0125123Y0078259D02*
X0122535Y0078259D01*
X0123007Y0078857D02*
X0124525Y0078857D01*
X0124464Y0079456D02*
X0123007Y0079456D01*
X0122166Y0081137D02*
X0121901Y0081403D01*
X0121039Y0081403D01*
X0121039Y0082542D01*
X0120169Y0083411D01*
X0120330Y0083572D01*
X0120330Y0085137D01*
X0119223Y0086243D01*
X0117658Y0086243D01*
X0116552Y0085137D01*
X0116552Y0083572D01*
X0117421Y0082703D01*
X0117261Y0082542D01*
X0117261Y0081414D01*
X0117128Y0081414D01*
X0116797Y0081325D01*
X0116501Y0081154D01*
X0116433Y0081086D01*
X0116365Y0081154D01*
X0116069Y0081325D01*
X0115738Y0081414D01*
X0114913Y0081414D01*
X0114913Y0078790D01*
X0114804Y0078790D01*
X0114804Y0081414D01*
X0113978Y0081414D01*
X0113648Y0081325D01*
X0113351Y0081154D01*
X0113109Y0080912D01*
X0112978Y0080685D01*
X0112836Y0080827D01*
X0112921Y0087369D01*
X0114354Y0088802D01*
X0117079Y0088802D01*
X0117548Y0089271D01*
X0117548Y0092758D01*
X0118310Y0091996D01*
X0118310Y0089271D01*
X0118779Y0088802D01*
X0122198Y0088802D01*
X0122666Y0089271D01*
X0122666Y0091534D01*
X0127033Y0091534D01*
X0126716Y0091217D01*
X0126716Y0090114D01*
X0126947Y0089882D01*
X0126947Y0086026D01*
X0124389Y0083467D01*
X0123273Y0083467D01*
X0122166Y0082361D01*
X0122166Y0081137D01*
X0122166Y0081251D02*
X0122052Y0081251D01*
X0122166Y0081850D02*
X0121039Y0081850D01*
X0121039Y0082448D02*
X0122254Y0082448D01*
X0122853Y0083047D02*
X0120533Y0083047D01*
X0120330Y0083645D02*
X0124567Y0083645D01*
X0125165Y0084244D02*
X0120330Y0084244D01*
X0120330Y0084842D02*
X0125764Y0084842D01*
X0126362Y0085441D02*
X0120026Y0085441D01*
X0119427Y0086039D02*
X0126947Y0086039D01*
X0126947Y0086638D02*
X0112911Y0086638D01*
X0112919Y0087236D02*
X0126947Y0087236D01*
X0126947Y0087835D02*
X0113387Y0087835D01*
X0113985Y0088433D02*
X0126947Y0088433D01*
X0126947Y0089032D02*
X0122427Y0089032D01*
X0122666Y0089630D02*
X0126947Y0089630D01*
X0126716Y0090229D02*
X0122666Y0090229D01*
X0122666Y0090827D02*
X0126716Y0090827D01*
X0126925Y0091426D02*
X0122666Y0091426D01*
X0121748Y0092634D02*
X0120488Y0091374D01*
X0110619Y0101243D01*
X0110619Y0102847D01*
X0110150Y0103315D01*
X0106338Y0103315D01*
X0103963Y0100941D01*
X0102339Y0100941D01*
X0096896Y0095498D01*
X0096896Y0089130D01*
X0090921Y0089130D01*
X0093158Y0090827D02*
X0095796Y0090827D01*
X0095796Y0091426D02*
X0093543Y0091426D01*
X0093599Y0092025D02*
X0095796Y0092025D01*
X0095796Y0092623D02*
X0093599Y0092623D01*
X0093599Y0093222D02*
X0095796Y0093222D01*
X0095796Y0093820D02*
X0091221Y0093820D01*
X0091221Y0094419D02*
X0090621Y0094419D01*
X0090621Y0095017D02*
X0091221Y0095017D01*
X0091221Y0095616D02*
X0090621Y0095616D01*
X0090621Y0096214D02*
X0091221Y0096214D01*
X0093274Y0096214D02*
X0096056Y0096214D01*
X0095796Y0095616D02*
X0093574Y0095616D01*
X0093599Y0095017D02*
X0095796Y0095017D01*
X0095796Y0094419D02*
X0093599Y0094419D01*
X0096655Y0096813D02*
X0088547Y0096813D01*
X0085803Y0093578D02*
X0085803Y0089130D01*
X0085803Y0079445D01*
X0086512Y0078736D01*
X0088020Y0078857D02*
X0088153Y0078857D01*
X0088153Y0078259D02*
X0088020Y0078259D01*
X0088020Y0077660D02*
X0088153Y0077660D01*
X0088153Y0077062D02*
X0088020Y0077062D01*
X0088468Y0076463D02*
X0085973Y0076463D01*
X0085973Y0075865D02*
X0088468Y0075865D01*
X0088468Y0075266D02*
X0085973Y0075266D01*
X0085662Y0074668D02*
X0088412Y0074668D01*
X0087813Y0074069D02*
X0085814Y0074069D01*
X0085973Y0073910D02*
X0085505Y0074378D01*
X0082086Y0074378D01*
X0081617Y0073910D01*
X0081617Y0071830D01*
X0082086Y0071361D01*
X0085505Y0071361D01*
X0085973Y0071830D01*
X0085973Y0073910D01*
X0085973Y0073471D02*
X0087215Y0073471D01*
X0087180Y0072872D02*
X0085973Y0072872D01*
X0085973Y0072274D02*
X0087180Y0072274D01*
X0087180Y0071675D02*
X0085819Y0071675D01*
X0085657Y0071077D02*
X0087180Y0071077D01*
X0087180Y0070478D02*
X0085973Y0070478D01*
X0085973Y0069880D02*
X0087180Y0069880D01*
X0087180Y0069281D02*
X0085973Y0069281D01*
X0085973Y0068683D02*
X0087180Y0068683D01*
X0087180Y0068084D02*
X0079950Y0068084D01*
X0081617Y0067611D02*
X0081617Y0065531D01*
X0082086Y0065062D01*
X0085505Y0065062D01*
X0085973Y0065531D01*
X0085973Y0067611D01*
X0085505Y0068079D01*
X0082086Y0068079D01*
X0081617Y0067611D01*
X0081617Y0067486D02*
X0075154Y0067486D01*
X0075159Y0066887D02*
X0081617Y0066887D01*
X0081617Y0066289D02*
X0079950Y0066289D01*
X0079950Y0065690D02*
X0081617Y0065690D01*
X0082056Y0065092D02*
X0079950Y0065092D01*
X0079950Y0064493D02*
X0081649Y0064493D01*
X0081617Y0064461D02*
X0081617Y0062381D01*
X0082086Y0061912D01*
X0085505Y0061912D01*
X0085973Y0062381D01*
X0085973Y0064461D01*
X0085505Y0064930D01*
X0082086Y0064930D01*
X0081617Y0064461D01*
X0081617Y0063894D02*
X0079950Y0063894D01*
X0079950Y0063296D02*
X0081617Y0063296D01*
X0081617Y0062697D02*
X0079715Y0062697D01*
X0078509Y0062099D02*
X0081899Y0062099D01*
X0082086Y0061780D02*
X0081617Y0061311D01*
X0081617Y0059231D01*
X0082086Y0058763D01*
X0085505Y0058763D01*
X0085973Y0059231D01*
X0085973Y0061311D01*
X0085505Y0061780D01*
X0082086Y0061780D01*
X0081806Y0061500D02*
X0078516Y0061500D01*
X0078523Y0060902D02*
X0081617Y0060902D01*
X0081617Y0060303D02*
X0078531Y0060303D01*
X0078538Y0059705D02*
X0081617Y0059705D01*
X0081742Y0059106D02*
X0078545Y0059106D01*
X0078553Y0058508D02*
X0081963Y0058508D01*
X0082086Y0058630D02*
X0081617Y0058162D01*
X0081617Y0056082D01*
X0082086Y0055613D01*
X0085505Y0055613D01*
X0085973Y0056082D01*
X0085973Y0058162D01*
X0085505Y0058630D01*
X0082086Y0058630D01*
X0081617Y0057909D02*
X0078560Y0057909D01*
X0078567Y0057311D02*
X0081617Y0057311D01*
X0081617Y0056712D02*
X0078574Y0056712D01*
X0078582Y0056114D02*
X0081617Y0056114D01*
X0082086Y0055481D02*
X0081617Y0055012D01*
X0081617Y0052932D01*
X0082086Y0052463D01*
X0085505Y0052463D01*
X0085973Y0052932D01*
X0085973Y0055012D01*
X0085505Y0055481D01*
X0082086Y0055481D01*
X0081617Y0054917D02*
X0080168Y0054917D01*
X0080645Y0054318D02*
X0081617Y0054318D01*
X0081617Y0053720D02*
X0080645Y0053720D01*
X0080645Y0053121D02*
X0081617Y0053121D01*
X0082027Y0052523D02*
X0080293Y0052523D01*
X0079694Y0051924D02*
X0081679Y0051924D01*
X0081617Y0051863D02*
X0082086Y0052331D01*
X0085505Y0052331D01*
X0085973Y0051863D01*
X0085973Y0049783D01*
X0085505Y0049314D01*
X0082086Y0049314D01*
X0081617Y0049783D01*
X0081617Y0051863D01*
X0081617Y0051326D02*
X0069779Y0051326D01*
X0069779Y0050727D02*
X0081617Y0050727D01*
X0081617Y0050129D02*
X0072473Y0050129D01*
X0072301Y0050301D02*
X0070736Y0050301D01*
X0069630Y0049194D01*
X0069630Y0048361D01*
X0068566Y0047298D01*
X0065665Y0047298D01*
X0065665Y0047707D01*
X0065197Y0048175D01*
X0060991Y0048175D01*
X0060522Y0047707D01*
X0060522Y0044288D01*
X0060991Y0043820D01*
X0065197Y0043820D01*
X0065665Y0044288D01*
X0065665Y0044698D01*
X0069643Y0044698D01*
X0071468Y0046523D01*
X0072301Y0046523D01*
X0073408Y0047629D01*
X0073408Y0049194D01*
X0072301Y0050301D01*
X0073072Y0049530D02*
X0081870Y0049530D01*
X0082086Y0049182D02*
X0081617Y0048713D01*
X0081617Y0046633D01*
X0082086Y0046164D01*
X0085505Y0046164D01*
X0085973Y0046633D01*
X0085973Y0048713D01*
X0085505Y0049182D01*
X0082086Y0049182D01*
X0081836Y0048932D02*
X0073408Y0048932D01*
X0073408Y0048333D02*
X0081617Y0048333D01*
X0081617Y0047735D02*
X0073408Y0047735D01*
X0072914Y0047136D02*
X0081617Y0047136D01*
X0081713Y0046538D02*
X0072316Y0046538D01*
X0070884Y0045939D02*
X0081993Y0045939D01*
X0082086Y0046032D02*
X0081617Y0045563D01*
X0081617Y0043483D01*
X0082086Y0043015D01*
X0084503Y0043015D01*
X0084503Y0041861D01*
X0086457Y0041861D01*
X0086457Y0044485D01*
X0085973Y0044485D01*
X0085973Y0045563D01*
X0085505Y0046032D01*
X0082086Y0046032D01*
X0081617Y0045341D02*
X0070286Y0045341D01*
X0069687Y0044742D02*
X0081617Y0044742D01*
X0081617Y0044144D02*
X0065521Y0044144D01*
X0065637Y0047735D02*
X0069003Y0047735D01*
X0069602Y0048333D02*
X0059103Y0048333D01*
X0059102Y0047735D02*
X0060550Y0047735D01*
X0060522Y0047136D02*
X0059100Y0047136D01*
X0059099Y0046538D02*
X0060522Y0046538D01*
X0060522Y0045939D02*
X0059097Y0045939D01*
X0059096Y0045341D02*
X0060522Y0045341D01*
X0060522Y0044742D02*
X0059094Y0044742D01*
X0059092Y0044144D02*
X0060667Y0044144D01*
X0059091Y0043545D02*
X0081617Y0043545D01*
X0081899Y0042348D02*
X0084503Y0042348D01*
X0084503Y0041752D02*
X0084503Y0040258D01*
X0084592Y0039927D01*
X0084763Y0039631D01*
X0085005Y0039389D01*
X0085301Y0039217D01*
X0085632Y0039129D01*
X0086457Y0039129D01*
X0086457Y0041752D01*
X0084503Y0041752D01*
X0084503Y0041750D02*
X0082498Y0041750D01*
X0082986Y0041151D02*
X0084503Y0041151D01*
X0084503Y0040553D02*
X0082986Y0040553D01*
X0082986Y0039954D02*
X0084585Y0039954D01*
X0085062Y0039356D02*
X0082645Y0039356D01*
X0082336Y0038757D02*
X0087108Y0038757D01*
X0086682Y0038159D02*
X0082336Y0038159D01*
X0082877Y0037560D02*
X0086256Y0037560D01*
X0086457Y0039356D02*
X0086566Y0039356D01*
X0086566Y0039954D02*
X0086457Y0039954D01*
X0086457Y0040553D02*
X0086566Y0040553D01*
X0086566Y0041151D02*
X0086457Y0041151D01*
X0086457Y0041750D02*
X0086566Y0041750D01*
X0086512Y0041807D02*
X0086512Y0044523D01*
X0090449Y0048460D01*
X0090449Y0054366D01*
X0096354Y0054366D01*
X0102260Y0054366D01*
X0102550Y0054318D02*
X0106184Y0054318D01*
X0106184Y0053720D02*
X0104661Y0053720D01*
X0104646Y0053642D02*
X0104732Y0054075D01*
X0102550Y0054075D01*
X0102550Y0051894D01*
X0102984Y0051980D01*
X0103435Y0052167D01*
X0103841Y0052439D01*
X0104187Y0052784D01*
X0104459Y0053191D01*
X0104646Y0053642D01*
X0104412Y0053121D02*
X0106608Y0053121D01*
X0106184Y0053545D02*
X0107345Y0052385D01*
X0108986Y0052385D01*
X0110146Y0053545D01*
X0110146Y0055186D01*
X0108986Y0056347D01*
X0107345Y0056347D01*
X0106184Y0055186D01*
X0106184Y0053545D01*
X0106184Y0054917D02*
X0104680Y0054917D01*
X0104646Y0055090D02*
X0104459Y0055541D01*
X0104187Y0055947D01*
X0103841Y0056293D01*
X0103435Y0056565D01*
X0102984Y0056752D01*
X0102550Y0056838D01*
X0102550Y0054656D01*
X0101969Y0054656D01*
X0101969Y0054075D01*
X0102550Y0054075D01*
X0102550Y0054656D01*
X0104732Y0054656D01*
X0104646Y0055090D01*
X0104469Y0055515D02*
X0106513Y0055515D01*
X0107112Y0056114D02*
X0104021Y0056114D01*
X0103078Y0056712D02*
X0113252Y0056712D01*
X0113347Y0056752D02*
X0112896Y0056565D01*
X0112489Y0056293D01*
X0112144Y0055947D01*
X0111872Y0055541D01*
X0111685Y0055090D01*
X0111599Y0054656D01*
X0113780Y0054656D01*
X0113780Y0054075D01*
X0114361Y0054075D01*
X0114361Y0051894D01*
X0114795Y0051980D01*
X0115246Y0052167D01*
X0115652Y0052439D01*
X0115998Y0052784D01*
X0116270Y0053191D01*
X0116457Y0053642D01*
X0116543Y0054075D01*
X0114361Y0054075D01*
X0114361Y0054656D01*
X0113780Y0054656D01*
X0113780Y0056838D01*
X0113347Y0056752D01*
X0113780Y0056712D02*
X0114361Y0056712D01*
X0114361Y0056838D02*
X0114361Y0054656D01*
X0116543Y0054656D01*
X0116457Y0055090D01*
X0116270Y0055541D01*
X0115998Y0055947D01*
X0115652Y0056293D01*
X0115246Y0056565D01*
X0114795Y0056752D01*
X0114361Y0056838D01*
X0114889Y0056712D02*
X0118546Y0056712D01*
X0118546Y0056114D02*
X0115832Y0056114D01*
X0116280Y0055515D02*
X0118343Y0055515D01*
X0118306Y0055479D02*
X0118135Y0055183D01*
X0118046Y0054852D01*
X0118046Y0054026D01*
X0120670Y0054026D01*
X0120670Y0053918D01*
X0118046Y0053918D01*
X0118046Y0053092D01*
X0118135Y0052762D01*
X0118306Y0052465D01*
X0118548Y0052223D01*
X0118776Y0052092D01*
X0118546Y0051863D01*
X0118546Y0049783D01*
X0118776Y0049553D01*
X0118548Y0049422D01*
X0118306Y0049180D01*
X0118135Y0048883D01*
X0118046Y0048553D01*
X0118046Y0047727D01*
X0120670Y0047727D01*
X0120670Y0047619D01*
X0118046Y0047619D01*
X0118046Y0046793D01*
X0118135Y0046462D01*
X0118306Y0046166D01*
X0118374Y0046098D01*
X0118306Y0046030D01*
X0118135Y0045734D01*
X0118046Y0045403D01*
X0118046Y0044578D01*
X0120670Y0044578D01*
X0120670Y0047619D01*
X0120779Y0047619D01*
X0120779Y0047727D01*
X0123402Y0047727D01*
X0123402Y0048553D01*
X0123314Y0048883D01*
X0123143Y0049180D01*
X0122901Y0049422D01*
X0122673Y0049553D01*
X0122902Y0049783D01*
X0122902Y0051863D01*
X0122673Y0052092D01*
X0122901Y0052223D01*
X0123143Y0052465D01*
X0123314Y0052762D01*
X0123402Y0053092D01*
X0123402Y0053098D01*
X0127265Y0049235D01*
X0127265Y0037516D01*
X0126944Y0037516D01*
X0126944Y0038996D01*
X0125838Y0040103D01*
X0124273Y0040103D01*
X0123166Y0038996D01*
X0123166Y0037431D01*
X0124273Y0036325D01*
X0124578Y0036325D01*
X0123878Y0035624D01*
X0123878Y0034059D01*
X0124984Y0032953D01*
X0126549Y0032953D01*
X0127656Y0034059D01*
X0127656Y0035175D01*
X0127797Y0035316D01*
X0128585Y0035316D01*
X0128585Y0032971D01*
X0129053Y0032502D01*
X0129708Y0032502D01*
X0129708Y0032487D01*
X0128919Y0031699D01*
X0128919Y0030134D01*
X0130026Y0029027D01*
X0131590Y0029027D01*
X0132697Y0030134D01*
X0132697Y0031699D01*
X0131908Y0032487D01*
X0131908Y0032502D01*
X0132472Y0032502D01*
X0132941Y0032971D01*
X0132941Y0037177D01*
X0132931Y0037186D01*
X0132986Y0037241D01*
X0132986Y0041402D01*
X0133020Y0041436D01*
X0133020Y0045007D01*
X0133059Y0045029D01*
X0133301Y0045272D01*
X0133472Y0045568D01*
X0133561Y0045899D01*
X0133561Y0047541D01*
X0131183Y0047541D01*
X0131183Y0048141D01*
X0133561Y0048141D01*
X0133561Y0049784D01*
X0133472Y0050115D01*
X0133301Y0050411D01*
X0133059Y0050653D01*
X0132763Y0050824D01*
X0132432Y0050913D01*
X0131183Y0050913D01*
X0131183Y0048141D01*
X0130583Y0048141D01*
X0130583Y0050913D01*
X0129334Y0050913D01*
X0129003Y0050824D01*
X0128866Y0050745D01*
X0123575Y0056036D01*
X0122931Y0056681D01*
X0122902Y0056681D01*
X0122902Y0058162D01*
X0122434Y0058630D01*
X0119015Y0058630D01*
X0118546Y0058162D01*
X0118546Y0056082D01*
X0118776Y0055852D01*
X0118548Y0055721D01*
X0118306Y0055479D01*
X0118064Y0054917D02*
X0116491Y0054917D01*
X0116472Y0053720D02*
X0118046Y0053720D01*
X0118046Y0054318D02*
X0114361Y0054318D01*
X0114071Y0054366D02*
X0114465Y0053972D01*
X0120724Y0053972D01*
X0122265Y0055581D02*
X0120724Y0057122D01*
X0122265Y0055581D02*
X0122475Y0055581D01*
X0128365Y0049691D01*
X0128365Y0036416D01*
X0127341Y0036416D01*
X0125767Y0034842D01*
X0126967Y0033370D02*
X0128585Y0033370D01*
X0128585Y0033969D02*
X0127565Y0033969D01*
X0127656Y0034567D02*
X0128585Y0034567D01*
X0128585Y0035166D02*
X0127656Y0035166D01*
X0127265Y0037560D02*
X0126944Y0037560D01*
X0126944Y0038159D02*
X0127265Y0038159D01*
X0127265Y0038757D02*
X0126944Y0038757D01*
X0127265Y0039356D02*
X0126585Y0039356D01*
X0125986Y0039954D02*
X0127265Y0039954D01*
X0127265Y0040553D02*
X0119517Y0040553D01*
X0119517Y0041151D02*
X0127265Y0041151D01*
X0127265Y0041750D02*
X0119517Y0041750D01*
X0119517Y0042348D02*
X0127265Y0042348D01*
X0127265Y0042947D02*
X0123073Y0042947D01*
X0123143Y0043016D02*
X0123314Y0043313D01*
X0123402Y0043644D01*
X0123402Y0044469D01*
X0120779Y0044469D01*
X0120779Y0044578D01*
X0120670Y0044578D01*
X0120670Y0044469D01*
X0120779Y0044469D01*
X0120779Y0042515D01*
X0122274Y0042515D01*
X0122604Y0042603D01*
X0122901Y0042774D01*
X0123143Y0043016D01*
X0123376Y0043545D02*
X0127265Y0043545D01*
X0127265Y0044144D02*
X0123402Y0044144D01*
X0123402Y0044578D02*
X0123402Y0045403D01*
X0123314Y0045734D01*
X0123143Y0046030D01*
X0123075Y0046098D01*
X0123143Y0046166D01*
X0123314Y0046462D01*
X0123402Y0046793D01*
X0123402Y0047619D01*
X0120779Y0047619D01*
X0120779Y0045664D01*
X0120779Y0044578D01*
X0123402Y0044578D01*
X0123402Y0044742D02*
X0127265Y0044742D01*
X0127265Y0045341D02*
X0123402Y0045341D01*
X0123195Y0045939D02*
X0127265Y0045939D01*
X0127265Y0046538D02*
X0123334Y0046538D01*
X0123402Y0047136D02*
X0127265Y0047136D01*
X0127265Y0047735D02*
X0123402Y0047735D01*
X0123402Y0048333D02*
X0127265Y0048333D01*
X0127265Y0048932D02*
X0123286Y0048932D01*
X0122713Y0049530D02*
X0126970Y0049530D01*
X0126372Y0050129D02*
X0122902Y0050129D01*
X0122902Y0050727D02*
X0125773Y0050727D01*
X0125175Y0051326D02*
X0122902Y0051326D01*
X0122841Y0051924D02*
X0124576Y0051924D01*
X0123978Y0052523D02*
X0123176Y0052523D01*
X0124695Y0054917D02*
X0137725Y0054917D01*
X0137602Y0055040D02*
X0138709Y0053934D01*
X0140273Y0053934D01*
X0141380Y0055040D01*
X0141380Y0056605D01*
X0140273Y0057712D01*
X0138709Y0057712D01*
X0138309Y0057312D01*
X0138309Y0058163D01*
X0138806Y0058163D01*
X0139913Y0059269D01*
X0139913Y0060834D01*
X0138806Y0061941D01*
X0137241Y0061941D01*
X0136135Y0060834D01*
X0136135Y0059758D01*
X0135638Y0059758D01*
X0134531Y0058651D01*
X0134531Y0057086D01*
X0135638Y0055980D01*
X0137203Y0055980D01*
X0137602Y0056379D01*
X0137602Y0055040D01*
X0137602Y0055515D02*
X0124096Y0055515D01*
X0123498Y0056114D02*
X0135504Y0056114D01*
X0134905Y0056712D02*
X0122902Y0056712D01*
X0122902Y0057311D02*
X0134531Y0057311D01*
X0134531Y0057909D02*
X0122902Y0057909D01*
X0122556Y0058508D02*
X0134531Y0058508D01*
X0134986Y0059106D02*
X0122777Y0059106D01*
X0122902Y0059231D02*
X0122902Y0061311D01*
X0122434Y0061780D01*
X0119015Y0061780D01*
X0118546Y0061311D01*
X0118546Y0059231D01*
X0119015Y0058763D01*
X0122434Y0058763D01*
X0122902Y0059231D01*
X0122902Y0059705D02*
X0135585Y0059705D01*
X0136135Y0060303D02*
X0122902Y0060303D01*
X0122902Y0060902D02*
X0136203Y0060902D01*
X0136801Y0061500D02*
X0122713Y0061500D01*
X0122620Y0062099D02*
X0195591Y0062099D01*
X0195592Y0062697D02*
X0142064Y0062697D01*
X0142050Y0062683D02*
X0143156Y0063789D01*
X0143156Y0065354D01*
X0142050Y0066461D01*
X0140485Y0066461D01*
X0139378Y0065354D01*
X0139378Y0063789D01*
X0140485Y0062683D01*
X0142050Y0062683D01*
X0142663Y0063296D02*
X0195592Y0063296D01*
X0195592Y0063894D02*
X0143156Y0063894D01*
X0143156Y0064493D02*
X0195592Y0064493D01*
X0195592Y0065092D02*
X0143156Y0065092D01*
X0142820Y0065690D02*
X0195592Y0065690D01*
X0195592Y0066289D02*
X0142222Y0066289D01*
X0140313Y0066289D02*
X0139375Y0066289D01*
X0139375Y0066887D02*
X0195592Y0066887D01*
X0195592Y0067486D02*
X0139375Y0067486D01*
X0139375Y0068084D02*
X0195592Y0068084D01*
X0195593Y0068683D02*
X0139375Y0068683D01*
X0139375Y0069281D02*
X0145979Y0069281D01*
X0145944Y0069316D02*
X0146186Y0069074D01*
X0146482Y0068902D01*
X0146813Y0068814D01*
X0149046Y0068814D01*
X0149046Y0071389D01*
X0145684Y0071389D01*
X0145684Y0069943D01*
X0145773Y0069612D01*
X0145944Y0069316D01*
X0145701Y0069880D02*
X0139375Y0069880D01*
X0138954Y0071675D02*
X0149046Y0071675D01*
X0149046Y0071389D02*
X0149046Y0071989D01*
X0145684Y0071989D01*
X0145684Y0073435D01*
X0145773Y0073765D01*
X0145944Y0074062D01*
X0146186Y0074304D01*
X0146482Y0074475D01*
X0146813Y0074563D01*
X0149046Y0074563D01*
X0149046Y0071989D01*
X0149646Y0071989D01*
X0149646Y0074563D01*
X0151880Y0074563D01*
X0152210Y0074475D01*
X0152507Y0074304D01*
X0152749Y0074062D01*
X0152920Y0073765D01*
X0153009Y0073435D01*
X0153009Y0071989D01*
X0149646Y0071989D01*
X0149646Y0071389D01*
X0149646Y0068814D01*
X0151880Y0068814D01*
X0152210Y0068902D01*
X0152507Y0069074D01*
X0152749Y0069316D01*
X0152920Y0069612D01*
X0153009Y0069943D01*
X0153009Y0071389D01*
X0149646Y0071389D01*
X0149046Y0071389D01*
X0149046Y0071077D02*
X0149646Y0071077D01*
X0149646Y0071675D02*
X0195593Y0071675D01*
X0195593Y0071077D02*
X0153009Y0071077D01*
X0153009Y0070478D02*
X0195593Y0070478D01*
X0195593Y0069880D02*
X0152992Y0069880D01*
X0152714Y0069281D02*
X0195593Y0069281D01*
X0195593Y0072274D02*
X0153009Y0072274D01*
X0153009Y0072872D02*
X0195593Y0072872D01*
X0195593Y0073471D02*
X0152999Y0073471D01*
X0152741Y0074069D02*
X0195593Y0074069D01*
X0195593Y0074668D02*
X0139375Y0074668D01*
X0139375Y0075266D02*
X0195594Y0075266D01*
X0195594Y0075865D02*
X0139375Y0075865D01*
X0138914Y0076463D02*
X0146590Y0076463D01*
X0146653Y0076400D02*
X0152040Y0076400D01*
X0152509Y0076869D01*
X0152509Y0077675D01*
X0153790Y0077675D01*
X0156321Y0077671D01*
X0157113Y0076879D01*
X0158678Y0076879D01*
X0159785Y0077985D01*
X0159785Y0079550D01*
X0159196Y0080139D01*
X0159196Y0084286D01*
X0159217Y0084310D01*
X0159196Y0084820D01*
X0159196Y0085332D01*
X0159173Y0085354D01*
X0159172Y0085386D01*
X0158796Y0085732D01*
X0158434Y0086093D01*
X0158402Y0086093D01*
X0155776Y0088508D01*
X0155776Y0091587D01*
X0155308Y0092056D01*
X0150708Y0092056D01*
X0150239Y0091587D01*
X0150239Y0086987D01*
X0150708Y0086519D01*
X0154098Y0086519D01*
X0156596Y0084222D01*
X0156596Y0080139D01*
X0156327Y0079871D01*
X0154245Y0079874D01*
X0154244Y0079875D01*
X0153787Y0079875D01*
X0153335Y0079876D01*
X0153334Y0079875D01*
X0152509Y0079875D01*
X0152509Y0080681D01*
X0152040Y0081150D01*
X0146653Y0081150D01*
X0146184Y0080681D01*
X0146184Y0076869D01*
X0146653Y0076400D01*
X0146184Y0077062D02*
X0139320Y0077062D01*
X0139320Y0077660D02*
X0146184Y0077660D01*
X0146184Y0078259D02*
X0139320Y0078259D01*
X0139320Y0078857D02*
X0146184Y0078857D01*
X0146184Y0079456D02*
X0139320Y0079456D01*
X0139320Y0080054D02*
X0146184Y0080054D01*
X0146184Y0080653D02*
X0139320Y0080653D01*
X0139144Y0081251D02*
X0156596Y0081251D01*
X0156596Y0080653D02*
X0152509Y0080653D01*
X0152509Y0080054D02*
X0156511Y0080054D01*
X0156596Y0081850D02*
X0138748Y0081850D01*
X0139347Y0082448D02*
X0156596Y0082448D01*
X0156596Y0083047D02*
X0139945Y0083047D01*
X0140544Y0083645D02*
X0156596Y0083645D01*
X0156572Y0084244D02*
X0141142Y0084244D01*
X0141741Y0084842D02*
X0155921Y0084842D01*
X0155270Y0085441D02*
X0142339Y0085441D01*
X0142938Y0086039D02*
X0154619Y0086039D01*
X0156508Y0087835D02*
X0195595Y0087835D01*
X0195596Y0088433D02*
X0194153Y0088433D01*
X0193751Y0088032D02*
X0194858Y0089138D01*
X0194858Y0090703D01*
X0193751Y0091810D01*
X0192186Y0091810D01*
X0191080Y0090703D01*
X0191080Y0089138D01*
X0192186Y0088032D01*
X0193751Y0088032D01*
X0194751Y0089032D02*
X0195596Y0089032D01*
X0195596Y0089630D02*
X0194858Y0089630D01*
X0194858Y0090229D02*
X0195596Y0090229D01*
X0195596Y0090827D02*
X0194734Y0090827D01*
X0194135Y0091426D02*
X0195596Y0091426D01*
X0195596Y0092025D02*
X0192119Y0092025D01*
X0192129Y0092028D02*
X0192725Y0092331D01*
X0193267Y0092725D01*
X0193740Y0093198D01*
X0194133Y0093740D01*
X0194437Y0094336D01*
X0194644Y0094973D01*
X0194749Y0095634D01*
X0194749Y0095669D01*
X0190796Y0095669D01*
X0190796Y0096269D01*
X0190196Y0096269D01*
X0190196Y0100221D01*
X0190161Y0100221D01*
X0189500Y0100117D01*
X0188864Y0099910D01*
X0188267Y0099606D01*
X0187726Y0099213D01*
X0187252Y0098739D01*
X0186859Y0098198D01*
X0186555Y0097601D01*
X0186348Y0096965D01*
X0186243Y0096303D01*
X0186243Y0096269D01*
X0190196Y0096269D01*
X0190196Y0095669D01*
X0186243Y0095669D01*
X0186243Y0095634D01*
X0186348Y0094973D01*
X0186555Y0094336D01*
X0186859Y0093740D01*
X0187252Y0093198D01*
X0187726Y0092725D01*
X0188267Y0092331D01*
X0188864Y0092028D01*
X0189500Y0091821D01*
X0190161Y0091716D01*
X0190196Y0091716D01*
X0190196Y0095669D01*
X0190796Y0095669D01*
X0190796Y0091716D01*
X0190831Y0091716D01*
X0191492Y0091821D01*
X0192129Y0092028D01*
X0191803Y0091426D02*
X0155776Y0091426D01*
X0155776Y0090827D02*
X0191204Y0090827D01*
X0191080Y0090229D02*
X0155776Y0090229D01*
X0155776Y0089630D02*
X0191080Y0089630D01*
X0191186Y0089032D02*
X0155776Y0089032D01*
X0155857Y0088433D02*
X0191785Y0088433D01*
X0190796Y0092025D02*
X0190196Y0092025D01*
X0190196Y0092623D02*
X0190796Y0092623D01*
X0190796Y0093222D02*
X0190196Y0093222D01*
X0190196Y0093820D02*
X0190796Y0093820D01*
X0190796Y0094419D02*
X0190196Y0094419D01*
X0190196Y0095017D02*
X0190796Y0095017D01*
X0190796Y0095616D02*
X0190196Y0095616D01*
X0190196Y0096214D02*
X0168317Y0096214D01*
X0168317Y0095690D02*
X0168317Y0097255D01*
X0167210Y0098361D01*
X0165645Y0098361D01*
X0164539Y0097255D01*
X0164539Y0095690D01*
X0165645Y0094584D01*
X0167210Y0094584D01*
X0168317Y0095690D01*
X0168242Y0095616D02*
X0186246Y0095616D01*
X0186341Y0095017D02*
X0167644Y0095017D01*
X0168317Y0096813D02*
X0186324Y0096813D01*
X0186493Y0097411D02*
X0168161Y0097411D01*
X0167562Y0098010D02*
X0186763Y0098010D01*
X0187157Y0098608D02*
X0162413Y0098608D01*
X0163066Y0099207D02*
X0187720Y0099207D01*
X0188658Y0099805D02*
X0163720Y0099805D01*
X0164374Y0100404D02*
X0190834Y0100404D01*
X0190723Y0100515D02*
X0191051Y0100187D01*
X0190831Y0100221D01*
X0190796Y0100221D01*
X0190796Y0096269D01*
X0194749Y0096269D01*
X0194749Y0096303D01*
X0194644Y0096965D01*
X0194437Y0097601D01*
X0194133Y0098198D01*
X0193740Y0098739D01*
X0193267Y0099213D01*
X0192998Y0099408D01*
X0193394Y0099408D01*
X0194501Y0100515D01*
X0194501Y0102079D01*
X0193394Y0103186D01*
X0191829Y0103186D01*
X0190723Y0102079D01*
X0190723Y0100515D01*
X0190723Y0101002D02*
X0165027Y0101002D01*
X0165681Y0101601D02*
X0190723Y0101601D01*
X0190843Y0102199D02*
X0173932Y0102199D01*
X0174462Y0102798D02*
X0191441Y0102798D01*
X0193783Y0102798D02*
X0195598Y0102798D01*
X0195598Y0103396D02*
X0174462Y0103396D01*
X0174462Y0103995D02*
X0195598Y0103995D01*
X0195598Y0104593D02*
X0174163Y0104593D01*
X0172573Y0103512D02*
X0172541Y0103480D01*
X0166104Y0103480D01*
X0160939Y0098750D01*
X0153008Y0098736D01*
X0150737Y0098736D01*
X0147869Y0101604D01*
X0141649Y0101604D01*
X0138098Y0098054D01*
X0139423Y0096034D02*
X0140770Y0094686D01*
X0140770Y0094439D01*
X0145528Y0089287D01*
X0148296Y0089032D02*
X0150239Y0089032D01*
X0150239Y0089630D02*
X0148296Y0089630D01*
X0148296Y0090229D02*
X0150239Y0090229D01*
X0150239Y0090827D02*
X0148296Y0090827D01*
X0148296Y0091426D02*
X0150239Y0091426D01*
X0150677Y0092025D02*
X0147859Y0092025D01*
X0147667Y0095467D02*
X0145828Y0095467D01*
X0145828Y0098436D01*
X0148796Y0098436D01*
X0148796Y0096596D01*
X0148707Y0096266D01*
X0148536Y0095969D01*
X0148294Y0095727D01*
X0147998Y0095556D01*
X0147667Y0095467D01*
X0148101Y0095616D02*
X0164613Y0095616D01*
X0164539Y0096214D02*
X0155554Y0096214D01*
X0155776Y0096813D02*
X0164539Y0096813D01*
X0164695Y0097411D02*
X0155776Y0097411D01*
X0155339Y0092025D02*
X0188873Y0092025D01*
X0187866Y0092623D02*
X0143944Y0092623D01*
X0143391Y0093222D02*
X0187235Y0093222D01*
X0186818Y0093820D02*
X0142838Y0093820D01*
X0142286Y0094419D02*
X0186528Y0094419D01*
X0190196Y0096813D02*
X0190796Y0096813D01*
X0190796Y0097411D02*
X0190196Y0097411D01*
X0190196Y0098010D02*
X0190796Y0098010D01*
X0190796Y0098608D02*
X0190196Y0098608D01*
X0190196Y0099207D02*
X0190796Y0099207D01*
X0190796Y0099805D02*
X0190196Y0099805D01*
X0193273Y0099207D02*
X0195597Y0099207D01*
X0195597Y0099805D02*
X0193791Y0099805D01*
X0194390Y0100404D02*
X0195597Y0100404D01*
X0195597Y0101002D02*
X0194501Y0101002D01*
X0194501Y0101601D02*
X0195598Y0101601D01*
X0195598Y0102199D02*
X0194381Y0102199D01*
X0193835Y0098608D02*
X0195597Y0098608D01*
X0195597Y0098010D02*
X0194229Y0098010D01*
X0194499Y0097411D02*
X0195597Y0097411D01*
X0195597Y0096813D02*
X0194668Y0096813D01*
X0195597Y0096214D02*
X0190796Y0096214D01*
X0194746Y0095616D02*
X0195597Y0095616D01*
X0195597Y0095017D02*
X0194651Y0095017D01*
X0194464Y0094419D02*
X0195596Y0094419D01*
X0195596Y0093820D02*
X0194174Y0093820D01*
X0193757Y0093222D02*
X0195596Y0093222D01*
X0195596Y0092623D02*
X0193126Y0092623D01*
X0195595Y0087236D02*
X0157159Y0087236D01*
X0157810Y0086638D02*
X0195595Y0086638D01*
X0195595Y0086039D02*
X0158488Y0086039D01*
X0159112Y0085441D02*
X0195595Y0085441D01*
X0195595Y0084842D02*
X0159196Y0084842D01*
X0159196Y0084244D02*
X0195595Y0084244D01*
X0195595Y0083645D02*
X0159196Y0083645D01*
X0159196Y0083047D02*
X0195595Y0083047D01*
X0195595Y0082448D02*
X0159196Y0082448D01*
X0159196Y0081850D02*
X0195595Y0081850D01*
X0195594Y0081251D02*
X0159196Y0081251D01*
X0159196Y0080653D02*
X0195594Y0080653D01*
X0195594Y0080054D02*
X0159281Y0080054D01*
X0159785Y0079456D02*
X0195594Y0079456D01*
X0195594Y0078857D02*
X0159785Y0078857D01*
X0159785Y0078259D02*
X0195594Y0078259D01*
X0195594Y0077660D02*
X0159459Y0077660D01*
X0158861Y0077062D02*
X0195594Y0077062D01*
X0195594Y0076463D02*
X0152103Y0076463D01*
X0152509Y0077062D02*
X0156930Y0077062D01*
X0156332Y0077660D02*
X0152509Y0077660D01*
X0153788Y0078775D02*
X0149346Y0078775D01*
X0153788Y0078775D02*
X0157896Y0078768D01*
X0153554Y0071689D02*
X0149346Y0071689D01*
X0149046Y0072274D02*
X0149646Y0072274D01*
X0149646Y0072872D02*
X0149046Y0072872D01*
X0149046Y0073471D02*
X0149646Y0073471D01*
X0149646Y0074069D02*
X0149046Y0074069D01*
X0145951Y0074069D02*
X0139375Y0074069D01*
X0139375Y0073471D02*
X0145694Y0073471D01*
X0145684Y0072872D02*
X0139375Y0072872D01*
X0139375Y0072274D02*
X0145684Y0072274D01*
X0145684Y0071077D02*
X0134023Y0071077D01*
X0134072Y0071675D02*
X0135046Y0071675D01*
X0134625Y0072274D02*
X0134072Y0072274D01*
X0134625Y0072872D02*
X0131300Y0072872D01*
X0131300Y0072274D02*
X0130700Y0072274D01*
X0130700Y0071675D02*
X0131300Y0071675D01*
X0131300Y0071077D02*
X0130700Y0071077D01*
X0130700Y0070478D02*
X0131300Y0070478D01*
X0133658Y0070478D02*
X0145684Y0070478D01*
X0149046Y0070478D02*
X0149646Y0070478D01*
X0149646Y0069880D02*
X0149046Y0069880D01*
X0149046Y0069281D02*
X0149646Y0069281D01*
X0153554Y0071689D02*
X0157913Y0067329D01*
X0150925Y0061011D02*
X0152032Y0059905D01*
X0152032Y0058340D01*
X0150925Y0057233D01*
X0149942Y0057233D01*
X0144003Y0051295D01*
X0144003Y0050375D01*
X0144519Y0050375D01*
X0144988Y0049906D01*
X0144988Y0045700D01*
X0144979Y0045691D01*
X0145028Y0045642D01*
X0145028Y0041451D01*
X0145070Y0041409D01*
X0145070Y0037203D01*
X0145058Y0037191D01*
X0145074Y0037175D01*
X0145074Y0032969D01*
X0144605Y0032501D01*
X0141187Y0032501D01*
X0140718Y0032969D01*
X0140718Y0033880D01*
X0138059Y0033880D01*
X0138059Y0032971D01*
X0137590Y0032502D01*
X0134171Y0032502D01*
X0133703Y0032971D01*
X0133703Y0037177D01*
X0133758Y0037231D01*
X0133748Y0037241D01*
X0133748Y0041447D01*
X0133783Y0041481D01*
X0133783Y0045642D01*
X0133851Y0045711D01*
X0133823Y0045738D01*
X0133823Y0049944D01*
X0134292Y0050413D01*
X0137711Y0050413D01*
X0138179Y0049944D01*
X0138179Y0049103D01*
X0140632Y0049103D01*
X0140632Y0049906D01*
X0141100Y0050375D01*
X0141616Y0050375D01*
X0141616Y0052284D01*
X0148254Y0058921D01*
X0148254Y0059905D01*
X0149360Y0061011D01*
X0150925Y0061011D01*
X0151034Y0060902D02*
X0195591Y0060902D01*
X0195591Y0061500D02*
X0139247Y0061500D01*
X0139845Y0060902D02*
X0149251Y0060902D01*
X0148652Y0060303D02*
X0139913Y0060303D01*
X0139913Y0059705D02*
X0148254Y0059705D01*
X0148254Y0059106D02*
X0139750Y0059106D01*
X0139151Y0058508D02*
X0147840Y0058508D01*
X0147242Y0057909D02*
X0138309Y0057909D01*
X0137602Y0056114D02*
X0137337Y0056114D01*
X0138324Y0054318D02*
X0125293Y0054318D01*
X0125892Y0053720D02*
X0143052Y0053720D01*
X0143651Y0054318D02*
X0140658Y0054318D01*
X0141257Y0054917D02*
X0144249Y0054917D01*
X0144848Y0055515D02*
X0141380Y0055515D01*
X0141380Y0056114D02*
X0145446Y0056114D01*
X0146045Y0056712D02*
X0141273Y0056712D01*
X0140674Y0057311D02*
X0146643Y0057311D01*
X0148224Y0055515D02*
X0195590Y0055515D01*
X0195590Y0054917D02*
X0147625Y0054917D01*
X0147027Y0054318D02*
X0195590Y0054318D01*
X0195590Y0053720D02*
X0146428Y0053720D01*
X0145830Y0053121D02*
X0195590Y0053121D01*
X0195590Y0052523D02*
X0145231Y0052523D01*
X0144633Y0051924D02*
X0190887Y0051924D01*
X0191169Y0052206D02*
X0190062Y0051099D01*
X0190062Y0049534D01*
X0191169Y0048428D01*
X0192734Y0048428D01*
X0193840Y0049534D01*
X0193840Y0051099D01*
X0192734Y0052206D01*
X0191169Y0052206D01*
X0190289Y0051326D02*
X0144034Y0051326D01*
X0144003Y0050727D02*
X0145946Y0050727D01*
X0146048Y0050786D02*
X0145752Y0050615D01*
X0145510Y0050373D01*
X0145339Y0050077D01*
X0145250Y0049746D01*
X0145250Y0048103D01*
X0147628Y0048103D01*
X0147628Y0047503D01*
X0148228Y0047503D01*
X0148228Y0044732D01*
X0148268Y0044732D01*
X0148268Y0043839D01*
X0147669Y0043839D01*
X0147669Y0046611D01*
X0147628Y0046611D01*
X0147628Y0047503D01*
X0145250Y0047503D01*
X0145250Y0045860D01*
X0145321Y0045595D01*
X0145291Y0045482D01*
X0145291Y0043839D01*
X0147668Y0043839D01*
X0147668Y0043239D01*
X0145291Y0043239D01*
X0145291Y0041596D01*
X0145358Y0041344D01*
X0145332Y0041249D01*
X0145332Y0039606D01*
X0147710Y0039606D01*
X0147710Y0039006D01*
X0145332Y0039006D01*
X0145332Y0037363D01*
X0145381Y0037182D01*
X0145336Y0037015D01*
X0145336Y0035372D01*
X0147714Y0035372D01*
X0147714Y0034772D01*
X0148314Y0034772D01*
X0148314Y0032001D01*
X0149563Y0032001D01*
X0149894Y0032089D01*
X0150190Y0032260D01*
X0150432Y0032502D01*
X0150603Y0032799D01*
X0150692Y0033130D01*
X0150692Y0034772D01*
X0148314Y0034772D01*
X0148314Y0035372D01*
X0150692Y0035372D01*
X0150692Y0037015D01*
X0150643Y0037196D01*
X0150688Y0037363D01*
X0150688Y0039006D01*
X0148310Y0039006D01*
X0148310Y0036234D01*
X0148314Y0036234D01*
X0148314Y0035372D01*
X0147714Y0035372D01*
X0147714Y0038144D01*
X0147710Y0038144D01*
X0147710Y0039006D01*
X0148310Y0039006D01*
X0148310Y0039606D01*
X0147710Y0039606D01*
X0147710Y0042377D01*
X0147669Y0042377D01*
X0147669Y0043239D01*
X0148268Y0043239D01*
X0148268Y0040467D01*
X0148310Y0040467D01*
X0148310Y0039606D01*
X0150688Y0039606D01*
X0150688Y0041249D01*
X0150621Y0041500D01*
X0150646Y0041596D01*
X0150646Y0043239D01*
X0148269Y0043239D01*
X0148269Y0043839D01*
X0150646Y0043839D01*
X0150646Y0045482D01*
X0150575Y0045747D01*
X0150606Y0045860D01*
X0150606Y0047503D01*
X0148228Y0047503D01*
X0148228Y0048103D01*
X0150606Y0048103D01*
X0150606Y0049746D01*
X0150517Y0050077D01*
X0150346Y0050373D01*
X0150104Y0050615D01*
X0149808Y0050786D01*
X0149477Y0050875D01*
X0148228Y0050875D01*
X0148228Y0048103D01*
X0147628Y0048103D01*
X0147628Y0050875D01*
X0146379Y0050875D01*
X0146048Y0050786D01*
X0145369Y0050129D02*
X0144765Y0050129D01*
X0144988Y0049530D02*
X0145250Y0049530D01*
X0145250Y0048932D02*
X0144988Y0048932D01*
X0144988Y0048333D02*
X0145250Y0048333D01*
X0144988Y0047735D02*
X0147628Y0047735D01*
X0147628Y0048333D02*
X0148228Y0048333D01*
X0148228Y0047735D02*
X0195589Y0047735D01*
X0195589Y0048333D02*
X0150606Y0048333D01*
X0150606Y0048932D02*
X0190665Y0048932D01*
X0190066Y0049530D02*
X0150606Y0049530D01*
X0150487Y0050129D02*
X0190062Y0050129D01*
X0190062Y0050727D02*
X0149910Y0050727D01*
X0148228Y0050727D02*
X0147628Y0050727D01*
X0147628Y0050129D02*
X0148228Y0050129D01*
X0148228Y0049530D02*
X0147628Y0049530D01*
X0147628Y0048932D02*
X0148228Y0048932D01*
X0148228Y0047136D02*
X0147628Y0047136D01*
X0147669Y0046538D02*
X0148228Y0046538D01*
X0148228Y0045939D02*
X0147669Y0045939D01*
X0147669Y0045341D02*
X0148228Y0045341D01*
X0148228Y0044742D02*
X0147669Y0044742D01*
X0147669Y0044144D02*
X0148268Y0044144D01*
X0148269Y0043545D02*
X0195589Y0043545D01*
X0195589Y0042947D02*
X0150646Y0042947D01*
X0150646Y0042348D02*
X0195588Y0042348D01*
X0195588Y0041750D02*
X0150646Y0041750D01*
X0150688Y0041151D02*
X0191164Y0041151D01*
X0191286Y0041273D02*
X0190180Y0040167D01*
X0190180Y0038602D01*
X0191286Y0037495D01*
X0192851Y0037495D01*
X0193958Y0038602D01*
X0193958Y0040167D01*
X0192851Y0041273D01*
X0191286Y0041273D01*
X0190566Y0040553D02*
X0150688Y0040553D01*
X0150688Y0039954D02*
X0190180Y0039954D01*
X0190180Y0039356D02*
X0148310Y0039356D01*
X0148310Y0039954D02*
X0147710Y0039954D01*
X0147710Y0039356D02*
X0145070Y0039356D01*
X0145070Y0039954D02*
X0145332Y0039954D01*
X0145332Y0040553D02*
X0145070Y0040553D01*
X0145070Y0041151D02*
X0145332Y0041151D01*
X0145291Y0041750D02*
X0145028Y0041750D01*
X0145028Y0042348D02*
X0145291Y0042348D01*
X0145291Y0042947D02*
X0145028Y0042947D01*
X0145028Y0043545D02*
X0147668Y0043545D01*
X0147669Y0042947D02*
X0148268Y0042947D01*
X0148268Y0042348D02*
X0147710Y0042348D01*
X0147710Y0041750D02*
X0148268Y0041750D01*
X0148268Y0041151D02*
X0147710Y0041151D01*
X0147710Y0040553D02*
X0148268Y0040553D01*
X0148310Y0038757D02*
X0147710Y0038757D01*
X0147710Y0038159D02*
X0148310Y0038159D01*
X0148310Y0037560D02*
X0147714Y0037560D01*
X0147714Y0036961D02*
X0148310Y0036961D01*
X0148310Y0036363D02*
X0147714Y0036363D01*
X0147714Y0035764D02*
X0148314Y0035764D01*
X0148314Y0035166D02*
X0195587Y0035166D01*
X0195587Y0035764D02*
X0150692Y0035764D01*
X0150692Y0036363D02*
X0195588Y0036363D01*
X0195588Y0036961D02*
X0150692Y0036961D01*
X0150688Y0037560D02*
X0191221Y0037560D01*
X0190623Y0038159D02*
X0150688Y0038159D01*
X0150688Y0038757D02*
X0190180Y0038757D01*
X0192916Y0037560D02*
X0195588Y0037560D01*
X0195588Y0038159D02*
X0193515Y0038159D01*
X0193958Y0038757D02*
X0195588Y0038757D01*
X0195588Y0039356D02*
X0193958Y0039356D01*
X0193958Y0039954D02*
X0195588Y0039954D01*
X0195588Y0040553D02*
X0193572Y0040553D01*
X0192973Y0041151D02*
X0195588Y0041151D01*
X0195589Y0044144D02*
X0150646Y0044144D01*
X0150646Y0044742D02*
X0195589Y0044742D01*
X0195589Y0045341D02*
X0150646Y0045341D01*
X0150606Y0045939D02*
X0195589Y0045939D01*
X0195589Y0046538D02*
X0150606Y0046538D01*
X0150606Y0047136D02*
X0195589Y0047136D01*
X0195589Y0048932D02*
X0193238Y0048932D01*
X0193836Y0049530D02*
X0195590Y0049530D01*
X0195590Y0050129D02*
X0193840Y0050129D01*
X0193840Y0050727D02*
X0195590Y0050727D01*
X0195590Y0051326D02*
X0193614Y0051326D01*
X0193015Y0051924D02*
X0195590Y0051924D01*
X0195591Y0056114D02*
X0148822Y0056114D01*
X0149421Y0056712D02*
X0195591Y0056712D01*
X0195591Y0057311D02*
X0151003Y0057311D01*
X0151601Y0057909D02*
X0195591Y0057909D01*
X0195591Y0058508D02*
X0152032Y0058508D01*
X0152032Y0059106D02*
X0195591Y0059106D01*
X0195591Y0059705D02*
X0152032Y0059705D01*
X0151633Y0060303D02*
X0195591Y0060303D01*
X0195587Y0034567D02*
X0150692Y0034567D01*
X0150692Y0033969D02*
X0195587Y0033969D01*
X0195587Y0033370D02*
X0150692Y0033370D01*
X0150588Y0032772D02*
X0195587Y0032772D01*
X0195587Y0032173D02*
X0150039Y0032173D01*
X0148314Y0032173D02*
X0147714Y0032173D01*
X0147714Y0032001D02*
X0147714Y0034772D01*
X0145336Y0034772D01*
X0145336Y0033130D01*
X0145425Y0032799D01*
X0145596Y0032502D01*
X0145838Y0032260D01*
X0146134Y0032089D01*
X0146465Y0032001D01*
X0147714Y0032001D01*
X0147714Y0032772D02*
X0148314Y0032772D01*
X0148314Y0033370D02*
X0147714Y0033370D01*
X0147714Y0033969D02*
X0148314Y0033969D01*
X0148314Y0034567D02*
X0147714Y0034567D01*
X0147714Y0035166D02*
X0145074Y0035166D01*
X0145074Y0035764D02*
X0145336Y0035764D01*
X0145336Y0036363D02*
X0145074Y0036363D01*
X0145074Y0036961D02*
X0145336Y0036961D01*
X0145332Y0037560D02*
X0145070Y0037560D01*
X0145070Y0038159D02*
X0145332Y0038159D01*
X0145332Y0038757D02*
X0145070Y0038757D01*
X0145074Y0034567D02*
X0145336Y0034567D01*
X0145336Y0033969D02*
X0145074Y0033969D01*
X0145074Y0033370D02*
X0145336Y0033370D01*
X0145440Y0032772D02*
X0144876Y0032772D01*
X0145989Y0032173D02*
X0132222Y0032173D01*
X0132697Y0031575D02*
X0136128Y0031575D01*
X0136475Y0031923D02*
X0135369Y0030816D01*
X0135369Y0029251D01*
X0136475Y0028145D01*
X0138040Y0028145D01*
X0139147Y0029251D01*
X0139147Y0030816D01*
X0138040Y0031923D01*
X0136475Y0031923D01*
X0135529Y0030976D02*
X0132697Y0030976D01*
X0132697Y0030378D02*
X0135369Y0030378D01*
X0135369Y0029779D02*
X0132343Y0029779D01*
X0131744Y0029181D02*
X0135439Y0029181D01*
X0136038Y0028582D02*
X0121610Y0028582D01*
X0122209Y0027984D02*
X0160764Y0027984D01*
X0160688Y0028060D02*
X0161795Y0026953D01*
X0163360Y0026953D01*
X0164466Y0028060D01*
X0164466Y0029625D01*
X0163360Y0030731D01*
X0161795Y0030731D01*
X0160688Y0029625D01*
X0160688Y0028060D01*
X0160688Y0028582D02*
X0138478Y0028582D01*
X0139076Y0029181D02*
X0160688Y0029181D01*
X0160843Y0029779D02*
X0139147Y0029779D01*
X0139147Y0030378D02*
X0161442Y0030378D01*
X0163713Y0030378D02*
X0171127Y0030378D01*
X0171660Y0030911D02*
X0170553Y0029804D01*
X0170553Y0028239D01*
X0171660Y0027133D01*
X0173225Y0027133D01*
X0174331Y0028239D01*
X0174331Y0029804D01*
X0173225Y0030911D01*
X0171660Y0030911D01*
X0170553Y0029779D02*
X0164312Y0029779D01*
X0164466Y0029181D02*
X0170553Y0029181D01*
X0170553Y0028582D02*
X0164466Y0028582D01*
X0164390Y0027984D02*
X0170809Y0027984D01*
X0171408Y0027385D02*
X0163792Y0027385D01*
X0161363Y0027385D02*
X0122807Y0027385D01*
X0123406Y0026787D02*
X0195586Y0026787D01*
X0195586Y0027385D02*
X0193170Y0027385D01*
X0192918Y0027133D02*
X0194024Y0028239D01*
X0194024Y0029804D01*
X0192918Y0030911D01*
X0191353Y0030911D01*
X0190247Y0029804D01*
X0190247Y0028239D01*
X0191353Y0027133D01*
X0192918Y0027133D01*
X0193769Y0027984D02*
X0195586Y0027984D01*
X0195586Y0028582D02*
X0194024Y0028582D01*
X0194024Y0029181D02*
X0195586Y0029181D01*
X0195587Y0029779D02*
X0194024Y0029779D01*
X0193451Y0030378D02*
X0195587Y0030378D01*
X0195587Y0030976D02*
X0138986Y0030976D01*
X0138388Y0031575D02*
X0195587Y0031575D01*
X0191101Y0027385D02*
X0183768Y0027385D01*
X0183563Y0027180D02*
X0184669Y0028287D01*
X0184669Y0029852D01*
X0183563Y0030958D01*
X0181998Y0030958D01*
X0180891Y0029852D01*
X0180891Y0028287D01*
X0181998Y0027180D01*
X0183563Y0027180D01*
X0184366Y0027984D02*
X0190502Y0027984D01*
X0190247Y0028582D02*
X0184669Y0028582D01*
X0184669Y0029181D02*
X0190247Y0029181D01*
X0190247Y0029779D02*
X0184669Y0029779D01*
X0184143Y0030378D02*
X0190820Y0030378D01*
X0181417Y0030378D02*
X0173758Y0030378D01*
X0174331Y0029779D02*
X0180891Y0029779D01*
X0180891Y0029181D02*
X0174331Y0029181D01*
X0174331Y0028582D02*
X0180891Y0028582D01*
X0181194Y0027984D02*
X0174076Y0027984D01*
X0173477Y0027385D02*
X0181792Y0027385D01*
X0175253Y0026188D02*
X0124004Y0026188D01*
X0124603Y0025590D02*
X0129747Y0025590D01*
X0129304Y0024991D02*
X0128132Y0024991D01*
X0128132Y0024393D02*
X0129304Y0024393D01*
X0129304Y0020802D02*
X0128132Y0020802D01*
X0127872Y0020203D02*
X0129304Y0020203D01*
X0129304Y0018408D02*
X0106233Y0018408D01*
X0106227Y0019006D02*
X0137339Y0019006D01*
X0137339Y0019600D02*
X0137339Y0017563D01*
X0140308Y0017563D01*
X0140308Y0020729D01*
X0138468Y0020729D01*
X0138137Y0020640D01*
X0137841Y0020469D01*
X0137599Y0020227D01*
X0137428Y0019930D01*
X0137339Y0019600D01*
X0137340Y0019605D02*
X0121178Y0019605D01*
X0121141Y0019583D02*
X0121437Y0019754D01*
X0121679Y0019996D01*
X0121850Y0020293D01*
X0121939Y0020623D01*
X0121939Y0022463D01*
X0118774Y0022463D01*
X0118774Y0023063D01*
X0118174Y0023063D01*
X0118174Y0026032D01*
X0116137Y0026032D01*
X0115807Y0025943D01*
X0115510Y0025772D01*
X0115268Y0025530D01*
X0115097Y0025233D01*
X0115008Y0024903D01*
X0115008Y0023063D01*
X0118174Y0023063D01*
X0118174Y0022463D01*
X0118774Y0022463D01*
X0118774Y0019495D01*
X0120810Y0019495D01*
X0121141Y0019583D01*
X0121799Y0020203D02*
X0122461Y0020203D01*
X0122201Y0020802D02*
X0121939Y0020802D01*
X0121939Y0021400D02*
X0122201Y0021400D01*
X0122201Y0021999D02*
X0121939Y0021999D01*
X0122201Y0022597D02*
X0118774Y0022597D01*
X0118774Y0021999D02*
X0118174Y0021999D01*
X0118174Y0022463D02*
X0118174Y0019495D01*
X0116137Y0019495D01*
X0115807Y0019583D01*
X0115510Y0019754D01*
X0115268Y0019996D01*
X0115097Y0020293D01*
X0115008Y0020623D01*
X0115008Y0022463D01*
X0118174Y0022463D01*
X0118174Y0022597D02*
X0106193Y0022597D01*
X0106198Y0021999D02*
X0115008Y0021999D01*
X0115008Y0021400D02*
X0106204Y0021400D01*
X0106210Y0020802D02*
X0115008Y0020802D01*
X0115149Y0020203D02*
X0106216Y0020203D01*
X0106222Y0019605D02*
X0115769Y0019605D01*
X0118174Y0019605D02*
X0118774Y0019605D01*
X0118774Y0020203D02*
X0118174Y0020203D01*
X0118174Y0020802D02*
X0118774Y0020802D01*
X0118774Y0021400D02*
X0118174Y0021400D01*
X0118174Y0023196D02*
X0118774Y0023196D01*
X0118774Y0023794D02*
X0118174Y0023794D01*
X0118174Y0024393D02*
X0118774Y0024393D01*
X0118774Y0024991D02*
X0118174Y0024991D01*
X0118174Y0025590D02*
X0118774Y0025590D01*
X0119479Y0026188D02*
X0104144Y0026188D01*
X0103577Y0026787D02*
X0103546Y0026787D01*
X0102978Y0027385D02*
X0102947Y0027385D01*
X0102564Y0027984D02*
X0102349Y0027984D01*
X0102564Y0028582D02*
X0101992Y0028582D01*
X0101992Y0029181D02*
X0102298Y0029181D01*
X0101992Y0031043D02*
X0104453Y0028582D01*
X0106342Y0028582D02*
X0117085Y0028582D01*
X0117683Y0027984D02*
X0106342Y0027984D01*
X0105927Y0027385D02*
X0118282Y0027385D01*
X0118880Y0026787D02*
X0105328Y0026787D01*
X0104743Y0025590D02*
X0115328Y0025590D01*
X0115032Y0024991D02*
X0105341Y0024991D01*
X0105943Y0024393D02*
X0115008Y0024393D01*
X0115008Y0023794D02*
X0106183Y0023794D01*
X0106187Y0023196D02*
X0115008Y0023196D01*
X0116486Y0029181D02*
X0111926Y0029181D01*
X0111850Y0029105D02*
X0112957Y0030211D01*
X0112957Y0031776D01*
X0111850Y0032883D01*
X0110285Y0032883D01*
X0109179Y0031776D01*
X0109179Y0030211D01*
X0110285Y0029105D01*
X0111850Y0029105D01*
X0112525Y0029779D02*
X0115888Y0029779D01*
X0115289Y0030378D02*
X0112957Y0030378D01*
X0112957Y0030976D02*
X0114691Y0030976D01*
X0114092Y0031575D02*
X0112957Y0031575D01*
X0112559Y0032173D02*
X0113494Y0032173D01*
X0112895Y0032772D02*
X0111961Y0032772D01*
X0110174Y0032772D02*
X0107916Y0032772D01*
X0108514Y0032173D02*
X0109576Y0032173D01*
X0109179Y0031575D02*
X0108667Y0031575D01*
X0108667Y0030976D02*
X0109179Y0030976D01*
X0109179Y0030378D02*
X0108588Y0030378D01*
X0107990Y0029779D02*
X0109611Y0029779D01*
X0110209Y0029181D02*
X0106342Y0029181D01*
X0101992Y0031043D02*
X0101992Y0031626D01*
X0101524Y0032094D01*
X0096924Y0032094D01*
X0095270Y0030441D01*
X0093669Y0030441D01*
X0096455Y0027654D01*
X0096455Y0026632D01*
X0098569Y0024519D01*
X0098594Y0024519D01*
X0099062Y0024050D01*
X0099062Y0021616D01*
X0096589Y0019142D01*
X0096589Y0018896D01*
X0099062Y0019006D02*
X0103427Y0019006D01*
X0103433Y0018408D02*
X0099062Y0018408D01*
X0099062Y0017809D02*
X0103439Y0017809D01*
X0103445Y0017211D02*
X0098594Y0017211D01*
X0098626Y0016612D02*
X0099940Y0016612D01*
X0099409Y0016014D02*
X0099062Y0016014D01*
X0099062Y0015415D02*
X0099409Y0015415D01*
X0099409Y0014817D02*
X0099062Y0014817D01*
X0099062Y0014218D02*
X0099707Y0014218D01*
X0100306Y0013620D02*
X0098940Y0013620D01*
X0100098Y0013021D02*
X0079950Y0013021D01*
X0079949Y0012423D02*
X0100061Y0012423D01*
X0100061Y0011824D02*
X0079947Y0011824D01*
X0079946Y0011225D02*
X0100061Y0011225D01*
X0100061Y0010627D02*
X0079945Y0010627D01*
X0079944Y0010028D02*
X0100061Y0010028D01*
X0100061Y0008831D02*
X0079941Y0008831D01*
X0079940Y0008233D02*
X0100061Y0008233D01*
X0100061Y0007634D02*
X0079939Y0007634D01*
X0079938Y0007036D02*
X0100061Y0007036D01*
X0100061Y0006437D02*
X0079937Y0006437D01*
X0079935Y0005839D02*
X0100063Y0005839D01*
X0100308Y0005240D02*
X0079934Y0005240D01*
X0079933Y0004642D02*
X0126939Y0004642D01*
X0126939Y0005240D02*
X0109500Y0005240D01*
X0109488Y0005219D02*
X0109659Y0005515D01*
X0109747Y0005846D01*
X0109747Y0009270D01*
X0107754Y0009270D01*
X0107754Y0004717D01*
X0108619Y0004717D01*
X0108949Y0004806D01*
X0109246Y0004977D01*
X0109488Y0005219D01*
X0109746Y0005839D02*
X0126939Y0005839D01*
X0127374Y0006437D02*
X0109747Y0006437D01*
X0109747Y0007036D02*
X0127973Y0007036D01*
X0129682Y0007036D02*
X0153493Y0007036D01*
X0153499Y0007634D02*
X0142937Y0007634D01*
X0142439Y0006437D02*
X0150021Y0006437D01*
X0149472Y0005839D02*
X0143038Y0005839D01*
X0143044Y0005240D02*
X0149472Y0005240D01*
X0149472Y0004642D02*
X0143044Y0004642D01*
X0142820Y0004043D02*
X0149752Y0004043D01*
X0152970Y0004043D02*
X0153463Y0004043D01*
X0153469Y0004642D02*
X0153250Y0004642D01*
X0153250Y0005240D02*
X0153475Y0005240D01*
X0153481Y0005839D02*
X0153250Y0005839D01*
X0153487Y0006437D02*
X0152701Y0006437D01*
X0153558Y0013620D02*
X0136672Y0013620D01*
X0136074Y0014218D02*
X0137680Y0014218D01*
X0137599Y0014300D02*
X0137841Y0014058D01*
X0138137Y0013886D01*
X0138468Y0013798D01*
X0140308Y0013798D01*
X0140308Y0016963D01*
X0140908Y0016963D01*
X0140908Y0017563D01*
X0143876Y0017563D01*
X0143876Y0019600D01*
X0143788Y0019930D01*
X0143616Y0020227D01*
X0143374Y0020469D01*
X0143078Y0020640D01*
X0142747Y0020729D01*
X0140908Y0020729D01*
X0140908Y0017563D01*
X0140308Y0017563D01*
X0140308Y0016963D01*
X0137339Y0016963D01*
X0137339Y0014927D01*
X0137428Y0014596D01*
X0137599Y0014300D01*
X0137369Y0014817D02*
X0135475Y0014817D01*
X0134877Y0015415D02*
X0137339Y0015415D01*
X0137339Y0016014D02*
X0134841Y0016014D01*
X0134841Y0016612D02*
X0137339Y0016612D01*
X0137339Y0017809D02*
X0134841Y0017809D01*
X0134841Y0017211D02*
X0140308Y0017211D01*
X0140308Y0017809D02*
X0140908Y0017809D01*
X0140908Y0017211D02*
X0149215Y0017211D01*
X0149215Y0016635D02*
X0150321Y0015528D01*
X0151886Y0015528D01*
X0152992Y0016635D01*
X0152992Y0018200D01*
X0151886Y0019306D01*
X0150321Y0019306D01*
X0149215Y0018200D01*
X0149215Y0016635D01*
X0149237Y0016612D02*
X0143876Y0016612D01*
X0143876Y0016963D02*
X0143876Y0014927D01*
X0143788Y0014596D01*
X0143616Y0014300D01*
X0143374Y0014058D01*
X0143078Y0013886D01*
X0142747Y0013798D01*
X0140908Y0013798D01*
X0140908Y0016963D01*
X0143876Y0016963D01*
X0143876Y0017809D02*
X0149215Y0017809D01*
X0149422Y0018408D02*
X0143876Y0018408D01*
X0143876Y0019006D02*
X0150021Y0019006D01*
X0152186Y0019006D02*
X0153612Y0019006D01*
X0153606Y0018408D02*
X0152785Y0018408D01*
X0152992Y0017809D02*
X0153600Y0017809D01*
X0153594Y0017211D02*
X0152992Y0017211D01*
X0152970Y0016612D02*
X0153588Y0016612D01*
X0153582Y0016014D02*
X0152371Y0016014D01*
X0153576Y0015415D02*
X0143876Y0015415D01*
X0143876Y0016014D02*
X0149836Y0016014D01*
X0153570Y0014817D02*
X0143847Y0014817D01*
X0143535Y0014218D02*
X0153564Y0014218D01*
X0153618Y0019605D02*
X0143875Y0019605D01*
X0143630Y0020203D02*
X0153624Y0020203D01*
X0153630Y0020802D02*
X0134841Y0020802D01*
X0134841Y0021400D02*
X0153636Y0021400D01*
X0153642Y0021999D02*
X0134841Y0021999D01*
X0134841Y0022597D02*
X0153647Y0022597D01*
X0153653Y0023196D02*
X0134841Y0023196D01*
X0134841Y0023794D02*
X0153659Y0023794D01*
X0153665Y0024393D02*
X0134841Y0024393D01*
X0134841Y0024991D02*
X0153671Y0024991D01*
X0153677Y0025590D02*
X0134398Y0025590D01*
X0134841Y0020203D02*
X0137585Y0020203D01*
X0137339Y0018408D02*
X0134841Y0018408D01*
X0129304Y0017809D02*
X0106239Y0017809D01*
X0106245Y0017211D02*
X0129304Y0017211D01*
X0129304Y0016612D02*
X0106250Y0016612D01*
X0106256Y0016014D02*
X0114244Y0016014D01*
X0114257Y0016027D02*
X0113150Y0014920D01*
X0113150Y0013660D01*
X0112806Y0013660D01*
X0111700Y0012553D01*
X0111700Y0010988D01*
X0112806Y0009882D01*
X0114371Y0009882D01*
X0115158Y0010669D01*
X0126505Y0010655D01*
X0127296Y0009864D01*
X0128861Y0009864D01*
X0129967Y0010970D01*
X0129967Y0012535D01*
X0128861Y0013642D01*
X0127296Y0013642D01*
X0127182Y0013528D01*
X0127182Y0014894D01*
X0126076Y0016001D01*
X0124511Y0016001D01*
X0123726Y0015216D01*
X0116615Y0015234D01*
X0115822Y0016027D01*
X0114257Y0016027D01*
X0113645Y0015415D02*
X0106262Y0015415D01*
X0106268Y0014817D02*
X0113150Y0014817D01*
X0113150Y0014218D02*
X0106273Y0014218D01*
X0107566Y0013620D02*
X0107754Y0013620D01*
X0107754Y0013021D02*
X0107566Y0013021D01*
X0107566Y0012423D02*
X0107754Y0012423D01*
X0107754Y0011824D02*
X0107566Y0011824D01*
X0107566Y0011225D02*
X0107754Y0011225D01*
X0107754Y0010627D02*
X0107566Y0010627D01*
X0107566Y0010028D02*
X0107754Y0010028D01*
X0107754Y0009430D02*
X0131425Y0009430D01*
X0131101Y0010028D02*
X0129026Y0010028D01*
X0129624Y0010627D02*
X0131101Y0010627D01*
X0131101Y0011225D02*
X0129967Y0011225D01*
X0129967Y0011824D02*
X0131607Y0011824D01*
X0132205Y0012423D02*
X0129967Y0012423D01*
X0129743Y0013021D02*
X0129482Y0013021D01*
X0129304Y0013620D02*
X0128883Y0013620D01*
X0129304Y0014218D02*
X0127182Y0014218D01*
X0127182Y0013620D02*
X0127274Y0013620D01*
X0127182Y0014817D02*
X0129304Y0014817D01*
X0129304Y0015415D02*
X0126662Y0015415D01*
X0125293Y0014112D02*
X0115039Y0014138D01*
X0116433Y0015415D02*
X0123925Y0015415D01*
X0126533Y0010627D02*
X0115117Y0010627D01*
X0114518Y0010028D02*
X0127131Y0010028D01*
X0128078Y0011753D02*
X0113589Y0011771D01*
X0111700Y0011824D02*
X0109747Y0011824D01*
X0109747Y0011225D02*
X0111700Y0011225D01*
X0112061Y0010627D02*
X0109747Y0010627D01*
X0109747Y0010028D02*
X0112660Y0010028D01*
X0111700Y0012423D02*
X0109747Y0012423D01*
X0109710Y0013021D02*
X0112168Y0013021D01*
X0112766Y0013620D02*
X0109377Y0013620D01*
X0107660Y0009364D02*
X0107721Y0007107D01*
X0104904Y0006805D01*
X0102209Y0007107D01*
X0102148Y0009364D01*
X0102054Y0009430D02*
X0079943Y0009430D01*
X0082752Y0011059D02*
X0083316Y0011624D01*
X0082821Y0013620D02*
X0079951Y0013620D01*
X0079952Y0014218D02*
X0082699Y0014218D01*
X0082699Y0014817D02*
X0079953Y0014817D01*
X0079955Y0015415D02*
X0082699Y0015415D01*
X0082699Y0016014D02*
X0079956Y0016014D01*
X0079957Y0016612D02*
X0083135Y0016612D01*
X0083167Y0017211D02*
X0079958Y0017211D01*
X0079959Y0017809D02*
X0082699Y0017809D01*
X0082699Y0018408D02*
X0079961Y0018408D01*
X0079962Y0019006D02*
X0082699Y0019006D01*
X0082699Y0019605D02*
X0079963Y0019605D01*
X0079964Y0020203D02*
X0082555Y0020203D01*
X0081957Y0020802D02*
X0079965Y0020802D01*
X0079967Y0021400D02*
X0081599Y0021400D01*
X0081599Y0021999D02*
X0079968Y0021999D01*
X0079969Y0022597D02*
X0081599Y0022597D01*
X0081599Y0023196D02*
X0079970Y0023196D01*
X0079971Y0023794D02*
X0081599Y0023794D01*
X0081599Y0024393D02*
X0079973Y0024393D01*
X0079974Y0024991D02*
X0081599Y0024991D01*
X0081438Y0025590D02*
X0079975Y0025590D01*
X0079976Y0026188D02*
X0080840Y0026188D01*
X0080241Y0026787D02*
X0079977Y0026787D01*
X0079643Y0027385D02*
X0058996Y0027385D01*
X0059001Y0027984D02*
X0079044Y0027984D01*
X0078446Y0028582D02*
X0059007Y0028582D01*
X0059012Y0029181D02*
X0077847Y0029181D01*
X0077807Y0029779D02*
X0059017Y0029779D01*
X0059022Y0030378D02*
X0077807Y0030378D01*
X0077807Y0030976D02*
X0059027Y0030976D01*
X0059033Y0031575D02*
X0077807Y0031575D01*
X0077807Y0032173D02*
X0059038Y0032173D01*
X0059043Y0032772D02*
X0077807Y0032772D01*
X0077807Y0033370D02*
X0059048Y0033370D01*
X0059053Y0033969D02*
X0077807Y0033969D01*
X0077807Y0034567D02*
X0059059Y0034567D01*
X0059064Y0035166D02*
X0076483Y0035166D01*
X0075885Y0035764D02*
X0059069Y0035764D01*
X0059072Y0036363D02*
X0075670Y0036363D01*
X0075670Y0036961D02*
X0059073Y0036961D01*
X0059075Y0037560D02*
X0075686Y0037560D01*
X0076285Y0038159D02*
X0059077Y0038159D01*
X0059078Y0038757D02*
X0068548Y0038757D01*
X0067950Y0039356D02*
X0059080Y0039356D01*
X0059081Y0039954D02*
X0067552Y0039954D01*
X0067552Y0040553D02*
X0059083Y0040553D01*
X0059085Y0041151D02*
X0067552Y0041151D01*
X0067983Y0041750D02*
X0059086Y0041750D01*
X0059088Y0042348D02*
X0068582Y0042348D01*
X0070300Y0042348D02*
X0080295Y0042348D01*
X0079697Y0041750D02*
X0070898Y0041750D01*
X0069441Y0040536D02*
X0078461Y0040488D01*
X0081097Y0040479D01*
X0081236Y0040359D01*
X0081236Y0037646D01*
X0082685Y0036197D01*
X0082685Y0029010D01*
X0088255Y0029010D01*
X0094432Y0022833D01*
X0096589Y0022833D01*
X0099206Y0020203D02*
X0103416Y0020203D01*
X0103421Y0019605D02*
X0099062Y0019605D01*
X0099804Y0020802D02*
X0103410Y0020802D01*
X0103404Y0021400D02*
X0100162Y0021400D01*
X0100162Y0021999D02*
X0103398Y0021999D01*
X0103393Y0022597D02*
X0100162Y0022597D01*
X0100162Y0023196D02*
X0103177Y0023196D01*
X0102579Y0023794D02*
X0100162Y0023794D01*
X0100162Y0024393D02*
X0101980Y0024393D01*
X0101382Y0024991D02*
X0099677Y0024991D01*
X0099078Y0025590D02*
X0100783Y0025590D01*
X0093815Y0030586D02*
X0093669Y0030441D01*
X0089578Y0032772D02*
X0088816Y0032772D01*
X0088816Y0033370D02*
X0089578Y0033370D01*
X0089578Y0033969D02*
X0088816Y0033969D01*
X0088816Y0034567D02*
X0089578Y0034567D01*
X0089578Y0035166D02*
X0088816Y0035166D01*
X0088905Y0035764D02*
X0089578Y0035764D01*
X0089578Y0036363D02*
X0089332Y0036363D01*
X0089758Y0036961D02*
X0090006Y0036961D01*
X0090184Y0037560D02*
X0096455Y0037560D01*
X0096455Y0038159D02*
X0090611Y0038159D01*
X0091097Y0038757D02*
X0096894Y0038757D01*
X0097661Y0039356D02*
X0094261Y0039356D01*
X0092865Y0039356D02*
X0092757Y0039356D01*
X0092757Y0039954D02*
X0092865Y0039954D01*
X0092865Y0040553D02*
X0092757Y0040553D01*
X0092757Y0041151D02*
X0092865Y0041151D01*
X0092865Y0041750D02*
X0092757Y0041750D01*
X0092811Y0041807D02*
X0092811Y0045903D01*
X0095224Y0045903D01*
X0097569Y0043558D01*
X0097569Y0043348D01*
X0099110Y0041807D01*
X0102260Y0041807D01*
X0105409Y0041807D01*
X0106950Y0043348D01*
X0106950Y0043558D01*
X0109105Y0045712D01*
X0114071Y0045712D01*
X0114071Y0042594D01*
X0114858Y0041807D01*
X0111709Y0041807D01*
X0111654Y0042348D02*
X0111763Y0042348D01*
X0111763Y0042947D02*
X0111654Y0042947D01*
X0111654Y0043545D02*
X0111763Y0043545D01*
X0111763Y0044144D02*
X0111654Y0044144D01*
X0110120Y0044144D02*
X0106998Y0044144D01*
X0105464Y0044144D02*
X0105355Y0044144D01*
X0105355Y0044485D02*
X0104530Y0044485D01*
X0104199Y0044396D01*
X0103903Y0044225D01*
X0103835Y0044157D01*
X0103767Y0044225D01*
X0103470Y0044396D01*
X0103140Y0044485D01*
X0102314Y0044485D01*
X0102314Y0041861D01*
X0105355Y0041861D01*
X0105355Y0044485D01*
X0105355Y0043545D02*
X0105464Y0043545D01*
X0105464Y0042947D02*
X0105355Y0042947D01*
X0105355Y0042348D02*
X0105464Y0042348D01*
X0105464Y0041750D02*
X0105355Y0041750D01*
X0105355Y0041151D02*
X0105464Y0041151D01*
X0105464Y0040553D02*
X0105355Y0040553D01*
X0105355Y0039954D02*
X0105464Y0039954D01*
X0105464Y0039356D02*
X0105355Y0039356D01*
X0103960Y0039356D02*
X0103709Y0039356D01*
X0102314Y0039356D02*
X0102205Y0039356D01*
X0102205Y0039954D02*
X0102314Y0039954D01*
X0102314Y0040553D02*
X0102205Y0040553D01*
X0102205Y0041151D02*
X0102314Y0041151D01*
X0102314Y0041750D02*
X0102205Y0041750D01*
X0102205Y0042348D02*
X0102314Y0042348D01*
X0102314Y0042947D02*
X0102205Y0042947D01*
X0102205Y0043545D02*
X0102314Y0043545D01*
X0102314Y0044144D02*
X0102205Y0044144D01*
X0101439Y0046479D02*
X0100279Y0047640D01*
X0100279Y0049281D01*
X0101439Y0050441D01*
X0103080Y0050441D01*
X0104241Y0049281D01*
X0104241Y0047640D01*
X0103080Y0046479D01*
X0101439Y0046479D01*
X0101381Y0046538D02*
X0097233Y0046538D01*
X0097175Y0046479D02*
X0098335Y0047640D01*
X0098335Y0049281D01*
X0097175Y0050441D01*
X0095534Y0050441D01*
X0094373Y0049281D01*
X0094373Y0047640D01*
X0095534Y0046479D01*
X0097175Y0046479D01*
X0097832Y0047136D02*
X0100782Y0047136D01*
X0100279Y0047735D02*
X0098335Y0047735D01*
X0098335Y0048333D02*
X0100279Y0048333D01*
X0100279Y0048932D02*
X0098335Y0048932D01*
X0098086Y0049530D02*
X0100528Y0049530D01*
X0101127Y0050129D02*
X0097488Y0050129D01*
X0097078Y0051980D02*
X0097530Y0052167D01*
X0097936Y0052439D01*
X0098282Y0052784D01*
X0098553Y0053191D01*
X0098740Y0053642D01*
X0098826Y0054075D01*
X0096645Y0054075D01*
X0096645Y0051894D01*
X0097078Y0051980D01*
X0096797Y0051924D02*
X0101817Y0051924D01*
X0101969Y0051924D02*
X0102550Y0051924D01*
X0102703Y0051924D02*
X0113628Y0051924D01*
X0113780Y0051924D02*
X0114361Y0051924D01*
X0114514Y0051924D02*
X0118608Y0051924D01*
X0118546Y0051326D02*
X0085973Y0051326D01*
X0085973Y0050727D02*
X0089438Y0050727D01*
X0089274Y0050659D02*
X0088867Y0050388D01*
X0088522Y0050042D01*
X0088250Y0049636D01*
X0088063Y0049184D01*
X0087977Y0048751D01*
X0090158Y0048751D01*
X0090158Y0048170D01*
X0087977Y0048170D01*
X0088063Y0047737D01*
X0088250Y0047285D01*
X0088522Y0046879D01*
X0088867Y0046533D01*
X0089274Y0046262D01*
X0089725Y0046075D01*
X0090158Y0045988D01*
X0090158Y0048170D01*
X0090739Y0048170D01*
X0090739Y0045988D01*
X0091173Y0046075D01*
X0091624Y0046262D01*
X0092030Y0046533D01*
X0092376Y0046879D01*
X0092648Y0047285D01*
X0092835Y0047737D01*
X0092921Y0048170D01*
X0090739Y0048170D01*
X0090739Y0048751D01*
X0090158Y0048751D01*
X0090158Y0050932D01*
X0089725Y0050846D01*
X0089274Y0050659D01*
X0088608Y0050129D02*
X0085973Y0050129D01*
X0085721Y0049530D02*
X0088206Y0049530D01*
X0088013Y0048932D02*
X0085754Y0048932D01*
X0085973Y0048333D02*
X0090158Y0048333D01*
X0090449Y0048460D02*
X0092811Y0046098D01*
X0092811Y0045903D01*
X0092035Y0046538D02*
X0095475Y0046538D01*
X0094877Y0047136D02*
X0092548Y0047136D01*
X0092834Y0047735D02*
X0094373Y0047735D01*
X0094373Y0048333D02*
X0090739Y0048333D01*
X0090739Y0048751D02*
X0092921Y0048751D01*
X0092835Y0049184D01*
X0092648Y0049636D01*
X0092376Y0050042D01*
X0092030Y0050388D01*
X0091624Y0050659D01*
X0091173Y0050846D01*
X0090739Y0050932D01*
X0090739Y0048751D01*
X0090739Y0048932D02*
X0090158Y0048932D01*
X0090158Y0049530D02*
X0090739Y0049530D01*
X0090739Y0050129D02*
X0090158Y0050129D01*
X0090158Y0050727D02*
X0090739Y0050727D01*
X0091459Y0050727D02*
X0113060Y0050727D01*
X0112896Y0050659D02*
X0112489Y0050388D01*
X0112144Y0050042D01*
X0111872Y0049636D01*
X0111685Y0049184D01*
X0111599Y0048751D01*
X0113780Y0048751D01*
X0113780Y0048170D01*
X0111599Y0048170D01*
X0111685Y0047737D01*
X0111872Y0047285D01*
X0112144Y0046879D01*
X0112489Y0046533D01*
X0112896Y0046262D01*
X0113347Y0046075D01*
X0113780Y0045988D01*
X0113780Y0048170D01*
X0114361Y0048170D01*
X0114361Y0045988D01*
X0114795Y0046075D01*
X0115246Y0046262D01*
X0115652Y0046533D01*
X0115998Y0046879D01*
X0116270Y0047285D01*
X0116457Y0047737D01*
X0116543Y0048170D01*
X0114361Y0048170D01*
X0114361Y0048751D01*
X0113780Y0048751D01*
X0113780Y0050932D01*
X0113347Y0050846D01*
X0112896Y0050659D01*
X0112230Y0050129D02*
X0109299Y0050129D01*
X0108986Y0050441D02*
X0107345Y0050441D01*
X0106184Y0049281D01*
X0106184Y0047640D01*
X0107345Y0046479D01*
X0108986Y0046479D01*
X0110146Y0047640D01*
X0110146Y0049281D01*
X0108986Y0050441D01*
X0109897Y0049530D02*
X0111829Y0049530D01*
X0111635Y0048932D02*
X0110146Y0048932D01*
X0110146Y0048333D02*
X0113780Y0048333D01*
X0114071Y0048460D02*
X0114858Y0047673D01*
X0120724Y0047673D01*
X0120724Y0044523D01*
X0120670Y0044742D02*
X0120779Y0044742D01*
X0120779Y0044144D02*
X0120670Y0044144D01*
X0120670Y0043545D02*
X0120779Y0043545D01*
X0120779Y0042947D02*
X0120670Y0042947D01*
X0120670Y0045341D02*
X0120779Y0045341D01*
X0120779Y0045939D02*
X0120670Y0045939D01*
X0120670Y0046538D02*
X0120779Y0046538D01*
X0120779Y0047136D02*
X0120670Y0047136D01*
X0118046Y0047136D02*
X0116170Y0047136D01*
X0116456Y0047735D02*
X0118046Y0047735D01*
X0118046Y0048333D02*
X0114361Y0048333D01*
X0114071Y0048460D02*
X0114071Y0045712D01*
X0113780Y0046538D02*
X0114361Y0046538D01*
X0114361Y0047136D02*
X0113780Y0047136D01*
X0113780Y0047735D02*
X0114361Y0047735D01*
X0114071Y0048460D02*
X0114071Y0054366D01*
X0113780Y0054318D02*
X0110146Y0054318D01*
X0110146Y0053720D02*
X0111670Y0053720D01*
X0111685Y0053642D02*
X0111872Y0053191D01*
X0112144Y0052784D01*
X0112489Y0052439D01*
X0112896Y0052167D01*
X0113347Y0051980D01*
X0113780Y0051894D01*
X0113780Y0054075D01*
X0111599Y0054075D01*
X0111685Y0053642D01*
X0111918Y0053121D02*
X0109722Y0053121D01*
X0109124Y0052523D02*
X0112405Y0052523D01*
X0113780Y0052523D02*
X0114361Y0052523D01*
X0114361Y0053121D02*
X0113780Y0053121D01*
X0113780Y0053720D02*
X0114361Y0053720D01*
X0114361Y0054917D02*
X0113780Y0054917D01*
X0113780Y0055515D02*
X0114361Y0055515D01*
X0114361Y0056114D02*
X0113780Y0056114D01*
X0112310Y0056114D02*
X0109219Y0056114D01*
X0109818Y0055515D02*
X0111861Y0055515D01*
X0111651Y0054917D02*
X0110146Y0054917D01*
X0109204Y0058508D02*
X0113033Y0058508D01*
X0113250Y0058290D02*
X0112090Y0059451D01*
X0112090Y0061092D01*
X0113250Y0062252D01*
X0114891Y0062252D01*
X0116052Y0061092D01*
X0116052Y0059451D01*
X0114891Y0058290D01*
X0113250Y0058290D01*
X0112434Y0059106D02*
X0109802Y0059106D01*
X0110146Y0059705D02*
X0112090Y0059705D01*
X0112090Y0060303D02*
X0110146Y0060303D01*
X0110146Y0060902D02*
X0112090Y0060902D01*
X0112498Y0061500D02*
X0109738Y0061500D01*
X0109139Y0062099D02*
X0113097Y0062099D01*
X0115045Y0062099D02*
X0118828Y0062099D01*
X0118736Y0061500D02*
X0115643Y0061500D01*
X0116052Y0060902D02*
X0118546Y0060902D01*
X0118546Y0060303D02*
X0116052Y0060303D01*
X0116052Y0059705D02*
X0118546Y0059705D01*
X0118671Y0059106D02*
X0115708Y0059106D01*
X0115109Y0058508D02*
X0118893Y0058508D01*
X0118546Y0057909D02*
X0104520Y0057909D01*
X0103922Y0057311D02*
X0118546Y0057311D01*
X0118046Y0053121D02*
X0116223Y0053121D01*
X0115737Y0052523D02*
X0118273Y0052523D01*
X0118546Y0050727D02*
X0115081Y0050727D01*
X0115246Y0050659D02*
X0114795Y0050846D01*
X0114361Y0050932D01*
X0114361Y0048751D01*
X0116543Y0048751D01*
X0116457Y0049184D01*
X0116270Y0049636D01*
X0115998Y0050042D01*
X0115652Y0050388D01*
X0115246Y0050659D01*
X0115911Y0050129D02*
X0118546Y0050129D01*
X0118736Y0049530D02*
X0116313Y0049530D01*
X0116507Y0048932D02*
X0118163Y0048932D01*
X0118115Y0046538D02*
X0115657Y0046538D01*
X0114913Y0044144D02*
X0114804Y0044144D01*
X0114804Y0043545D02*
X0114913Y0043545D01*
X0114913Y0042947D02*
X0114804Y0042947D01*
X0114804Y0042348D02*
X0114913Y0042348D01*
X0116447Y0044144D02*
X0118046Y0044144D01*
X0118046Y0044742D02*
X0085973Y0044742D01*
X0085973Y0045341D02*
X0118046Y0045341D01*
X0118254Y0045939D02*
X0085597Y0045939D01*
X0085878Y0046538D02*
X0088863Y0046538D01*
X0088350Y0047136D02*
X0085973Y0047136D01*
X0085973Y0047735D02*
X0088064Y0047735D01*
X0090158Y0047735D02*
X0090739Y0047735D01*
X0090739Y0047136D02*
X0090158Y0047136D01*
X0090158Y0046538D02*
X0090739Y0046538D01*
X0091223Y0044144D02*
X0088100Y0044144D01*
X0086566Y0044144D02*
X0086457Y0044144D01*
X0086457Y0043545D02*
X0086566Y0043545D01*
X0086566Y0042947D02*
X0086457Y0042947D01*
X0086457Y0042348D02*
X0086566Y0042348D01*
X0084503Y0042947D02*
X0059089Y0042947D01*
X0059105Y0048932D02*
X0060289Y0048932D01*
X0060032Y0049530D02*
X0059107Y0049530D01*
X0059108Y0050129D02*
X0060022Y0050129D01*
X0060022Y0050727D02*
X0059110Y0050727D01*
X0062794Y0051924D02*
X0063394Y0051924D01*
X0063394Y0052523D02*
X0062794Y0052523D01*
X0062794Y0053121D02*
X0063394Y0053121D01*
X0063394Y0053720D02*
X0062794Y0053720D01*
X0059121Y0054917D02*
X0069655Y0054917D01*
X0070156Y0055515D02*
X0059122Y0055515D01*
X0059124Y0056114D02*
X0070658Y0056114D01*
X0070661Y0056712D02*
X0059126Y0056712D01*
X0059127Y0057311D02*
X0070661Y0057311D01*
X0070661Y0057909D02*
X0059129Y0057909D01*
X0059130Y0058508D02*
X0070661Y0058508D01*
X0070661Y0059106D02*
X0059132Y0059106D01*
X0059134Y0059705D02*
X0070661Y0059705D01*
X0070661Y0060303D02*
X0059135Y0060303D01*
X0059137Y0060902D02*
X0070661Y0060902D01*
X0070661Y0061500D02*
X0059138Y0061500D01*
X0059140Y0062099D02*
X0070661Y0062099D01*
X0070661Y0062697D02*
X0059141Y0062697D01*
X0059143Y0063296D02*
X0070661Y0063296D01*
X0070661Y0063894D02*
X0059145Y0063894D01*
X0059146Y0064493D02*
X0070661Y0064493D01*
X0070661Y0065092D02*
X0059148Y0065092D01*
X0059149Y0065690D02*
X0070661Y0065690D01*
X0070661Y0066289D02*
X0059151Y0066289D01*
X0059153Y0066887D02*
X0070661Y0066887D01*
X0070661Y0067486D02*
X0059154Y0067486D01*
X0059156Y0068084D02*
X0070661Y0068084D01*
X0070661Y0068683D02*
X0059157Y0068683D01*
X0059159Y0069281D02*
X0070661Y0069281D01*
X0070661Y0069880D02*
X0059160Y0069880D01*
X0059162Y0070478D02*
X0070661Y0070478D01*
X0070661Y0071077D02*
X0059164Y0071077D01*
X0059165Y0071675D02*
X0070661Y0071675D01*
X0070661Y0072274D02*
X0059167Y0072274D01*
X0059168Y0072872D02*
X0070661Y0072872D01*
X0070661Y0073471D02*
X0059170Y0073471D01*
X0059172Y0074069D02*
X0070661Y0074069D01*
X0070661Y0074668D02*
X0059173Y0074668D01*
X0059175Y0075266D02*
X0070661Y0075266D01*
X0070661Y0075865D02*
X0059176Y0075865D01*
X0059178Y0076463D02*
X0070661Y0076463D01*
X0070661Y0077062D02*
X0059179Y0077062D01*
X0059181Y0077660D02*
X0070661Y0077660D01*
X0070661Y0078259D02*
X0059183Y0078259D01*
X0059184Y0078857D02*
X0070661Y0078857D01*
X0070661Y0079456D02*
X0059186Y0079456D01*
X0059187Y0080054D02*
X0070661Y0080054D01*
X0070661Y0080653D02*
X0059189Y0080653D01*
X0059191Y0081251D02*
X0070661Y0081251D01*
X0070661Y0081850D02*
X0059192Y0081850D01*
X0059194Y0082448D02*
X0070661Y0082448D01*
X0070661Y0083047D02*
X0059195Y0083047D01*
X0059197Y0083645D02*
X0070661Y0083645D01*
X0070661Y0084244D02*
X0059198Y0084244D01*
X0059200Y0084842D02*
X0071089Y0084842D01*
X0071688Y0085441D02*
X0059202Y0085441D01*
X0059203Y0086039D02*
X0072286Y0086039D01*
X0072885Y0086638D02*
X0059205Y0086638D01*
X0059206Y0087236D02*
X0073483Y0087236D01*
X0074082Y0087835D02*
X0059208Y0087835D01*
X0059210Y0088433D02*
X0074680Y0088433D01*
X0075279Y0089032D02*
X0059211Y0089032D01*
X0059213Y0089630D02*
X0075877Y0089630D01*
X0076476Y0090229D02*
X0059214Y0090229D01*
X0059216Y0090827D02*
X0077074Y0090827D01*
X0077673Y0091426D02*
X0059217Y0091426D01*
X0059219Y0092025D02*
X0078271Y0092025D01*
X0078870Y0092623D02*
X0059221Y0092623D01*
X0059222Y0093222D02*
X0079468Y0093222D01*
X0080067Y0093820D02*
X0059224Y0093820D01*
X0059225Y0094419D02*
X0080665Y0094419D01*
X0081264Y0095017D02*
X0059227Y0095017D01*
X0059229Y0095616D02*
X0081862Y0095616D01*
X0082461Y0096214D02*
X0059230Y0096214D01*
X0059232Y0096813D02*
X0083059Y0096813D01*
X0079013Y0105192D02*
X0059259Y0105192D01*
X0059204Y0104593D02*
X0120386Y0104593D01*
X0120604Y0104811D02*
X0120604Y0104811D01*
X0119788Y0103995D02*
X0111027Y0103995D01*
X0111625Y0103396D02*
X0115630Y0103396D01*
X0115031Y0102798D02*
X0111719Y0102798D01*
X0111719Y0102199D02*
X0114656Y0102199D01*
X0114656Y0101601D02*
X0111817Y0101601D01*
X0112415Y0101002D02*
X0114656Y0101002D01*
X0115110Y0100404D02*
X0113014Y0100404D01*
X0113612Y0099805D02*
X0115708Y0099805D01*
X0114809Y0098608D02*
X0121118Y0098608D01*
X0121716Y0098010D02*
X0115408Y0098010D01*
X0116006Y0097411D02*
X0122315Y0097411D01*
X0122913Y0096813D02*
X0116605Y0096813D01*
X0117203Y0096214D02*
X0123512Y0096214D01*
X0124110Y0095616D02*
X0117802Y0095616D01*
X0118400Y0095017D02*
X0124709Y0095017D01*
X0125307Y0094419D02*
X0118999Y0094419D01*
X0117683Y0092623D02*
X0117548Y0092623D01*
X0117548Y0092025D02*
X0118282Y0092025D01*
X0118310Y0091426D02*
X0117548Y0091426D01*
X0117548Y0090827D02*
X0118310Y0090827D01*
X0118310Y0090229D02*
X0117548Y0090229D01*
X0117548Y0089630D02*
X0118310Y0089630D01*
X0118549Y0089032D02*
X0117309Y0089032D01*
X0117454Y0086039D02*
X0112904Y0086039D01*
X0112896Y0085441D02*
X0116856Y0085441D01*
X0116552Y0084842D02*
X0112888Y0084842D01*
X0112880Y0084244D02*
X0116552Y0084244D01*
X0116552Y0083645D02*
X0112873Y0083645D01*
X0112865Y0083047D02*
X0117077Y0083047D01*
X0117261Y0082448D02*
X0112857Y0082448D01*
X0112849Y0081850D02*
X0117261Y0081850D01*
X0116669Y0081251D02*
X0116197Y0081251D01*
X0114913Y0081251D02*
X0114804Y0081251D01*
X0114804Y0080653D02*
X0114913Y0080653D01*
X0114913Y0080054D02*
X0114804Y0080054D01*
X0114804Y0079456D02*
X0114913Y0079456D01*
X0114913Y0078857D02*
X0114804Y0078857D01*
X0114858Y0078736D02*
X0118008Y0078736D01*
X0117954Y0078259D02*
X0118062Y0078259D01*
X0118062Y0077660D02*
X0117954Y0077660D01*
X0117954Y0077062D02*
X0118062Y0077062D01*
X0118062Y0076463D02*
X0117954Y0076463D01*
X0118546Y0075865D02*
X0090855Y0075865D01*
X0090855Y0076463D02*
X0113206Y0076463D01*
X0114804Y0076463D02*
X0114913Y0076463D01*
X0114913Y0077062D02*
X0114804Y0077062D01*
X0114804Y0077660D02*
X0114913Y0077660D01*
X0114913Y0078259D02*
X0114804Y0078259D01*
X0114858Y0078736D02*
X0114071Y0077949D01*
X0114071Y0072082D01*
X0114361Y0072274D02*
X0118546Y0072274D01*
X0118546Y0071830D02*
X0119015Y0071361D01*
X0122434Y0071361D01*
X0122902Y0071830D01*
X0122902Y0073910D01*
X0122434Y0074378D01*
X0119015Y0074378D01*
X0118546Y0073910D01*
X0118546Y0071830D01*
X0118701Y0071675D02*
X0116520Y0071675D01*
X0116340Y0071077D02*
X0118863Y0071077D01*
X0118546Y0070478D02*
X0115975Y0070478D01*
X0115236Y0069880D02*
X0118546Y0069880D01*
X0118546Y0069281D02*
X0089568Y0069281D01*
X0089568Y0068683D02*
X0118546Y0068683D01*
X0118546Y0072872D02*
X0116429Y0072872D01*
X0116127Y0073471D02*
X0118546Y0073471D01*
X0118706Y0074069D02*
X0115563Y0074069D01*
X0114361Y0074069D02*
X0113780Y0074069D01*
X0113780Y0073471D02*
X0114361Y0073471D01*
X0114361Y0072872D02*
X0113780Y0072872D01*
X0113780Y0072274D02*
X0110146Y0072274D01*
X0110146Y0072872D02*
X0111712Y0072872D01*
X0112015Y0073471D02*
X0109579Y0073471D01*
X0110146Y0072903D02*
X0108986Y0074063D01*
X0107345Y0074063D01*
X0106184Y0072903D01*
X0106184Y0071262D01*
X0107345Y0070101D01*
X0108986Y0070101D01*
X0110146Y0071262D01*
X0110146Y0072903D01*
X0110146Y0071675D02*
X0111622Y0071675D01*
X0111802Y0071077D02*
X0109961Y0071077D01*
X0109363Y0070478D02*
X0112166Y0070478D01*
X0112905Y0069880D02*
X0089568Y0069880D01*
X0087180Y0067486D02*
X0085973Y0067486D01*
X0085973Y0066887D02*
X0087180Y0066887D01*
X0087180Y0066289D02*
X0085973Y0066289D01*
X0085973Y0065690D02*
X0087180Y0065690D01*
X0087180Y0065092D02*
X0085534Y0065092D01*
X0085941Y0064493D02*
X0087510Y0064493D01*
X0088109Y0063894D02*
X0085973Y0063894D01*
X0085973Y0063296D02*
X0088707Y0063296D01*
X0089306Y0062697D02*
X0085973Y0062697D01*
X0085691Y0062099D02*
X0089475Y0062099D01*
X0088876Y0061500D02*
X0085784Y0061500D01*
X0085973Y0060902D02*
X0088468Y0060902D01*
X0088468Y0060303D02*
X0085973Y0060303D01*
X0085973Y0059705D02*
X0088468Y0059705D01*
X0088812Y0059106D02*
X0085848Y0059106D01*
X0085627Y0058508D02*
X0089411Y0058508D01*
X0089725Y0056752D02*
X0089274Y0056565D01*
X0088867Y0056293D01*
X0088522Y0055947D01*
X0088250Y0055541D01*
X0088063Y0055090D01*
X0087977Y0054656D01*
X0090158Y0054656D01*
X0090158Y0054075D01*
X0090739Y0054075D01*
X0090739Y0051894D01*
X0091173Y0051980D01*
X0091624Y0052167D01*
X0092030Y0052439D01*
X0092376Y0052784D01*
X0092648Y0053191D01*
X0092835Y0053642D01*
X0092921Y0054075D01*
X0090739Y0054075D01*
X0090739Y0054656D01*
X0090158Y0054656D01*
X0090158Y0056838D01*
X0089725Y0056752D01*
X0089630Y0056712D02*
X0085973Y0056712D01*
X0085973Y0056114D02*
X0088688Y0056114D01*
X0088239Y0055515D02*
X0079569Y0055515D01*
X0078756Y0053657D02*
X0077496Y0054917D01*
X0077378Y0064641D01*
X0077063Y0064641D01*
X0076309Y0062099D02*
X0075191Y0062099D01*
X0075196Y0061500D02*
X0076316Y0061500D01*
X0076323Y0060902D02*
X0075200Y0060902D01*
X0075204Y0060303D02*
X0076331Y0060303D01*
X0076338Y0059705D02*
X0075208Y0059705D01*
X0075212Y0059106D02*
X0076345Y0059106D01*
X0076352Y0058508D02*
X0075216Y0058508D01*
X0075220Y0057909D02*
X0076360Y0057909D01*
X0076367Y0057311D02*
X0075224Y0057311D01*
X0075228Y0056712D02*
X0076374Y0056712D01*
X0076381Y0056114D02*
X0075233Y0056114D01*
X0075237Y0055515D02*
X0076389Y0055515D01*
X0076396Y0054917D02*
X0075522Y0054917D01*
X0076039Y0054318D02*
X0076535Y0054318D01*
X0076867Y0053720D02*
X0076039Y0053720D01*
X0076039Y0053121D02*
X0076867Y0053121D01*
X0077219Y0052523D02*
X0075726Y0052523D01*
X0075127Y0051924D02*
X0077817Y0051924D01*
X0074150Y0053618D02*
X0074031Y0070835D01*
X0076648Y0075980D01*
X0081228Y0075980D01*
X0083795Y0076019D01*
X0081929Y0074668D02*
X0077215Y0074668D01*
X0076910Y0074069D02*
X0081777Y0074069D01*
X0081617Y0073471D02*
X0076606Y0073471D01*
X0076302Y0072872D02*
X0081617Y0072872D01*
X0081617Y0072274D02*
X0075997Y0072274D01*
X0077378Y0069760D02*
X0077417Y0069720D01*
X0083795Y0069720D01*
X0083756Y0069760D01*
X0081934Y0071077D02*
X0079950Y0071077D01*
X0079743Y0071675D02*
X0081772Y0071675D01*
X0090855Y0074069D02*
X0112578Y0074069D01*
X0110200Y0077062D02*
X0110068Y0077062D01*
X0110068Y0077027D02*
X0110068Y0080445D01*
X0109599Y0080914D01*
X0107519Y0080914D01*
X0107050Y0080445D01*
X0107050Y0077027D01*
X0107519Y0076558D01*
X0109599Y0076558D01*
X0110068Y0077027D01*
X0110068Y0077660D02*
X0110200Y0077660D01*
X0110200Y0078259D02*
X0110068Y0078259D01*
X0110068Y0078857D02*
X0110200Y0078857D01*
X0110200Y0079456D02*
X0110068Y0079456D01*
X0110068Y0080054D02*
X0110200Y0080054D01*
X0110408Y0080653D02*
X0109860Y0080653D01*
X0110641Y0081251D02*
X0106538Y0081251D01*
X0106545Y0081850D02*
X0110649Y0081850D01*
X0110657Y0082448D02*
X0106552Y0082448D01*
X0106559Y0083047D02*
X0110665Y0083047D01*
X0110672Y0083645D02*
X0106566Y0083645D01*
X0106573Y0084244D02*
X0110680Y0084244D01*
X0110688Y0084842D02*
X0106579Y0084842D01*
X0106586Y0085441D02*
X0110696Y0085441D01*
X0110703Y0086039D02*
X0106593Y0086039D01*
X0106600Y0086638D02*
X0110711Y0086638D01*
X0110719Y0087236D02*
X0106607Y0087236D01*
X0106614Y0087835D02*
X0110727Y0087835D01*
X0110869Y0088433D02*
X0106621Y0088433D01*
X0106106Y0090033D02*
X0105996Y0090146D01*
X0105988Y0090146D01*
X0105343Y0090791D01*
X0105343Y0093516D01*
X0104875Y0093985D01*
X0101456Y0093985D01*
X0100987Y0093516D01*
X0100987Y0090791D01*
X0098785Y0088589D01*
X0098785Y0089912D01*
X0097996Y0090701D01*
X0097996Y0095043D01*
X0101519Y0098566D01*
X0104245Y0098566D01*
X0104713Y0099034D01*
X0104713Y0100135D01*
X0105869Y0101291D01*
X0105869Y0099034D01*
X0106338Y0098566D01*
X0107154Y0098566D01*
X0107173Y0093985D01*
X0106574Y0093985D01*
X0106106Y0093516D01*
X0106106Y0090033D01*
X0106106Y0090229D02*
X0105905Y0090229D01*
X0106106Y0090827D02*
X0105343Y0090827D01*
X0105343Y0091426D02*
X0106106Y0091426D01*
X0106106Y0092025D02*
X0105343Y0092025D01*
X0105343Y0092623D02*
X0106106Y0092623D01*
X0106106Y0093222D02*
X0105343Y0093222D01*
X0105039Y0093820D02*
X0106409Y0093820D01*
X0107171Y0094419D02*
X0097996Y0094419D01*
X0097996Y0095017D02*
X0107169Y0095017D01*
X0107166Y0095616D02*
X0098569Y0095616D01*
X0099168Y0096214D02*
X0107164Y0096214D01*
X0107161Y0096813D02*
X0099766Y0096813D01*
X0100365Y0097411D02*
X0107159Y0097411D01*
X0107156Y0098010D02*
X0100963Y0098010D01*
X0099647Y0099805D02*
X0059240Y0099805D01*
X0059238Y0099207D02*
X0099049Y0099207D01*
X0098450Y0098608D02*
X0059236Y0098608D01*
X0059235Y0098010D02*
X0097852Y0098010D01*
X0097253Y0097411D02*
X0059233Y0097411D01*
X0059241Y0100404D02*
X0099964Y0100404D01*
X0099964Y0101002D02*
X0059243Y0101002D01*
X0059244Y0101601D02*
X0099964Y0101601D01*
X0099964Y0102199D02*
X0059246Y0102199D01*
X0059247Y0102798D02*
X0099964Y0102798D01*
X0104863Y0103396D02*
X0059249Y0103396D01*
X0059251Y0103995D02*
X0105462Y0103995D01*
X0105580Y0101002D02*
X0105869Y0101002D01*
X0105869Y0100404D02*
X0104982Y0100404D01*
X0104713Y0099805D02*
X0105869Y0099805D01*
X0105869Y0099207D02*
X0104713Y0099207D01*
X0104287Y0098608D02*
X0106296Y0098608D01*
X0108244Y0100941D02*
X0108283Y0091413D01*
X0110461Y0091426D02*
X0113192Y0091426D01*
X0113192Y0090827D02*
X0110461Y0090827D01*
X0110461Y0090229D02*
X0112670Y0090229D01*
X0112071Y0089630D02*
X0110461Y0089630D01*
X0110183Y0089032D02*
X0111473Y0089032D01*
X0111827Y0087830D02*
X0115370Y0091374D01*
X0113192Y0092025D02*
X0110461Y0092025D01*
X0110461Y0092623D02*
X0113192Y0092623D01*
X0113192Y0093222D02*
X0110461Y0093222D01*
X0110157Y0093820D02*
X0113535Y0093820D01*
X0115289Y0095017D02*
X0109369Y0095017D01*
X0109371Y0094419D02*
X0115888Y0094419D01*
X0114691Y0095616D02*
X0111793Y0095616D01*
X0112391Y0096214D02*
X0114092Y0096214D01*
X0113494Y0096813D02*
X0112894Y0096813D01*
X0112894Y0097411D02*
X0112895Y0097411D01*
X0114211Y0099207D02*
X0120519Y0099207D01*
X0119921Y0099805D02*
X0117381Y0099805D01*
X0117980Y0100404D02*
X0119322Y0100404D01*
X0120305Y0100977D02*
X0126679Y0094602D01*
X0128047Y0094602D01*
X0127264Y0095702D02*
X0127135Y0095702D01*
X0121404Y0101433D01*
X0121404Y0102500D01*
X0122160Y0103255D01*
X0123800Y0103255D01*
X0130779Y0096276D01*
X0130723Y0096309D01*
X0130257Y0096434D01*
X0130016Y0096434D01*
X0130016Y0094602D01*
X0130016Y0092771D01*
X0130016Y0092634D01*
X0130016Y0092634D01*
X0130016Y0094602D01*
X0130016Y0094602D01*
X0130016Y0094658D01*
X0128640Y0096034D01*
X0128626Y0096034D01*
X0122694Y0101966D01*
X0121835Y0101002D02*
X0126053Y0101002D01*
X0126651Y0100404D02*
X0122433Y0100404D01*
X0123032Y0099805D02*
X0127250Y0099805D01*
X0127848Y0099207D02*
X0123630Y0099207D01*
X0124229Y0098608D02*
X0128447Y0098608D01*
X0129045Y0098010D02*
X0124827Y0098010D01*
X0125426Y0097411D02*
X0129644Y0097411D01*
X0130242Y0096813D02*
X0126024Y0096813D01*
X0126623Y0096214D02*
X0129145Y0096214D01*
X0129309Y0096309D02*
X0128891Y0096068D01*
X0128678Y0095854D01*
X0128599Y0095934D01*
X0127496Y0095934D01*
X0127264Y0095702D01*
X0129309Y0096309D02*
X0129775Y0096434D01*
X0130016Y0096434D01*
X0130016Y0094602D01*
X0130016Y0092634D01*
X0130016Y0093222D02*
X0130016Y0093222D01*
X0130016Y0093820D02*
X0130016Y0093820D01*
X0130016Y0094419D02*
X0130016Y0094419D01*
X0130016Y0094602D02*
X0130016Y0094602D01*
X0130016Y0095017D02*
X0130016Y0095017D01*
X0130016Y0095616D02*
X0130016Y0095616D01*
X0130016Y0096214D02*
X0130016Y0096214D01*
X0131984Y0094602D02*
X0136432Y0094602D01*
X0138098Y0092936D01*
X0136846Y0089973D02*
X0139247Y0087573D01*
X0137358Y0087835D02*
X0136868Y0087835D01*
X0136868Y0087236D02*
X0137358Y0087236D01*
X0137510Y0086638D02*
X0136670Y0086638D01*
X0136071Y0086039D02*
X0138108Y0086039D01*
X0139228Y0085441D02*
X0133084Y0085441D01*
X0133084Y0086039D02*
X0133887Y0086039D01*
X0133288Y0086638D02*
X0133084Y0086638D01*
X0133084Y0087236D02*
X0133090Y0087236D01*
X0133084Y0087835D02*
X0133090Y0087835D01*
X0133084Y0088433D02*
X0133122Y0088433D01*
X0133084Y0089032D02*
X0133721Y0089032D01*
X0133084Y0089630D02*
X0134790Y0089630D01*
X0134192Y0090229D02*
X0133316Y0090229D01*
X0133316Y0090827D02*
X0133593Y0090827D01*
X0133880Y0092097D02*
X0132521Y0092097D01*
X0131984Y0092634D01*
X0131984Y0090665D02*
X0131984Y0079012D01*
X0132024Y0078972D01*
X0134202Y0078857D02*
X0134964Y0078857D01*
X0134964Y0078259D02*
X0134202Y0078259D01*
X0134202Y0077660D02*
X0134964Y0077660D01*
X0134964Y0077062D02*
X0134202Y0077062D01*
X0133796Y0076463D02*
X0135370Y0076463D01*
X0134625Y0075865D02*
X0128487Y0075865D01*
X0128499Y0075266D02*
X0128100Y0075266D01*
X0128913Y0076463D02*
X0130252Y0076463D01*
X0129846Y0077062D02*
X0128913Y0077062D01*
X0128913Y0077660D02*
X0129846Y0077660D01*
X0130700Y0075266D02*
X0131300Y0075266D01*
X0131300Y0074668D02*
X0130700Y0074668D01*
X0130700Y0074069D02*
X0131300Y0074069D01*
X0131300Y0073471D02*
X0130700Y0073471D01*
X0128342Y0070478D02*
X0128100Y0070478D01*
X0128125Y0069880D02*
X0134625Y0069880D01*
X0134625Y0069281D02*
X0133572Y0069281D01*
X0133572Y0066289D02*
X0134625Y0066289D01*
X0133281Y0065690D02*
X0139714Y0065690D01*
X0139378Y0065092D02*
X0123159Y0065092D01*
X0122870Y0064493D02*
X0139378Y0064493D01*
X0139378Y0063894D02*
X0122902Y0063894D01*
X0122902Y0063296D02*
X0139872Y0063296D01*
X0140470Y0062697D02*
X0122902Y0062697D01*
X0118546Y0062697D02*
X0092682Y0062697D01*
X0093281Y0062099D02*
X0095380Y0062099D01*
X0094782Y0061500D02*
X0093879Y0061500D01*
X0092084Y0063296D02*
X0118546Y0063296D01*
X0112953Y0064493D02*
X0109283Y0064493D01*
X0108986Y0064196D02*
X0110146Y0065356D01*
X0110146Y0066997D01*
X0108986Y0068158D01*
X0107345Y0068158D01*
X0106184Y0066997D01*
X0106184Y0065356D01*
X0107345Y0064196D01*
X0108986Y0064196D01*
X0109882Y0065092D02*
X0112355Y0065092D01*
X0112090Y0065690D02*
X0110146Y0065690D01*
X0110146Y0066289D02*
X0112090Y0066289D01*
X0112090Y0066887D02*
X0110146Y0066887D01*
X0109658Y0067486D02*
X0112578Y0067486D01*
X0113176Y0068084D02*
X0109060Y0068084D01*
X0107271Y0068084D02*
X0103154Y0068084D01*
X0103080Y0068158D02*
X0101439Y0068158D01*
X0100279Y0066997D01*
X0100279Y0065356D01*
X0101439Y0064196D01*
X0103080Y0064196D01*
X0104241Y0065356D01*
X0104241Y0066997D01*
X0103080Y0068158D01*
X0103753Y0067486D02*
X0106672Y0067486D01*
X0106184Y0066887D02*
X0104241Y0066887D01*
X0104241Y0066289D02*
X0106184Y0066289D01*
X0106184Y0065690D02*
X0104241Y0065690D01*
X0103976Y0065092D02*
X0106449Y0065092D01*
X0107048Y0064493D02*
X0103378Y0064493D01*
X0101142Y0064493D02*
X0097472Y0064493D01*
X0098071Y0065092D02*
X0100543Y0065092D01*
X0100279Y0065690D02*
X0098335Y0065690D01*
X0098335Y0066289D02*
X0100279Y0066289D01*
X0100279Y0066887D02*
X0098335Y0066887D01*
X0097847Y0067486D02*
X0100767Y0067486D01*
X0101365Y0068084D02*
X0097249Y0068084D01*
X0097552Y0070478D02*
X0101062Y0070478D01*
X0101439Y0070101D02*
X0100279Y0071262D01*
X0100279Y0072903D01*
X0101439Y0074063D01*
X0103080Y0074063D01*
X0104241Y0072903D01*
X0104241Y0071262D01*
X0103080Y0070101D01*
X0101439Y0070101D01*
X0100464Y0071077D02*
X0098150Y0071077D01*
X0098335Y0071675D02*
X0100279Y0071675D01*
X0100279Y0072274D02*
X0098335Y0072274D01*
X0098335Y0072872D02*
X0100279Y0072872D01*
X0100846Y0073471D02*
X0097768Y0073471D01*
X0098070Y0076558D02*
X0100150Y0076558D01*
X0100619Y0077027D01*
X0100619Y0080445D01*
X0100150Y0080914D01*
X0098070Y0080914D01*
X0097602Y0080445D01*
X0097602Y0077027D01*
X0098070Y0076558D01*
X0097602Y0077062D02*
X0097469Y0077062D01*
X0097469Y0077660D02*
X0097602Y0077660D01*
X0097602Y0078259D02*
X0097469Y0078259D01*
X0097469Y0078857D02*
X0097602Y0078857D01*
X0097602Y0079456D02*
X0097469Y0079456D01*
X0097469Y0080054D02*
X0097602Y0080054D01*
X0097809Y0080653D02*
X0097262Y0080653D01*
X0097748Y0081850D02*
X0104345Y0081850D01*
X0104352Y0082448D02*
X0098332Y0082448D01*
X0098332Y0083047D02*
X0104359Y0083047D01*
X0104366Y0083645D02*
X0098332Y0083645D01*
X0098086Y0084244D02*
X0104372Y0084244D01*
X0104379Y0084842D02*
X0097488Y0084842D01*
X0098749Y0085441D02*
X0104386Y0085441D01*
X0104393Y0086039D02*
X0099347Y0086039D01*
X0099946Y0086638D02*
X0104400Y0086638D01*
X0104407Y0087236D02*
X0100544Y0087236D01*
X0101143Y0087835D02*
X0104414Y0087835D01*
X0104420Y0088433D02*
X0101741Y0088433D01*
X0100426Y0090229D02*
X0098468Y0090229D01*
X0098785Y0089630D02*
X0099827Y0089630D01*
X0099229Y0089032D02*
X0098785Y0089032D01*
X0097996Y0090827D02*
X0100987Y0090827D01*
X0100987Y0091426D02*
X0097996Y0091426D01*
X0097996Y0092025D02*
X0100987Y0092025D01*
X0100987Y0092623D02*
X0097996Y0092623D01*
X0097996Y0093222D02*
X0100987Y0093222D01*
X0101291Y0093820D02*
X0097996Y0093820D01*
X0095398Y0084842D02*
X0091207Y0084842D01*
X0091550Y0084244D02*
X0094799Y0084244D01*
X0094554Y0083645D02*
X0091550Y0083645D01*
X0091550Y0083047D02*
X0094554Y0083047D01*
X0094554Y0082448D02*
X0091065Y0082448D01*
X0090962Y0080653D02*
X0091510Y0080653D01*
X0091302Y0080054D02*
X0091170Y0080054D01*
X0091170Y0079456D02*
X0091302Y0079456D01*
X0091302Y0078857D02*
X0091170Y0078857D01*
X0091170Y0078259D02*
X0091302Y0078259D01*
X0091302Y0077660D02*
X0091170Y0077660D01*
X0091170Y0077062D02*
X0091302Y0077062D01*
X0090855Y0075266D02*
X0118546Y0075266D01*
X0118858Y0074668D02*
X0090855Y0074668D01*
X0089661Y0078736D02*
X0089661Y0083716D01*
X0087772Y0083645D02*
X0086903Y0083645D01*
X0086903Y0083047D02*
X0087772Y0083047D01*
X0088258Y0082448D02*
X0086903Y0082448D01*
X0086903Y0081850D02*
X0088561Y0081850D01*
X0088561Y0081251D02*
X0086903Y0081251D01*
X0087813Y0080653D02*
X0088360Y0080653D01*
X0088153Y0080054D02*
X0088020Y0080054D01*
X0088020Y0079456D02*
X0088153Y0079456D01*
X0087772Y0084244D02*
X0086903Y0084244D01*
X0086903Y0084842D02*
X0088116Y0084842D01*
X0087444Y0085441D02*
X0086903Y0085441D01*
X0086903Y0086039D02*
X0086972Y0086039D01*
X0100411Y0080653D02*
X0100959Y0080653D01*
X0100751Y0080054D02*
X0100619Y0080054D01*
X0100619Y0079456D02*
X0100751Y0079456D01*
X0100751Y0078857D02*
X0100619Y0078857D01*
X0100619Y0078259D02*
X0100751Y0078259D01*
X0100751Y0077660D02*
X0100619Y0077660D01*
X0100619Y0077062D02*
X0100751Y0077062D01*
X0103673Y0073471D02*
X0106752Y0073471D01*
X0106184Y0072872D02*
X0104241Y0072872D01*
X0104241Y0072274D02*
X0106184Y0072274D01*
X0106184Y0071675D02*
X0104241Y0071675D01*
X0104056Y0071077D02*
X0106369Y0071077D01*
X0106968Y0070478D02*
X0103457Y0070478D01*
X0106918Y0077062D02*
X0107050Y0077062D01*
X0107050Y0077660D02*
X0106918Y0077660D01*
X0106918Y0078259D02*
X0107050Y0078259D01*
X0107050Y0078857D02*
X0106918Y0078857D01*
X0106918Y0079456D02*
X0107050Y0079456D01*
X0107050Y0080054D02*
X0106918Y0080054D01*
X0106711Y0080653D02*
X0107258Y0080653D01*
X0111709Y0078736D02*
X0111827Y0087830D01*
X0110218Y0095616D02*
X0109366Y0095616D01*
X0109364Y0096214D02*
X0109620Y0096214D01*
X0116545Y0101640D02*
X0120305Y0101640D01*
X0120305Y0102956D01*
X0121704Y0104355D01*
X0124255Y0104355D01*
X0132577Y0096034D01*
X0139423Y0096034D01*
X0140798Y0096214D02*
X0142377Y0096214D01*
X0142348Y0096266D02*
X0142519Y0095969D01*
X0142761Y0095727D01*
X0143057Y0095556D01*
X0143388Y0095467D01*
X0145228Y0095467D01*
X0145228Y0098436D01*
X0142259Y0098436D01*
X0142259Y0096596D01*
X0142348Y0096266D01*
X0142259Y0096813D02*
X0140670Y0096813D01*
X0140670Y0097411D02*
X0142259Y0097411D01*
X0142259Y0098010D02*
X0140670Y0098010D01*
X0140670Y0098608D02*
X0145228Y0098608D01*
X0145228Y0098010D02*
X0145828Y0098010D01*
X0145828Y0098608D02*
X0149309Y0098608D01*
X0148796Y0098010D02*
X0149908Y0098010D01*
X0150239Y0097411D02*
X0148796Y0097411D01*
X0148796Y0096813D02*
X0150239Y0096813D01*
X0150461Y0096214D02*
X0148678Y0096214D01*
X0145828Y0096214D02*
X0145228Y0096214D01*
X0145228Y0095616D02*
X0145828Y0095616D01*
X0145828Y0096813D02*
X0145228Y0096813D01*
X0145228Y0097411D02*
X0145828Y0097411D01*
X0142954Y0095616D02*
X0141396Y0095616D01*
X0141870Y0095017D02*
X0165212Y0095017D01*
X0165294Y0098010D02*
X0161759Y0098010D01*
X0166335Y0102199D02*
X0171214Y0102199D01*
X0172132Y0103441D02*
X0172573Y0103512D01*
X0150239Y0088433D02*
X0148296Y0088433D01*
X0148296Y0087835D02*
X0150239Y0087835D01*
X0150239Y0087236D02*
X0148296Y0087236D01*
X0147947Y0086638D02*
X0150589Y0086638D01*
X0143108Y0086638D02*
X0143037Y0086638D01*
X0141937Y0086594D02*
X0137142Y0081799D01*
X0137142Y0078972D01*
X0137000Y0078830D01*
X0137000Y0074002D01*
X0134625Y0074069D02*
X0134072Y0074069D01*
X0134072Y0073471D02*
X0134625Y0073471D01*
X0134625Y0074668D02*
X0133989Y0074668D01*
X0133501Y0075266D02*
X0134625Y0075266D01*
X0134964Y0079456D02*
X0134202Y0079456D01*
X0134202Y0080054D02*
X0134964Y0080054D01*
X0134964Y0080653D02*
X0134202Y0080653D01*
X0134025Y0081251D02*
X0135140Y0081251D01*
X0136042Y0081850D02*
X0133084Y0081850D01*
X0133084Y0082448D02*
X0136235Y0082448D01*
X0136834Y0083047D02*
X0133084Y0083047D01*
X0133084Y0083645D02*
X0137432Y0083645D01*
X0138031Y0084244D02*
X0133084Y0084244D01*
X0133084Y0084842D02*
X0138630Y0084842D01*
X0141937Y0086594D02*
X0141937Y0088573D01*
X0140537Y0089973D01*
X0136846Y0089973D01*
X0136004Y0089973D01*
X0133880Y0092097D01*
X0130016Y0090665D02*
X0130016Y0083185D01*
X0128047Y0085570D02*
X0124055Y0081578D01*
X0125135Y0077660D02*
X0121936Y0077660D01*
X0122900Y0077062D02*
X0125135Y0077062D01*
X0125135Y0076463D02*
X0122902Y0076463D01*
X0122902Y0075865D02*
X0125560Y0075865D01*
X0125900Y0075266D02*
X0122902Y0075266D01*
X0122591Y0074668D02*
X0125900Y0074668D01*
X0125900Y0074069D02*
X0122743Y0074069D01*
X0122902Y0073471D02*
X0125900Y0073471D01*
X0125900Y0072872D02*
X0122902Y0072872D01*
X0122902Y0072274D02*
X0125900Y0072274D01*
X0125900Y0071675D02*
X0122748Y0071675D01*
X0122586Y0071077D02*
X0125900Y0071077D01*
X0125900Y0070478D02*
X0122902Y0070478D01*
X0122902Y0069880D02*
X0125900Y0069880D01*
X0125900Y0069281D02*
X0122902Y0069281D01*
X0122902Y0068683D02*
X0126211Y0068683D01*
X0128759Y0067690D02*
X0131000Y0067690D01*
X0136594Y0067690D01*
X0137000Y0068097D01*
X0142454Y0053121D02*
X0126490Y0053121D01*
X0127089Y0052523D02*
X0141855Y0052523D01*
X0141616Y0051924D02*
X0127687Y0051924D01*
X0128286Y0051326D02*
X0141616Y0051326D01*
X0141616Y0050727D02*
X0132931Y0050727D01*
X0133464Y0050129D02*
X0134008Y0050129D01*
X0133823Y0049530D02*
X0133561Y0049530D01*
X0133561Y0048932D02*
X0133823Y0048932D01*
X0133823Y0048333D02*
X0133561Y0048333D01*
X0133823Y0047735D02*
X0131183Y0047735D01*
X0131183Y0048333D02*
X0130583Y0048333D01*
X0130583Y0048932D02*
X0131183Y0048932D01*
X0131183Y0049530D02*
X0130583Y0049530D01*
X0130583Y0050129D02*
X0131183Y0050129D01*
X0131183Y0050727D02*
X0130583Y0050727D01*
X0133561Y0047136D02*
X0133823Y0047136D01*
X0133823Y0046538D02*
X0133561Y0046538D01*
X0133561Y0045939D02*
X0133823Y0045939D01*
X0133783Y0045341D02*
X0133341Y0045341D01*
X0133020Y0044742D02*
X0133783Y0044742D01*
X0133783Y0044144D02*
X0133020Y0044144D01*
X0133020Y0043545D02*
X0133783Y0043545D01*
X0133783Y0042947D02*
X0133020Y0042947D01*
X0133020Y0042348D02*
X0133783Y0042348D01*
X0133783Y0041750D02*
X0133020Y0041750D01*
X0132986Y0041151D02*
X0133748Y0041151D01*
X0133748Y0040553D02*
X0132986Y0040553D01*
X0132986Y0039954D02*
X0133748Y0039954D01*
X0133748Y0039356D02*
X0132986Y0039356D01*
X0132986Y0038757D02*
X0133748Y0038757D01*
X0133748Y0038159D02*
X0132986Y0038159D01*
X0132986Y0037560D02*
X0133748Y0037560D01*
X0133703Y0036961D02*
X0132941Y0036961D01*
X0132941Y0036363D02*
X0133703Y0036363D01*
X0133703Y0035764D02*
X0132941Y0035764D01*
X0132941Y0035166D02*
X0133703Y0035166D01*
X0133703Y0034567D02*
X0132941Y0034567D01*
X0132941Y0033969D02*
X0133703Y0033969D01*
X0133703Y0033370D02*
X0132941Y0033370D01*
X0132742Y0032772D02*
X0133901Y0032772D01*
X0130808Y0030916D02*
X0130808Y0035074D01*
X0130763Y0035074D01*
X0128783Y0032772D02*
X0117420Y0032772D01*
X0118018Y0033370D02*
X0124567Y0033370D01*
X0123968Y0033969D02*
X0118616Y0033969D01*
X0118968Y0034567D02*
X0123878Y0034567D01*
X0123878Y0035166D02*
X0118968Y0035166D01*
X0118968Y0035764D02*
X0124018Y0035764D01*
X0124234Y0036363D02*
X0118491Y0036363D01*
X0117892Y0036961D02*
X0123636Y0036961D01*
X0123166Y0037560D02*
X0117079Y0037560D01*
X0117079Y0038159D02*
X0123166Y0038159D01*
X0123166Y0038757D02*
X0117042Y0038757D01*
X0116444Y0039356D02*
X0123526Y0039356D01*
X0124124Y0039954D02*
X0119373Y0039954D01*
X0118019Y0032173D02*
X0129394Y0032173D01*
X0128919Y0031575D02*
X0118617Y0031575D01*
X0119216Y0030976D02*
X0128919Y0030976D01*
X0128919Y0030378D02*
X0119815Y0030378D01*
X0120413Y0029779D02*
X0129273Y0029779D01*
X0129872Y0029181D02*
X0121012Y0029181D01*
X0121939Y0023196D02*
X0122201Y0023196D01*
X0115835Y0016014D02*
X0129304Y0016014D01*
X0134879Y0010627D02*
X0135139Y0010627D01*
X0134879Y0010028D02*
X0135738Y0010028D01*
X0136336Y0009430D02*
X0134556Y0009430D01*
X0133957Y0008831D02*
X0137839Y0008831D01*
X0137839Y0008233D02*
X0109747Y0008233D01*
X0109747Y0008831D02*
X0132023Y0008831D01*
X0130281Y0006437D02*
X0139871Y0006437D01*
X0139273Y0005839D02*
X0130716Y0005839D01*
X0130716Y0005240D02*
X0139266Y0005240D01*
X0139266Y0004642D02*
X0130716Y0004642D01*
X0130323Y0004043D02*
X0139490Y0004043D01*
X0138278Y0007634D02*
X0109747Y0007634D01*
X0107754Y0007634D02*
X0107566Y0007634D01*
X0107566Y0007036D02*
X0107754Y0007036D01*
X0107754Y0006437D02*
X0107566Y0006437D01*
X0107566Y0005839D02*
X0107754Y0005839D01*
X0107754Y0005240D02*
X0107566Y0005240D01*
X0104998Y0005240D02*
X0104810Y0005240D01*
X0104810Y0005839D02*
X0104998Y0005839D01*
X0104998Y0006437D02*
X0104810Y0006437D01*
X0102242Y0006437D02*
X0102055Y0006437D01*
X0102055Y0005839D02*
X0102242Y0005839D01*
X0102242Y0005240D02*
X0102055Y0005240D01*
X0102055Y0007036D02*
X0102242Y0007036D01*
X0102242Y0007634D02*
X0102055Y0007634D01*
X0102055Y0008233D02*
X0102242Y0008233D01*
X0102242Y0008831D02*
X0102055Y0008831D01*
X0102889Y0014218D02*
X0103473Y0014218D01*
X0103468Y0014817D02*
X0103187Y0014817D01*
X0103187Y0015415D02*
X0103462Y0015415D01*
X0103456Y0016014D02*
X0103187Y0016014D01*
X0103450Y0016612D02*
X0102656Y0016612D01*
X0107566Y0008831D02*
X0107754Y0008831D01*
X0107754Y0008233D02*
X0107566Y0008233D01*
X0127332Y0004043D02*
X0079932Y0004043D01*
X0085172Y0018896D02*
X0085172Y0019142D01*
X0082699Y0021616D01*
X0082699Y0025885D01*
X0078907Y0029677D01*
X0078907Y0035414D01*
X0077559Y0036762D01*
X0078834Y0038159D02*
X0080136Y0038159D01*
X0080136Y0038757D02*
X0070333Y0038757D01*
X0070932Y0039356D02*
X0079549Y0039356D01*
X0079432Y0037560D02*
X0080136Y0037560D01*
X0079672Y0036961D02*
X0079448Y0036961D01*
X0080796Y0035414D02*
X0081585Y0034625D01*
X0081585Y0028554D01*
X0085172Y0024968D01*
X0085172Y0022833D01*
X0083141Y0037297D02*
X0083141Y0037297D01*
X0091322Y0039356D02*
X0091361Y0039356D01*
X0092757Y0042348D02*
X0092865Y0042348D01*
X0092865Y0042947D02*
X0092757Y0042947D01*
X0092757Y0043545D02*
X0092865Y0043545D01*
X0092865Y0044144D02*
X0092757Y0044144D01*
X0094399Y0044144D02*
X0097522Y0044144D01*
X0099056Y0044144D02*
X0099165Y0044144D01*
X0099165Y0043545D02*
X0099056Y0043545D01*
X0099056Y0042947D02*
X0099165Y0042947D01*
X0099165Y0042348D02*
X0099056Y0042348D01*
X0099056Y0041750D02*
X0099165Y0041750D01*
X0099165Y0041151D02*
X0099056Y0041151D01*
X0099056Y0040553D02*
X0099165Y0040553D01*
X0099165Y0039954D02*
X0099056Y0039954D01*
X0099056Y0039356D02*
X0099165Y0039356D01*
X0100560Y0039356D02*
X0100810Y0039356D01*
X0101554Y0038757D02*
X0109778Y0038757D01*
X0109387Y0038159D02*
X0101992Y0038159D01*
X0101992Y0037560D02*
X0109387Y0037560D01*
X0109387Y0036961D02*
X0101992Y0036961D01*
X0101992Y0036363D02*
X0109824Y0036363D01*
X0110259Y0039356D02*
X0106859Y0039356D01*
X0107286Y0046538D02*
X0103139Y0046538D01*
X0103737Y0047136D02*
X0106688Y0047136D01*
X0106184Y0047735D02*
X0104241Y0047735D01*
X0104241Y0048333D02*
X0106184Y0048333D01*
X0106184Y0048932D02*
X0104241Y0048932D01*
X0103992Y0049530D02*
X0106434Y0049530D01*
X0107032Y0050129D02*
X0103393Y0050129D01*
X0101969Y0051894D02*
X0101969Y0054075D01*
X0099788Y0054075D01*
X0099874Y0053642D01*
X0100061Y0053191D01*
X0100333Y0052784D01*
X0100678Y0052439D01*
X0101085Y0052167D01*
X0101536Y0051980D01*
X0101969Y0051894D01*
X0101969Y0052523D02*
X0102550Y0052523D01*
X0102550Y0053121D02*
X0101969Y0053121D01*
X0101969Y0053720D02*
X0102550Y0053720D01*
X0101969Y0054318D02*
X0096645Y0054318D01*
X0096645Y0054075D02*
X0096645Y0054656D01*
X0098826Y0054656D01*
X0098740Y0055090D01*
X0098553Y0055541D01*
X0098282Y0055947D01*
X0097936Y0056293D01*
X0097530Y0056565D01*
X0097078Y0056752D01*
X0096645Y0056838D01*
X0096645Y0054656D01*
X0096064Y0054656D01*
X0096064Y0054075D01*
X0096645Y0054075D01*
X0096645Y0053720D02*
X0096064Y0053720D01*
X0096064Y0054075D02*
X0096064Y0051894D01*
X0095631Y0051980D01*
X0095179Y0052167D01*
X0094773Y0052439D01*
X0094427Y0052784D01*
X0094156Y0053191D01*
X0093969Y0053642D01*
X0093882Y0054075D01*
X0096064Y0054075D01*
X0096064Y0054318D02*
X0090739Y0054318D01*
X0090739Y0054656D02*
X0092921Y0054656D01*
X0092835Y0055090D01*
X0092648Y0055541D01*
X0092376Y0055947D01*
X0092030Y0056293D01*
X0091624Y0056565D01*
X0091173Y0056752D01*
X0090739Y0056838D01*
X0090739Y0054656D01*
X0090739Y0054917D02*
X0090158Y0054917D01*
X0090158Y0055515D02*
X0090739Y0055515D01*
X0090739Y0056114D02*
X0090158Y0056114D01*
X0090158Y0056712D02*
X0090739Y0056712D01*
X0091267Y0056712D02*
X0095536Y0056712D01*
X0095631Y0056752D02*
X0095179Y0056565D01*
X0094773Y0056293D01*
X0094427Y0055947D01*
X0094156Y0055541D01*
X0093969Y0055090D01*
X0093882Y0054656D01*
X0096064Y0054656D01*
X0096064Y0056838D01*
X0095631Y0056752D01*
X0096064Y0056712D02*
X0096645Y0056712D01*
X0097173Y0056712D02*
X0101441Y0056712D01*
X0101536Y0056752D02*
X0101085Y0056565D01*
X0100678Y0056293D01*
X0100333Y0055947D01*
X0100061Y0055541D01*
X0099874Y0055090D01*
X0099788Y0054656D01*
X0101969Y0054656D01*
X0101969Y0056838D01*
X0101536Y0056752D01*
X0101969Y0056712D02*
X0102550Y0056712D01*
X0102550Y0056114D02*
X0101969Y0056114D01*
X0101969Y0055515D02*
X0102550Y0055515D01*
X0102550Y0054917D02*
X0101969Y0054917D01*
X0100499Y0056114D02*
X0098115Y0056114D01*
X0098564Y0055515D02*
X0100050Y0055515D01*
X0099840Y0054917D02*
X0098774Y0054917D01*
X0098756Y0053720D02*
X0099859Y0053720D01*
X0100107Y0053121D02*
X0098507Y0053121D01*
X0098020Y0052523D02*
X0100594Y0052523D01*
X0103926Y0052523D02*
X0107207Y0052523D01*
X0110146Y0047735D02*
X0111686Y0047735D01*
X0111972Y0047136D02*
X0109643Y0047136D01*
X0109044Y0046538D02*
X0112485Y0046538D01*
X0113780Y0048932D02*
X0114361Y0048932D01*
X0114361Y0049530D02*
X0113780Y0049530D01*
X0113780Y0050129D02*
X0114361Y0050129D01*
X0114361Y0050727D02*
X0113780Y0050727D01*
X0107127Y0058508D02*
X0105119Y0058508D01*
X0103832Y0061500D02*
X0106593Y0061500D01*
X0107191Y0062099D02*
X0103234Y0062099D01*
X0101286Y0062099D02*
X0097328Y0062099D01*
X0097927Y0061500D02*
X0100687Y0061500D01*
X0100279Y0060902D02*
X0098335Y0060902D01*
X0098335Y0060303D02*
X0100279Y0060303D01*
X0100279Y0059705D02*
X0098335Y0059705D01*
X0096645Y0056114D02*
X0096064Y0056114D01*
X0096064Y0055515D02*
X0096645Y0055515D01*
X0096645Y0054917D02*
X0096064Y0054917D01*
X0096064Y0053121D02*
X0096645Y0053121D01*
X0096645Y0052523D02*
X0096064Y0052523D01*
X0096064Y0051924D02*
X0096645Y0051924D01*
X0095911Y0051924D02*
X0090892Y0051924D01*
X0090739Y0051924D02*
X0090158Y0051924D01*
X0090158Y0051894D02*
X0090158Y0054075D01*
X0087977Y0054075D01*
X0088063Y0053642D01*
X0088250Y0053191D01*
X0088522Y0052784D01*
X0088867Y0052439D01*
X0089274Y0052167D01*
X0089725Y0051980D01*
X0090158Y0051894D01*
X0090006Y0051924D02*
X0085912Y0051924D01*
X0085564Y0052523D02*
X0088783Y0052523D01*
X0088296Y0053121D02*
X0085973Y0053121D01*
X0085973Y0053720D02*
X0088048Y0053720D01*
X0088029Y0054917D02*
X0085973Y0054917D01*
X0085973Y0054318D02*
X0090158Y0054318D01*
X0090158Y0053720D02*
X0090739Y0053720D01*
X0090739Y0053121D02*
X0090158Y0053121D01*
X0090158Y0052523D02*
X0090739Y0052523D01*
X0092115Y0052523D02*
X0094689Y0052523D01*
X0094202Y0053121D02*
X0092601Y0053121D01*
X0092850Y0053720D02*
X0093953Y0053720D01*
X0093934Y0054917D02*
X0092869Y0054917D01*
X0092658Y0055515D02*
X0094145Y0055515D01*
X0094594Y0056114D02*
X0092210Y0056114D01*
X0091487Y0058508D02*
X0093495Y0058508D01*
X0092897Y0059106D02*
X0092086Y0059106D01*
X0094094Y0057909D02*
X0085973Y0057909D01*
X0085973Y0057311D02*
X0094692Y0057311D01*
X0095221Y0050129D02*
X0092289Y0050129D01*
X0092691Y0049530D02*
X0094623Y0049530D01*
X0094373Y0048932D02*
X0092885Y0048932D01*
X0095081Y0036961D02*
X0096455Y0036961D01*
X0096455Y0036363D02*
X0095509Y0036363D01*
X0073172Y0051924D02*
X0070017Y0051924D01*
X0070519Y0052523D02*
X0072573Y0052523D01*
X0072261Y0053121D02*
X0071020Y0053121D01*
X0071522Y0053720D02*
X0072261Y0053720D01*
X0072261Y0054318D02*
X0072024Y0054318D01*
X0072525Y0054917D02*
X0072777Y0054917D01*
X0072883Y0055515D02*
X0073037Y0055515D01*
X0073032Y0056114D02*
X0072861Y0056114D01*
X0072861Y0056712D02*
X0073028Y0056712D01*
X0073024Y0057311D02*
X0072861Y0057311D01*
X0072861Y0057909D02*
X0073020Y0057909D01*
X0073016Y0058508D02*
X0072861Y0058508D01*
X0072861Y0059106D02*
X0073012Y0059106D01*
X0073008Y0059705D02*
X0072861Y0059705D01*
X0072861Y0060303D02*
X0073004Y0060303D01*
X0073000Y0060902D02*
X0072861Y0060902D01*
X0072861Y0061500D02*
X0072996Y0061500D01*
X0072991Y0062099D02*
X0072861Y0062099D01*
X0072861Y0062697D02*
X0072987Y0062697D01*
X0072983Y0063296D02*
X0072861Y0063296D01*
X0072861Y0063894D02*
X0072979Y0063894D01*
X0072975Y0064493D02*
X0072861Y0064493D01*
X0072861Y0065092D02*
X0072971Y0065092D01*
X0072967Y0065690D02*
X0072861Y0065690D01*
X0072861Y0066289D02*
X0072963Y0066289D01*
X0072959Y0066887D02*
X0072861Y0066887D01*
X0072861Y0067486D02*
X0072954Y0067486D01*
X0072950Y0068084D02*
X0072861Y0068084D01*
X0072861Y0068683D02*
X0072946Y0068683D01*
X0072942Y0069281D02*
X0072861Y0069281D01*
X0072861Y0069880D02*
X0072938Y0069880D01*
X0072934Y0070478D02*
X0072861Y0070478D01*
X0067343Y0074424D02*
X0067343Y0075008D01*
X0066188Y0050129D02*
X0066165Y0050129D01*
X0066156Y0049530D02*
X0066786Y0049530D01*
X0065898Y0048932D02*
X0069630Y0048932D01*
X0069966Y0049530D02*
X0068993Y0049530D01*
X0069592Y0050129D02*
X0070564Y0050129D01*
X0112841Y0081251D02*
X0113520Y0081251D01*
X0120017Y0077660D02*
X0120300Y0077660D01*
X0128047Y0085570D02*
X0128047Y0090665D01*
X0128047Y0092634D02*
X0121748Y0092634D01*
X0122323Y0093820D02*
X0125906Y0093820D01*
X0125454Y0101601D02*
X0121404Y0101601D01*
X0121404Y0102199D02*
X0124856Y0102199D01*
X0124257Y0102798D02*
X0121702Y0102798D01*
X0120305Y0101640D02*
X0120305Y0100977D01*
X0119205Y0102798D02*
X0118059Y0102798D01*
X0117460Y0103396D02*
X0119205Y0103396D01*
X0134979Y0087619D02*
X0135486Y0087820D01*
X0140806Y0099207D02*
X0142259Y0099207D01*
X0142259Y0099805D02*
X0141405Y0099805D01*
X0142003Y0100404D02*
X0142259Y0100404D01*
X0140854Y0050129D02*
X0137995Y0050129D01*
X0138179Y0049530D02*
X0140632Y0049530D01*
X0136001Y0047841D02*
X0136001Y0043580D01*
X0135961Y0043539D01*
X0130843Y0039344D02*
X0130808Y0039344D01*
X0138059Y0033370D02*
X0140718Y0033370D01*
X0140915Y0032772D02*
X0137860Y0032772D01*
X0140308Y0020203D02*
X0140908Y0020203D01*
X0140908Y0019605D02*
X0140308Y0019605D01*
X0140308Y0019006D02*
X0140908Y0019006D01*
X0140908Y0018408D02*
X0140308Y0018408D01*
X0140308Y0016612D02*
X0140908Y0016612D01*
X0140908Y0016014D02*
X0140308Y0016014D01*
X0140308Y0015415D02*
X0140908Y0015415D01*
X0140908Y0014817D02*
X0140308Y0014817D01*
X0140308Y0014218D02*
X0140908Y0014218D01*
X0137839Y0013021D02*
X0137271Y0013021D01*
X0145028Y0044144D02*
X0145291Y0044144D01*
X0145291Y0044742D02*
X0145028Y0044742D01*
X0145028Y0045341D02*
X0145291Y0045341D01*
X0145250Y0045939D02*
X0144988Y0045939D01*
X0144988Y0046538D02*
X0145250Y0046538D01*
X0145250Y0047136D02*
X0144988Y0047136D01*
D34*
X0142810Y0047803D02*
X0142810Y0051789D01*
X0150143Y0059122D01*
X0142850Y0043539D02*
X0135961Y0043539D01*
X0135926Y0039344D02*
X0142847Y0039344D01*
X0142850Y0039348D01*
X0142892Y0035076D02*
X0142890Y0035074D01*
X0135881Y0035074D01*
X0108165Y0060271D02*
X0105194Y0060271D01*
X0103119Y0058197D01*
X0095495Y0058197D01*
X0088374Y0065317D01*
X0088374Y0072942D01*
X0089661Y0074229D01*
X0089661Y0078736D01*
X0083269Y0038774D02*
X0083538Y0038535D01*
D35*
X0068296Y0103291D02*
X0047160Y0103291D01*
X0024685Y0125766D01*
X0024685Y0162827D01*
X0018550Y0168962D01*
X0006350Y0168962D01*
X0171705Y0169356D02*
X0171878Y0169183D01*
X0189079Y0169183D01*
X0190788Y0167474D01*
D36*
X0164307Y0010468D02*
X0140606Y0010468D01*
X0140608Y0010570D01*
X0030926Y0011479D02*
X0030926Y0011562D01*
X0027242Y0015246D01*
X0011410Y0015246D01*
X0007304Y0019353D01*
X0011304Y0023227D02*
X0027103Y0023227D01*
X0030926Y0019403D01*
X0030926Y0019353D01*
X0030926Y0027227D02*
X0030926Y0027266D01*
X0027057Y0031135D01*
X0011270Y0031135D01*
X0007304Y0035101D01*
X0011295Y0038984D02*
X0027043Y0038984D01*
X0030926Y0035101D01*
X0030926Y0035101D01*
X0030926Y0042975D02*
X0030926Y0043039D01*
X0027148Y0046817D01*
X0011336Y0046817D01*
X0007304Y0050849D01*
X0011225Y0054801D02*
X0027004Y0054801D01*
X0030926Y0050879D01*
X0030926Y0050849D01*
X0030926Y0058723D02*
X0030926Y0058810D01*
X0027226Y0062511D01*
X0011390Y0062511D01*
X0007304Y0066597D01*
X0011301Y0070474D02*
X0027049Y0070474D01*
X0030926Y0066597D01*
X0030926Y0074471D02*
X0026985Y0078412D01*
X0011375Y0078412D01*
X0007304Y0082345D01*
X0007304Y0074471D02*
X0011301Y0070474D01*
X0007304Y0058723D02*
X0011225Y0054801D01*
X0007304Y0042975D02*
X0011295Y0038984D01*
X0007304Y0027227D02*
X0011304Y0023227D01*
D37*
X0085851Y0034234D02*
X0089661Y0039584D01*
X0089661Y0041807D01*
X0092544Y0034234D02*
X0094026Y0034645D01*
X0099119Y0034645D01*
X0100383Y0034565D01*
X0113364Y0034565D01*
X0125167Y0022763D01*
X0131959Y0022763D01*
X0132072Y0022650D01*
X0132072Y0015957D02*
X0137561Y0010468D01*
X0140606Y0010468D01*
X0099119Y0034645D02*
X0099224Y0035822D01*
D38*
X0099224Y0029129D02*
X0104783Y0023570D01*
X0104904Y0011037D01*
M02*
