G75*
%MOIN*%
%OFA0B0*%
%FSLAX25Y25*%
%IPPOS*%
%LPD*%
%AMOC8*
5,1,8,0,0,1.08239X$1,22.5*
%
%ADD10C,0.00000*%
%ADD11C,0.00300*%
%ADD12C,0.00200*%
%ADD13C,0.00100*%
%ADD14C,0.00500*%
%ADD15C,0.00400*%
%ADD16C,0.01600*%
%ADD17C,0.01575*%
%ADD18C,0.00800*%
%ADD19C,0.00295*%
%ADD20R,0.01600X0.02800*%
%ADD21R,0.02800X0.01600*%
%ADD22C,0.00600*%
%ADD23R,0.01800X0.03000*%
%ADD24R,0.03000X0.01800*%
D10*
X0001000Y0001649D02*
X0001000Y0198500D01*
X0197850Y0198500D01*
X0197850Y0001649D01*
X0001000Y0001649D01*
X0005726Y0103449D02*
X0005728Y0103642D01*
X0005735Y0103835D01*
X0005747Y0104028D01*
X0005764Y0104221D01*
X0005785Y0104413D01*
X0005811Y0104604D01*
X0005842Y0104795D01*
X0005877Y0104985D01*
X0005917Y0105174D01*
X0005962Y0105362D01*
X0006011Y0105549D01*
X0006065Y0105735D01*
X0006123Y0105919D01*
X0006186Y0106102D01*
X0006254Y0106283D01*
X0006325Y0106462D01*
X0006402Y0106640D01*
X0006482Y0106816D01*
X0006567Y0106989D01*
X0006656Y0107161D01*
X0006749Y0107330D01*
X0006846Y0107497D01*
X0006948Y0107662D01*
X0007053Y0107824D01*
X0007162Y0107983D01*
X0007276Y0108140D01*
X0007393Y0108293D01*
X0007513Y0108444D01*
X0007638Y0108592D01*
X0007766Y0108737D01*
X0007897Y0108878D01*
X0008032Y0109017D01*
X0008171Y0109152D01*
X0008312Y0109283D01*
X0008457Y0109411D01*
X0008605Y0109536D01*
X0008756Y0109656D01*
X0008909Y0109773D01*
X0009066Y0109887D01*
X0009225Y0109996D01*
X0009387Y0110101D01*
X0009552Y0110203D01*
X0009719Y0110300D01*
X0009888Y0110393D01*
X0010060Y0110482D01*
X0010233Y0110567D01*
X0010409Y0110647D01*
X0010587Y0110724D01*
X0010766Y0110795D01*
X0010947Y0110863D01*
X0011130Y0110926D01*
X0011314Y0110984D01*
X0011500Y0111038D01*
X0011687Y0111087D01*
X0011875Y0111132D01*
X0012064Y0111172D01*
X0012254Y0111207D01*
X0012445Y0111238D01*
X0012636Y0111264D01*
X0012828Y0111285D01*
X0013021Y0111302D01*
X0013214Y0111314D01*
X0013407Y0111321D01*
X0013600Y0111323D01*
X0013793Y0111321D01*
X0013986Y0111314D01*
X0014179Y0111302D01*
X0014372Y0111285D01*
X0014564Y0111264D01*
X0014755Y0111238D01*
X0014946Y0111207D01*
X0015136Y0111172D01*
X0015325Y0111132D01*
X0015513Y0111087D01*
X0015700Y0111038D01*
X0015886Y0110984D01*
X0016070Y0110926D01*
X0016253Y0110863D01*
X0016434Y0110795D01*
X0016613Y0110724D01*
X0016791Y0110647D01*
X0016967Y0110567D01*
X0017140Y0110482D01*
X0017312Y0110393D01*
X0017481Y0110300D01*
X0017648Y0110203D01*
X0017813Y0110101D01*
X0017975Y0109996D01*
X0018134Y0109887D01*
X0018291Y0109773D01*
X0018444Y0109656D01*
X0018595Y0109536D01*
X0018743Y0109411D01*
X0018888Y0109283D01*
X0019029Y0109152D01*
X0019168Y0109017D01*
X0019303Y0108878D01*
X0019434Y0108737D01*
X0019562Y0108592D01*
X0019687Y0108444D01*
X0019807Y0108293D01*
X0019924Y0108140D01*
X0020038Y0107983D01*
X0020147Y0107824D01*
X0020252Y0107662D01*
X0020354Y0107497D01*
X0020451Y0107330D01*
X0020544Y0107161D01*
X0020633Y0106989D01*
X0020718Y0106816D01*
X0020798Y0106640D01*
X0020875Y0106462D01*
X0020946Y0106283D01*
X0021014Y0106102D01*
X0021077Y0105919D01*
X0021135Y0105735D01*
X0021189Y0105549D01*
X0021238Y0105362D01*
X0021283Y0105174D01*
X0021323Y0104985D01*
X0021358Y0104795D01*
X0021389Y0104604D01*
X0021415Y0104413D01*
X0021436Y0104221D01*
X0021453Y0104028D01*
X0021465Y0103835D01*
X0021472Y0103642D01*
X0021474Y0103449D01*
X0021472Y0103256D01*
X0021465Y0103063D01*
X0021453Y0102870D01*
X0021436Y0102677D01*
X0021415Y0102485D01*
X0021389Y0102294D01*
X0021358Y0102103D01*
X0021323Y0101913D01*
X0021283Y0101724D01*
X0021238Y0101536D01*
X0021189Y0101349D01*
X0021135Y0101163D01*
X0021077Y0100979D01*
X0021014Y0100796D01*
X0020946Y0100615D01*
X0020875Y0100436D01*
X0020798Y0100258D01*
X0020718Y0100082D01*
X0020633Y0099909D01*
X0020544Y0099737D01*
X0020451Y0099568D01*
X0020354Y0099401D01*
X0020252Y0099236D01*
X0020147Y0099074D01*
X0020038Y0098915D01*
X0019924Y0098758D01*
X0019807Y0098605D01*
X0019687Y0098454D01*
X0019562Y0098306D01*
X0019434Y0098161D01*
X0019303Y0098020D01*
X0019168Y0097881D01*
X0019029Y0097746D01*
X0018888Y0097615D01*
X0018743Y0097487D01*
X0018595Y0097362D01*
X0018444Y0097242D01*
X0018291Y0097125D01*
X0018134Y0097011D01*
X0017975Y0096902D01*
X0017813Y0096797D01*
X0017648Y0096695D01*
X0017481Y0096598D01*
X0017312Y0096505D01*
X0017140Y0096416D01*
X0016967Y0096331D01*
X0016791Y0096251D01*
X0016613Y0096174D01*
X0016434Y0096103D01*
X0016253Y0096035D01*
X0016070Y0095972D01*
X0015886Y0095914D01*
X0015700Y0095860D01*
X0015513Y0095811D01*
X0015325Y0095766D01*
X0015136Y0095726D01*
X0014946Y0095691D01*
X0014755Y0095660D01*
X0014564Y0095634D01*
X0014372Y0095613D01*
X0014179Y0095596D01*
X0013986Y0095584D01*
X0013793Y0095577D01*
X0013600Y0095575D01*
X0013407Y0095577D01*
X0013214Y0095584D01*
X0013021Y0095596D01*
X0012828Y0095613D01*
X0012636Y0095634D01*
X0012445Y0095660D01*
X0012254Y0095691D01*
X0012064Y0095726D01*
X0011875Y0095766D01*
X0011687Y0095811D01*
X0011500Y0095860D01*
X0011314Y0095914D01*
X0011130Y0095972D01*
X0010947Y0096035D01*
X0010766Y0096103D01*
X0010587Y0096174D01*
X0010409Y0096251D01*
X0010233Y0096331D01*
X0010060Y0096416D01*
X0009888Y0096505D01*
X0009719Y0096598D01*
X0009552Y0096695D01*
X0009387Y0096797D01*
X0009225Y0096902D01*
X0009066Y0097011D01*
X0008909Y0097125D01*
X0008756Y0097242D01*
X0008605Y0097362D01*
X0008457Y0097487D01*
X0008312Y0097615D01*
X0008171Y0097746D01*
X0008032Y0097881D01*
X0007897Y0098020D01*
X0007766Y0098161D01*
X0007638Y0098306D01*
X0007513Y0098454D01*
X0007393Y0098605D01*
X0007276Y0098758D01*
X0007162Y0098915D01*
X0007053Y0099074D01*
X0006948Y0099236D01*
X0006846Y0099401D01*
X0006749Y0099568D01*
X0006656Y0099737D01*
X0006567Y0099909D01*
X0006482Y0100082D01*
X0006402Y0100258D01*
X0006325Y0100436D01*
X0006254Y0100615D01*
X0006186Y0100796D01*
X0006123Y0100979D01*
X0006065Y0101163D01*
X0006011Y0101349D01*
X0005962Y0101536D01*
X0005917Y0101724D01*
X0005877Y0101913D01*
X0005842Y0102103D01*
X0005811Y0102294D01*
X0005785Y0102485D01*
X0005764Y0102677D01*
X0005747Y0102870D01*
X0005735Y0103063D01*
X0005728Y0103256D01*
X0005726Y0103449D01*
D11*
X0088524Y0017923D02*
X0090295Y0017923D01*
X0088524Y0017923D02*
X0088524Y0012805D01*
X0090295Y0012805D01*
X0097776Y0012805D02*
X0099547Y0012805D01*
X0099547Y0017923D01*
X0097776Y0017923D01*
X0130959Y0014525D02*
X0130959Y0012754D01*
X0136077Y0012754D01*
X0136077Y0014525D01*
X0136077Y0022006D02*
X0136077Y0023777D01*
X0130959Y0023777D01*
X0130959Y0022006D01*
X0161627Y0008084D02*
X0162593Y0005184D01*
X0163560Y0008084D01*
X0164529Y0005345D02*
X0164690Y0005345D01*
X0164690Y0005184D01*
X0164529Y0005184D01*
X0164529Y0005345D01*
X0167452Y0005184D02*
X0167452Y0008084D01*
X0167452Y0006795D02*
X0169063Y0006795D01*
X0169063Y0008084D02*
X0169063Y0005184D01*
X0170493Y0005668D02*
X0170493Y0007118D01*
X0171782Y0007118D02*
X0171782Y0005184D01*
X0170976Y0005184D01*
X0170976Y0005185D02*
X0170934Y0005187D01*
X0170892Y0005192D01*
X0170851Y0005201D01*
X0170811Y0005214D01*
X0170772Y0005230D01*
X0170735Y0005250D01*
X0170699Y0005272D01*
X0170666Y0005298D01*
X0170634Y0005326D01*
X0170606Y0005358D01*
X0170580Y0005391D01*
X0170558Y0005427D01*
X0170538Y0005464D01*
X0170522Y0005503D01*
X0170509Y0005543D01*
X0170500Y0005584D01*
X0170495Y0005626D01*
X0170493Y0005668D01*
X0173181Y0005184D02*
X0173181Y0007118D01*
X0173986Y0007118D01*
X0173986Y0007117D02*
X0174028Y0007115D01*
X0174070Y0007110D01*
X0174111Y0007101D01*
X0174151Y0007088D01*
X0174190Y0007072D01*
X0174228Y0007052D01*
X0174263Y0007030D01*
X0174296Y0007004D01*
X0174328Y0006976D01*
X0174356Y0006944D01*
X0174382Y0006911D01*
X0174404Y0006876D01*
X0174424Y0006838D01*
X0174440Y0006799D01*
X0174453Y0006759D01*
X0174462Y0006718D01*
X0174467Y0006676D01*
X0174469Y0006634D01*
X0174470Y0006634D02*
X0174470Y0005184D01*
X0175847Y0005668D02*
X0175847Y0008084D01*
X0175525Y0007118D02*
X0176491Y0007118D01*
X0177597Y0006473D02*
X0177597Y0005668D01*
X0177597Y0006151D02*
X0178886Y0006151D01*
X0178886Y0006473D01*
X0178885Y0006473D02*
X0178883Y0006522D01*
X0178877Y0006571D01*
X0178868Y0006620D01*
X0178855Y0006667D01*
X0178838Y0006714D01*
X0178818Y0006759D01*
X0178795Y0006802D01*
X0178768Y0006844D01*
X0178738Y0006883D01*
X0178705Y0006920D01*
X0178669Y0006954D01*
X0178631Y0006985D01*
X0178591Y0007014D01*
X0178549Y0007039D01*
X0178504Y0007061D01*
X0178459Y0007079D01*
X0178412Y0007094D01*
X0178364Y0007105D01*
X0178315Y0007113D01*
X0178266Y0007117D01*
X0178216Y0007117D01*
X0178167Y0007113D01*
X0178118Y0007105D01*
X0178070Y0007094D01*
X0178023Y0007079D01*
X0177978Y0007061D01*
X0177933Y0007039D01*
X0177891Y0007014D01*
X0177851Y0006985D01*
X0177813Y0006954D01*
X0177777Y0006920D01*
X0177744Y0006883D01*
X0177714Y0006844D01*
X0177687Y0006802D01*
X0177664Y0006759D01*
X0177644Y0006714D01*
X0177627Y0006667D01*
X0177614Y0006620D01*
X0177605Y0006571D01*
X0177599Y0006522D01*
X0177597Y0006473D01*
X0177597Y0005668D02*
X0177599Y0005626D01*
X0177604Y0005584D01*
X0177613Y0005543D01*
X0177626Y0005503D01*
X0177642Y0005464D01*
X0177662Y0005427D01*
X0177684Y0005391D01*
X0177710Y0005358D01*
X0177738Y0005326D01*
X0177770Y0005298D01*
X0177803Y0005272D01*
X0177839Y0005250D01*
X0177876Y0005230D01*
X0177915Y0005214D01*
X0177955Y0005201D01*
X0177996Y0005192D01*
X0178038Y0005187D01*
X0178080Y0005185D01*
X0178080Y0005184D02*
X0178886Y0005184D01*
X0180207Y0005184D02*
X0180207Y0007118D01*
X0181173Y0007118D01*
X0181173Y0006795D01*
X0183756Y0005909D02*
X0185206Y0005909D01*
X0185448Y0005184D02*
X0184481Y0008084D01*
X0183514Y0005184D01*
X0186509Y0005668D02*
X0186509Y0006634D01*
X0186511Y0006676D01*
X0186516Y0006718D01*
X0186525Y0006759D01*
X0186538Y0006799D01*
X0186554Y0006838D01*
X0186574Y0006876D01*
X0186596Y0006911D01*
X0186622Y0006944D01*
X0186650Y0006976D01*
X0186682Y0007004D01*
X0186715Y0007030D01*
X0186751Y0007052D01*
X0186788Y0007072D01*
X0186827Y0007088D01*
X0186867Y0007101D01*
X0186908Y0007110D01*
X0186950Y0007115D01*
X0186992Y0007117D01*
X0186992Y0007118D02*
X0187797Y0007118D01*
X0187797Y0008084D02*
X0187797Y0005184D01*
X0186992Y0005184D01*
X0186992Y0005185D02*
X0186950Y0005187D01*
X0186908Y0005192D01*
X0186867Y0005201D01*
X0186827Y0005214D01*
X0186788Y0005230D01*
X0186751Y0005250D01*
X0186715Y0005272D01*
X0186682Y0005298D01*
X0186650Y0005326D01*
X0186622Y0005358D01*
X0186596Y0005391D01*
X0186574Y0005427D01*
X0186554Y0005464D01*
X0186538Y0005503D01*
X0186525Y0005543D01*
X0186516Y0005584D01*
X0186511Y0005626D01*
X0186509Y0005668D01*
X0189262Y0007118D02*
X0189906Y0007118D01*
X0189906Y0007117D02*
X0189948Y0007115D01*
X0189990Y0007110D01*
X0190031Y0007101D01*
X0190071Y0007088D01*
X0190110Y0007072D01*
X0190148Y0007052D01*
X0190183Y0007030D01*
X0190216Y0007004D01*
X0190248Y0006976D01*
X0190276Y0006944D01*
X0190302Y0006911D01*
X0190324Y0006876D01*
X0190344Y0006838D01*
X0190360Y0006799D01*
X0190373Y0006759D01*
X0190382Y0006718D01*
X0190387Y0006676D01*
X0190389Y0006634D01*
X0190389Y0005184D01*
X0189664Y0005184D01*
X0189617Y0005186D01*
X0189571Y0005192D01*
X0189526Y0005201D01*
X0189481Y0005215D01*
X0189437Y0005232D01*
X0189396Y0005252D01*
X0189356Y0005276D01*
X0189318Y0005303D01*
X0189282Y0005333D01*
X0189249Y0005366D01*
X0189219Y0005402D01*
X0189192Y0005440D01*
X0189168Y0005480D01*
X0189148Y0005521D01*
X0189131Y0005565D01*
X0189117Y0005610D01*
X0189108Y0005655D01*
X0189102Y0005701D01*
X0189100Y0005748D01*
X0189102Y0005795D01*
X0189108Y0005841D01*
X0189117Y0005886D01*
X0189131Y0005931D01*
X0189148Y0005975D01*
X0189168Y0006016D01*
X0189192Y0006056D01*
X0189219Y0006094D01*
X0189249Y0006130D01*
X0189282Y0006163D01*
X0189318Y0006193D01*
X0189356Y0006220D01*
X0189396Y0006244D01*
X0189437Y0006264D01*
X0189481Y0006281D01*
X0189526Y0006295D01*
X0189571Y0006304D01*
X0189617Y0006310D01*
X0189664Y0006312D01*
X0190389Y0006312D01*
X0191866Y0007118D02*
X0191866Y0005184D01*
X0192833Y0005184D02*
X0192833Y0007118D01*
X0193316Y0007118D02*
X0191866Y0007118D01*
X0193316Y0007117D02*
X0193358Y0007115D01*
X0193400Y0007110D01*
X0193441Y0007101D01*
X0193481Y0007088D01*
X0193520Y0007072D01*
X0193558Y0007052D01*
X0193593Y0007030D01*
X0193626Y0007004D01*
X0193658Y0006976D01*
X0193686Y0006944D01*
X0193712Y0006911D01*
X0193734Y0006876D01*
X0193754Y0006838D01*
X0193770Y0006799D01*
X0193783Y0006759D01*
X0193792Y0006718D01*
X0193797Y0006676D01*
X0193799Y0006634D01*
X0193800Y0006634D02*
X0193800Y0005184D01*
X0195567Y0007118D02*
X0195650Y0007115D01*
X0195733Y0007108D01*
X0195815Y0007097D01*
X0195897Y0007083D01*
X0195978Y0007065D01*
X0196059Y0007043D01*
X0196138Y0007018D01*
X0196216Y0006989D01*
X0196292Y0006957D01*
X0195567Y0007118D02*
X0195527Y0007117D01*
X0195487Y0007111D01*
X0195448Y0007103D01*
X0195410Y0007090D01*
X0195374Y0007074D01*
X0195339Y0007054D01*
X0195306Y0007031D01*
X0195276Y0007005D01*
X0195248Y0006977D01*
X0195223Y0006946D01*
X0195201Y0006912D01*
X0195182Y0006877D01*
X0195167Y0006840D01*
X0195156Y0006801D01*
X0195148Y0006762D01*
X0195144Y0006722D01*
X0195143Y0006683D01*
X0195147Y0006643D01*
X0195154Y0006603D01*
X0195165Y0006565D01*
X0195180Y0006528D01*
X0195198Y0006492D01*
X0195220Y0006458D01*
X0195244Y0006427D01*
X0195272Y0006398D01*
X0195302Y0006372D01*
X0195335Y0006349D01*
X0195369Y0006329D01*
X0195406Y0006312D01*
X0196212Y0005990D01*
X0196249Y0005973D01*
X0196283Y0005953D01*
X0196316Y0005930D01*
X0196346Y0005904D01*
X0196374Y0005875D01*
X0196398Y0005844D01*
X0196420Y0005810D01*
X0196438Y0005774D01*
X0196453Y0005737D01*
X0196464Y0005699D01*
X0196471Y0005659D01*
X0196475Y0005619D01*
X0196474Y0005580D01*
X0196470Y0005540D01*
X0196462Y0005501D01*
X0196451Y0005462D01*
X0196436Y0005425D01*
X0196417Y0005390D01*
X0196395Y0005356D01*
X0196370Y0005325D01*
X0196342Y0005297D01*
X0196312Y0005271D01*
X0196279Y0005248D01*
X0196244Y0005228D01*
X0196208Y0005212D01*
X0196170Y0005199D01*
X0196131Y0005191D01*
X0196091Y0005185D01*
X0196051Y0005184D01*
X0195951Y0005188D01*
X0195850Y0005195D01*
X0195750Y0005205D01*
X0195651Y0005220D01*
X0195552Y0005238D01*
X0195454Y0005259D01*
X0195356Y0005284D01*
X0195260Y0005313D01*
X0195165Y0005345D01*
X0176491Y0005184D02*
X0176330Y0005184D01*
X0176330Y0005185D02*
X0176288Y0005187D01*
X0176246Y0005192D01*
X0176205Y0005201D01*
X0176165Y0005214D01*
X0176126Y0005230D01*
X0176089Y0005250D01*
X0176053Y0005272D01*
X0176020Y0005298D01*
X0175988Y0005326D01*
X0175960Y0005358D01*
X0175934Y0005391D01*
X0175912Y0005427D01*
X0175892Y0005464D01*
X0175876Y0005503D01*
X0175863Y0005543D01*
X0175854Y0005584D01*
X0175849Y0005626D01*
X0175847Y0005668D01*
D12*
X0133021Y0109185D02*
X0133021Y0109673D01*
X0133021Y0109429D02*
X0130821Y0109429D01*
X0130821Y0109185D02*
X0130821Y0109673D01*
X0131432Y0110546D02*
X0132409Y0110546D01*
X0132457Y0110548D01*
X0132505Y0110554D01*
X0132552Y0110563D01*
X0132598Y0110576D01*
X0132643Y0110593D01*
X0132686Y0110613D01*
X0132728Y0110636D01*
X0132768Y0110663D01*
X0132806Y0110692D01*
X0132841Y0110725D01*
X0132874Y0110760D01*
X0132903Y0110798D01*
X0132930Y0110838D01*
X0132953Y0110880D01*
X0132973Y0110923D01*
X0132990Y0110968D01*
X0133003Y0111014D01*
X0133012Y0111061D01*
X0133018Y0111109D01*
X0133020Y0111157D01*
X0133018Y0111205D01*
X0133012Y0111253D01*
X0133003Y0111300D01*
X0132990Y0111346D01*
X0132973Y0111391D01*
X0132953Y0111434D01*
X0132930Y0111476D01*
X0132903Y0111516D01*
X0132874Y0111554D01*
X0132841Y0111589D01*
X0132806Y0111622D01*
X0132768Y0111651D01*
X0132728Y0111678D01*
X0132686Y0111701D01*
X0132643Y0111721D01*
X0132598Y0111738D01*
X0132552Y0111751D01*
X0132505Y0111760D01*
X0132457Y0111766D01*
X0132409Y0111768D01*
X0131432Y0111768D01*
X0131384Y0111766D01*
X0131336Y0111760D01*
X0131289Y0111751D01*
X0131243Y0111738D01*
X0131198Y0111721D01*
X0131155Y0111701D01*
X0131113Y0111678D01*
X0131073Y0111651D01*
X0131035Y0111622D01*
X0131000Y0111589D01*
X0130967Y0111554D01*
X0130938Y0111516D01*
X0130911Y0111476D01*
X0130888Y0111434D01*
X0130868Y0111391D01*
X0130851Y0111346D01*
X0130838Y0111300D01*
X0130829Y0111253D01*
X0130823Y0111205D01*
X0130821Y0111157D01*
X0130823Y0111109D01*
X0130829Y0111061D01*
X0130838Y0111014D01*
X0130851Y0110968D01*
X0130868Y0110923D01*
X0130888Y0110880D01*
X0130911Y0110838D01*
X0130938Y0110798D01*
X0130967Y0110760D01*
X0131000Y0110725D01*
X0131035Y0110692D01*
X0131073Y0110663D01*
X0131113Y0110636D01*
X0131155Y0110613D01*
X0131198Y0110593D01*
X0131243Y0110576D01*
X0131289Y0110563D01*
X0131336Y0110554D01*
X0131384Y0110548D01*
X0131432Y0110546D01*
X0130821Y0112641D02*
X0130821Y0113129D01*
X0130821Y0112885D02*
X0133021Y0112885D01*
X0133021Y0112641D02*
X0133021Y0113129D01*
X0133021Y0114074D02*
X0130821Y0114074D01*
X0130821Y0114685D01*
X0130823Y0114733D01*
X0130829Y0114781D01*
X0130838Y0114828D01*
X0130851Y0114874D01*
X0130868Y0114919D01*
X0130888Y0114962D01*
X0130911Y0115004D01*
X0130938Y0115044D01*
X0130967Y0115082D01*
X0131000Y0115117D01*
X0131035Y0115150D01*
X0131073Y0115179D01*
X0131113Y0115206D01*
X0131155Y0115229D01*
X0131198Y0115249D01*
X0131243Y0115266D01*
X0131289Y0115279D01*
X0131336Y0115288D01*
X0131384Y0115294D01*
X0131432Y0115296D01*
X0132409Y0115296D01*
X0132457Y0115294D01*
X0132505Y0115288D01*
X0132552Y0115279D01*
X0132598Y0115266D01*
X0132643Y0115249D01*
X0132686Y0115229D01*
X0132728Y0115206D01*
X0132768Y0115179D01*
X0132806Y0115150D01*
X0132841Y0115117D01*
X0132874Y0115082D01*
X0132903Y0115044D01*
X0132930Y0115004D01*
X0132953Y0114962D01*
X0132973Y0114919D01*
X0132990Y0114874D01*
X0133003Y0114828D01*
X0133012Y0114781D01*
X0133018Y0114733D01*
X0133020Y0114685D01*
X0133021Y0114685D02*
X0133021Y0114074D01*
X0133021Y0116306D02*
X0133021Y0117528D01*
X0133021Y0116306D02*
X0131798Y0117345D01*
X0130820Y0116978D02*
X0130822Y0116926D01*
X0130828Y0116874D01*
X0130837Y0116822D01*
X0130851Y0116772D01*
X0130868Y0116722D01*
X0130889Y0116674D01*
X0130913Y0116628D01*
X0130940Y0116584D01*
X0130971Y0116541D01*
X0131005Y0116501D01*
X0131041Y0116464D01*
X0131081Y0116430D01*
X0131123Y0116398D01*
X0131166Y0116370D01*
X0131212Y0116345D01*
X0131260Y0116323D01*
X0131309Y0116305D01*
X0131799Y0117345D02*
X0131765Y0117378D01*
X0131728Y0117408D01*
X0131688Y0117436D01*
X0131647Y0117460D01*
X0131604Y0117480D01*
X0131559Y0117497D01*
X0131513Y0117511D01*
X0131466Y0117520D01*
X0131419Y0117526D01*
X0131371Y0117528D01*
X0131326Y0117526D01*
X0131280Y0117520D01*
X0131236Y0117511D01*
X0131192Y0117498D01*
X0131150Y0117482D01*
X0131109Y0117462D01*
X0131070Y0117438D01*
X0131033Y0117412D01*
X0130998Y0117383D01*
X0130966Y0117351D01*
X0130937Y0117316D01*
X0130911Y0117279D01*
X0130887Y0117240D01*
X0130867Y0117199D01*
X0130851Y0117157D01*
X0130838Y0117113D01*
X0130829Y0117069D01*
X0130823Y0117023D01*
X0130821Y0116978D01*
X0131432Y0118466D02*
X0131554Y0118466D01*
X0131597Y0118468D01*
X0131639Y0118473D01*
X0131681Y0118483D01*
X0131721Y0118495D01*
X0131761Y0118512D01*
X0131799Y0118532D01*
X0131834Y0118554D01*
X0131868Y0118580D01*
X0131900Y0118609D01*
X0131929Y0118641D01*
X0131955Y0118675D01*
X0131977Y0118711D01*
X0131997Y0118748D01*
X0132014Y0118788D01*
X0132026Y0118828D01*
X0132036Y0118870D01*
X0132041Y0118912D01*
X0132043Y0118955D01*
X0132043Y0119688D01*
X0131432Y0119688D01*
X0131384Y0119686D01*
X0131336Y0119680D01*
X0131289Y0119671D01*
X0131243Y0119658D01*
X0131198Y0119641D01*
X0131155Y0119621D01*
X0131113Y0119598D01*
X0131073Y0119571D01*
X0131035Y0119542D01*
X0131000Y0119509D01*
X0130967Y0119474D01*
X0130938Y0119436D01*
X0130911Y0119396D01*
X0130888Y0119354D01*
X0130868Y0119311D01*
X0130851Y0119266D01*
X0130838Y0119220D01*
X0130829Y0119173D01*
X0130823Y0119125D01*
X0130821Y0119077D01*
X0130823Y0119029D01*
X0130829Y0118981D01*
X0130838Y0118934D01*
X0130851Y0118888D01*
X0130868Y0118843D01*
X0130888Y0118800D01*
X0130911Y0118758D01*
X0130938Y0118718D01*
X0130967Y0118680D01*
X0131000Y0118645D01*
X0131035Y0118612D01*
X0131073Y0118583D01*
X0131113Y0118556D01*
X0131155Y0118533D01*
X0131198Y0118513D01*
X0131243Y0118496D01*
X0131289Y0118483D01*
X0131336Y0118474D01*
X0131384Y0118468D01*
X0131432Y0118466D01*
X0132043Y0119688D02*
X0132104Y0119686D01*
X0132166Y0119680D01*
X0132226Y0119671D01*
X0132286Y0119657D01*
X0132345Y0119640D01*
X0132403Y0119619D01*
X0132459Y0119595D01*
X0132514Y0119567D01*
X0132567Y0119536D01*
X0132618Y0119501D01*
X0132666Y0119464D01*
X0132712Y0119423D01*
X0132756Y0119379D01*
X0132797Y0119333D01*
X0132834Y0119285D01*
X0132869Y0119234D01*
X0132900Y0119181D01*
X0132928Y0119126D01*
X0132952Y0119070D01*
X0132973Y0119012D01*
X0132990Y0118953D01*
X0133004Y0118893D01*
X0133013Y0118833D01*
X0133019Y0118771D01*
X0133021Y0118710D01*
X0141961Y0117162D02*
X0142695Y0114962D01*
X0143428Y0117162D01*
X0144233Y0116673D02*
X0144235Y0116716D01*
X0144240Y0116758D01*
X0144250Y0116800D01*
X0144262Y0116840D01*
X0144279Y0116880D01*
X0144299Y0116918D01*
X0144321Y0116953D01*
X0144347Y0116987D01*
X0144376Y0117019D01*
X0144408Y0117048D01*
X0144442Y0117074D01*
X0144478Y0117096D01*
X0144515Y0117116D01*
X0144555Y0117133D01*
X0144595Y0117145D01*
X0144637Y0117155D01*
X0144679Y0117160D01*
X0144722Y0117162D01*
X0144232Y0116673D02*
X0144234Y0116630D01*
X0144239Y0116587D01*
X0144249Y0116545D01*
X0144261Y0116504D01*
X0144278Y0116465D01*
X0144297Y0116426D01*
X0144320Y0116390D01*
X0144346Y0116356D01*
X0144375Y0116324D01*
X0144407Y0116295D01*
X0144441Y0116268D01*
X0144477Y0116245D01*
X0145149Y0115878D01*
X0144905Y0114962D02*
X0144842Y0114964D01*
X0144780Y0114970D01*
X0144718Y0114979D01*
X0144657Y0114992D01*
X0144596Y0115009D01*
X0144537Y0115030D01*
X0144479Y0115054D01*
X0144423Y0115082D01*
X0144368Y0115113D01*
X0144315Y0115147D01*
X0144265Y0115184D01*
X0144217Y0115224D01*
X0144172Y0115268D01*
X0145149Y0115879D02*
X0145185Y0115856D01*
X0145219Y0115829D01*
X0145251Y0115800D01*
X0145280Y0115768D01*
X0145306Y0115734D01*
X0145329Y0115698D01*
X0145348Y0115659D01*
X0145365Y0115620D01*
X0145377Y0115579D01*
X0145387Y0115537D01*
X0145392Y0115494D01*
X0145394Y0115451D01*
X0145392Y0115408D01*
X0145387Y0115366D01*
X0145377Y0115324D01*
X0145365Y0115284D01*
X0145348Y0115244D01*
X0145328Y0115207D01*
X0145306Y0115171D01*
X0145280Y0115137D01*
X0145251Y0115105D01*
X0145219Y0115076D01*
X0145185Y0115050D01*
X0145150Y0115028D01*
X0145112Y0115008D01*
X0145072Y0114991D01*
X0145032Y0114979D01*
X0144990Y0114969D01*
X0144948Y0114964D01*
X0144905Y0114962D01*
X0145272Y0116979D02*
X0145224Y0117012D01*
X0145173Y0117043D01*
X0145121Y0117071D01*
X0145067Y0117094D01*
X0145012Y0117115D01*
X0144955Y0117132D01*
X0144898Y0117145D01*
X0144840Y0117154D01*
X0144781Y0117160D01*
X0144722Y0117162D01*
X0146336Y0117162D02*
X0146336Y0114962D01*
X0147314Y0114962D01*
X0148204Y0114962D02*
X0148204Y0117162D01*
X0149426Y0114962D01*
X0149426Y0117162D01*
X0150669Y0116245D02*
X0151341Y0115878D01*
X0151097Y0114962D02*
X0151034Y0114964D01*
X0150972Y0114970D01*
X0150910Y0114979D01*
X0150849Y0114992D01*
X0150788Y0115009D01*
X0150729Y0115030D01*
X0150671Y0115054D01*
X0150615Y0115082D01*
X0150560Y0115113D01*
X0150507Y0115147D01*
X0150457Y0115184D01*
X0150409Y0115224D01*
X0150364Y0115268D01*
X0151341Y0115879D02*
X0151377Y0115856D01*
X0151411Y0115829D01*
X0151443Y0115800D01*
X0151472Y0115768D01*
X0151498Y0115734D01*
X0151521Y0115698D01*
X0151540Y0115659D01*
X0151557Y0115620D01*
X0151569Y0115579D01*
X0151579Y0115537D01*
X0151584Y0115494D01*
X0151586Y0115451D01*
X0151584Y0115408D01*
X0151579Y0115366D01*
X0151569Y0115324D01*
X0151557Y0115284D01*
X0151540Y0115244D01*
X0151520Y0115207D01*
X0151498Y0115171D01*
X0151472Y0115137D01*
X0151443Y0115105D01*
X0151411Y0115076D01*
X0151377Y0115050D01*
X0151342Y0115028D01*
X0151304Y0115008D01*
X0151264Y0114991D01*
X0151224Y0114979D01*
X0151182Y0114969D01*
X0151140Y0114964D01*
X0151097Y0114962D01*
X0151463Y0116979D02*
X0151415Y0117012D01*
X0151364Y0117043D01*
X0151312Y0117071D01*
X0151258Y0117094D01*
X0151203Y0117115D01*
X0151146Y0117132D01*
X0151089Y0117145D01*
X0151031Y0117154D01*
X0150972Y0117160D01*
X0150913Y0117162D01*
X0150870Y0117160D01*
X0150828Y0117155D01*
X0150786Y0117145D01*
X0150746Y0117133D01*
X0150706Y0117116D01*
X0150669Y0117096D01*
X0150633Y0117074D01*
X0150599Y0117048D01*
X0150567Y0117019D01*
X0150538Y0116987D01*
X0150512Y0116953D01*
X0150490Y0116918D01*
X0150470Y0116880D01*
X0150453Y0116840D01*
X0150441Y0116800D01*
X0150431Y0116758D01*
X0150426Y0116716D01*
X0150424Y0116673D01*
X0150426Y0116630D01*
X0150431Y0116587D01*
X0150441Y0116545D01*
X0150453Y0116504D01*
X0150470Y0116465D01*
X0150489Y0116426D01*
X0150512Y0116390D01*
X0150538Y0116356D01*
X0150567Y0116324D01*
X0150599Y0116295D01*
X0150633Y0116268D01*
X0150669Y0116245D01*
X0152528Y0116184D02*
X0153261Y0116184D01*
X0153506Y0117162D02*
X0152528Y0117162D01*
X0152528Y0114962D01*
X0153506Y0114962D01*
X0155712Y0114028D02*
X0155712Y0112806D01*
X0155712Y0113417D02*
X0157912Y0113417D01*
X0157912Y0112121D02*
X0157912Y0111633D01*
X0157913Y0111633D02*
X0157911Y0111590D01*
X0157906Y0111548D01*
X0157896Y0111506D01*
X0157884Y0111466D01*
X0157867Y0111426D01*
X0157847Y0111389D01*
X0157825Y0111353D01*
X0157799Y0111319D01*
X0157770Y0111287D01*
X0157738Y0111258D01*
X0157704Y0111232D01*
X0157669Y0111210D01*
X0157631Y0111190D01*
X0157591Y0111173D01*
X0157551Y0111161D01*
X0157509Y0111151D01*
X0157467Y0111146D01*
X0157424Y0111144D01*
X0156201Y0111144D01*
X0156158Y0111146D01*
X0156116Y0111151D01*
X0156074Y0111161D01*
X0156034Y0111173D01*
X0155994Y0111190D01*
X0155957Y0111210D01*
X0155921Y0111232D01*
X0155887Y0111258D01*
X0155855Y0111287D01*
X0155826Y0111319D01*
X0155800Y0111353D01*
X0155778Y0111388D01*
X0155758Y0111426D01*
X0155741Y0111466D01*
X0155729Y0111506D01*
X0155719Y0111548D01*
X0155714Y0111590D01*
X0155712Y0111633D01*
X0155712Y0112121D01*
X0156629Y0115056D02*
X0156996Y0115728D01*
X0157913Y0115483D02*
X0157911Y0115420D01*
X0157905Y0115358D01*
X0157896Y0115296D01*
X0157883Y0115235D01*
X0157866Y0115174D01*
X0157845Y0115115D01*
X0157821Y0115057D01*
X0157793Y0115001D01*
X0157762Y0114946D01*
X0157728Y0114893D01*
X0157691Y0114843D01*
X0157651Y0114795D01*
X0157607Y0114750D01*
X0156996Y0115728D02*
X0157019Y0115764D01*
X0157046Y0115798D01*
X0157075Y0115830D01*
X0157107Y0115859D01*
X0157141Y0115885D01*
X0157177Y0115908D01*
X0157216Y0115927D01*
X0157255Y0115944D01*
X0157296Y0115956D01*
X0157338Y0115966D01*
X0157381Y0115971D01*
X0157424Y0115973D01*
X0157424Y0115972D02*
X0157467Y0115970D01*
X0157509Y0115965D01*
X0157551Y0115955D01*
X0157591Y0115943D01*
X0157631Y0115926D01*
X0157669Y0115906D01*
X0157704Y0115884D01*
X0157738Y0115858D01*
X0157770Y0115829D01*
X0157799Y0115797D01*
X0157825Y0115763D01*
X0157847Y0115728D01*
X0157867Y0115690D01*
X0157884Y0115650D01*
X0157896Y0115610D01*
X0157906Y0115568D01*
X0157911Y0115526D01*
X0157913Y0115483D01*
X0155895Y0115850D02*
X0155862Y0115802D01*
X0155831Y0115752D01*
X0155803Y0115699D01*
X0155780Y0115645D01*
X0155759Y0115590D01*
X0155742Y0115533D01*
X0155729Y0115476D01*
X0155720Y0115418D01*
X0155714Y0115359D01*
X0155712Y0115300D01*
X0155714Y0115257D01*
X0155719Y0115215D01*
X0155729Y0115173D01*
X0155741Y0115133D01*
X0155758Y0115093D01*
X0155778Y0115056D01*
X0155800Y0115020D01*
X0155826Y0114986D01*
X0155855Y0114954D01*
X0155887Y0114925D01*
X0155921Y0114899D01*
X0155957Y0114877D01*
X0155994Y0114857D01*
X0156034Y0114840D01*
X0156074Y0114828D01*
X0156116Y0114818D01*
X0156158Y0114813D01*
X0156201Y0114811D01*
X0156244Y0114813D01*
X0156287Y0114818D01*
X0156329Y0114828D01*
X0156370Y0114840D01*
X0156409Y0114857D01*
X0156448Y0114876D01*
X0156484Y0114899D01*
X0156518Y0114925D01*
X0156550Y0114954D01*
X0156579Y0114986D01*
X0156606Y0115020D01*
X0156629Y0115056D01*
X0147314Y0117162D02*
X0146336Y0117162D01*
X0146336Y0116184D02*
X0147069Y0116184D01*
X0166312Y0114568D02*
X0166312Y0113345D01*
X0166312Y0113957D02*
X0168512Y0113957D01*
X0168512Y0112566D02*
X0167535Y0112077D01*
X0167535Y0111955D02*
X0167535Y0111344D01*
X0167535Y0111955D02*
X0167533Y0112003D01*
X0167527Y0112051D01*
X0167518Y0112098D01*
X0167505Y0112144D01*
X0167488Y0112189D01*
X0167468Y0112232D01*
X0167445Y0112274D01*
X0167418Y0112314D01*
X0167389Y0112352D01*
X0167356Y0112387D01*
X0167321Y0112420D01*
X0167283Y0112449D01*
X0167243Y0112476D01*
X0167201Y0112499D01*
X0167158Y0112519D01*
X0167113Y0112536D01*
X0167067Y0112549D01*
X0167020Y0112558D01*
X0166972Y0112564D01*
X0166924Y0112566D01*
X0166876Y0112564D01*
X0166828Y0112558D01*
X0166781Y0112549D01*
X0166735Y0112536D01*
X0166690Y0112519D01*
X0166647Y0112499D01*
X0166605Y0112476D01*
X0166565Y0112449D01*
X0166527Y0112420D01*
X0166492Y0112387D01*
X0166459Y0112352D01*
X0166430Y0112314D01*
X0166403Y0112274D01*
X0166380Y0112232D01*
X0166360Y0112189D01*
X0166343Y0112144D01*
X0166330Y0112098D01*
X0166321Y0112051D01*
X0166315Y0112003D01*
X0166313Y0111955D01*
X0166312Y0111955D02*
X0166312Y0111344D01*
X0168512Y0111344D01*
X0167229Y0115595D02*
X0167596Y0116267D01*
X0168513Y0116023D02*
X0168511Y0115960D01*
X0168505Y0115898D01*
X0168496Y0115836D01*
X0168483Y0115775D01*
X0168466Y0115714D01*
X0168445Y0115655D01*
X0168421Y0115597D01*
X0168393Y0115541D01*
X0168362Y0115486D01*
X0168328Y0115433D01*
X0168291Y0115383D01*
X0168251Y0115335D01*
X0168207Y0115290D01*
X0167596Y0116267D02*
X0167619Y0116303D01*
X0167646Y0116337D01*
X0167675Y0116369D01*
X0167707Y0116398D01*
X0167741Y0116424D01*
X0167777Y0116447D01*
X0167816Y0116466D01*
X0167855Y0116483D01*
X0167896Y0116495D01*
X0167938Y0116505D01*
X0167981Y0116510D01*
X0168024Y0116512D01*
X0168067Y0116510D01*
X0168109Y0116505D01*
X0168151Y0116495D01*
X0168191Y0116483D01*
X0168231Y0116466D01*
X0168269Y0116446D01*
X0168304Y0116424D01*
X0168338Y0116398D01*
X0168370Y0116369D01*
X0168399Y0116337D01*
X0168425Y0116303D01*
X0168447Y0116268D01*
X0168467Y0116230D01*
X0168484Y0116190D01*
X0168496Y0116150D01*
X0168506Y0116108D01*
X0168511Y0116066D01*
X0168513Y0116023D01*
X0166495Y0116389D02*
X0166462Y0116341D01*
X0166431Y0116291D01*
X0166403Y0116238D01*
X0166380Y0116184D01*
X0166359Y0116129D01*
X0166342Y0116072D01*
X0166329Y0116015D01*
X0166320Y0115957D01*
X0166314Y0115898D01*
X0166312Y0115839D01*
X0166314Y0115796D01*
X0166319Y0115754D01*
X0166329Y0115712D01*
X0166341Y0115672D01*
X0166358Y0115632D01*
X0166378Y0115595D01*
X0166400Y0115559D01*
X0166426Y0115525D01*
X0166455Y0115493D01*
X0166487Y0115464D01*
X0166521Y0115438D01*
X0166557Y0115416D01*
X0166594Y0115396D01*
X0166634Y0115379D01*
X0166674Y0115367D01*
X0166716Y0115357D01*
X0166758Y0115352D01*
X0166801Y0115350D01*
X0166844Y0115352D01*
X0166887Y0115357D01*
X0166929Y0115367D01*
X0166970Y0115379D01*
X0167009Y0115396D01*
X0167048Y0115415D01*
X0167084Y0115438D01*
X0167118Y0115464D01*
X0167150Y0115493D01*
X0167179Y0115525D01*
X0167206Y0115559D01*
X0167229Y0115595D01*
X0122750Y0128582D02*
X0122750Y0129071D01*
X0122750Y0128827D02*
X0120550Y0128827D01*
X0120550Y0129071D02*
X0120550Y0128582D01*
X0121161Y0129944D02*
X0122139Y0129944D01*
X0122187Y0129946D01*
X0122235Y0129952D01*
X0122282Y0129961D01*
X0122328Y0129974D01*
X0122373Y0129991D01*
X0122416Y0130011D01*
X0122458Y0130034D01*
X0122498Y0130061D01*
X0122536Y0130090D01*
X0122571Y0130123D01*
X0122604Y0130158D01*
X0122633Y0130196D01*
X0122660Y0130236D01*
X0122683Y0130278D01*
X0122703Y0130321D01*
X0122720Y0130366D01*
X0122733Y0130412D01*
X0122742Y0130459D01*
X0122748Y0130507D01*
X0122750Y0130555D01*
X0122748Y0130603D01*
X0122742Y0130651D01*
X0122733Y0130698D01*
X0122720Y0130744D01*
X0122703Y0130789D01*
X0122683Y0130832D01*
X0122660Y0130874D01*
X0122633Y0130914D01*
X0122604Y0130952D01*
X0122571Y0130987D01*
X0122536Y0131020D01*
X0122498Y0131049D01*
X0122458Y0131076D01*
X0122416Y0131099D01*
X0122373Y0131119D01*
X0122328Y0131136D01*
X0122282Y0131149D01*
X0122235Y0131158D01*
X0122187Y0131164D01*
X0122139Y0131166D01*
X0121161Y0131166D01*
X0121113Y0131164D01*
X0121065Y0131158D01*
X0121018Y0131149D01*
X0120972Y0131136D01*
X0120927Y0131119D01*
X0120884Y0131099D01*
X0120842Y0131076D01*
X0120802Y0131049D01*
X0120764Y0131020D01*
X0120729Y0130987D01*
X0120696Y0130952D01*
X0120667Y0130914D01*
X0120640Y0130874D01*
X0120617Y0130832D01*
X0120597Y0130789D01*
X0120580Y0130744D01*
X0120567Y0130698D01*
X0120558Y0130651D01*
X0120552Y0130603D01*
X0120550Y0130555D01*
X0120552Y0130507D01*
X0120558Y0130459D01*
X0120567Y0130412D01*
X0120580Y0130366D01*
X0120597Y0130321D01*
X0120617Y0130278D01*
X0120640Y0130236D01*
X0120667Y0130196D01*
X0120696Y0130158D01*
X0120729Y0130123D01*
X0120764Y0130090D01*
X0120802Y0130061D01*
X0120842Y0130034D01*
X0120884Y0130011D01*
X0120927Y0129991D01*
X0120972Y0129974D01*
X0121018Y0129961D01*
X0121065Y0129952D01*
X0121113Y0129946D01*
X0121161Y0129944D01*
X0120550Y0132038D02*
X0120550Y0132527D01*
X0120550Y0132283D02*
X0122750Y0132283D01*
X0122750Y0132527D02*
X0122750Y0132038D01*
X0122750Y0133472D02*
X0122750Y0134083D01*
X0122748Y0134131D01*
X0122742Y0134179D01*
X0122733Y0134226D01*
X0122720Y0134272D01*
X0122703Y0134317D01*
X0122683Y0134360D01*
X0122660Y0134402D01*
X0122633Y0134442D01*
X0122604Y0134480D01*
X0122571Y0134515D01*
X0122536Y0134548D01*
X0122498Y0134577D01*
X0122458Y0134604D01*
X0122416Y0134627D01*
X0122373Y0134647D01*
X0122328Y0134664D01*
X0122282Y0134677D01*
X0122235Y0134686D01*
X0122187Y0134692D01*
X0122139Y0134694D01*
X0121161Y0134694D01*
X0121113Y0134692D01*
X0121065Y0134686D01*
X0121018Y0134677D01*
X0120972Y0134664D01*
X0120927Y0134647D01*
X0120884Y0134627D01*
X0120842Y0134604D01*
X0120802Y0134577D01*
X0120764Y0134548D01*
X0120729Y0134515D01*
X0120696Y0134480D01*
X0120667Y0134442D01*
X0120640Y0134402D01*
X0120617Y0134360D01*
X0120597Y0134317D01*
X0120580Y0134272D01*
X0120567Y0134226D01*
X0120558Y0134179D01*
X0120552Y0134131D01*
X0120550Y0134083D01*
X0120550Y0133472D01*
X0122750Y0133472D01*
X0122995Y0135610D02*
X0122995Y0136588D01*
X0122750Y0137432D02*
X0122750Y0138043D01*
X0122748Y0138091D01*
X0122742Y0138139D01*
X0122733Y0138186D01*
X0122720Y0138232D01*
X0122703Y0138277D01*
X0122683Y0138320D01*
X0122660Y0138362D01*
X0122633Y0138402D01*
X0122604Y0138440D01*
X0122571Y0138475D01*
X0122536Y0138508D01*
X0122498Y0138537D01*
X0122458Y0138564D01*
X0122416Y0138587D01*
X0122373Y0138607D01*
X0122328Y0138624D01*
X0122282Y0138637D01*
X0122235Y0138646D01*
X0122187Y0138652D01*
X0122139Y0138654D01*
X0122091Y0138652D01*
X0122043Y0138646D01*
X0121996Y0138637D01*
X0121950Y0138624D01*
X0121905Y0138607D01*
X0121862Y0138587D01*
X0121820Y0138564D01*
X0121780Y0138537D01*
X0121742Y0138508D01*
X0121707Y0138475D01*
X0121674Y0138440D01*
X0121645Y0138402D01*
X0121618Y0138362D01*
X0121595Y0138320D01*
X0121575Y0138277D01*
X0121558Y0138232D01*
X0121545Y0138186D01*
X0121536Y0138139D01*
X0121530Y0138091D01*
X0121528Y0138043D01*
X0121528Y0138165D02*
X0121528Y0137676D01*
X0121528Y0138165D02*
X0121526Y0138208D01*
X0121521Y0138250D01*
X0121511Y0138292D01*
X0121499Y0138332D01*
X0121482Y0138372D01*
X0121462Y0138410D01*
X0121440Y0138445D01*
X0121414Y0138479D01*
X0121385Y0138511D01*
X0121353Y0138540D01*
X0121319Y0138566D01*
X0121284Y0138588D01*
X0121246Y0138608D01*
X0121206Y0138625D01*
X0121166Y0138637D01*
X0121124Y0138647D01*
X0121082Y0138652D01*
X0121039Y0138654D01*
X0120996Y0138652D01*
X0120954Y0138647D01*
X0120912Y0138637D01*
X0120872Y0138625D01*
X0120832Y0138608D01*
X0120795Y0138588D01*
X0120759Y0138566D01*
X0120725Y0138540D01*
X0120693Y0138511D01*
X0120664Y0138479D01*
X0120638Y0138445D01*
X0120616Y0138410D01*
X0120596Y0138372D01*
X0120579Y0138332D01*
X0120567Y0138292D01*
X0120557Y0138250D01*
X0120552Y0138208D01*
X0120550Y0138165D01*
X0120550Y0137432D01*
X0121650Y0140814D02*
X0121732Y0140812D01*
X0121814Y0140807D01*
X0121896Y0140797D01*
X0121977Y0140784D01*
X0122058Y0140768D01*
X0122137Y0140747D01*
X0122216Y0140723D01*
X0122294Y0140696D01*
X0122370Y0140665D01*
X0122444Y0140631D01*
X0122445Y0140631D02*
X0122482Y0140616D01*
X0122518Y0140598D01*
X0122552Y0140577D01*
X0122584Y0140553D01*
X0122614Y0140526D01*
X0122641Y0140497D01*
X0122666Y0140466D01*
X0122688Y0140432D01*
X0122706Y0140397D01*
X0122722Y0140360D01*
X0122734Y0140322D01*
X0122743Y0140283D01*
X0122748Y0140243D01*
X0122750Y0140203D01*
X0122748Y0140163D01*
X0122743Y0140123D01*
X0122734Y0140084D01*
X0122722Y0140046D01*
X0122706Y0140009D01*
X0122688Y0139974D01*
X0122666Y0139940D01*
X0122641Y0139909D01*
X0122614Y0139880D01*
X0122584Y0139853D01*
X0122552Y0139829D01*
X0122518Y0139808D01*
X0122482Y0139790D01*
X0122445Y0139775D01*
X0122261Y0139714D02*
X0121039Y0140691D01*
X0120856Y0140631D02*
X0120819Y0140616D01*
X0120783Y0140598D01*
X0120749Y0140577D01*
X0120717Y0140553D01*
X0120687Y0140526D01*
X0120660Y0140497D01*
X0120635Y0140466D01*
X0120613Y0140432D01*
X0120595Y0140397D01*
X0120579Y0140360D01*
X0120567Y0140322D01*
X0120558Y0140283D01*
X0120553Y0140243D01*
X0120551Y0140203D01*
X0120553Y0140163D01*
X0120558Y0140123D01*
X0120567Y0140084D01*
X0120579Y0140046D01*
X0120595Y0140009D01*
X0120613Y0139974D01*
X0120635Y0139940D01*
X0120660Y0139909D01*
X0120687Y0139880D01*
X0120717Y0139853D01*
X0120749Y0139829D01*
X0120783Y0139808D01*
X0120819Y0139790D01*
X0120856Y0139775D01*
X0120856Y0140631D02*
X0120930Y0140665D01*
X0121006Y0140696D01*
X0121084Y0140723D01*
X0121163Y0140747D01*
X0121242Y0140768D01*
X0121323Y0140784D01*
X0121404Y0140797D01*
X0121486Y0140807D01*
X0121568Y0140812D01*
X0121650Y0140814D01*
X0121650Y0139591D02*
X0121568Y0139593D01*
X0121486Y0139598D01*
X0121404Y0139608D01*
X0121323Y0139621D01*
X0121242Y0139637D01*
X0121163Y0139658D01*
X0121084Y0139682D01*
X0121006Y0139709D01*
X0120930Y0139740D01*
X0120856Y0139774D01*
X0121650Y0139591D02*
X0121732Y0139593D01*
X0121814Y0139598D01*
X0121896Y0139608D01*
X0121977Y0139621D01*
X0122058Y0139637D01*
X0122137Y0139658D01*
X0122216Y0139682D01*
X0122294Y0139709D01*
X0122370Y0139740D01*
X0122444Y0139774D01*
X0112683Y0133697D02*
X0110483Y0133697D01*
X0110483Y0132475D02*
X0112683Y0133697D01*
X0112683Y0132475D02*
X0110483Y0132475D01*
X0111400Y0130621D02*
X0111377Y0130585D01*
X0111350Y0130551D01*
X0111321Y0130519D01*
X0111289Y0130490D01*
X0111255Y0130464D01*
X0111219Y0130441D01*
X0111180Y0130422D01*
X0111141Y0130405D01*
X0111100Y0130393D01*
X0111058Y0130383D01*
X0111015Y0130378D01*
X0110972Y0130376D01*
X0110929Y0130378D01*
X0110887Y0130383D01*
X0110845Y0130393D01*
X0110805Y0130405D01*
X0110765Y0130422D01*
X0110728Y0130442D01*
X0110692Y0130464D01*
X0110658Y0130490D01*
X0110626Y0130519D01*
X0110597Y0130551D01*
X0110571Y0130585D01*
X0110549Y0130621D01*
X0110529Y0130658D01*
X0110512Y0130698D01*
X0110500Y0130738D01*
X0110490Y0130780D01*
X0110485Y0130822D01*
X0110483Y0130865D01*
X0110485Y0130924D01*
X0110491Y0130983D01*
X0110500Y0131041D01*
X0110513Y0131098D01*
X0110530Y0131155D01*
X0110551Y0131210D01*
X0110574Y0131264D01*
X0110602Y0131317D01*
X0110633Y0131367D01*
X0110666Y0131415D01*
X0112377Y0130315D02*
X0112421Y0130360D01*
X0112461Y0130408D01*
X0112498Y0130458D01*
X0112532Y0130511D01*
X0112563Y0130566D01*
X0112591Y0130622D01*
X0112615Y0130680D01*
X0112636Y0130739D01*
X0112653Y0130800D01*
X0112666Y0130861D01*
X0112675Y0130923D01*
X0112681Y0130985D01*
X0112683Y0131048D01*
X0112681Y0131091D01*
X0112676Y0131133D01*
X0112666Y0131175D01*
X0112654Y0131215D01*
X0112637Y0131255D01*
X0112617Y0131293D01*
X0112595Y0131328D01*
X0112569Y0131362D01*
X0112540Y0131394D01*
X0112508Y0131423D01*
X0112474Y0131449D01*
X0112439Y0131471D01*
X0112401Y0131491D01*
X0112361Y0131508D01*
X0112321Y0131520D01*
X0112279Y0131530D01*
X0112237Y0131535D01*
X0112194Y0131537D01*
X0111766Y0131293D02*
X0111400Y0130621D01*
X0111766Y0131293D02*
X0111789Y0131329D01*
X0111816Y0131363D01*
X0111845Y0131395D01*
X0111877Y0131424D01*
X0111911Y0131450D01*
X0111947Y0131473D01*
X0111986Y0131492D01*
X0112025Y0131509D01*
X0112066Y0131521D01*
X0112108Y0131531D01*
X0112151Y0131536D01*
X0112194Y0131538D01*
X0112683Y0129559D02*
X0112683Y0129070D01*
X0112681Y0129027D01*
X0112676Y0128985D01*
X0112666Y0128943D01*
X0112654Y0128903D01*
X0112637Y0128863D01*
X0112617Y0128826D01*
X0112595Y0128790D01*
X0112569Y0128756D01*
X0112540Y0128724D01*
X0112508Y0128695D01*
X0112474Y0128669D01*
X0112439Y0128647D01*
X0112401Y0128627D01*
X0112361Y0128610D01*
X0112321Y0128598D01*
X0112279Y0128588D01*
X0112237Y0128583D01*
X0112194Y0128581D01*
X0110972Y0128581D01*
X0110929Y0128583D01*
X0110887Y0128588D01*
X0110845Y0128598D01*
X0110805Y0128610D01*
X0110765Y0128627D01*
X0110728Y0128647D01*
X0110692Y0128669D01*
X0110658Y0128695D01*
X0110626Y0128724D01*
X0110597Y0128756D01*
X0110571Y0128790D01*
X0110549Y0128825D01*
X0110529Y0128863D01*
X0110512Y0128903D01*
X0110500Y0128943D01*
X0110490Y0128985D01*
X0110485Y0129027D01*
X0110483Y0129070D01*
X0110483Y0129559D01*
X0102487Y0130662D02*
X0100287Y0130662D01*
X0100287Y0131273D01*
X0100289Y0131321D01*
X0100295Y0131369D01*
X0100304Y0131416D01*
X0100317Y0131462D01*
X0100334Y0131507D01*
X0100354Y0131550D01*
X0100377Y0131592D01*
X0100404Y0131632D01*
X0100433Y0131670D01*
X0100466Y0131705D01*
X0100501Y0131738D01*
X0100539Y0131767D01*
X0100579Y0131794D01*
X0100621Y0131817D01*
X0100664Y0131837D01*
X0100709Y0131854D01*
X0100755Y0131867D01*
X0100802Y0131876D01*
X0100850Y0131882D01*
X0100898Y0131884D01*
X0100946Y0131882D01*
X0100994Y0131876D01*
X0101041Y0131867D01*
X0101087Y0131854D01*
X0101132Y0131837D01*
X0101175Y0131817D01*
X0101217Y0131794D01*
X0101257Y0131767D01*
X0101295Y0131738D01*
X0101330Y0131705D01*
X0101363Y0131670D01*
X0101392Y0131632D01*
X0101419Y0131592D01*
X0101442Y0131550D01*
X0101462Y0131507D01*
X0101479Y0131462D01*
X0101492Y0131416D01*
X0101501Y0131369D01*
X0101507Y0131321D01*
X0101509Y0131273D01*
X0101509Y0130662D01*
X0101570Y0129447D02*
X0101204Y0128774D01*
X0100287Y0129019D02*
X0100289Y0129078D01*
X0100295Y0129137D01*
X0100304Y0129195D01*
X0100317Y0129252D01*
X0100334Y0129309D01*
X0100355Y0129364D01*
X0100378Y0129418D01*
X0100406Y0129471D01*
X0100437Y0129521D01*
X0100470Y0129569D01*
X0101204Y0128775D02*
X0101181Y0128739D01*
X0101154Y0128705D01*
X0101125Y0128673D01*
X0101093Y0128644D01*
X0101059Y0128618D01*
X0101023Y0128595D01*
X0100984Y0128576D01*
X0100945Y0128559D01*
X0100904Y0128547D01*
X0100862Y0128537D01*
X0100819Y0128532D01*
X0100776Y0128530D01*
X0100733Y0128532D01*
X0100691Y0128537D01*
X0100649Y0128547D01*
X0100609Y0128559D01*
X0100569Y0128576D01*
X0100532Y0128596D01*
X0100496Y0128618D01*
X0100462Y0128644D01*
X0100430Y0128673D01*
X0100401Y0128705D01*
X0100375Y0128739D01*
X0100353Y0128775D01*
X0100333Y0128812D01*
X0100316Y0128852D01*
X0100304Y0128892D01*
X0100294Y0128934D01*
X0100289Y0128976D01*
X0100287Y0129019D01*
X0102181Y0128469D02*
X0102225Y0128514D01*
X0102265Y0128562D01*
X0102302Y0128612D01*
X0102336Y0128665D01*
X0102367Y0128720D01*
X0102395Y0128776D01*
X0102419Y0128834D01*
X0102440Y0128893D01*
X0102457Y0128954D01*
X0102470Y0129015D01*
X0102479Y0129077D01*
X0102485Y0129139D01*
X0102487Y0129202D01*
X0102485Y0129245D01*
X0102480Y0129287D01*
X0102470Y0129329D01*
X0102458Y0129369D01*
X0102441Y0129409D01*
X0102421Y0129447D01*
X0102399Y0129482D01*
X0102373Y0129516D01*
X0102344Y0129548D01*
X0102312Y0129577D01*
X0102278Y0129603D01*
X0102243Y0129625D01*
X0102205Y0129645D01*
X0102165Y0129662D01*
X0102125Y0129674D01*
X0102083Y0129684D01*
X0102041Y0129689D01*
X0101998Y0129691D01*
X0101998Y0129692D02*
X0101955Y0129690D01*
X0101912Y0129685D01*
X0101870Y0129675D01*
X0101829Y0129663D01*
X0101790Y0129646D01*
X0101751Y0129627D01*
X0101715Y0129604D01*
X0101681Y0129578D01*
X0101649Y0129549D01*
X0101620Y0129517D01*
X0101593Y0129483D01*
X0101570Y0129447D01*
X0102487Y0132652D02*
X0102487Y0133140D01*
X0102487Y0132896D02*
X0100287Y0132896D01*
X0100287Y0132652D02*
X0100287Y0133140D01*
X0100776Y0134006D02*
X0101998Y0134006D01*
X0102041Y0134008D01*
X0102083Y0134013D01*
X0102125Y0134023D01*
X0102165Y0134035D01*
X0102205Y0134052D01*
X0102243Y0134072D01*
X0102278Y0134094D01*
X0102312Y0134120D01*
X0102344Y0134149D01*
X0102373Y0134181D01*
X0102399Y0134215D01*
X0102421Y0134251D01*
X0102441Y0134288D01*
X0102458Y0134328D01*
X0102470Y0134368D01*
X0102480Y0134410D01*
X0102485Y0134452D01*
X0102487Y0134495D01*
X0102487Y0134984D01*
X0102487Y0135889D02*
X0100287Y0135889D01*
X0100287Y0134984D02*
X0100287Y0134495D01*
X0100289Y0134452D01*
X0100294Y0134410D01*
X0100304Y0134368D01*
X0100316Y0134328D01*
X0100333Y0134288D01*
X0100353Y0134250D01*
X0100375Y0134215D01*
X0100401Y0134181D01*
X0100430Y0134149D01*
X0100462Y0134120D01*
X0100496Y0134094D01*
X0100532Y0134072D01*
X0100569Y0134052D01*
X0100609Y0134035D01*
X0100649Y0134023D01*
X0100691Y0134013D01*
X0100733Y0134008D01*
X0100776Y0134006D01*
X0102487Y0135889D02*
X0102487Y0136867D01*
X0102487Y0137790D02*
X0100287Y0137790D01*
X0101142Y0138278D02*
X0102487Y0139012D01*
X0101631Y0137790D02*
X0100287Y0139012D01*
X0092598Y0135812D02*
X0092598Y0135323D01*
X0092598Y0135567D02*
X0090398Y0135567D01*
X0090398Y0135323D02*
X0090398Y0135812D01*
X0091682Y0134278D02*
X0091315Y0133606D01*
X0090398Y0133850D02*
X0090400Y0133909D01*
X0090406Y0133968D01*
X0090415Y0134026D01*
X0090428Y0134083D01*
X0090445Y0134140D01*
X0090466Y0134195D01*
X0090489Y0134249D01*
X0090517Y0134302D01*
X0090548Y0134352D01*
X0090581Y0134400D01*
X0091315Y0133606D02*
X0091292Y0133570D01*
X0091265Y0133536D01*
X0091236Y0133504D01*
X0091204Y0133475D01*
X0091170Y0133449D01*
X0091134Y0133426D01*
X0091095Y0133407D01*
X0091056Y0133390D01*
X0091015Y0133378D01*
X0090973Y0133368D01*
X0090930Y0133363D01*
X0090887Y0133361D01*
X0090844Y0133363D01*
X0090802Y0133368D01*
X0090760Y0133378D01*
X0090720Y0133390D01*
X0090680Y0133407D01*
X0090643Y0133427D01*
X0090607Y0133449D01*
X0090573Y0133475D01*
X0090541Y0133504D01*
X0090512Y0133536D01*
X0090486Y0133570D01*
X0090464Y0133606D01*
X0090444Y0133643D01*
X0090427Y0133683D01*
X0090415Y0133723D01*
X0090405Y0133765D01*
X0090400Y0133807D01*
X0090398Y0133850D01*
X0092292Y0133301D02*
X0092336Y0133346D01*
X0092376Y0133394D01*
X0092413Y0133444D01*
X0092447Y0133497D01*
X0092478Y0133552D01*
X0092506Y0133608D01*
X0092530Y0133666D01*
X0092551Y0133725D01*
X0092568Y0133786D01*
X0092581Y0133847D01*
X0092590Y0133909D01*
X0092596Y0133971D01*
X0092598Y0134034D01*
X0092596Y0134077D01*
X0092591Y0134119D01*
X0092581Y0134161D01*
X0092569Y0134201D01*
X0092552Y0134241D01*
X0092532Y0134279D01*
X0092510Y0134314D01*
X0092484Y0134348D01*
X0092455Y0134380D01*
X0092423Y0134409D01*
X0092389Y0134435D01*
X0092354Y0134457D01*
X0092316Y0134477D01*
X0092276Y0134494D01*
X0092236Y0134506D01*
X0092194Y0134516D01*
X0092152Y0134521D01*
X0092109Y0134523D01*
X0092066Y0134521D01*
X0092023Y0134516D01*
X0091981Y0134506D01*
X0091940Y0134494D01*
X0091901Y0134477D01*
X0091862Y0134458D01*
X0091826Y0134435D01*
X0091792Y0134409D01*
X0091760Y0134380D01*
X0091731Y0134348D01*
X0091704Y0134314D01*
X0091681Y0134278D01*
X0091987Y0132434D02*
X0091009Y0132434D01*
X0090961Y0132432D01*
X0090913Y0132426D01*
X0090866Y0132417D01*
X0090820Y0132404D01*
X0090775Y0132387D01*
X0090732Y0132367D01*
X0090690Y0132344D01*
X0090650Y0132317D01*
X0090612Y0132288D01*
X0090577Y0132255D01*
X0090544Y0132220D01*
X0090515Y0132182D01*
X0090488Y0132142D01*
X0090465Y0132100D01*
X0090445Y0132057D01*
X0090428Y0132012D01*
X0090415Y0131966D01*
X0090406Y0131919D01*
X0090400Y0131871D01*
X0090398Y0131823D01*
X0090400Y0131775D01*
X0090406Y0131727D01*
X0090415Y0131680D01*
X0090428Y0131634D01*
X0090445Y0131589D01*
X0090465Y0131546D01*
X0090488Y0131504D01*
X0090515Y0131464D01*
X0090544Y0131426D01*
X0090577Y0131391D01*
X0090612Y0131358D01*
X0090650Y0131329D01*
X0090690Y0131302D01*
X0090732Y0131279D01*
X0090775Y0131259D01*
X0090820Y0131242D01*
X0090866Y0131229D01*
X0090913Y0131220D01*
X0090961Y0131214D01*
X0091009Y0131212D01*
X0091987Y0131212D01*
X0092035Y0131214D01*
X0092083Y0131220D01*
X0092130Y0131229D01*
X0092176Y0131242D01*
X0092221Y0131259D01*
X0092264Y0131279D01*
X0092306Y0131302D01*
X0092346Y0131329D01*
X0092384Y0131358D01*
X0092419Y0131391D01*
X0092452Y0131426D01*
X0092481Y0131464D01*
X0092508Y0131504D01*
X0092531Y0131546D01*
X0092551Y0131589D01*
X0092568Y0131634D01*
X0092581Y0131680D01*
X0092590Y0131727D01*
X0092596Y0131775D01*
X0092598Y0131823D01*
X0092596Y0131871D01*
X0092590Y0131919D01*
X0092581Y0131966D01*
X0092568Y0132012D01*
X0092551Y0132057D01*
X0092531Y0132100D01*
X0092508Y0132142D01*
X0092481Y0132182D01*
X0092452Y0132220D01*
X0092419Y0132255D01*
X0092384Y0132288D01*
X0092346Y0132317D01*
X0092306Y0132344D01*
X0092264Y0132367D01*
X0092221Y0132387D01*
X0092176Y0132404D01*
X0092130Y0132417D01*
X0092083Y0132426D01*
X0092035Y0132432D01*
X0091987Y0132434D01*
X0092598Y0130181D02*
X0090398Y0130181D01*
X0091621Y0129447D01*
X0090398Y0128714D01*
X0092598Y0128714D01*
X0082797Y0128514D02*
X0080597Y0128514D01*
X0081819Y0129247D01*
X0080597Y0129981D01*
X0082797Y0129981D01*
X0082797Y0130947D02*
X0082797Y0131436D01*
X0082797Y0131191D02*
X0080597Y0131191D01*
X0080597Y0130947D02*
X0080597Y0131436D01*
X0081086Y0132297D02*
X0081043Y0132299D01*
X0081001Y0132304D01*
X0080959Y0132314D01*
X0080919Y0132326D01*
X0080879Y0132343D01*
X0080842Y0132363D01*
X0080806Y0132385D01*
X0080772Y0132411D01*
X0080740Y0132440D01*
X0080711Y0132472D01*
X0080685Y0132506D01*
X0080663Y0132542D01*
X0080643Y0132579D01*
X0080626Y0132619D01*
X0080614Y0132659D01*
X0080604Y0132701D01*
X0080599Y0132743D01*
X0080597Y0132786D01*
X0081086Y0132297D02*
X0081129Y0132299D01*
X0081172Y0132304D01*
X0081214Y0132314D01*
X0081255Y0132326D01*
X0081294Y0132343D01*
X0081333Y0132362D01*
X0081369Y0132385D01*
X0081403Y0132411D01*
X0081435Y0132440D01*
X0081464Y0132472D01*
X0081491Y0132506D01*
X0081514Y0132542D01*
X0081880Y0133214D01*
X0082797Y0132970D02*
X0082795Y0132907D01*
X0082789Y0132845D01*
X0082780Y0132783D01*
X0082767Y0132722D01*
X0082750Y0132661D01*
X0082729Y0132602D01*
X0082705Y0132544D01*
X0082677Y0132488D01*
X0082646Y0132433D01*
X0082612Y0132380D01*
X0082575Y0132330D01*
X0082535Y0132282D01*
X0082491Y0132237D01*
X0081880Y0133214D02*
X0081903Y0133250D01*
X0081930Y0133284D01*
X0081959Y0133316D01*
X0081991Y0133345D01*
X0082025Y0133371D01*
X0082061Y0133394D01*
X0082100Y0133413D01*
X0082139Y0133430D01*
X0082180Y0133442D01*
X0082222Y0133452D01*
X0082265Y0133457D01*
X0082308Y0133459D01*
X0082351Y0133457D01*
X0082393Y0133452D01*
X0082435Y0133442D01*
X0082475Y0133430D01*
X0082515Y0133413D01*
X0082553Y0133393D01*
X0082588Y0133371D01*
X0082622Y0133345D01*
X0082654Y0133316D01*
X0082683Y0133284D01*
X0082709Y0133250D01*
X0082731Y0133215D01*
X0082751Y0133177D01*
X0082768Y0133137D01*
X0082780Y0133097D01*
X0082790Y0133055D01*
X0082795Y0133013D01*
X0082797Y0132970D01*
X0080780Y0133336D02*
X0080747Y0133288D01*
X0080716Y0133238D01*
X0080688Y0133185D01*
X0080665Y0133131D01*
X0080644Y0133076D01*
X0080627Y0133019D01*
X0080614Y0132962D01*
X0080605Y0132904D01*
X0080599Y0132845D01*
X0080597Y0132786D01*
X0081208Y0134324D02*
X0082186Y0134324D01*
X0082234Y0134326D01*
X0082282Y0134332D01*
X0082329Y0134341D01*
X0082375Y0134354D01*
X0082420Y0134371D01*
X0082463Y0134391D01*
X0082505Y0134414D01*
X0082545Y0134441D01*
X0082583Y0134470D01*
X0082618Y0134503D01*
X0082651Y0134538D01*
X0082680Y0134576D01*
X0082707Y0134616D01*
X0082730Y0134658D01*
X0082750Y0134701D01*
X0082767Y0134746D01*
X0082780Y0134792D01*
X0082789Y0134839D01*
X0082795Y0134887D01*
X0082797Y0134935D01*
X0082795Y0134983D01*
X0082789Y0135031D01*
X0082780Y0135078D01*
X0082767Y0135124D01*
X0082750Y0135169D01*
X0082730Y0135212D01*
X0082707Y0135254D01*
X0082680Y0135294D01*
X0082651Y0135332D01*
X0082618Y0135367D01*
X0082583Y0135400D01*
X0082545Y0135429D01*
X0082505Y0135456D01*
X0082463Y0135479D01*
X0082420Y0135499D01*
X0082375Y0135516D01*
X0082329Y0135529D01*
X0082282Y0135538D01*
X0082234Y0135544D01*
X0082186Y0135546D01*
X0081208Y0135546D01*
X0081160Y0135544D01*
X0081112Y0135538D01*
X0081065Y0135529D01*
X0081019Y0135516D01*
X0080974Y0135499D01*
X0080931Y0135479D01*
X0080889Y0135456D01*
X0080849Y0135429D01*
X0080811Y0135400D01*
X0080776Y0135367D01*
X0080743Y0135332D01*
X0080714Y0135294D01*
X0080687Y0135254D01*
X0080664Y0135212D01*
X0080644Y0135169D01*
X0080627Y0135124D01*
X0080614Y0135078D01*
X0080605Y0135031D01*
X0080599Y0134983D01*
X0080597Y0134935D01*
X0080599Y0134887D01*
X0080605Y0134839D01*
X0080614Y0134792D01*
X0080627Y0134746D01*
X0080644Y0134701D01*
X0080664Y0134658D01*
X0080687Y0134616D01*
X0080714Y0134576D01*
X0080743Y0134538D01*
X0080776Y0134503D01*
X0080811Y0134470D01*
X0080849Y0134441D01*
X0080889Y0134414D01*
X0080931Y0134391D01*
X0080974Y0134371D01*
X0081019Y0134354D01*
X0081065Y0134341D01*
X0081112Y0134332D01*
X0081160Y0134326D01*
X0081208Y0134324D01*
X0073012Y0135202D02*
X0073012Y0135935D01*
X0071790Y0135935D01*
X0071790Y0135568D01*
X0071301Y0134713D02*
X0071258Y0134715D01*
X0071216Y0134720D01*
X0071174Y0134730D01*
X0071134Y0134742D01*
X0071094Y0134759D01*
X0071057Y0134779D01*
X0071021Y0134801D01*
X0070987Y0134827D01*
X0070955Y0134856D01*
X0070926Y0134888D01*
X0070900Y0134922D01*
X0070878Y0134957D01*
X0070858Y0134995D01*
X0070841Y0135035D01*
X0070829Y0135075D01*
X0070819Y0135117D01*
X0070814Y0135159D01*
X0070812Y0135202D01*
X0070812Y0135935D01*
X0070812Y0137017D02*
X0073012Y0138239D01*
X0070812Y0138239D01*
X0070812Y0139321D02*
X0070812Y0139932D01*
X0070814Y0139980D01*
X0070820Y0140028D01*
X0070829Y0140075D01*
X0070842Y0140121D01*
X0070859Y0140166D01*
X0070879Y0140209D01*
X0070902Y0140251D01*
X0070929Y0140291D01*
X0070958Y0140329D01*
X0070991Y0140364D01*
X0071026Y0140397D01*
X0071064Y0140426D01*
X0071104Y0140453D01*
X0071146Y0140476D01*
X0071189Y0140496D01*
X0071234Y0140513D01*
X0071280Y0140526D01*
X0071327Y0140535D01*
X0071375Y0140541D01*
X0071423Y0140543D01*
X0072401Y0140543D01*
X0072449Y0140541D01*
X0072497Y0140535D01*
X0072544Y0140526D01*
X0072590Y0140513D01*
X0072635Y0140496D01*
X0072678Y0140476D01*
X0072720Y0140453D01*
X0072760Y0140426D01*
X0072798Y0140397D01*
X0072833Y0140364D01*
X0072866Y0140329D01*
X0072895Y0140291D01*
X0072922Y0140251D01*
X0072945Y0140209D01*
X0072965Y0140166D01*
X0072982Y0140121D01*
X0072995Y0140075D01*
X0073004Y0140028D01*
X0073010Y0139980D01*
X0073012Y0139932D01*
X0073012Y0139321D01*
X0070812Y0139321D01*
X0070812Y0137017D02*
X0073012Y0137017D01*
X0073012Y0135202D02*
X0073010Y0135159D01*
X0073005Y0135117D01*
X0072995Y0135075D01*
X0072983Y0135035D01*
X0072966Y0134995D01*
X0072946Y0134958D01*
X0072924Y0134922D01*
X0072898Y0134888D01*
X0072869Y0134856D01*
X0072837Y0134827D01*
X0072803Y0134801D01*
X0072768Y0134779D01*
X0072730Y0134759D01*
X0072690Y0134742D01*
X0072650Y0134730D01*
X0072608Y0134720D01*
X0072566Y0134715D01*
X0072523Y0134713D01*
X0071301Y0134713D01*
X0070812Y0133631D02*
X0072401Y0133631D01*
X0072449Y0133629D01*
X0072497Y0133623D01*
X0072544Y0133614D01*
X0072590Y0133601D01*
X0072635Y0133584D01*
X0072678Y0133564D01*
X0072720Y0133541D01*
X0072760Y0133514D01*
X0072798Y0133485D01*
X0072833Y0133452D01*
X0072866Y0133417D01*
X0072895Y0133379D01*
X0072922Y0133339D01*
X0072945Y0133297D01*
X0072965Y0133254D01*
X0072982Y0133209D01*
X0072995Y0133163D01*
X0073004Y0133116D01*
X0073010Y0133068D01*
X0073012Y0133020D01*
X0073010Y0132972D01*
X0073004Y0132924D01*
X0072995Y0132877D01*
X0072982Y0132831D01*
X0072965Y0132786D01*
X0072945Y0132743D01*
X0072922Y0132701D01*
X0072895Y0132661D01*
X0072866Y0132623D01*
X0072833Y0132588D01*
X0072798Y0132555D01*
X0072760Y0132526D01*
X0072720Y0132499D01*
X0072678Y0132476D01*
X0072635Y0132456D01*
X0072590Y0132439D01*
X0072544Y0132426D01*
X0072497Y0132417D01*
X0072449Y0132411D01*
X0072401Y0132409D01*
X0070812Y0132409D01*
X0070812Y0131305D02*
X0073012Y0131305D01*
X0072034Y0130572D02*
X0070812Y0131305D01*
X0072034Y0130572D02*
X0070812Y0129839D01*
X0073012Y0129839D01*
X0073012Y0128872D02*
X0073012Y0128383D01*
X0073012Y0128628D02*
X0070812Y0128628D01*
X0070812Y0128872D02*
X0070812Y0128383D01*
X0062619Y0130815D02*
X0062619Y0131304D01*
X0062619Y0130815D02*
X0062617Y0130772D01*
X0062612Y0130730D01*
X0062602Y0130688D01*
X0062590Y0130648D01*
X0062573Y0130608D01*
X0062553Y0130571D01*
X0062531Y0130535D01*
X0062505Y0130501D01*
X0062476Y0130469D01*
X0062444Y0130440D01*
X0062410Y0130414D01*
X0062375Y0130392D01*
X0062337Y0130372D01*
X0062297Y0130355D01*
X0062257Y0130343D01*
X0062215Y0130333D01*
X0062173Y0130328D01*
X0062130Y0130326D01*
X0060908Y0130326D01*
X0060865Y0130328D01*
X0060823Y0130333D01*
X0060781Y0130343D01*
X0060741Y0130355D01*
X0060701Y0130372D01*
X0060664Y0130392D01*
X0060628Y0130414D01*
X0060594Y0130440D01*
X0060562Y0130469D01*
X0060533Y0130501D01*
X0060507Y0130535D01*
X0060485Y0130570D01*
X0060465Y0130608D01*
X0060448Y0130648D01*
X0060436Y0130688D01*
X0060426Y0130730D01*
X0060421Y0130772D01*
X0060419Y0130815D01*
X0060419Y0131304D01*
X0060419Y0132209D02*
X0062619Y0132209D01*
X0062619Y0133187D01*
X0061702Y0129222D02*
X0061335Y0128550D01*
X0060418Y0128795D02*
X0060420Y0128854D01*
X0060426Y0128913D01*
X0060435Y0128971D01*
X0060448Y0129028D01*
X0060465Y0129085D01*
X0060486Y0129140D01*
X0060509Y0129194D01*
X0060537Y0129247D01*
X0060568Y0129297D01*
X0060601Y0129345D01*
X0061336Y0128550D02*
X0061313Y0128514D01*
X0061286Y0128480D01*
X0061257Y0128448D01*
X0061225Y0128419D01*
X0061191Y0128393D01*
X0061155Y0128370D01*
X0061116Y0128351D01*
X0061077Y0128334D01*
X0061036Y0128322D01*
X0060994Y0128312D01*
X0060951Y0128307D01*
X0060908Y0128305D01*
X0060908Y0128306D02*
X0060865Y0128308D01*
X0060823Y0128313D01*
X0060781Y0128323D01*
X0060741Y0128335D01*
X0060701Y0128352D01*
X0060664Y0128372D01*
X0060628Y0128394D01*
X0060594Y0128420D01*
X0060562Y0128449D01*
X0060533Y0128481D01*
X0060507Y0128515D01*
X0060485Y0128551D01*
X0060465Y0128588D01*
X0060448Y0128628D01*
X0060436Y0128668D01*
X0060426Y0128710D01*
X0060421Y0128752D01*
X0060419Y0128795D01*
X0062313Y0128245D02*
X0062357Y0128290D01*
X0062397Y0128338D01*
X0062434Y0128388D01*
X0062468Y0128441D01*
X0062499Y0128496D01*
X0062527Y0128552D01*
X0062551Y0128610D01*
X0062572Y0128669D01*
X0062589Y0128730D01*
X0062602Y0128791D01*
X0062611Y0128853D01*
X0062617Y0128915D01*
X0062619Y0128978D01*
X0062617Y0129021D01*
X0062612Y0129063D01*
X0062602Y0129105D01*
X0062590Y0129145D01*
X0062573Y0129185D01*
X0062553Y0129223D01*
X0062531Y0129258D01*
X0062505Y0129292D01*
X0062476Y0129324D01*
X0062444Y0129353D01*
X0062410Y0129379D01*
X0062375Y0129401D01*
X0062337Y0129421D01*
X0062297Y0129438D01*
X0062257Y0129450D01*
X0062215Y0129460D01*
X0062173Y0129465D01*
X0062130Y0129467D01*
X0062087Y0129465D01*
X0062044Y0129460D01*
X0062002Y0129450D01*
X0061961Y0129438D01*
X0061922Y0129421D01*
X0061883Y0129402D01*
X0061847Y0129379D01*
X0061813Y0129353D01*
X0061781Y0129324D01*
X0061752Y0129292D01*
X0061725Y0129258D01*
X0061702Y0129222D01*
X0052793Y0130681D02*
X0052793Y0131292D01*
X0052791Y0131340D01*
X0052785Y0131388D01*
X0052776Y0131435D01*
X0052763Y0131481D01*
X0052746Y0131526D01*
X0052726Y0131569D01*
X0052703Y0131611D01*
X0052676Y0131651D01*
X0052647Y0131689D01*
X0052614Y0131724D01*
X0052579Y0131757D01*
X0052541Y0131786D01*
X0052501Y0131813D01*
X0052459Y0131836D01*
X0052416Y0131856D01*
X0052371Y0131873D01*
X0052325Y0131886D01*
X0052278Y0131895D01*
X0052230Y0131901D01*
X0052182Y0131903D01*
X0051204Y0131903D01*
X0051156Y0131901D01*
X0051108Y0131895D01*
X0051061Y0131886D01*
X0051015Y0131873D01*
X0050970Y0131856D01*
X0050927Y0131836D01*
X0050885Y0131813D01*
X0050845Y0131786D01*
X0050807Y0131757D01*
X0050772Y0131724D01*
X0050739Y0131689D01*
X0050710Y0131651D01*
X0050683Y0131611D01*
X0050660Y0131569D01*
X0050640Y0131526D01*
X0050623Y0131481D01*
X0050610Y0131435D01*
X0050601Y0131388D01*
X0050595Y0131340D01*
X0050593Y0131292D01*
X0050593Y0130681D01*
X0052793Y0130681D01*
X0051876Y0129499D02*
X0051510Y0128826D01*
X0050593Y0129071D02*
X0050595Y0129130D01*
X0050601Y0129189D01*
X0050610Y0129247D01*
X0050623Y0129304D01*
X0050640Y0129361D01*
X0050661Y0129416D01*
X0050684Y0129470D01*
X0050712Y0129523D01*
X0050743Y0129573D01*
X0050776Y0129621D01*
X0051510Y0128827D02*
X0051487Y0128791D01*
X0051460Y0128757D01*
X0051431Y0128725D01*
X0051399Y0128696D01*
X0051365Y0128670D01*
X0051329Y0128647D01*
X0051290Y0128628D01*
X0051251Y0128611D01*
X0051210Y0128599D01*
X0051168Y0128589D01*
X0051125Y0128584D01*
X0051082Y0128582D01*
X0051039Y0128584D01*
X0050997Y0128589D01*
X0050955Y0128599D01*
X0050915Y0128611D01*
X0050875Y0128628D01*
X0050838Y0128648D01*
X0050802Y0128670D01*
X0050768Y0128696D01*
X0050736Y0128725D01*
X0050707Y0128757D01*
X0050681Y0128791D01*
X0050659Y0128827D01*
X0050639Y0128864D01*
X0050622Y0128904D01*
X0050610Y0128944D01*
X0050600Y0128986D01*
X0050595Y0129028D01*
X0050593Y0129071D01*
X0052487Y0128521D02*
X0052531Y0128566D01*
X0052571Y0128614D01*
X0052608Y0128664D01*
X0052642Y0128717D01*
X0052673Y0128772D01*
X0052701Y0128828D01*
X0052725Y0128886D01*
X0052746Y0128945D01*
X0052763Y0129006D01*
X0052776Y0129067D01*
X0052785Y0129129D01*
X0052791Y0129191D01*
X0052793Y0129254D01*
X0052791Y0129297D01*
X0052786Y0129339D01*
X0052776Y0129381D01*
X0052764Y0129421D01*
X0052747Y0129461D01*
X0052727Y0129499D01*
X0052705Y0129534D01*
X0052679Y0129568D01*
X0052650Y0129600D01*
X0052618Y0129629D01*
X0052584Y0129655D01*
X0052549Y0129677D01*
X0052511Y0129697D01*
X0052471Y0129714D01*
X0052431Y0129726D01*
X0052389Y0129736D01*
X0052347Y0129741D01*
X0052304Y0129743D01*
X0052304Y0129744D02*
X0052261Y0129742D01*
X0052218Y0129737D01*
X0052176Y0129727D01*
X0052135Y0129715D01*
X0052096Y0129698D01*
X0052057Y0129679D01*
X0052021Y0129656D01*
X0051987Y0129630D01*
X0051955Y0129601D01*
X0051926Y0129569D01*
X0051899Y0129535D01*
X0051876Y0129499D01*
X0052793Y0132791D02*
X0050593Y0133524D01*
X0052793Y0134257D01*
X0052243Y0134074D02*
X0052243Y0132974D01*
X0042919Y0132761D02*
X0042919Y0133372D01*
X0042919Y0132761D02*
X0040719Y0132761D01*
X0040719Y0133372D01*
X0040721Y0133420D01*
X0040727Y0133468D01*
X0040736Y0133515D01*
X0040749Y0133561D01*
X0040766Y0133606D01*
X0040786Y0133649D01*
X0040809Y0133691D01*
X0040836Y0133731D01*
X0040865Y0133769D01*
X0040898Y0133804D01*
X0040933Y0133837D01*
X0040971Y0133866D01*
X0041011Y0133893D01*
X0041053Y0133916D01*
X0041096Y0133936D01*
X0041141Y0133953D01*
X0041187Y0133966D01*
X0041234Y0133975D01*
X0041282Y0133981D01*
X0041330Y0133983D01*
X0041330Y0133984D02*
X0042308Y0133984D01*
X0042308Y0133983D02*
X0042356Y0133981D01*
X0042404Y0133975D01*
X0042451Y0133966D01*
X0042497Y0133953D01*
X0042542Y0133936D01*
X0042585Y0133916D01*
X0042627Y0133893D01*
X0042667Y0133866D01*
X0042705Y0133837D01*
X0042740Y0133804D01*
X0042773Y0133769D01*
X0042802Y0133731D01*
X0042829Y0133691D01*
X0042852Y0133649D01*
X0042872Y0133606D01*
X0042889Y0133561D01*
X0042902Y0133515D01*
X0042911Y0133468D01*
X0042917Y0133420D01*
X0042919Y0133372D01*
X0042919Y0131874D02*
X0040719Y0130407D01*
X0040719Y0129736D02*
X0040719Y0128513D01*
X0040719Y0129125D02*
X0042919Y0129125D01*
X0042919Y0130407D02*
X0040719Y0131874D01*
X0032401Y0132097D02*
X0030201Y0130631D01*
X0030201Y0129218D02*
X0030201Y0128607D01*
X0032401Y0128607D01*
X0031423Y0128607D02*
X0031423Y0129218D01*
X0031423Y0129340D02*
X0032401Y0129829D01*
X0032401Y0130631D02*
X0030201Y0132097D01*
X0030201Y0132985D02*
X0030201Y0133596D01*
X0030203Y0133644D01*
X0030209Y0133692D01*
X0030218Y0133739D01*
X0030231Y0133785D01*
X0030248Y0133830D01*
X0030268Y0133873D01*
X0030291Y0133915D01*
X0030318Y0133955D01*
X0030347Y0133993D01*
X0030380Y0134028D01*
X0030415Y0134061D01*
X0030453Y0134090D01*
X0030493Y0134117D01*
X0030535Y0134140D01*
X0030578Y0134160D01*
X0030623Y0134177D01*
X0030669Y0134190D01*
X0030716Y0134199D01*
X0030764Y0134205D01*
X0030812Y0134207D01*
X0031789Y0134207D01*
X0031837Y0134205D01*
X0031885Y0134199D01*
X0031932Y0134190D01*
X0031978Y0134177D01*
X0032023Y0134160D01*
X0032066Y0134140D01*
X0032108Y0134117D01*
X0032148Y0134090D01*
X0032186Y0134061D01*
X0032221Y0134028D01*
X0032254Y0133993D01*
X0032283Y0133955D01*
X0032310Y0133915D01*
X0032333Y0133873D01*
X0032353Y0133830D01*
X0032370Y0133785D01*
X0032383Y0133739D01*
X0032392Y0133692D01*
X0032398Y0133644D01*
X0032400Y0133596D01*
X0032401Y0133596D02*
X0032401Y0132985D01*
X0030201Y0132985D01*
X0030201Y0129218D02*
X0030203Y0129266D01*
X0030209Y0129314D01*
X0030218Y0129361D01*
X0030231Y0129407D01*
X0030248Y0129452D01*
X0030268Y0129495D01*
X0030291Y0129537D01*
X0030318Y0129577D01*
X0030347Y0129615D01*
X0030380Y0129650D01*
X0030415Y0129683D01*
X0030453Y0129712D01*
X0030493Y0129739D01*
X0030535Y0129762D01*
X0030578Y0129782D01*
X0030623Y0129799D01*
X0030669Y0129812D01*
X0030716Y0129821D01*
X0030764Y0129827D01*
X0030812Y0129829D01*
X0030860Y0129827D01*
X0030908Y0129821D01*
X0030955Y0129812D01*
X0031001Y0129799D01*
X0031046Y0129782D01*
X0031089Y0129762D01*
X0031131Y0129739D01*
X0031171Y0129712D01*
X0031209Y0129683D01*
X0031244Y0129650D01*
X0031277Y0129615D01*
X0031306Y0129577D01*
X0031333Y0129537D01*
X0031356Y0129495D01*
X0031376Y0129452D01*
X0031393Y0129407D01*
X0031406Y0129361D01*
X0031415Y0129314D01*
X0031421Y0129266D01*
X0031423Y0129218D01*
D13*
X0060550Y0100599D02*
X0060550Y0099099D01*
X0060550Y0099766D02*
X0060967Y0099766D01*
X0061050Y0099766D02*
X0061383Y0099099D01*
X0061982Y0099099D02*
X0062815Y0099099D01*
X0062398Y0099099D02*
X0062398Y0100599D01*
X0061982Y0100266D01*
X0060967Y0100600D02*
X0061007Y0100598D01*
X0061046Y0100592D01*
X0061084Y0100583D01*
X0061122Y0100570D01*
X0061158Y0100554D01*
X0061192Y0100534D01*
X0061225Y0100511D01*
X0061255Y0100485D01*
X0061282Y0100456D01*
X0061307Y0100425D01*
X0061328Y0100392D01*
X0061346Y0100356D01*
X0061361Y0100319D01*
X0061372Y0100281D01*
X0061380Y0100242D01*
X0061384Y0100203D01*
X0061384Y0100163D01*
X0061380Y0100124D01*
X0061372Y0100085D01*
X0061361Y0100047D01*
X0061346Y0100010D01*
X0061328Y0099975D01*
X0061307Y0099941D01*
X0061282Y0099910D01*
X0061255Y0099881D01*
X0061225Y0099855D01*
X0061192Y0099832D01*
X0061158Y0099812D01*
X0061122Y0099796D01*
X0061084Y0099783D01*
X0061046Y0099774D01*
X0061007Y0099768D01*
X0060967Y0099766D01*
X0060967Y0100599D02*
X0060550Y0100599D01*
X0063422Y0100599D02*
X0064255Y0100599D01*
X0063838Y0099099D01*
X0063422Y0100433D02*
X0063422Y0100599D01*
X0066419Y0100599D02*
X0066419Y0099099D01*
X0067086Y0099099D01*
X0067617Y0099099D02*
X0068325Y0099933D01*
X0068075Y0100600D02*
X0068035Y0100598D01*
X0067995Y0100593D01*
X0067955Y0100585D01*
X0067916Y0100573D01*
X0067879Y0100558D01*
X0067843Y0100540D01*
X0067808Y0100519D01*
X0067775Y0100496D01*
X0067745Y0100469D01*
X0067717Y0100440D01*
X0067691Y0100409D01*
X0067668Y0100376D01*
X0067648Y0100341D01*
X0067630Y0100304D01*
X0067616Y0100266D01*
X0068325Y0099932D02*
X0068350Y0099958D01*
X0068373Y0099987D01*
X0068393Y0100017D01*
X0068410Y0100049D01*
X0068424Y0100082D01*
X0068435Y0100117D01*
X0068443Y0100152D01*
X0068448Y0100188D01*
X0068450Y0100224D01*
X0068448Y0100261D01*
X0068443Y0100297D01*
X0068434Y0100333D01*
X0068421Y0100368D01*
X0068406Y0100401D01*
X0068387Y0100432D01*
X0068365Y0100462D01*
X0068340Y0100489D01*
X0068313Y0100514D01*
X0068283Y0100536D01*
X0068252Y0100555D01*
X0068219Y0100570D01*
X0068184Y0100583D01*
X0068148Y0100592D01*
X0068112Y0100597D01*
X0068075Y0100599D01*
X0068450Y0099099D02*
X0067617Y0099099D01*
X0075965Y0088504D02*
X0076000Y0088502D01*
X0076034Y0088497D01*
X0076068Y0088488D01*
X0076100Y0088475D01*
X0076132Y0088459D01*
X0076161Y0088440D01*
X0076188Y0088418D01*
X0076212Y0088394D01*
X0076234Y0088367D01*
X0076253Y0088338D01*
X0076269Y0088306D01*
X0076282Y0088274D01*
X0076291Y0088240D01*
X0076296Y0088206D01*
X0076298Y0088171D01*
X0076296Y0088136D01*
X0076291Y0088102D01*
X0076282Y0088068D01*
X0076269Y0088036D01*
X0076253Y0088005D01*
X0076234Y0087975D01*
X0076212Y0087948D01*
X0076188Y0087924D01*
X0076161Y0087902D01*
X0076132Y0087883D01*
X0076100Y0087867D01*
X0076068Y0087854D01*
X0076034Y0087845D01*
X0076000Y0087840D01*
X0075965Y0087838D01*
X0075930Y0087840D01*
X0075896Y0087845D01*
X0075862Y0087854D01*
X0075830Y0087867D01*
X0075799Y0087883D01*
X0075769Y0087902D01*
X0075742Y0087924D01*
X0075718Y0087948D01*
X0075696Y0087975D01*
X0075677Y0088005D01*
X0075661Y0088036D01*
X0075648Y0088068D01*
X0075639Y0088102D01*
X0075634Y0088136D01*
X0075632Y0088171D01*
X0075634Y0088206D01*
X0075639Y0088240D01*
X0075648Y0088274D01*
X0075661Y0088306D01*
X0075677Y0088338D01*
X0075696Y0088367D01*
X0075718Y0088394D01*
X0075742Y0088418D01*
X0075769Y0088440D01*
X0075799Y0088459D01*
X0075830Y0088475D01*
X0075862Y0088488D01*
X0075896Y0088497D01*
X0075930Y0088502D01*
X0075965Y0088504D01*
X0076715Y0088588D02*
X0076755Y0088586D01*
X0076794Y0088580D01*
X0076832Y0088571D01*
X0076870Y0088558D01*
X0076906Y0088542D01*
X0076940Y0088522D01*
X0076973Y0088499D01*
X0077003Y0088473D01*
X0077030Y0088444D01*
X0077055Y0088413D01*
X0077076Y0088380D01*
X0077094Y0088344D01*
X0077109Y0088307D01*
X0077120Y0088269D01*
X0077128Y0088230D01*
X0077132Y0088191D01*
X0077132Y0088151D01*
X0077128Y0088112D01*
X0077120Y0088073D01*
X0077109Y0088035D01*
X0077094Y0087998D01*
X0077076Y0087963D01*
X0077055Y0087929D01*
X0077030Y0087898D01*
X0077003Y0087869D01*
X0076973Y0087843D01*
X0076940Y0087820D01*
X0076906Y0087800D01*
X0076870Y0087784D01*
X0076832Y0087771D01*
X0076794Y0087762D01*
X0076755Y0087756D01*
X0076715Y0087754D01*
X0076675Y0087756D01*
X0076636Y0087762D01*
X0076598Y0087771D01*
X0076560Y0087784D01*
X0076524Y0087800D01*
X0076490Y0087820D01*
X0076457Y0087843D01*
X0076427Y0087869D01*
X0076400Y0087898D01*
X0076375Y0087929D01*
X0076354Y0087963D01*
X0076336Y0087998D01*
X0076321Y0088035D01*
X0076310Y0088073D01*
X0076302Y0088112D01*
X0076298Y0088151D01*
X0076298Y0088191D01*
X0076302Y0088230D01*
X0076310Y0088269D01*
X0076321Y0088307D01*
X0076336Y0088344D01*
X0076354Y0088380D01*
X0076375Y0088413D01*
X0076400Y0088444D01*
X0076427Y0088473D01*
X0076457Y0088499D01*
X0076490Y0088522D01*
X0076524Y0088542D01*
X0076560Y0088558D01*
X0076598Y0088571D01*
X0076636Y0088580D01*
X0076675Y0088586D01*
X0076715Y0088588D01*
X0077132Y0087147D02*
X0077132Y0086314D01*
X0077132Y0086731D02*
X0075632Y0086731D01*
X0075965Y0086314D01*
X0075632Y0085299D02*
X0075634Y0085339D01*
X0075640Y0085378D01*
X0075649Y0085416D01*
X0075662Y0085454D01*
X0075678Y0085490D01*
X0075698Y0085524D01*
X0075721Y0085557D01*
X0075747Y0085587D01*
X0075776Y0085614D01*
X0075807Y0085639D01*
X0075841Y0085660D01*
X0075876Y0085678D01*
X0075913Y0085693D01*
X0075951Y0085704D01*
X0075990Y0085712D01*
X0076029Y0085716D01*
X0076069Y0085716D01*
X0076108Y0085712D01*
X0076147Y0085704D01*
X0076185Y0085693D01*
X0076222Y0085678D01*
X0076258Y0085660D01*
X0076291Y0085639D01*
X0076322Y0085614D01*
X0076351Y0085587D01*
X0076377Y0085557D01*
X0076400Y0085524D01*
X0076420Y0085490D01*
X0076436Y0085454D01*
X0076449Y0085416D01*
X0076458Y0085378D01*
X0076464Y0085339D01*
X0076466Y0085299D01*
X0076465Y0085299D02*
X0076465Y0084882D01*
X0076465Y0085382D02*
X0077132Y0085716D01*
X0077132Y0084882D02*
X0075632Y0084882D01*
X0075632Y0085299D01*
X0068034Y0080394D02*
X0067984Y0080392D01*
X0067935Y0080387D01*
X0067886Y0080377D01*
X0067837Y0080364D01*
X0067790Y0080348D01*
X0067745Y0080328D01*
X0067700Y0080305D01*
X0067658Y0080278D01*
X0067618Y0080248D01*
X0067580Y0080216D01*
X0067545Y0080181D01*
X0067513Y0080143D01*
X0067483Y0080103D01*
X0067456Y0080060D01*
X0067433Y0080016D01*
X0067413Y0079971D01*
X0067397Y0079924D01*
X0067384Y0079875D01*
X0067374Y0079826D01*
X0067369Y0079777D01*
X0067367Y0079727D01*
X0067367Y0079311D01*
X0067367Y0079727D02*
X0067867Y0079727D01*
X0067902Y0079725D01*
X0067936Y0079720D01*
X0067970Y0079711D01*
X0068002Y0079698D01*
X0068034Y0079682D01*
X0068063Y0079663D01*
X0068090Y0079641D01*
X0068114Y0079617D01*
X0068136Y0079590D01*
X0068155Y0079561D01*
X0068171Y0079529D01*
X0068184Y0079497D01*
X0068193Y0079463D01*
X0068198Y0079429D01*
X0068200Y0079394D01*
X0068201Y0079394D02*
X0068201Y0079311D01*
X0068199Y0079271D01*
X0068193Y0079232D01*
X0068184Y0079194D01*
X0068171Y0079156D01*
X0068155Y0079120D01*
X0068135Y0079086D01*
X0068112Y0079053D01*
X0068086Y0079023D01*
X0068057Y0078996D01*
X0068026Y0078971D01*
X0067993Y0078950D01*
X0067957Y0078932D01*
X0067920Y0078917D01*
X0067882Y0078906D01*
X0067843Y0078898D01*
X0067804Y0078894D01*
X0067764Y0078894D01*
X0067725Y0078898D01*
X0067686Y0078906D01*
X0067648Y0078917D01*
X0067611Y0078932D01*
X0067576Y0078950D01*
X0067542Y0078971D01*
X0067511Y0078996D01*
X0067482Y0079023D01*
X0067456Y0079053D01*
X0067433Y0079086D01*
X0067413Y0079120D01*
X0067397Y0079156D01*
X0067384Y0079194D01*
X0067375Y0079232D01*
X0067369Y0079271D01*
X0067367Y0079311D01*
X0066761Y0078894D02*
X0065927Y0078894D01*
X0066344Y0078894D02*
X0066344Y0080394D01*
X0065927Y0080061D01*
X0064912Y0080394D02*
X0064952Y0080392D01*
X0064991Y0080386D01*
X0065029Y0080377D01*
X0065067Y0080364D01*
X0065103Y0080348D01*
X0065137Y0080328D01*
X0065170Y0080305D01*
X0065200Y0080279D01*
X0065227Y0080250D01*
X0065252Y0080219D01*
X0065273Y0080186D01*
X0065291Y0080150D01*
X0065306Y0080113D01*
X0065317Y0080075D01*
X0065325Y0080036D01*
X0065329Y0079997D01*
X0065329Y0079957D01*
X0065325Y0079918D01*
X0065317Y0079879D01*
X0065306Y0079841D01*
X0065291Y0079804D01*
X0065273Y0079769D01*
X0065252Y0079735D01*
X0065227Y0079704D01*
X0065200Y0079675D01*
X0065170Y0079649D01*
X0065137Y0079626D01*
X0065103Y0079606D01*
X0065067Y0079590D01*
X0065029Y0079577D01*
X0064991Y0079568D01*
X0064952Y0079562D01*
X0064912Y0079560D01*
X0064912Y0079561D02*
X0064496Y0079561D01*
X0064996Y0079561D02*
X0065329Y0078894D01*
X0064496Y0078894D02*
X0064496Y0080394D01*
X0064912Y0080394D01*
X0060533Y0068669D02*
X0060573Y0068667D01*
X0060612Y0068661D01*
X0060650Y0068652D01*
X0060688Y0068639D01*
X0060724Y0068623D01*
X0060758Y0068603D01*
X0060791Y0068580D01*
X0060821Y0068554D01*
X0060848Y0068525D01*
X0060873Y0068494D01*
X0060894Y0068461D01*
X0060912Y0068425D01*
X0060927Y0068388D01*
X0060938Y0068350D01*
X0060946Y0068311D01*
X0060950Y0068272D01*
X0060950Y0068232D01*
X0060946Y0068193D01*
X0060938Y0068154D01*
X0060927Y0068116D01*
X0060912Y0068079D01*
X0060894Y0068044D01*
X0060873Y0068010D01*
X0060848Y0067979D01*
X0060821Y0067950D01*
X0060791Y0067924D01*
X0060758Y0067901D01*
X0060724Y0067881D01*
X0060688Y0067865D01*
X0060650Y0067852D01*
X0060612Y0067843D01*
X0060573Y0067837D01*
X0060533Y0067835D01*
X0060493Y0067837D01*
X0060454Y0067843D01*
X0060416Y0067852D01*
X0060378Y0067865D01*
X0060342Y0067881D01*
X0060308Y0067901D01*
X0060275Y0067924D01*
X0060245Y0067950D01*
X0060218Y0067979D01*
X0060193Y0068010D01*
X0060172Y0068044D01*
X0060154Y0068079D01*
X0060139Y0068116D01*
X0060128Y0068154D01*
X0060120Y0068193D01*
X0060116Y0068232D01*
X0060116Y0068272D01*
X0060120Y0068311D01*
X0060128Y0068350D01*
X0060139Y0068388D01*
X0060154Y0068425D01*
X0060172Y0068461D01*
X0060193Y0068494D01*
X0060218Y0068525D01*
X0060245Y0068554D01*
X0060275Y0068580D01*
X0060308Y0068603D01*
X0060342Y0068623D01*
X0060378Y0068639D01*
X0060416Y0068652D01*
X0060454Y0068661D01*
X0060493Y0068667D01*
X0060533Y0068669D01*
X0059783Y0068585D02*
X0059818Y0068583D01*
X0059852Y0068578D01*
X0059886Y0068569D01*
X0059918Y0068556D01*
X0059950Y0068540D01*
X0059979Y0068521D01*
X0060006Y0068499D01*
X0060030Y0068475D01*
X0060052Y0068448D01*
X0060071Y0068419D01*
X0060087Y0068387D01*
X0060100Y0068355D01*
X0060109Y0068321D01*
X0060114Y0068287D01*
X0060116Y0068252D01*
X0060114Y0068217D01*
X0060109Y0068183D01*
X0060100Y0068149D01*
X0060087Y0068117D01*
X0060071Y0068086D01*
X0060052Y0068056D01*
X0060030Y0068029D01*
X0060006Y0068005D01*
X0059979Y0067983D01*
X0059950Y0067964D01*
X0059918Y0067948D01*
X0059886Y0067935D01*
X0059852Y0067926D01*
X0059818Y0067921D01*
X0059783Y0067919D01*
X0059748Y0067921D01*
X0059714Y0067926D01*
X0059680Y0067935D01*
X0059648Y0067948D01*
X0059617Y0067964D01*
X0059587Y0067983D01*
X0059560Y0068005D01*
X0059536Y0068029D01*
X0059514Y0068056D01*
X0059495Y0068086D01*
X0059479Y0068117D01*
X0059466Y0068149D01*
X0059457Y0068183D01*
X0059452Y0068217D01*
X0059450Y0068252D01*
X0059452Y0068287D01*
X0059457Y0068321D01*
X0059466Y0068355D01*
X0059479Y0068387D01*
X0059495Y0068419D01*
X0059514Y0068448D01*
X0059536Y0068475D01*
X0059560Y0068499D01*
X0059587Y0068521D01*
X0059617Y0068540D01*
X0059648Y0068556D01*
X0059680Y0068569D01*
X0059714Y0068578D01*
X0059748Y0068583D01*
X0059783Y0068585D01*
X0060450Y0067229D02*
X0060533Y0067229D01*
X0060450Y0067228D02*
X0060415Y0067226D01*
X0060381Y0067221D01*
X0060347Y0067212D01*
X0060315Y0067199D01*
X0060284Y0067183D01*
X0060254Y0067164D01*
X0060227Y0067142D01*
X0060203Y0067118D01*
X0060181Y0067091D01*
X0060162Y0067062D01*
X0060146Y0067030D01*
X0060133Y0066998D01*
X0060124Y0066964D01*
X0060119Y0066930D01*
X0060117Y0066895D01*
X0060117Y0066395D01*
X0060533Y0066395D01*
X0060573Y0066397D01*
X0060612Y0066403D01*
X0060650Y0066412D01*
X0060688Y0066425D01*
X0060724Y0066441D01*
X0060758Y0066461D01*
X0060791Y0066484D01*
X0060821Y0066510D01*
X0060848Y0066539D01*
X0060873Y0066570D01*
X0060894Y0066604D01*
X0060912Y0066639D01*
X0060927Y0066676D01*
X0060938Y0066714D01*
X0060946Y0066753D01*
X0060950Y0066792D01*
X0060950Y0066832D01*
X0060946Y0066871D01*
X0060938Y0066910D01*
X0060927Y0066948D01*
X0060912Y0066985D01*
X0060894Y0067021D01*
X0060873Y0067054D01*
X0060848Y0067085D01*
X0060821Y0067114D01*
X0060791Y0067140D01*
X0060758Y0067163D01*
X0060724Y0067183D01*
X0060688Y0067199D01*
X0060650Y0067212D01*
X0060612Y0067221D01*
X0060573Y0067227D01*
X0060533Y0067229D01*
X0060117Y0066395D02*
X0060067Y0066397D01*
X0060018Y0066402D01*
X0059969Y0066412D01*
X0059920Y0066425D01*
X0059873Y0066441D01*
X0059828Y0066461D01*
X0059784Y0066484D01*
X0059741Y0066511D01*
X0059701Y0066541D01*
X0059663Y0066573D01*
X0059628Y0066608D01*
X0059596Y0066646D01*
X0059566Y0066686D01*
X0059539Y0066728D01*
X0059516Y0066773D01*
X0059496Y0066818D01*
X0059480Y0066865D01*
X0059467Y0066914D01*
X0059457Y0066963D01*
X0059452Y0067012D01*
X0059450Y0067062D01*
X0059450Y0065789D02*
X0060950Y0065372D01*
X0060950Y0064406D02*
X0060950Y0064322D01*
X0060867Y0064322D01*
X0060867Y0064406D01*
X0060950Y0064406D01*
X0060950Y0063773D02*
X0060950Y0062939D01*
X0060117Y0063648D01*
X0059450Y0063398D02*
X0059452Y0063358D01*
X0059457Y0063318D01*
X0059465Y0063278D01*
X0059477Y0063239D01*
X0059492Y0063202D01*
X0059510Y0063166D01*
X0059531Y0063131D01*
X0059554Y0063098D01*
X0059581Y0063068D01*
X0059610Y0063040D01*
X0059641Y0063014D01*
X0059674Y0062991D01*
X0059709Y0062971D01*
X0059746Y0062953D01*
X0059784Y0062939D01*
X0060117Y0063648D02*
X0060091Y0063673D01*
X0060062Y0063696D01*
X0060032Y0063716D01*
X0060000Y0063733D01*
X0059967Y0063747D01*
X0059932Y0063758D01*
X0059897Y0063766D01*
X0059861Y0063771D01*
X0059825Y0063773D01*
X0059788Y0063771D01*
X0059752Y0063766D01*
X0059716Y0063757D01*
X0059681Y0063744D01*
X0059648Y0063729D01*
X0059617Y0063710D01*
X0059587Y0063688D01*
X0059560Y0063663D01*
X0059535Y0063636D01*
X0059513Y0063606D01*
X0059494Y0063575D01*
X0059479Y0063542D01*
X0059466Y0063507D01*
X0059457Y0063471D01*
X0059452Y0063435D01*
X0059450Y0063398D01*
X0059450Y0061999D02*
X0059450Y0061499D01*
X0059450Y0061999D02*
X0059452Y0062034D01*
X0059457Y0062068D01*
X0059466Y0062102D01*
X0059479Y0062134D01*
X0059495Y0062166D01*
X0059514Y0062195D01*
X0059536Y0062222D01*
X0059560Y0062246D01*
X0059587Y0062268D01*
X0059617Y0062287D01*
X0059648Y0062303D01*
X0059680Y0062316D01*
X0059714Y0062325D01*
X0059748Y0062330D01*
X0059783Y0062332D01*
X0059818Y0062330D01*
X0059852Y0062325D01*
X0059886Y0062316D01*
X0059918Y0062303D01*
X0059950Y0062287D01*
X0059979Y0062268D01*
X0060006Y0062246D01*
X0060030Y0062222D01*
X0060052Y0062195D01*
X0060071Y0062166D01*
X0060087Y0062134D01*
X0060100Y0062102D01*
X0060109Y0062068D01*
X0060114Y0062034D01*
X0060116Y0061999D01*
X0060117Y0061999D02*
X0060117Y0061666D01*
X0060116Y0061916D02*
X0060118Y0061956D01*
X0060124Y0061995D01*
X0060133Y0062033D01*
X0060146Y0062071D01*
X0060162Y0062107D01*
X0060182Y0062141D01*
X0060205Y0062174D01*
X0060231Y0062204D01*
X0060260Y0062231D01*
X0060291Y0062256D01*
X0060325Y0062277D01*
X0060360Y0062295D01*
X0060397Y0062310D01*
X0060435Y0062321D01*
X0060474Y0062329D01*
X0060513Y0062333D01*
X0060553Y0062333D01*
X0060592Y0062329D01*
X0060631Y0062321D01*
X0060669Y0062310D01*
X0060706Y0062295D01*
X0060742Y0062277D01*
X0060775Y0062256D01*
X0060806Y0062231D01*
X0060835Y0062204D01*
X0060861Y0062174D01*
X0060884Y0062141D01*
X0060904Y0062107D01*
X0060920Y0062071D01*
X0060933Y0062033D01*
X0060942Y0061995D01*
X0060948Y0061956D01*
X0060950Y0061916D01*
X0060950Y0061499D01*
X0059617Y0064955D02*
X0059450Y0064955D01*
X0059450Y0065789D01*
X0075306Y0060767D02*
X0076806Y0060767D01*
X0076806Y0060350D02*
X0076806Y0061184D01*
X0076806Y0061790D02*
X0076806Y0062624D01*
X0076806Y0061790D02*
X0075973Y0062499D01*
X0075306Y0062249D02*
X0075308Y0062209D01*
X0075313Y0062169D01*
X0075321Y0062129D01*
X0075333Y0062090D01*
X0075348Y0062053D01*
X0075366Y0062017D01*
X0075387Y0061982D01*
X0075410Y0061949D01*
X0075437Y0061919D01*
X0075466Y0061891D01*
X0075497Y0061865D01*
X0075530Y0061842D01*
X0075565Y0061822D01*
X0075602Y0061804D01*
X0075640Y0061790D01*
X0075973Y0062499D02*
X0075947Y0062524D01*
X0075918Y0062547D01*
X0075888Y0062567D01*
X0075856Y0062584D01*
X0075823Y0062598D01*
X0075788Y0062609D01*
X0075753Y0062617D01*
X0075717Y0062622D01*
X0075681Y0062624D01*
X0075644Y0062622D01*
X0075608Y0062617D01*
X0075572Y0062608D01*
X0075537Y0062595D01*
X0075504Y0062580D01*
X0075473Y0062561D01*
X0075443Y0062539D01*
X0075416Y0062514D01*
X0075391Y0062487D01*
X0075369Y0062457D01*
X0075350Y0062426D01*
X0075335Y0062393D01*
X0075322Y0062358D01*
X0075313Y0062322D01*
X0075308Y0062286D01*
X0075306Y0062249D01*
X0075306Y0060767D02*
X0075640Y0060350D01*
X0075306Y0059813D02*
X0075306Y0059480D01*
X0075307Y0059480D02*
X0075309Y0059445D01*
X0075314Y0059411D01*
X0075323Y0059377D01*
X0075336Y0059345D01*
X0075352Y0059313D01*
X0075371Y0059284D01*
X0075393Y0059257D01*
X0075417Y0059233D01*
X0075444Y0059211D01*
X0075474Y0059192D01*
X0075505Y0059176D01*
X0075537Y0059163D01*
X0075571Y0059154D01*
X0075605Y0059149D01*
X0075640Y0059147D01*
X0075640Y0059146D02*
X0076473Y0059146D01*
X0076473Y0059147D02*
X0076508Y0059149D01*
X0076542Y0059154D01*
X0076576Y0059163D01*
X0076608Y0059176D01*
X0076640Y0059192D01*
X0076669Y0059211D01*
X0076696Y0059233D01*
X0076720Y0059257D01*
X0076742Y0059284D01*
X0076761Y0059314D01*
X0076777Y0059345D01*
X0076790Y0059377D01*
X0076799Y0059411D01*
X0076804Y0059445D01*
X0076806Y0059480D01*
X0076806Y0059813D01*
X0083064Y0053489D02*
X0083481Y0053489D01*
X0083481Y0053490D02*
X0083521Y0053488D01*
X0083560Y0053482D01*
X0083598Y0053473D01*
X0083636Y0053460D01*
X0083672Y0053444D01*
X0083706Y0053424D01*
X0083739Y0053401D01*
X0083769Y0053375D01*
X0083796Y0053346D01*
X0083821Y0053315D01*
X0083842Y0053282D01*
X0083860Y0053246D01*
X0083875Y0053209D01*
X0083886Y0053171D01*
X0083894Y0053132D01*
X0083898Y0053093D01*
X0083898Y0053053D01*
X0083894Y0053014D01*
X0083886Y0052975D01*
X0083875Y0052937D01*
X0083860Y0052900D01*
X0083842Y0052865D01*
X0083821Y0052831D01*
X0083796Y0052800D01*
X0083769Y0052771D01*
X0083739Y0052745D01*
X0083706Y0052722D01*
X0083672Y0052702D01*
X0083636Y0052686D01*
X0083598Y0052673D01*
X0083560Y0052664D01*
X0083521Y0052658D01*
X0083481Y0052656D01*
X0083064Y0052656D01*
X0083564Y0052656D02*
X0083898Y0051989D01*
X0084496Y0051989D02*
X0085329Y0051989D01*
X0084496Y0051989D02*
X0085204Y0052823D01*
X0084954Y0053490D02*
X0084914Y0053488D01*
X0084874Y0053483D01*
X0084834Y0053475D01*
X0084795Y0053463D01*
X0084758Y0053448D01*
X0084722Y0053430D01*
X0084687Y0053409D01*
X0084654Y0053386D01*
X0084624Y0053359D01*
X0084596Y0053330D01*
X0084570Y0053299D01*
X0084547Y0053266D01*
X0084527Y0053231D01*
X0084509Y0053194D01*
X0084495Y0053156D01*
X0085205Y0052822D02*
X0085230Y0052848D01*
X0085253Y0052877D01*
X0085273Y0052907D01*
X0085290Y0052939D01*
X0085304Y0052972D01*
X0085315Y0053007D01*
X0085323Y0053042D01*
X0085328Y0053078D01*
X0085330Y0053114D01*
X0085329Y0053114D02*
X0085327Y0053151D01*
X0085322Y0053187D01*
X0085313Y0053223D01*
X0085300Y0053258D01*
X0085285Y0053291D01*
X0085266Y0053322D01*
X0085244Y0053352D01*
X0085219Y0053379D01*
X0085192Y0053404D01*
X0085162Y0053426D01*
X0085131Y0053445D01*
X0085098Y0053460D01*
X0085063Y0053473D01*
X0085027Y0053482D01*
X0084991Y0053487D01*
X0084954Y0053489D01*
X0083064Y0053489D02*
X0083064Y0051989D01*
X0087122Y0047966D02*
X0087122Y0047132D01*
X0087122Y0047549D02*
X0085622Y0047549D01*
X0085956Y0047132D01*
X0086039Y0046478D02*
X0086706Y0046478D01*
X0086744Y0046476D01*
X0086783Y0046471D01*
X0086820Y0046462D01*
X0086857Y0046450D01*
X0086892Y0046434D01*
X0086926Y0046416D01*
X0086957Y0046394D01*
X0086987Y0046369D01*
X0087014Y0046342D01*
X0087039Y0046312D01*
X0087061Y0046281D01*
X0087079Y0046247D01*
X0087095Y0046212D01*
X0087107Y0046175D01*
X0087116Y0046138D01*
X0087121Y0046099D01*
X0087123Y0046061D01*
X0087122Y0046061D02*
X0087122Y0045644D01*
X0085622Y0045644D01*
X0085622Y0046061D01*
X0085624Y0046099D01*
X0085629Y0046138D01*
X0085638Y0046175D01*
X0085650Y0046212D01*
X0085666Y0046247D01*
X0085684Y0046281D01*
X0085706Y0046312D01*
X0085731Y0046342D01*
X0085758Y0046369D01*
X0085788Y0046394D01*
X0085819Y0046416D01*
X0085853Y0046434D01*
X0085888Y0046450D01*
X0085925Y0046462D01*
X0085962Y0046471D01*
X0086001Y0046476D01*
X0086039Y0046478D01*
X0085622Y0045066D02*
X0085622Y0044399D01*
X0087122Y0044399D01*
X0087122Y0045066D01*
X0086289Y0044899D02*
X0086289Y0044399D01*
X0087122Y0043818D02*
X0087122Y0043151D01*
X0085622Y0043151D01*
X0092431Y0044696D02*
X0092431Y0045113D01*
X0092431Y0044696D02*
X0093931Y0044696D01*
X0093265Y0044696D02*
X0093265Y0045113D01*
X0093265Y0045196D02*
X0093931Y0045530D01*
X0093931Y0046128D02*
X0093931Y0046628D01*
X0093929Y0046663D01*
X0093924Y0046697D01*
X0093915Y0046731D01*
X0093902Y0046763D01*
X0093886Y0046795D01*
X0093867Y0046824D01*
X0093845Y0046851D01*
X0093821Y0046875D01*
X0093794Y0046897D01*
X0093765Y0046916D01*
X0093733Y0046932D01*
X0093701Y0046945D01*
X0093667Y0046954D01*
X0093633Y0046959D01*
X0093598Y0046961D01*
X0093431Y0046961D01*
X0093396Y0046959D01*
X0093362Y0046954D01*
X0093328Y0046945D01*
X0093296Y0046932D01*
X0093265Y0046916D01*
X0093235Y0046897D01*
X0093208Y0046875D01*
X0093184Y0046851D01*
X0093162Y0046824D01*
X0093143Y0046795D01*
X0093127Y0046763D01*
X0093114Y0046731D01*
X0093105Y0046697D01*
X0093100Y0046663D01*
X0093098Y0046628D01*
X0093098Y0046128D01*
X0092431Y0046128D01*
X0092431Y0046961D01*
X0092416Y0048140D02*
X0092416Y0048556D01*
X0092416Y0048140D02*
X0093916Y0048140D01*
X0093250Y0048140D02*
X0093250Y0048556D01*
X0093250Y0048640D02*
X0093916Y0048973D01*
X0093583Y0049571D02*
X0093583Y0050405D01*
X0093250Y0050155D02*
X0093916Y0050155D01*
X0093583Y0049571D02*
X0092416Y0049905D01*
X0092416Y0048556D02*
X0092418Y0048596D01*
X0092424Y0048635D01*
X0092433Y0048673D01*
X0092446Y0048711D01*
X0092462Y0048747D01*
X0092482Y0048781D01*
X0092505Y0048814D01*
X0092531Y0048844D01*
X0092560Y0048871D01*
X0092591Y0048896D01*
X0092625Y0048917D01*
X0092660Y0048935D01*
X0092697Y0048950D01*
X0092735Y0048961D01*
X0092774Y0048969D01*
X0092813Y0048973D01*
X0092853Y0048973D01*
X0092892Y0048969D01*
X0092931Y0048961D01*
X0092969Y0048950D01*
X0093006Y0048935D01*
X0093042Y0048917D01*
X0093075Y0048896D01*
X0093106Y0048871D01*
X0093135Y0048844D01*
X0093161Y0048814D01*
X0093184Y0048781D01*
X0093204Y0048747D01*
X0093220Y0048711D01*
X0093233Y0048673D01*
X0093242Y0048635D01*
X0093248Y0048596D01*
X0093250Y0048556D01*
X0093265Y0045113D02*
X0093263Y0045153D01*
X0093257Y0045192D01*
X0093248Y0045230D01*
X0093235Y0045268D01*
X0093219Y0045304D01*
X0093199Y0045338D01*
X0093176Y0045371D01*
X0093150Y0045401D01*
X0093121Y0045428D01*
X0093090Y0045453D01*
X0093057Y0045474D01*
X0093021Y0045492D01*
X0092984Y0045507D01*
X0092946Y0045518D01*
X0092907Y0045526D01*
X0092868Y0045530D01*
X0092828Y0045530D01*
X0092789Y0045526D01*
X0092750Y0045518D01*
X0092712Y0045507D01*
X0092675Y0045492D01*
X0092640Y0045474D01*
X0092606Y0045453D01*
X0092575Y0045428D01*
X0092546Y0045401D01*
X0092520Y0045371D01*
X0092497Y0045338D01*
X0092477Y0045304D01*
X0092461Y0045268D01*
X0092448Y0045230D01*
X0092439Y0045192D01*
X0092433Y0045153D01*
X0092431Y0045113D01*
X0097984Y0041609D02*
X0097984Y0040109D01*
X0098650Y0040109D01*
X0099232Y0040109D02*
X0099232Y0041609D01*
X0099898Y0041609D01*
X0100477Y0041609D02*
X0100894Y0041609D01*
X0100477Y0041609D02*
X0100477Y0040109D01*
X0100894Y0040109D01*
X0100894Y0040108D02*
X0100932Y0040110D01*
X0100971Y0040115D01*
X0101008Y0040124D01*
X0101045Y0040136D01*
X0101080Y0040152D01*
X0101114Y0040170D01*
X0101145Y0040192D01*
X0101175Y0040217D01*
X0101202Y0040244D01*
X0101227Y0040274D01*
X0101249Y0040305D01*
X0101267Y0040339D01*
X0101283Y0040374D01*
X0101295Y0040411D01*
X0101304Y0040448D01*
X0101309Y0040487D01*
X0101311Y0040525D01*
X0101310Y0040525D02*
X0101310Y0041192D01*
X0101311Y0041192D02*
X0101309Y0041230D01*
X0101304Y0041269D01*
X0101295Y0041306D01*
X0101283Y0041343D01*
X0101267Y0041378D01*
X0101249Y0041412D01*
X0101227Y0041443D01*
X0101202Y0041473D01*
X0101175Y0041500D01*
X0101145Y0041525D01*
X0101114Y0041547D01*
X0101080Y0041565D01*
X0101045Y0041581D01*
X0101008Y0041593D01*
X0100971Y0041602D01*
X0100932Y0041607D01*
X0100894Y0041609D01*
X0099732Y0040942D02*
X0099232Y0040942D01*
X0099232Y0040109D02*
X0099898Y0040109D01*
X0101965Y0040109D02*
X0102798Y0040109D01*
X0101965Y0040109D02*
X0102673Y0040942D01*
X0102423Y0041609D02*
X0102383Y0041607D01*
X0102343Y0041602D01*
X0102303Y0041594D01*
X0102264Y0041582D01*
X0102227Y0041567D01*
X0102191Y0041549D01*
X0102156Y0041528D01*
X0102123Y0041505D01*
X0102093Y0041478D01*
X0102065Y0041449D01*
X0102039Y0041418D01*
X0102016Y0041385D01*
X0101996Y0041350D01*
X0101978Y0041313D01*
X0101964Y0041275D01*
X0102674Y0040942D02*
X0102699Y0040968D01*
X0102722Y0040997D01*
X0102742Y0041027D01*
X0102759Y0041059D01*
X0102773Y0041092D01*
X0102784Y0041127D01*
X0102792Y0041162D01*
X0102797Y0041198D01*
X0102799Y0041234D01*
X0102798Y0041234D02*
X0102796Y0041271D01*
X0102791Y0041307D01*
X0102782Y0041343D01*
X0102769Y0041378D01*
X0102754Y0041411D01*
X0102735Y0041442D01*
X0102713Y0041472D01*
X0102688Y0041499D01*
X0102661Y0041524D01*
X0102631Y0041546D01*
X0102600Y0041565D01*
X0102567Y0041580D01*
X0102532Y0041593D01*
X0102496Y0041602D01*
X0102460Y0041607D01*
X0102423Y0041609D01*
X0102270Y0033141D02*
X0101936Y0033141D01*
X0101936Y0033140D02*
X0101901Y0033138D01*
X0101867Y0033133D01*
X0101833Y0033124D01*
X0101801Y0033111D01*
X0101769Y0033095D01*
X0101740Y0033076D01*
X0101713Y0033054D01*
X0101689Y0033030D01*
X0101667Y0033003D01*
X0101648Y0032973D01*
X0101632Y0032942D01*
X0101619Y0032910D01*
X0101610Y0032876D01*
X0101605Y0032842D01*
X0101603Y0032807D01*
X0101603Y0031974D01*
X0101605Y0031939D01*
X0101610Y0031905D01*
X0101619Y0031871D01*
X0101632Y0031839D01*
X0101648Y0031808D01*
X0101667Y0031778D01*
X0101689Y0031751D01*
X0101713Y0031727D01*
X0101740Y0031705D01*
X0101770Y0031686D01*
X0101801Y0031670D01*
X0101833Y0031657D01*
X0101867Y0031648D01*
X0101901Y0031643D01*
X0101936Y0031641D01*
X0102270Y0031641D01*
X0102807Y0031641D02*
X0103640Y0031641D01*
X0103223Y0031641D02*
X0103223Y0033141D01*
X0102807Y0032807D01*
X0104247Y0032474D02*
X0104247Y0032057D01*
X0104246Y0032057D02*
X0104248Y0032017D01*
X0104254Y0031978D01*
X0104263Y0031940D01*
X0104276Y0031902D01*
X0104292Y0031866D01*
X0104312Y0031832D01*
X0104335Y0031799D01*
X0104361Y0031769D01*
X0104390Y0031742D01*
X0104421Y0031717D01*
X0104455Y0031696D01*
X0104490Y0031678D01*
X0104527Y0031663D01*
X0104565Y0031652D01*
X0104604Y0031644D01*
X0104643Y0031640D01*
X0104683Y0031640D01*
X0104722Y0031644D01*
X0104761Y0031652D01*
X0104799Y0031663D01*
X0104836Y0031678D01*
X0104872Y0031696D01*
X0104905Y0031717D01*
X0104936Y0031742D01*
X0104965Y0031769D01*
X0104991Y0031799D01*
X0105014Y0031832D01*
X0105034Y0031866D01*
X0105050Y0031902D01*
X0105063Y0031940D01*
X0105072Y0031978D01*
X0105078Y0032017D01*
X0105080Y0032057D01*
X0105080Y0032141D01*
X0105078Y0032176D01*
X0105073Y0032210D01*
X0105064Y0032244D01*
X0105051Y0032276D01*
X0105035Y0032308D01*
X0105016Y0032337D01*
X0104994Y0032364D01*
X0104970Y0032388D01*
X0104943Y0032410D01*
X0104914Y0032429D01*
X0104882Y0032445D01*
X0104850Y0032458D01*
X0104816Y0032467D01*
X0104782Y0032472D01*
X0104747Y0032474D01*
X0104247Y0032474D01*
X0104246Y0032474D02*
X0104248Y0032524D01*
X0104253Y0032573D01*
X0104263Y0032622D01*
X0104276Y0032671D01*
X0104292Y0032718D01*
X0104312Y0032763D01*
X0104335Y0032807D01*
X0104362Y0032850D01*
X0104392Y0032890D01*
X0104424Y0032928D01*
X0104459Y0032963D01*
X0104497Y0032995D01*
X0104537Y0033025D01*
X0104579Y0033052D01*
X0104624Y0033075D01*
X0104669Y0033095D01*
X0104716Y0033111D01*
X0104765Y0033124D01*
X0104814Y0033134D01*
X0104863Y0033139D01*
X0104913Y0033141D01*
X0114466Y0028614D02*
X0114466Y0027114D01*
X0114466Y0027781D02*
X0114882Y0027781D01*
X0114966Y0027781D02*
X0115299Y0027114D01*
X0116314Y0027114D02*
X0116731Y0028614D01*
X0115897Y0028614D01*
X0115897Y0028447D01*
X0114882Y0028614D02*
X0114466Y0028614D01*
X0114882Y0028614D02*
X0114922Y0028612D01*
X0114961Y0028606D01*
X0114999Y0028597D01*
X0115037Y0028584D01*
X0115073Y0028568D01*
X0115107Y0028548D01*
X0115140Y0028525D01*
X0115170Y0028499D01*
X0115197Y0028470D01*
X0115222Y0028439D01*
X0115243Y0028405D01*
X0115261Y0028370D01*
X0115276Y0028333D01*
X0115287Y0028295D01*
X0115295Y0028256D01*
X0115299Y0028217D01*
X0115299Y0028177D01*
X0115295Y0028138D01*
X0115287Y0028099D01*
X0115276Y0028061D01*
X0115261Y0028024D01*
X0115243Y0027989D01*
X0115222Y0027955D01*
X0115197Y0027924D01*
X0115170Y0027895D01*
X0115140Y0027869D01*
X0115107Y0027846D01*
X0115073Y0027826D01*
X0115037Y0027810D01*
X0114999Y0027797D01*
X0114961Y0027788D01*
X0114922Y0027782D01*
X0114882Y0027780D01*
X0116913Y0022279D02*
X0116913Y0021779D01*
X0116913Y0022279D02*
X0116915Y0022314D01*
X0116920Y0022348D01*
X0116929Y0022382D01*
X0116942Y0022414D01*
X0116958Y0022446D01*
X0116977Y0022475D01*
X0116999Y0022502D01*
X0117023Y0022526D01*
X0117050Y0022548D01*
X0117080Y0022567D01*
X0117111Y0022583D01*
X0117143Y0022596D01*
X0117177Y0022605D01*
X0117211Y0022610D01*
X0117246Y0022612D01*
X0117281Y0022610D01*
X0117315Y0022605D01*
X0117349Y0022596D01*
X0117381Y0022583D01*
X0117413Y0022567D01*
X0117442Y0022548D01*
X0117469Y0022526D01*
X0117493Y0022502D01*
X0117515Y0022475D01*
X0117534Y0022446D01*
X0117550Y0022414D01*
X0117563Y0022382D01*
X0117572Y0022348D01*
X0117577Y0022314D01*
X0117579Y0022279D01*
X0117579Y0021945D01*
X0117579Y0022195D02*
X0117581Y0022235D01*
X0117587Y0022274D01*
X0117596Y0022312D01*
X0117609Y0022350D01*
X0117625Y0022386D01*
X0117645Y0022420D01*
X0117668Y0022453D01*
X0117694Y0022483D01*
X0117723Y0022510D01*
X0117754Y0022535D01*
X0117788Y0022556D01*
X0117823Y0022574D01*
X0117860Y0022589D01*
X0117898Y0022600D01*
X0117937Y0022608D01*
X0117976Y0022612D01*
X0118016Y0022612D01*
X0118055Y0022608D01*
X0118094Y0022600D01*
X0118132Y0022589D01*
X0118169Y0022574D01*
X0118205Y0022556D01*
X0118238Y0022535D01*
X0118269Y0022510D01*
X0118298Y0022483D01*
X0118324Y0022453D01*
X0118347Y0022420D01*
X0118367Y0022386D01*
X0118383Y0022350D01*
X0118396Y0022312D01*
X0118405Y0022274D01*
X0118411Y0022235D01*
X0118413Y0022195D01*
X0118413Y0021779D01*
X0118413Y0021172D02*
X0118413Y0020339D01*
X0118413Y0020755D02*
X0116913Y0020755D01*
X0117246Y0020339D01*
X0116912Y0019324D02*
X0116914Y0019364D01*
X0116920Y0019403D01*
X0116929Y0019441D01*
X0116942Y0019479D01*
X0116958Y0019515D01*
X0116978Y0019549D01*
X0117001Y0019582D01*
X0117027Y0019612D01*
X0117056Y0019639D01*
X0117087Y0019664D01*
X0117121Y0019685D01*
X0117156Y0019703D01*
X0117193Y0019718D01*
X0117231Y0019729D01*
X0117270Y0019737D01*
X0117309Y0019741D01*
X0117349Y0019741D01*
X0117388Y0019737D01*
X0117427Y0019729D01*
X0117465Y0019718D01*
X0117502Y0019703D01*
X0117538Y0019685D01*
X0117571Y0019664D01*
X0117602Y0019639D01*
X0117631Y0019612D01*
X0117657Y0019582D01*
X0117680Y0019549D01*
X0117700Y0019515D01*
X0117716Y0019479D01*
X0117729Y0019441D01*
X0117738Y0019403D01*
X0117744Y0019364D01*
X0117746Y0019324D01*
X0117746Y0018907D01*
X0117746Y0019407D02*
X0118413Y0019740D01*
X0118413Y0018907D02*
X0116913Y0018907D01*
X0116913Y0019324D01*
X0107527Y0019588D02*
X0106694Y0019588D01*
X0106694Y0018921D01*
X0107194Y0018921D01*
X0107229Y0018919D01*
X0107263Y0018914D01*
X0107297Y0018905D01*
X0107329Y0018892D01*
X0107361Y0018876D01*
X0107390Y0018857D01*
X0107417Y0018835D01*
X0107441Y0018811D01*
X0107463Y0018784D01*
X0107482Y0018755D01*
X0107498Y0018723D01*
X0107511Y0018691D01*
X0107520Y0018657D01*
X0107525Y0018623D01*
X0107527Y0018588D01*
X0107527Y0018421D01*
X0107525Y0018386D01*
X0107520Y0018352D01*
X0107511Y0018318D01*
X0107498Y0018286D01*
X0107482Y0018255D01*
X0107463Y0018225D01*
X0107441Y0018198D01*
X0107417Y0018174D01*
X0107390Y0018152D01*
X0107361Y0018133D01*
X0107329Y0018117D01*
X0107297Y0018104D01*
X0107263Y0018095D01*
X0107229Y0018090D01*
X0107194Y0018088D01*
X0106694Y0018088D01*
X0106087Y0018088D02*
X0105254Y0018088D01*
X0105671Y0018088D02*
X0105671Y0019588D01*
X0105254Y0019255D01*
X0104239Y0019588D02*
X0104279Y0019586D01*
X0104318Y0019580D01*
X0104356Y0019571D01*
X0104394Y0019558D01*
X0104430Y0019542D01*
X0104464Y0019522D01*
X0104497Y0019499D01*
X0104527Y0019473D01*
X0104554Y0019444D01*
X0104579Y0019413D01*
X0104600Y0019379D01*
X0104618Y0019344D01*
X0104633Y0019307D01*
X0104644Y0019269D01*
X0104652Y0019230D01*
X0104656Y0019191D01*
X0104656Y0019151D01*
X0104652Y0019112D01*
X0104644Y0019073D01*
X0104633Y0019035D01*
X0104618Y0018998D01*
X0104600Y0018963D01*
X0104579Y0018929D01*
X0104554Y0018898D01*
X0104527Y0018869D01*
X0104497Y0018843D01*
X0104464Y0018820D01*
X0104430Y0018800D01*
X0104394Y0018784D01*
X0104356Y0018771D01*
X0104318Y0018762D01*
X0104279Y0018756D01*
X0104239Y0018754D01*
X0104239Y0018755D02*
X0103822Y0018755D01*
X0104322Y0018755D02*
X0104656Y0018088D01*
X0103822Y0018088D02*
X0103822Y0019588D01*
X0104239Y0019588D01*
X0101277Y0011141D02*
X0100944Y0009974D01*
X0101777Y0009974D01*
X0101527Y0009641D02*
X0101527Y0010308D01*
X0100337Y0009641D02*
X0099504Y0009641D01*
X0099920Y0009641D02*
X0099920Y0011141D01*
X0099504Y0010808D01*
X0098489Y0011141D02*
X0098529Y0011139D01*
X0098568Y0011133D01*
X0098606Y0011124D01*
X0098644Y0011111D01*
X0098680Y0011095D01*
X0098714Y0011075D01*
X0098747Y0011052D01*
X0098777Y0011026D01*
X0098804Y0010997D01*
X0098829Y0010966D01*
X0098850Y0010932D01*
X0098868Y0010897D01*
X0098883Y0010860D01*
X0098894Y0010822D01*
X0098902Y0010783D01*
X0098906Y0010744D01*
X0098906Y0010704D01*
X0098902Y0010665D01*
X0098894Y0010626D01*
X0098883Y0010588D01*
X0098868Y0010551D01*
X0098850Y0010515D01*
X0098829Y0010482D01*
X0098804Y0010451D01*
X0098777Y0010422D01*
X0098747Y0010396D01*
X0098714Y0010373D01*
X0098680Y0010353D01*
X0098644Y0010337D01*
X0098606Y0010324D01*
X0098568Y0010315D01*
X0098529Y0010309D01*
X0098489Y0010307D01*
X0098489Y0010308D02*
X0098072Y0010308D01*
X0098572Y0010308D02*
X0098905Y0009641D01*
X0098072Y0009641D02*
X0098072Y0011141D01*
X0098489Y0011141D01*
X0088075Y0013540D02*
X0086575Y0013540D01*
X0088075Y0014373D01*
X0086575Y0014373D01*
X0086575Y0015095D02*
X0086575Y0015512D01*
X0086574Y0015512D02*
X0086576Y0015552D01*
X0086582Y0015591D01*
X0086591Y0015629D01*
X0086604Y0015667D01*
X0086620Y0015703D01*
X0086640Y0015737D01*
X0086663Y0015770D01*
X0086689Y0015800D01*
X0086718Y0015827D01*
X0086749Y0015852D01*
X0086783Y0015873D01*
X0086818Y0015891D01*
X0086855Y0015906D01*
X0086893Y0015917D01*
X0086932Y0015925D01*
X0086971Y0015929D01*
X0087011Y0015929D01*
X0087050Y0015925D01*
X0087089Y0015917D01*
X0087127Y0015906D01*
X0087164Y0015891D01*
X0087200Y0015873D01*
X0087233Y0015852D01*
X0087264Y0015827D01*
X0087293Y0015800D01*
X0087319Y0015770D01*
X0087342Y0015737D01*
X0087362Y0015703D01*
X0087378Y0015667D01*
X0087391Y0015629D01*
X0087400Y0015591D01*
X0087406Y0015552D01*
X0087408Y0015512D01*
X0087408Y0015095D01*
X0088075Y0015095D02*
X0086575Y0015095D01*
X0086575Y0016516D02*
X0088075Y0017349D01*
X0086575Y0017349D01*
X0086575Y0016516D02*
X0088075Y0016516D01*
X0088267Y0032230D02*
X0088600Y0032230D01*
X0088267Y0032230D02*
X0088232Y0032232D01*
X0088198Y0032237D01*
X0088164Y0032246D01*
X0088132Y0032259D01*
X0088101Y0032275D01*
X0088071Y0032294D01*
X0088044Y0032316D01*
X0088020Y0032340D01*
X0087998Y0032367D01*
X0087979Y0032397D01*
X0087963Y0032428D01*
X0087950Y0032460D01*
X0087941Y0032494D01*
X0087936Y0032528D01*
X0087934Y0032563D01*
X0087934Y0033397D01*
X0087936Y0033432D01*
X0087941Y0033466D01*
X0087950Y0033500D01*
X0087963Y0033532D01*
X0087979Y0033563D01*
X0087998Y0033593D01*
X0088020Y0033620D01*
X0088044Y0033644D01*
X0088071Y0033666D01*
X0088100Y0033685D01*
X0088132Y0033701D01*
X0088164Y0033714D01*
X0088198Y0033723D01*
X0088232Y0033728D01*
X0088267Y0033730D01*
X0088600Y0033730D01*
X0089137Y0033397D02*
X0089554Y0033730D01*
X0089554Y0032230D01*
X0089137Y0032230D02*
X0089971Y0032230D01*
X0090994Y0032230D02*
X0091411Y0033730D01*
X0090577Y0033730D01*
X0090577Y0033563D01*
X0075691Y0040144D02*
X0075275Y0040144D01*
X0075691Y0040143D02*
X0075731Y0040145D01*
X0075770Y0040151D01*
X0075808Y0040160D01*
X0075846Y0040173D01*
X0075882Y0040189D01*
X0075916Y0040209D01*
X0075949Y0040232D01*
X0075979Y0040258D01*
X0076006Y0040287D01*
X0076031Y0040318D01*
X0076052Y0040352D01*
X0076070Y0040387D01*
X0076085Y0040424D01*
X0076096Y0040462D01*
X0076104Y0040501D01*
X0076108Y0040540D01*
X0076108Y0040580D01*
X0076104Y0040619D01*
X0076096Y0040658D01*
X0076085Y0040696D01*
X0076070Y0040733D01*
X0076052Y0040769D01*
X0076031Y0040802D01*
X0076006Y0040833D01*
X0075979Y0040862D01*
X0075949Y0040888D01*
X0075916Y0040911D01*
X0075882Y0040931D01*
X0075846Y0040947D01*
X0075808Y0040960D01*
X0075770Y0040969D01*
X0075731Y0040975D01*
X0075691Y0040977D01*
X0075775Y0040977D02*
X0075441Y0040977D01*
X0075775Y0040977D02*
X0075810Y0040979D01*
X0075844Y0040984D01*
X0075878Y0040993D01*
X0075910Y0041006D01*
X0075942Y0041022D01*
X0075971Y0041041D01*
X0075998Y0041063D01*
X0076022Y0041087D01*
X0076044Y0041114D01*
X0076063Y0041144D01*
X0076079Y0041175D01*
X0076092Y0041207D01*
X0076101Y0041241D01*
X0076106Y0041275D01*
X0076108Y0041310D01*
X0076106Y0041345D01*
X0076101Y0041379D01*
X0076092Y0041413D01*
X0076079Y0041445D01*
X0076063Y0041477D01*
X0076044Y0041506D01*
X0076022Y0041533D01*
X0075998Y0041557D01*
X0075971Y0041579D01*
X0075942Y0041598D01*
X0075910Y0041614D01*
X0075878Y0041627D01*
X0075844Y0041636D01*
X0075810Y0041641D01*
X0075775Y0041643D01*
X0075775Y0041644D02*
X0075275Y0041644D01*
X0074259Y0041644D02*
X0073843Y0041644D01*
X0073843Y0040144D01*
X0073843Y0040810D02*
X0074259Y0040810D01*
X0074343Y0040810D02*
X0074676Y0040144D01*
X0074259Y0040810D02*
X0074299Y0040812D01*
X0074338Y0040818D01*
X0074376Y0040827D01*
X0074414Y0040840D01*
X0074450Y0040856D01*
X0074484Y0040876D01*
X0074517Y0040899D01*
X0074547Y0040925D01*
X0074574Y0040954D01*
X0074599Y0040985D01*
X0074620Y0041019D01*
X0074638Y0041054D01*
X0074653Y0041091D01*
X0074664Y0041129D01*
X0074672Y0041168D01*
X0074676Y0041207D01*
X0074676Y0041247D01*
X0074672Y0041286D01*
X0074664Y0041325D01*
X0074653Y0041363D01*
X0074638Y0041400D01*
X0074620Y0041436D01*
X0074599Y0041469D01*
X0074574Y0041500D01*
X0074547Y0041529D01*
X0074517Y0041555D01*
X0074484Y0041578D01*
X0074450Y0041598D01*
X0074414Y0041614D01*
X0074376Y0041627D01*
X0074338Y0041636D01*
X0074299Y0041642D01*
X0074259Y0041644D01*
X0068549Y0047285D02*
X0068549Y0047368D01*
X0068547Y0047403D01*
X0068542Y0047437D01*
X0068533Y0047471D01*
X0068520Y0047503D01*
X0068504Y0047535D01*
X0068485Y0047564D01*
X0068463Y0047591D01*
X0068439Y0047615D01*
X0068412Y0047637D01*
X0068383Y0047656D01*
X0068351Y0047672D01*
X0068319Y0047685D01*
X0068285Y0047694D01*
X0068251Y0047699D01*
X0068216Y0047701D01*
X0067716Y0047701D01*
X0067716Y0047285D01*
X0067718Y0047245D01*
X0067724Y0047206D01*
X0067733Y0047168D01*
X0067746Y0047130D01*
X0067762Y0047094D01*
X0067782Y0047060D01*
X0067805Y0047027D01*
X0067831Y0046997D01*
X0067860Y0046970D01*
X0067891Y0046945D01*
X0067925Y0046924D01*
X0067960Y0046906D01*
X0067997Y0046891D01*
X0068035Y0046880D01*
X0068074Y0046872D01*
X0068113Y0046868D01*
X0068153Y0046868D01*
X0068192Y0046872D01*
X0068231Y0046880D01*
X0068269Y0046891D01*
X0068306Y0046906D01*
X0068342Y0046924D01*
X0068375Y0046945D01*
X0068406Y0046970D01*
X0068435Y0046997D01*
X0068461Y0047027D01*
X0068484Y0047060D01*
X0068504Y0047094D01*
X0068520Y0047130D01*
X0068533Y0047168D01*
X0068542Y0047206D01*
X0068548Y0047245D01*
X0068550Y0047285D01*
X0067716Y0047701D02*
X0067718Y0047751D01*
X0067723Y0047800D01*
X0067733Y0047849D01*
X0067746Y0047898D01*
X0067762Y0047945D01*
X0067782Y0047990D01*
X0067805Y0048034D01*
X0067832Y0048077D01*
X0067862Y0048117D01*
X0067894Y0048155D01*
X0067929Y0048190D01*
X0067967Y0048222D01*
X0068007Y0048252D01*
X0068049Y0048279D01*
X0068094Y0048302D01*
X0068139Y0048322D01*
X0068186Y0048338D01*
X0068235Y0048351D01*
X0068284Y0048361D01*
X0068333Y0048366D01*
X0068383Y0048368D01*
X0066701Y0048368D02*
X0066284Y0048368D01*
X0066284Y0046868D01*
X0066284Y0047535D02*
X0066701Y0047535D01*
X0066784Y0047535D02*
X0067117Y0046868D01*
X0066701Y0047534D02*
X0066741Y0047536D01*
X0066780Y0047542D01*
X0066818Y0047551D01*
X0066856Y0047564D01*
X0066892Y0047580D01*
X0066926Y0047600D01*
X0066959Y0047623D01*
X0066989Y0047649D01*
X0067016Y0047678D01*
X0067041Y0047709D01*
X0067062Y0047743D01*
X0067080Y0047778D01*
X0067095Y0047815D01*
X0067106Y0047853D01*
X0067114Y0047892D01*
X0067118Y0047931D01*
X0067118Y0047971D01*
X0067114Y0048010D01*
X0067106Y0048049D01*
X0067095Y0048087D01*
X0067080Y0048124D01*
X0067062Y0048160D01*
X0067041Y0048193D01*
X0067016Y0048224D01*
X0066989Y0048253D01*
X0066959Y0048279D01*
X0066926Y0048302D01*
X0066892Y0048322D01*
X0066856Y0048338D01*
X0066818Y0048351D01*
X0066780Y0048360D01*
X0066741Y0048366D01*
X0066701Y0048368D01*
X0077787Y0071975D02*
X0078120Y0071975D01*
X0077787Y0071976D02*
X0077752Y0071978D01*
X0077718Y0071983D01*
X0077684Y0071992D01*
X0077652Y0072005D01*
X0077621Y0072021D01*
X0077591Y0072040D01*
X0077564Y0072062D01*
X0077540Y0072086D01*
X0077518Y0072113D01*
X0077499Y0072143D01*
X0077483Y0072174D01*
X0077470Y0072206D01*
X0077461Y0072240D01*
X0077456Y0072274D01*
X0077454Y0072309D01*
X0077454Y0073142D01*
X0077456Y0073177D01*
X0077461Y0073211D01*
X0077470Y0073245D01*
X0077483Y0073277D01*
X0077499Y0073308D01*
X0077518Y0073338D01*
X0077540Y0073365D01*
X0077564Y0073389D01*
X0077591Y0073411D01*
X0077620Y0073430D01*
X0077652Y0073446D01*
X0077684Y0073459D01*
X0077718Y0073468D01*
X0077752Y0073473D01*
X0077787Y0073475D01*
X0078120Y0073475D01*
X0078657Y0073142D02*
X0079074Y0073475D01*
X0079074Y0071975D01*
X0078657Y0071975D02*
X0079491Y0071975D01*
X0080097Y0071975D02*
X0080931Y0071975D01*
X0080514Y0071975D02*
X0080514Y0073475D01*
X0080097Y0073142D01*
X0085379Y0078337D02*
X0085379Y0079837D01*
X0085796Y0079837D01*
X0085796Y0079838D02*
X0085836Y0079836D01*
X0085875Y0079830D01*
X0085913Y0079821D01*
X0085951Y0079808D01*
X0085987Y0079792D01*
X0086021Y0079772D01*
X0086054Y0079749D01*
X0086084Y0079723D01*
X0086111Y0079694D01*
X0086136Y0079663D01*
X0086157Y0079630D01*
X0086175Y0079594D01*
X0086190Y0079557D01*
X0086201Y0079519D01*
X0086209Y0079480D01*
X0086213Y0079441D01*
X0086213Y0079401D01*
X0086209Y0079362D01*
X0086201Y0079323D01*
X0086190Y0079285D01*
X0086175Y0079248D01*
X0086157Y0079213D01*
X0086136Y0079179D01*
X0086111Y0079148D01*
X0086084Y0079119D01*
X0086054Y0079093D01*
X0086021Y0079070D01*
X0085987Y0079050D01*
X0085951Y0079034D01*
X0085913Y0079021D01*
X0085875Y0079012D01*
X0085836Y0079006D01*
X0085796Y0079004D01*
X0085379Y0079004D01*
X0085879Y0079004D02*
X0086213Y0078337D01*
X0086811Y0078337D02*
X0087644Y0078337D01*
X0088251Y0078337D02*
X0089084Y0078337D01*
X0088668Y0078337D02*
X0088668Y0079837D01*
X0088251Y0079504D01*
X0087519Y0079171D02*
X0086811Y0078337D01*
X0086810Y0079504D02*
X0086824Y0079542D01*
X0086842Y0079579D01*
X0086862Y0079614D01*
X0086885Y0079647D01*
X0086911Y0079678D01*
X0086939Y0079707D01*
X0086969Y0079734D01*
X0087002Y0079757D01*
X0087037Y0079778D01*
X0087073Y0079796D01*
X0087110Y0079811D01*
X0087149Y0079823D01*
X0087189Y0079831D01*
X0087229Y0079836D01*
X0087269Y0079838D01*
X0087269Y0079837D02*
X0087306Y0079835D01*
X0087342Y0079830D01*
X0087378Y0079821D01*
X0087413Y0079808D01*
X0087446Y0079793D01*
X0087477Y0079774D01*
X0087507Y0079752D01*
X0087534Y0079727D01*
X0087559Y0079700D01*
X0087581Y0079670D01*
X0087600Y0079639D01*
X0087615Y0079606D01*
X0087628Y0079571D01*
X0087637Y0079535D01*
X0087642Y0079499D01*
X0087644Y0079462D01*
X0087645Y0079462D02*
X0087643Y0079426D01*
X0087638Y0079390D01*
X0087630Y0079355D01*
X0087619Y0079320D01*
X0087605Y0079287D01*
X0087588Y0079255D01*
X0087568Y0079225D01*
X0087545Y0079196D01*
X0087520Y0079170D01*
X0090709Y0072557D02*
X0090711Y0072507D01*
X0090716Y0072458D01*
X0090726Y0072409D01*
X0090739Y0072360D01*
X0090755Y0072313D01*
X0090775Y0072268D01*
X0090798Y0072223D01*
X0090825Y0072181D01*
X0090855Y0072141D01*
X0090887Y0072103D01*
X0090922Y0072068D01*
X0090960Y0072036D01*
X0091000Y0072006D01*
X0091043Y0071979D01*
X0091087Y0071956D01*
X0091132Y0071936D01*
X0091179Y0071920D01*
X0091228Y0071907D01*
X0091277Y0071897D01*
X0091326Y0071892D01*
X0091376Y0071890D01*
X0091792Y0071890D01*
X0091376Y0071890D02*
X0091376Y0072390D01*
X0091378Y0072425D01*
X0091383Y0072459D01*
X0091392Y0072493D01*
X0091405Y0072525D01*
X0091421Y0072557D01*
X0091440Y0072586D01*
X0091462Y0072613D01*
X0091486Y0072637D01*
X0091513Y0072659D01*
X0091543Y0072678D01*
X0091574Y0072694D01*
X0091606Y0072707D01*
X0091640Y0072716D01*
X0091674Y0072721D01*
X0091709Y0072723D01*
X0091709Y0072724D02*
X0091792Y0072724D01*
X0091832Y0072722D01*
X0091871Y0072716D01*
X0091909Y0072707D01*
X0091947Y0072694D01*
X0091983Y0072678D01*
X0092017Y0072658D01*
X0092050Y0072635D01*
X0092080Y0072609D01*
X0092107Y0072580D01*
X0092132Y0072549D01*
X0092153Y0072516D01*
X0092171Y0072480D01*
X0092186Y0072443D01*
X0092197Y0072405D01*
X0092205Y0072366D01*
X0092209Y0072327D01*
X0092209Y0072287D01*
X0092205Y0072248D01*
X0092197Y0072209D01*
X0092186Y0072171D01*
X0092171Y0072134D01*
X0092153Y0072099D01*
X0092132Y0072065D01*
X0092107Y0072034D01*
X0092080Y0072005D01*
X0092050Y0071979D01*
X0092017Y0071956D01*
X0091983Y0071936D01*
X0091947Y0071920D01*
X0091909Y0071907D01*
X0091871Y0071898D01*
X0091832Y0071892D01*
X0091792Y0071890D01*
X0092209Y0071284D02*
X0092209Y0070450D01*
X0091376Y0071159D01*
X0090709Y0070909D02*
X0090711Y0070869D01*
X0090716Y0070829D01*
X0090724Y0070789D01*
X0090736Y0070750D01*
X0090751Y0070713D01*
X0090769Y0070677D01*
X0090790Y0070642D01*
X0090813Y0070609D01*
X0090840Y0070579D01*
X0090869Y0070551D01*
X0090900Y0070525D01*
X0090933Y0070502D01*
X0090968Y0070482D01*
X0091005Y0070464D01*
X0091043Y0070450D01*
X0091376Y0071159D02*
X0091350Y0071184D01*
X0091321Y0071207D01*
X0091291Y0071227D01*
X0091259Y0071244D01*
X0091226Y0071258D01*
X0091191Y0071269D01*
X0091156Y0071277D01*
X0091120Y0071282D01*
X0091084Y0071284D01*
X0091047Y0071282D01*
X0091011Y0071277D01*
X0090975Y0071268D01*
X0090940Y0071255D01*
X0090907Y0071240D01*
X0090876Y0071221D01*
X0090846Y0071199D01*
X0090819Y0071174D01*
X0090794Y0071147D01*
X0090772Y0071117D01*
X0090753Y0071086D01*
X0090738Y0071053D01*
X0090725Y0071018D01*
X0090716Y0070982D01*
X0090711Y0070946D01*
X0090709Y0070909D01*
X0090709Y0069913D02*
X0090709Y0069580D01*
X0090711Y0069545D01*
X0090716Y0069511D01*
X0090725Y0069477D01*
X0090738Y0069445D01*
X0090754Y0069413D01*
X0090773Y0069384D01*
X0090795Y0069357D01*
X0090819Y0069333D01*
X0090846Y0069311D01*
X0090876Y0069292D01*
X0090907Y0069276D01*
X0090939Y0069263D01*
X0090973Y0069254D01*
X0091007Y0069249D01*
X0091042Y0069247D01*
X0091876Y0069247D01*
X0091911Y0069249D01*
X0091945Y0069254D01*
X0091979Y0069263D01*
X0092011Y0069276D01*
X0092043Y0069292D01*
X0092072Y0069311D01*
X0092099Y0069333D01*
X0092123Y0069357D01*
X0092145Y0069384D01*
X0092164Y0069414D01*
X0092180Y0069445D01*
X0092193Y0069477D01*
X0092202Y0069511D01*
X0092207Y0069545D01*
X0092209Y0069580D01*
X0092209Y0069913D01*
X0097250Y0067799D02*
X0097667Y0067799D01*
X0097702Y0067797D01*
X0097736Y0067792D01*
X0097770Y0067783D01*
X0097802Y0067770D01*
X0097834Y0067754D01*
X0097863Y0067735D01*
X0097890Y0067713D01*
X0097914Y0067689D01*
X0097936Y0067662D01*
X0097955Y0067633D01*
X0097971Y0067601D01*
X0097984Y0067569D01*
X0097993Y0067535D01*
X0097998Y0067501D01*
X0098000Y0067466D01*
X0097998Y0067431D01*
X0097993Y0067397D01*
X0097984Y0067363D01*
X0097971Y0067331D01*
X0097955Y0067300D01*
X0097936Y0067270D01*
X0097914Y0067243D01*
X0097890Y0067219D01*
X0097863Y0067197D01*
X0097834Y0067178D01*
X0097802Y0067162D01*
X0097770Y0067149D01*
X0097736Y0067140D01*
X0097702Y0067135D01*
X0097667Y0067133D01*
X0097250Y0067133D01*
X0097667Y0067133D02*
X0097707Y0067131D01*
X0097746Y0067125D01*
X0097784Y0067116D01*
X0097822Y0067103D01*
X0097858Y0067087D01*
X0097892Y0067067D01*
X0097925Y0067044D01*
X0097955Y0067018D01*
X0097982Y0066989D01*
X0098007Y0066958D01*
X0098028Y0066925D01*
X0098046Y0066889D01*
X0098061Y0066852D01*
X0098072Y0066814D01*
X0098080Y0066775D01*
X0098084Y0066736D01*
X0098084Y0066696D01*
X0098080Y0066657D01*
X0098072Y0066618D01*
X0098061Y0066580D01*
X0098046Y0066543D01*
X0098028Y0066508D01*
X0098007Y0066474D01*
X0097982Y0066443D01*
X0097955Y0066414D01*
X0097925Y0066388D01*
X0097892Y0066365D01*
X0097858Y0066345D01*
X0097822Y0066329D01*
X0097784Y0066316D01*
X0097746Y0066307D01*
X0097707Y0066301D01*
X0097667Y0066299D01*
X0097250Y0066299D01*
X0097250Y0067799D01*
X0099040Y0067799D02*
X0099540Y0066299D01*
X0099415Y0066674D02*
X0098665Y0066674D01*
X0098540Y0066299D02*
X0099040Y0067799D01*
X0100114Y0067799D02*
X0100114Y0066299D01*
X0100780Y0066299D01*
X0101359Y0066716D02*
X0101359Y0067799D01*
X0102192Y0067799D02*
X0102192Y0066716D01*
X0102193Y0066716D02*
X0102191Y0066676D01*
X0102185Y0066637D01*
X0102176Y0066599D01*
X0102163Y0066561D01*
X0102147Y0066525D01*
X0102127Y0066491D01*
X0102104Y0066458D01*
X0102078Y0066428D01*
X0102049Y0066401D01*
X0102018Y0066376D01*
X0101985Y0066355D01*
X0101949Y0066337D01*
X0101912Y0066322D01*
X0101874Y0066311D01*
X0101835Y0066303D01*
X0101796Y0066299D01*
X0101756Y0066299D01*
X0101717Y0066303D01*
X0101678Y0066311D01*
X0101640Y0066322D01*
X0101603Y0066337D01*
X0101568Y0066355D01*
X0101534Y0066376D01*
X0101503Y0066401D01*
X0101474Y0066428D01*
X0101448Y0066458D01*
X0101425Y0066491D01*
X0101405Y0066525D01*
X0101389Y0066561D01*
X0101376Y0066599D01*
X0101367Y0066637D01*
X0101361Y0066676D01*
X0101359Y0066716D01*
X0102895Y0066299D02*
X0102895Y0067799D01*
X0103728Y0066299D01*
X0103728Y0067799D01*
X0114865Y0088874D02*
X0115698Y0088874D01*
X0115733Y0088876D01*
X0115767Y0088881D01*
X0115801Y0088890D01*
X0115833Y0088903D01*
X0115865Y0088919D01*
X0115894Y0088938D01*
X0115921Y0088960D01*
X0115945Y0088984D01*
X0115967Y0089011D01*
X0115986Y0089041D01*
X0116002Y0089072D01*
X0116015Y0089104D01*
X0116024Y0089138D01*
X0116029Y0089172D01*
X0116031Y0089207D01*
X0116031Y0089541D01*
X0116032Y0090244D02*
X0116030Y0090294D01*
X0116025Y0090343D01*
X0116015Y0090392D01*
X0116002Y0090441D01*
X0115986Y0090488D01*
X0115966Y0090533D01*
X0115943Y0090578D01*
X0115916Y0090620D01*
X0115886Y0090660D01*
X0115854Y0090698D01*
X0115819Y0090733D01*
X0115781Y0090765D01*
X0115741Y0090795D01*
X0115699Y0090822D01*
X0115654Y0090845D01*
X0115609Y0090865D01*
X0115562Y0090881D01*
X0115513Y0090894D01*
X0115464Y0090904D01*
X0115415Y0090909D01*
X0115365Y0090911D01*
X0114948Y0090911D01*
X0114908Y0090909D01*
X0114869Y0090903D01*
X0114831Y0090894D01*
X0114793Y0090881D01*
X0114757Y0090865D01*
X0114723Y0090845D01*
X0114690Y0090822D01*
X0114660Y0090796D01*
X0114633Y0090767D01*
X0114608Y0090736D01*
X0114587Y0090703D01*
X0114569Y0090667D01*
X0114554Y0090630D01*
X0114543Y0090592D01*
X0114535Y0090553D01*
X0114531Y0090514D01*
X0114531Y0090474D01*
X0114535Y0090435D01*
X0114543Y0090396D01*
X0114554Y0090358D01*
X0114569Y0090321D01*
X0114587Y0090286D01*
X0114608Y0090252D01*
X0114633Y0090221D01*
X0114660Y0090192D01*
X0114690Y0090166D01*
X0114723Y0090143D01*
X0114757Y0090123D01*
X0114793Y0090107D01*
X0114831Y0090094D01*
X0114869Y0090085D01*
X0114908Y0090079D01*
X0114948Y0090077D01*
X0114948Y0090078D02*
X0115031Y0090078D01*
X0115066Y0090080D01*
X0115100Y0090085D01*
X0115134Y0090094D01*
X0115166Y0090107D01*
X0115197Y0090123D01*
X0115227Y0090142D01*
X0115254Y0090164D01*
X0115278Y0090188D01*
X0115300Y0090215D01*
X0115319Y0090244D01*
X0115335Y0090276D01*
X0115348Y0090308D01*
X0115357Y0090342D01*
X0115362Y0090376D01*
X0115364Y0090411D01*
X0115365Y0090411D02*
X0115365Y0090911D01*
X0114531Y0089541D02*
X0114531Y0089207D01*
X0114532Y0089207D02*
X0114534Y0089172D01*
X0114539Y0089138D01*
X0114548Y0089104D01*
X0114561Y0089072D01*
X0114577Y0089040D01*
X0114596Y0089011D01*
X0114618Y0088984D01*
X0114642Y0088960D01*
X0114669Y0088938D01*
X0114699Y0088919D01*
X0114730Y0088903D01*
X0114762Y0088890D01*
X0114796Y0088881D01*
X0114830Y0088876D01*
X0114865Y0088874D01*
X0112750Y0090433D02*
X0112750Y0090599D01*
X0112748Y0090634D01*
X0112743Y0090668D01*
X0112734Y0090702D01*
X0112721Y0090734D01*
X0112705Y0090766D01*
X0112686Y0090795D01*
X0112664Y0090822D01*
X0112640Y0090846D01*
X0112613Y0090868D01*
X0112584Y0090887D01*
X0112552Y0090903D01*
X0112520Y0090916D01*
X0112486Y0090925D01*
X0112452Y0090930D01*
X0112417Y0090932D01*
X0112417Y0090933D02*
X0111917Y0090933D01*
X0111917Y0091599D01*
X0112750Y0091599D01*
X0112750Y0090433D02*
X0112748Y0090398D01*
X0112743Y0090364D01*
X0112734Y0090330D01*
X0112721Y0090298D01*
X0112705Y0090267D01*
X0112686Y0090237D01*
X0112664Y0090210D01*
X0112640Y0090186D01*
X0112613Y0090164D01*
X0112584Y0090145D01*
X0112552Y0090129D01*
X0112520Y0090116D01*
X0112486Y0090107D01*
X0112452Y0090102D01*
X0112417Y0090100D01*
X0112417Y0090099D02*
X0111917Y0090099D01*
X0111310Y0090099D02*
X0110477Y0090099D01*
X0111185Y0090933D01*
X0110935Y0091600D02*
X0110895Y0091598D01*
X0110855Y0091593D01*
X0110815Y0091585D01*
X0110776Y0091573D01*
X0110739Y0091558D01*
X0110703Y0091540D01*
X0110668Y0091519D01*
X0110635Y0091496D01*
X0110605Y0091469D01*
X0110577Y0091440D01*
X0110551Y0091409D01*
X0110528Y0091376D01*
X0110508Y0091341D01*
X0110490Y0091304D01*
X0110476Y0091266D01*
X0111185Y0090932D02*
X0111210Y0090958D01*
X0111233Y0090987D01*
X0111253Y0091017D01*
X0111270Y0091049D01*
X0111284Y0091082D01*
X0111295Y0091117D01*
X0111303Y0091152D01*
X0111308Y0091188D01*
X0111310Y0091224D01*
X0111308Y0091261D01*
X0111303Y0091297D01*
X0111294Y0091333D01*
X0111281Y0091368D01*
X0111266Y0091401D01*
X0111247Y0091432D01*
X0111225Y0091462D01*
X0111200Y0091489D01*
X0111173Y0091514D01*
X0111143Y0091536D01*
X0111112Y0091555D01*
X0111079Y0091570D01*
X0111044Y0091583D01*
X0111008Y0091592D01*
X0110972Y0091597D01*
X0110935Y0091599D01*
X0109745Y0090933D02*
X0109037Y0090099D01*
X0109870Y0090099D01*
X0109036Y0091266D02*
X0109050Y0091304D01*
X0109068Y0091341D01*
X0109088Y0091376D01*
X0109111Y0091409D01*
X0109137Y0091440D01*
X0109165Y0091469D01*
X0109195Y0091496D01*
X0109228Y0091519D01*
X0109263Y0091540D01*
X0109299Y0091558D01*
X0109336Y0091573D01*
X0109375Y0091585D01*
X0109415Y0091593D01*
X0109455Y0091598D01*
X0109495Y0091600D01*
X0109495Y0091599D02*
X0109532Y0091597D01*
X0109568Y0091592D01*
X0109604Y0091583D01*
X0109639Y0091570D01*
X0109672Y0091555D01*
X0109703Y0091536D01*
X0109733Y0091514D01*
X0109760Y0091489D01*
X0109785Y0091462D01*
X0109807Y0091432D01*
X0109826Y0091401D01*
X0109841Y0091368D01*
X0109854Y0091333D01*
X0109863Y0091297D01*
X0109868Y0091261D01*
X0109870Y0091224D01*
X0109868Y0091188D01*
X0109863Y0091152D01*
X0109855Y0091117D01*
X0109844Y0091082D01*
X0109830Y0091049D01*
X0109813Y0091017D01*
X0109793Y0090987D01*
X0109770Y0090958D01*
X0109745Y0090932D01*
X0108097Y0090933D02*
X0107763Y0090933D01*
X0108097Y0090933D02*
X0108132Y0090935D01*
X0108166Y0090940D01*
X0108200Y0090949D01*
X0108232Y0090962D01*
X0108264Y0090978D01*
X0108293Y0090997D01*
X0108320Y0091019D01*
X0108344Y0091043D01*
X0108366Y0091070D01*
X0108385Y0091100D01*
X0108401Y0091131D01*
X0108414Y0091163D01*
X0108423Y0091197D01*
X0108428Y0091231D01*
X0108430Y0091266D01*
X0108428Y0091301D01*
X0108423Y0091335D01*
X0108414Y0091369D01*
X0108401Y0091401D01*
X0108385Y0091433D01*
X0108366Y0091462D01*
X0108344Y0091489D01*
X0108320Y0091513D01*
X0108293Y0091535D01*
X0108264Y0091554D01*
X0108232Y0091570D01*
X0108200Y0091583D01*
X0108166Y0091592D01*
X0108132Y0091597D01*
X0108097Y0091599D01*
X0107597Y0091599D01*
X0106977Y0090683D02*
X0105977Y0090683D01*
X0105441Y0090099D02*
X0104441Y0091599D01*
X0103341Y0090974D02*
X0103312Y0090993D01*
X0103284Y0091016D01*
X0103260Y0091041D01*
X0103238Y0091068D01*
X0103219Y0091098D01*
X0103203Y0091129D01*
X0103190Y0091162D01*
X0103181Y0091196D01*
X0103176Y0091231D01*
X0103174Y0091266D01*
X0103175Y0091266D02*
X0103177Y0091301D01*
X0103182Y0091335D01*
X0103191Y0091369D01*
X0103204Y0091401D01*
X0103220Y0091433D01*
X0103239Y0091462D01*
X0103261Y0091489D01*
X0103285Y0091513D01*
X0103312Y0091535D01*
X0103342Y0091554D01*
X0103373Y0091570D01*
X0103405Y0091583D01*
X0103439Y0091592D01*
X0103473Y0091597D01*
X0103508Y0091599D01*
X0103553Y0091597D01*
X0103597Y0091593D01*
X0103641Y0091585D01*
X0103684Y0091574D01*
X0103727Y0091559D01*
X0103768Y0091542D01*
X0103808Y0091522D01*
X0103846Y0091500D01*
X0103883Y0091474D01*
X0103133Y0090307D02*
X0103170Y0090273D01*
X0103209Y0090241D01*
X0103251Y0090212D01*
X0103294Y0090186D01*
X0103339Y0090163D01*
X0103386Y0090144D01*
X0103434Y0090128D01*
X0103483Y0090115D01*
X0103532Y0090106D01*
X0103583Y0090101D01*
X0103633Y0090099D01*
X0103633Y0090100D02*
X0103668Y0090102D01*
X0103702Y0090107D01*
X0103736Y0090116D01*
X0103768Y0090129D01*
X0103800Y0090145D01*
X0103829Y0090164D01*
X0103856Y0090186D01*
X0103880Y0090210D01*
X0103902Y0090237D01*
X0103921Y0090267D01*
X0103937Y0090298D01*
X0103950Y0090330D01*
X0103959Y0090364D01*
X0103964Y0090398D01*
X0103966Y0090433D01*
X0103799Y0090724D02*
X0103341Y0090974D01*
X0103799Y0090725D02*
X0103828Y0090706D01*
X0103856Y0090683D01*
X0103880Y0090658D01*
X0103902Y0090631D01*
X0103921Y0090601D01*
X0103937Y0090570D01*
X0103950Y0090537D01*
X0103959Y0090503D01*
X0103964Y0090468D01*
X0103966Y0090433D01*
X0104441Y0090099D02*
X0105441Y0091599D01*
X0107597Y0090099D02*
X0108013Y0090099D01*
X0108053Y0090101D01*
X0108092Y0090107D01*
X0108130Y0090116D01*
X0108168Y0090129D01*
X0108204Y0090145D01*
X0108238Y0090165D01*
X0108271Y0090188D01*
X0108301Y0090214D01*
X0108328Y0090243D01*
X0108353Y0090274D01*
X0108374Y0090308D01*
X0108392Y0090343D01*
X0108407Y0090380D01*
X0108418Y0090418D01*
X0108426Y0090457D01*
X0108430Y0090496D01*
X0108430Y0090536D01*
X0108426Y0090575D01*
X0108418Y0090614D01*
X0108407Y0090652D01*
X0108392Y0090689D01*
X0108374Y0090725D01*
X0108353Y0090758D01*
X0108328Y0090789D01*
X0108301Y0090818D01*
X0108271Y0090844D01*
X0108238Y0090867D01*
X0108204Y0090887D01*
X0108168Y0090903D01*
X0108130Y0090916D01*
X0108092Y0090925D01*
X0108053Y0090931D01*
X0108013Y0090933D01*
X0102670Y0091599D02*
X0101837Y0091599D01*
X0102253Y0091599D02*
X0102253Y0090099D01*
X0094350Y0105299D02*
X0093517Y0105299D01*
X0093933Y0105299D02*
X0093933Y0106799D01*
X0093517Y0106466D01*
X0092798Y0105924D02*
X0092589Y0106049D01*
X0092381Y0106174D01*
X0092256Y0105549D02*
X0092298Y0105526D01*
X0092341Y0105506D01*
X0092386Y0105489D01*
X0092431Y0105476D01*
X0092478Y0105466D01*
X0092525Y0105459D01*
X0092572Y0105455D01*
X0092620Y0105455D01*
X0092668Y0105459D01*
X0092715Y0105466D01*
X0092589Y0105299D02*
X0092589Y0106799D01*
X0092464Y0106633D02*
X0092435Y0106626D01*
X0092407Y0106615D01*
X0092380Y0106601D01*
X0092355Y0106584D01*
X0092333Y0106564D01*
X0092313Y0106541D01*
X0092296Y0106517D01*
X0092282Y0106490D01*
X0092271Y0106462D01*
X0092264Y0106433D01*
X0092260Y0106403D01*
X0092260Y0106373D01*
X0092264Y0106343D01*
X0092271Y0106313D01*
X0092282Y0106285D01*
X0092296Y0106259D01*
X0092313Y0106234D01*
X0092333Y0106211D01*
X0092356Y0106192D01*
X0092381Y0106174D01*
X0092464Y0106632D02*
X0092511Y0106639D01*
X0092559Y0106643D01*
X0092607Y0106643D01*
X0092654Y0106639D01*
X0092701Y0106632D01*
X0092748Y0106622D01*
X0092793Y0106609D01*
X0092838Y0106592D01*
X0092881Y0106572D01*
X0092923Y0106549D01*
X0092798Y0105925D02*
X0092823Y0105907D01*
X0092846Y0105888D01*
X0092866Y0105865D01*
X0092883Y0105840D01*
X0092897Y0105814D01*
X0092908Y0105786D01*
X0092915Y0105756D01*
X0092919Y0105726D01*
X0092919Y0105696D01*
X0092915Y0105666D01*
X0092908Y0105637D01*
X0092897Y0105609D01*
X0092883Y0105582D01*
X0092866Y0105558D01*
X0092846Y0105535D01*
X0092824Y0105515D01*
X0092799Y0105498D01*
X0092772Y0105484D01*
X0092744Y0105473D01*
X0092715Y0105466D01*
X0091614Y0105716D02*
X0091614Y0106799D01*
X0090781Y0106799D02*
X0090781Y0105716D01*
X0090780Y0105716D02*
X0090782Y0105676D01*
X0090788Y0105637D01*
X0090797Y0105599D01*
X0090810Y0105561D01*
X0090826Y0105525D01*
X0090846Y0105491D01*
X0090869Y0105458D01*
X0090895Y0105428D01*
X0090924Y0105401D01*
X0090955Y0105376D01*
X0090989Y0105355D01*
X0091024Y0105337D01*
X0091061Y0105322D01*
X0091099Y0105311D01*
X0091138Y0105303D01*
X0091177Y0105299D01*
X0091217Y0105299D01*
X0091256Y0105303D01*
X0091295Y0105311D01*
X0091333Y0105322D01*
X0091370Y0105337D01*
X0091406Y0105355D01*
X0091439Y0105376D01*
X0091470Y0105401D01*
X0091499Y0105428D01*
X0091525Y0105458D01*
X0091548Y0105491D01*
X0091568Y0105525D01*
X0091584Y0105561D01*
X0091597Y0105599D01*
X0091606Y0105637D01*
X0091612Y0105676D01*
X0091614Y0105716D01*
X0119071Y0090770D02*
X0119106Y0090768D01*
X0119140Y0090763D01*
X0119174Y0090754D01*
X0119206Y0090741D01*
X0119238Y0090725D01*
X0119267Y0090706D01*
X0119294Y0090684D01*
X0119318Y0090660D01*
X0119340Y0090633D01*
X0119359Y0090604D01*
X0119375Y0090572D01*
X0119388Y0090540D01*
X0119397Y0090506D01*
X0119402Y0090472D01*
X0119404Y0090437D01*
X0119402Y0090402D01*
X0119397Y0090368D01*
X0119388Y0090334D01*
X0119375Y0090302D01*
X0119359Y0090271D01*
X0119340Y0090241D01*
X0119318Y0090214D01*
X0119294Y0090190D01*
X0119267Y0090168D01*
X0119238Y0090149D01*
X0119206Y0090133D01*
X0119174Y0090120D01*
X0119140Y0090111D01*
X0119106Y0090106D01*
X0119071Y0090104D01*
X0119036Y0090106D01*
X0119002Y0090111D01*
X0118968Y0090120D01*
X0118936Y0090133D01*
X0118905Y0090149D01*
X0118875Y0090168D01*
X0118848Y0090190D01*
X0118824Y0090214D01*
X0118802Y0090241D01*
X0118783Y0090271D01*
X0118767Y0090302D01*
X0118754Y0090334D01*
X0118745Y0090368D01*
X0118740Y0090402D01*
X0118738Y0090437D01*
X0118740Y0090472D01*
X0118745Y0090506D01*
X0118754Y0090540D01*
X0118767Y0090572D01*
X0118783Y0090604D01*
X0118802Y0090633D01*
X0118824Y0090660D01*
X0118848Y0090684D01*
X0118875Y0090706D01*
X0118905Y0090725D01*
X0118936Y0090741D01*
X0118968Y0090754D01*
X0119002Y0090763D01*
X0119036Y0090768D01*
X0119071Y0090770D01*
X0119821Y0090854D02*
X0119861Y0090852D01*
X0119900Y0090846D01*
X0119938Y0090837D01*
X0119976Y0090824D01*
X0120012Y0090808D01*
X0120046Y0090788D01*
X0120079Y0090765D01*
X0120109Y0090739D01*
X0120136Y0090710D01*
X0120161Y0090679D01*
X0120182Y0090646D01*
X0120200Y0090610D01*
X0120215Y0090573D01*
X0120226Y0090535D01*
X0120234Y0090496D01*
X0120238Y0090457D01*
X0120238Y0090417D01*
X0120234Y0090378D01*
X0120226Y0090339D01*
X0120215Y0090301D01*
X0120200Y0090264D01*
X0120182Y0090229D01*
X0120161Y0090195D01*
X0120136Y0090164D01*
X0120109Y0090135D01*
X0120079Y0090109D01*
X0120046Y0090086D01*
X0120012Y0090066D01*
X0119976Y0090050D01*
X0119938Y0090037D01*
X0119900Y0090028D01*
X0119861Y0090022D01*
X0119821Y0090020D01*
X0119781Y0090022D01*
X0119742Y0090028D01*
X0119704Y0090037D01*
X0119666Y0090050D01*
X0119630Y0090066D01*
X0119596Y0090086D01*
X0119563Y0090109D01*
X0119533Y0090135D01*
X0119506Y0090164D01*
X0119481Y0090195D01*
X0119460Y0090229D01*
X0119442Y0090264D01*
X0119427Y0090301D01*
X0119416Y0090339D01*
X0119408Y0090378D01*
X0119404Y0090417D01*
X0119404Y0090457D01*
X0119408Y0090496D01*
X0119416Y0090535D01*
X0119427Y0090573D01*
X0119442Y0090610D01*
X0119460Y0090646D01*
X0119481Y0090679D01*
X0119506Y0090710D01*
X0119533Y0090739D01*
X0119563Y0090765D01*
X0119596Y0090788D01*
X0119630Y0090808D01*
X0119666Y0090824D01*
X0119704Y0090837D01*
X0119742Y0090846D01*
X0119781Y0090852D01*
X0119821Y0090854D01*
X0120238Y0089483D02*
X0120238Y0089150D01*
X0120236Y0089115D01*
X0120231Y0089081D01*
X0120222Y0089047D01*
X0120209Y0089015D01*
X0120193Y0088984D01*
X0120174Y0088954D01*
X0120152Y0088927D01*
X0120128Y0088903D01*
X0120101Y0088881D01*
X0120072Y0088862D01*
X0120040Y0088846D01*
X0120008Y0088833D01*
X0119974Y0088824D01*
X0119940Y0088819D01*
X0119905Y0088817D01*
X0119905Y0088816D02*
X0119071Y0088816D01*
X0119071Y0088817D02*
X0119036Y0088819D01*
X0119002Y0088824D01*
X0118968Y0088833D01*
X0118936Y0088846D01*
X0118905Y0088862D01*
X0118875Y0088881D01*
X0118848Y0088903D01*
X0118824Y0088927D01*
X0118802Y0088954D01*
X0118783Y0088983D01*
X0118767Y0089015D01*
X0118754Y0089047D01*
X0118745Y0089081D01*
X0118740Y0089115D01*
X0118738Y0089150D01*
X0118738Y0089483D01*
X0124190Y0089279D02*
X0124190Y0088945D01*
X0124191Y0088945D02*
X0124193Y0088910D01*
X0124198Y0088876D01*
X0124207Y0088842D01*
X0124220Y0088810D01*
X0124236Y0088778D01*
X0124255Y0088749D01*
X0124277Y0088722D01*
X0124301Y0088698D01*
X0124328Y0088676D01*
X0124358Y0088657D01*
X0124389Y0088641D01*
X0124421Y0088628D01*
X0124455Y0088619D01*
X0124489Y0088614D01*
X0124524Y0088612D01*
X0125357Y0088612D01*
X0125392Y0088614D01*
X0125426Y0088619D01*
X0125460Y0088628D01*
X0125492Y0088641D01*
X0125524Y0088657D01*
X0125553Y0088676D01*
X0125580Y0088698D01*
X0125604Y0088722D01*
X0125626Y0088749D01*
X0125645Y0088779D01*
X0125661Y0088810D01*
X0125674Y0088842D01*
X0125683Y0088876D01*
X0125688Y0088910D01*
X0125690Y0088945D01*
X0125690Y0089279D01*
X0125690Y0090232D02*
X0124190Y0090649D01*
X0124190Y0089816D01*
X0124357Y0089816D01*
X0127467Y0082883D02*
X0127467Y0081383D01*
X0128134Y0081383D01*
X0128665Y0081383D02*
X0129498Y0081383D01*
X0129082Y0081383D02*
X0129082Y0082883D01*
X0128665Y0082549D01*
X0131432Y0078210D02*
X0131467Y0078208D01*
X0131501Y0078203D01*
X0131535Y0078194D01*
X0131567Y0078181D01*
X0131599Y0078165D01*
X0131628Y0078146D01*
X0131655Y0078124D01*
X0131679Y0078100D01*
X0131701Y0078073D01*
X0131720Y0078044D01*
X0131736Y0078012D01*
X0131749Y0077980D01*
X0131758Y0077946D01*
X0131763Y0077912D01*
X0131765Y0077877D01*
X0131763Y0077842D01*
X0131758Y0077808D01*
X0131749Y0077774D01*
X0131736Y0077742D01*
X0131720Y0077711D01*
X0131701Y0077681D01*
X0131679Y0077654D01*
X0131655Y0077630D01*
X0131628Y0077608D01*
X0131599Y0077589D01*
X0131567Y0077573D01*
X0131535Y0077560D01*
X0131501Y0077551D01*
X0131467Y0077546D01*
X0131432Y0077544D01*
X0131397Y0077546D01*
X0131363Y0077551D01*
X0131329Y0077560D01*
X0131297Y0077573D01*
X0131266Y0077589D01*
X0131236Y0077608D01*
X0131209Y0077630D01*
X0131185Y0077654D01*
X0131163Y0077681D01*
X0131144Y0077711D01*
X0131128Y0077742D01*
X0131115Y0077774D01*
X0131106Y0077808D01*
X0131101Y0077842D01*
X0131099Y0077877D01*
X0131101Y0077912D01*
X0131106Y0077946D01*
X0131115Y0077980D01*
X0131128Y0078012D01*
X0131144Y0078044D01*
X0131163Y0078073D01*
X0131185Y0078100D01*
X0131209Y0078124D01*
X0131236Y0078146D01*
X0131266Y0078165D01*
X0131297Y0078181D01*
X0131329Y0078194D01*
X0131363Y0078203D01*
X0131397Y0078208D01*
X0131432Y0078210D01*
X0132182Y0078294D02*
X0132222Y0078292D01*
X0132261Y0078286D01*
X0132299Y0078277D01*
X0132337Y0078264D01*
X0132373Y0078248D01*
X0132407Y0078228D01*
X0132440Y0078205D01*
X0132470Y0078179D01*
X0132497Y0078150D01*
X0132522Y0078119D01*
X0132543Y0078086D01*
X0132561Y0078050D01*
X0132576Y0078013D01*
X0132587Y0077975D01*
X0132595Y0077936D01*
X0132599Y0077897D01*
X0132599Y0077857D01*
X0132595Y0077818D01*
X0132587Y0077779D01*
X0132576Y0077741D01*
X0132561Y0077704D01*
X0132543Y0077669D01*
X0132522Y0077635D01*
X0132497Y0077604D01*
X0132470Y0077575D01*
X0132440Y0077549D01*
X0132407Y0077526D01*
X0132373Y0077506D01*
X0132337Y0077490D01*
X0132299Y0077477D01*
X0132261Y0077468D01*
X0132222Y0077462D01*
X0132182Y0077460D01*
X0132142Y0077462D01*
X0132103Y0077468D01*
X0132065Y0077477D01*
X0132027Y0077490D01*
X0131991Y0077506D01*
X0131957Y0077526D01*
X0131924Y0077549D01*
X0131894Y0077575D01*
X0131867Y0077604D01*
X0131842Y0077635D01*
X0131821Y0077669D01*
X0131803Y0077704D01*
X0131788Y0077741D01*
X0131777Y0077779D01*
X0131769Y0077818D01*
X0131765Y0077857D01*
X0131765Y0077897D01*
X0131769Y0077936D01*
X0131777Y0077975D01*
X0131788Y0078013D01*
X0131803Y0078050D01*
X0131821Y0078086D01*
X0131842Y0078119D01*
X0131867Y0078150D01*
X0131894Y0078179D01*
X0131924Y0078205D01*
X0131957Y0078228D01*
X0131991Y0078248D01*
X0132027Y0078264D01*
X0132065Y0078277D01*
X0132103Y0078286D01*
X0132142Y0078292D01*
X0132182Y0078294D01*
X0132599Y0076862D02*
X0131932Y0076529D01*
X0131932Y0076445D02*
X0131932Y0076029D01*
X0131932Y0076445D02*
X0131930Y0076485D01*
X0131924Y0076524D01*
X0131915Y0076562D01*
X0131902Y0076600D01*
X0131886Y0076636D01*
X0131866Y0076670D01*
X0131843Y0076703D01*
X0131817Y0076733D01*
X0131788Y0076760D01*
X0131757Y0076785D01*
X0131724Y0076806D01*
X0131688Y0076824D01*
X0131651Y0076839D01*
X0131613Y0076850D01*
X0131574Y0076858D01*
X0131535Y0076862D01*
X0131495Y0076862D01*
X0131456Y0076858D01*
X0131417Y0076850D01*
X0131379Y0076839D01*
X0131342Y0076824D01*
X0131307Y0076806D01*
X0131273Y0076785D01*
X0131242Y0076760D01*
X0131213Y0076733D01*
X0131187Y0076703D01*
X0131164Y0076670D01*
X0131144Y0076636D01*
X0131128Y0076600D01*
X0131115Y0076562D01*
X0131106Y0076524D01*
X0131100Y0076485D01*
X0131098Y0076445D01*
X0131099Y0076445D02*
X0131099Y0076029D01*
X0132599Y0076029D01*
X0137843Y0075230D02*
X0137843Y0073730D01*
X0138509Y0073730D01*
X0139659Y0074355D02*
X0139688Y0074336D01*
X0139716Y0074313D01*
X0139740Y0074288D01*
X0139762Y0074261D01*
X0139781Y0074231D01*
X0139797Y0074200D01*
X0139810Y0074167D01*
X0139819Y0074133D01*
X0139824Y0074098D01*
X0139826Y0074063D01*
X0139825Y0074063D02*
X0139823Y0074028D01*
X0139818Y0073994D01*
X0139809Y0073960D01*
X0139796Y0073928D01*
X0139780Y0073897D01*
X0139761Y0073867D01*
X0139739Y0073840D01*
X0139715Y0073816D01*
X0139688Y0073794D01*
X0139659Y0073775D01*
X0139627Y0073759D01*
X0139595Y0073746D01*
X0139561Y0073737D01*
X0139527Y0073732D01*
X0139492Y0073730D01*
X0139659Y0074355D02*
X0139200Y0074605D01*
X0139367Y0075230D02*
X0139412Y0075228D01*
X0139456Y0075224D01*
X0139500Y0075216D01*
X0139543Y0075205D01*
X0139586Y0075190D01*
X0139627Y0075173D01*
X0139667Y0075153D01*
X0139705Y0075131D01*
X0139742Y0075105D01*
X0139200Y0074605D02*
X0139171Y0074624D01*
X0139143Y0074647D01*
X0139119Y0074672D01*
X0139097Y0074699D01*
X0139078Y0074729D01*
X0139062Y0074760D01*
X0139049Y0074793D01*
X0139040Y0074827D01*
X0139035Y0074862D01*
X0139033Y0074897D01*
X0139034Y0074897D02*
X0139036Y0074932D01*
X0139041Y0074966D01*
X0139050Y0075000D01*
X0139063Y0075032D01*
X0139079Y0075064D01*
X0139098Y0075093D01*
X0139120Y0075120D01*
X0139144Y0075144D01*
X0139171Y0075166D01*
X0139201Y0075185D01*
X0139232Y0075201D01*
X0139264Y0075214D01*
X0139298Y0075223D01*
X0139332Y0075228D01*
X0139367Y0075230D01*
X0138992Y0073938D02*
X0139029Y0073904D01*
X0139068Y0073872D01*
X0139110Y0073843D01*
X0139153Y0073817D01*
X0139198Y0073794D01*
X0139245Y0073775D01*
X0139293Y0073759D01*
X0139342Y0073746D01*
X0139391Y0073737D01*
X0139442Y0073732D01*
X0139492Y0073730D01*
X0140384Y0073730D02*
X0141217Y0073730D01*
X0140384Y0073730D02*
X0141092Y0074563D01*
X0140842Y0075230D02*
X0140802Y0075228D01*
X0140762Y0075223D01*
X0140722Y0075215D01*
X0140683Y0075203D01*
X0140646Y0075188D01*
X0140610Y0075170D01*
X0140575Y0075149D01*
X0140542Y0075126D01*
X0140512Y0075099D01*
X0140484Y0075070D01*
X0140458Y0075039D01*
X0140435Y0075006D01*
X0140415Y0074971D01*
X0140397Y0074934D01*
X0140383Y0074896D01*
X0141093Y0074563D02*
X0141118Y0074589D01*
X0141141Y0074618D01*
X0141161Y0074648D01*
X0141178Y0074680D01*
X0141192Y0074713D01*
X0141203Y0074748D01*
X0141211Y0074783D01*
X0141216Y0074819D01*
X0141218Y0074855D01*
X0141217Y0074855D02*
X0141215Y0074892D01*
X0141210Y0074928D01*
X0141201Y0074964D01*
X0141188Y0074999D01*
X0141173Y0075032D01*
X0141154Y0075063D01*
X0141132Y0075093D01*
X0141107Y0075120D01*
X0141080Y0075145D01*
X0141050Y0075167D01*
X0141019Y0075186D01*
X0140986Y0075201D01*
X0140951Y0075214D01*
X0140915Y0075223D01*
X0140879Y0075228D01*
X0140842Y0075230D01*
X0151381Y0072758D02*
X0151381Y0071924D01*
X0151383Y0071889D01*
X0151388Y0071855D01*
X0151397Y0071821D01*
X0151410Y0071789D01*
X0151426Y0071758D01*
X0151445Y0071728D01*
X0151467Y0071701D01*
X0151491Y0071677D01*
X0151518Y0071655D01*
X0151548Y0071636D01*
X0151579Y0071620D01*
X0151611Y0071607D01*
X0151645Y0071598D01*
X0151679Y0071593D01*
X0151714Y0071591D01*
X0152048Y0071591D01*
X0152585Y0071591D02*
X0153418Y0071591D01*
X0153001Y0071591D02*
X0153001Y0073091D01*
X0152585Y0072758D01*
X0152048Y0073091D02*
X0151714Y0073091D01*
X0151679Y0073089D01*
X0151645Y0073084D01*
X0151611Y0073075D01*
X0151579Y0073062D01*
X0151547Y0073046D01*
X0151518Y0073027D01*
X0151491Y0073005D01*
X0151467Y0072981D01*
X0151445Y0072954D01*
X0151426Y0072924D01*
X0151410Y0072893D01*
X0151397Y0072861D01*
X0151388Y0072827D01*
X0151383Y0072793D01*
X0151381Y0072758D01*
X0152030Y0062312D02*
X0152446Y0062312D01*
X0152030Y0062312D02*
X0152030Y0060812D01*
X0152030Y0061479D02*
X0152446Y0061479D01*
X0152530Y0061479D02*
X0152863Y0060812D01*
X0153461Y0060812D02*
X0154295Y0060812D01*
X0153878Y0060812D02*
X0153878Y0062312D01*
X0153461Y0061979D01*
X0152446Y0062313D02*
X0152486Y0062311D01*
X0152525Y0062305D01*
X0152563Y0062296D01*
X0152601Y0062283D01*
X0152637Y0062267D01*
X0152671Y0062247D01*
X0152704Y0062224D01*
X0152734Y0062198D01*
X0152761Y0062169D01*
X0152786Y0062138D01*
X0152807Y0062105D01*
X0152825Y0062069D01*
X0152840Y0062032D01*
X0152851Y0061994D01*
X0152859Y0061955D01*
X0152863Y0061916D01*
X0152863Y0061876D01*
X0152859Y0061837D01*
X0152851Y0061798D01*
X0152840Y0061760D01*
X0152825Y0061723D01*
X0152807Y0061688D01*
X0152786Y0061654D01*
X0152761Y0061623D01*
X0152734Y0061594D01*
X0152704Y0061568D01*
X0152671Y0061545D01*
X0152637Y0061525D01*
X0152601Y0061509D01*
X0152563Y0061496D01*
X0152525Y0061487D01*
X0152486Y0061481D01*
X0152446Y0061479D01*
X0134643Y0045149D02*
X0134645Y0045087D01*
X0134649Y0045025D01*
X0134657Y0044963D01*
X0134668Y0044902D01*
X0134682Y0044841D01*
X0134699Y0044781D01*
X0134719Y0044722D01*
X0134742Y0044664D01*
X0134768Y0044607D01*
X0134726Y0044732D02*
X0135392Y0045565D01*
X0135350Y0045690D02*
X0135338Y0045719D01*
X0135324Y0045748D01*
X0135306Y0045774D01*
X0135286Y0045799D01*
X0135263Y0045821D01*
X0135238Y0045841D01*
X0135211Y0045858D01*
X0135183Y0045872D01*
X0135153Y0045883D01*
X0135122Y0045891D01*
X0135091Y0045896D01*
X0135059Y0045898D01*
X0135027Y0045896D01*
X0134996Y0045891D01*
X0134965Y0045883D01*
X0134935Y0045872D01*
X0134907Y0045858D01*
X0134880Y0045841D01*
X0134855Y0045821D01*
X0134832Y0045799D01*
X0134812Y0045774D01*
X0134794Y0045748D01*
X0134780Y0045719D01*
X0134768Y0045690D01*
X0135351Y0045691D02*
X0135377Y0045634D01*
X0135400Y0045576D01*
X0135420Y0045517D01*
X0135437Y0045457D01*
X0135451Y0045396D01*
X0135462Y0045335D01*
X0135470Y0045273D01*
X0135474Y0045211D01*
X0135476Y0045149D01*
X0134643Y0045149D02*
X0134645Y0045211D01*
X0134649Y0045273D01*
X0134657Y0045335D01*
X0134668Y0045396D01*
X0134682Y0045457D01*
X0134699Y0045517D01*
X0134719Y0045576D01*
X0134742Y0045634D01*
X0134768Y0045691D01*
X0135476Y0045149D02*
X0135474Y0045087D01*
X0135470Y0045025D01*
X0135462Y0044963D01*
X0135451Y0044902D01*
X0135437Y0044841D01*
X0135420Y0044781D01*
X0135400Y0044722D01*
X0135377Y0044664D01*
X0135351Y0044607D01*
X0135059Y0044399D02*
X0135027Y0044401D01*
X0134996Y0044406D01*
X0134965Y0044414D01*
X0134935Y0044425D01*
X0134907Y0044439D01*
X0134880Y0044456D01*
X0134855Y0044476D01*
X0134832Y0044498D01*
X0134812Y0044523D01*
X0134794Y0044549D01*
X0134780Y0044578D01*
X0134768Y0044607D01*
X0135059Y0044399D02*
X0135091Y0044401D01*
X0135122Y0044406D01*
X0135153Y0044414D01*
X0135183Y0044425D01*
X0135211Y0044439D01*
X0135238Y0044456D01*
X0135263Y0044476D01*
X0135286Y0044498D01*
X0135306Y0044523D01*
X0135324Y0044549D01*
X0135338Y0044578D01*
X0135350Y0044607D01*
X0134036Y0044399D02*
X0133202Y0044399D01*
X0133619Y0044399D02*
X0133619Y0045899D01*
X0133202Y0045565D01*
X0132665Y0045899D02*
X0132332Y0045899D01*
X0132332Y0045898D02*
X0132297Y0045896D01*
X0132263Y0045891D01*
X0132229Y0045882D01*
X0132197Y0045869D01*
X0132165Y0045853D01*
X0132136Y0045834D01*
X0132109Y0045812D01*
X0132085Y0045788D01*
X0132063Y0045761D01*
X0132044Y0045731D01*
X0132028Y0045700D01*
X0132015Y0045668D01*
X0132006Y0045634D01*
X0132001Y0045600D01*
X0131999Y0045565D01*
X0131999Y0044732D01*
X0132001Y0044697D01*
X0132006Y0044663D01*
X0132015Y0044629D01*
X0132028Y0044597D01*
X0132044Y0044566D01*
X0132063Y0044536D01*
X0132085Y0044509D01*
X0132109Y0044485D01*
X0132136Y0044463D01*
X0132166Y0044444D01*
X0132197Y0044428D01*
X0132229Y0044415D01*
X0132263Y0044406D01*
X0132297Y0044401D01*
X0132332Y0044399D01*
X0132665Y0044399D01*
X0132923Y0025951D02*
X0133756Y0024451D01*
X0133756Y0025951D01*
X0134478Y0025951D02*
X0134895Y0025951D01*
X0134935Y0025949D01*
X0134974Y0025943D01*
X0135012Y0025934D01*
X0135050Y0025921D01*
X0135086Y0025905D01*
X0135120Y0025885D01*
X0135153Y0025862D01*
X0135183Y0025836D01*
X0135210Y0025807D01*
X0135235Y0025776D01*
X0135256Y0025742D01*
X0135274Y0025707D01*
X0135289Y0025670D01*
X0135300Y0025632D01*
X0135308Y0025593D01*
X0135312Y0025554D01*
X0135312Y0025514D01*
X0135308Y0025475D01*
X0135300Y0025436D01*
X0135289Y0025398D01*
X0135274Y0025361D01*
X0135256Y0025326D01*
X0135235Y0025292D01*
X0135210Y0025261D01*
X0135183Y0025232D01*
X0135153Y0025206D01*
X0135120Y0025183D01*
X0135086Y0025163D01*
X0135050Y0025147D01*
X0135012Y0025134D01*
X0134974Y0025125D01*
X0134935Y0025119D01*
X0134895Y0025117D01*
X0134478Y0025117D01*
X0134478Y0024451D02*
X0134478Y0025951D01*
X0132923Y0025951D02*
X0132923Y0024451D01*
X0131919Y0025117D02*
X0131502Y0025117D01*
X0131919Y0025117D02*
X0131959Y0025119D01*
X0131998Y0025125D01*
X0132036Y0025134D01*
X0132074Y0025147D01*
X0132110Y0025163D01*
X0132144Y0025183D01*
X0132177Y0025206D01*
X0132207Y0025232D01*
X0132234Y0025261D01*
X0132259Y0025292D01*
X0132280Y0025326D01*
X0132298Y0025361D01*
X0132313Y0025398D01*
X0132324Y0025436D01*
X0132332Y0025475D01*
X0132336Y0025514D01*
X0132336Y0025554D01*
X0132332Y0025593D01*
X0132324Y0025632D01*
X0132313Y0025670D01*
X0132298Y0025707D01*
X0132280Y0025742D01*
X0132259Y0025776D01*
X0132234Y0025807D01*
X0132207Y0025836D01*
X0132177Y0025862D01*
X0132144Y0025885D01*
X0132110Y0025905D01*
X0132074Y0025921D01*
X0132036Y0025934D01*
X0131998Y0025943D01*
X0131959Y0025949D01*
X0131919Y0025951D01*
X0131502Y0025951D01*
X0131502Y0024451D01*
X0185767Y0084299D02*
X0185934Y0084299D01*
X0185934Y0084300D02*
X0185969Y0084302D01*
X0186003Y0084307D01*
X0186037Y0084316D01*
X0186069Y0084329D01*
X0186100Y0084345D01*
X0186130Y0084364D01*
X0186157Y0084386D01*
X0186181Y0084410D01*
X0186203Y0084437D01*
X0186222Y0084466D01*
X0186238Y0084498D01*
X0186251Y0084530D01*
X0186260Y0084564D01*
X0186265Y0084598D01*
X0186267Y0084633D01*
X0186267Y0085799D01*
X0187625Y0085132D02*
X0187650Y0085158D01*
X0187673Y0085187D01*
X0187693Y0085217D01*
X0187710Y0085249D01*
X0187724Y0085282D01*
X0187735Y0085317D01*
X0187743Y0085352D01*
X0187748Y0085388D01*
X0187750Y0085424D01*
X0187625Y0085133D02*
X0186917Y0084299D01*
X0187750Y0084299D01*
X0186916Y0085466D02*
X0186930Y0085504D01*
X0186948Y0085541D01*
X0186968Y0085576D01*
X0186991Y0085609D01*
X0187017Y0085640D01*
X0187045Y0085669D01*
X0187075Y0085696D01*
X0187108Y0085719D01*
X0187143Y0085740D01*
X0187179Y0085758D01*
X0187216Y0085773D01*
X0187255Y0085785D01*
X0187295Y0085793D01*
X0187335Y0085798D01*
X0187375Y0085800D01*
X0187375Y0085799D02*
X0187412Y0085797D01*
X0187448Y0085792D01*
X0187484Y0085783D01*
X0187519Y0085770D01*
X0187552Y0085755D01*
X0187583Y0085736D01*
X0187613Y0085714D01*
X0187640Y0085689D01*
X0187665Y0085662D01*
X0187687Y0085632D01*
X0187706Y0085601D01*
X0187721Y0085568D01*
X0187734Y0085533D01*
X0187743Y0085497D01*
X0187748Y0085461D01*
X0187750Y0085424D01*
X0174089Y0090712D02*
X0174089Y0091046D01*
X0174089Y0090712D02*
X0174087Y0090677D01*
X0174082Y0090643D01*
X0174073Y0090609D01*
X0174060Y0090577D01*
X0174044Y0090546D01*
X0174025Y0090516D01*
X0174003Y0090489D01*
X0173979Y0090465D01*
X0173952Y0090443D01*
X0173923Y0090424D01*
X0173891Y0090408D01*
X0173859Y0090395D01*
X0173825Y0090386D01*
X0173791Y0090381D01*
X0173756Y0090379D01*
X0172923Y0090379D01*
X0172888Y0090381D01*
X0172854Y0090386D01*
X0172820Y0090395D01*
X0172788Y0090408D01*
X0172757Y0090424D01*
X0172727Y0090443D01*
X0172700Y0090465D01*
X0172676Y0090489D01*
X0172654Y0090516D01*
X0172635Y0090545D01*
X0172619Y0090577D01*
X0172606Y0090609D01*
X0172597Y0090643D01*
X0172592Y0090677D01*
X0172590Y0090712D01*
X0172589Y0090712D02*
X0172589Y0091046D01*
X0173256Y0092291D02*
X0173230Y0092316D01*
X0173201Y0092339D01*
X0173171Y0092359D01*
X0173139Y0092376D01*
X0173106Y0092390D01*
X0173071Y0092401D01*
X0173036Y0092409D01*
X0173000Y0092414D01*
X0172964Y0092416D01*
X0173256Y0092291D02*
X0174089Y0091583D01*
X0174089Y0092416D01*
X0174089Y0093023D02*
X0174089Y0093440D01*
X0174090Y0093440D02*
X0174088Y0093480D01*
X0174082Y0093519D01*
X0174073Y0093557D01*
X0174060Y0093595D01*
X0174044Y0093631D01*
X0174024Y0093665D01*
X0174001Y0093698D01*
X0173975Y0093728D01*
X0173946Y0093755D01*
X0173915Y0093780D01*
X0173882Y0093801D01*
X0173846Y0093819D01*
X0173809Y0093834D01*
X0173771Y0093845D01*
X0173732Y0093853D01*
X0173693Y0093857D01*
X0173653Y0093857D01*
X0173614Y0093853D01*
X0173575Y0093845D01*
X0173537Y0093834D01*
X0173500Y0093819D01*
X0173465Y0093801D01*
X0173431Y0093780D01*
X0173400Y0093755D01*
X0173371Y0093728D01*
X0173345Y0093698D01*
X0173322Y0093665D01*
X0173302Y0093631D01*
X0173286Y0093595D01*
X0173273Y0093557D01*
X0173264Y0093519D01*
X0173258Y0093480D01*
X0173256Y0093440D01*
X0173256Y0093523D02*
X0173256Y0093190D01*
X0173256Y0093523D02*
X0173254Y0093558D01*
X0173249Y0093592D01*
X0173240Y0093626D01*
X0173227Y0093658D01*
X0173211Y0093690D01*
X0173192Y0093719D01*
X0173170Y0093746D01*
X0173146Y0093770D01*
X0173119Y0093792D01*
X0173090Y0093811D01*
X0173058Y0093827D01*
X0173026Y0093840D01*
X0172992Y0093849D01*
X0172958Y0093854D01*
X0172923Y0093856D01*
X0172888Y0093854D01*
X0172854Y0093849D01*
X0172820Y0093840D01*
X0172788Y0093827D01*
X0172757Y0093811D01*
X0172727Y0093792D01*
X0172700Y0093770D01*
X0172676Y0093746D01*
X0172654Y0093719D01*
X0172635Y0093690D01*
X0172619Y0093658D01*
X0172606Y0093626D01*
X0172597Y0093592D01*
X0172592Y0093558D01*
X0172590Y0093523D01*
X0172589Y0093523D02*
X0172589Y0093023D01*
X0172964Y0092416D02*
X0172927Y0092414D01*
X0172891Y0092409D01*
X0172855Y0092400D01*
X0172820Y0092387D01*
X0172787Y0092372D01*
X0172756Y0092353D01*
X0172726Y0092331D01*
X0172699Y0092306D01*
X0172674Y0092279D01*
X0172652Y0092249D01*
X0172633Y0092218D01*
X0172618Y0092185D01*
X0172605Y0092150D01*
X0172596Y0092114D01*
X0172591Y0092078D01*
X0172589Y0092041D01*
X0172591Y0092001D01*
X0172596Y0091961D01*
X0172604Y0091921D01*
X0172616Y0091882D01*
X0172631Y0091845D01*
X0172649Y0091809D01*
X0172670Y0091774D01*
X0172693Y0091741D01*
X0172720Y0091711D01*
X0172749Y0091683D01*
X0172780Y0091657D01*
X0172813Y0091634D01*
X0172848Y0091614D01*
X0172885Y0091596D01*
X0172923Y0091582D01*
X0156795Y0091857D02*
X0156795Y0091024D01*
X0155961Y0091732D01*
X0155294Y0091482D02*
X0155296Y0091442D01*
X0155301Y0091402D01*
X0155309Y0091362D01*
X0155321Y0091323D01*
X0155336Y0091286D01*
X0155354Y0091250D01*
X0155375Y0091215D01*
X0155398Y0091182D01*
X0155425Y0091152D01*
X0155454Y0091124D01*
X0155485Y0091098D01*
X0155518Y0091075D01*
X0155553Y0091055D01*
X0155590Y0091037D01*
X0155628Y0091023D01*
X0155962Y0091732D02*
X0155936Y0091757D01*
X0155907Y0091780D01*
X0155877Y0091800D01*
X0155845Y0091817D01*
X0155812Y0091831D01*
X0155777Y0091842D01*
X0155742Y0091850D01*
X0155706Y0091855D01*
X0155670Y0091857D01*
X0155633Y0091855D01*
X0155597Y0091850D01*
X0155561Y0091841D01*
X0155526Y0091828D01*
X0155493Y0091813D01*
X0155462Y0091794D01*
X0155432Y0091772D01*
X0155405Y0091747D01*
X0155380Y0091720D01*
X0155358Y0091690D01*
X0155339Y0091659D01*
X0155324Y0091626D01*
X0155311Y0091591D01*
X0155302Y0091555D01*
X0155297Y0091519D01*
X0155295Y0091482D01*
X0155961Y0090292D02*
X0156795Y0089584D01*
X0156795Y0090417D01*
X0155628Y0089583D02*
X0155590Y0089597D01*
X0155553Y0089615D01*
X0155518Y0089635D01*
X0155485Y0089658D01*
X0155454Y0089684D01*
X0155425Y0089712D01*
X0155398Y0089742D01*
X0155375Y0089775D01*
X0155354Y0089810D01*
X0155336Y0089846D01*
X0155321Y0089883D01*
X0155309Y0089922D01*
X0155301Y0089962D01*
X0155296Y0090002D01*
X0155294Y0090042D01*
X0155295Y0090042D02*
X0155297Y0090079D01*
X0155302Y0090115D01*
X0155311Y0090151D01*
X0155324Y0090186D01*
X0155339Y0090219D01*
X0155358Y0090250D01*
X0155380Y0090280D01*
X0155405Y0090307D01*
X0155432Y0090332D01*
X0155462Y0090354D01*
X0155493Y0090373D01*
X0155526Y0090388D01*
X0155561Y0090401D01*
X0155597Y0090410D01*
X0155633Y0090415D01*
X0155670Y0090417D01*
X0155706Y0090415D01*
X0155742Y0090410D01*
X0155777Y0090402D01*
X0155812Y0090391D01*
X0155845Y0090377D01*
X0155877Y0090360D01*
X0155907Y0090340D01*
X0155936Y0090317D01*
X0155962Y0090292D01*
X0155295Y0089047D02*
X0155295Y0088713D01*
X0155297Y0088678D01*
X0155302Y0088644D01*
X0155311Y0088610D01*
X0155324Y0088578D01*
X0155340Y0088546D01*
X0155359Y0088517D01*
X0155381Y0088490D01*
X0155405Y0088466D01*
X0155432Y0088444D01*
X0155462Y0088425D01*
X0155493Y0088409D01*
X0155525Y0088396D01*
X0155559Y0088387D01*
X0155593Y0088382D01*
X0155628Y0088380D01*
X0156461Y0088380D01*
X0156496Y0088382D01*
X0156530Y0088387D01*
X0156564Y0088396D01*
X0156596Y0088409D01*
X0156628Y0088425D01*
X0156657Y0088444D01*
X0156684Y0088466D01*
X0156708Y0088490D01*
X0156730Y0088517D01*
X0156749Y0088547D01*
X0156765Y0088578D01*
X0156778Y0088610D01*
X0156787Y0088644D01*
X0156792Y0088678D01*
X0156794Y0088713D01*
X0156795Y0088713D02*
X0156795Y0089047D01*
X0149150Y0095116D02*
X0149148Y0095076D01*
X0149142Y0095037D01*
X0149133Y0094999D01*
X0149120Y0094961D01*
X0149104Y0094925D01*
X0149084Y0094891D01*
X0149061Y0094858D01*
X0149035Y0094828D01*
X0149006Y0094801D01*
X0148975Y0094776D01*
X0148942Y0094755D01*
X0148906Y0094737D01*
X0148869Y0094722D01*
X0148831Y0094711D01*
X0148792Y0094703D01*
X0148753Y0094699D01*
X0148713Y0094699D01*
X0148674Y0094703D01*
X0148635Y0094711D01*
X0148597Y0094722D01*
X0148560Y0094737D01*
X0148525Y0094755D01*
X0148491Y0094776D01*
X0148460Y0094801D01*
X0148431Y0094828D01*
X0148405Y0094858D01*
X0148382Y0094891D01*
X0148362Y0094925D01*
X0148346Y0094961D01*
X0148333Y0094999D01*
X0148324Y0095037D01*
X0148318Y0095076D01*
X0148316Y0095116D01*
X0148318Y0095156D01*
X0148324Y0095195D01*
X0148333Y0095233D01*
X0148346Y0095271D01*
X0148362Y0095307D01*
X0148382Y0095341D01*
X0148405Y0095374D01*
X0148431Y0095404D01*
X0148460Y0095431D01*
X0148491Y0095456D01*
X0148525Y0095477D01*
X0148560Y0095495D01*
X0148597Y0095510D01*
X0148635Y0095521D01*
X0148674Y0095529D01*
X0148713Y0095533D01*
X0148753Y0095533D01*
X0148792Y0095529D01*
X0148831Y0095521D01*
X0148869Y0095510D01*
X0148906Y0095495D01*
X0148942Y0095477D01*
X0148975Y0095456D01*
X0149006Y0095431D01*
X0149035Y0095404D01*
X0149061Y0095374D01*
X0149084Y0095341D01*
X0149104Y0095307D01*
X0149120Y0095271D01*
X0149133Y0095233D01*
X0149142Y0095195D01*
X0149148Y0095156D01*
X0149150Y0095116D01*
X0149066Y0095866D02*
X0149064Y0095831D01*
X0149059Y0095797D01*
X0149050Y0095763D01*
X0149037Y0095731D01*
X0149021Y0095700D01*
X0149002Y0095670D01*
X0148980Y0095643D01*
X0148956Y0095619D01*
X0148929Y0095597D01*
X0148900Y0095578D01*
X0148868Y0095562D01*
X0148836Y0095549D01*
X0148802Y0095540D01*
X0148768Y0095535D01*
X0148733Y0095533D01*
X0148698Y0095535D01*
X0148664Y0095540D01*
X0148630Y0095549D01*
X0148598Y0095562D01*
X0148567Y0095578D01*
X0148537Y0095597D01*
X0148510Y0095619D01*
X0148486Y0095643D01*
X0148464Y0095670D01*
X0148445Y0095700D01*
X0148429Y0095731D01*
X0148416Y0095763D01*
X0148407Y0095797D01*
X0148402Y0095831D01*
X0148400Y0095866D01*
X0148402Y0095901D01*
X0148407Y0095935D01*
X0148416Y0095969D01*
X0148429Y0096001D01*
X0148445Y0096033D01*
X0148464Y0096062D01*
X0148486Y0096089D01*
X0148510Y0096113D01*
X0148537Y0096135D01*
X0148567Y0096154D01*
X0148598Y0096170D01*
X0148630Y0096183D01*
X0148664Y0096192D01*
X0148698Y0096197D01*
X0148733Y0096199D01*
X0148768Y0096197D01*
X0148802Y0096192D01*
X0148836Y0096183D01*
X0148868Y0096170D01*
X0148900Y0096154D01*
X0148929Y0096135D01*
X0148956Y0096113D01*
X0148980Y0096089D01*
X0149002Y0096062D01*
X0149021Y0096033D01*
X0149037Y0096001D01*
X0149050Y0095969D01*
X0149059Y0095935D01*
X0149064Y0095901D01*
X0149066Y0095866D01*
X0147598Y0095324D02*
X0147389Y0095449D01*
X0147181Y0095574D01*
X0147056Y0094949D02*
X0147098Y0094926D01*
X0147141Y0094906D01*
X0147186Y0094889D01*
X0147231Y0094876D01*
X0147278Y0094866D01*
X0147325Y0094859D01*
X0147372Y0094855D01*
X0147420Y0094855D01*
X0147468Y0094859D01*
X0147515Y0094866D01*
X0147389Y0094699D02*
X0147389Y0096199D01*
X0147264Y0096033D02*
X0147235Y0096026D01*
X0147207Y0096015D01*
X0147180Y0096001D01*
X0147155Y0095984D01*
X0147133Y0095964D01*
X0147113Y0095941D01*
X0147096Y0095917D01*
X0147082Y0095890D01*
X0147071Y0095862D01*
X0147064Y0095833D01*
X0147060Y0095803D01*
X0147060Y0095773D01*
X0147064Y0095743D01*
X0147071Y0095713D01*
X0147082Y0095685D01*
X0147096Y0095659D01*
X0147113Y0095634D01*
X0147133Y0095611D01*
X0147156Y0095592D01*
X0147181Y0095574D01*
X0147264Y0096032D02*
X0147311Y0096039D01*
X0147359Y0096043D01*
X0147407Y0096043D01*
X0147454Y0096039D01*
X0147501Y0096032D01*
X0147548Y0096022D01*
X0147593Y0096009D01*
X0147638Y0095992D01*
X0147681Y0095972D01*
X0147723Y0095949D01*
X0147598Y0095325D02*
X0147623Y0095307D01*
X0147646Y0095288D01*
X0147666Y0095265D01*
X0147683Y0095240D01*
X0147697Y0095214D01*
X0147708Y0095186D01*
X0147715Y0095156D01*
X0147719Y0095126D01*
X0147719Y0095096D01*
X0147715Y0095066D01*
X0147708Y0095037D01*
X0147697Y0095009D01*
X0147683Y0094982D01*
X0147666Y0094958D01*
X0147646Y0094935D01*
X0147624Y0094915D01*
X0147599Y0094898D01*
X0147572Y0094884D01*
X0147544Y0094873D01*
X0147515Y0094866D01*
X0146414Y0095116D02*
X0146414Y0096199D01*
X0145581Y0096199D02*
X0145581Y0095116D01*
X0145580Y0095116D02*
X0145582Y0095076D01*
X0145588Y0095037D01*
X0145597Y0094999D01*
X0145610Y0094961D01*
X0145626Y0094925D01*
X0145646Y0094891D01*
X0145669Y0094858D01*
X0145695Y0094828D01*
X0145724Y0094801D01*
X0145755Y0094776D01*
X0145789Y0094755D01*
X0145824Y0094737D01*
X0145861Y0094722D01*
X0145899Y0094711D01*
X0145938Y0094703D01*
X0145977Y0094699D01*
X0146017Y0094699D01*
X0146056Y0094703D01*
X0146095Y0094711D01*
X0146133Y0094722D01*
X0146170Y0094737D01*
X0146206Y0094755D01*
X0146239Y0094776D01*
X0146270Y0094801D01*
X0146299Y0094828D01*
X0146325Y0094858D01*
X0146348Y0094891D01*
X0146368Y0094925D01*
X0146384Y0094961D01*
X0146397Y0094999D01*
X0146406Y0095037D01*
X0146412Y0095076D01*
X0146414Y0095116D01*
X0135286Y0104921D02*
X0134452Y0104921D01*
X0134786Y0106088D01*
X0135036Y0105255D02*
X0135036Y0104588D01*
X0133922Y0104588D02*
X0133255Y0104588D01*
X0133255Y0106088D01*
X0061933Y0021399D02*
X0060850Y0021399D01*
X0060850Y0020566D02*
X0061933Y0020566D01*
X0061973Y0020568D01*
X0062012Y0020574D01*
X0062050Y0020583D01*
X0062088Y0020596D01*
X0062124Y0020612D01*
X0062158Y0020632D01*
X0062191Y0020655D01*
X0062221Y0020681D01*
X0062248Y0020710D01*
X0062273Y0020741D01*
X0062294Y0020775D01*
X0062312Y0020810D01*
X0062327Y0020847D01*
X0062338Y0020885D01*
X0062346Y0020924D01*
X0062350Y0020963D01*
X0062350Y0021003D01*
X0062346Y0021042D01*
X0062338Y0021081D01*
X0062327Y0021119D01*
X0062312Y0021156D01*
X0062294Y0021191D01*
X0062273Y0021225D01*
X0062248Y0021256D01*
X0062221Y0021285D01*
X0062191Y0021311D01*
X0062158Y0021334D01*
X0062124Y0021354D01*
X0062088Y0021370D01*
X0062050Y0021383D01*
X0062012Y0021392D01*
X0061973Y0021398D01*
X0061933Y0021400D01*
X0062350Y0019851D02*
X0060850Y0019851D01*
X0061683Y0019351D01*
X0060850Y0018851D01*
X0062350Y0018851D01*
X0062350Y0018221D02*
X0062350Y0017888D01*
X0062350Y0018055D02*
X0060850Y0018055D01*
X0060850Y0018221D02*
X0060850Y0017888D01*
X0037950Y0193499D02*
X0037283Y0193499D01*
X0037283Y0194999D01*
X0036702Y0194999D02*
X0036035Y0194999D01*
X0036035Y0193499D01*
X0036702Y0193499D01*
X0036535Y0194333D02*
X0036035Y0194333D01*
X0035330Y0194999D02*
X0035330Y0193499D01*
X0034497Y0194999D01*
X0034497Y0193499D01*
X0033926Y0193499D02*
X0033426Y0194999D01*
X0032926Y0193499D01*
X0033051Y0193874D02*
X0033801Y0193874D01*
X0032053Y0194166D02*
X0031636Y0194166D01*
X0032053Y0194166D02*
X0032093Y0194168D01*
X0032132Y0194174D01*
X0032170Y0194183D01*
X0032208Y0194196D01*
X0032244Y0194212D01*
X0032278Y0194232D01*
X0032311Y0194255D01*
X0032341Y0194281D01*
X0032368Y0194310D01*
X0032393Y0194341D01*
X0032414Y0194375D01*
X0032432Y0194410D01*
X0032447Y0194447D01*
X0032458Y0194485D01*
X0032466Y0194524D01*
X0032470Y0194563D01*
X0032470Y0194603D01*
X0032466Y0194642D01*
X0032458Y0194681D01*
X0032447Y0194719D01*
X0032432Y0194756D01*
X0032414Y0194792D01*
X0032393Y0194825D01*
X0032368Y0194856D01*
X0032341Y0194885D01*
X0032311Y0194911D01*
X0032278Y0194934D01*
X0032244Y0194954D01*
X0032208Y0194970D01*
X0032170Y0194983D01*
X0032132Y0194992D01*
X0032093Y0194998D01*
X0032053Y0195000D01*
X0032053Y0194999D02*
X0031636Y0194999D01*
X0031636Y0193499D01*
X0031023Y0193333D02*
X0030356Y0193333D01*
X0029490Y0193499D02*
X0029490Y0194999D01*
X0029906Y0194999D02*
X0029073Y0194999D01*
X0028514Y0194999D02*
X0028514Y0193499D01*
X0027681Y0194999D01*
X0027681Y0193499D01*
X0027026Y0193916D02*
X0027026Y0194583D01*
X0027027Y0194583D02*
X0027025Y0194623D01*
X0027019Y0194662D01*
X0027010Y0194700D01*
X0026997Y0194738D01*
X0026981Y0194774D01*
X0026961Y0194808D01*
X0026938Y0194841D01*
X0026912Y0194871D01*
X0026883Y0194898D01*
X0026852Y0194923D01*
X0026819Y0194944D01*
X0026783Y0194962D01*
X0026746Y0194977D01*
X0026708Y0194988D01*
X0026669Y0194996D01*
X0026630Y0195000D01*
X0026590Y0195000D01*
X0026551Y0194996D01*
X0026512Y0194988D01*
X0026474Y0194977D01*
X0026437Y0194962D01*
X0026402Y0194944D01*
X0026368Y0194923D01*
X0026337Y0194898D01*
X0026308Y0194871D01*
X0026282Y0194841D01*
X0026259Y0194808D01*
X0026239Y0194774D01*
X0026223Y0194738D01*
X0026210Y0194700D01*
X0026201Y0194662D01*
X0026195Y0194623D01*
X0026193Y0194583D01*
X0026193Y0193916D01*
X0026195Y0193876D01*
X0026201Y0193837D01*
X0026210Y0193799D01*
X0026223Y0193761D01*
X0026239Y0193725D01*
X0026259Y0193691D01*
X0026282Y0193658D01*
X0026308Y0193628D01*
X0026337Y0193601D01*
X0026368Y0193576D01*
X0026402Y0193555D01*
X0026437Y0193537D01*
X0026474Y0193522D01*
X0026512Y0193511D01*
X0026551Y0193503D01*
X0026590Y0193499D01*
X0026630Y0193499D01*
X0026669Y0193503D01*
X0026708Y0193511D01*
X0026746Y0193522D01*
X0026783Y0193537D01*
X0026819Y0193555D01*
X0026852Y0193576D01*
X0026883Y0193601D01*
X0026912Y0193628D01*
X0026938Y0193658D01*
X0026961Y0193691D01*
X0026981Y0193725D01*
X0026997Y0193761D01*
X0027010Y0193799D01*
X0027019Y0193837D01*
X0027025Y0193876D01*
X0027027Y0193916D01*
X0025594Y0193499D02*
X0025261Y0194166D01*
X0025178Y0194166D02*
X0024761Y0194166D01*
X0025178Y0194166D02*
X0025218Y0194168D01*
X0025257Y0194174D01*
X0025295Y0194183D01*
X0025333Y0194196D01*
X0025369Y0194212D01*
X0025403Y0194232D01*
X0025436Y0194255D01*
X0025466Y0194281D01*
X0025493Y0194310D01*
X0025518Y0194341D01*
X0025539Y0194375D01*
X0025557Y0194410D01*
X0025572Y0194447D01*
X0025583Y0194485D01*
X0025591Y0194524D01*
X0025595Y0194563D01*
X0025595Y0194603D01*
X0025591Y0194642D01*
X0025583Y0194681D01*
X0025572Y0194719D01*
X0025557Y0194756D01*
X0025539Y0194792D01*
X0025518Y0194825D01*
X0025493Y0194856D01*
X0025466Y0194885D01*
X0025436Y0194911D01*
X0025403Y0194934D01*
X0025369Y0194954D01*
X0025333Y0194970D01*
X0025295Y0194983D01*
X0025257Y0194992D01*
X0025218Y0194998D01*
X0025178Y0195000D01*
X0025178Y0194999D02*
X0024761Y0194999D01*
X0024761Y0193499D01*
X0024174Y0194333D02*
X0023507Y0194333D01*
X0023507Y0194999D02*
X0024174Y0194999D01*
X0023507Y0194999D02*
X0023507Y0193499D01*
D14*
X0009395Y0194672D02*
X0009395Y0196641D01*
X0182623Y0196641D01*
X0182623Y0194672D01*
X0164907Y0174987D02*
X0164907Y0163176D01*
X0170812Y0169082D02*
X0159001Y0169082D01*
X0182623Y0143491D02*
X0182623Y0141523D01*
X0009395Y0141523D01*
X0009395Y0143491D01*
X0021206Y0169082D02*
X0033017Y0169082D01*
X0086943Y0103849D02*
X0086943Y0095974D01*
X0094817Y0095974D01*
X0094817Y0103849D01*
X0086943Y0103849D01*
X0098122Y0089362D02*
X0098122Y0087394D01*
X0100090Y0089362D01*
X0113870Y0089362D01*
X0113870Y0077551D01*
X0098122Y0077551D01*
X0098122Y0087394D01*
X0098122Y0089362D02*
X0100090Y0089362D01*
X0106551Y0074326D02*
X0106551Y0047161D01*
X0133717Y0047161D01*
X0133717Y0074326D01*
X0106551Y0074326D01*
X0098323Y0070468D02*
X0098325Y0070495D01*
X0098331Y0070522D01*
X0098340Y0070548D01*
X0098353Y0070572D01*
X0098369Y0070595D01*
X0098388Y0070614D01*
X0098410Y0070631D01*
X0098434Y0070645D01*
X0098459Y0070655D01*
X0098486Y0070662D01*
X0098513Y0070665D01*
X0098541Y0070664D01*
X0098568Y0070659D01*
X0098594Y0070651D01*
X0098618Y0070639D01*
X0098641Y0070623D01*
X0098662Y0070605D01*
X0098679Y0070584D01*
X0098694Y0070560D01*
X0098705Y0070535D01*
X0098713Y0070509D01*
X0098717Y0070482D01*
X0098717Y0070454D01*
X0098713Y0070427D01*
X0098705Y0070401D01*
X0098694Y0070376D01*
X0098679Y0070352D01*
X0098662Y0070331D01*
X0098641Y0070313D01*
X0098619Y0070297D01*
X0098594Y0070285D01*
X0098568Y0070277D01*
X0098541Y0070272D01*
X0098513Y0070271D01*
X0098486Y0070274D01*
X0098459Y0070281D01*
X0098434Y0070291D01*
X0098410Y0070305D01*
X0098388Y0070322D01*
X0098369Y0070341D01*
X0098353Y0070364D01*
X0098340Y0070388D01*
X0098331Y0070414D01*
X0098325Y0070441D01*
X0098323Y0070468D01*
X0069543Y0072712D02*
X0069543Y0056964D01*
X0061669Y0056964D01*
X0061669Y0072712D01*
X0069543Y0072712D01*
X0127661Y0091884D02*
X0127661Y0103695D01*
X0140259Y0103695D01*
X0140259Y0091884D01*
X0127661Y0091884D01*
X0142513Y0104463D02*
X0142513Y0074542D01*
X0142523Y0074503D02*
X0143192Y0074503D01*
X0153704Y0074542D02*
X0154413Y0074542D01*
X0154422Y0074542D02*
X0154422Y0104463D01*
X0154413Y0104542D02*
X0153783Y0104542D01*
X0152599Y0096235D02*
X0152601Y0096268D01*
X0152607Y0096300D01*
X0152616Y0096332D01*
X0152630Y0096362D01*
X0152646Y0096390D01*
X0152666Y0096416D01*
X0152689Y0096440D01*
X0152715Y0096461D01*
X0152743Y0096478D01*
X0152773Y0096493D01*
X0152804Y0096503D01*
X0152836Y0096510D01*
X0152869Y0096513D01*
X0152902Y0096512D01*
X0152934Y0096507D01*
X0152966Y0096498D01*
X0152997Y0096486D01*
X0153025Y0096470D01*
X0153052Y0096451D01*
X0153076Y0096429D01*
X0153098Y0096404D01*
X0153116Y0096376D01*
X0153131Y0096347D01*
X0153143Y0096316D01*
X0153151Y0096284D01*
X0153155Y0096251D01*
X0153155Y0096219D01*
X0153151Y0096186D01*
X0153143Y0096154D01*
X0153131Y0096123D01*
X0153116Y0096094D01*
X0153098Y0096066D01*
X0153076Y0096041D01*
X0153052Y0096019D01*
X0153025Y0096000D01*
X0152997Y0095984D01*
X0152966Y0095972D01*
X0152934Y0095963D01*
X0152902Y0095958D01*
X0152869Y0095957D01*
X0152836Y0095960D01*
X0152804Y0095967D01*
X0152773Y0095977D01*
X0152743Y0095992D01*
X0152715Y0096009D01*
X0152689Y0096030D01*
X0152666Y0096054D01*
X0152646Y0096080D01*
X0152630Y0096108D01*
X0152616Y0096138D01*
X0152607Y0096170D01*
X0152601Y0096202D01*
X0152599Y0096235D01*
X0143113Y0104503D02*
X0142523Y0104503D01*
X0190496Y0104630D02*
X0190496Y0099906D01*
X0190890Y0118410D02*
X0190890Y0123134D01*
X0192858Y0120772D02*
X0188921Y0120772D01*
D15*
X0104031Y0072043D02*
X0104031Y0068893D01*
X0097732Y0068893D01*
X0097732Y0072043D01*
X0104031Y0072043D01*
X0092356Y0096467D02*
X0092356Y0100404D01*
X0089403Y0100404D01*
X0089403Y0096467D01*
X0075803Y0024012D02*
X0063205Y0024012D01*
X0063205Y0009445D01*
X0075803Y0009445D01*
X0075803Y0024012D01*
D16*
X0089268Y0035939D02*
X0089268Y0036179D01*
X0101630Y0036061D02*
X0101630Y0035821D01*
X0073207Y0061098D02*
X0072967Y0061098D01*
X0076000Y0069718D02*
X0076000Y0069958D01*
X0094548Y0071488D02*
X0094788Y0071488D01*
X0114937Y0095351D02*
X0115178Y0095351D01*
X0119146Y0095335D02*
X0119387Y0095335D01*
X0123455Y0095396D02*
X0123695Y0095396D01*
X0149777Y0069245D02*
X0149777Y0069005D01*
X0133605Y0042262D02*
X0133605Y0042022D01*
D17*
X0076591Y0024799D03*
D18*
X0091795Y0039312D02*
X0091795Y0041123D01*
X0093015Y0042044D01*
X0091795Y0042934D02*
X0091795Y0041123D01*
X0091855Y0041023D02*
X0093015Y0040263D01*
X0091315Y0047673D02*
X0089504Y0047673D01*
X0088583Y0048893D01*
X0087693Y0047673D02*
X0089504Y0047673D01*
X0089604Y0047734D02*
X0090364Y0048893D01*
X0098760Y0017136D02*
X0098760Y0017136D01*
X0098760Y0017136D01*
X0098760Y0017136D01*
X0098760Y0017136D01*
X0098760Y0017136D01*
X0098760Y0017136D01*
X0098760Y0017136D01*
X0098760Y0017136D01*
X0131746Y0022990D02*
X0131746Y0022990D01*
X0131746Y0022990D01*
X0131746Y0022990D01*
X0131746Y0022990D01*
X0131746Y0022990D01*
X0131746Y0022990D01*
X0131746Y0022990D01*
X0131746Y0022990D01*
X0176157Y0058468D02*
X0176157Y0059068D01*
X0176157Y0058468D02*
X0189657Y0058468D01*
X0189657Y0059068D01*
X0189657Y0062868D02*
X0189657Y0064068D01*
X0189657Y0067868D02*
X0189657Y0069068D01*
X0189657Y0072868D02*
X0189657Y0074068D01*
X0189657Y0077868D02*
X0189657Y0079068D01*
X0189657Y0082868D02*
X0189657Y0083468D01*
X0176157Y0083468D01*
X0176157Y0082868D01*
X0176157Y0079068D02*
X0176157Y0077868D01*
X0176157Y0074068D02*
X0176157Y0072868D01*
X0176157Y0069068D02*
X0176157Y0067868D01*
X0176157Y0064068D02*
X0176157Y0062868D01*
X0140056Y0080557D02*
X0140056Y0080951D01*
X0138481Y0080951D01*
X0138481Y0080557D01*
X0140056Y0080557D01*
X0139533Y0118507D02*
X0134533Y0118507D01*
X0132033Y0121007D01*
X0129533Y0118507D01*
X0124533Y0118507D01*
X0122033Y0121007D01*
X0119533Y0118507D01*
X0114533Y0118507D01*
X0112033Y0121007D01*
X0109533Y0118507D01*
X0104533Y0118507D01*
X0102033Y0121007D01*
X0099533Y0118507D01*
X0094533Y0118507D01*
X0092033Y0121007D01*
X0089533Y0118507D01*
X0084533Y0118507D01*
X0082033Y0121007D01*
X0079533Y0118507D01*
X0074533Y0118507D01*
X0072033Y0121007D01*
X0069533Y0118507D01*
X0064533Y0118507D01*
X0062033Y0121007D01*
X0059533Y0118507D01*
X0054533Y0118507D01*
X0052033Y0121007D01*
X0049533Y0118507D01*
X0044533Y0118507D01*
X0042033Y0121007D01*
X0039533Y0118507D01*
X0034533Y0118507D01*
X0032033Y0121007D01*
X0032033Y0126007D01*
X0034533Y0128507D01*
X0039533Y0128507D01*
X0042033Y0126007D01*
X0044533Y0128507D01*
X0049533Y0128507D01*
X0052033Y0126007D01*
X0054533Y0128507D01*
X0059533Y0128507D01*
X0062033Y0126007D01*
X0064533Y0128507D01*
X0069533Y0128507D01*
X0072033Y0126007D01*
X0074533Y0128507D01*
X0079533Y0128507D01*
X0082033Y0126007D01*
X0084533Y0128507D01*
X0089533Y0128507D01*
X0092033Y0126007D01*
X0094533Y0128507D01*
X0099533Y0128507D01*
X0102033Y0126007D01*
X0104533Y0128507D01*
X0109533Y0128507D01*
X0112033Y0126007D01*
X0114533Y0128507D01*
X0119533Y0128507D01*
X0122033Y0126007D01*
X0124533Y0128507D01*
X0129533Y0128507D01*
X0132033Y0126007D01*
X0134533Y0128507D01*
X0139533Y0128507D01*
X0142033Y0126007D01*
X0144533Y0128507D01*
X0149533Y0128507D01*
X0152033Y0126007D01*
X0154533Y0128507D01*
X0159533Y0128507D01*
X0162033Y0126007D01*
X0164533Y0128507D01*
X0169533Y0128507D01*
X0172033Y0126007D01*
X0172033Y0121007D01*
X0169533Y0118507D01*
X0164533Y0118507D01*
X0162033Y0121007D01*
X0159533Y0118507D01*
X0154533Y0118507D01*
X0152033Y0121007D01*
X0149533Y0118507D01*
X0144533Y0118507D01*
X0142033Y0121007D01*
X0139533Y0118507D01*
X0139706Y0129290D02*
X0134706Y0129290D01*
X0132206Y0131790D01*
X0132206Y0136790D01*
X0134706Y0139290D01*
X0139706Y0139290D01*
X0142206Y0136790D01*
X0144706Y0139290D01*
X0149706Y0139290D01*
X0152206Y0136790D01*
X0152206Y0131790D01*
X0149706Y0129290D01*
X0144706Y0129290D01*
X0142206Y0131790D01*
X0139706Y0129290D01*
X0152000Y0131949D02*
X0154500Y0129449D01*
X0159500Y0129449D01*
X0162000Y0131949D01*
X0164500Y0129449D01*
X0169500Y0129449D01*
X0172000Y0131949D01*
X0172000Y0136949D01*
X0169500Y0139449D01*
X0164500Y0139449D01*
X0162000Y0136949D01*
X0159500Y0139449D01*
X0154500Y0139449D01*
X0152000Y0136949D01*
X0152000Y0131949D01*
D19*
X0108695Y0071452D02*
X0108697Y0071506D01*
X0108703Y0071560D01*
X0108713Y0071613D01*
X0108727Y0071665D01*
X0108744Y0071716D01*
X0108766Y0071765D01*
X0108791Y0071813D01*
X0108819Y0071859D01*
X0108851Y0071903D01*
X0108886Y0071944D01*
X0108923Y0071982D01*
X0108964Y0072018D01*
X0109007Y0072050D01*
X0109052Y0072080D01*
X0109100Y0072105D01*
X0109149Y0072128D01*
X0109199Y0072146D01*
X0109251Y0072161D01*
X0109304Y0072172D01*
X0109358Y0072179D01*
X0109412Y0072182D01*
X0109465Y0072181D01*
X0109519Y0072176D01*
X0109572Y0072167D01*
X0109625Y0072154D01*
X0109676Y0072137D01*
X0109726Y0072117D01*
X0109774Y0072093D01*
X0109821Y0072065D01*
X0109865Y0072035D01*
X0109907Y0072000D01*
X0109946Y0071963D01*
X0109982Y0071924D01*
X0110016Y0071881D01*
X0110046Y0071836D01*
X0110072Y0071789D01*
X0110095Y0071741D01*
X0110115Y0071690D01*
X0110131Y0071639D01*
X0110143Y0071586D01*
X0110151Y0071533D01*
X0110155Y0071479D01*
X0110155Y0071425D01*
X0110151Y0071371D01*
X0110143Y0071318D01*
X0110131Y0071265D01*
X0110115Y0071214D01*
X0110095Y0071163D01*
X0110072Y0071115D01*
X0110046Y0071068D01*
X0110016Y0071023D01*
X0109982Y0070980D01*
X0109946Y0070941D01*
X0109907Y0070904D01*
X0109865Y0070869D01*
X0109821Y0070839D01*
X0109774Y0070811D01*
X0109726Y0070787D01*
X0109676Y0070767D01*
X0109625Y0070750D01*
X0109572Y0070737D01*
X0109519Y0070728D01*
X0109465Y0070723D01*
X0109412Y0070722D01*
X0109358Y0070725D01*
X0109304Y0070732D01*
X0109251Y0070743D01*
X0109199Y0070758D01*
X0109149Y0070776D01*
X0109100Y0070799D01*
X0109052Y0070824D01*
X0109007Y0070854D01*
X0108964Y0070886D01*
X0108923Y0070922D01*
X0108886Y0070960D01*
X0108851Y0071001D01*
X0108819Y0071045D01*
X0108791Y0071091D01*
X0108766Y0071139D01*
X0108744Y0071188D01*
X0108727Y0071239D01*
X0108713Y0071291D01*
X0108703Y0071344D01*
X0108697Y0071398D01*
X0108695Y0071452D01*
D20*
X0098441Y0050783D03*
X0098559Y0046019D03*
X0079307Y0044602D03*
X0079346Y0049720D03*
X0067220Y0044563D03*
X0105774Y0011771D03*
X0107727Y0016027D03*
X0112728Y0020698D03*
X0112845Y0024961D03*
X0149867Y0064811D03*
D21*
X0134767Y0080159D03*
D22*
X0157747Y0089090D02*
X0157747Y0091452D01*
X0162472Y0091452D02*
X0162472Y0089090D01*
X0175124Y0090778D02*
X0175124Y0093141D01*
X0179849Y0093141D02*
X0179849Y0090778D01*
D23*
X0086629Y0075911D03*
X0066336Y0082683D03*
D24*
X0061800Y0092849D03*
X0079725Y0086130D03*
M02*
