G75*
%MOIN*%
%OFA0B0*%
%FSLAX25Y25*%
%IPPOS*%
%LPD*%
%AMOC8*
5,1,8,0,0,1.08239X$1,22.5*
%
%ADD10C,0.00000*%
%ADD11C,0.00300*%
%ADD12C,0.01600*%
%ADD13C,0.00100*%
%ADD14C,0.00600*%
%ADD15C,0.00500*%
%ADD16C,0.00800*%
%ADD17R,0.01600X0.02800*%
%ADD18R,0.02800X0.01600*%
D10*
X0001395Y0001649D02*
X0001395Y0198500D01*
X0198246Y0198500D01*
X0198246Y0001649D01*
X0001395Y0001649D01*
D11*
X0176495Y0042075D02*
X0179395Y0043042D01*
X0179395Y0044246D02*
X0176495Y0044246D01*
X0178106Y0044246D02*
X0178106Y0045857D01*
X0179395Y0045857D02*
X0176495Y0045857D01*
X0176495Y0047061D02*
X0179395Y0048027D01*
X0176495Y0048994D01*
X0177220Y0048752D02*
X0177220Y0047302D01*
X0176495Y0050102D02*
X0176495Y0050907D01*
X0176494Y0050907D02*
X0176496Y0050962D01*
X0176502Y0051017D01*
X0176511Y0051071D01*
X0176524Y0051124D01*
X0176541Y0051177D01*
X0176561Y0051228D01*
X0176584Y0051278D01*
X0176611Y0051326D01*
X0176642Y0051372D01*
X0176675Y0051416D01*
X0176711Y0051457D01*
X0176750Y0051496D01*
X0176791Y0051532D01*
X0176835Y0051565D01*
X0176881Y0051596D01*
X0176929Y0051623D01*
X0176979Y0051646D01*
X0177030Y0051666D01*
X0177083Y0051683D01*
X0177136Y0051696D01*
X0177190Y0051705D01*
X0177245Y0051711D01*
X0177300Y0051713D01*
X0177355Y0051711D01*
X0177410Y0051705D01*
X0177464Y0051696D01*
X0177517Y0051683D01*
X0177570Y0051666D01*
X0177621Y0051646D01*
X0177671Y0051623D01*
X0177719Y0051596D01*
X0177765Y0051565D01*
X0177809Y0051532D01*
X0177850Y0051496D01*
X0177889Y0051457D01*
X0177925Y0051416D01*
X0177958Y0051372D01*
X0177989Y0051326D01*
X0178016Y0051278D01*
X0178039Y0051228D01*
X0178059Y0051177D01*
X0178076Y0051124D01*
X0178089Y0051071D01*
X0178098Y0051017D01*
X0178104Y0050962D01*
X0178106Y0050907D01*
X0178106Y0051068D02*
X0178106Y0050424D01*
X0178106Y0051068D02*
X0178108Y0051117D01*
X0178114Y0051166D01*
X0178123Y0051215D01*
X0178136Y0051262D01*
X0178153Y0051309D01*
X0178173Y0051354D01*
X0178196Y0051397D01*
X0178223Y0051439D01*
X0178253Y0051478D01*
X0178286Y0051515D01*
X0178322Y0051549D01*
X0178360Y0051580D01*
X0178400Y0051609D01*
X0178442Y0051634D01*
X0178487Y0051656D01*
X0178532Y0051674D01*
X0178579Y0051689D01*
X0178627Y0051700D01*
X0178676Y0051708D01*
X0178725Y0051712D01*
X0178775Y0051712D01*
X0178824Y0051708D01*
X0178873Y0051700D01*
X0178921Y0051689D01*
X0178968Y0051674D01*
X0179013Y0051656D01*
X0179058Y0051634D01*
X0179100Y0051609D01*
X0179140Y0051580D01*
X0179178Y0051549D01*
X0179214Y0051515D01*
X0179247Y0051478D01*
X0179277Y0051439D01*
X0179304Y0051397D01*
X0179327Y0051354D01*
X0179347Y0051309D01*
X0179364Y0051262D01*
X0179377Y0051215D01*
X0179386Y0051166D01*
X0179392Y0051117D01*
X0179394Y0051068D01*
X0179395Y0051068D02*
X0179395Y0050102D01*
X0181295Y0050458D02*
X0181295Y0051264D01*
X0183228Y0051264D01*
X0183228Y0049975D02*
X0181778Y0049975D01*
X0181736Y0049977D01*
X0181694Y0049982D01*
X0181653Y0049991D01*
X0181613Y0050004D01*
X0181574Y0050020D01*
X0181537Y0050040D01*
X0181501Y0050062D01*
X0181468Y0050088D01*
X0181436Y0050116D01*
X0181408Y0050148D01*
X0181382Y0050181D01*
X0181360Y0050217D01*
X0181340Y0050254D01*
X0181324Y0050293D01*
X0181311Y0050333D01*
X0181302Y0050374D01*
X0181297Y0050416D01*
X0181295Y0050458D01*
X0181295Y0048545D02*
X0184195Y0048545D01*
X0182906Y0048545D02*
X0182906Y0046934D01*
X0184195Y0046934D02*
X0181295Y0046934D01*
X0181295Y0044172D02*
X0181295Y0044011D01*
X0181456Y0044011D01*
X0181456Y0044172D01*
X0181295Y0044172D01*
X0181295Y0042075D02*
X0184195Y0043042D01*
X0184195Y0041109D02*
X0181295Y0042075D01*
X0179395Y0041109D02*
X0176495Y0042075D01*
X0177220Y0053170D02*
X0178589Y0053170D01*
X0178428Y0053976D02*
X0177461Y0053976D01*
X0177220Y0053171D02*
X0177153Y0053173D01*
X0177086Y0053178D01*
X0177019Y0053188D01*
X0176953Y0053201D01*
X0176888Y0053218D01*
X0176823Y0053238D01*
X0176760Y0053262D01*
X0176699Y0053289D01*
X0176639Y0053320D01*
X0176581Y0053354D01*
X0176524Y0053391D01*
X0176470Y0053431D01*
X0176419Y0053474D01*
X0176369Y0053520D01*
X0176323Y0053569D01*
X0176279Y0053620D01*
X0176238Y0053673D01*
X0176200Y0053729D01*
X0176165Y0053787D01*
X0176134Y0053846D01*
X0176106Y0053907D01*
X0176081Y0053970D01*
X0176060Y0054034D01*
X0176043Y0054099D01*
X0176029Y0054165D01*
X0176018Y0054232D01*
X0176012Y0054299D01*
X0177461Y0053976D02*
X0177419Y0053978D01*
X0177377Y0053983D01*
X0177336Y0053992D01*
X0177296Y0054005D01*
X0177257Y0054021D01*
X0177220Y0054041D01*
X0177184Y0054063D01*
X0177151Y0054089D01*
X0177119Y0054117D01*
X0177091Y0054149D01*
X0177065Y0054182D01*
X0177043Y0054218D01*
X0177023Y0054255D01*
X0177007Y0054294D01*
X0176994Y0054334D01*
X0176985Y0054375D01*
X0176980Y0054417D01*
X0176978Y0054459D01*
X0176980Y0054501D01*
X0176985Y0054543D01*
X0176994Y0054584D01*
X0177007Y0054624D01*
X0177023Y0054663D01*
X0177043Y0054701D01*
X0177065Y0054736D01*
X0177091Y0054769D01*
X0177119Y0054801D01*
X0177151Y0054829D01*
X0177184Y0054855D01*
X0177220Y0054877D01*
X0177257Y0054897D01*
X0177296Y0054913D01*
X0177336Y0054926D01*
X0177377Y0054935D01*
X0177419Y0054940D01*
X0177461Y0054942D01*
X0177381Y0054943D02*
X0178911Y0054943D01*
X0178911Y0054459D01*
X0178589Y0053170D02*
X0178660Y0053172D01*
X0178731Y0053178D01*
X0178801Y0053188D01*
X0178871Y0053201D01*
X0178940Y0053219D01*
X0179008Y0053240D01*
X0179074Y0053265D01*
X0179139Y0053293D01*
X0179202Y0053325D01*
X0179264Y0053361D01*
X0179323Y0053400D01*
X0179381Y0053442D01*
X0179436Y0053487D01*
X0179488Y0053535D01*
X0179537Y0053586D01*
X0179584Y0053640D01*
X0179628Y0053696D01*
X0179668Y0053754D01*
X0179705Y0053814D01*
X0179739Y0053877D01*
X0179769Y0053941D01*
X0179796Y0054007D01*
X0179819Y0054074D01*
X0179839Y0054143D01*
X0179854Y0054212D01*
X0179866Y0054282D01*
X0179874Y0054353D01*
X0179878Y0054423D01*
X0179878Y0054495D01*
X0179874Y0054565D01*
X0179866Y0054636D01*
X0179854Y0054706D01*
X0179839Y0054775D01*
X0179819Y0054844D01*
X0179796Y0054911D01*
X0179769Y0054977D01*
X0179739Y0055041D01*
X0179705Y0055103D01*
X0179668Y0055164D01*
X0179628Y0055222D01*
X0179584Y0055278D01*
X0179537Y0055332D01*
X0179488Y0055383D01*
X0179436Y0055431D01*
X0179381Y0055476D01*
X0179323Y0055518D01*
X0179264Y0055557D01*
X0179202Y0055593D01*
X0179139Y0055625D01*
X0179074Y0055653D01*
X0179008Y0055678D01*
X0178940Y0055699D01*
X0178871Y0055717D01*
X0178801Y0055730D01*
X0178731Y0055740D01*
X0178660Y0055746D01*
X0178589Y0055748D01*
X0177381Y0055748D01*
X0177343Y0055746D01*
X0177305Y0055741D01*
X0177267Y0055732D01*
X0177231Y0055719D01*
X0177196Y0055703D01*
X0177163Y0055684D01*
X0177132Y0055662D01*
X0177103Y0055637D01*
X0177076Y0055609D01*
X0177053Y0055579D01*
X0177032Y0055547D01*
X0177014Y0055512D01*
X0177000Y0055477D01*
X0176989Y0055440D01*
X0176982Y0055402D01*
X0176978Y0055364D01*
X0176978Y0055326D01*
X0176982Y0055288D01*
X0176989Y0055250D01*
X0177000Y0055213D01*
X0177014Y0055178D01*
X0177032Y0055144D01*
X0177053Y0055111D01*
X0177076Y0055081D01*
X0177103Y0055053D01*
X0177132Y0055028D01*
X0177163Y0055006D01*
X0177196Y0054987D01*
X0177231Y0054971D01*
X0177267Y0054958D01*
X0177305Y0054949D01*
X0177343Y0054944D01*
X0177381Y0054942D01*
X0178428Y0053976D02*
X0178470Y0053978D01*
X0178512Y0053983D01*
X0178553Y0053992D01*
X0178593Y0054005D01*
X0178632Y0054021D01*
X0178670Y0054041D01*
X0178705Y0054063D01*
X0178738Y0054089D01*
X0178770Y0054117D01*
X0178798Y0054149D01*
X0178824Y0054182D01*
X0178846Y0054218D01*
X0178866Y0054255D01*
X0178882Y0054294D01*
X0178895Y0054334D01*
X0178904Y0054375D01*
X0178909Y0054417D01*
X0178911Y0054459D01*
X0181295Y0053952D02*
X0182745Y0053952D01*
X0182745Y0053951D02*
X0182787Y0053949D01*
X0182829Y0053944D01*
X0182870Y0053935D01*
X0182910Y0053922D01*
X0182949Y0053906D01*
X0182987Y0053886D01*
X0183022Y0053864D01*
X0183055Y0053838D01*
X0183087Y0053810D01*
X0183115Y0053778D01*
X0183141Y0053745D01*
X0183163Y0053710D01*
X0183183Y0053672D01*
X0183199Y0053633D01*
X0183212Y0053593D01*
X0183221Y0053552D01*
X0183226Y0053510D01*
X0183228Y0053468D01*
X0183228Y0052663D01*
X0181295Y0052663D01*
X0181778Y0055329D02*
X0184195Y0055329D01*
X0183228Y0055007D02*
X0183228Y0055973D01*
X0182583Y0057079D02*
X0181778Y0057079D01*
X0181736Y0057081D01*
X0181694Y0057086D01*
X0181653Y0057095D01*
X0181613Y0057108D01*
X0181574Y0057124D01*
X0181537Y0057144D01*
X0181501Y0057166D01*
X0181468Y0057192D01*
X0181436Y0057220D01*
X0181408Y0057252D01*
X0181382Y0057285D01*
X0181360Y0057321D01*
X0181340Y0057358D01*
X0181324Y0057397D01*
X0181311Y0057437D01*
X0181302Y0057478D01*
X0181297Y0057520D01*
X0181295Y0057562D01*
X0181295Y0058368D01*
X0182261Y0058368D02*
X0182261Y0057079D01*
X0182583Y0057079D02*
X0182632Y0057081D01*
X0182681Y0057087D01*
X0182730Y0057096D01*
X0182777Y0057109D01*
X0182824Y0057126D01*
X0182869Y0057146D01*
X0182912Y0057169D01*
X0182954Y0057196D01*
X0182993Y0057226D01*
X0183030Y0057259D01*
X0183064Y0057295D01*
X0183095Y0057333D01*
X0183124Y0057373D01*
X0183149Y0057415D01*
X0183171Y0057460D01*
X0183189Y0057505D01*
X0183204Y0057552D01*
X0183215Y0057600D01*
X0183223Y0057649D01*
X0183227Y0057698D01*
X0183227Y0057748D01*
X0183223Y0057797D01*
X0183215Y0057846D01*
X0183204Y0057894D01*
X0183189Y0057941D01*
X0183171Y0057986D01*
X0183149Y0058031D01*
X0183124Y0058073D01*
X0183095Y0058113D01*
X0183064Y0058151D01*
X0183030Y0058187D01*
X0182993Y0058220D01*
X0182954Y0058250D01*
X0182912Y0058277D01*
X0182869Y0058300D01*
X0182824Y0058320D01*
X0182777Y0058337D01*
X0182730Y0058350D01*
X0182681Y0058359D01*
X0182632Y0058365D01*
X0182583Y0058367D01*
X0182583Y0058368D02*
X0182261Y0058368D01*
X0181295Y0059689D02*
X0183228Y0059689D01*
X0183228Y0060656D01*
X0182906Y0060656D01*
X0182020Y0063238D02*
X0182020Y0064688D01*
X0181295Y0064930D02*
X0184195Y0063963D01*
X0181295Y0062997D01*
X0179395Y0062602D02*
X0179395Y0063407D01*
X0179395Y0062602D02*
X0176495Y0062602D01*
X0177783Y0062602D02*
X0177783Y0063407D01*
X0177783Y0063569D02*
X0176495Y0064213D01*
X0176495Y0065558D02*
X0179395Y0065558D01*
X0176495Y0067169D01*
X0179395Y0067169D01*
X0179395Y0068636D02*
X0179395Y0069925D01*
X0179395Y0071132D02*
X0176495Y0071132D01*
X0176495Y0072421D01*
X0176495Y0073628D02*
X0176495Y0074917D01*
X0176495Y0075883D02*
X0176495Y0076044D01*
X0176656Y0076044D01*
X0176656Y0075883D01*
X0176495Y0075883D01*
X0176495Y0077276D02*
X0179395Y0077276D01*
X0179395Y0078565D01*
X0179395Y0079766D02*
X0179395Y0080571D01*
X0179395Y0079766D02*
X0176495Y0079766D01*
X0176495Y0080571D01*
X0176494Y0080571D02*
X0176496Y0080626D01*
X0176502Y0080681D01*
X0176511Y0080735D01*
X0176524Y0080788D01*
X0176541Y0080841D01*
X0176561Y0080892D01*
X0176584Y0080942D01*
X0176611Y0080990D01*
X0176642Y0081036D01*
X0176675Y0081080D01*
X0176711Y0081121D01*
X0176750Y0081160D01*
X0176791Y0081196D01*
X0176835Y0081229D01*
X0176881Y0081260D01*
X0176929Y0081287D01*
X0176979Y0081310D01*
X0177030Y0081330D01*
X0177083Y0081347D01*
X0177136Y0081360D01*
X0177190Y0081369D01*
X0177245Y0081375D01*
X0177300Y0081377D01*
X0178589Y0081377D01*
X0178644Y0081375D01*
X0178699Y0081369D01*
X0178753Y0081360D01*
X0178806Y0081347D01*
X0178859Y0081330D01*
X0178910Y0081310D01*
X0178960Y0081287D01*
X0179008Y0081260D01*
X0179054Y0081229D01*
X0179098Y0081196D01*
X0179139Y0081160D01*
X0179178Y0081121D01*
X0179214Y0081080D01*
X0179247Y0081036D01*
X0179278Y0080990D01*
X0179305Y0080942D01*
X0179328Y0080892D01*
X0179348Y0080841D01*
X0179365Y0080788D01*
X0179378Y0080735D01*
X0179387Y0080681D01*
X0179393Y0080626D01*
X0179395Y0080571D01*
X0179395Y0082838D02*
X0177300Y0082838D01*
X0177300Y0082837D02*
X0177245Y0082839D01*
X0177190Y0082845D01*
X0177136Y0082854D01*
X0177083Y0082867D01*
X0177030Y0082884D01*
X0176979Y0082904D01*
X0176929Y0082927D01*
X0176881Y0082954D01*
X0176835Y0082985D01*
X0176791Y0083018D01*
X0176750Y0083054D01*
X0176711Y0083093D01*
X0176675Y0083134D01*
X0176642Y0083178D01*
X0176611Y0083224D01*
X0176584Y0083272D01*
X0176561Y0083322D01*
X0176541Y0083373D01*
X0176524Y0083426D01*
X0176511Y0083479D01*
X0176502Y0083533D01*
X0176496Y0083588D01*
X0176494Y0083643D01*
X0176496Y0083698D01*
X0176502Y0083753D01*
X0176511Y0083807D01*
X0176524Y0083860D01*
X0176541Y0083913D01*
X0176561Y0083964D01*
X0176584Y0084014D01*
X0176611Y0084062D01*
X0176642Y0084108D01*
X0176675Y0084152D01*
X0176711Y0084193D01*
X0176750Y0084232D01*
X0176791Y0084268D01*
X0176835Y0084301D01*
X0176881Y0084332D01*
X0176929Y0084359D01*
X0176979Y0084382D01*
X0177030Y0084402D01*
X0177083Y0084419D01*
X0177136Y0084432D01*
X0177190Y0084441D01*
X0177245Y0084447D01*
X0177300Y0084449D01*
X0179395Y0084449D01*
X0178106Y0078243D02*
X0178106Y0077276D01*
X0176495Y0077276D02*
X0176495Y0078565D01*
X0176495Y0073628D02*
X0179395Y0073628D01*
X0181295Y0073282D02*
X0182745Y0073282D01*
X0182787Y0073280D01*
X0182829Y0073275D01*
X0182870Y0073266D01*
X0182910Y0073253D01*
X0182949Y0073237D01*
X0182987Y0073217D01*
X0183022Y0073195D01*
X0183055Y0073169D01*
X0183087Y0073141D01*
X0183115Y0073109D01*
X0183141Y0073076D01*
X0183163Y0073041D01*
X0183183Y0073003D01*
X0183199Y0072964D01*
X0183212Y0072924D01*
X0183221Y0072883D01*
X0183226Y0072841D01*
X0183228Y0072799D01*
X0183228Y0071349D01*
X0181295Y0071349D01*
X0181295Y0072315D02*
X0183228Y0072315D01*
X0182745Y0069872D02*
X0181295Y0069872D01*
X0181295Y0069147D01*
X0181294Y0069147D02*
X0181296Y0069100D01*
X0181302Y0069054D01*
X0181311Y0069009D01*
X0181325Y0068964D01*
X0181342Y0068920D01*
X0181362Y0068879D01*
X0181386Y0068839D01*
X0181413Y0068801D01*
X0181443Y0068765D01*
X0181476Y0068732D01*
X0181512Y0068702D01*
X0181550Y0068675D01*
X0181590Y0068651D01*
X0181631Y0068631D01*
X0181675Y0068614D01*
X0181720Y0068600D01*
X0181765Y0068591D01*
X0181811Y0068585D01*
X0181858Y0068583D01*
X0181905Y0068585D01*
X0181951Y0068591D01*
X0181996Y0068600D01*
X0182041Y0068614D01*
X0182085Y0068631D01*
X0182126Y0068651D01*
X0182166Y0068675D01*
X0182204Y0068702D01*
X0182240Y0068732D01*
X0182273Y0068765D01*
X0182303Y0068801D01*
X0182330Y0068839D01*
X0182354Y0068879D01*
X0182374Y0068920D01*
X0182391Y0068964D01*
X0182405Y0069009D01*
X0182414Y0069054D01*
X0182420Y0069100D01*
X0182422Y0069147D01*
X0182422Y0069872D01*
X0182745Y0069871D02*
X0182787Y0069869D01*
X0182829Y0069864D01*
X0182870Y0069855D01*
X0182910Y0069842D01*
X0182949Y0069826D01*
X0182987Y0069806D01*
X0183022Y0069784D01*
X0183055Y0069758D01*
X0183087Y0069730D01*
X0183115Y0069698D01*
X0183141Y0069665D01*
X0183163Y0069630D01*
X0183183Y0069592D01*
X0183199Y0069553D01*
X0183212Y0069513D01*
X0183221Y0069472D01*
X0183226Y0069430D01*
X0183228Y0069388D01*
X0183228Y0068744D01*
X0183228Y0067280D02*
X0183228Y0066474D01*
X0183226Y0066432D01*
X0183221Y0066390D01*
X0183212Y0066349D01*
X0183199Y0066309D01*
X0183183Y0066270D01*
X0183163Y0066233D01*
X0183141Y0066197D01*
X0183115Y0066164D01*
X0183087Y0066132D01*
X0183055Y0066104D01*
X0183022Y0066078D01*
X0182987Y0066056D01*
X0182949Y0066036D01*
X0182910Y0066020D01*
X0182870Y0066007D01*
X0182829Y0065998D01*
X0182787Y0065993D01*
X0182745Y0065991D01*
X0181778Y0065991D01*
X0181736Y0065993D01*
X0181694Y0065998D01*
X0181653Y0066007D01*
X0181613Y0066020D01*
X0181574Y0066036D01*
X0181537Y0066056D01*
X0181501Y0066078D01*
X0181468Y0066104D01*
X0181436Y0066132D01*
X0181408Y0066164D01*
X0181382Y0066197D01*
X0181360Y0066233D01*
X0181340Y0066270D01*
X0181324Y0066309D01*
X0181311Y0066349D01*
X0181302Y0066390D01*
X0181297Y0066432D01*
X0181295Y0066474D01*
X0181295Y0067280D01*
X0184195Y0067280D01*
X0179395Y0068636D02*
X0176495Y0068636D01*
X0176495Y0069925D01*
X0178106Y0069603D02*
X0178106Y0068636D01*
X0177783Y0063407D02*
X0177785Y0063462D01*
X0177791Y0063517D01*
X0177800Y0063571D01*
X0177813Y0063624D01*
X0177830Y0063677D01*
X0177850Y0063728D01*
X0177873Y0063778D01*
X0177900Y0063826D01*
X0177931Y0063872D01*
X0177964Y0063916D01*
X0178000Y0063957D01*
X0178039Y0063996D01*
X0178080Y0064032D01*
X0178124Y0064065D01*
X0178170Y0064096D01*
X0178218Y0064123D01*
X0178268Y0064146D01*
X0178319Y0064166D01*
X0178372Y0064183D01*
X0178425Y0064196D01*
X0178479Y0064205D01*
X0178534Y0064211D01*
X0178589Y0064213D01*
X0178644Y0064211D01*
X0178699Y0064205D01*
X0178753Y0064196D01*
X0178806Y0064183D01*
X0178859Y0064166D01*
X0178910Y0064146D01*
X0178960Y0064123D01*
X0179008Y0064096D01*
X0179054Y0064065D01*
X0179098Y0064032D01*
X0179139Y0063996D01*
X0179178Y0063957D01*
X0179214Y0063916D01*
X0179247Y0063872D01*
X0179278Y0063826D01*
X0179305Y0063778D01*
X0179328Y0063728D01*
X0179348Y0063677D01*
X0179365Y0063624D01*
X0179378Y0063571D01*
X0179387Y0063517D01*
X0179393Y0063462D01*
X0179395Y0063407D01*
X0178589Y0061217D02*
X0177300Y0061217D01*
X0177245Y0061215D01*
X0177190Y0061209D01*
X0177136Y0061200D01*
X0177083Y0061187D01*
X0177030Y0061170D01*
X0176979Y0061150D01*
X0176929Y0061127D01*
X0176881Y0061100D01*
X0176835Y0061069D01*
X0176791Y0061036D01*
X0176750Y0061000D01*
X0176711Y0060961D01*
X0176675Y0060920D01*
X0176642Y0060876D01*
X0176611Y0060830D01*
X0176584Y0060782D01*
X0176561Y0060732D01*
X0176541Y0060681D01*
X0176524Y0060628D01*
X0176511Y0060575D01*
X0176502Y0060521D01*
X0176496Y0060466D01*
X0176494Y0060411D01*
X0176496Y0060356D01*
X0176502Y0060301D01*
X0176511Y0060247D01*
X0176524Y0060194D01*
X0176541Y0060141D01*
X0176561Y0060090D01*
X0176584Y0060040D01*
X0176611Y0059992D01*
X0176642Y0059946D01*
X0176675Y0059902D01*
X0176711Y0059861D01*
X0176750Y0059822D01*
X0176791Y0059786D01*
X0176835Y0059753D01*
X0176881Y0059722D01*
X0176929Y0059695D01*
X0176979Y0059672D01*
X0177030Y0059652D01*
X0177083Y0059635D01*
X0177136Y0059622D01*
X0177190Y0059613D01*
X0177245Y0059607D01*
X0177300Y0059605D01*
X0177300Y0059606D02*
X0178589Y0059606D01*
X0178589Y0059605D02*
X0178644Y0059607D01*
X0178699Y0059613D01*
X0178753Y0059622D01*
X0178806Y0059635D01*
X0178859Y0059652D01*
X0178910Y0059672D01*
X0178960Y0059695D01*
X0179008Y0059722D01*
X0179054Y0059753D01*
X0179098Y0059786D01*
X0179139Y0059822D01*
X0179178Y0059861D01*
X0179214Y0059902D01*
X0179247Y0059946D01*
X0179278Y0059992D01*
X0179305Y0060040D01*
X0179328Y0060090D01*
X0179348Y0060141D01*
X0179365Y0060194D01*
X0179378Y0060247D01*
X0179387Y0060301D01*
X0179393Y0060356D01*
X0179395Y0060411D01*
X0179393Y0060466D01*
X0179387Y0060521D01*
X0179378Y0060575D01*
X0179365Y0060628D01*
X0179348Y0060681D01*
X0179328Y0060732D01*
X0179305Y0060782D01*
X0179278Y0060830D01*
X0179247Y0060876D01*
X0179214Y0060920D01*
X0179178Y0060961D01*
X0179139Y0061000D01*
X0179098Y0061036D01*
X0179054Y0061069D01*
X0179008Y0061100D01*
X0178960Y0061127D01*
X0178910Y0061150D01*
X0178859Y0061170D01*
X0178806Y0061187D01*
X0178753Y0061200D01*
X0178699Y0061209D01*
X0178644Y0061215D01*
X0178589Y0061217D01*
X0179395Y0058486D02*
X0179395Y0057841D01*
X0179394Y0057841D02*
X0179392Y0057793D01*
X0179387Y0057745D01*
X0179378Y0057698D01*
X0179365Y0057651D01*
X0179349Y0057606D01*
X0179330Y0057562D01*
X0179308Y0057519D01*
X0179282Y0057478D01*
X0179253Y0057439D01*
X0179222Y0057403D01*
X0179188Y0057369D01*
X0179152Y0057338D01*
X0179113Y0057309D01*
X0179072Y0057283D01*
X0179029Y0057261D01*
X0178985Y0057242D01*
X0178940Y0057226D01*
X0178893Y0057213D01*
X0178846Y0057204D01*
X0178798Y0057199D01*
X0178750Y0057197D01*
X0177139Y0057197D01*
X0177091Y0057199D01*
X0177043Y0057204D01*
X0176996Y0057213D01*
X0176949Y0057226D01*
X0176904Y0057242D01*
X0176860Y0057261D01*
X0176817Y0057283D01*
X0176776Y0057309D01*
X0176737Y0057338D01*
X0176701Y0057369D01*
X0176667Y0057403D01*
X0176636Y0057439D01*
X0176607Y0057478D01*
X0176581Y0057519D01*
X0176559Y0057562D01*
X0176540Y0057606D01*
X0176524Y0057651D01*
X0176511Y0057698D01*
X0176502Y0057745D01*
X0176497Y0057793D01*
X0176495Y0057841D01*
X0176495Y0058486D01*
X0181295Y0055973D02*
X0181295Y0055812D01*
X0181297Y0055770D01*
X0181302Y0055728D01*
X0181311Y0055687D01*
X0181324Y0055647D01*
X0181340Y0055608D01*
X0181360Y0055571D01*
X0181382Y0055535D01*
X0181408Y0055502D01*
X0181436Y0055470D01*
X0181468Y0055442D01*
X0181501Y0055416D01*
X0181537Y0055394D01*
X0181574Y0055374D01*
X0181613Y0055358D01*
X0181653Y0055345D01*
X0181694Y0055336D01*
X0181736Y0055331D01*
X0181778Y0055329D01*
X0182422Y0074888D02*
X0182100Y0075694D01*
X0182083Y0075731D01*
X0182063Y0075765D01*
X0182040Y0075798D01*
X0182014Y0075828D01*
X0181985Y0075856D01*
X0181954Y0075880D01*
X0181920Y0075902D01*
X0181884Y0075920D01*
X0181847Y0075935D01*
X0181809Y0075946D01*
X0181769Y0075953D01*
X0181729Y0075957D01*
X0181690Y0075956D01*
X0181650Y0075952D01*
X0181611Y0075944D01*
X0181572Y0075933D01*
X0181535Y0075918D01*
X0181500Y0075899D01*
X0181466Y0075877D01*
X0181435Y0075852D01*
X0181407Y0075824D01*
X0181381Y0075794D01*
X0181358Y0075761D01*
X0181338Y0075726D01*
X0181322Y0075690D01*
X0181309Y0075652D01*
X0181301Y0075613D01*
X0181295Y0075573D01*
X0181294Y0075533D01*
X0183067Y0075774D02*
X0183099Y0075698D01*
X0183128Y0075620D01*
X0183153Y0075541D01*
X0183175Y0075460D01*
X0183193Y0075379D01*
X0183207Y0075297D01*
X0183218Y0075215D01*
X0183225Y0075132D01*
X0183228Y0075049D01*
X0183228Y0075050D02*
X0183227Y0075010D01*
X0183221Y0074970D01*
X0183213Y0074931D01*
X0183200Y0074893D01*
X0183184Y0074857D01*
X0183164Y0074822D01*
X0183141Y0074789D01*
X0183115Y0074759D01*
X0183087Y0074731D01*
X0183056Y0074706D01*
X0183022Y0074684D01*
X0182987Y0074665D01*
X0182950Y0074650D01*
X0182911Y0074639D01*
X0182872Y0074631D01*
X0182832Y0074627D01*
X0182793Y0074626D01*
X0182753Y0074630D01*
X0182713Y0074637D01*
X0182675Y0074648D01*
X0182638Y0074663D01*
X0182602Y0074681D01*
X0182568Y0074703D01*
X0182537Y0074727D01*
X0182508Y0074755D01*
X0182482Y0074785D01*
X0182459Y0074818D01*
X0182439Y0074852D01*
X0182422Y0074889D01*
X0181456Y0074647D02*
X0181424Y0074742D01*
X0181395Y0074838D01*
X0181370Y0074936D01*
X0181349Y0075034D01*
X0181331Y0075133D01*
X0181316Y0075232D01*
X0181306Y0075332D01*
X0181299Y0075433D01*
X0181295Y0075533D01*
D12*
X0145764Y0047923D02*
X0145764Y0047683D01*
X0145805Y0043659D02*
X0145805Y0043419D01*
X0145846Y0039426D02*
X0145846Y0039186D01*
X0145850Y0035192D02*
X0145850Y0034952D01*
X0133717Y0034954D02*
X0133717Y0035194D01*
X0133762Y0039224D02*
X0133762Y0039464D01*
X0133797Y0043419D02*
X0133797Y0043659D01*
X0133837Y0047721D02*
X0133837Y0047961D01*
X0088757Y0093458D02*
X0088757Y0093699D01*
D13*
X0088877Y0093430D02*
X0088840Y0093428D01*
X0088804Y0093423D01*
X0088768Y0093414D01*
X0088733Y0093401D01*
X0088700Y0093386D01*
X0088669Y0093367D01*
X0088639Y0093345D01*
X0088612Y0093320D01*
X0088587Y0093293D01*
X0088565Y0093263D01*
X0088546Y0093232D01*
X0088531Y0093199D01*
X0088518Y0093164D01*
X0088509Y0093128D01*
X0088504Y0093092D01*
X0088502Y0093055D01*
X0088627Y0092763D02*
X0089336Y0091930D01*
X0088502Y0091930D01*
X0089336Y0093096D02*
X0089322Y0093134D01*
X0089304Y0093171D01*
X0089284Y0093206D01*
X0089261Y0093239D01*
X0089235Y0093270D01*
X0089207Y0093299D01*
X0089177Y0093326D01*
X0089144Y0093349D01*
X0089109Y0093370D01*
X0089073Y0093388D01*
X0089036Y0093403D01*
X0088997Y0093415D01*
X0088957Y0093423D01*
X0088917Y0093428D01*
X0088877Y0093430D01*
X0088502Y0093055D02*
X0088504Y0093019D01*
X0088509Y0092983D01*
X0088517Y0092948D01*
X0088528Y0092913D01*
X0088542Y0092880D01*
X0088559Y0092848D01*
X0088579Y0092818D01*
X0088602Y0092789D01*
X0088627Y0092763D01*
X0089942Y0091930D02*
X0090776Y0091930D01*
X0090359Y0091930D02*
X0090359Y0093430D01*
X0090776Y0093096D01*
X0091791Y0093430D02*
X0091751Y0093428D01*
X0091712Y0093422D01*
X0091674Y0093413D01*
X0091636Y0093400D01*
X0091600Y0093384D01*
X0091566Y0093364D01*
X0091533Y0093341D01*
X0091503Y0093315D01*
X0091476Y0093286D01*
X0091451Y0093255D01*
X0091430Y0093222D01*
X0091412Y0093186D01*
X0091397Y0093149D01*
X0091386Y0093111D01*
X0091378Y0093072D01*
X0091374Y0093033D01*
X0091374Y0092993D01*
X0091378Y0092954D01*
X0091386Y0092915D01*
X0091397Y0092877D01*
X0091412Y0092840D01*
X0091430Y0092805D01*
X0091451Y0092771D01*
X0091476Y0092740D01*
X0091503Y0092711D01*
X0091533Y0092685D01*
X0091566Y0092662D01*
X0091600Y0092642D01*
X0091636Y0092626D01*
X0091674Y0092613D01*
X0091712Y0092604D01*
X0091751Y0092598D01*
X0091791Y0092596D01*
X0092207Y0092596D01*
X0091707Y0092596D02*
X0091374Y0091930D01*
X0092207Y0091930D02*
X0092207Y0093430D01*
X0091791Y0093430D01*
X0088784Y0090445D02*
X0088784Y0089612D01*
X0088782Y0089577D01*
X0088777Y0089543D01*
X0088768Y0089509D01*
X0088755Y0089477D01*
X0088739Y0089446D01*
X0088720Y0089416D01*
X0088698Y0089389D01*
X0088674Y0089365D01*
X0088647Y0089343D01*
X0088618Y0089324D01*
X0088586Y0089308D01*
X0088554Y0089295D01*
X0088520Y0089286D01*
X0088486Y0089281D01*
X0088451Y0089279D01*
X0088451Y0089278D02*
X0088118Y0089278D01*
X0087581Y0089278D02*
X0086747Y0089278D01*
X0087164Y0089278D02*
X0087164Y0090778D01*
X0087581Y0090445D01*
X0088118Y0090778D02*
X0088451Y0090778D01*
X0088486Y0090776D01*
X0088520Y0090771D01*
X0088554Y0090762D01*
X0088586Y0090749D01*
X0088618Y0090733D01*
X0088647Y0090714D01*
X0088674Y0090692D01*
X0088698Y0090668D01*
X0088720Y0090641D01*
X0088739Y0090611D01*
X0088755Y0090580D01*
X0088768Y0090548D01*
X0088777Y0090514D01*
X0088782Y0090480D01*
X0088784Y0090445D01*
X0086057Y0090445D02*
X0086055Y0090410D01*
X0086050Y0090376D01*
X0086041Y0090342D01*
X0086028Y0090310D01*
X0086012Y0090279D01*
X0085993Y0090249D01*
X0085971Y0090222D01*
X0085947Y0090198D01*
X0085920Y0090176D01*
X0085891Y0090157D01*
X0085859Y0090141D01*
X0085827Y0090128D01*
X0085793Y0090119D01*
X0085759Y0090114D01*
X0085724Y0090112D01*
X0085689Y0090114D01*
X0085655Y0090119D01*
X0085621Y0090128D01*
X0085589Y0090141D01*
X0085558Y0090157D01*
X0085528Y0090176D01*
X0085501Y0090198D01*
X0085477Y0090222D01*
X0085455Y0090249D01*
X0085436Y0090279D01*
X0085420Y0090310D01*
X0085407Y0090342D01*
X0085398Y0090376D01*
X0085393Y0090410D01*
X0085391Y0090445D01*
X0085393Y0090480D01*
X0085398Y0090514D01*
X0085407Y0090548D01*
X0085420Y0090580D01*
X0085436Y0090612D01*
X0085455Y0090641D01*
X0085477Y0090668D01*
X0085501Y0090692D01*
X0085528Y0090714D01*
X0085558Y0090733D01*
X0085589Y0090749D01*
X0085621Y0090762D01*
X0085655Y0090771D01*
X0085689Y0090776D01*
X0085724Y0090778D01*
X0085759Y0090776D01*
X0085793Y0090771D01*
X0085827Y0090762D01*
X0085859Y0090749D01*
X0085891Y0090733D01*
X0085920Y0090714D01*
X0085947Y0090692D01*
X0085971Y0090668D01*
X0085993Y0090641D01*
X0086012Y0090612D01*
X0086028Y0090580D01*
X0086041Y0090548D01*
X0086050Y0090514D01*
X0086055Y0090480D01*
X0086057Y0090445D01*
X0086141Y0089695D02*
X0086139Y0089655D01*
X0086133Y0089616D01*
X0086124Y0089578D01*
X0086111Y0089540D01*
X0086095Y0089504D01*
X0086075Y0089470D01*
X0086052Y0089437D01*
X0086026Y0089407D01*
X0085997Y0089380D01*
X0085966Y0089355D01*
X0085933Y0089334D01*
X0085897Y0089316D01*
X0085860Y0089301D01*
X0085822Y0089290D01*
X0085783Y0089282D01*
X0085744Y0089278D01*
X0085704Y0089278D01*
X0085665Y0089282D01*
X0085626Y0089290D01*
X0085588Y0089301D01*
X0085551Y0089316D01*
X0085516Y0089334D01*
X0085482Y0089355D01*
X0085451Y0089380D01*
X0085422Y0089407D01*
X0085396Y0089437D01*
X0085373Y0089470D01*
X0085353Y0089504D01*
X0085337Y0089540D01*
X0085324Y0089578D01*
X0085315Y0089616D01*
X0085309Y0089655D01*
X0085307Y0089695D01*
X0085309Y0089735D01*
X0085315Y0089774D01*
X0085324Y0089812D01*
X0085337Y0089850D01*
X0085353Y0089886D01*
X0085373Y0089920D01*
X0085396Y0089953D01*
X0085422Y0089983D01*
X0085451Y0090010D01*
X0085482Y0090035D01*
X0085516Y0090056D01*
X0085551Y0090074D01*
X0085588Y0090089D01*
X0085626Y0090100D01*
X0085665Y0090108D01*
X0085704Y0090112D01*
X0085744Y0090112D01*
X0085783Y0090108D01*
X0085822Y0090100D01*
X0085860Y0090089D01*
X0085897Y0090074D01*
X0085933Y0090056D01*
X0085966Y0090035D01*
X0085997Y0090010D01*
X0086026Y0089983D01*
X0086052Y0089953D01*
X0086075Y0089920D01*
X0086095Y0089886D01*
X0086111Y0089850D01*
X0086124Y0089812D01*
X0086133Y0089774D01*
X0086139Y0089735D01*
X0086141Y0089695D01*
X0098858Y0098054D02*
X0098858Y0098720D01*
X0098858Y0099302D02*
X0100358Y0099302D01*
X0100358Y0099968D01*
X0100358Y0100547D02*
X0100358Y0100964D01*
X0100358Y0100547D02*
X0098858Y0100547D01*
X0098858Y0100964D01*
X0098857Y0100964D02*
X0098859Y0101002D01*
X0098864Y0101041D01*
X0098873Y0101078D01*
X0098885Y0101115D01*
X0098901Y0101150D01*
X0098919Y0101184D01*
X0098941Y0101215D01*
X0098966Y0101245D01*
X0098993Y0101272D01*
X0099023Y0101297D01*
X0099054Y0101319D01*
X0099088Y0101337D01*
X0099123Y0101353D01*
X0099160Y0101365D01*
X0099197Y0101374D01*
X0099236Y0101379D01*
X0099274Y0101381D01*
X0099274Y0101380D02*
X0099941Y0101380D01*
X0099941Y0101381D02*
X0099979Y0101379D01*
X0100018Y0101374D01*
X0100055Y0101365D01*
X0100092Y0101353D01*
X0100127Y0101337D01*
X0100161Y0101319D01*
X0100192Y0101297D01*
X0100222Y0101272D01*
X0100249Y0101245D01*
X0100274Y0101215D01*
X0100296Y0101184D01*
X0100314Y0101150D01*
X0100330Y0101115D01*
X0100342Y0101078D01*
X0100351Y0101041D01*
X0100356Y0101002D01*
X0100358Y0100964D01*
X0100358Y0102035D02*
X0100358Y0102535D01*
X0100357Y0102535D02*
X0100355Y0102570D01*
X0100350Y0102604D01*
X0100341Y0102638D01*
X0100328Y0102670D01*
X0100312Y0102702D01*
X0100293Y0102731D01*
X0100271Y0102758D01*
X0100247Y0102782D01*
X0100220Y0102804D01*
X0100191Y0102823D01*
X0100159Y0102839D01*
X0100127Y0102852D01*
X0100093Y0102861D01*
X0100059Y0102866D01*
X0100024Y0102868D01*
X0099989Y0102866D01*
X0099955Y0102861D01*
X0099921Y0102852D01*
X0099889Y0102839D01*
X0099858Y0102823D01*
X0099828Y0102804D01*
X0099801Y0102782D01*
X0099777Y0102758D01*
X0099755Y0102731D01*
X0099736Y0102702D01*
X0099720Y0102670D01*
X0099707Y0102638D01*
X0099698Y0102604D01*
X0099693Y0102570D01*
X0099691Y0102535D01*
X0099691Y0102202D01*
X0099691Y0102452D02*
X0099689Y0102492D01*
X0099683Y0102531D01*
X0099674Y0102569D01*
X0099661Y0102607D01*
X0099645Y0102643D01*
X0099625Y0102677D01*
X0099602Y0102710D01*
X0099576Y0102740D01*
X0099547Y0102767D01*
X0099516Y0102792D01*
X0099483Y0102813D01*
X0099447Y0102831D01*
X0099410Y0102846D01*
X0099372Y0102857D01*
X0099333Y0102865D01*
X0099294Y0102869D01*
X0099254Y0102869D01*
X0099215Y0102865D01*
X0099176Y0102857D01*
X0099138Y0102846D01*
X0099101Y0102831D01*
X0099066Y0102813D01*
X0099032Y0102792D01*
X0099001Y0102767D01*
X0098972Y0102740D01*
X0098946Y0102710D01*
X0098923Y0102677D01*
X0098903Y0102643D01*
X0098887Y0102607D01*
X0098874Y0102569D01*
X0098865Y0102531D01*
X0098859Y0102492D01*
X0098857Y0102452D01*
X0098858Y0102452D02*
X0098858Y0102035D01*
X0098858Y0099968D02*
X0098858Y0099302D01*
X0099691Y0099302D02*
X0099691Y0099802D01*
X0100358Y0098054D02*
X0098858Y0098054D01*
X0110857Y0092617D02*
X0110859Y0092585D01*
X0110864Y0092554D01*
X0110872Y0092523D01*
X0110883Y0092493D01*
X0110897Y0092465D01*
X0110914Y0092438D01*
X0110934Y0092413D01*
X0110956Y0092390D01*
X0110981Y0092370D01*
X0111007Y0092352D01*
X0111036Y0092338D01*
X0111065Y0092326D01*
X0111190Y0092284D02*
X0112024Y0092951D01*
X0112149Y0092908D02*
X0112178Y0092896D01*
X0112207Y0092882D01*
X0112233Y0092864D01*
X0112258Y0092844D01*
X0112280Y0092821D01*
X0112300Y0092796D01*
X0112317Y0092769D01*
X0112331Y0092741D01*
X0112342Y0092711D01*
X0112350Y0092680D01*
X0112355Y0092649D01*
X0112357Y0092617D01*
X0112355Y0092585D01*
X0112350Y0092554D01*
X0112342Y0092523D01*
X0112331Y0092493D01*
X0112317Y0092465D01*
X0112300Y0092438D01*
X0112280Y0092413D01*
X0112258Y0092390D01*
X0112233Y0092370D01*
X0112207Y0092352D01*
X0112178Y0092338D01*
X0112149Y0092326D01*
X0112149Y0092909D02*
X0112092Y0092935D01*
X0112034Y0092958D01*
X0111975Y0092978D01*
X0111915Y0092995D01*
X0111854Y0093009D01*
X0111793Y0093020D01*
X0111731Y0093028D01*
X0111669Y0093032D01*
X0111607Y0093034D01*
X0111607Y0092201D02*
X0111669Y0092203D01*
X0111731Y0092207D01*
X0111793Y0092215D01*
X0111854Y0092226D01*
X0111915Y0092240D01*
X0111975Y0092257D01*
X0112034Y0092277D01*
X0112092Y0092300D01*
X0112149Y0092326D01*
X0111607Y0093034D02*
X0111545Y0093032D01*
X0111483Y0093028D01*
X0111421Y0093020D01*
X0111360Y0093009D01*
X0111299Y0092995D01*
X0111239Y0092978D01*
X0111180Y0092958D01*
X0111122Y0092935D01*
X0111065Y0092909D01*
X0111065Y0092908D02*
X0111036Y0092896D01*
X0111007Y0092882D01*
X0110981Y0092864D01*
X0110956Y0092844D01*
X0110934Y0092821D01*
X0110914Y0092796D01*
X0110897Y0092769D01*
X0110883Y0092741D01*
X0110872Y0092711D01*
X0110864Y0092680D01*
X0110859Y0092649D01*
X0110857Y0092617D01*
X0110857Y0091594D02*
X0110857Y0090761D01*
X0110857Y0091177D02*
X0112357Y0091177D01*
X0112024Y0090761D01*
X0112357Y0089746D02*
X0112355Y0089786D01*
X0112349Y0089825D01*
X0112340Y0089863D01*
X0112327Y0089901D01*
X0112311Y0089937D01*
X0112291Y0089971D01*
X0112268Y0090004D01*
X0112242Y0090034D01*
X0112213Y0090061D01*
X0112182Y0090086D01*
X0112149Y0090107D01*
X0112113Y0090125D01*
X0112076Y0090140D01*
X0112038Y0090151D01*
X0111999Y0090159D01*
X0111960Y0090163D01*
X0111920Y0090163D01*
X0111881Y0090159D01*
X0111842Y0090151D01*
X0111804Y0090140D01*
X0111767Y0090125D01*
X0111732Y0090107D01*
X0111698Y0090086D01*
X0111667Y0090061D01*
X0111638Y0090034D01*
X0111612Y0090004D01*
X0111589Y0089971D01*
X0111569Y0089937D01*
X0111553Y0089901D01*
X0111540Y0089863D01*
X0111531Y0089825D01*
X0111525Y0089786D01*
X0111523Y0089746D01*
X0111524Y0089746D02*
X0111524Y0089329D01*
X0111524Y0089829D02*
X0110857Y0090162D01*
X0110857Y0089329D02*
X0112357Y0089329D01*
X0112357Y0089746D01*
X0115291Y0088574D02*
X0115291Y0087074D01*
X0115708Y0087074D02*
X0114874Y0087074D01*
X0115708Y0088240D02*
X0115291Y0088574D01*
X0116731Y0088574D02*
X0116731Y0087074D01*
X0117148Y0087074D02*
X0116314Y0087074D01*
X0117746Y0087074D02*
X0118079Y0087740D01*
X0118163Y0087740D02*
X0118579Y0087740D01*
X0118163Y0087740D02*
X0118123Y0087742D01*
X0118084Y0087748D01*
X0118046Y0087757D01*
X0118008Y0087770D01*
X0117972Y0087786D01*
X0117938Y0087806D01*
X0117905Y0087829D01*
X0117875Y0087855D01*
X0117848Y0087884D01*
X0117823Y0087915D01*
X0117802Y0087949D01*
X0117784Y0087984D01*
X0117769Y0088021D01*
X0117758Y0088059D01*
X0117750Y0088098D01*
X0117746Y0088137D01*
X0117746Y0088177D01*
X0117750Y0088216D01*
X0117758Y0088255D01*
X0117769Y0088293D01*
X0117784Y0088330D01*
X0117802Y0088366D01*
X0117823Y0088399D01*
X0117848Y0088430D01*
X0117875Y0088459D01*
X0117905Y0088485D01*
X0117938Y0088508D01*
X0117972Y0088528D01*
X0118008Y0088544D01*
X0118046Y0088557D01*
X0118084Y0088566D01*
X0118123Y0088572D01*
X0118163Y0088574D01*
X0118579Y0088574D01*
X0118579Y0087074D01*
X0117148Y0088240D02*
X0116731Y0088574D01*
X0111607Y0092201D02*
X0111545Y0092203D01*
X0111483Y0092207D01*
X0111421Y0092215D01*
X0111360Y0092226D01*
X0111299Y0092240D01*
X0111239Y0092257D01*
X0111180Y0092277D01*
X0111122Y0092300D01*
X0111065Y0092326D01*
X0131528Y0075755D02*
X0131528Y0075339D01*
X0132028Y0075339D01*
X0131527Y0075339D02*
X0131529Y0075289D01*
X0131534Y0075240D01*
X0131544Y0075191D01*
X0131557Y0075142D01*
X0131573Y0075095D01*
X0131593Y0075050D01*
X0131616Y0075005D01*
X0131643Y0074963D01*
X0131673Y0074923D01*
X0131705Y0074885D01*
X0131740Y0074850D01*
X0131778Y0074818D01*
X0131818Y0074788D01*
X0131861Y0074761D01*
X0131905Y0074738D01*
X0131950Y0074718D01*
X0131997Y0074702D01*
X0132046Y0074689D01*
X0132095Y0074679D01*
X0132144Y0074674D01*
X0132194Y0074672D01*
X0132968Y0074672D02*
X0133801Y0074672D01*
X0133384Y0074672D02*
X0133384Y0076172D01*
X0133801Y0075839D01*
X0134816Y0076172D02*
X0134776Y0076170D01*
X0134737Y0076164D01*
X0134699Y0076155D01*
X0134661Y0076142D01*
X0134625Y0076126D01*
X0134591Y0076106D01*
X0134558Y0076083D01*
X0134528Y0076057D01*
X0134501Y0076028D01*
X0134476Y0075997D01*
X0134455Y0075964D01*
X0134437Y0075928D01*
X0134422Y0075891D01*
X0134411Y0075853D01*
X0134403Y0075814D01*
X0134399Y0075775D01*
X0134399Y0075735D01*
X0134403Y0075696D01*
X0134411Y0075657D01*
X0134422Y0075619D01*
X0134437Y0075582D01*
X0134455Y0075547D01*
X0134476Y0075513D01*
X0134501Y0075482D01*
X0134528Y0075453D01*
X0134558Y0075427D01*
X0134591Y0075404D01*
X0134625Y0075384D01*
X0134661Y0075368D01*
X0134699Y0075355D01*
X0134737Y0075346D01*
X0134776Y0075340D01*
X0134816Y0075338D01*
X0134816Y0075339D02*
X0135233Y0075339D01*
X0134733Y0075339D02*
X0134400Y0074672D01*
X0135233Y0074672D02*
X0135233Y0076172D01*
X0134816Y0076172D01*
X0132361Y0075755D02*
X0132361Y0075672D01*
X0132359Y0075637D01*
X0132354Y0075603D01*
X0132345Y0075569D01*
X0132332Y0075537D01*
X0132316Y0075506D01*
X0132297Y0075476D01*
X0132275Y0075449D01*
X0132251Y0075425D01*
X0132224Y0075403D01*
X0132195Y0075384D01*
X0132163Y0075368D01*
X0132131Y0075355D01*
X0132097Y0075346D01*
X0132063Y0075341D01*
X0132028Y0075339D01*
X0132361Y0075755D02*
X0132359Y0075795D01*
X0132353Y0075834D01*
X0132344Y0075872D01*
X0132331Y0075910D01*
X0132315Y0075946D01*
X0132295Y0075980D01*
X0132272Y0076013D01*
X0132246Y0076043D01*
X0132217Y0076070D01*
X0132186Y0076095D01*
X0132153Y0076116D01*
X0132117Y0076134D01*
X0132080Y0076149D01*
X0132042Y0076160D01*
X0132003Y0076168D01*
X0131964Y0076172D01*
X0131924Y0076172D01*
X0131885Y0076168D01*
X0131846Y0076160D01*
X0131808Y0076149D01*
X0131771Y0076134D01*
X0131736Y0076116D01*
X0131702Y0076095D01*
X0131671Y0076070D01*
X0131642Y0076043D01*
X0131616Y0076013D01*
X0131593Y0075980D01*
X0131573Y0075946D01*
X0131557Y0075910D01*
X0131544Y0075872D01*
X0131535Y0075834D01*
X0131529Y0075795D01*
X0131527Y0075755D01*
X0130303Y0065683D02*
X0129886Y0065683D01*
X0130303Y0065683D02*
X0130303Y0064183D01*
X0130303Y0064850D02*
X0129886Y0064850D01*
X0129803Y0064850D02*
X0129469Y0064183D01*
X0128454Y0064183D02*
X0128038Y0065683D01*
X0128871Y0065683D01*
X0128871Y0065516D01*
X0129886Y0065683D02*
X0129846Y0065681D01*
X0129807Y0065675D01*
X0129769Y0065666D01*
X0129731Y0065653D01*
X0129695Y0065637D01*
X0129661Y0065617D01*
X0129628Y0065594D01*
X0129598Y0065568D01*
X0129571Y0065539D01*
X0129546Y0065508D01*
X0129525Y0065475D01*
X0129507Y0065439D01*
X0129492Y0065402D01*
X0129481Y0065364D01*
X0129473Y0065325D01*
X0129469Y0065286D01*
X0129469Y0065246D01*
X0129473Y0065207D01*
X0129481Y0065168D01*
X0129492Y0065130D01*
X0129507Y0065093D01*
X0129525Y0065058D01*
X0129546Y0065024D01*
X0129571Y0064993D01*
X0129598Y0064964D01*
X0129628Y0064938D01*
X0129661Y0064915D01*
X0129695Y0064895D01*
X0129731Y0064879D01*
X0129769Y0064866D01*
X0129807Y0064857D01*
X0129846Y0064851D01*
X0129886Y0064849D01*
X0137158Y0061035D02*
X0137158Y0060202D01*
X0137158Y0060618D02*
X0138658Y0060618D01*
X0138325Y0060202D01*
X0137783Y0059476D02*
X0138033Y0059018D01*
X0138658Y0059185D02*
X0138656Y0059230D01*
X0138652Y0059274D01*
X0138644Y0059318D01*
X0138633Y0059361D01*
X0138618Y0059404D01*
X0138601Y0059445D01*
X0138581Y0059485D01*
X0138559Y0059523D01*
X0138533Y0059560D01*
X0138033Y0059018D02*
X0138052Y0058989D01*
X0138075Y0058961D01*
X0138100Y0058937D01*
X0138127Y0058915D01*
X0138157Y0058896D01*
X0138188Y0058880D01*
X0138221Y0058867D01*
X0138255Y0058858D01*
X0138290Y0058853D01*
X0138325Y0058851D01*
X0138325Y0058852D02*
X0138360Y0058854D01*
X0138394Y0058859D01*
X0138428Y0058868D01*
X0138460Y0058881D01*
X0138492Y0058897D01*
X0138521Y0058916D01*
X0138548Y0058938D01*
X0138572Y0058962D01*
X0138594Y0058989D01*
X0138613Y0059019D01*
X0138629Y0059050D01*
X0138642Y0059082D01*
X0138651Y0059116D01*
X0138656Y0059150D01*
X0138658Y0059185D01*
X0137366Y0058810D02*
X0137332Y0058847D01*
X0137300Y0058886D01*
X0137271Y0058928D01*
X0137245Y0058971D01*
X0137222Y0059016D01*
X0137203Y0059063D01*
X0137187Y0059111D01*
X0137174Y0059160D01*
X0137165Y0059209D01*
X0137160Y0059260D01*
X0137158Y0059310D01*
X0137160Y0059345D01*
X0137165Y0059379D01*
X0137174Y0059413D01*
X0137187Y0059445D01*
X0137203Y0059477D01*
X0137222Y0059506D01*
X0137244Y0059533D01*
X0137268Y0059557D01*
X0137295Y0059579D01*
X0137325Y0059598D01*
X0137356Y0059614D01*
X0137388Y0059627D01*
X0137422Y0059636D01*
X0137456Y0059641D01*
X0137491Y0059643D01*
X0137526Y0059641D01*
X0137561Y0059636D01*
X0137595Y0059627D01*
X0137628Y0059614D01*
X0137659Y0059598D01*
X0137689Y0059579D01*
X0137716Y0059557D01*
X0137741Y0059533D01*
X0137764Y0059505D01*
X0137783Y0059476D01*
X0137158Y0058327D02*
X0137158Y0057660D01*
X0138658Y0057660D01*
X0132336Y0051656D02*
X0132003Y0051656D01*
X0132336Y0051656D02*
X0132371Y0051654D01*
X0132405Y0051649D01*
X0132439Y0051640D01*
X0132471Y0051627D01*
X0132503Y0051611D01*
X0132532Y0051592D01*
X0132559Y0051570D01*
X0132583Y0051546D01*
X0132605Y0051519D01*
X0132624Y0051489D01*
X0132640Y0051458D01*
X0132653Y0051426D01*
X0132662Y0051392D01*
X0132667Y0051358D01*
X0132669Y0051323D01*
X0132670Y0051323D02*
X0132670Y0050489D01*
X0132669Y0050489D02*
X0132667Y0050454D01*
X0132662Y0050420D01*
X0132653Y0050386D01*
X0132640Y0050354D01*
X0132624Y0050323D01*
X0132605Y0050293D01*
X0132583Y0050266D01*
X0132559Y0050242D01*
X0132532Y0050220D01*
X0132503Y0050201D01*
X0132471Y0050185D01*
X0132439Y0050172D01*
X0132405Y0050163D01*
X0132371Y0050158D01*
X0132336Y0050156D01*
X0132003Y0050156D01*
X0131466Y0050573D02*
X0131466Y0050989D01*
X0130966Y0050989D01*
X0131466Y0050989D02*
X0131464Y0051039D01*
X0131459Y0051088D01*
X0131449Y0051137D01*
X0131436Y0051186D01*
X0131420Y0051233D01*
X0131400Y0051278D01*
X0131377Y0051323D01*
X0131350Y0051365D01*
X0131320Y0051405D01*
X0131288Y0051443D01*
X0131253Y0051478D01*
X0131215Y0051510D01*
X0131175Y0051540D01*
X0131133Y0051567D01*
X0131088Y0051590D01*
X0131043Y0051610D01*
X0130996Y0051626D01*
X0130947Y0051639D01*
X0130898Y0051649D01*
X0130849Y0051654D01*
X0130799Y0051656D01*
X0130633Y0050656D02*
X0130633Y0050573D01*
X0130633Y0050656D02*
X0130635Y0050691D01*
X0130640Y0050725D01*
X0130649Y0050759D01*
X0130662Y0050791D01*
X0130678Y0050823D01*
X0130697Y0050852D01*
X0130719Y0050879D01*
X0130743Y0050903D01*
X0130770Y0050925D01*
X0130800Y0050944D01*
X0130831Y0050960D01*
X0130863Y0050973D01*
X0130897Y0050982D01*
X0130931Y0050987D01*
X0130966Y0050989D01*
X0130632Y0050573D02*
X0130634Y0050533D01*
X0130640Y0050494D01*
X0130649Y0050456D01*
X0130662Y0050418D01*
X0130678Y0050382D01*
X0130698Y0050348D01*
X0130721Y0050315D01*
X0130747Y0050285D01*
X0130776Y0050258D01*
X0130807Y0050233D01*
X0130841Y0050212D01*
X0130876Y0050194D01*
X0130913Y0050179D01*
X0130951Y0050168D01*
X0130990Y0050160D01*
X0131029Y0050156D01*
X0131069Y0050156D01*
X0131108Y0050160D01*
X0131147Y0050168D01*
X0131185Y0050179D01*
X0131222Y0050194D01*
X0131258Y0050212D01*
X0131291Y0050233D01*
X0131322Y0050258D01*
X0131351Y0050285D01*
X0131377Y0050315D01*
X0131400Y0050348D01*
X0131420Y0050382D01*
X0131436Y0050418D01*
X0131449Y0050456D01*
X0131458Y0050494D01*
X0131464Y0050533D01*
X0131466Y0050573D01*
X0129154Y0044835D02*
X0129154Y0044335D01*
X0129153Y0044835D02*
X0129151Y0044870D01*
X0129146Y0044904D01*
X0129137Y0044938D01*
X0129124Y0044970D01*
X0129108Y0045002D01*
X0129089Y0045031D01*
X0129067Y0045058D01*
X0129043Y0045082D01*
X0129016Y0045104D01*
X0128987Y0045123D01*
X0128955Y0045139D01*
X0128923Y0045152D01*
X0128889Y0045161D01*
X0128855Y0045166D01*
X0128820Y0045168D01*
X0128785Y0045166D01*
X0128751Y0045161D01*
X0128717Y0045152D01*
X0128685Y0045139D01*
X0128654Y0045123D01*
X0128624Y0045104D01*
X0128597Y0045082D01*
X0128573Y0045058D01*
X0128551Y0045031D01*
X0128532Y0045002D01*
X0128516Y0044970D01*
X0128503Y0044938D01*
X0128494Y0044904D01*
X0128489Y0044870D01*
X0128487Y0044835D01*
X0128487Y0044501D01*
X0128487Y0044751D02*
X0128485Y0044791D01*
X0128479Y0044830D01*
X0128470Y0044868D01*
X0128457Y0044906D01*
X0128441Y0044942D01*
X0128421Y0044976D01*
X0128398Y0045009D01*
X0128372Y0045039D01*
X0128343Y0045066D01*
X0128312Y0045091D01*
X0128279Y0045112D01*
X0128243Y0045130D01*
X0128206Y0045145D01*
X0128168Y0045156D01*
X0128129Y0045164D01*
X0128090Y0045168D01*
X0128050Y0045168D01*
X0128011Y0045164D01*
X0127972Y0045156D01*
X0127934Y0045145D01*
X0127897Y0045130D01*
X0127862Y0045112D01*
X0127828Y0045091D01*
X0127797Y0045066D01*
X0127768Y0045039D01*
X0127742Y0045009D01*
X0127719Y0044976D01*
X0127699Y0044942D01*
X0127683Y0044906D01*
X0127670Y0044868D01*
X0127661Y0044830D01*
X0127655Y0044791D01*
X0127653Y0044751D01*
X0127654Y0044751D02*
X0127654Y0044335D01*
X0127654Y0043728D02*
X0127654Y0042895D01*
X0127654Y0043311D02*
X0129154Y0043311D01*
X0128820Y0042895D01*
X0129154Y0042358D02*
X0129154Y0042024D01*
X0129153Y0042024D02*
X0129151Y0041989D01*
X0129146Y0041955D01*
X0129137Y0041921D01*
X0129124Y0041889D01*
X0129108Y0041857D01*
X0129089Y0041828D01*
X0129067Y0041801D01*
X0129043Y0041777D01*
X0129016Y0041755D01*
X0128986Y0041736D01*
X0128955Y0041720D01*
X0128923Y0041707D01*
X0128889Y0041698D01*
X0128855Y0041693D01*
X0128820Y0041691D01*
X0127987Y0041691D01*
X0127952Y0041693D01*
X0127918Y0041698D01*
X0127884Y0041707D01*
X0127852Y0041720D01*
X0127821Y0041736D01*
X0127791Y0041755D01*
X0127764Y0041777D01*
X0127740Y0041801D01*
X0127718Y0041828D01*
X0127699Y0041858D01*
X0127683Y0041889D01*
X0127670Y0041921D01*
X0127661Y0041955D01*
X0127656Y0041989D01*
X0127654Y0042024D01*
X0127654Y0042358D01*
X0128172Y0040688D02*
X0128172Y0039855D01*
X0129338Y0040188D01*
X0128505Y0040438D02*
X0127838Y0040438D01*
X0127838Y0039248D02*
X0127838Y0038415D01*
X0127838Y0038832D02*
X0129338Y0038832D01*
X0129005Y0038415D01*
X0129338Y0037878D02*
X0129338Y0037545D01*
X0129336Y0037510D01*
X0129331Y0037476D01*
X0129322Y0037442D01*
X0129309Y0037410D01*
X0129293Y0037378D01*
X0129274Y0037349D01*
X0129252Y0037322D01*
X0129228Y0037298D01*
X0129201Y0037276D01*
X0129171Y0037257D01*
X0129140Y0037241D01*
X0129108Y0037228D01*
X0129074Y0037219D01*
X0129040Y0037214D01*
X0129005Y0037212D01*
X0129005Y0037211D02*
X0128172Y0037211D01*
X0128172Y0037212D02*
X0128137Y0037214D01*
X0128103Y0037219D01*
X0128069Y0037228D01*
X0128037Y0037241D01*
X0128006Y0037257D01*
X0127976Y0037276D01*
X0127949Y0037298D01*
X0127925Y0037322D01*
X0127903Y0037349D01*
X0127884Y0037379D01*
X0127868Y0037410D01*
X0127855Y0037442D01*
X0127846Y0037476D01*
X0127841Y0037510D01*
X0127839Y0037545D01*
X0127838Y0037545D02*
X0127838Y0037878D01*
X0128321Y0035998D02*
X0128487Y0035998D01*
X0128522Y0035996D01*
X0128556Y0035991D01*
X0128590Y0035982D01*
X0128622Y0035969D01*
X0128654Y0035953D01*
X0128683Y0035934D01*
X0128710Y0035912D01*
X0128734Y0035888D01*
X0128756Y0035861D01*
X0128775Y0035832D01*
X0128791Y0035800D01*
X0128804Y0035768D01*
X0128813Y0035734D01*
X0128818Y0035700D01*
X0128820Y0035665D01*
X0128821Y0035665D02*
X0128821Y0035165D01*
X0129487Y0035165D01*
X0129487Y0035998D01*
X0128321Y0035998D02*
X0128286Y0035996D01*
X0128252Y0035991D01*
X0128218Y0035982D01*
X0128186Y0035969D01*
X0128155Y0035953D01*
X0128125Y0035934D01*
X0128098Y0035912D01*
X0128074Y0035888D01*
X0128052Y0035861D01*
X0128033Y0035832D01*
X0128017Y0035800D01*
X0128004Y0035768D01*
X0127995Y0035734D01*
X0127990Y0035700D01*
X0127988Y0035665D01*
X0127987Y0035665D02*
X0127987Y0035165D01*
X0127987Y0034558D02*
X0127987Y0033725D01*
X0127987Y0034142D02*
X0129487Y0034142D01*
X0129154Y0033725D01*
X0129487Y0033188D02*
X0129487Y0032855D01*
X0129485Y0032820D01*
X0129480Y0032786D01*
X0129471Y0032752D01*
X0129458Y0032720D01*
X0129442Y0032688D01*
X0129423Y0032659D01*
X0129401Y0032632D01*
X0129377Y0032608D01*
X0129350Y0032586D01*
X0129320Y0032567D01*
X0129289Y0032551D01*
X0129257Y0032538D01*
X0129223Y0032529D01*
X0129189Y0032524D01*
X0129154Y0032522D01*
X0129154Y0032521D02*
X0128321Y0032521D01*
X0128321Y0032522D02*
X0128286Y0032524D01*
X0128252Y0032529D01*
X0128218Y0032538D01*
X0128186Y0032551D01*
X0128155Y0032567D01*
X0128125Y0032586D01*
X0128098Y0032608D01*
X0128074Y0032632D01*
X0128052Y0032659D01*
X0128033Y0032689D01*
X0128017Y0032720D01*
X0128004Y0032752D01*
X0127995Y0032786D01*
X0127990Y0032820D01*
X0127988Y0032855D01*
X0127987Y0032855D02*
X0127987Y0033188D01*
X0138671Y0036196D02*
X0138671Y0036363D01*
X0138673Y0036398D01*
X0138678Y0036432D01*
X0138687Y0036466D01*
X0138700Y0036498D01*
X0138716Y0036530D01*
X0138735Y0036559D01*
X0138757Y0036586D01*
X0138781Y0036610D01*
X0138808Y0036632D01*
X0138838Y0036651D01*
X0138869Y0036667D01*
X0138901Y0036680D01*
X0138935Y0036689D01*
X0138969Y0036694D01*
X0139004Y0036696D01*
X0139504Y0036696D01*
X0139504Y0037363D01*
X0138671Y0037363D01*
X0138671Y0036196D02*
X0138673Y0036161D01*
X0138678Y0036127D01*
X0138687Y0036093D01*
X0138700Y0036061D01*
X0138716Y0036030D01*
X0138735Y0036000D01*
X0138757Y0035973D01*
X0138781Y0035949D01*
X0138808Y0035927D01*
X0138838Y0035908D01*
X0138869Y0035892D01*
X0138901Y0035879D01*
X0138935Y0035870D01*
X0138969Y0035865D01*
X0139004Y0035863D01*
X0139504Y0035863D01*
X0140042Y0035863D02*
X0140375Y0035863D01*
X0140410Y0035865D01*
X0140444Y0035870D01*
X0140478Y0035879D01*
X0140510Y0035892D01*
X0140542Y0035908D01*
X0140571Y0035927D01*
X0140598Y0035949D01*
X0140622Y0035973D01*
X0140644Y0036000D01*
X0140663Y0036030D01*
X0140679Y0036061D01*
X0140692Y0036093D01*
X0140701Y0036127D01*
X0140706Y0036161D01*
X0140708Y0036196D01*
X0140708Y0037029D01*
X0140706Y0037064D01*
X0140701Y0037098D01*
X0140692Y0037132D01*
X0140679Y0037164D01*
X0140663Y0037195D01*
X0140644Y0037225D01*
X0140622Y0037252D01*
X0140598Y0037276D01*
X0140571Y0037298D01*
X0140542Y0037317D01*
X0140510Y0037333D01*
X0140478Y0037346D01*
X0140444Y0037355D01*
X0140410Y0037360D01*
X0140375Y0037362D01*
X0140375Y0037363D02*
X0140042Y0037363D01*
X0140170Y0040309D02*
X0139837Y0040309D01*
X0140170Y0040309D02*
X0140205Y0040311D01*
X0140239Y0040316D01*
X0140273Y0040325D01*
X0140305Y0040338D01*
X0140337Y0040354D01*
X0140366Y0040373D01*
X0140393Y0040395D01*
X0140417Y0040419D01*
X0140439Y0040446D01*
X0140458Y0040476D01*
X0140474Y0040507D01*
X0140487Y0040539D01*
X0140496Y0040573D01*
X0140501Y0040607D01*
X0140503Y0040642D01*
X0140504Y0040642D02*
X0140504Y0041475D01*
X0140503Y0041475D02*
X0140501Y0041510D01*
X0140496Y0041544D01*
X0140487Y0041578D01*
X0140474Y0041610D01*
X0140458Y0041641D01*
X0140439Y0041671D01*
X0140417Y0041698D01*
X0140393Y0041722D01*
X0140366Y0041744D01*
X0140337Y0041763D01*
X0140305Y0041779D01*
X0140273Y0041792D01*
X0140239Y0041801D01*
X0140205Y0041806D01*
X0140170Y0041808D01*
X0140170Y0041809D02*
X0139837Y0041809D01*
X0138967Y0041809D02*
X0139300Y0040642D01*
X0138467Y0040642D01*
X0138717Y0040975D02*
X0138717Y0040309D01*
X0138908Y0044482D02*
X0139325Y0044482D01*
X0139862Y0044482D02*
X0140195Y0044482D01*
X0140230Y0044484D01*
X0140264Y0044489D01*
X0140298Y0044498D01*
X0140330Y0044511D01*
X0140362Y0044527D01*
X0140391Y0044546D01*
X0140418Y0044568D01*
X0140442Y0044592D01*
X0140464Y0044619D01*
X0140483Y0044649D01*
X0140499Y0044680D01*
X0140512Y0044712D01*
X0140521Y0044746D01*
X0140526Y0044780D01*
X0140528Y0044815D01*
X0140529Y0044815D02*
X0140529Y0045648D01*
X0140528Y0045648D02*
X0140526Y0045683D01*
X0140521Y0045717D01*
X0140512Y0045751D01*
X0140499Y0045783D01*
X0140483Y0045814D01*
X0140464Y0045844D01*
X0140442Y0045871D01*
X0140418Y0045895D01*
X0140391Y0045917D01*
X0140362Y0045936D01*
X0140330Y0045952D01*
X0140298Y0045965D01*
X0140264Y0045974D01*
X0140230Y0045979D01*
X0140195Y0045981D01*
X0140195Y0045982D02*
X0139862Y0045982D01*
X0139325Y0045982D02*
X0138825Y0045982D01*
X0138825Y0045981D02*
X0138790Y0045979D01*
X0138756Y0045974D01*
X0138722Y0045965D01*
X0138690Y0045952D01*
X0138659Y0045936D01*
X0138629Y0045917D01*
X0138602Y0045895D01*
X0138578Y0045871D01*
X0138556Y0045844D01*
X0138537Y0045815D01*
X0138521Y0045783D01*
X0138508Y0045751D01*
X0138499Y0045717D01*
X0138494Y0045683D01*
X0138492Y0045648D01*
X0138494Y0045613D01*
X0138499Y0045579D01*
X0138508Y0045545D01*
X0138521Y0045513D01*
X0138537Y0045482D01*
X0138556Y0045452D01*
X0138578Y0045425D01*
X0138602Y0045401D01*
X0138629Y0045379D01*
X0138659Y0045360D01*
X0138690Y0045344D01*
X0138722Y0045331D01*
X0138756Y0045322D01*
X0138790Y0045317D01*
X0138825Y0045315D01*
X0139158Y0045315D01*
X0138908Y0045315D02*
X0138868Y0045313D01*
X0138829Y0045307D01*
X0138791Y0045298D01*
X0138753Y0045285D01*
X0138717Y0045269D01*
X0138683Y0045249D01*
X0138650Y0045226D01*
X0138620Y0045200D01*
X0138593Y0045171D01*
X0138568Y0045140D01*
X0138547Y0045107D01*
X0138529Y0045071D01*
X0138514Y0045034D01*
X0138503Y0044996D01*
X0138495Y0044957D01*
X0138491Y0044918D01*
X0138491Y0044878D01*
X0138495Y0044839D01*
X0138503Y0044800D01*
X0138514Y0044762D01*
X0138529Y0044725D01*
X0138547Y0044690D01*
X0138568Y0044656D01*
X0138593Y0044625D01*
X0138620Y0044596D01*
X0138650Y0044570D01*
X0138683Y0044547D01*
X0138717Y0044527D01*
X0138753Y0044511D01*
X0138791Y0044498D01*
X0138829Y0044489D01*
X0138868Y0044483D01*
X0138908Y0044481D01*
X0144864Y0050058D02*
X0145697Y0050058D01*
X0144989Y0050891D01*
X0145239Y0051558D02*
X0145279Y0051556D01*
X0145319Y0051551D01*
X0145359Y0051543D01*
X0145398Y0051531D01*
X0145435Y0051516D01*
X0145471Y0051498D01*
X0145506Y0051477D01*
X0145539Y0051454D01*
X0145569Y0051427D01*
X0145597Y0051398D01*
X0145623Y0051367D01*
X0145646Y0051334D01*
X0145666Y0051299D01*
X0145684Y0051262D01*
X0145698Y0051224D01*
X0144989Y0050891D02*
X0144964Y0050917D01*
X0144941Y0050946D01*
X0144921Y0050976D01*
X0144904Y0051008D01*
X0144890Y0051041D01*
X0144879Y0051076D01*
X0144871Y0051111D01*
X0144866Y0051147D01*
X0144864Y0051183D01*
X0144866Y0051220D01*
X0144871Y0051256D01*
X0144880Y0051292D01*
X0144893Y0051327D01*
X0144908Y0051360D01*
X0144927Y0051391D01*
X0144949Y0051421D01*
X0144974Y0051448D01*
X0145001Y0051473D01*
X0145031Y0051495D01*
X0145062Y0051514D01*
X0145095Y0051529D01*
X0145130Y0051542D01*
X0145166Y0051551D01*
X0145202Y0051556D01*
X0145239Y0051558D01*
X0146234Y0051558D02*
X0146567Y0051558D01*
X0146602Y0051556D01*
X0146636Y0051551D01*
X0146670Y0051542D01*
X0146702Y0051529D01*
X0146734Y0051513D01*
X0146763Y0051494D01*
X0146790Y0051472D01*
X0146814Y0051448D01*
X0146836Y0051421D01*
X0146855Y0051391D01*
X0146871Y0051360D01*
X0146884Y0051328D01*
X0146893Y0051294D01*
X0146898Y0051260D01*
X0146900Y0051225D01*
X0146901Y0051225D02*
X0146901Y0050391D01*
X0146900Y0050391D02*
X0146898Y0050356D01*
X0146893Y0050322D01*
X0146884Y0050288D01*
X0146871Y0050256D01*
X0146855Y0050225D01*
X0146836Y0050195D01*
X0146814Y0050168D01*
X0146790Y0050144D01*
X0146763Y0050122D01*
X0146734Y0050103D01*
X0146702Y0050087D01*
X0146670Y0050074D01*
X0146636Y0050065D01*
X0146602Y0050060D01*
X0146567Y0050058D01*
X0146234Y0050058D01*
X0146002Y0073460D02*
X0145169Y0073460D01*
X0145134Y0073462D01*
X0145100Y0073467D01*
X0145066Y0073476D01*
X0145034Y0073489D01*
X0145003Y0073505D01*
X0144973Y0073524D01*
X0144946Y0073546D01*
X0144922Y0073570D01*
X0144900Y0073597D01*
X0144881Y0073627D01*
X0144865Y0073658D01*
X0144852Y0073690D01*
X0144843Y0073724D01*
X0144838Y0073758D01*
X0144836Y0073793D01*
X0144836Y0074127D01*
X0144836Y0074664D02*
X0144836Y0075497D01*
X0145169Y0076187D02*
X0146002Y0076854D01*
X0146127Y0076811D02*
X0146156Y0076799D01*
X0146185Y0076785D01*
X0146211Y0076767D01*
X0146236Y0076747D01*
X0146258Y0076724D01*
X0146278Y0076699D01*
X0146295Y0076672D01*
X0146309Y0076644D01*
X0146320Y0076614D01*
X0146328Y0076583D01*
X0146333Y0076552D01*
X0146335Y0076520D01*
X0146333Y0076488D01*
X0146328Y0076457D01*
X0146320Y0076426D01*
X0146309Y0076396D01*
X0146295Y0076368D01*
X0146278Y0076341D01*
X0146258Y0076316D01*
X0146236Y0076293D01*
X0146211Y0076273D01*
X0146185Y0076255D01*
X0146156Y0076241D01*
X0146127Y0076229D01*
X0146128Y0076812D02*
X0146071Y0076838D01*
X0146013Y0076861D01*
X0145954Y0076881D01*
X0145894Y0076898D01*
X0145833Y0076912D01*
X0145772Y0076923D01*
X0145710Y0076931D01*
X0145648Y0076935D01*
X0145586Y0076937D01*
X0145586Y0076104D02*
X0145648Y0076106D01*
X0145710Y0076110D01*
X0145772Y0076118D01*
X0145833Y0076129D01*
X0145894Y0076143D01*
X0145954Y0076160D01*
X0146013Y0076180D01*
X0146071Y0076203D01*
X0146128Y0076229D01*
X0145586Y0076937D02*
X0145524Y0076935D01*
X0145462Y0076931D01*
X0145400Y0076923D01*
X0145339Y0076912D01*
X0145278Y0076898D01*
X0145218Y0076881D01*
X0145159Y0076861D01*
X0145101Y0076838D01*
X0145044Y0076812D01*
X0144836Y0076520D02*
X0144838Y0076488D01*
X0144843Y0076457D01*
X0144851Y0076426D01*
X0144862Y0076396D01*
X0144876Y0076368D01*
X0144893Y0076341D01*
X0144913Y0076316D01*
X0144935Y0076293D01*
X0144960Y0076273D01*
X0144986Y0076255D01*
X0145015Y0076241D01*
X0145044Y0076229D01*
X0144836Y0076520D02*
X0144838Y0076552D01*
X0144843Y0076583D01*
X0144851Y0076614D01*
X0144862Y0076644D01*
X0144876Y0076672D01*
X0144893Y0076699D01*
X0144913Y0076724D01*
X0144935Y0076747D01*
X0144960Y0076767D01*
X0144986Y0076785D01*
X0145015Y0076799D01*
X0145044Y0076811D01*
X0145044Y0076229D02*
X0145101Y0076203D01*
X0145159Y0076180D01*
X0145218Y0076160D01*
X0145278Y0076143D01*
X0145339Y0076129D01*
X0145400Y0076118D01*
X0145462Y0076110D01*
X0145524Y0076106D01*
X0145586Y0076104D01*
X0145669Y0075372D02*
X0144836Y0074664D01*
X0146002Y0074663D02*
X0146040Y0074677D01*
X0146077Y0074695D01*
X0146112Y0074715D01*
X0146145Y0074738D01*
X0146176Y0074764D01*
X0146205Y0074792D01*
X0146232Y0074822D01*
X0146255Y0074855D01*
X0146276Y0074890D01*
X0146294Y0074926D01*
X0146309Y0074963D01*
X0146321Y0075002D01*
X0146329Y0075042D01*
X0146334Y0075082D01*
X0146336Y0075122D01*
X0146334Y0075159D01*
X0146329Y0075195D01*
X0146320Y0075231D01*
X0146307Y0075266D01*
X0146292Y0075299D01*
X0146273Y0075330D01*
X0146251Y0075360D01*
X0146226Y0075387D01*
X0146199Y0075412D01*
X0146169Y0075434D01*
X0146138Y0075453D01*
X0146105Y0075468D01*
X0146070Y0075481D01*
X0146034Y0075490D01*
X0145998Y0075495D01*
X0145961Y0075497D01*
X0145925Y0075495D01*
X0145889Y0075490D01*
X0145854Y0075482D01*
X0145819Y0075471D01*
X0145786Y0075457D01*
X0145754Y0075440D01*
X0145724Y0075420D01*
X0145695Y0075397D01*
X0145669Y0075372D01*
X0146336Y0074127D02*
X0146336Y0073793D01*
X0146335Y0073793D02*
X0146333Y0073758D01*
X0146328Y0073724D01*
X0146319Y0073690D01*
X0146306Y0073658D01*
X0146290Y0073626D01*
X0146271Y0073597D01*
X0146249Y0073570D01*
X0146225Y0073546D01*
X0146198Y0073524D01*
X0146168Y0073505D01*
X0146137Y0073489D01*
X0146105Y0073476D01*
X0146071Y0073467D01*
X0146037Y0073462D01*
X0146002Y0073460D01*
X0136100Y0097173D02*
X0134600Y0097173D01*
X0135267Y0097173D02*
X0135267Y0097590D01*
X0135267Y0097673D02*
X0134600Y0098007D01*
X0134600Y0098605D02*
X0134600Y0099439D01*
X0134933Y0100129D02*
X0135767Y0100795D01*
X0135892Y0100753D02*
X0135921Y0100741D01*
X0135950Y0100727D01*
X0135976Y0100709D01*
X0136001Y0100689D01*
X0136023Y0100666D01*
X0136043Y0100641D01*
X0136060Y0100614D01*
X0136074Y0100586D01*
X0136085Y0100556D01*
X0136093Y0100525D01*
X0136098Y0100494D01*
X0136100Y0100462D01*
X0136098Y0100430D01*
X0136093Y0100399D01*
X0136085Y0100368D01*
X0136074Y0100338D01*
X0136060Y0100310D01*
X0136043Y0100283D01*
X0136023Y0100258D01*
X0136001Y0100235D01*
X0135976Y0100215D01*
X0135950Y0100197D01*
X0135921Y0100183D01*
X0135892Y0100171D01*
X0135892Y0100753D02*
X0135835Y0100779D01*
X0135777Y0100802D01*
X0135718Y0100822D01*
X0135658Y0100839D01*
X0135597Y0100853D01*
X0135536Y0100864D01*
X0135474Y0100872D01*
X0135412Y0100876D01*
X0135350Y0100878D01*
X0135350Y0100045D02*
X0135412Y0100047D01*
X0135474Y0100051D01*
X0135536Y0100059D01*
X0135597Y0100070D01*
X0135658Y0100084D01*
X0135718Y0100101D01*
X0135777Y0100121D01*
X0135835Y0100144D01*
X0135892Y0100170D01*
X0135350Y0100878D02*
X0135288Y0100876D01*
X0135226Y0100872D01*
X0135164Y0100864D01*
X0135103Y0100853D01*
X0135042Y0100839D01*
X0134982Y0100822D01*
X0134923Y0100802D01*
X0134865Y0100779D01*
X0134808Y0100753D01*
X0134779Y0100741D01*
X0134750Y0100727D01*
X0134724Y0100709D01*
X0134699Y0100689D01*
X0134677Y0100666D01*
X0134657Y0100641D01*
X0134640Y0100614D01*
X0134626Y0100586D01*
X0134615Y0100556D01*
X0134607Y0100525D01*
X0134602Y0100494D01*
X0134600Y0100462D01*
X0134602Y0100430D01*
X0134607Y0100399D01*
X0134615Y0100368D01*
X0134626Y0100338D01*
X0134640Y0100310D01*
X0134657Y0100283D01*
X0134677Y0100258D01*
X0134699Y0100235D01*
X0134724Y0100215D01*
X0134750Y0100197D01*
X0134779Y0100183D01*
X0134808Y0100171D01*
X0135433Y0099314D02*
X0134600Y0098605D01*
X0135766Y0098605D02*
X0135804Y0098619D01*
X0135841Y0098637D01*
X0135876Y0098657D01*
X0135909Y0098680D01*
X0135940Y0098706D01*
X0135969Y0098734D01*
X0135996Y0098764D01*
X0136019Y0098797D01*
X0136040Y0098832D01*
X0136058Y0098868D01*
X0136073Y0098905D01*
X0136085Y0098944D01*
X0136093Y0098984D01*
X0136098Y0099024D01*
X0136100Y0099064D01*
X0136098Y0099101D01*
X0136093Y0099137D01*
X0136084Y0099173D01*
X0136071Y0099208D01*
X0136056Y0099241D01*
X0136037Y0099272D01*
X0136015Y0099302D01*
X0135990Y0099329D01*
X0135963Y0099354D01*
X0135933Y0099376D01*
X0135902Y0099395D01*
X0135869Y0099410D01*
X0135834Y0099423D01*
X0135798Y0099432D01*
X0135762Y0099437D01*
X0135725Y0099439D01*
X0135689Y0099437D01*
X0135653Y0099432D01*
X0135618Y0099424D01*
X0135583Y0099413D01*
X0135550Y0099399D01*
X0135518Y0099382D01*
X0135488Y0099362D01*
X0135459Y0099339D01*
X0135433Y0099314D01*
X0135266Y0097590D02*
X0135268Y0097630D01*
X0135274Y0097669D01*
X0135283Y0097707D01*
X0135296Y0097745D01*
X0135312Y0097781D01*
X0135332Y0097815D01*
X0135355Y0097848D01*
X0135381Y0097878D01*
X0135410Y0097905D01*
X0135441Y0097930D01*
X0135475Y0097951D01*
X0135510Y0097969D01*
X0135547Y0097984D01*
X0135585Y0097995D01*
X0135624Y0098003D01*
X0135663Y0098007D01*
X0135703Y0098007D01*
X0135742Y0098003D01*
X0135781Y0097995D01*
X0135819Y0097984D01*
X0135856Y0097969D01*
X0135892Y0097951D01*
X0135925Y0097930D01*
X0135956Y0097905D01*
X0135985Y0097878D01*
X0136011Y0097848D01*
X0136034Y0097815D01*
X0136054Y0097781D01*
X0136070Y0097745D01*
X0136083Y0097707D01*
X0136092Y0097669D01*
X0136098Y0097630D01*
X0136100Y0097590D01*
X0136100Y0097173D01*
X0135350Y0100045D02*
X0135288Y0100047D01*
X0135226Y0100051D01*
X0135164Y0100059D01*
X0135103Y0100070D01*
X0135042Y0100084D01*
X0134982Y0100101D01*
X0134923Y0100121D01*
X0134865Y0100144D01*
X0134808Y0100170D01*
X0079331Y0073198D02*
X0079331Y0071698D01*
X0079331Y0072364D02*
X0078914Y0072364D01*
X0078831Y0072364D02*
X0078497Y0071698D01*
X0077732Y0071697D02*
X0077682Y0071699D01*
X0077633Y0071704D01*
X0077584Y0071714D01*
X0077535Y0071727D01*
X0077488Y0071743D01*
X0077443Y0071763D01*
X0077399Y0071786D01*
X0077356Y0071813D01*
X0077316Y0071843D01*
X0077278Y0071875D01*
X0077243Y0071910D01*
X0077211Y0071948D01*
X0077181Y0071988D01*
X0077154Y0072030D01*
X0077131Y0072075D01*
X0077111Y0072120D01*
X0077095Y0072167D01*
X0077082Y0072216D01*
X0077072Y0072265D01*
X0077067Y0072314D01*
X0077065Y0072364D01*
X0077066Y0072364D02*
X0077066Y0072781D01*
X0077065Y0072781D02*
X0077067Y0072821D01*
X0077073Y0072860D01*
X0077082Y0072898D01*
X0077095Y0072936D01*
X0077111Y0072972D01*
X0077131Y0073006D01*
X0077154Y0073039D01*
X0077180Y0073069D01*
X0077209Y0073096D01*
X0077240Y0073121D01*
X0077274Y0073142D01*
X0077309Y0073160D01*
X0077346Y0073175D01*
X0077384Y0073186D01*
X0077423Y0073194D01*
X0077462Y0073198D01*
X0077502Y0073198D01*
X0077541Y0073194D01*
X0077580Y0073186D01*
X0077618Y0073175D01*
X0077655Y0073160D01*
X0077691Y0073142D01*
X0077724Y0073121D01*
X0077755Y0073096D01*
X0077784Y0073069D01*
X0077810Y0073039D01*
X0077833Y0073006D01*
X0077853Y0072972D01*
X0077869Y0072936D01*
X0077882Y0072898D01*
X0077891Y0072860D01*
X0077897Y0072821D01*
X0077899Y0072781D01*
X0077899Y0072698D01*
X0077897Y0072663D01*
X0077892Y0072629D01*
X0077883Y0072595D01*
X0077870Y0072563D01*
X0077854Y0072532D01*
X0077835Y0072502D01*
X0077813Y0072475D01*
X0077789Y0072451D01*
X0077762Y0072429D01*
X0077733Y0072410D01*
X0077701Y0072394D01*
X0077669Y0072381D01*
X0077635Y0072372D01*
X0077601Y0072367D01*
X0077566Y0072365D01*
X0077566Y0072364D02*
X0077066Y0072364D01*
X0078914Y0072364D02*
X0078874Y0072366D01*
X0078835Y0072372D01*
X0078797Y0072381D01*
X0078759Y0072394D01*
X0078723Y0072410D01*
X0078689Y0072430D01*
X0078656Y0072453D01*
X0078626Y0072479D01*
X0078599Y0072508D01*
X0078574Y0072539D01*
X0078553Y0072573D01*
X0078535Y0072608D01*
X0078520Y0072645D01*
X0078509Y0072683D01*
X0078501Y0072722D01*
X0078497Y0072761D01*
X0078497Y0072801D01*
X0078501Y0072840D01*
X0078509Y0072879D01*
X0078520Y0072917D01*
X0078535Y0072954D01*
X0078553Y0072990D01*
X0078574Y0073023D01*
X0078599Y0073054D01*
X0078626Y0073083D01*
X0078656Y0073109D01*
X0078689Y0073132D01*
X0078723Y0073152D01*
X0078759Y0073168D01*
X0078797Y0073181D01*
X0078835Y0073190D01*
X0078874Y0073196D01*
X0078914Y0073198D01*
X0079331Y0073198D01*
X0125478Y0018064D02*
X0125978Y0018064D01*
X0125478Y0018064D02*
X0125443Y0018062D01*
X0125409Y0018057D01*
X0125375Y0018048D01*
X0125343Y0018035D01*
X0125312Y0018019D01*
X0125282Y0018000D01*
X0125255Y0017978D01*
X0125231Y0017954D01*
X0125209Y0017927D01*
X0125190Y0017898D01*
X0125174Y0017866D01*
X0125161Y0017834D01*
X0125152Y0017800D01*
X0125147Y0017766D01*
X0125145Y0017731D01*
X0125147Y0017696D01*
X0125152Y0017662D01*
X0125161Y0017628D01*
X0125174Y0017596D01*
X0125190Y0017565D01*
X0125209Y0017535D01*
X0125231Y0017508D01*
X0125255Y0017484D01*
X0125282Y0017462D01*
X0125312Y0017443D01*
X0125343Y0017427D01*
X0125375Y0017414D01*
X0125409Y0017405D01*
X0125443Y0017400D01*
X0125478Y0017398D01*
X0125811Y0017398D01*
X0125561Y0017398D02*
X0125521Y0017396D01*
X0125482Y0017390D01*
X0125444Y0017381D01*
X0125406Y0017368D01*
X0125370Y0017352D01*
X0125336Y0017332D01*
X0125303Y0017309D01*
X0125273Y0017283D01*
X0125246Y0017254D01*
X0125221Y0017223D01*
X0125200Y0017190D01*
X0125182Y0017154D01*
X0125167Y0017117D01*
X0125156Y0017079D01*
X0125148Y0017040D01*
X0125144Y0017001D01*
X0125144Y0016961D01*
X0125148Y0016922D01*
X0125156Y0016883D01*
X0125167Y0016845D01*
X0125182Y0016808D01*
X0125200Y0016773D01*
X0125221Y0016739D01*
X0125246Y0016708D01*
X0125273Y0016679D01*
X0125303Y0016653D01*
X0125336Y0016630D01*
X0125370Y0016610D01*
X0125406Y0016594D01*
X0125444Y0016581D01*
X0125482Y0016572D01*
X0125521Y0016566D01*
X0125561Y0016564D01*
X0125978Y0016564D01*
X0126509Y0016564D02*
X0127175Y0016564D01*
X0127175Y0018064D01*
D14*
X0147379Y0074051D02*
X0147379Y0076413D01*
X0152104Y0076413D02*
X0152104Y0074051D01*
D15*
X0155323Y0086831D02*
X0143906Y0086831D01*
X0143319Y0088008D02*
X0143319Y0099819D01*
X0143857Y0101338D02*
X0155274Y0101338D01*
X0155958Y0100015D02*
X0155958Y0088204D01*
X0156012Y0087129D02*
X0156014Y0087148D01*
X0156020Y0087167D01*
X0156029Y0087184D01*
X0156041Y0087199D01*
X0156056Y0087211D01*
X0156073Y0087220D01*
X0156092Y0087226D01*
X0156111Y0087228D01*
X0156130Y0087226D01*
X0156149Y0087220D01*
X0156166Y0087211D01*
X0156181Y0087199D01*
X0156193Y0087184D01*
X0156202Y0087167D01*
X0156208Y0087148D01*
X0156210Y0087129D01*
X0156208Y0087110D01*
X0156202Y0087091D01*
X0156193Y0087074D01*
X0156181Y0087059D01*
X0156166Y0087047D01*
X0156149Y0087038D01*
X0156130Y0087032D01*
X0156111Y0087030D01*
X0156092Y0087032D01*
X0156073Y0087038D01*
X0156056Y0087047D01*
X0156041Y0087059D01*
X0156029Y0087074D01*
X0156020Y0087091D01*
X0156014Y0087110D01*
X0156012Y0087129D01*
X0133305Y0089740D02*
X0127517Y0089740D01*
X0127517Y0095527D01*
X0133305Y0095527D01*
X0133305Y0089740D01*
X0127699Y0094937D02*
X0128025Y0095284D01*
X0122340Y0079956D02*
X0082970Y0079956D01*
X0082970Y0040586D01*
X0122340Y0040586D01*
X0122340Y0079956D01*
X0160765Y0016374D02*
X0160765Y0004563D01*
X0196198Y0004563D01*
X0196198Y0016374D01*
X0160765Y0016374D01*
X0168639Y0010468D02*
X0168641Y0010556D01*
X0168647Y0010644D01*
X0168657Y0010732D01*
X0168671Y0010820D01*
X0168688Y0010906D01*
X0168710Y0010992D01*
X0168735Y0011076D01*
X0168765Y0011160D01*
X0168797Y0011242D01*
X0168834Y0011322D01*
X0168874Y0011401D01*
X0168918Y0011478D01*
X0168965Y0011553D01*
X0169015Y0011625D01*
X0169069Y0011696D01*
X0169125Y0011763D01*
X0169185Y0011829D01*
X0169247Y0011891D01*
X0169313Y0011951D01*
X0169380Y0012007D01*
X0169451Y0012061D01*
X0169523Y0012111D01*
X0169598Y0012158D01*
X0169675Y0012202D01*
X0169754Y0012242D01*
X0169834Y0012279D01*
X0169916Y0012311D01*
X0170000Y0012341D01*
X0170084Y0012366D01*
X0170170Y0012388D01*
X0170256Y0012405D01*
X0170344Y0012419D01*
X0170432Y0012429D01*
X0170520Y0012435D01*
X0170608Y0012437D01*
X0170696Y0012435D01*
X0170784Y0012429D01*
X0170872Y0012419D01*
X0170960Y0012405D01*
X0171046Y0012388D01*
X0171132Y0012366D01*
X0171216Y0012341D01*
X0171300Y0012311D01*
X0171382Y0012279D01*
X0171462Y0012242D01*
X0171541Y0012202D01*
X0171618Y0012158D01*
X0171693Y0012111D01*
X0171765Y0012061D01*
X0171836Y0012007D01*
X0171903Y0011951D01*
X0171969Y0011891D01*
X0172031Y0011829D01*
X0172091Y0011763D01*
X0172147Y0011696D01*
X0172201Y0011625D01*
X0172251Y0011553D01*
X0172298Y0011478D01*
X0172342Y0011401D01*
X0172382Y0011322D01*
X0172419Y0011242D01*
X0172451Y0011160D01*
X0172481Y0011076D01*
X0172506Y0010992D01*
X0172528Y0010906D01*
X0172545Y0010820D01*
X0172559Y0010732D01*
X0172569Y0010644D01*
X0172575Y0010556D01*
X0172577Y0010468D01*
X0172575Y0010380D01*
X0172569Y0010292D01*
X0172559Y0010204D01*
X0172545Y0010116D01*
X0172528Y0010030D01*
X0172506Y0009944D01*
X0172481Y0009860D01*
X0172451Y0009776D01*
X0172419Y0009694D01*
X0172382Y0009614D01*
X0172342Y0009535D01*
X0172298Y0009458D01*
X0172251Y0009383D01*
X0172201Y0009311D01*
X0172147Y0009240D01*
X0172091Y0009173D01*
X0172031Y0009107D01*
X0171969Y0009045D01*
X0171903Y0008985D01*
X0171836Y0008929D01*
X0171765Y0008875D01*
X0171693Y0008825D01*
X0171618Y0008778D01*
X0171541Y0008734D01*
X0171462Y0008694D01*
X0171382Y0008657D01*
X0171300Y0008625D01*
X0171216Y0008595D01*
X0171132Y0008570D01*
X0171046Y0008548D01*
X0170960Y0008531D01*
X0170872Y0008517D01*
X0170784Y0008507D01*
X0170696Y0008501D01*
X0170608Y0008499D01*
X0170520Y0008501D01*
X0170432Y0008507D01*
X0170344Y0008517D01*
X0170256Y0008531D01*
X0170170Y0008548D01*
X0170084Y0008570D01*
X0170000Y0008595D01*
X0169916Y0008625D01*
X0169834Y0008657D01*
X0169754Y0008694D01*
X0169675Y0008734D01*
X0169598Y0008778D01*
X0169523Y0008825D01*
X0169451Y0008875D01*
X0169380Y0008929D01*
X0169313Y0008985D01*
X0169247Y0009045D01*
X0169185Y0009107D01*
X0169125Y0009173D01*
X0169069Y0009240D01*
X0169015Y0009311D01*
X0168965Y0009383D01*
X0168918Y0009458D01*
X0168874Y0009535D01*
X0168834Y0009614D01*
X0168797Y0009694D01*
X0168765Y0009776D01*
X0168735Y0009860D01*
X0168710Y0009944D01*
X0168688Y0010030D01*
X0168671Y0010116D01*
X0168657Y0010204D01*
X0168647Y0010292D01*
X0168641Y0010380D01*
X0168639Y0010468D01*
X0198102Y0109444D02*
X0001252Y0109444D01*
X0001252Y0186609D01*
X0198102Y0186609D01*
X0198102Y0109444D01*
D16*
X0135332Y0058500D02*
X0135332Y0058106D01*
X0133757Y0058106D01*
X0133757Y0058500D01*
X0135332Y0058500D01*
X0106356Y0099130D02*
X0106356Y0100941D01*
X0105135Y0101861D01*
X0106356Y0102752D02*
X0106356Y0100941D01*
X0106295Y0100841D02*
X0105135Y0100081D01*
X0083758Y0078382D02*
X0083760Y0078438D01*
X0083766Y0078493D01*
X0083776Y0078547D01*
X0083789Y0078601D01*
X0083807Y0078654D01*
X0083828Y0078705D01*
X0083852Y0078755D01*
X0083880Y0078803D01*
X0083912Y0078849D01*
X0083946Y0078893D01*
X0083984Y0078934D01*
X0084024Y0078972D01*
X0084067Y0079007D01*
X0084112Y0079039D01*
X0084160Y0079068D01*
X0084209Y0079094D01*
X0084260Y0079116D01*
X0084312Y0079134D01*
X0084366Y0079148D01*
X0084421Y0079159D01*
X0084476Y0079166D01*
X0084531Y0079169D01*
X0084587Y0079168D01*
X0084642Y0079163D01*
X0084697Y0079154D01*
X0084751Y0079142D01*
X0084804Y0079125D01*
X0084856Y0079105D01*
X0084906Y0079081D01*
X0084954Y0079054D01*
X0085001Y0079024D01*
X0085045Y0078990D01*
X0085087Y0078953D01*
X0085125Y0078913D01*
X0085162Y0078871D01*
X0085195Y0078826D01*
X0085224Y0078780D01*
X0085251Y0078731D01*
X0085273Y0078680D01*
X0085293Y0078628D01*
X0085308Y0078574D01*
X0085320Y0078520D01*
X0085328Y0078465D01*
X0085332Y0078410D01*
X0085332Y0078354D01*
X0085328Y0078299D01*
X0085320Y0078244D01*
X0085308Y0078190D01*
X0085293Y0078136D01*
X0085273Y0078084D01*
X0085251Y0078033D01*
X0085224Y0077984D01*
X0085195Y0077938D01*
X0085162Y0077893D01*
X0085125Y0077851D01*
X0085087Y0077811D01*
X0085045Y0077774D01*
X0085001Y0077740D01*
X0084954Y0077710D01*
X0084906Y0077683D01*
X0084856Y0077659D01*
X0084804Y0077639D01*
X0084751Y0077622D01*
X0084697Y0077610D01*
X0084642Y0077601D01*
X0084587Y0077596D01*
X0084531Y0077595D01*
X0084476Y0077598D01*
X0084421Y0077605D01*
X0084366Y0077616D01*
X0084312Y0077630D01*
X0084260Y0077648D01*
X0084209Y0077670D01*
X0084160Y0077696D01*
X0084112Y0077725D01*
X0084067Y0077757D01*
X0084024Y0077792D01*
X0083984Y0077830D01*
X0083946Y0077871D01*
X0083912Y0077915D01*
X0083880Y0077961D01*
X0083852Y0078009D01*
X0083828Y0078059D01*
X0083807Y0078110D01*
X0083789Y0078163D01*
X0083776Y0078217D01*
X0083766Y0078271D01*
X0083760Y0078326D01*
X0083758Y0078382D01*
D17*
X0088757Y0089130D03*
X0106120Y0091413D03*
X0118324Y0091374D03*
X0134978Y0078972D03*
D18*
X0138493Y0095495D03*
X0129230Y0059366D03*
X0077773Y0067200D03*
M02*
