G75*
%MOIN*%
%OFA0B0*%
%FSLAX25Y25*%
%IPPOS*%
%LPD*%
%AMOC8*
5,1,8,0,0,1.08239X$1,22.5*
%
%ADD10C,0.00000*%
%ADD11C,0.00100*%
%ADD12C,0.01600*%
%ADD13C,0.00600*%
%ADD14C,0.00500*%
%ADD15C,0.00800*%
%ADD16R,0.01600X0.02800*%
%ADD17R,0.02800X0.01600*%
%ADD18R,0.01800X0.03000*%
%ADD19R,0.03000X0.01800*%
%ADD20C,0.00400*%
D10*
X0001000Y0001649D02*
X0001000Y0198500D01*
X0197850Y0198500D01*
X0197850Y0001649D01*
X0001000Y0001649D01*
X0005726Y0103449D02*
X0005728Y0103642D01*
X0005735Y0103835D01*
X0005747Y0104028D01*
X0005764Y0104221D01*
X0005785Y0104413D01*
X0005811Y0104604D01*
X0005842Y0104795D01*
X0005877Y0104985D01*
X0005917Y0105174D01*
X0005962Y0105362D01*
X0006011Y0105549D01*
X0006065Y0105735D01*
X0006123Y0105919D01*
X0006186Y0106102D01*
X0006254Y0106283D01*
X0006325Y0106462D01*
X0006402Y0106640D01*
X0006482Y0106816D01*
X0006567Y0106989D01*
X0006656Y0107161D01*
X0006749Y0107330D01*
X0006846Y0107497D01*
X0006948Y0107662D01*
X0007053Y0107824D01*
X0007162Y0107983D01*
X0007276Y0108140D01*
X0007393Y0108293D01*
X0007513Y0108444D01*
X0007638Y0108592D01*
X0007766Y0108737D01*
X0007897Y0108878D01*
X0008032Y0109017D01*
X0008171Y0109152D01*
X0008312Y0109283D01*
X0008457Y0109411D01*
X0008605Y0109536D01*
X0008756Y0109656D01*
X0008909Y0109773D01*
X0009066Y0109887D01*
X0009225Y0109996D01*
X0009387Y0110101D01*
X0009552Y0110203D01*
X0009719Y0110300D01*
X0009888Y0110393D01*
X0010060Y0110482D01*
X0010233Y0110567D01*
X0010409Y0110647D01*
X0010587Y0110724D01*
X0010766Y0110795D01*
X0010947Y0110863D01*
X0011130Y0110926D01*
X0011314Y0110984D01*
X0011500Y0111038D01*
X0011687Y0111087D01*
X0011875Y0111132D01*
X0012064Y0111172D01*
X0012254Y0111207D01*
X0012445Y0111238D01*
X0012636Y0111264D01*
X0012828Y0111285D01*
X0013021Y0111302D01*
X0013214Y0111314D01*
X0013407Y0111321D01*
X0013600Y0111323D01*
X0013793Y0111321D01*
X0013986Y0111314D01*
X0014179Y0111302D01*
X0014372Y0111285D01*
X0014564Y0111264D01*
X0014755Y0111238D01*
X0014946Y0111207D01*
X0015136Y0111172D01*
X0015325Y0111132D01*
X0015513Y0111087D01*
X0015700Y0111038D01*
X0015886Y0110984D01*
X0016070Y0110926D01*
X0016253Y0110863D01*
X0016434Y0110795D01*
X0016613Y0110724D01*
X0016791Y0110647D01*
X0016967Y0110567D01*
X0017140Y0110482D01*
X0017312Y0110393D01*
X0017481Y0110300D01*
X0017648Y0110203D01*
X0017813Y0110101D01*
X0017975Y0109996D01*
X0018134Y0109887D01*
X0018291Y0109773D01*
X0018444Y0109656D01*
X0018595Y0109536D01*
X0018743Y0109411D01*
X0018888Y0109283D01*
X0019029Y0109152D01*
X0019168Y0109017D01*
X0019303Y0108878D01*
X0019434Y0108737D01*
X0019562Y0108592D01*
X0019687Y0108444D01*
X0019807Y0108293D01*
X0019924Y0108140D01*
X0020038Y0107983D01*
X0020147Y0107824D01*
X0020252Y0107662D01*
X0020354Y0107497D01*
X0020451Y0107330D01*
X0020544Y0107161D01*
X0020633Y0106989D01*
X0020718Y0106816D01*
X0020798Y0106640D01*
X0020875Y0106462D01*
X0020946Y0106283D01*
X0021014Y0106102D01*
X0021077Y0105919D01*
X0021135Y0105735D01*
X0021189Y0105549D01*
X0021238Y0105362D01*
X0021283Y0105174D01*
X0021323Y0104985D01*
X0021358Y0104795D01*
X0021389Y0104604D01*
X0021415Y0104413D01*
X0021436Y0104221D01*
X0021453Y0104028D01*
X0021465Y0103835D01*
X0021472Y0103642D01*
X0021474Y0103449D01*
X0021472Y0103256D01*
X0021465Y0103063D01*
X0021453Y0102870D01*
X0021436Y0102677D01*
X0021415Y0102485D01*
X0021389Y0102294D01*
X0021358Y0102103D01*
X0021323Y0101913D01*
X0021283Y0101724D01*
X0021238Y0101536D01*
X0021189Y0101349D01*
X0021135Y0101163D01*
X0021077Y0100979D01*
X0021014Y0100796D01*
X0020946Y0100615D01*
X0020875Y0100436D01*
X0020798Y0100258D01*
X0020718Y0100082D01*
X0020633Y0099909D01*
X0020544Y0099737D01*
X0020451Y0099568D01*
X0020354Y0099401D01*
X0020252Y0099236D01*
X0020147Y0099074D01*
X0020038Y0098915D01*
X0019924Y0098758D01*
X0019807Y0098605D01*
X0019687Y0098454D01*
X0019562Y0098306D01*
X0019434Y0098161D01*
X0019303Y0098020D01*
X0019168Y0097881D01*
X0019029Y0097746D01*
X0018888Y0097615D01*
X0018743Y0097487D01*
X0018595Y0097362D01*
X0018444Y0097242D01*
X0018291Y0097125D01*
X0018134Y0097011D01*
X0017975Y0096902D01*
X0017813Y0096797D01*
X0017648Y0096695D01*
X0017481Y0096598D01*
X0017312Y0096505D01*
X0017140Y0096416D01*
X0016967Y0096331D01*
X0016791Y0096251D01*
X0016613Y0096174D01*
X0016434Y0096103D01*
X0016253Y0096035D01*
X0016070Y0095972D01*
X0015886Y0095914D01*
X0015700Y0095860D01*
X0015513Y0095811D01*
X0015325Y0095766D01*
X0015136Y0095726D01*
X0014946Y0095691D01*
X0014755Y0095660D01*
X0014564Y0095634D01*
X0014372Y0095613D01*
X0014179Y0095596D01*
X0013986Y0095584D01*
X0013793Y0095577D01*
X0013600Y0095575D01*
X0013407Y0095577D01*
X0013214Y0095584D01*
X0013021Y0095596D01*
X0012828Y0095613D01*
X0012636Y0095634D01*
X0012445Y0095660D01*
X0012254Y0095691D01*
X0012064Y0095726D01*
X0011875Y0095766D01*
X0011687Y0095811D01*
X0011500Y0095860D01*
X0011314Y0095914D01*
X0011130Y0095972D01*
X0010947Y0096035D01*
X0010766Y0096103D01*
X0010587Y0096174D01*
X0010409Y0096251D01*
X0010233Y0096331D01*
X0010060Y0096416D01*
X0009888Y0096505D01*
X0009719Y0096598D01*
X0009552Y0096695D01*
X0009387Y0096797D01*
X0009225Y0096902D01*
X0009066Y0097011D01*
X0008909Y0097125D01*
X0008756Y0097242D01*
X0008605Y0097362D01*
X0008457Y0097487D01*
X0008312Y0097615D01*
X0008171Y0097746D01*
X0008032Y0097881D01*
X0007897Y0098020D01*
X0007766Y0098161D01*
X0007638Y0098306D01*
X0007513Y0098454D01*
X0007393Y0098605D01*
X0007276Y0098758D01*
X0007162Y0098915D01*
X0007053Y0099074D01*
X0006948Y0099236D01*
X0006846Y0099401D01*
X0006749Y0099568D01*
X0006656Y0099737D01*
X0006567Y0099909D01*
X0006482Y0100082D01*
X0006402Y0100258D01*
X0006325Y0100436D01*
X0006254Y0100615D01*
X0006186Y0100796D01*
X0006123Y0100979D01*
X0006065Y0101163D01*
X0006011Y0101349D01*
X0005962Y0101536D01*
X0005917Y0101724D01*
X0005877Y0101913D01*
X0005842Y0102103D01*
X0005811Y0102294D01*
X0005785Y0102485D01*
X0005764Y0102677D01*
X0005747Y0102870D01*
X0005735Y0103063D01*
X0005728Y0103256D01*
X0005726Y0103449D01*
D11*
X0061430Y0052973D02*
X0062263Y0052973D01*
X0061846Y0052973D02*
X0061846Y0054473D01*
X0062263Y0054139D01*
X0062995Y0053806D02*
X0063703Y0052973D01*
X0062870Y0052973D01*
X0063704Y0054139D02*
X0063690Y0054177D01*
X0063672Y0054214D01*
X0063652Y0054249D01*
X0063629Y0054282D01*
X0063603Y0054313D01*
X0063575Y0054342D01*
X0063545Y0054369D01*
X0063512Y0054392D01*
X0063477Y0054413D01*
X0063441Y0054431D01*
X0063404Y0054446D01*
X0063365Y0054458D01*
X0063325Y0054466D01*
X0063285Y0054471D01*
X0063245Y0054473D01*
X0063208Y0054471D01*
X0063172Y0054466D01*
X0063136Y0054457D01*
X0063101Y0054444D01*
X0063068Y0054429D01*
X0063037Y0054410D01*
X0063007Y0054388D01*
X0062980Y0054363D01*
X0062955Y0054336D01*
X0062933Y0054306D01*
X0062914Y0054275D01*
X0062899Y0054242D01*
X0062886Y0054207D01*
X0062877Y0054171D01*
X0062872Y0054135D01*
X0062870Y0054098D01*
X0062869Y0054098D02*
X0062871Y0054062D01*
X0062876Y0054026D01*
X0062884Y0053991D01*
X0062895Y0053956D01*
X0062909Y0053923D01*
X0062926Y0053891D01*
X0062946Y0053861D01*
X0062969Y0053832D01*
X0062994Y0053806D01*
X0064240Y0054473D02*
X0064573Y0054473D01*
X0064573Y0054472D02*
X0064608Y0054470D01*
X0064642Y0054465D01*
X0064676Y0054456D01*
X0064708Y0054443D01*
X0064740Y0054427D01*
X0064769Y0054408D01*
X0064796Y0054386D01*
X0064820Y0054362D01*
X0064842Y0054335D01*
X0064861Y0054305D01*
X0064877Y0054274D01*
X0064890Y0054242D01*
X0064899Y0054208D01*
X0064904Y0054174D01*
X0064906Y0054139D01*
X0064907Y0054139D02*
X0064907Y0053306D01*
X0064906Y0053306D02*
X0064904Y0053271D01*
X0064899Y0053237D01*
X0064890Y0053203D01*
X0064877Y0053171D01*
X0064861Y0053140D01*
X0064842Y0053110D01*
X0064820Y0053083D01*
X0064796Y0053059D01*
X0064769Y0053037D01*
X0064740Y0053018D01*
X0064708Y0053002D01*
X0064676Y0052989D01*
X0064642Y0052980D01*
X0064608Y0052975D01*
X0064573Y0052973D01*
X0064240Y0052973D01*
X0078102Y0071698D02*
X0078435Y0072364D01*
X0078519Y0072364D02*
X0078935Y0072364D01*
X0078519Y0072364D02*
X0078479Y0072366D01*
X0078440Y0072372D01*
X0078402Y0072381D01*
X0078364Y0072394D01*
X0078328Y0072410D01*
X0078294Y0072430D01*
X0078261Y0072453D01*
X0078231Y0072479D01*
X0078204Y0072508D01*
X0078179Y0072539D01*
X0078158Y0072573D01*
X0078140Y0072608D01*
X0078125Y0072645D01*
X0078114Y0072683D01*
X0078106Y0072722D01*
X0078102Y0072761D01*
X0078102Y0072801D01*
X0078106Y0072840D01*
X0078114Y0072879D01*
X0078125Y0072917D01*
X0078140Y0072954D01*
X0078158Y0072990D01*
X0078179Y0073023D01*
X0078204Y0073054D01*
X0078231Y0073083D01*
X0078261Y0073109D01*
X0078294Y0073132D01*
X0078328Y0073152D01*
X0078364Y0073168D01*
X0078402Y0073181D01*
X0078440Y0073190D01*
X0078479Y0073196D01*
X0078519Y0073198D01*
X0078935Y0073198D01*
X0078935Y0071698D01*
X0077337Y0071697D02*
X0077287Y0071699D01*
X0077238Y0071704D01*
X0077189Y0071714D01*
X0077140Y0071727D01*
X0077093Y0071743D01*
X0077048Y0071763D01*
X0077004Y0071786D01*
X0076961Y0071813D01*
X0076921Y0071843D01*
X0076883Y0071875D01*
X0076848Y0071910D01*
X0076816Y0071948D01*
X0076786Y0071988D01*
X0076759Y0072030D01*
X0076736Y0072075D01*
X0076716Y0072120D01*
X0076700Y0072167D01*
X0076687Y0072216D01*
X0076677Y0072265D01*
X0076672Y0072314D01*
X0076670Y0072364D01*
X0076670Y0072781D01*
X0076670Y0072364D02*
X0077170Y0072364D01*
X0077170Y0072365D02*
X0077205Y0072367D01*
X0077239Y0072372D01*
X0077273Y0072381D01*
X0077305Y0072394D01*
X0077337Y0072410D01*
X0077366Y0072429D01*
X0077393Y0072451D01*
X0077417Y0072475D01*
X0077439Y0072502D01*
X0077458Y0072532D01*
X0077474Y0072563D01*
X0077487Y0072595D01*
X0077496Y0072629D01*
X0077501Y0072663D01*
X0077503Y0072698D01*
X0077504Y0072698D02*
X0077504Y0072781D01*
X0077502Y0072821D01*
X0077496Y0072860D01*
X0077487Y0072898D01*
X0077474Y0072936D01*
X0077458Y0072972D01*
X0077438Y0073006D01*
X0077415Y0073039D01*
X0077389Y0073069D01*
X0077360Y0073096D01*
X0077329Y0073121D01*
X0077296Y0073142D01*
X0077260Y0073160D01*
X0077223Y0073175D01*
X0077185Y0073186D01*
X0077146Y0073194D01*
X0077107Y0073198D01*
X0077067Y0073198D01*
X0077028Y0073194D01*
X0076989Y0073186D01*
X0076951Y0073175D01*
X0076914Y0073160D01*
X0076879Y0073142D01*
X0076845Y0073121D01*
X0076814Y0073096D01*
X0076785Y0073069D01*
X0076759Y0073039D01*
X0076736Y0073006D01*
X0076716Y0072972D01*
X0076700Y0072936D01*
X0076687Y0072898D01*
X0076678Y0072860D01*
X0076672Y0072821D01*
X0076670Y0072781D01*
X0082982Y0087028D02*
X0083815Y0087028D01*
X0083815Y0087029D02*
X0083850Y0087031D01*
X0083884Y0087036D01*
X0083918Y0087045D01*
X0083950Y0087058D01*
X0083981Y0087074D01*
X0084011Y0087093D01*
X0084038Y0087115D01*
X0084062Y0087139D01*
X0084084Y0087166D01*
X0084103Y0087195D01*
X0084119Y0087227D01*
X0084132Y0087259D01*
X0084141Y0087293D01*
X0084146Y0087327D01*
X0084148Y0087362D01*
X0084149Y0087362D02*
X0084149Y0087695D01*
X0083815Y0088232D02*
X0084149Y0088649D01*
X0082649Y0088649D01*
X0082649Y0089065D02*
X0082649Y0088232D01*
X0082649Y0087695D02*
X0082649Y0087362D01*
X0082651Y0087327D01*
X0082656Y0087293D01*
X0082665Y0087259D01*
X0082678Y0087227D01*
X0082694Y0087196D01*
X0082713Y0087166D01*
X0082735Y0087139D01*
X0082759Y0087115D01*
X0082786Y0087093D01*
X0082816Y0087074D01*
X0082847Y0087058D01*
X0082879Y0087045D01*
X0082913Y0087036D01*
X0082947Y0087031D01*
X0082982Y0087029D01*
X0083065Y0089672D02*
X0083025Y0089674D01*
X0082986Y0089680D01*
X0082948Y0089689D01*
X0082910Y0089702D01*
X0082874Y0089718D01*
X0082840Y0089738D01*
X0082807Y0089761D01*
X0082777Y0089787D01*
X0082750Y0089816D01*
X0082725Y0089847D01*
X0082704Y0089881D01*
X0082686Y0089916D01*
X0082671Y0089953D01*
X0082660Y0089991D01*
X0082652Y0090030D01*
X0082648Y0090069D01*
X0082648Y0090109D01*
X0082652Y0090148D01*
X0082660Y0090187D01*
X0082671Y0090225D01*
X0082686Y0090262D01*
X0082704Y0090298D01*
X0082725Y0090331D01*
X0082750Y0090362D01*
X0082777Y0090391D01*
X0082807Y0090417D01*
X0082840Y0090440D01*
X0082874Y0090460D01*
X0082910Y0090476D01*
X0082948Y0090489D01*
X0082986Y0090498D01*
X0083025Y0090504D01*
X0083065Y0090506D01*
X0083105Y0090504D01*
X0083144Y0090498D01*
X0083182Y0090489D01*
X0083220Y0090476D01*
X0083256Y0090460D01*
X0083290Y0090440D01*
X0083323Y0090417D01*
X0083353Y0090391D01*
X0083380Y0090362D01*
X0083405Y0090331D01*
X0083426Y0090298D01*
X0083444Y0090262D01*
X0083459Y0090225D01*
X0083470Y0090187D01*
X0083478Y0090148D01*
X0083482Y0090109D01*
X0083482Y0090069D01*
X0083478Y0090030D01*
X0083470Y0089991D01*
X0083459Y0089953D01*
X0083444Y0089916D01*
X0083426Y0089881D01*
X0083405Y0089847D01*
X0083380Y0089816D01*
X0083353Y0089787D01*
X0083323Y0089761D01*
X0083290Y0089738D01*
X0083256Y0089718D01*
X0083220Y0089702D01*
X0083182Y0089689D01*
X0083144Y0089680D01*
X0083105Y0089674D01*
X0083065Y0089672D01*
X0083815Y0089756D02*
X0083780Y0089758D01*
X0083746Y0089763D01*
X0083712Y0089772D01*
X0083680Y0089785D01*
X0083649Y0089801D01*
X0083619Y0089820D01*
X0083592Y0089842D01*
X0083568Y0089866D01*
X0083546Y0089893D01*
X0083527Y0089923D01*
X0083511Y0089954D01*
X0083498Y0089986D01*
X0083489Y0090020D01*
X0083484Y0090054D01*
X0083482Y0090089D01*
X0083484Y0090124D01*
X0083489Y0090158D01*
X0083498Y0090192D01*
X0083511Y0090224D01*
X0083527Y0090256D01*
X0083546Y0090285D01*
X0083568Y0090312D01*
X0083592Y0090336D01*
X0083619Y0090358D01*
X0083649Y0090377D01*
X0083680Y0090393D01*
X0083712Y0090406D01*
X0083746Y0090415D01*
X0083780Y0090420D01*
X0083815Y0090422D01*
X0083850Y0090420D01*
X0083884Y0090415D01*
X0083918Y0090406D01*
X0083950Y0090393D01*
X0083982Y0090377D01*
X0084011Y0090358D01*
X0084038Y0090336D01*
X0084062Y0090312D01*
X0084084Y0090285D01*
X0084103Y0090256D01*
X0084119Y0090224D01*
X0084132Y0090192D01*
X0084141Y0090158D01*
X0084146Y0090124D01*
X0084148Y0090089D01*
X0084146Y0090054D01*
X0084141Y0090020D01*
X0084132Y0089986D01*
X0084119Y0089954D01*
X0084103Y0089923D01*
X0084084Y0089893D01*
X0084062Y0089866D01*
X0084038Y0089842D01*
X0084011Y0089820D01*
X0083982Y0089801D01*
X0083950Y0089785D01*
X0083918Y0089772D01*
X0083884Y0089763D01*
X0083850Y0089758D01*
X0083815Y0089756D01*
X0089102Y0095908D02*
X0089935Y0095908D01*
X0089227Y0096741D01*
X0089477Y0097408D02*
X0089517Y0097406D01*
X0089557Y0097401D01*
X0089597Y0097393D01*
X0089636Y0097381D01*
X0089673Y0097366D01*
X0089709Y0097348D01*
X0089744Y0097327D01*
X0089777Y0097304D01*
X0089807Y0097277D01*
X0089835Y0097248D01*
X0089861Y0097217D01*
X0089884Y0097184D01*
X0089904Y0097149D01*
X0089922Y0097112D01*
X0089936Y0097074D01*
X0089227Y0096741D02*
X0089202Y0096767D01*
X0089179Y0096796D01*
X0089159Y0096826D01*
X0089142Y0096858D01*
X0089128Y0096891D01*
X0089117Y0096926D01*
X0089109Y0096961D01*
X0089104Y0096997D01*
X0089102Y0097033D01*
X0089104Y0097070D01*
X0089109Y0097106D01*
X0089118Y0097142D01*
X0089131Y0097177D01*
X0089146Y0097210D01*
X0089165Y0097241D01*
X0089187Y0097271D01*
X0089212Y0097298D01*
X0089239Y0097323D01*
X0089269Y0097345D01*
X0089300Y0097364D01*
X0089333Y0097379D01*
X0089368Y0097392D01*
X0089404Y0097401D01*
X0089440Y0097406D01*
X0089477Y0097408D01*
X0090958Y0097408D02*
X0090958Y0095908D01*
X0090542Y0095908D02*
X0091375Y0095908D01*
X0091973Y0095908D02*
X0092307Y0096574D01*
X0092390Y0096574D02*
X0092807Y0096574D01*
X0092390Y0096574D02*
X0092350Y0096576D01*
X0092311Y0096582D01*
X0092273Y0096591D01*
X0092235Y0096604D01*
X0092199Y0096620D01*
X0092165Y0096640D01*
X0092132Y0096663D01*
X0092102Y0096689D01*
X0092075Y0096718D01*
X0092050Y0096749D01*
X0092029Y0096783D01*
X0092011Y0096818D01*
X0091996Y0096855D01*
X0091985Y0096893D01*
X0091977Y0096932D01*
X0091973Y0096971D01*
X0091973Y0097011D01*
X0091977Y0097050D01*
X0091985Y0097089D01*
X0091996Y0097127D01*
X0092011Y0097164D01*
X0092029Y0097200D01*
X0092050Y0097233D01*
X0092075Y0097264D01*
X0092102Y0097293D01*
X0092132Y0097319D01*
X0092165Y0097342D01*
X0092199Y0097362D01*
X0092235Y0097378D01*
X0092273Y0097391D01*
X0092311Y0097400D01*
X0092350Y0097406D01*
X0092390Y0097408D01*
X0092807Y0097408D01*
X0092807Y0095908D01*
X0091375Y0097074D02*
X0090958Y0097408D01*
X0100306Y0103026D02*
X0100723Y0103026D01*
X0100306Y0103025D02*
X0100266Y0103027D01*
X0100227Y0103033D01*
X0100189Y0103042D01*
X0100151Y0103055D01*
X0100115Y0103071D01*
X0100081Y0103091D01*
X0100048Y0103114D01*
X0100018Y0103140D01*
X0099991Y0103169D01*
X0099966Y0103200D01*
X0099945Y0103234D01*
X0099927Y0103269D01*
X0099912Y0103306D01*
X0099901Y0103344D01*
X0099893Y0103383D01*
X0099889Y0103422D01*
X0099889Y0103462D01*
X0099893Y0103501D01*
X0099901Y0103540D01*
X0099912Y0103578D01*
X0099927Y0103615D01*
X0099945Y0103651D01*
X0099966Y0103684D01*
X0099991Y0103715D01*
X0100018Y0103744D01*
X0100048Y0103770D01*
X0100081Y0103793D01*
X0100115Y0103813D01*
X0100151Y0103829D01*
X0100189Y0103842D01*
X0100227Y0103851D01*
X0100266Y0103857D01*
X0100306Y0103859D01*
X0100223Y0103859D02*
X0100556Y0103859D01*
X0100223Y0103859D02*
X0100188Y0103861D01*
X0100154Y0103866D01*
X0100120Y0103875D01*
X0100088Y0103888D01*
X0100057Y0103904D01*
X0100027Y0103923D01*
X0100000Y0103945D01*
X0099976Y0103969D01*
X0099954Y0103996D01*
X0099935Y0104026D01*
X0099919Y0104057D01*
X0099906Y0104089D01*
X0099897Y0104123D01*
X0099892Y0104157D01*
X0099890Y0104192D01*
X0099892Y0104227D01*
X0099897Y0104261D01*
X0099906Y0104295D01*
X0099919Y0104327D01*
X0099935Y0104359D01*
X0099954Y0104388D01*
X0099976Y0104415D01*
X0100000Y0104439D01*
X0100027Y0104461D01*
X0100057Y0104480D01*
X0100088Y0104496D01*
X0100120Y0104509D01*
X0100154Y0104518D01*
X0100188Y0104523D01*
X0100223Y0104525D01*
X0100223Y0104526D02*
X0100723Y0104526D01*
X0101378Y0104109D02*
X0101378Y0103442D01*
X0101377Y0103442D02*
X0101379Y0103404D01*
X0101384Y0103365D01*
X0101393Y0103328D01*
X0101405Y0103291D01*
X0101421Y0103256D01*
X0101439Y0103222D01*
X0101461Y0103191D01*
X0101486Y0103161D01*
X0101513Y0103134D01*
X0101543Y0103109D01*
X0101574Y0103087D01*
X0101608Y0103069D01*
X0101643Y0103053D01*
X0101680Y0103041D01*
X0101717Y0103032D01*
X0101756Y0103027D01*
X0101794Y0103025D01*
X0101794Y0103026D02*
X0102211Y0103026D01*
X0102211Y0104526D01*
X0101794Y0104526D01*
X0101756Y0104524D01*
X0101717Y0104519D01*
X0101680Y0104510D01*
X0101643Y0104498D01*
X0101608Y0104482D01*
X0101574Y0104464D01*
X0101543Y0104442D01*
X0101513Y0104417D01*
X0101486Y0104390D01*
X0101461Y0104360D01*
X0101439Y0104329D01*
X0101421Y0104295D01*
X0101405Y0104260D01*
X0101393Y0104223D01*
X0101384Y0104186D01*
X0101379Y0104147D01*
X0101377Y0104109D01*
X0102790Y0104526D02*
X0103457Y0104526D01*
X0103457Y0103026D01*
X0102790Y0103026D01*
X0102957Y0103859D02*
X0103457Y0103859D01*
X0104038Y0103026D02*
X0104705Y0103026D01*
X0104705Y0104526D01*
X0110670Y0092326D02*
X0110727Y0092300D01*
X0110785Y0092277D01*
X0110844Y0092257D01*
X0110904Y0092240D01*
X0110965Y0092226D01*
X0111026Y0092215D01*
X0111088Y0092207D01*
X0111150Y0092203D01*
X0111212Y0092201D01*
X0111212Y0093034D02*
X0111274Y0093032D01*
X0111336Y0093028D01*
X0111398Y0093020D01*
X0111459Y0093009D01*
X0111520Y0092995D01*
X0111580Y0092978D01*
X0111639Y0092958D01*
X0111697Y0092935D01*
X0111754Y0092909D01*
X0111629Y0092951D02*
X0110795Y0092284D01*
X0110462Y0092617D02*
X0110464Y0092649D01*
X0110469Y0092680D01*
X0110477Y0092711D01*
X0110488Y0092741D01*
X0110502Y0092769D01*
X0110519Y0092796D01*
X0110539Y0092821D01*
X0110561Y0092844D01*
X0110586Y0092864D01*
X0110612Y0092882D01*
X0110641Y0092896D01*
X0110670Y0092908D01*
X0110462Y0092617D02*
X0110464Y0092585D01*
X0110469Y0092554D01*
X0110477Y0092523D01*
X0110488Y0092493D01*
X0110502Y0092465D01*
X0110519Y0092438D01*
X0110539Y0092413D01*
X0110561Y0092390D01*
X0110586Y0092370D01*
X0110612Y0092352D01*
X0110641Y0092338D01*
X0110670Y0092326D01*
X0110670Y0092909D02*
X0110727Y0092935D01*
X0110785Y0092958D01*
X0110844Y0092978D01*
X0110904Y0092995D01*
X0110965Y0093009D01*
X0111026Y0093020D01*
X0111088Y0093028D01*
X0111150Y0093032D01*
X0111212Y0093034D01*
X0111212Y0092201D02*
X0111274Y0092203D01*
X0111336Y0092207D01*
X0111398Y0092215D01*
X0111459Y0092226D01*
X0111520Y0092240D01*
X0111580Y0092257D01*
X0111639Y0092277D01*
X0111697Y0092300D01*
X0111754Y0092326D01*
X0111783Y0092338D01*
X0111812Y0092352D01*
X0111838Y0092370D01*
X0111863Y0092390D01*
X0111885Y0092413D01*
X0111905Y0092438D01*
X0111922Y0092465D01*
X0111936Y0092493D01*
X0111947Y0092523D01*
X0111955Y0092554D01*
X0111960Y0092585D01*
X0111962Y0092617D01*
X0111960Y0092649D01*
X0111955Y0092680D01*
X0111947Y0092711D01*
X0111936Y0092741D01*
X0111922Y0092769D01*
X0111905Y0092796D01*
X0111885Y0092821D01*
X0111863Y0092844D01*
X0111838Y0092864D01*
X0111812Y0092882D01*
X0111783Y0092896D01*
X0111754Y0092908D01*
X0111962Y0091177D02*
X0110462Y0091177D01*
X0110462Y0090761D02*
X0110462Y0091594D01*
X0110462Y0090162D02*
X0111129Y0089829D01*
X0111129Y0089746D02*
X0111129Y0089329D01*
X0111128Y0089746D02*
X0111130Y0089786D01*
X0111136Y0089825D01*
X0111145Y0089863D01*
X0111158Y0089901D01*
X0111174Y0089937D01*
X0111194Y0089971D01*
X0111217Y0090004D01*
X0111243Y0090034D01*
X0111272Y0090061D01*
X0111303Y0090086D01*
X0111337Y0090107D01*
X0111372Y0090125D01*
X0111409Y0090140D01*
X0111447Y0090151D01*
X0111486Y0090159D01*
X0111525Y0090163D01*
X0111565Y0090163D01*
X0111604Y0090159D01*
X0111643Y0090151D01*
X0111681Y0090140D01*
X0111718Y0090125D01*
X0111754Y0090107D01*
X0111787Y0090086D01*
X0111818Y0090061D01*
X0111847Y0090034D01*
X0111873Y0090004D01*
X0111896Y0089971D01*
X0111916Y0089937D01*
X0111932Y0089901D01*
X0111945Y0089863D01*
X0111954Y0089825D01*
X0111960Y0089786D01*
X0111962Y0089746D01*
X0111962Y0089329D01*
X0110462Y0089329D01*
X0111629Y0090761D02*
X0111962Y0091177D01*
X0114896Y0088574D02*
X0114896Y0087074D01*
X0115312Y0087074D02*
X0114479Y0087074D01*
X0115312Y0088240D02*
X0114896Y0088574D01*
X0116336Y0088574D02*
X0116336Y0087074D01*
X0116752Y0087074D02*
X0115919Y0087074D01*
X0117351Y0087074D02*
X0117684Y0087740D01*
X0117768Y0087740D02*
X0118184Y0087740D01*
X0117768Y0087740D02*
X0117728Y0087742D01*
X0117689Y0087748D01*
X0117651Y0087757D01*
X0117613Y0087770D01*
X0117577Y0087786D01*
X0117543Y0087806D01*
X0117510Y0087829D01*
X0117480Y0087855D01*
X0117453Y0087884D01*
X0117428Y0087915D01*
X0117407Y0087949D01*
X0117389Y0087984D01*
X0117374Y0088021D01*
X0117363Y0088059D01*
X0117355Y0088098D01*
X0117351Y0088137D01*
X0117351Y0088177D01*
X0117355Y0088216D01*
X0117363Y0088255D01*
X0117374Y0088293D01*
X0117389Y0088330D01*
X0117407Y0088366D01*
X0117428Y0088399D01*
X0117453Y0088430D01*
X0117480Y0088459D01*
X0117510Y0088485D01*
X0117543Y0088508D01*
X0117577Y0088528D01*
X0117613Y0088544D01*
X0117651Y0088557D01*
X0117689Y0088566D01*
X0117728Y0088572D01*
X0117768Y0088574D01*
X0118184Y0088574D01*
X0118184Y0087074D01*
X0116752Y0088240D02*
X0116336Y0088574D01*
X0124650Y0089239D02*
X0126150Y0089239D01*
X0125983Y0089113D02*
X0125976Y0089084D01*
X0125965Y0089056D01*
X0125951Y0089029D01*
X0125934Y0089004D01*
X0125914Y0088982D01*
X0125891Y0088962D01*
X0125867Y0088945D01*
X0125840Y0088931D01*
X0125812Y0088920D01*
X0125783Y0088913D01*
X0125753Y0088909D01*
X0125723Y0088909D01*
X0125693Y0088913D01*
X0125663Y0088920D01*
X0125635Y0088931D01*
X0125609Y0088945D01*
X0125584Y0088962D01*
X0125561Y0088982D01*
X0125542Y0089005D01*
X0125524Y0089030D01*
X0125525Y0089030D02*
X0125400Y0089239D01*
X0125275Y0089447D01*
X0125900Y0089572D02*
X0125923Y0089530D01*
X0125943Y0089487D01*
X0125960Y0089442D01*
X0125973Y0089397D01*
X0125983Y0089350D01*
X0125990Y0089303D01*
X0125994Y0089256D01*
X0125994Y0089208D01*
X0125990Y0089160D01*
X0125983Y0089113D01*
X0124900Y0088905D02*
X0124877Y0088947D01*
X0124857Y0088990D01*
X0124840Y0089035D01*
X0124827Y0089080D01*
X0124817Y0089127D01*
X0124810Y0089174D01*
X0124806Y0089221D01*
X0124806Y0089269D01*
X0124810Y0089317D01*
X0124817Y0089364D01*
X0124824Y0089393D01*
X0124835Y0089421D01*
X0124849Y0089448D01*
X0124866Y0089473D01*
X0124886Y0089495D01*
X0124909Y0089515D01*
X0124933Y0089532D01*
X0124960Y0089546D01*
X0124988Y0089557D01*
X0125017Y0089564D01*
X0125047Y0089568D01*
X0125077Y0089568D01*
X0125107Y0089564D01*
X0125137Y0089557D01*
X0125165Y0089546D01*
X0125191Y0089532D01*
X0125216Y0089515D01*
X0125239Y0089495D01*
X0125258Y0089472D01*
X0125276Y0089447D01*
X0124650Y0090166D02*
X0124650Y0090999D01*
X0124650Y0090166D02*
X0125483Y0090874D01*
X0126150Y0090624D02*
X0126148Y0090584D01*
X0126143Y0090544D01*
X0126135Y0090504D01*
X0126123Y0090465D01*
X0126108Y0090428D01*
X0126090Y0090392D01*
X0126069Y0090357D01*
X0126046Y0090324D01*
X0126019Y0090294D01*
X0125990Y0090266D01*
X0125959Y0090240D01*
X0125926Y0090217D01*
X0125891Y0090197D01*
X0125854Y0090179D01*
X0125816Y0090165D01*
X0125483Y0090875D02*
X0125509Y0090900D01*
X0125538Y0090923D01*
X0125568Y0090943D01*
X0125600Y0090960D01*
X0125633Y0090974D01*
X0125668Y0090985D01*
X0125703Y0090993D01*
X0125739Y0090998D01*
X0125775Y0091000D01*
X0125775Y0090999D02*
X0125812Y0090997D01*
X0125848Y0090992D01*
X0125884Y0090983D01*
X0125919Y0090970D01*
X0125952Y0090955D01*
X0125983Y0090936D01*
X0126013Y0090914D01*
X0126040Y0090889D01*
X0126065Y0090862D01*
X0126087Y0090832D01*
X0126106Y0090801D01*
X0126121Y0090768D01*
X0126134Y0090733D01*
X0126143Y0090697D01*
X0126148Y0090661D01*
X0126150Y0090624D01*
X0126150Y0088263D02*
X0125067Y0088263D01*
X0125067Y0088264D02*
X0125027Y0088262D01*
X0124988Y0088256D01*
X0124950Y0088247D01*
X0124912Y0088234D01*
X0124876Y0088218D01*
X0124842Y0088198D01*
X0124809Y0088175D01*
X0124779Y0088149D01*
X0124752Y0088120D01*
X0124727Y0088089D01*
X0124706Y0088056D01*
X0124688Y0088020D01*
X0124673Y0087983D01*
X0124662Y0087945D01*
X0124654Y0087906D01*
X0124650Y0087867D01*
X0124650Y0087827D01*
X0124654Y0087788D01*
X0124662Y0087749D01*
X0124673Y0087711D01*
X0124688Y0087674D01*
X0124706Y0087639D01*
X0124727Y0087605D01*
X0124752Y0087574D01*
X0124779Y0087545D01*
X0124809Y0087519D01*
X0124842Y0087496D01*
X0124876Y0087476D01*
X0124912Y0087460D01*
X0124950Y0087447D01*
X0124988Y0087438D01*
X0125027Y0087432D01*
X0125067Y0087430D01*
X0126150Y0087430D01*
X0132533Y0082355D02*
X0132533Y0081939D01*
X0133033Y0081939D01*
X0132532Y0081939D02*
X0132534Y0081889D01*
X0132539Y0081840D01*
X0132549Y0081791D01*
X0132562Y0081742D01*
X0132578Y0081695D01*
X0132598Y0081650D01*
X0132621Y0081605D01*
X0132648Y0081563D01*
X0132678Y0081523D01*
X0132710Y0081485D01*
X0132745Y0081450D01*
X0132783Y0081418D01*
X0132823Y0081388D01*
X0132866Y0081361D01*
X0132910Y0081338D01*
X0132955Y0081318D01*
X0133002Y0081302D01*
X0133051Y0081289D01*
X0133100Y0081279D01*
X0133149Y0081274D01*
X0133199Y0081272D01*
X0133973Y0081272D02*
X0134806Y0081272D01*
X0134389Y0081272D02*
X0134389Y0082772D01*
X0134806Y0082439D01*
X0135821Y0082772D02*
X0135781Y0082770D01*
X0135742Y0082764D01*
X0135704Y0082755D01*
X0135666Y0082742D01*
X0135630Y0082726D01*
X0135596Y0082706D01*
X0135563Y0082683D01*
X0135533Y0082657D01*
X0135506Y0082628D01*
X0135481Y0082597D01*
X0135460Y0082564D01*
X0135442Y0082528D01*
X0135427Y0082491D01*
X0135416Y0082453D01*
X0135408Y0082414D01*
X0135404Y0082375D01*
X0135404Y0082335D01*
X0135408Y0082296D01*
X0135416Y0082257D01*
X0135427Y0082219D01*
X0135442Y0082182D01*
X0135460Y0082147D01*
X0135481Y0082113D01*
X0135506Y0082082D01*
X0135533Y0082053D01*
X0135563Y0082027D01*
X0135596Y0082004D01*
X0135630Y0081984D01*
X0135666Y0081968D01*
X0135704Y0081955D01*
X0135742Y0081946D01*
X0135781Y0081940D01*
X0135821Y0081938D01*
X0135821Y0081939D02*
X0136238Y0081939D01*
X0135738Y0081939D02*
X0135404Y0081272D01*
X0136238Y0081272D02*
X0136238Y0082772D01*
X0135821Y0082772D01*
X0133366Y0082355D02*
X0133366Y0082272D01*
X0133364Y0082237D01*
X0133359Y0082203D01*
X0133350Y0082169D01*
X0133337Y0082137D01*
X0133321Y0082106D01*
X0133302Y0082076D01*
X0133280Y0082049D01*
X0133256Y0082025D01*
X0133229Y0082003D01*
X0133200Y0081984D01*
X0133168Y0081968D01*
X0133136Y0081955D01*
X0133102Y0081946D01*
X0133068Y0081941D01*
X0133033Y0081939D01*
X0133366Y0082355D02*
X0133364Y0082395D01*
X0133358Y0082434D01*
X0133349Y0082472D01*
X0133336Y0082510D01*
X0133320Y0082546D01*
X0133300Y0082580D01*
X0133277Y0082613D01*
X0133251Y0082643D01*
X0133222Y0082670D01*
X0133191Y0082695D01*
X0133158Y0082716D01*
X0133122Y0082734D01*
X0133085Y0082749D01*
X0133047Y0082760D01*
X0133008Y0082768D01*
X0132969Y0082772D01*
X0132929Y0082772D01*
X0132890Y0082768D01*
X0132851Y0082760D01*
X0132813Y0082749D01*
X0132776Y0082734D01*
X0132741Y0082716D01*
X0132707Y0082695D01*
X0132676Y0082670D01*
X0132647Y0082643D01*
X0132621Y0082613D01*
X0132598Y0082580D01*
X0132578Y0082546D01*
X0132562Y0082510D01*
X0132549Y0082472D01*
X0132540Y0082434D01*
X0132534Y0082395D01*
X0132532Y0082355D01*
X0133517Y0072299D02*
X0133600Y0072299D01*
X0133635Y0072297D01*
X0133669Y0072292D01*
X0133703Y0072283D01*
X0133735Y0072270D01*
X0133767Y0072254D01*
X0133796Y0072235D01*
X0133823Y0072213D01*
X0133847Y0072189D01*
X0133869Y0072162D01*
X0133888Y0072133D01*
X0133904Y0072101D01*
X0133917Y0072069D01*
X0133926Y0072035D01*
X0133931Y0072001D01*
X0133933Y0071966D01*
X0133933Y0071466D01*
X0133517Y0071466D01*
X0133477Y0071468D01*
X0133438Y0071474D01*
X0133400Y0071483D01*
X0133362Y0071496D01*
X0133326Y0071512D01*
X0133292Y0071532D01*
X0133259Y0071555D01*
X0133229Y0071581D01*
X0133202Y0071610D01*
X0133177Y0071641D01*
X0133156Y0071675D01*
X0133138Y0071710D01*
X0133123Y0071747D01*
X0133112Y0071785D01*
X0133104Y0071824D01*
X0133100Y0071863D01*
X0133100Y0071903D01*
X0133104Y0071942D01*
X0133112Y0071981D01*
X0133123Y0072019D01*
X0133138Y0072056D01*
X0133156Y0072092D01*
X0133177Y0072125D01*
X0133202Y0072156D01*
X0133229Y0072185D01*
X0133259Y0072211D01*
X0133292Y0072234D01*
X0133326Y0072254D01*
X0133362Y0072270D01*
X0133400Y0072283D01*
X0133438Y0072292D01*
X0133477Y0072298D01*
X0133517Y0072300D01*
X0133933Y0071466D02*
X0133983Y0071468D01*
X0134032Y0071473D01*
X0134081Y0071483D01*
X0134130Y0071496D01*
X0134177Y0071512D01*
X0134222Y0071532D01*
X0134266Y0071555D01*
X0134309Y0071582D01*
X0134349Y0071612D01*
X0134387Y0071644D01*
X0134422Y0071679D01*
X0134454Y0071717D01*
X0134484Y0071757D01*
X0134511Y0071799D01*
X0134534Y0071844D01*
X0134554Y0071889D01*
X0134570Y0071936D01*
X0134583Y0071985D01*
X0134593Y0072034D01*
X0134598Y0072083D01*
X0134600Y0072133D01*
X0133933Y0070734D02*
X0133100Y0070026D01*
X0133100Y0070859D01*
X0134266Y0070025D02*
X0134304Y0070039D01*
X0134341Y0070057D01*
X0134376Y0070077D01*
X0134409Y0070100D01*
X0134440Y0070126D01*
X0134469Y0070154D01*
X0134496Y0070184D01*
X0134519Y0070217D01*
X0134540Y0070252D01*
X0134558Y0070288D01*
X0134573Y0070325D01*
X0134585Y0070364D01*
X0134593Y0070404D01*
X0134598Y0070444D01*
X0134600Y0070484D01*
X0134598Y0070521D01*
X0134593Y0070557D01*
X0134584Y0070593D01*
X0134571Y0070628D01*
X0134556Y0070661D01*
X0134537Y0070692D01*
X0134515Y0070722D01*
X0134490Y0070749D01*
X0134463Y0070774D01*
X0134433Y0070796D01*
X0134402Y0070815D01*
X0134369Y0070830D01*
X0134334Y0070843D01*
X0134298Y0070852D01*
X0134262Y0070857D01*
X0134225Y0070859D01*
X0134225Y0070860D02*
X0134189Y0070858D01*
X0134153Y0070853D01*
X0134118Y0070845D01*
X0134083Y0070834D01*
X0134050Y0070820D01*
X0134018Y0070803D01*
X0133988Y0070783D01*
X0133959Y0070760D01*
X0133933Y0070735D01*
X0133100Y0069428D02*
X0133767Y0069094D01*
X0133767Y0069011D02*
X0133767Y0068594D01*
X0133766Y0069011D02*
X0133768Y0069051D01*
X0133774Y0069090D01*
X0133783Y0069128D01*
X0133796Y0069166D01*
X0133812Y0069202D01*
X0133832Y0069236D01*
X0133855Y0069269D01*
X0133881Y0069299D01*
X0133910Y0069326D01*
X0133941Y0069351D01*
X0133975Y0069372D01*
X0134010Y0069390D01*
X0134047Y0069405D01*
X0134085Y0069416D01*
X0134124Y0069424D01*
X0134163Y0069428D01*
X0134203Y0069428D01*
X0134242Y0069424D01*
X0134281Y0069416D01*
X0134319Y0069405D01*
X0134356Y0069390D01*
X0134392Y0069372D01*
X0134425Y0069351D01*
X0134456Y0069326D01*
X0134485Y0069299D01*
X0134511Y0069269D01*
X0134534Y0069236D01*
X0134554Y0069202D01*
X0134570Y0069166D01*
X0134583Y0069128D01*
X0134592Y0069090D01*
X0134598Y0069051D01*
X0134600Y0069011D01*
X0134600Y0068594D01*
X0133100Y0068594D01*
X0139200Y0069625D02*
X0139200Y0070291D01*
X0139200Y0069625D02*
X0140700Y0069625D01*
X0140075Y0070982D02*
X0139825Y0071441D01*
X0139200Y0071274D02*
X0139202Y0071224D01*
X0139207Y0071173D01*
X0139216Y0071124D01*
X0139229Y0071075D01*
X0139245Y0071027D01*
X0139264Y0070980D01*
X0139287Y0070935D01*
X0139313Y0070892D01*
X0139342Y0070850D01*
X0139374Y0070811D01*
X0139408Y0070774D01*
X0139825Y0071441D02*
X0139806Y0071470D01*
X0139783Y0071498D01*
X0139758Y0071522D01*
X0139731Y0071544D01*
X0139701Y0071563D01*
X0139670Y0071579D01*
X0139637Y0071592D01*
X0139603Y0071601D01*
X0139568Y0071606D01*
X0139533Y0071608D01*
X0139533Y0071607D02*
X0139498Y0071605D01*
X0139464Y0071600D01*
X0139430Y0071591D01*
X0139398Y0071578D01*
X0139367Y0071562D01*
X0139337Y0071543D01*
X0139310Y0071521D01*
X0139286Y0071497D01*
X0139264Y0071470D01*
X0139245Y0071441D01*
X0139229Y0071409D01*
X0139216Y0071377D01*
X0139207Y0071343D01*
X0139202Y0071309D01*
X0139200Y0071274D01*
X0140575Y0071524D02*
X0140601Y0071487D01*
X0140623Y0071449D01*
X0140643Y0071409D01*
X0140660Y0071368D01*
X0140675Y0071325D01*
X0140686Y0071282D01*
X0140694Y0071238D01*
X0140698Y0071194D01*
X0140700Y0071149D01*
X0140698Y0071114D01*
X0140693Y0071080D01*
X0140684Y0071046D01*
X0140671Y0071014D01*
X0140655Y0070983D01*
X0140636Y0070953D01*
X0140614Y0070926D01*
X0140590Y0070902D01*
X0140563Y0070880D01*
X0140534Y0070861D01*
X0140502Y0070845D01*
X0140470Y0070832D01*
X0140436Y0070823D01*
X0140402Y0070818D01*
X0140367Y0070816D01*
X0140367Y0070815D02*
X0140332Y0070817D01*
X0140297Y0070822D01*
X0140263Y0070831D01*
X0140230Y0070844D01*
X0140199Y0070860D01*
X0140169Y0070879D01*
X0140142Y0070901D01*
X0140117Y0070925D01*
X0140094Y0070953D01*
X0140075Y0070982D01*
X0140367Y0072166D02*
X0140700Y0072583D01*
X0139200Y0072583D01*
X0139200Y0072999D02*
X0139200Y0072166D01*
X0144440Y0073793D02*
X0144440Y0074127D01*
X0144441Y0073793D02*
X0144443Y0073758D01*
X0144448Y0073724D01*
X0144457Y0073690D01*
X0144470Y0073658D01*
X0144486Y0073627D01*
X0144505Y0073597D01*
X0144527Y0073570D01*
X0144551Y0073546D01*
X0144578Y0073524D01*
X0144608Y0073505D01*
X0144639Y0073489D01*
X0144671Y0073476D01*
X0144705Y0073467D01*
X0144739Y0073462D01*
X0144774Y0073460D01*
X0145607Y0073460D01*
X0145642Y0073462D01*
X0145676Y0073467D01*
X0145710Y0073476D01*
X0145742Y0073489D01*
X0145773Y0073505D01*
X0145803Y0073524D01*
X0145830Y0073546D01*
X0145854Y0073570D01*
X0145876Y0073597D01*
X0145895Y0073626D01*
X0145911Y0073658D01*
X0145924Y0073690D01*
X0145933Y0073724D01*
X0145938Y0073758D01*
X0145940Y0073793D01*
X0145940Y0074127D01*
X0145273Y0075372D02*
X0145299Y0075397D01*
X0145328Y0075420D01*
X0145358Y0075440D01*
X0145390Y0075457D01*
X0145423Y0075471D01*
X0145458Y0075482D01*
X0145493Y0075490D01*
X0145529Y0075495D01*
X0145565Y0075497D01*
X0145274Y0075372D02*
X0144440Y0074664D01*
X0144440Y0075497D01*
X0144774Y0076187D02*
X0145607Y0076854D01*
X0145732Y0076811D02*
X0145761Y0076799D01*
X0145790Y0076785D01*
X0145816Y0076767D01*
X0145841Y0076747D01*
X0145863Y0076724D01*
X0145883Y0076699D01*
X0145900Y0076672D01*
X0145914Y0076644D01*
X0145925Y0076614D01*
X0145933Y0076583D01*
X0145938Y0076552D01*
X0145940Y0076520D01*
X0145938Y0076488D01*
X0145933Y0076457D01*
X0145925Y0076426D01*
X0145914Y0076396D01*
X0145900Y0076368D01*
X0145883Y0076341D01*
X0145863Y0076316D01*
X0145841Y0076293D01*
X0145816Y0076273D01*
X0145790Y0076255D01*
X0145761Y0076241D01*
X0145732Y0076229D01*
X0145732Y0076812D02*
X0145675Y0076838D01*
X0145617Y0076861D01*
X0145558Y0076881D01*
X0145498Y0076898D01*
X0145437Y0076912D01*
X0145376Y0076923D01*
X0145314Y0076931D01*
X0145252Y0076935D01*
X0145190Y0076937D01*
X0145190Y0076104D02*
X0145252Y0076106D01*
X0145314Y0076110D01*
X0145376Y0076118D01*
X0145437Y0076129D01*
X0145498Y0076143D01*
X0145558Y0076160D01*
X0145617Y0076180D01*
X0145675Y0076203D01*
X0145732Y0076229D01*
X0145190Y0076937D02*
X0145128Y0076935D01*
X0145066Y0076931D01*
X0145004Y0076923D01*
X0144943Y0076912D01*
X0144882Y0076898D01*
X0144822Y0076881D01*
X0144763Y0076861D01*
X0144705Y0076838D01*
X0144648Y0076812D01*
X0144649Y0076811D02*
X0144620Y0076799D01*
X0144591Y0076785D01*
X0144565Y0076767D01*
X0144540Y0076747D01*
X0144518Y0076724D01*
X0144498Y0076699D01*
X0144481Y0076672D01*
X0144467Y0076644D01*
X0144456Y0076614D01*
X0144448Y0076583D01*
X0144443Y0076552D01*
X0144441Y0076520D01*
X0144443Y0076488D01*
X0144448Y0076457D01*
X0144456Y0076426D01*
X0144467Y0076396D01*
X0144481Y0076368D01*
X0144498Y0076341D01*
X0144518Y0076316D01*
X0144540Y0076293D01*
X0144565Y0076273D01*
X0144591Y0076255D01*
X0144620Y0076241D01*
X0144649Y0076229D01*
X0144648Y0076229D02*
X0144705Y0076203D01*
X0144763Y0076180D01*
X0144822Y0076160D01*
X0144882Y0076143D01*
X0144943Y0076129D01*
X0145004Y0076118D01*
X0145066Y0076110D01*
X0145128Y0076106D01*
X0145190Y0076104D01*
X0145941Y0075122D02*
X0145939Y0075082D01*
X0145934Y0075042D01*
X0145926Y0075002D01*
X0145914Y0074963D01*
X0145899Y0074926D01*
X0145881Y0074890D01*
X0145860Y0074855D01*
X0145837Y0074822D01*
X0145810Y0074792D01*
X0145781Y0074764D01*
X0145750Y0074738D01*
X0145717Y0074715D01*
X0145682Y0074695D01*
X0145645Y0074677D01*
X0145607Y0074663D01*
X0145940Y0075122D02*
X0145938Y0075159D01*
X0145933Y0075195D01*
X0145924Y0075231D01*
X0145911Y0075266D01*
X0145896Y0075299D01*
X0145877Y0075330D01*
X0145855Y0075360D01*
X0145830Y0075387D01*
X0145803Y0075412D01*
X0145773Y0075434D01*
X0145742Y0075453D01*
X0145709Y0075468D01*
X0145674Y0075481D01*
X0145638Y0075490D01*
X0145602Y0075495D01*
X0145565Y0075497D01*
X0156467Y0092230D02*
X0157550Y0092230D01*
X0157550Y0093063D02*
X0156467Y0093063D01*
X0156467Y0093064D02*
X0156427Y0093062D01*
X0156388Y0093056D01*
X0156350Y0093047D01*
X0156312Y0093034D01*
X0156276Y0093018D01*
X0156242Y0092998D01*
X0156209Y0092975D01*
X0156179Y0092949D01*
X0156152Y0092920D01*
X0156127Y0092889D01*
X0156106Y0092856D01*
X0156088Y0092820D01*
X0156073Y0092783D01*
X0156062Y0092745D01*
X0156054Y0092706D01*
X0156050Y0092667D01*
X0156050Y0092627D01*
X0156054Y0092588D01*
X0156062Y0092549D01*
X0156073Y0092511D01*
X0156088Y0092474D01*
X0156106Y0092439D01*
X0156127Y0092405D01*
X0156152Y0092374D01*
X0156179Y0092345D01*
X0156209Y0092319D01*
X0156242Y0092296D01*
X0156276Y0092276D01*
X0156312Y0092260D01*
X0156350Y0092247D01*
X0156388Y0092238D01*
X0156427Y0092232D01*
X0156467Y0092230D01*
X0156925Y0093830D02*
X0156800Y0094039D01*
X0156675Y0094247D01*
X0157300Y0094372D02*
X0157323Y0094330D01*
X0157343Y0094287D01*
X0157360Y0094242D01*
X0157373Y0094197D01*
X0157383Y0094150D01*
X0157390Y0094103D01*
X0157394Y0094056D01*
X0157394Y0094008D01*
X0157390Y0093960D01*
X0157383Y0093913D01*
X0157550Y0094039D02*
X0156050Y0094039D01*
X0156217Y0094164D02*
X0156224Y0094193D01*
X0156235Y0094221D01*
X0156249Y0094248D01*
X0156266Y0094273D01*
X0156286Y0094295D01*
X0156309Y0094315D01*
X0156333Y0094332D01*
X0156360Y0094346D01*
X0156388Y0094357D01*
X0156417Y0094364D01*
X0156447Y0094368D01*
X0156477Y0094368D01*
X0156507Y0094364D01*
X0156537Y0094357D01*
X0156565Y0094346D01*
X0156591Y0094332D01*
X0156616Y0094315D01*
X0156639Y0094295D01*
X0156658Y0094272D01*
X0156676Y0094247D01*
X0156217Y0094164D02*
X0156210Y0094117D01*
X0156206Y0094069D01*
X0156206Y0094021D01*
X0156210Y0093974D01*
X0156217Y0093927D01*
X0156227Y0093880D01*
X0156240Y0093835D01*
X0156257Y0093790D01*
X0156277Y0093747D01*
X0156300Y0093705D01*
X0156924Y0093830D02*
X0156942Y0093805D01*
X0156961Y0093782D01*
X0156984Y0093762D01*
X0157009Y0093745D01*
X0157035Y0093731D01*
X0157063Y0093720D01*
X0157093Y0093713D01*
X0157123Y0093709D01*
X0157153Y0093709D01*
X0157183Y0093713D01*
X0157212Y0093720D01*
X0157240Y0093731D01*
X0157267Y0093745D01*
X0157291Y0093762D01*
X0157314Y0093782D01*
X0157334Y0093804D01*
X0157351Y0093829D01*
X0157365Y0093856D01*
X0157376Y0093884D01*
X0157383Y0093913D01*
X0157550Y0095299D02*
X0156383Y0094966D01*
X0156383Y0095799D01*
X0156050Y0095549D02*
X0156717Y0095549D01*
X0174029Y0080866D02*
X0174031Y0080831D01*
X0174036Y0080797D01*
X0174045Y0080763D01*
X0174058Y0080731D01*
X0174074Y0080700D01*
X0174093Y0080670D01*
X0174115Y0080643D01*
X0174139Y0080619D01*
X0174166Y0080597D01*
X0174196Y0080578D01*
X0174227Y0080562D01*
X0174259Y0080549D01*
X0174293Y0080540D01*
X0174327Y0080535D01*
X0174362Y0080533D01*
X0174397Y0080535D01*
X0174431Y0080540D01*
X0174465Y0080549D01*
X0174497Y0080562D01*
X0174529Y0080578D01*
X0174558Y0080597D01*
X0174585Y0080619D01*
X0174609Y0080643D01*
X0174631Y0080670D01*
X0174650Y0080700D01*
X0174666Y0080731D01*
X0174679Y0080763D01*
X0174688Y0080797D01*
X0174693Y0080831D01*
X0174695Y0080866D01*
X0174693Y0080901D01*
X0174688Y0080935D01*
X0174679Y0080969D01*
X0174666Y0081001D01*
X0174650Y0081033D01*
X0174631Y0081062D01*
X0174609Y0081089D01*
X0174585Y0081113D01*
X0174558Y0081135D01*
X0174529Y0081154D01*
X0174497Y0081170D01*
X0174465Y0081183D01*
X0174431Y0081192D01*
X0174397Y0081197D01*
X0174362Y0081199D01*
X0174327Y0081197D01*
X0174293Y0081192D01*
X0174259Y0081183D01*
X0174227Y0081170D01*
X0174196Y0081154D01*
X0174166Y0081135D01*
X0174139Y0081113D01*
X0174115Y0081089D01*
X0174093Y0081062D01*
X0174074Y0081033D01*
X0174058Y0081001D01*
X0174045Y0080969D01*
X0174036Y0080935D01*
X0174031Y0080901D01*
X0174029Y0080866D01*
X0173945Y0080116D02*
X0173947Y0080076D01*
X0173953Y0080037D01*
X0173962Y0079999D01*
X0173975Y0079961D01*
X0173991Y0079925D01*
X0174011Y0079891D01*
X0174034Y0079858D01*
X0174060Y0079828D01*
X0174089Y0079801D01*
X0174120Y0079776D01*
X0174154Y0079755D01*
X0174189Y0079737D01*
X0174226Y0079722D01*
X0174264Y0079711D01*
X0174303Y0079703D01*
X0174342Y0079699D01*
X0174382Y0079699D01*
X0174421Y0079703D01*
X0174460Y0079711D01*
X0174498Y0079722D01*
X0174535Y0079737D01*
X0174571Y0079755D01*
X0174604Y0079776D01*
X0174635Y0079801D01*
X0174664Y0079828D01*
X0174690Y0079858D01*
X0174713Y0079891D01*
X0174733Y0079925D01*
X0174749Y0079961D01*
X0174762Y0079999D01*
X0174771Y0080037D01*
X0174777Y0080076D01*
X0174779Y0080116D01*
X0174777Y0080156D01*
X0174771Y0080195D01*
X0174762Y0080233D01*
X0174749Y0080271D01*
X0174733Y0080307D01*
X0174713Y0080341D01*
X0174690Y0080374D01*
X0174664Y0080404D01*
X0174635Y0080431D01*
X0174604Y0080456D01*
X0174571Y0080477D01*
X0174535Y0080495D01*
X0174498Y0080510D01*
X0174460Y0080521D01*
X0174421Y0080529D01*
X0174382Y0080533D01*
X0174342Y0080533D01*
X0174303Y0080529D01*
X0174264Y0080521D01*
X0174226Y0080510D01*
X0174189Y0080495D01*
X0174154Y0080477D01*
X0174120Y0080456D01*
X0174089Y0080431D01*
X0174060Y0080404D01*
X0174034Y0080374D01*
X0174011Y0080341D01*
X0173991Y0080307D01*
X0173975Y0080271D01*
X0173962Y0080233D01*
X0173953Y0080195D01*
X0173947Y0080156D01*
X0173945Y0080116D01*
X0175385Y0079699D02*
X0176218Y0079699D01*
X0175510Y0080533D01*
X0175760Y0081200D02*
X0175800Y0081198D01*
X0175840Y0081193D01*
X0175880Y0081185D01*
X0175919Y0081173D01*
X0175956Y0081158D01*
X0175992Y0081140D01*
X0176027Y0081119D01*
X0176060Y0081096D01*
X0176090Y0081069D01*
X0176118Y0081040D01*
X0176144Y0081009D01*
X0176167Y0080976D01*
X0176187Y0080941D01*
X0176205Y0080904D01*
X0176219Y0080866D01*
X0175510Y0080532D02*
X0175485Y0080558D01*
X0175462Y0080587D01*
X0175442Y0080617D01*
X0175425Y0080649D01*
X0175411Y0080682D01*
X0175400Y0080717D01*
X0175392Y0080752D01*
X0175387Y0080788D01*
X0175385Y0080824D01*
X0175387Y0080861D01*
X0175392Y0080897D01*
X0175401Y0080933D01*
X0175414Y0080968D01*
X0175429Y0081001D01*
X0175448Y0081032D01*
X0175470Y0081062D01*
X0175495Y0081089D01*
X0175522Y0081114D01*
X0175552Y0081136D01*
X0175583Y0081155D01*
X0175616Y0081170D01*
X0175651Y0081183D01*
X0175687Y0081192D01*
X0175723Y0081197D01*
X0175760Y0081199D01*
X0177233Y0081199D02*
X0177650Y0081199D01*
X0177650Y0079699D01*
X0177650Y0080366D02*
X0177233Y0080366D01*
X0177150Y0080366D02*
X0176817Y0079699D01*
X0177233Y0080366D02*
X0177193Y0080368D01*
X0177154Y0080374D01*
X0177116Y0080383D01*
X0177078Y0080396D01*
X0177042Y0080412D01*
X0177008Y0080432D01*
X0176975Y0080455D01*
X0176945Y0080481D01*
X0176918Y0080510D01*
X0176893Y0080541D01*
X0176872Y0080575D01*
X0176854Y0080610D01*
X0176839Y0080647D01*
X0176828Y0080685D01*
X0176820Y0080724D01*
X0176816Y0080763D01*
X0176816Y0080803D01*
X0176820Y0080842D01*
X0176828Y0080881D01*
X0176839Y0080919D01*
X0176854Y0080956D01*
X0176872Y0080992D01*
X0176893Y0081025D01*
X0176918Y0081056D01*
X0176945Y0081085D01*
X0176975Y0081111D01*
X0177008Y0081134D01*
X0177042Y0081154D01*
X0177078Y0081170D01*
X0177116Y0081183D01*
X0177154Y0081192D01*
X0177193Y0081198D01*
X0177233Y0081200D01*
X0171229Y0063190D02*
X0170896Y0063190D01*
X0171229Y0063189D02*
X0171264Y0063187D01*
X0171298Y0063182D01*
X0171332Y0063173D01*
X0171364Y0063160D01*
X0171396Y0063144D01*
X0171425Y0063125D01*
X0171452Y0063103D01*
X0171476Y0063079D01*
X0171498Y0063052D01*
X0171517Y0063022D01*
X0171533Y0062991D01*
X0171546Y0062959D01*
X0171555Y0062925D01*
X0171560Y0062891D01*
X0171562Y0062856D01*
X0171563Y0062856D02*
X0171563Y0062023D01*
X0171562Y0062023D02*
X0171560Y0061988D01*
X0171555Y0061954D01*
X0171546Y0061920D01*
X0171533Y0061888D01*
X0171517Y0061857D01*
X0171498Y0061827D01*
X0171476Y0061800D01*
X0171452Y0061776D01*
X0171425Y0061754D01*
X0171396Y0061735D01*
X0171364Y0061719D01*
X0171332Y0061706D01*
X0171298Y0061697D01*
X0171264Y0061692D01*
X0171229Y0061690D01*
X0170896Y0061690D01*
X0170359Y0061690D02*
X0169525Y0061690D01*
X0170359Y0061690D02*
X0169650Y0062523D01*
X0169900Y0063190D02*
X0169940Y0063188D01*
X0169980Y0063183D01*
X0170020Y0063175D01*
X0170059Y0063163D01*
X0170096Y0063148D01*
X0170132Y0063130D01*
X0170167Y0063109D01*
X0170200Y0063086D01*
X0170230Y0063059D01*
X0170258Y0063030D01*
X0170284Y0062999D01*
X0170307Y0062966D01*
X0170327Y0062931D01*
X0170345Y0062894D01*
X0170359Y0062856D01*
X0169650Y0062523D02*
X0169625Y0062549D01*
X0169602Y0062578D01*
X0169582Y0062608D01*
X0169565Y0062640D01*
X0169551Y0062673D01*
X0169540Y0062708D01*
X0169532Y0062743D01*
X0169527Y0062779D01*
X0169525Y0062815D01*
X0169527Y0062852D01*
X0169532Y0062888D01*
X0169541Y0062924D01*
X0169554Y0062959D01*
X0169569Y0062992D01*
X0169588Y0063023D01*
X0169610Y0063053D01*
X0169635Y0063080D01*
X0169662Y0063105D01*
X0169692Y0063127D01*
X0169723Y0063146D01*
X0169756Y0063161D01*
X0169791Y0063174D01*
X0169827Y0063183D01*
X0169863Y0063188D01*
X0169900Y0063190D01*
X0171639Y0057416D02*
X0171972Y0057416D01*
X0172007Y0057414D01*
X0172041Y0057409D01*
X0172075Y0057400D01*
X0172107Y0057387D01*
X0172139Y0057371D01*
X0172168Y0057352D01*
X0172195Y0057330D01*
X0172219Y0057306D01*
X0172241Y0057279D01*
X0172260Y0057249D01*
X0172276Y0057218D01*
X0172289Y0057186D01*
X0172298Y0057152D01*
X0172303Y0057118D01*
X0172305Y0057083D01*
X0172306Y0057083D02*
X0172306Y0056250D01*
X0172305Y0056250D02*
X0172303Y0056215D01*
X0172298Y0056181D01*
X0172289Y0056147D01*
X0172276Y0056115D01*
X0172260Y0056084D01*
X0172241Y0056054D01*
X0172219Y0056027D01*
X0172195Y0056003D01*
X0172168Y0055981D01*
X0172139Y0055962D01*
X0172107Y0055946D01*
X0172075Y0055933D01*
X0172041Y0055924D01*
X0172007Y0055919D01*
X0171972Y0055917D01*
X0171972Y0055916D02*
X0171639Y0055916D01*
X0171102Y0056333D02*
X0171102Y0056750D01*
X0170602Y0056750D01*
X0171102Y0056750D02*
X0171100Y0056800D01*
X0171095Y0056849D01*
X0171085Y0056898D01*
X0171072Y0056947D01*
X0171056Y0056994D01*
X0171036Y0057039D01*
X0171013Y0057084D01*
X0170986Y0057126D01*
X0170956Y0057166D01*
X0170924Y0057204D01*
X0170889Y0057239D01*
X0170851Y0057271D01*
X0170811Y0057301D01*
X0170769Y0057328D01*
X0170724Y0057351D01*
X0170679Y0057371D01*
X0170632Y0057387D01*
X0170583Y0057400D01*
X0170534Y0057410D01*
X0170485Y0057415D01*
X0170435Y0057417D01*
X0170269Y0056416D02*
X0170269Y0056333D01*
X0170269Y0056416D02*
X0170271Y0056451D01*
X0170276Y0056485D01*
X0170285Y0056519D01*
X0170298Y0056551D01*
X0170314Y0056583D01*
X0170333Y0056612D01*
X0170355Y0056639D01*
X0170379Y0056663D01*
X0170406Y0056685D01*
X0170436Y0056704D01*
X0170467Y0056720D01*
X0170499Y0056733D01*
X0170533Y0056742D01*
X0170567Y0056747D01*
X0170602Y0056749D01*
X0170268Y0056333D02*
X0170270Y0056293D01*
X0170276Y0056254D01*
X0170285Y0056216D01*
X0170298Y0056178D01*
X0170314Y0056142D01*
X0170334Y0056108D01*
X0170357Y0056075D01*
X0170383Y0056045D01*
X0170412Y0056018D01*
X0170443Y0055993D01*
X0170477Y0055972D01*
X0170512Y0055954D01*
X0170549Y0055939D01*
X0170587Y0055928D01*
X0170626Y0055920D01*
X0170665Y0055916D01*
X0170705Y0055916D01*
X0170744Y0055920D01*
X0170783Y0055928D01*
X0170821Y0055939D01*
X0170858Y0055954D01*
X0170894Y0055972D01*
X0170927Y0055993D01*
X0170958Y0056018D01*
X0170987Y0056045D01*
X0171013Y0056075D01*
X0171036Y0056108D01*
X0171056Y0056142D01*
X0171072Y0056178D01*
X0171085Y0056216D01*
X0171094Y0056254D01*
X0171100Y0056293D01*
X0171102Y0056333D01*
X0171063Y0050584D02*
X0170563Y0050584D01*
X0170563Y0050583D02*
X0170528Y0050581D01*
X0170494Y0050576D01*
X0170460Y0050567D01*
X0170428Y0050554D01*
X0170397Y0050538D01*
X0170367Y0050519D01*
X0170340Y0050497D01*
X0170316Y0050473D01*
X0170294Y0050446D01*
X0170275Y0050417D01*
X0170259Y0050385D01*
X0170246Y0050353D01*
X0170237Y0050319D01*
X0170232Y0050285D01*
X0170230Y0050250D01*
X0170232Y0050215D01*
X0170237Y0050181D01*
X0170246Y0050147D01*
X0170259Y0050115D01*
X0170275Y0050084D01*
X0170294Y0050054D01*
X0170316Y0050027D01*
X0170340Y0050003D01*
X0170367Y0049981D01*
X0170397Y0049962D01*
X0170428Y0049946D01*
X0170460Y0049933D01*
X0170494Y0049924D01*
X0170528Y0049919D01*
X0170563Y0049917D01*
X0170896Y0049917D01*
X0170646Y0049917D02*
X0170606Y0049915D01*
X0170567Y0049909D01*
X0170529Y0049900D01*
X0170491Y0049887D01*
X0170455Y0049871D01*
X0170421Y0049851D01*
X0170388Y0049828D01*
X0170358Y0049802D01*
X0170331Y0049773D01*
X0170306Y0049742D01*
X0170285Y0049709D01*
X0170267Y0049673D01*
X0170252Y0049636D01*
X0170241Y0049598D01*
X0170233Y0049559D01*
X0170229Y0049520D01*
X0170229Y0049480D01*
X0170233Y0049441D01*
X0170241Y0049402D01*
X0170252Y0049364D01*
X0170267Y0049327D01*
X0170285Y0049292D01*
X0170306Y0049258D01*
X0170331Y0049227D01*
X0170358Y0049198D01*
X0170388Y0049172D01*
X0170421Y0049149D01*
X0170455Y0049129D01*
X0170491Y0049113D01*
X0170529Y0049100D01*
X0170567Y0049091D01*
X0170606Y0049085D01*
X0170646Y0049083D01*
X0170646Y0049084D02*
X0171063Y0049084D01*
X0171600Y0049084D02*
X0171933Y0049084D01*
X0171968Y0049086D01*
X0172002Y0049091D01*
X0172036Y0049100D01*
X0172068Y0049113D01*
X0172100Y0049129D01*
X0172129Y0049148D01*
X0172156Y0049170D01*
X0172180Y0049194D01*
X0172202Y0049221D01*
X0172221Y0049251D01*
X0172237Y0049282D01*
X0172250Y0049314D01*
X0172259Y0049348D01*
X0172264Y0049382D01*
X0172266Y0049417D01*
X0172266Y0050250D01*
X0172264Y0050285D01*
X0172259Y0050319D01*
X0172250Y0050353D01*
X0172237Y0050385D01*
X0172221Y0050416D01*
X0172202Y0050446D01*
X0172180Y0050473D01*
X0172156Y0050497D01*
X0172129Y0050519D01*
X0172100Y0050538D01*
X0172068Y0050554D01*
X0172036Y0050567D01*
X0172002Y0050576D01*
X0171968Y0050581D01*
X0171933Y0050583D01*
X0171933Y0050584D02*
X0171600Y0050584D01*
X0171357Y0043877D02*
X0171024Y0043877D01*
X0171357Y0043877D02*
X0171392Y0043875D01*
X0171426Y0043870D01*
X0171460Y0043861D01*
X0171492Y0043848D01*
X0171524Y0043832D01*
X0171553Y0043813D01*
X0171580Y0043791D01*
X0171604Y0043767D01*
X0171626Y0043740D01*
X0171645Y0043710D01*
X0171661Y0043679D01*
X0171674Y0043647D01*
X0171683Y0043613D01*
X0171688Y0043579D01*
X0171690Y0043544D01*
X0171690Y0042710D01*
X0171688Y0042675D01*
X0171683Y0042641D01*
X0171674Y0042607D01*
X0171661Y0042575D01*
X0171645Y0042544D01*
X0171626Y0042514D01*
X0171604Y0042487D01*
X0171580Y0042463D01*
X0171553Y0042441D01*
X0171524Y0042422D01*
X0171492Y0042406D01*
X0171460Y0042393D01*
X0171426Y0042384D01*
X0171392Y0042379D01*
X0171357Y0042377D01*
X0171024Y0042377D01*
X0170487Y0042710D02*
X0169653Y0042710D01*
X0169903Y0042377D02*
X0169903Y0043044D01*
X0170487Y0042710D02*
X0170153Y0043877D01*
X0170455Y0037115D02*
X0169621Y0037115D01*
X0169955Y0036449D02*
X0170455Y0036449D01*
X0170455Y0037115D01*
X0170992Y0037115D02*
X0171325Y0037115D01*
X0171360Y0037113D01*
X0171394Y0037108D01*
X0171428Y0037099D01*
X0171460Y0037086D01*
X0171492Y0037070D01*
X0171521Y0037051D01*
X0171548Y0037029D01*
X0171572Y0037005D01*
X0171594Y0036978D01*
X0171613Y0036948D01*
X0171629Y0036917D01*
X0171642Y0036885D01*
X0171651Y0036851D01*
X0171656Y0036817D01*
X0171658Y0036782D01*
X0171658Y0035949D01*
X0171656Y0035914D01*
X0171651Y0035880D01*
X0171642Y0035846D01*
X0171629Y0035814D01*
X0171613Y0035783D01*
X0171594Y0035753D01*
X0171572Y0035726D01*
X0171548Y0035702D01*
X0171521Y0035680D01*
X0171492Y0035661D01*
X0171460Y0035645D01*
X0171428Y0035632D01*
X0171394Y0035623D01*
X0171360Y0035618D01*
X0171325Y0035616D01*
X0171325Y0035615D02*
X0170992Y0035615D01*
X0170455Y0035615D02*
X0169955Y0035615D01*
X0169955Y0035616D02*
X0169920Y0035618D01*
X0169886Y0035623D01*
X0169852Y0035632D01*
X0169820Y0035645D01*
X0169789Y0035661D01*
X0169759Y0035680D01*
X0169732Y0035702D01*
X0169708Y0035726D01*
X0169686Y0035753D01*
X0169667Y0035783D01*
X0169651Y0035814D01*
X0169638Y0035846D01*
X0169629Y0035880D01*
X0169624Y0035914D01*
X0169622Y0035949D01*
X0169621Y0035949D02*
X0169621Y0036115D01*
X0169622Y0036115D02*
X0169624Y0036150D01*
X0169629Y0036184D01*
X0169638Y0036218D01*
X0169651Y0036250D01*
X0169667Y0036282D01*
X0169686Y0036311D01*
X0169708Y0036338D01*
X0169732Y0036362D01*
X0169759Y0036384D01*
X0169789Y0036403D01*
X0169820Y0036419D01*
X0169852Y0036432D01*
X0169886Y0036441D01*
X0169920Y0036446D01*
X0169955Y0036448D01*
X0175981Y0018799D02*
X0176814Y0018799D01*
X0176814Y0018133D01*
X0176314Y0018133D01*
X0176314Y0018132D02*
X0176279Y0018130D01*
X0176245Y0018125D01*
X0176211Y0018116D01*
X0176179Y0018103D01*
X0176148Y0018087D01*
X0176118Y0018068D01*
X0176091Y0018046D01*
X0176067Y0018022D01*
X0176045Y0017995D01*
X0176026Y0017966D01*
X0176010Y0017934D01*
X0175997Y0017902D01*
X0175988Y0017868D01*
X0175983Y0017834D01*
X0175981Y0017799D01*
X0175981Y0017633D01*
X0175983Y0017598D01*
X0175988Y0017564D01*
X0175997Y0017530D01*
X0176010Y0017498D01*
X0176026Y0017467D01*
X0176045Y0017437D01*
X0176067Y0017410D01*
X0176091Y0017386D01*
X0176118Y0017364D01*
X0176148Y0017345D01*
X0176179Y0017329D01*
X0176211Y0017316D01*
X0176245Y0017307D01*
X0176279Y0017302D01*
X0176314Y0017300D01*
X0176314Y0017299D02*
X0176814Y0017299D01*
X0177741Y0017299D02*
X0177741Y0018799D01*
X0177867Y0018633D02*
X0177896Y0018626D01*
X0177924Y0018615D01*
X0177951Y0018601D01*
X0177976Y0018584D01*
X0177998Y0018564D01*
X0178018Y0018541D01*
X0178035Y0018517D01*
X0178049Y0018490D01*
X0178060Y0018462D01*
X0178067Y0018433D01*
X0178071Y0018403D01*
X0178071Y0018373D01*
X0178067Y0018343D01*
X0178060Y0018313D01*
X0178049Y0018285D01*
X0178035Y0018259D01*
X0178018Y0018234D01*
X0177998Y0018211D01*
X0177975Y0018192D01*
X0177950Y0018174D01*
X0177741Y0018049D01*
X0177533Y0017924D01*
X0177408Y0018549D02*
X0177450Y0018572D01*
X0177493Y0018592D01*
X0177538Y0018609D01*
X0177583Y0018622D01*
X0177630Y0018632D01*
X0177677Y0018639D01*
X0177725Y0018643D01*
X0177772Y0018643D01*
X0177820Y0018639D01*
X0177867Y0018632D01*
X0178075Y0017549D02*
X0178033Y0017526D01*
X0177990Y0017506D01*
X0177945Y0017489D01*
X0177900Y0017476D01*
X0177853Y0017466D01*
X0177806Y0017459D01*
X0177759Y0017455D01*
X0177711Y0017455D01*
X0177663Y0017459D01*
X0177616Y0017466D01*
X0177587Y0017473D01*
X0177559Y0017484D01*
X0177532Y0017498D01*
X0177507Y0017515D01*
X0177485Y0017535D01*
X0177465Y0017558D01*
X0177448Y0017582D01*
X0177434Y0017609D01*
X0177423Y0017637D01*
X0177416Y0017666D01*
X0177412Y0017696D01*
X0177412Y0017726D01*
X0177416Y0017756D01*
X0177423Y0017786D01*
X0177434Y0017814D01*
X0177448Y0017840D01*
X0177465Y0017865D01*
X0177485Y0017888D01*
X0177508Y0017907D01*
X0177533Y0017925D01*
X0178717Y0017716D02*
X0178717Y0018799D01*
X0179550Y0018799D02*
X0179550Y0017716D01*
X0179548Y0017676D01*
X0179542Y0017637D01*
X0179533Y0017599D01*
X0179520Y0017561D01*
X0179504Y0017525D01*
X0179484Y0017491D01*
X0179461Y0017458D01*
X0179435Y0017428D01*
X0179406Y0017401D01*
X0179375Y0017376D01*
X0179342Y0017355D01*
X0179306Y0017337D01*
X0179269Y0017322D01*
X0179231Y0017311D01*
X0179192Y0017303D01*
X0179153Y0017299D01*
X0179113Y0017299D01*
X0179074Y0017303D01*
X0179035Y0017311D01*
X0178997Y0017322D01*
X0178960Y0017337D01*
X0178925Y0017355D01*
X0178891Y0017376D01*
X0178860Y0017401D01*
X0178831Y0017428D01*
X0178805Y0017458D01*
X0178782Y0017491D01*
X0178762Y0017525D01*
X0178746Y0017561D01*
X0178733Y0017599D01*
X0178724Y0017637D01*
X0178718Y0017676D01*
X0178716Y0017716D01*
X0145150Y0018471D02*
X0145150Y0019304D01*
X0143650Y0018888D01*
X0143650Y0017864D02*
X0143650Y0017031D01*
X0144483Y0017739D01*
X0145150Y0017489D02*
X0145148Y0017449D01*
X0145143Y0017409D01*
X0145135Y0017369D01*
X0145123Y0017330D01*
X0145108Y0017293D01*
X0145090Y0017257D01*
X0145069Y0017222D01*
X0145046Y0017189D01*
X0145019Y0017159D01*
X0144990Y0017131D01*
X0144959Y0017105D01*
X0144926Y0017082D01*
X0144891Y0017062D01*
X0144854Y0017044D01*
X0144816Y0017030D01*
X0144483Y0017740D02*
X0144509Y0017765D01*
X0144538Y0017788D01*
X0144568Y0017808D01*
X0144600Y0017825D01*
X0144633Y0017839D01*
X0144668Y0017850D01*
X0144703Y0017858D01*
X0144739Y0017863D01*
X0144775Y0017865D01*
X0144775Y0017864D02*
X0144812Y0017862D01*
X0144848Y0017857D01*
X0144884Y0017848D01*
X0144919Y0017835D01*
X0144952Y0017820D01*
X0144983Y0017801D01*
X0145013Y0017779D01*
X0145040Y0017754D01*
X0145065Y0017727D01*
X0145087Y0017697D01*
X0145106Y0017666D01*
X0145121Y0017633D01*
X0145134Y0017598D01*
X0145143Y0017562D01*
X0145148Y0017526D01*
X0145150Y0017489D01*
X0145150Y0018471D02*
X0144983Y0018471D01*
X0143650Y0016433D02*
X0144317Y0016099D01*
X0144317Y0016016D02*
X0144317Y0015599D01*
X0144316Y0016016D02*
X0144318Y0016056D01*
X0144324Y0016095D01*
X0144333Y0016133D01*
X0144346Y0016171D01*
X0144362Y0016207D01*
X0144382Y0016241D01*
X0144405Y0016274D01*
X0144431Y0016304D01*
X0144460Y0016331D01*
X0144491Y0016356D01*
X0144525Y0016377D01*
X0144560Y0016395D01*
X0144597Y0016410D01*
X0144635Y0016421D01*
X0144674Y0016429D01*
X0144713Y0016433D01*
X0144753Y0016433D01*
X0144792Y0016429D01*
X0144831Y0016421D01*
X0144869Y0016410D01*
X0144906Y0016395D01*
X0144942Y0016377D01*
X0144975Y0016356D01*
X0145006Y0016331D01*
X0145035Y0016304D01*
X0145061Y0016274D01*
X0145084Y0016241D01*
X0145104Y0016207D01*
X0145120Y0016171D01*
X0145133Y0016133D01*
X0145142Y0016095D01*
X0145148Y0016056D01*
X0145150Y0016016D01*
X0145150Y0015599D01*
X0143650Y0015599D01*
X0136182Y0017440D02*
X0136182Y0017856D01*
X0136183Y0017856D02*
X0136181Y0017896D01*
X0136175Y0017935D01*
X0136166Y0017973D01*
X0136153Y0018011D01*
X0136137Y0018047D01*
X0136117Y0018081D01*
X0136094Y0018114D01*
X0136068Y0018144D01*
X0136039Y0018171D01*
X0136008Y0018196D01*
X0135975Y0018217D01*
X0135939Y0018235D01*
X0135902Y0018250D01*
X0135864Y0018261D01*
X0135825Y0018269D01*
X0135786Y0018273D01*
X0135746Y0018273D01*
X0135707Y0018269D01*
X0135668Y0018261D01*
X0135630Y0018250D01*
X0135593Y0018235D01*
X0135558Y0018217D01*
X0135524Y0018196D01*
X0135493Y0018171D01*
X0135464Y0018144D01*
X0135438Y0018114D01*
X0135415Y0018081D01*
X0135395Y0018047D01*
X0135379Y0018011D01*
X0135366Y0017973D01*
X0135357Y0017935D01*
X0135351Y0017896D01*
X0135349Y0017856D01*
X0135349Y0017440D01*
X0135349Y0017940D02*
X0134682Y0018273D01*
X0134682Y0018871D02*
X0134682Y0019705D01*
X0134682Y0020311D02*
X0134682Y0020728D01*
X0134684Y0020768D01*
X0134690Y0020807D01*
X0134699Y0020845D01*
X0134712Y0020883D01*
X0134728Y0020919D01*
X0134748Y0020953D01*
X0134771Y0020986D01*
X0134797Y0021016D01*
X0134826Y0021043D01*
X0134857Y0021068D01*
X0134891Y0021089D01*
X0134926Y0021107D01*
X0134963Y0021122D01*
X0135001Y0021133D01*
X0135040Y0021141D01*
X0135079Y0021145D01*
X0135119Y0021145D01*
X0135158Y0021141D01*
X0135197Y0021133D01*
X0135235Y0021122D01*
X0135272Y0021107D01*
X0135308Y0021089D01*
X0135341Y0021068D01*
X0135372Y0021043D01*
X0135401Y0021016D01*
X0135427Y0020986D01*
X0135450Y0020953D01*
X0135470Y0020919D01*
X0135486Y0020883D01*
X0135499Y0020845D01*
X0135508Y0020807D01*
X0135514Y0020768D01*
X0135516Y0020728D01*
X0135516Y0020811D02*
X0135516Y0020478D01*
X0135516Y0020811D02*
X0135518Y0020846D01*
X0135523Y0020880D01*
X0135532Y0020914D01*
X0135545Y0020946D01*
X0135561Y0020978D01*
X0135580Y0021007D01*
X0135602Y0021034D01*
X0135626Y0021058D01*
X0135653Y0021080D01*
X0135683Y0021099D01*
X0135714Y0021115D01*
X0135746Y0021128D01*
X0135780Y0021137D01*
X0135814Y0021142D01*
X0135849Y0021144D01*
X0135884Y0021142D01*
X0135918Y0021137D01*
X0135952Y0021128D01*
X0135984Y0021115D01*
X0136016Y0021099D01*
X0136045Y0021080D01*
X0136072Y0021058D01*
X0136096Y0021034D01*
X0136118Y0021007D01*
X0136137Y0020978D01*
X0136153Y0020946D01*
X0136166Y0020914D01*
X0136175Y0020880D01*
X0136180Y0020846D01*
X0136182Y0020811D01*
X0136182Y0020311D01*
X0135516Y0019580D02*
X0134682Y0018871D01*
X0135849Y0018871D02*
X0135887Y0018885D01*
X0135924Y0018903D01*
X0135959Y0018923D01*
X0135992Y0018946D01*
X0136023Y0018972D01*
X0136052Y0019000D01*
X0136079Y0019030D01*
X0136102Y0019063D01*
X0136123Y0019098D01*
X0136141Y0019134D01*
X0136156Y0019171D01*
X0136168Y0019210D01*
X0136176Y0019250D01*
X0136181Y0019290D01*
X0136183Y0019330D01*
X0136182Y0019330D02*
X0136180Y0019367D01*
X0136175Y0019403D01*
X0136166Y0019439D01*
X0136153Y0019474D01*
X0136138Y0019507D01*
X0136119Y0019538D01*
X0136097Y0019568D01*
X0136072Y0019595D01*
X0136045Y0019620D01*
X0136015Y0019642D01*
X0135984Y0019661D01*
X0135951Y0019676D01*
X0135916Y0019689D01*
X0135880Y0019698D01*
X0135844Y0019703D01*
X0135807Y0019705D01*
X0135771Y0019703D01*
X0135735Y0019698D01*
X0135700Y0019690D01*
X0135665Y0019679D01*
X0135632Y0019665D01*
X0135600Y0019648D01*
X0135570Y0019628D01*
X0135541Y0019605D01*
X0135515Y0019580D01*
X0136182Y0017440D02*
X0134682Y0017440D01*
X0123565Y0018851D02*
X0123565Y0020351D01*
X0123149Y0020351D01*
X0123149Y0020352D02*
X0123109Y0020350D01*
X0123070Y0020344D01*
X0123032Y0020335D01*
X0122994Y0020322D01*
X0122958Y0020306D01*
X0122924Y0020286D01*
X0122891Y0020263D01*
X0122861Y0020237D01*
X0122834Y0020208D01*
X0122809Y0020177D01*
X0122788Y0020144D01*
X0122770Y0020108D01*
X0122755Y0020071D01*
X0122744Y0020033D01*
X0122736Y0019994D01*
X0122732Y0019955D01*
X0122732Y0019915D01*
X0122736Y0019876D01*
X0122744Y0019837D01*
X0122755Y0019799D01*
X0122770Y0019762D01*
X0122788Y0019727D01*
X0122809Y0019693D01*
X0122834Y0019662D01*
X0122861Y0019633D01*
X0122891Y0019607D01*
X0122924Y0019584D01*
X0122958Y0019564D01*
X0122994Y0019548D01*
X0123032Y0019535D01*
X0123070Y0019526D01*
X0123109Y0019520D01*
X0123149Y0019518D01*
X0123565Y0019518D01*
X0123065Y0019518D02*
X0122732Y0018851D01*
X0122133Y0018851D02*
X0121300Y0018851D01*
X0120693Y0019185D02*
X0120360Y0020351D01*
X0120110Y0019518D02*
X0120110Y0018851D01*
X0119860Y0019185D02*
X0120693Y0019185D01*
X0121425Y0019685D02*
X0122133Y0018851D01*
X0122134Y0020018D02*
X0122120Y0020056D01*
X0122102Y0020093D01*
X0122082Y0020128D01*
X0122059Y0020161D01*
X0122033Y0020192D01*
X0122005Y0020221D01*
X0121975Y0020248D01*
X0121942Y0020271D01*
X0121907Y0020292D01*
X0121871Y0020310D01*
X0121834Y0020325D01*
X0121795Y0020337D01*
X0121755Y0020345D01*
X0121715Y0020350D01*
X0121675Y0020352D01*
X0121675Y0020351D02*
X0121638Y0020349D01*
X0121602Y0020344D01*
X0121566Y0020335D01*
X0121531Y0020322D01*
X0121498Y0020307D01*
X0121467Y0020288D01*
X0121437Y0020266D01*
X0121410Y0020241D01*
X0121385Y0020214D01*
X0121363Y0020184D01*
X0121344Y0020153D01*
X0121329Y0020120D01*
X0121316Y0020085D01*
X0121307Y0020049D01*
X0121302Y0020013D01*
X0121300Y0019976D01*
X0121302Y0019940D01*
X0121307Y0019904D01*
X0121315Y0019869D01*
X0121326Y0019834D01*
X0121340Y0019801D01*
X0121357Y0019769D01*
X0121377Y0019739D01*
X0121400Y0019710D01*
X0121425Y0019684D01*
X0110950Y0010666D02*
X0110950Y0010166D01*
X0110950Y0010666D02*
X0110948Y0010701D01*
X0110943Y0010735D01*
X0110934Y0010769D01*
X0110921Y0010801D01*
X0110905Y0010833D01*
X0110886Y0010862D01*
X0110864Y0010889D01*
X0110840Y0010913D01*
X0110813Y0010935D01*
X0110784Y0010954D01*
X0110752Y0010970D01*
X0110720Y0010983D01*
X0110686Y0010992D01*
X0110652Y0010997D01*
X0110617Y0010999D01*
X0110582Y0010997D01*
X0110548Y0010992D01*
X0110514Y0010983D01*
X0110482Y0010970D01*
X0110451Y0010954D01*
X0110421Y0010935D01*
X0110394Y0010913D01*
X0110370Y0010889D01*
X0110348Y0010862D01*
X0110329Y0010833D01*
X0110313Y0010801D01*
X0110300Y0010769D01*
X0110291Y0010735D01*
X0110286Y0010701D01*
X0110284Y0010666D01*
X0110283Y0010666D02*
X0110283Y0010333D01*
X0110284Y0010583D02*
X0110282Y0010623D01*
X0110276Y0010662D01*
X0110267Y0010700D01*
X0110254Y0010738D01*
X0110238Y0010774D01*
X0110218Y0010808D01*
X0110195Y0010841D01*
X0110169Y0010871D01*
X0110140Y0010898D01*
X0110109Y0010923D01*
X0110076Y0010944D01*
X0110040Y0010962D01*
X0110003Y0010977D01*
X0109965Y0010988D01*
X0109926Y0010996D01*
X0109887Y0011000D01*
X0109847Y0011000D01*
X0109808Y0010996D01*
X0109769Y0010988D01*
X0109731Y0010977D01*
X0109694Y0010962D01*
X0109659Y0010944D01*
X0109625Y0010923D01*
X0109594Y0010898D01*
X0109565Y0010871D01*
X0109539Y0010841D01*
X0109516Y0010808D01*
X0109496Y0010774D01*
X0109480Y0010738D01*
X0109467Y0010700D01*
X0109458Y0010662D01*
X0109452Y0010623D01*
X0109450Y0010583D01*
X0109450Y0010166D01*
X0109450Y0009239D02*
X0110950Y0009239D01*
X0110783Y0009113D02*
X0110776Y0009084D01*
X0110765Y0009056D01*
X0110751Y0009029D01*
X0110734Y0009004D01*
X0110714Y0008982D01*
X0110691Y0008962D01*
X0110667Y0008945D01*
X0110640Y0008931D01*
X0110612Y0008920D01*
X0110583Y0008913D01*
X0110553Y0008909D01*
X0110523Y0008909D01*
X0110493Y0008913D01*
X0110463Y0008920D01*
X0110435Y0008931D01*
X0110409Y0008945D01*
X0110384Y0008962D01*
X0110361Y0008982D01*
X0110342Y0009005D01*
X0110324Y0009030D01*
X0110325Y0009030D02*
X0110200Y0009239D01*
X0110075Y0009447D01*
X0110700Y0009572D02*
X0110723Y0009530D01*
X0110743Y0009487D01*
X0110760Y0009442D01*
X0110773Y0009397D01*
X0110783Y0009350D01*
X0110790Y0009303D01*
X0110794Y0009256D01*
X0110794Y0009208D01*
X0110790Y0009160D01*
X0110783Y0009113D01*
X0109700Y0008905D02*
X0109677Y0008947D01*
X0109657Y0008990D01*
X0109640Y0009035D01*
X0109627Y0009080D01*
X0109617Y0009127D01*
X0109610Y0009174D01*
X0109606Y0009221D01*
X0109606Y0009269D01*
X0109610Y0009317D01*
X0109617Y0009364D01*
X0109624Y0009393D01*
X0109635Y0009421D01*
X0109649Y0009448D01*
X0109666Y0009473D01*
X0109686Y0009495D01*
X0109709Y0009515D01*
X0109733Y0009532D01*
X0109760Y0009546D01*
X0109788Y0009557D01*
X0109817Y0009564D01*
X0109847Y0009568D01*
X0109877Y0009568D01*
X0109907Y0009564D01*
X0109937Y0009557D01*
X0109965Y0009546D01*
X0109991Y0009532D01*
X0110016Y0009515D01*
X0110039Y0009495D01*
X0110058Y0009472D01*
X0110076Y0009447D01*
X0109867Y0008263D02*
X0110950Y0008263D01*
X0110950Y0007430D02*
X0109867Y0007430D01*
X0109827Y0007432D01*
X0109788Y0007438D01*
X0109750Y0007447D01*
X0109712Y0007460D01*
X0109676Y0007476D01*
X0109642Y0007496D01*
X0109609Y0007519D01*
X0109579Y0007545D01*
X0109552Y0007574D01*
X0109527Y0007605D01*
X0109506Y0007638D01*
X0109488Y0007674D01*
X0109473Y0007711D01*
X0109462Y0007749D01*
X0109454Y0007788D01*
X0109450Y0007827D01*
X0109450Y0007867D01*
X0109454Y0007906D01*
X0109462Y0007945D01*
X0109473Y0007983D01*
X0109488Y0008020D01*
X0109506Y0008056D01*
X0109527Y0008089D01*
X0109552Y0008120D01*
X0109579Y0008149D01*
X0109609Y0008175D01*
X0109642Y0008198D01*
X0109676Y0008218D01*
X0109712Y0008234D01*
X0109750Y0008247D01*
X0109788Y0008256D01*
X0109827Y0008262D01*
X0109867Y0008264D01*
X0094142Y0012774D02*
X0093683Y0012524D01*
X0093850Y0011899D02*
X0093900Y0011901D01*
X0093951Y0011906D01*
X0094000Y0011915D01*
X0094049Y0011928D01*
X0094097Y0011944D01*
X0094144Y0011963D01*
X0094189Y0011986D01*
X0094232Y0012012D01*
X0094274Y0012041D01*
X0094313Y0012073D01*
X0094350Y0012107D01*
X0093683Y0012525D02*
X0093654Y0012506D01*
X0093626Y0012483D01*
X0093602Y0012458D01*
X0093580Y0012431D01*
X0093561Y0012401D01*
X0093545Y0012370D01*
X0093532Y0012337D01*
X0093523Y0012303D01*
X0093518Y0012268D01*
X0093516Y0012233D01*
X0093517Y0012233D02*
X0093519Y0012198D01*
X0093524Y0012164D01*
X0093533Y0012130D01*
X0093546Y0012098D01*
X0093562Y0012067D01*
X0093581Y0012037D01*
X0093603Y0012010D01*
X0093627Y0011986D01*
X0093654Y0011964D01*
X0093684Y0011945D01*
X0093715Y0011929D01*
X0093747Y0011916D01*
X0093781Y0011907D01*
X0093815Y0011902D01*
X0093850Y0011900D01*
X0092996Y0011899D02*
X0092663Y0011899D01*
X0092829Y0011899D02*
X0092829Y0013399D01*
X0092663Y0013399D02*
X0092996Y0013399D01*
X0092094Y0013399D02*
X0091261Y0013399D01*
X0091677Y0011899D01*
X0089946Y0012107D02*
X0089920Y0012164D01*
X0089897Y0012222D01*
X0089877Y0012281D01*
X0089860Y0012341D01*
X0089846Y0012402D01*
X0089835Y0012463D01*
X0089827Y0012525D01*
X0089823Y0012587D01*
X0089821Y0012649D01*
X0090654Y0012649D02*
X0090652Y0012711D01*
X0090648Y0012773D01*
X0090640Y0012835D01*
X0090629Y0012896D01*
X0090615Y0012957D01*
X0090598Y0013017D01*
X0090578Y0013076D01*
X0090555Y0013134D01*
X0090529Y0013191D01*
X0090528Y0013191D02*
X0090516Y0013220D01*
X0090502Y0013249D01*
X0090484Y0013275D01*
X0090464Y0013300D01*
X0090441Y0013322D01*
X0090416Y0013342D01*
X0090389Y0013359D01*
X0090361Y0013373D01*
X0090331Y0013384D01*
X0090300Y0013392D01*
X0090269Y0013397D01*
X0090237Y0013399D01*
X0090205Y0013397D01*
X0090174Y0013392D01*
X0090143Y0013384D01*
X0090113Y0013373D01*
X0090085Y0013359D01*
X0090058Y0013342D01*
X0090033Y0013322D01*
X0090010Y0013300D01*
X0089990Y0013275D01*
X0089972Y0013249D01*
X0089958Y0013220D01*
X0089946Y0013191D01*
X0089904Y0013066D02*
X0090571Y0012233D01*
X0090237Y0011900D02*
X0090205Y0011902D01*
X0090174Y0011907D01*
X0090143Y0011915D01*
X0090113Y0011926D01*
X0090085Y0011940D01*
X0090058Y0011957D01*
X0090033Y0011977D01*
X0090010Y0011999D01*
X0089990Y0012024D01*
X0089972Y0012050D01*
X0089958Y0012079D01*
X0089946Y0012108D01*
X0090237Y0011900D02*
X0090269Y0011902D01*
X0090300Y0011907D01*
X0090331Y0011915D01*
X0090361Y0011926D01*
X0090389Y0011940D01*
X0090416Y0011957D01*
X0090441Y0011977D01*
X0090464Y0011999D01*
X0090484Y0012024D01*
X0090502Y0012050D01*
X0090516Y0012079D01*
X0090528Y0012108D01*
X0089821Y0012649D02*
X0089823Y0012711D01*
X0089827Y0012773D01*
X0089835Y0012835D01*
X0089846Y0012896D01*
X0089860Y0012957D01*
X0089877Y0013017D01*
X0089897Y0013076D01*
X0089920Y0013134D01*
X0089946Y0013191D01*
X0090654Y0012649D02*
X0090652Y0012587D01*
X0090648Y0012525D01*
X0090640Y0012463D01*
X0090629Y0012402D01*
X0090615Y0012341D01*
X0090598Y0012281D01*
X0090578Y0012222D01*
X0090555Y0012164D01*
X0090529Y0012107D01*
X0089214Y0011899D02*
X0088381Y0011899D01*
X0087774Y0011899D02*
X0086941Y0011899D01*
X0087357Y0011899D02*
X0087357Y0013399D01*
X0087774Y0013066D01*
X0088506Y0012733D02*
X0089214Y0011899D01*
X0089215Y0013066D02*
X0089201Y0013104D01*
X0089183Y0013141D01*
X0089163Y0013176D01*
X0089140Y0013209D01*
X0089114Y0013240D01*
X0089086Y0013269D01*
X0089056Y0013296D01*
X0089023Y0013319D01*
X0088988Y0013340D01*
X0088952Y0013358D01*
X0088915Y0013373D01*
X0088876Y0013385D01*
X0088836Y0013393D01*
X0088796Y0013398D01*
X0088756Y0013400D01*
X0088756Y0013399D02*
X0088719Y0013397D01*
X0088683Y0013392D01*
X0088647Y0013383D01*
X0088612Y0013370D01*
X0088579Y0013355D01*
X0088548Y0013336D01*
X0088518Y0013314D01*
X0088491Y0013289D01*
X0088466Y0013262D01*
X0088444Y0013232D01*
X0088425Y0013201D01*
X0088410Y0013168D01*
X0088397Y0013133D01*
X0088388Y0013097D01*
X0088383Y0013061D01*
X0088381Y0013024D01*
X0088383Y0012988D01*
X0088388Y0012952D01*
X0088396Y0012917D01*
X0088407Y0012882D01*
X0088421Y0012849D01*
X0088438Y0012817D01*
X0088458Y0012787D01*
X0088481Y0012758D01*
X0088506Y0012732D01*
X0092094Y0013233D02*
X0092094Y0013399D01*
X0094142Y0012774D02*
X0094171Y0012793D01*
X0094199Y0012816D01*
X0094223Y0012841D01*
X0094245Y0012868D01*
X0094264Y0012898D01*
X0094280Y0012929D01*
X0094293Y0012962D01*
X0094302Y0012996D01*
X0094307Y0013031D01*
X0094309Y0013066D01*
X0094308Y0013066D02*
X0094306Y0013101D01*
X0094301Y0013135D01*
X0094292Y0013169D01*
X0094279Y0013201D01*
X0094263Y0013233D01*
X0094244Y0013262D01*
X0094222Y0013289D01*
X0094198Y0013313D01*
X0094171Y0013335D01*
X0094142Y0013354D01*
X0094110Y0013370D01*
X0094078Y0013383D01*
X0094044Y0013392D01*
X0094010Y0013397D01*
X0093975Y0013399D01*
X0093930Y0013397D01*
X0093886Y0013393D01*
X0093842Y0013385D01*
X0093799Y0013374D01*
X0093756Y0013359D01*
X0093715Y0013342D01*
X0093675Y0013322D01*
X0093637Y0013300D01*
X0093600Y0013274D01*
X0089452Y0029684D02*
X0089452Y0031184D01*
X0089036Y0031184D01*
X0088996Y0031182D01*
X0088957Y0031176D01*
X0088919Y0031167D01*
X0088881Y0031154D01*
X0088845Y0031138D01*
X0088811Y0031118D01*
X0088778Y0031095D01*
X0088748Y0031069D01*
X0088721Y0031040D01*
X0088696Y0031009D01*
X0088675Y0030976D01*
X0088657Y0030940D01*
X0088642Y0030903D01*
X0088631Y0030865D01*
X0088623Y0030826D01*
X0088619Y0030787D01*
X0088619Y0030747D01*
X0088623Y0030708D01*
X0088631Y0030669D01*
X0088642Y0030631D01*
X0088657Y0030594D01*
X0088675Y0030559D01*
X0088696Y0030525D01*
X0088721Y0030494D01*
X0088748Y0030465D01*
X0088778Y0030439D01*
X0088811Y0030416D01*
X0088845Y0030396D01*
X0088881Y0030380D01*
X0088919Y0030367D01*
X0088957Y0030358D01*
X0088996Y0030352D01*
X0089036Y0030350D01*
X0089036Y0030351D02*
X0089452Y0030351D01*
X0088952Y0030351D02*
X0088619Y0029684D01*
X0088021Y0029684D02*
X0087187Y0029684D01*
X0086581Y0029684D02*
X0085747Y0029684D01*
X0086581Y0029684D02*
X0085872Y0030517D01*
X0086122Y0031184D02*
X0086162Y0031182D01*
X0086202Y0031177D01*
X0086242Y0031169D01*
X0086281Y0031157D01*
X0086318Y0031142D01*
X0086354Y0031124D01*
X0086389Y0031103D01*
X0086422Y0031080D01*
X0086452Y0031053D01*
X0086480Y0031024D01*
X0086506Y0030993D01*
X0086529Y0030960D01*
X0086549Y0030925D01*
X0086567Y0030888D01*
X0086581Y0030850D01*
X0085872Y0030517D02*
X0085847Y0030543D01*
X0085824Y0030572D01*
X0085804Y0030602D01*
X0085787Y0030634D01*
X0085773Y0030667D01*
X0085762Y0030702D01*
X0085754Y0030737D01*
X0085749Y0030773D01*
X0085747Y0030809D01*
X0085749Y0030846D01*
X0085754Y0030882D01*
X0085763Y0030918D01*
X0085776Y0030953D01*
X0085791Y0030986D01*
X0085810Y0031017D01*
X0085832Y0031047D01*
X0085857Y0031074D01*
X0085884Y0031099D01*
X0085914Y0031121D01*
X0085945Y0031140D01*
X0085978Y0031155D01*
X0086013Y0031168D01*
X0086049Y0031177D01*
X0086085Y0031182D01*
X0086122Y0031184D01*
X0087312Y0030517D02*
X0088021Y0029684D01*
X0088021Y0030850D02*
X0088007Y0030888D01*
X0087989Y0030925D01*
X0087969Y0030960D01*
X0087946Y0030993D01*
X0087920Y0031024D01*
X0087892Y0031053D01*
X0087862Y0031080D01*
X0087829Y0031103D01*
X0087794Y0031124D01*
X0087758Y0031142D01*
X0087721Y0031157D01*
X0087682Y0031169D01*
X0087642Y0031177D01*
X0087602Y0031182D01*
X0087562Y0031184D01*
X0087525Y0031182D01*
X0087489Y0031177D01*
X0087453Y0031168D01*
X0087418Y0031155D01*
X0087385Y0031140D01*
X0087354Y0031121D01*
X0087324Y0031099D01*
X0087297Y0031074D01*
X0087272Y0031047D01*
X0087250Y0031017D01*
X0087231Y0030986D01*
X0087216Y0030953D01*
X0087203Y0030918D01*
X0087194Y0030882D01*
X0087189Y0030846D01*
X0087187Y0030809D01*
X0087189Y0030773D01*
X0087194Y0030737D01*
X0087202Y0030702D01*
X0087213Y0030667D01*
X0087227Y0030634D01*
X0087244Y0030602D01*
X0087264Y0030572D01*
X0087287Y0030543D01*
X0087312Y0030517D01*
X0094674Y0032220D02*
X0096174Y0032220D01*
X0096174Y0032637D01*
X0096172Y0032677D01*
X0096166Y0032716D01*
X0096157Y0032754D01*
X0096144Y0032792D01*
X0096128Y0032828D01*
X0096108Y0032862D01*
X0096085Y0032895D01*
X0096059Y0032925D01*
X0096030Y0032952D01*
X0095999Y0032977D01*
X0095966Y0032998D01*
X0095930Y0033016D01*
X0095893Y0033031D01*
X0095855Y0033042D01*
X0095816Y0033050D01*
X0095777Y0033054D01*
X0095737Y0033054D01*
X0095698Y0033050D01*
X0095659Y0033042D01*
X0095621Y0033031D01*
X0095584Y0033016D01*
X0095549Y0032998D01*
X0095515Y0032977D01*
X0095484Y0032952D01*
X0095455Y0032925D01*
X0095429Y0032895D01*
X0095406Y0032862D01*
X0095386Y0032828D01*
X0095370Y0032792D01*
X0095357Y0032754D01*
X0095348Y0032716D01*
X0095342Y0032677D01*
X0095340Y0032637D01*
X0095341Y0032637D02*
X0095341Y0032220D01*
X0095341Y0032720D02*
X0094674Y0033054D01*
X0094674Y0033652D02*
X0094674Y0034485D01*
X0094674Y0035092D02*
X0094674Y0035592D01*
X0094676Y0035627D01*
X0094681Y0035661D01*
X0094690Y0035695D01*
X0094703Y0035727D01*
X0094719Y0035759D01*
X0094738Y0035788D01*
X0094760Y0035815D01*
X0094784Y0035839D01*
X0094811Y0035861D01*
X0094841Y0035880D01*
X0094872Y0035896D01*
X0094904Y0035909D01*
X0094938Y0035918D01*
X0094972Y0035923D01*
X0095007Y0035925D01*
X0095174Y0035925D01*
X0095209Y0035923D01*
X0095243Y0035918D01*
X0095277Y0035909D01*
X0095309Y0035896D01*
X0095341Y0035880D01*
X0095370Y0035861D01*
X0095397Y0035839D01*
X0095421Y0035815D01*
X0095443Y0035788D01*
X0095462Y0035759D01*
X0095478Y0035727D01*
X0095491Y0035695D01*
X0095500Y0035661D01*
X0095505Y0035627D01*
X0095507Y0035592D01*
X0095507Y0035092D01*
X0096174Y0035092D01*
X0096174Y0035925D01*
X0095507Y0034360D02*
X0094674Y0033652D01*
X0095840Y0033651D02*
X0095878Y0033665D01*
X0095915Y0033683D01*
X0095950Y0033703D01*
X0095983Y0033726D01*
X0096014Y0033752D01*
X0096043Y0033780D01*
X0096070Y0033810D01*
X0096093Y0033843D01*
X0096114Y0033878D01*
X0096132Y0033914D01*
X0096147Y0033951D01*
X0096159Y0033990D01*
X0096167Y0034030D01*
X0096172Y0034070D01*
X0096174Y0034110D01*
X0096172Y0034147D01*
X0096167Y0034183D01*
X0096158Y0034219D01*
X0096145Y0034254D01*
X0096130Y0034287D01*
X0096111Y0034318D01*
X0096089Y0034348D01*
X0096064Y0034375D01*
X0096037Y0034400D01*
X0096007Y0034422D01*
X0095976Y0034441D01*
X0095943Y0034456D01*
X0095908Y0034469D01*
X0095872Y0034478D01*
X0095836Y0034483D01*
X0095799Y0034485D01*
X0095799Y0034486D02*
X0095763Y0034484D01*
X0095727Y0034479D01*
X0095692Y0034471D01*
X0095657Y0034460D01*
X0095624Y0034446D01*
X0095592Y0034429D01*
X0095562Y0034409D01*
X0095533Y0034386D01*
X0095507Y0034361D01*
X0139630Y0036402D02*
X0139630Y0036568D01*
X0139632Y0036603D01*
X0139637Y0036637D01*
X0139646Y0036671D01*
X0139659Y0036703D01*
X0139675Y0036735D01*
X0139694Y0036764D01*
X0139716Y0036791D01*
X0139740Y0036815D01*
X0139767Y0036837D01*
X0139797Y0036856D01*
X0139828Y0036872D01*
X0139860Y0036885D01*
X0139894Y0036894D01*
X0139928Y0036899D01*
X0139963Y0036901D01*
X0139963Y0036902D02*
X0140463Y0036902D01*
X0140463Y0037568D01*
X0139630Y0037568D01*
X0139630Y0036402D02*
X0139632Y0036367D01*
X0139637Y0036333D01*
X0139646Y0036299D01*
X0139659Y0036267D01*
X0139675Y0036236D01*
X0139694Y0036206D01*
X0139716Y0036179D01*
X0139740Y0036155D01*
X0139767Y0036133D01*
X0139797Y0036114D01*
X0139828Y0036098D01*
X0139860Y0036085D01*
X0139894Y0036076D01*
X0139928Y0036071D01*
X0139963Y0036069D01*
X0139963Y0036068D02*
X0140463Y0036068D01*
X0141070Y0036068D02*
X0141903Y0036068D01*
X0141486Y0036068D02*
X0141486Y0037568D01*
X0141903Y0037235D01*
X0142440Y0037568D02*
X0142773Y0037568D01*
X0142808Y0037566D01*
X0142842Y0037561D01*
X0142876Y0037552D01*
X0142908Y0037539D01*
X0142940Y0037523D01*
X0142969Y0037504D01*
X0142996Y0037482D01*
X0143020Y0037458D01*
X0143042Y0037431D01*
X0143061Y0037401D01*
X0143077Y0037370D01*
X0143090Y0037338D01*
X0143099Y0037304D01*
X0143104Y0037270D01*
X0143106Y0037235D01*
X0143107Y0037235D02*
X0143107Y0036402D01*
X0143106Y0036402D02*
X0143104Y0036367D01*
X0143099Y0036333D01*
X0143090Y0036299D01*
X0143077Y0036267D01*
X0143061Y0036236D01*
X0143042Y0036206D01*
X0143020Y0036179D01*
X0142996Y0036155D01*
X0142969Y0036133D01*
X0142940Y0036114D01*
X0142908Y0036098D01*
X0142876Y0036085D01*
X0142842Y0036076D01*
X0142808Y0036071D01*
X0142773Y0036069D01*
X0142773Y0036068D02*
X0142440Y0036068D01*
X0142639Y0043476D02*
X0142972Y0043476D01*
X0142972Y0043477D02*
X0143007Y0043479D01*
X0143041Y0043484D01*
X0143075Y0043493D01*
X0143107Y0043506D01*
X0143139Y0043522D01*
X0143168Y0043541D01*
X0143195Y0043563D01*
X0143219Y0043587D01*
X0143241Y0043614D01*
X0143260Y0043644D01*
X0143276Y0043675D01*
X0143289Y0043707D01*
X0143298Y0043741D01*
X0143303Y0043775D01*
X0143305Y0043810D01*
X0143305Y0044643D01*
X0143303Y0044678D01*
X0143298Y0044712D01*
X0143289Y0044746D01*
X0143276Y0044778D01*
X0143260Y0044809D01*
X0143241Y0044839D01*
X0143219Y0044866D01*
X0143195Y0044890D01*
X0143168Y0044912D01*
X0143139Y0044931D01*
X0143107Y0044947D01*
X0143075Y0044960D01*
X0143041Y0044969D01*
X0143007Y0044974D01*
X0142972Y0044976D01*
X0142639Y0044976D01*
X0142101Y0044643D02*
X0141685Y0044976D01*
X0141685Y0043476D01*
X0142101Y0043476D02*
X0141268Y0043476D01*
X0140661Y0043810D02*
X0140328Y0044976D01*
X0140078Y0044143D02*
X0140078Y0043476D01*
X0139828Y0043810D02*
X0140661Y0043810D01*
X0140586Y0050754D02*
X0140170Y0050754D01*
X0140130Y0050756D01*
X0140091Y0050762D01*
X0140053Y0050771D01*
X0140015Y0050784D01*
X0139979Y0050800D01*
X0139945Y0050820D01*
X0139912Y0050843D01*
X0139882Y0050869D01*
X0139855Y0050898D01*
X0139830Y0050929D01*
X0139809Y0050963D01*
X0139791Y0050998D01*
X0139776Y0051035D01*
X0139765Y0051073D01*
X0139757Y0051112D01*
X0139753Y0051151D01*
X0139753Y0051191D01*
X0139757Y0051230D01*
X0139765Y0051269D01*
X0139776Y0051307D01*
X0139791Y0051344D01*
X0139809Y0051380D01*
X0139830Y0051413D01*
X0139855Y0051444D01*
X0139882Y0051473D01*
X0139912Y0051499D01*
X0139945Y0051522D01*
X0139979Y0051542D01*
X0140015Y0051558D01*
X0140053Y0051571D01*
X0140091Y0051580D01*
X0140130Y0051586D01*
X0140170Y0051588D01*
X0140086Y0051587D02*
X0140420Y0051587D01*
X0140086Y0051588D02*
X0140051Y0051590D01*
X0140017Y0051595D01*
X0139983Y0051604D01*
X0139951Y0051617D01*
X0139920Y0051633D01*
X0139890Y0051652D01*
X0139863Y0051674D01*
X0139839Y0051698D01*
X0139817Y0051725D01*
X0139798Y0051755D01*
X0139782Y0051786D01*
X0139769Y0051818D01*
X0139760Y0051852D01*
X0139755Y0051886D01*
X0139753Y0051921D01*
X0139755Y0051956D01*
X0139760Y0051990D01*
X0139769Y0052024D01*
X0139782Y0052056D01*
X0139798Y0052088D01*
X0139817Y0052117D01*
X0139839Y0052144D01*
X0139863Y0052168D01*
X0139890Y0052190D01*
X0139920Y0052209D01*
X0139951Y0052225D01*
X0139983Y0052238D01*
X0140017Y0052247D01*
X0140051Y0052252D01*
X0140086Y0052254D01*
X0140586Y0052254D01*
X0141610Y0052254D02*
X0141610Y0050754D01*
X0142026Y0050754D02*
X0141193Y0050754D01*
X0142563Y0050754D02*
X0142897Y0050754D01*
X0142932Y0050756D01*
X0142966Y0050761D01*
X0143000Y0050770D01*
X0143032Y0050783D01*
X0143064Y0050799D01*
X0143093Y0050818D01*
X0143120Y0050840D01*
X0143144Y0050864D01*
X0143166Y0050891D01*
X0143185Y0050921D01*
X0143201Y0050952D01*
X0143214Y0050984D01*
X0143223Y0051018D01*
X0143228Y0051052D01*
X0143230Y0051087D01*
X0143230Y0051921D01*
X0143228Y0051956D01*
X0143223Y0051990D01*
X0143214Y0052024D01*
X0143201Y0052056D01*
X0143185Y0052087D01*
X0143166Y0052117D01*
X0143144Y0052144D01*
X0143120Y0052168D01*
X0143093Y0052190D01*
X0143064Y0052209D01*
X0143032Y0052225D01*
X0143000Y0052238D01*
X0142966Y0052247D01*
X0142932Y0052252D01*
X0142897Y0052254D01*
X0142563Y0052254D01*
X0142026Y0051921D02*
X0141610Y0052254D01*
X0104350Y0081633D02*
X0104350Y0082466D01*
X0104348Y0082501D01*
X0104343Y0082535D01*
X0104334Y0082569D01*
X0104321Y0082601D01*
X0104305Y0082632D01*
X0104286Y0082662D01*
X0104264Y0082689D01*
X0104240Y0082713D01*
X0104213Y0082735D01*
X0104184Y0082754D01*
X0104152Y0082770D01*
X0104120Y0082783D01*
X0104086Y0082792D01*
X0104052Y0082797D01*
X0104017Y0082799D01*
X0103517Y0082799D01*
X0103517Y0082133D02*
X0103517Y0081299D01*
X0104017Y0081299D01*
X0104017Y0081300D02*
X0104052Y0081302D01*
X0104086Y0081307D01*
X0104120Y0081316D01*
X0104152Y0081329D01*
X0104184Y0081345D01*
X0104213Y0081364D01*
X0104240Y0081386D01*
X0104264Y0081410D01*
X0104286Y0081437D01*
X0104305Y0081467D01*
X0104321Y0081498D01*
X0104334Y0081530D01*
X0104343Y0081564D01*
X0104348Y0081598D01*
X0104350Y0081633D01*
X0103767Y0082133D02*
X0103517Y0082133D01*
X0102795Y0081966D02*
X0102378Y0081966D01*
X0102338Y0081968D01*
X0102299Y0081974D01*
X0102261Y0081983D01*
X0102223Y0081996D01*
X0102187Y0082012D01*
X0102153Y0082032D01*
X0102120Y0082055D01*
X0102090Y0082081D01*
X0102063Y0082110D01*
X0102038Y0082141D01*
X0102017Y0082175D01*
X0101999Y0082210D01*
X0101984Y0082247D01*
X0101973Y0082285D01*
X0101965Y0082324D01*
X0101961Y0082363D01*
X0101961Y0082403D01*
X0101965Y0082442D01*
X0101973Y0082481D01*
X0101984Y0082519D01*
X0101999Y0082556D01*
X0102017Y0082592D01*
X0102038Y0082625D01*
X0102063Y0082656D01*
X0102090Y0082685D01*
X0102120Y0082711D01*
X0102153Y0082734D01*
X0102187Y0082754D01*
X0102223Y0082770D01*
X0102261Y0082783D01*
X0102299Y0082792D01*
X0102338Y0082798D01*
X0102378Y0082800D01*
X0102378Y0082799D02*
X0102795Y0082799D01*
X0102795Y0081299D01*
X0101262Y0082174D02*
X0100803Y0081924D01*
X0100970Y0081299D02*
X0101020Y0081301D01*
X0101071Y0081306D01*
X0101120Y0081315D01*
X0101169Y0081328D01*
X0101217Y0081344D01*
X0101264Y0081363D01*
X0101309Y0081386D01*
X0101352Y0081412D01*
X0101394Y0081441D01*
X0101433Y0081473D01*
X0101470Y0081507D01*
X0100803Y0081925D02*
X0100774Y0081906D01*
X0100746Y0081883D01*
X0100722Y0081858D01*
X0100700Y0081831D01*
X0100681Y0081801D01*
X0100665Y0081770D01*
X0100652Y0081737D01*
X0100643Y0081703D01*
X0100638Y0081668D01*
X0100636Y0081633D01*
X0100637Y0081633D02*
X0100639Y0081598D01*
X0100644Y0081564D01*
X0100653Y0081530D01*
X0100666Y0081498D01*
X0100682Y0081467D01*
X0100701Y0081437D01*
X0100723Y0081410D01*
X0100747Y0081386D01*
X0100774Y0081364D01*
X0100804Y0081345D01*
X0100835Y0081329D01*
X0100867Y0081316D01*
X0100901Y0081307D01*
X0100935Y0081302D01*
X0100970Y0081300D01*
X0100720Y0082674D02*
X0100757Y0082700D01*
X0100795Y0082722D01*
X0100835Y0082742D01*
X0100876Y0082759D01*
X0100919Y0082774D01*
X0100962Y0082785D01*
X0101006Y0082793D01*
X0101050Y0082797D01*
X0101095Y0082799D01*
X0101130Y0082797D01*
X0101164Y0082792D01*
X0101198Y0082783D01*
X0101230Y0082770D01*
X0101262Y0082754D01*
X0101291Y0082735D01*
X0101318Y0082713D01*
X0101342Y0082689D01*
X0101364Y0082662D01*
X0101383Y0082633D01*
X0101399Y0082601D01*
X0101412Y0082569D01*
X0101421Y0082535D01*
X0101426Y0082501D01*
X0101428Y0082466D01*
X0101429Y0082466D02*
X0101427Y0082431D01*
X0101422Y0082396D01*
X0101413Y0082362D01*
X0101400Y0082329D01*
X0101384Y0082298D01*
X0101365Y0082268D01*
X0101343Y0082241D01*
X0101319Y0082216D01*
X0101291Y0082193D01*
X0101262Y0082174D01*
X0134205Y0097173D02*
X0135705Y0097173D01*
X0135705Y0097590D01*
X0135703Y0097630D01*
X0135697Y0097669D01*
X0135688Y0097707D01*
X0135675Y0097745D01*
X0135659Y0097781D01*
X0135639Y0097815D01*
X0135616Y0097848D01*
X0135590Y0097878D01*
X0135561Y0097905D01*
X0135530Y0097930D01*
X0135497Y0097951D01*
X0135461Y0097969D01*
X0135424Y0097984D01*
X0135386Y0097995D01*
X0135347Y0098003D01*
X0135308Y0098007D01*
X0135268Y0098007D01*
X0135229Y0098003D01*
X0135190Y0097995D01*
X0135152Y0097984D01*
X0135115Y0097969D01*
X0135080Y0097951D01*
X0135046Y0097930D01*
X0135015Y0097905D01*
X0134986Y0097878D01*
X0134960Y0097848D01*
X0134937Y0097815D01*
X0134917Y0097781D01*
X0134901Y0097745D01*
X0134888Y0097707D01*
X0134879Y0097669D01*
X0134873Y0097630D01*
X0134871Y0097590D01*
X0134871Y0097173D01*
X0134871Y0097673D02*
X0134205Y0098007D01*
X0134205Y0098605D02*
X0134205Y0099439D01*
X0134538Y0100129D02*
X0135371Y0100795D01*
X0135497Y0100753D02*
X0135526Y0100741D01*
X0135555Y0100727D01*
X0135581Y0100709D01*
X0135606Y0100689D01*
X0135628Y0100666D01*
X0135648Y0100641D01*
X0135665Y0100614D01*
X0135679Y0100586D01*
X0135690Y0100556D01*
X0135698Y0100525D01*
X0135703Y0100494D01*
X0135705Y0100462D01*
X0135703Y0100430D01*
X0135698Y0100399D01*
X0135690Y0100368D01*
X0135679Y0100338D01*
X0135665Y0100310D01*
X0135648Y0100283D01*
X0135628Y0100258D01*
X0135606Y0100235D01*
X0135581Y0100215D01*
X0135555Y0100197D01*
X0135526Y0100183D01*
X0135497Y0100171D01*
X0135497Y0100753D02*
X0135440Y0100779D01*
X0135382Y0100802D01*
X0135323Y0100822D01*
X0135263Y0100839D01*
X0135202Y0100853D01*
X0135141Y0100864D01*
X0135079Y0100872D01*
X0135017Y0100876D01*
X0134955Y0100878D01*
X0134955Y0100045D02*
X0135017Y0100047D01*
X0135079Y0100051D01*
X0135141Y0100059D01*
X0135202Y0100070D01*
X0135263Y0100084D01*
X0135323Y0100101D01*
X0135382Y0100121D01*
X0135440Y0100144D01*
X0135497Y0100170D01*
X0134955Y0100878D02*
X0134893Y0100876D01*
X0134831Y0100872D01*
X0134769Y0100864D01*
X0134708Y0100853D01*
X0134647Y0100839D01*
X0134587Y0100822D01*
X0134528Y0100802D01*
X0134470Y0100779D01*
X0134413Y0100753D01*
X0134205Y0100462D02*
X0134207Y0100430D01*
X0134212Y0100399D01*
X0134220Y0100368D01*
X0134231Y0100338D01*
X0134245Y0100310D01*
X0134262Y0100283D01*
X0134282Y0100258D01*
X0134304Y0100235D01*
X0134329Y0100215D01*
X0134355Y0100197D01*
X0134384Y0100183D01*
X0134413Y0100171D01*
X0134205Y0100462D02*
X0134207Y0100494D01*
X0134212Y0100525D01*
X0134220Y0100556D01*
X0134231Y0100586D01*
X0134245Y0100614D01*
X0134262Y0100641D01*
X0134282Y0100666D01*
X0134304Y0100689D01*
X0134329Y0100709D01*
X0134355Y0100727D01*
X0134384Y0100741D01*
X0134413Y0100753D01*
X0134413Y0100170D02*
X0134470Y0100144D01*
X0134528Y0100121D01*
X0134587Y0100101D01*
X0134647Y0100084D01*
X0134708Y0100070D01*
X0134769Y0100059D01*
X0134831Y0100051D01*
X0134893Y0100047D01*
X0134955Y0100045D01*
X0135038Y0099314D02*
X0134205Y0098605D01*
X0135371Y0098605D02*
X0135409Y0098619D01*
X0135446Y0098637D01*
X0135481Y0098657D01*
X0135514Y0098680D01*
X0135545Y0098706D01*
X0135574Y0098734D01*
X0135601Y0098764D01*
X0135624Y0098797D01*
X0135645Y0098832D01*
X0135663Y0098868D01*
X0135678Y0098905D01*
X0135690Y0098944D01*
X0135698Y0098984D01*
X0135703Y0099024D01*
X0135705Y0099064D01*
X0135703Y0099101D01*
X0135698Y0099137D01*
X0135689Y0099173D01*
X0135676Y0099208D01*
X0135661Y0099241D01*
X0135642Y0099272D01*
X0135620Y0099302D01*
X0135595Y0099329D01*
X0135568Y0099354D01*
X0135538Y0099376D01*
X0135507Y0099395D01*
X0135474Y0099410D01*
X0135439Y0099423D01*
X0135403Y0099432D01*
X0135367Y0099437D01*
X0135330Y0099439D01*
X0135294Y0099437D01*
X0135258Y0099432D01*
X0135223Y0099424D01*
X0135188Y0099413D01*
X0135155Y0099399D01*
X0135123Y0099382D01*
X0135093Y0099362D01*
X0135064Y0099339D01*
X0135038Y0099314D01*
X0150609Y0193499D02*
X0151276Y0193499D01*
X0151276Y0194999D01*
X0151857Y0194999D02*
X0152524Y0194999D01*
X0152524Y0193499D01*
X0151857Y0193499D01*
X0152024Y0194333D02*
X0152524Y0194333D01*
X0153229Y0194999D02*
X0153229Y0193499D01*
X0154062Y0194999D01*
X0154062Y0193499D01*
X0154634Y0193499D02*
X0155134Y0194999D01*
X0155634Y0193499D01*
X0155509Y0193874D02*
X0154759Y0193874D01*
X0156507Y0194166D02*
X0156923Y0194166D01*
X0156507Y0194166D02*
X0156467Y0194168D01*
X0156428Y0194174D01*
X0156390Y0194183D01*
X0156352Y0194196D01*
X0156316Y0194212D01*
X0156282Y0194232D01*
X0156249Y0194255D01*
X0156219Y0194281D01*
X0156192Y0194310D01*
X0156167Y0194341D01*
X0156146Y0194375D01*
X0156128Y0194410D01*
X0156113Y0194447D01*
X0156102Y0194485D01*
X0156094Y0194524D01*
X0156090Y0194563D01*
X0156090Y0194603D01*
X0156094Y0194642D01*
X0156102Y0194681D01*
X0156113Y0194719D01*
X0156128Y0194756D01*
X0156146Y0194792D01*
X0156167Y0194825D01*
X0156192Y0194856D01*
X0156219Y0194885D01*
X0156249Y0194911D01*
X0156282Y0194934D01*
X0156316Y0194954D01*
X0156352Y0194970D01*
X0156390Y0194983D01*
X0156428Y0194992D01*
X0156467Y0194998D01*
X0156507Y0195000D01*
X0156507Y0194999D02*
X0156923Y0194999D01*
X0156923Y0193499D01*
X0157536Y0193333D02*
X0158203Y0193333D01*
X0158741Y0193499D02*
X0159074Y0194166D01*
X0159157Y0194166D02*
X0159574Y0194166D01*
X0159157Y0194166D02*
X0159117Y0194168D01*
X0159078Y0194174D01*
X0159040Y0194183D01*
X0159002Y0194196D01*
X0158966Y0194212D01*
X0158932Y0194232D01*
X0158899Y0194255D01*
X0158869Y0194281D01*
X0158842Y0194310D01*
X0158817Y0194341D01*
X0158796Y0194375D01*
X0158778Y0194410D01*
X0158763Y0194447D01*
X0158752Y0194485D01*
X0158744Y0194524D01*
X0158740Y0194563D01*
X0158740Y0194603D01*
X0158744Y0194642D01*
X0158752Y0194681D01*
X0158763Y0194719D01*
X0158778Y0194756D01*
X0158796Y0194792D01*
X0158817Y0194825D01*
X0158842Y0194856D01*
X0158869Y0194885D01*
X0158899Y0194911D01*
X0158932Y0194934D01*
X0158966Y0194954D01*
X0159002Y0194970D01*
X0159040Y0194983D01*
X0159078Y0194992D01*
X0159117Y0194998D01*
X0159157Y0195000D01*
X0159157Y0194999D02*
X0159574Y0194999D01*
X0159574Y0193499D01*
X0160154Y0193499D02*
X0160654Y0194999D01*
X0161154Y0193499D01*
X0161029Y0193874D02*
X0160279Y0193874D01*
X0161601Y0193499D02*
X0162268Y0193499D01*
X0162268Y0194999D01*
X0161601Y0194999D01*
X0161768Y0194333D02*
X0162268Y0194333D01*
X0163250Y0194166D02*
X0162917Y0193499D01*
X0163333Y0194166D02*
X0163750Y0194166D01*
X0163333Y0194166D02*
X0163293Y0194168D01*
X0163254Y0194174D01*
X0163216Y0194183D01*
X0163178Y0194196D01*
X0163142Y0194212D01*
X0163108Y0194232D01*
X0163075Y0194255D01*
X0163045Y0194281D01*
X0163018Y0194310D01*
X0162993Y0194341D01*
X0162972Y0194375D01*
X0162954Y0194410D01*
X0162939Y0194447D01*
X0162928Y0194485D01*
X0162920Y0194524D01*
X0162916Y0194563D01*
X0162916Y0194603D01*
X0162920Y0194642D01*
X0162928Y0194681D01*
X0162939Y0194719D01*
X0162954Y0194756D01*
X0162972Y0194792D01*
X0162993Y0194825D01*
X0163018Y0194856D01*
X0163045Y0194885D01*
X0163075Y0194911D01*
X0163108Y0194934D01*
X0163142Y0194954D01*
X0163178Y0194970D01*
X0163216Y0194983D01*
X0163254Y0194992D01*
X0163293Y0194998D01*
X0163333Y0195000D01*
X0163333Y0194999D02*
X0163750Y0194999D01*
X0163750Y0193499D01*
D12*
X0088362Y0093699D02*
X0088362Y0093458D01*
X0063214Y0048557D02*
X0062974Y0048557D01*
X0133367Y0044864D02*
X0133367Y0044624D01*
X0133322Y0037394D02*
X0133322Y0037154D01*
X0133402Y0052019D02*
X0133402Y0052259D01*
X0163009Y0050059D02*
X0163009Y0049819D01*
X0163051Y0043426D02*
X0163051Y0043186D01*
X0163055Y0036792D02*
X0163055Y0036552D01*
X0163158Y0056537D02*
X0163158Y0056777D01*
X0163169Y0062683D02*
X0163169Y0062923D01*
D13*
X0151709Y0074051D02*
X0151709Y0076413D01*
X0146984Y0076413D02*
X0146984Y0074051D01*
D14*
X0143510Y0086831D02*
X0154928Y0086831D01*
X0155617Y0087129D02*
X0155619Y0087148D01*
X0155625Y0087167D01*
X0155634Y0087184D01*
X0155646Y0087199D01*
X0155661Y0087211D01*
X0155678Y0087220D01*
X0155697Y0087226D01*
X0155716Y0087228D01*
X0155735Y0087226D01*
X0155754Y0087220D01*
X0155771Y0087211D01*
X0155786Y0087199D01*
X0155798Y0087184D01*
X0155807Y0087167D01*
X0155813Y0087148D01*
X0155815Y0087129D01*
X0155813Y0087110D01*
X0155807Y0087091D01*
X0155798Y0087074D01*
X0155786Y0087059D01*
X0155771Y0087047D01*
X0155754Y0087038D01*
X0155735Y0087032D01*
X0155716Y0087030D01*
X0155697Y0087032D01*
X0155678Y0087038D01*
X0155661Y0087047D01*
X0155646Y0087059D01*
X0155634Y0087074D01*
X0155625Y0087091D01*
X0155619Y0087110D01*
X0155617Y0087129D01*
X0155563Y0088204D02*
X0155563Y0100015D01*
X0154879Y0101338D02*
X0143462Y0101338D01*
X0142924Y0099819D02*
X0142924Y0088008D01*
X0132909Y0089740D02*
X0127122Y0089740D01*
X0127122Y0095527D01*
X0132909Y0095527D01*
X0132909Y0089740D01*
X0127304Y0094937D02*
X0127630Y0095284D01*
X0121945Y0079956D02*
X0082575Y0079956D01*
X0082575Y0040586D01*
X0121945Y0040586D01*
X0121945Y0079956D01*
X0182642Y0141403D02*
X0182642Y0143372D01*
X0182642Y0141403D02*
X0009413Y0141403D01*
X0009413Y0143372D01*
X0021224Y0168962D02*
X0033035Y0168962D01*
X0009413Y0194553D02*
X0009413Y0196521D01*
X0182642Y0196521D01*
X0182642Y0194553D01*
X0164925Y0174868D02*
X0164925Y0163057D01*
X0159020Y0168962D02*
X0170831Y0168962D01*
X0160370Y0016374D02*
X0160370Y0004563D01*
X0195803Y0004563D01*
X0195803Y0016374D01*
X0160370Y0016374D01*
X0168244Y0010468D02*
X0168246Y0010556D01*
X0168252Y0010644D01*
X0168262Y0010732D01*
X0168276Y0010820D01*
X0168293Y0010906D01*
X0168315Y0010992D01*
X0168340Y0011076D01*
X0168370Y0011160D01*
X0168402Y0011242D01*
X0168439Y0011322D01*
X0168479Y0011401D01*
X0168523Y0011478D01*
X0168570Y0011553D01*
X0168620Y0011625D01*
X0168674Y0011696D01*
X0168730Y0011763D01*
X0168790Y0011829D01*
X0168852Y0011891D01*
X0168918Y0011951D01*
X0168985Y0012007D01*
X0169056Y0012061D01*
X0169128Y0012111D01*
X0169203Y0012158D01*
X0169280Y0012202D01*
X0169359Y0012242D01*
X0169439Y0012279D01*
X0169521Y0012311D01*
X0169605Y0012341D01*
X0169689Y0012366D01*
X0169775Y0012388D01*
X0169861Y0012405D01*
X0169949Y0012419D01*
X0170037Y0012429D01*
X0170125Y0012435D01*
X0170213Y0012437D01*
X0170301Y0012435D01*
X0170389Y0012429D01*
X0170477Y0012419D01*
X0170565Y0012405D01*
X0170651Y0012388D01*
X0170737Y0012366D01*
X0170821Y0012341D01*
X0170905Y0012311D01*
X0170987Y0012279D01*
X0171067Y0012242D01*
X0171146Y0012202D01*
X0171223Y0012158D01*
X0171298Y0012111D01*
X0171370Y0012061D01*
X0171441Y0012007D01*
X0171508Y0011951D01*
X0171574Y0011891D01*
X0171636Y0011829D01*
X0171696Y0011763D01*
X0171752Y0011696D01*
X0171806Y0011625D01*
X0171856Y0011553D01*
X0171903Y0011478D01*
X0171947Y0011401D01*
X0171987Y0011322D01*
X0172024Y0011242D01*
X0172056Y0011160D01*
X0172086Y0011076D01*
X0172111Y0010992D01*
X0172133Y0010906D01*
X0172150Y0010820D01*
X0172164Y0010732D01*
X0172174Y0010644D01*
X0172180Y0010556D01*
X0172182Y0010468D01*
X0172180Y0010380D01*
X0172174Y0010292D01*
X0172164Y0010204D01*
X0172150Y0010116D01*
X0172133Y0010030D01*
X0172111Y0009944D01*
X0172086Y0009860D01*
X0172056Y0009776D01*
X0172024Y0009694D01*
X0171987Y0009614D01*
X0171947Y0009535D01*
X0171903Y0009458D01*
X0171856Y0009383D01*
X0171806Y0009311D01*
X0171752Y0009240D01*
X0171696Y0009173D01*
X0171636Y0009107D01*
X0171574Y0009045D01*
X0171508Y0008985D01*
X0171441Y0008929D01*
X0171370Y0008875D01*
X0171298Y0008825D01*
X0171223Y0008778D01*
X0171146Y0008734D01*
X0171067Y0008694D01*
X0170987Y0008657D01*
X0170905Y0008625D01*
X0170821Y0008595D01*
X0170737Y0008570D01*
X0170651Y0008548D01*
X0170565Y0008531D01*
X0170477Y0008517D01*
X0170389Y0008507D01*
X0170301Y0008501D01*
X0170213Y0008499D01*
X0170125Y0008501D01*
X0170037Y0008507D01*
X0169949Y0008517D01*
X0169861Y0008531D01*
X0169775Y0008548D01*
X0169689Y0008570D01*
X0169605Y0008595D01*
X0169521Y0008625D01*
X0169439Y0008657D01*
X0169359Y0008694D01*
X0169280Y0008734D01*
X0169203Y0008778D01*
X0169128Y0008825D01*
X0169056Y0008875D01*
X0168985Y0008929D01*
X0168918Y0008985D01*
X0168852Y0009045D01*
X0168790Y0009107D01*
X0168730Y0009173D01*
X0168674Y0009240D01*
X0168620Y0009311D01*
X0168570Y0009383D01*
X0168523Y0009458D01*
X0168479Y0009535D01*
X0168439Y0009614D01*
X0168402Y0009694D01*
X0168370Y0009776D01*
X0168340Y0009860D01*
X0168315Y0009944D01*
X0168293Y0010030D01*
X0168276Y0010116D01*
X0168262Y0010204D01*
X0168252Y0010292D01*
X0168246Y0010380D01*
X0168244Y0010468D01*
X0108841Y0013301D02*
X0108841Y0005427D01*
X0100967Y0005427D01*
X0100967Y0013301D01*
X0108841Y0013301D01*
D15*
X0136213Y0071443D02*
X0136213Y0071837D01*
X0137787Y0071837D01*
X0137787Y0071443D01*
X0136213Y0071443D01*
X0105961Y0099130D02*
X0105961Y0100941D01*
X0104740Y0101861D01*
X0105961Y0102752D02*
X0105961Y0100941D01*
X0105900Y0100841D02*
X0104740Y0100081D01*
X0083363Y0078382D02*
X0083365Y0078438D01*
X0083371Y0078493D01*
X0083381Y0078547D01*
X0083394Y0078601D01*
X0083412Y0078654D01*
X0083433Y0078705D01*
X0083457Y0078755D01*
X0083485Y0078803D01*
X0083517Y0078849D01*
X0083551Y0078893D01*
X0083589Y0078934D01*
X0083629Y0078972D01*
X0083672Y0079007D01*
X0083717Y0079039D01*
X0083765Y0079068D01*
X0083814Y0079094D01*
X0083865Y0079116D01*
X0083917Y0079134D01*
X0083971Y0079148D01*
X0084026Y0079159D01*
X0084081Y0079166D01*
X0084136Y0079169D01*
X0084192Y0079168D01*
X0084247Y0079163D01*
X0084302Y0079154D01*
X0084356Y0079142D01*
X0084409Y0079125D01*
X0084461Y0079105D01*
X0084511Y0079081D01*
X0084559Y0079054D01*
X0084606Y0079024D01*
X0084650Y0078990D01*
X0084692Y0078953D01*
X0084730Y0078913D01*
X0084767Y0078871D01*
X0084800Y0078826D01*
X0084829Y0078780D01*
X0084856Y0078731D01*
X0084878Y0078680D01*
X0084898Y0078628D01*
X0084913Y0078574D01*
X0084925Y0078520D01*
X0084933Y0078465D01*
X0084937Y0078410D01*
X0084937Y0078354D01*
X0084933Y0078299D01*
X0084925Y0078244D01*
X0084913Y0078190D01*
X0084898Y0078136D01*
X0084878Y0078084D01*
X0084856Y0078033D01*
X0084829Y0077984D01*
X0084800Y0077938D01*
X0084767Y0077893D01*
X0084730Y0077851D01*
X0084692Y0077811D01*
X0084650Y0077774D01*
X0084606Y0077740D01*
X0084559Y0077710D01*
X0084511Y0077683D01*
X0084461Y0077659D01*
X0084409Y0077639D01*
X0084356Y0077622D01*
X0084302Y0077610D01*
X0084247Y0077601D01*
X0084192Y0077596D01*
X0084136Y0077595D01*
X0084081Y0077598D01*
X0084026Y0077605D01*
X0083971Y0077616D01*
X0083917Y0077630D01*
X0083865Y0077648D01*
X0083814Y0077670D01*
X0083765Y0077696D01*
X0083717Y0077725D01*
X0083672Y0077757D01*
X0083629Y0077792D01*
X0083589Y0077830D01*
X0083551Y0077871D01*
X0083517Y0077915D01*
X0083485Y0077961D01*
X0083457Y0078009D01*
X0083433Y0078059D01*
X0083412Y0078110D01*
X0083394Y0078163D01*
X0083381Y0078217D01*
X0083371Y0078271D01*
X0083365Y0078326D01*
X0083363Y0078382D01*
D16*
X0088362Y0089130D03*
X0105724Y0091413D03*
X0117929Y0091374D03*
X0134583Y0078972D03*
D17*
X0131000Y0070249D03*
X0138098Y0095495D03*
X0077378Y0067200D03*
D18*
X0089197Y0034234D03*
X0121820Y0022763D03*
X0176200Y0075249D03*
D19*
X0132072Y0019303D03*
X0140200Y0013849D03*
X0099224Y0032475D03*
D20*
X0103428Y0012809D02*
X0103428Y0008872D01*
X0106381Y0008872D01*
X0106381Y0012809D01*
M02*
