G75*
%MOIN*%
%OFA0B0*%
%FSLAX25Y25*%
%IPPOS*%
%LPD*%
%AMOC8*
5,1,8,0,0,1.08239X$1,22.5*
%
%ADD10R,0.02756X0.03543*%
%ADD11R,0.04724X0.03150*%
%ADD12R,1.92913X0.19685*%
%ADD13R,1.92913X0.09843*%
%ADD14C,0.02362*%
%ADD15R,0.02756X0.01417*%
%ADD16R,0.01417X0.02756*%
%ADD17R,0.03150X0.03150*%
%ADD18R,0.04331X0.03937*%
%ADD19R,0.03543X0.02756*%
%ADD20C,0.01063*%
%ADD21R,0.03937X0.03937*%
%ADD22R,0.03937X0.07874*%
D10*
X0086198Y0089130D03*
X0086198Y0093578D03*
X0091316Y0093578D03*
X0091316Y0089130D03*
X0103561Y0091413D03*
X0108679Y0091413D03*
X0115765Y0091374D03*
X0120883Y0091374D03*
X0132419Y0078972D03*
X0137537Y0078972D03*
X0136396Y0047841D03*
X0136356Y0043539D03*
X0136321Y0039344D03*
X0136276Y0035074D03*
X0131158Y0035074D03*
X0131203Y0039344D03*
X0131238Y0043539D03*
X0131278Y0047841D03*
X0143205Y0047803D03*
X0143246Y0043539D03*
X0143287Y0039306D03*
X0143291Y0035072D03*
X0148409Y0035072D03*
X0148405Y0039306D03*
X0148364Y0043539D03*
X0148323Y0047803D03*
D11*
X0149742Y0071689D03*
X0149742Y0078775D03*
D12*
X0099677Y0119286D03*
D13*
X0099677Y0191530D03*
D14*
X0096749Y0072082D03*
X0090844Y0072082D03*
X0090844Y0066177D03*
X0096749Y0066177D03*
X0096749Y0060271D03*
X0090844Y0060271D03*
X0090844Y0054366D03*
X0096749Y0054366D03*
X0096749Y0048460D03*
X0090844Y0048460D03*
X0102655Y0048460D03*
X0108561Y0048460D03*
X0114466Y0048460D03*
X0114466Y0054366D03*
X0114466Y0060271D03*
X0108561Y0060271D03*
X0108561Y0054366D03*
X0102655Y0054366D03*
X0102655Y0060271D03*
X0102655Y0066177D03*
X0102655Y0072082D03*
X0108561Y0072082D03*
X0114466Y0072082D03*
X0114466Y0066177D03*
X0108561Y0066177D03*
D15*
X0121120Y0066571D03*
X0121120Y0069720D03*
X0121120Y0072870D03*
X0121120Y0076019D03*
X0121120Y0063421D03*
X0121120Y0060271D03*
X0121120Y0057122D03*
X0121120Y0053972D03*
X0121120Y0050823D03*
X0121120Y0047673D03*
X0121120Y0044523D03*
X0084190Y0044523D03*
X0084190Y0047673D03*
X0084190Y0050823D03*
X0084190Y0053972D03*
X0084190Y0057122D03*
X0084190Y0060271D03*
X0084190Y0063421D03*
X0084190Y0066571D03*
X0084190Y0069720D03*
X0084190Y0072870D03*
X0084190Y0076019D03*
D16*
X0086907Y0078736D03*
X0090057Y0078736D03*
X0093206Y0078736D03*
X0096356Y0078736D03*
X0099505Y0078736D03*
X0102655Y0078736D03*
X0105805Y0078736D03*
X0108954Y0078736D03*
X0112104Y0078736D03*
X0115253Y0078736D03*
X0118403Y0078736D03*
X0118403Y0041807D03*
X0115253Y0041807D03*
X0112104Y0041807D03*
X0108954Y0041807D03*
X0105805Y0041807D03*
X0102655Y0041807D03*
X0099505Y0041807D03*
X0096356Y0041807D03*
X0093206Y0041807D03*
X0090057Y0041807D03*
X0086907Y0041807D03*
D17*
X0134545Y0055941D03*
X0134545Y0061846D03*
X0108639Y0100941D03*
X0102734Y0100941D03*
D18*
X0122699Y0021302D03*
X0129392Y0021302D03*
D19*
X0077773Y0064641D03*
X0077773Y0069760D03*
X0129230Y0061925D03*
X0129230Y0056807D03*
X0138493Y0092936D03*
X0138493Y0098054D03*
D20*
X0132379Y0094602D03*
X0130411Y0094602D03*
X0130411Y0092634D03*
X0132379Y0092634D03*
X0132379Y0090665D03*
X0130411Y0090665D03*
X0128442Y0090665D03*
X0128442Y0092634D03*
X0128442Y0094602D03*
D21*
X0145923Y0098736D03*
X0153403Y0098736D03*
X0153403Y0089287D03*
X0145923Y0089287D03*
D22*
X0164702Y0010468D03*
X0192261Y0010468D03*
M02*
