G75*
%MOIN*%
%OFA0B0*%
%FSLAX25Y25*%
%IPPOS*%
%LPD*%
%AMOC8*
5,1,8,0,0,1.08239X$1,22.5*
%
%ADD10C,0.02178*%
%ADD11C,0.06000*%
%ADD12C,0.00600*%
%ADD13C,0.01000*%
%ADD14C,0.01800*%
D10*
X0007699Y0011479D03*
X0007699Y0019353D03*
X0007699Y0027227D03*
X0007699Y0035101D03*
X0007699Y0042975D03*
X0007699Y0050849D03*
X0007699Y0058723D03*
X0007699Y0066597D03*
X0007699Y0074471D03*
X0007699Y0082345D03*
X0031321Y0074471D03*
X0031321Y0066597D03*
X0031321Y0058723D03*
X0031321Y0050849D03*
X0031321Y0042975D03*
X0031321Y0035101D03*
X0031321Y0027227D03*
X0031321Y0019353D03*
X0031321Y0011479D03*
X0053713Y0025043D03*
X0053631Y0036452D03*
X0053342Y0047703D03*
X0053316Y0057580D03*
X0053316Y0067865D03*
X0053120Y0076877D03*
X0052888Y0091104D03*
X0068691Y0103291D03*
X0079537Y0087655D03*
X0090057Y0083716D03*
X0096838Y0083216D03*
X0097291Y0089130D03*
X0103954Y0096728D03*
X0111401Y0097500D03*
X0116940Y0101640D03*
X0123089Y0101966D03*
X0135374Y0087619D03*
X0139232Y0087602D03*
X0126748Y0079700D03*
X0121855Y0079748D03*
X0118836Y0083027D03*
X0139860Y0072830D03*
X0141662Y0064572D03*
X0141679Y0060330D03*
X0150538Y0059122D03*
X0158309Y0067329D03*
X0158291Y0078768D03*
X0166908Y0091078D03*
X0166823Y0096473D03*
X0172968Y0103512D03*
X0193007Y0101297D03*
X0193364Y0089921D03*
X0192346Y0050317D03*
X0192464Y0039384D03*
X0192531Y0029022D03*
X0183175Y0029069D03*
X0172838Y0029022D03*
X0162973Y0028842D03*
X0151499Y0017417D03*
X0151756Y0005106D03*
X0141550Y0005050D03*
X0133385Y0010536D03*
X0129223Y0005219D03*
X0116346Y0028594D03*
X0107173Y0031239D03*
X0094064Y0030441D03*
X0089991Y0030450D03*
X0081492Y0040479D03*
X0078744Y0037713D03*
X0070357Y0040560D03*
X0071914Y0048412D03*
X0068285Y0051098D03*
X0068310Y0055399D03*
X0074545Y0053618D03*
X0079151Y0053657D03*
X0067739Y0074424D03*
X0095746Y0014628D03*
X0126162Y0034842D03*
X0153462Y0043834D03*
X0053924Y0012535D03*
X0099458Y0167186D03*
D11*
X0095268Y0102804D03*
X0085268Y0102804D03*
D12*
X0077648Y0095184D01*
X0077648Y0086873D01*
X0079151Y0085370D01*
X0079151Y0053657D01*
X0077262Y0053720D02*
X0076434Y0053720D01*
X0076434Y0054318D02*
X0077262Y0054318D01*
X0077262Y0054440D02*
X0077262Y0052875D01*
X0078369Y0051768D01*
X0079933Y0051768D01*
X0081040Y0052875D01*
X0081040Y0054440D01*
X0080251Y0055229D01*
X0080251Y0085766D01*
X0080319Y0085766D01*
X0081426Y0086873D01*
X0081426Y0088015D01*
X0082943Y0089568D01*
X0093036Y0099661D01*
X0093115Y0099582D01*
X0094512Y0099004D01*
X0096024Y0099004D01*
X0097420Y0099582D01*
X0098489Y0100651D01*
X0099068Y0102048D01*
X0099068Y0103560D01*
X0098523Y0104875D01*
X0116755Y0104822D01*
X0116484Y0104551D01*
X0116484Y0104551D01*
X0115840Y0103907D01*
X0115840Y0103211D01*
X0115051Y0102422D01*
X0115051Y0100858D01*
X0116158Y0099751D01*
X0117723Y0099751D01*
X0118829Y0100858D01*
X0118829Y0102422D01*
X0118148Y0103103D01*
X0119857Y0104813D01*
X0167346Y0104674D01*
X0167505Y0104872D01*
X0171860Y0100557D01*
X0171999Y0091825D01*
X0161626Y0081491D01*
X0161556Y0044666D01*
X0143621Y0026731D01*
X0117181Y0026757D01*
X0118235Y0027812D01*
X0118235Y0029376D01*
X0117129Y0030483D01*
X0115564Y0030483D01*
X0114458Y0029376D01*
X0114458Y0027812D01*
X0115510Y0026759D01*
X0090390Y0026783D01*
X0080000Y0032752D01*
X0071039Y0038671D01*
X0071139Y0038671D01*
X0072246Y0039778D01*
X0072246Y0041342D01*
X0071139Y0042449D01*
X0069574Y0042449D01*
X0068468Y0041342D01*
X0068468Y0040369D01*
X0066434Y0041713D01*
X0066434Y0050278D01*
X0067502Y0049209D01*
X0069067Y0049209D01*
X0070174Y0050316D01*
X0070174Y0051881D01*
X0069067Y0052987D01*
X0067502Y0052987D01*
X0066434Y0051918D01*
X0066434Y0054604D01*
X0067528Y0053510D01*
X0069092Y0053510D01*
X0070199Y0054617D01*
X0070199Y0056182D01*
X0069092Y0057288D01*
X0067528Y0057288D01*
X0066434Y0056194D01*
X0066434Y0073058D01*
X0066956Y0072535D01*
X0068521Y0072535D01*
X0069628Y0073642D01*
X0069628Y0075207D01*
X0068521Y0076313D01*
X0066956Y0076313D01*
X0066434Y0075791D01*
X0066434Y0096889D01*
X0065915Y0097407D01*
X0065993Y0104233D01*
X0066263Y0104969D01*
X0067693Y0104965D01*
X0066802Y0104074D01*
X0066802Y0102509D01*
X0067908Y0101402D01*
X0069473Y0101402D01*
X0070580Y0102509D01*
X0070580Y0104074D01*
X0069694Y0104959D01*
X0082032Y0104923D01*
X0081468Y0103560D01*
X0081468Y0102048D01*
X0081904Y0100995D01*
X0077192Y0096284D01*
X0076548Y0095640D01*
X0076548Y0086417D01*
X0077192Y0085773D01*
X0078051Y0084914D01*
X0078051Y0055229D01*
X0077262Y0054440D01*
X0077739Y0054917D02*
X0075917Y0054917D01*
X0076434Y0054400D02*
X0075327Y0055507D01*
X0073762Y0055507D01*
X0072656Y0054400D01*
X0072656Y0052835D01*
X0073762Y0051729D01*
X0075327Y0051729D01*
X0076434Y0052835D01*
X0076434Y0054400D01*
X0076434Y0053121D02*
X0077262Y0053121D01*
X0077614Y0052523D02*
X0076121Y0052523D01*
X0075523Y0051924D02*
X0078213Y0051924D01*
X0080090Y0051924D02*
X0161570Y0051924D01*
X0161568Y0051326D02*
X0070174Y0051326D01*
X0070174Y0050727D02*
X0161567Y0050727D01*
X0161566Y0050129D02*
X0069987Y0050129D01*
X0069388Y0049530D02*
X0161565Y0049530D01*
X0161564Y0048932D02*
X0066434Y0048932D01*
X0066434Y0049530D02*
X0067181Y0049530D01*
X0066583Y0050129D02*
X0066434Y0050129D01*
X0066434Y0051924D02*
X0066440Y0051924D01*
X0066434Y0052523D02*
X0067038Y0052523D01*
X0066434Y0053121D02*
X0072656Y0053121D01*
X0072656Y0053720D02*
X0069302Y0053720D01*
X0069900Y0054318D02*
X0072656Y0054318D01*
X0073172Y0054917D02*
X0070199Y0054917D01*
X0070199Y0055515D02*
X0078051Y0055515D01*
X0078051Y0056114D02*
X0070199Y0056114D01*
X0069668Y0056712D02*
X0078051Y0056712D01*
X0078051Y0057311D02*
X0066434Y0057311D01*
X0066434Y0057909D02*
X0078051Y0057909D01*
X0078051Y0058508D02*
X0066434Y0058508D01*
X0066434Y0059106D02*
X0078051Y0059106D01*
X0078051Y0059705D02*
X0066434Y0059705D01*
X0066434Y0060303D02*
X0078051Y0060303D01*
X0078051Y0060902D02*
X0066434Y0060902D01*
X0066434Y0061500D02*
X0078051Y0061500D01*
X0078051Y0062099D02*
X0066434Y0062099D01*
X0066434Y0062697D02*
X0078051Y0062697D01*
X0078051Y0063296D02*
X0066434Y0063296D01*
X0066434Y0063894D02*
X0078051Y0063894D01*
X0078051Y0064493D02*
X0066434Y0064493D01*
X0066434Y0065092D02*
X0078051Y0065092D01*
X0078051Y0065690D02*
X0066434Y0065690D01*
X0066434Y0066289D02*
X0078051Y0066289D01*
X0078051Y0066887D02*
X0066434Y0066887D01*
X0066434Y0067486D02*
X0078051Y0067486D01*
X0078051Y0068084D02*
X0066434Y0068084D01*
X0066434Y0068683D02*
X0078051Y0068683D01*
X0078051Y0069281D02*
X0066434Y0069281D01*
X0066434Y0069880D02*
X0078051Y0069880D01*
X0078051Y0070478D02*
X0066434Y0070478D01*
X0066434Y0071077D02*
X0078051Y0071077D01*
X0078051Y0071675D02*
X0066434Y0071675D01*
X0066434Y0072274D02*
X0078051Y0072274D01*
X0078051Y0072872D02*
X0068858Y0072872D01*
X0069457Y0073471D02*
X0078051Y0073471D01*
X0078051Y0074069D02*
X0069628Y0074069D01*
X0069628Y0074668D02*
X0078051Y0074668D01*
X0078051Y0075266D02*
X0069568Y0075266D01*
X0068969Y0075865D02*
X0078051Y0075865D01*
X0078051Y0076463D02*
X0066434Y0076463D01*
X0066434Y0075865D02*
X0066508Y0075865D01*
X0066434Y0077062D02*
X0078051Y0077062D01*
X0078051Y0077660D02*
X0066434Y0077660D01*
X0066434Y0078259D02*
X0078051Y0078259D01*
X0078051Y0078857D02*
X0066434Y0078857D01*
X0066434Y0079456D02*
X0078051Y0079456D01*
X0078051Y0080054D02*
X0066434Y0080054D01*
X0066434Y0080653D02*
X0078051Y0080653D01*
X0078051Y0081251D02*
X0066434Y0081251D01*
X0066434Y0081850D02*
X0078051Y0081850D01*
X0078051Y0082448D02*
X0066434Y0082448D01*
X0066434Y0083047D02*
X0078051Y0083047D01*
X0078051Y0083645D02*
X0066434Y0083645D01*
X0066434Y0084244D02*
X0078051Y0084244D01*
X0078051Y0084842D02*
X0066434Y0084842D01*
X0066434Y0085441D02*
X0077524Y0085441D01*
X0076926Y0086039D02*
X0066434Y0086039D01*
X0066434Y0086638D02*
X0076548Y0086638D01*
X0076548Y0087236D02*
X0066434Y0087236D01*
X0066434Y0087835D02*
X0076548Y0087835D01*
X0076548Y0088433D02*
X0066434Y0088433D01*
X0066434Y0089032D02*
X0076548Y0089032D01*
X0076548Y0089630D02*
X0066434Y0089630D01*
X0066434Y0090229D02*
X0076548Y0090229D01*
X0076548Y0090827D02*
X0066434Y0090827D01*
X0066434Y0091426D02*
X0076548Y0091426D01*
X0076548Y0092025D02*
X0066434Y0092025D01*
X0066434Y0092623D02*
X0076548Y0092623D01*
X0076548Y0093222D02*
X0066434Y0093222D01*
X0066434Y0093820D02*
X0076548Y0093820D01*
X0076548Y0094419D02*
X0066434Y0094419D01*
X0066434Y0095017D02*
X0076548Y0095017D01*
X0076548Y0095616D02*
X0066434Y0095616D01*
X0066434Y0096214D02*
X0077122Y0096214D01*
X0077078Y0096941D02*
X0078074Y0097937D01*
X0078074Y0099345D01*
X0077078Y0100341D01*
X0075670Y0100341D01*
X0074674Y0099345D01*
X0074674Y0097937D01*
X0075670Y0096941D01*
X0077078Y0096941D01*
X0077721Y0096813D02*
X0066434Y0096813D01*
X0065915Y0097411D02*
X0075200Y0097411D01*
X0074674Y0098010D02*
X0065922Y0098010D01*
X0065929Y0098608D02*
X0074674Y0098608D01*
X0074674Y0099207D02*
X0065936Y0099207D01*
X0065942Y0099805D02*
X0075134Y0099805D01*
X0077614Y0099805D02*
X0080713Y0099805D01*
X0080115Y0099207D02*
X0078074Y0099207D01*
X0078074Y0098608D02*
X0079516Y0098608D01*
X0078918Y0098010D02*
X0078074Y0098010D01*
X0078319Y0097411D02*
X0077548Y0097411D01*
X0081312Y0100404D02*
X0065949Y0100404D01*
X0065956Y0101002D02*
X0081901Y0101002D01*
X0081653Y0101601D02*
X0069672Y0101601D01*
X0070270Y0102199D02*
X0081468Y0102199D01*
X0081468Y0102798D02*
X0070580Y0102798D01*
X0070580Y0103396D02*
X0081468Y0103396D01*
X0081648Y0103995D02*
X0070580Y0103995D01*
X0070060Y0104593D02*
X0081896Y0104593D01*
X0090188Y0096813D02*
X0102065Y0096813D01*
X0102065Y0097411D02*
X0090786Y0097411D01*
X0091385Y0098010D02*
X0102564Y0098010D01*
X0102065Y0097510D02*
X0103172Y0098617D01*
X0104737Y0098617D01*
X0105843Y0097510D01*
X0105843Y0095946D01*
X0104737Y0094839D01*
X0103172Y0094839D01*
X0102065Y0095946D01*
X0102065Y0097510D01*
X0102065Y0096214D02*
X0089589Y0096214D01*
X0088991Y0095616D02*
X0102395Y0095616D01*
X0102994Y0095017D02*
X0088392Y0095017D01*
X0087793Y0094419D02*
X0171958Y0094419D01*
X0171948Y0095017D02*
X0104915Y0095017D01*
X0105513Y0095616D02*
X0110613Y0095616D01*
X0110618Y0095611D02*
X0112183Y0095611D01*
X0113290Y0096717D01*
X0113290Y0098282D01*
X0112183Y0099389D01*
X0110618Y0099389D01*
X0109512Y0098282D01*
X0109512Y0096717D01*
X0110618Y0095611D01*
X0110015Y0096214D02*
X0105843Y0096214D01*
X0105843Y0096813D02*
X0109512Y0096813D01*
X0109512Y0097411D02*
X0105843Y0097411D01*
X0105344Y0098010D02*
X0109512Y0098010D01*
X0109838Y0098608D02*
X0104746Y0098608D01*
X0103163Y0098608D02*
X0091983Y0098608D01*
X0092582Y0099207D02*
X0094022Y0099207D01*
X0096513Y0099207D02*
X0110436Y0099207D01*
X0112365Y0099207D02*
X0171881Y0099207D01*
X0171872Y0099805D02*
X0117777Y0099805D01*
X0118375Y0100404D02*
X0121980Y0100404D01*
X0122306Y0100077D02*
X0123871Y0100077D01*
X0124978Y0101184D01*
X0124978Y0102749D01*
X0123871Y0103855D01*
X0122306Y0103855D01*
X0121200Y0102749D01*
X0121200Y0101184D01*
X0122306Y0100077D01*
X0121382Y0101002D02*
X0118829Y0101002D01*
X0118829Y0101601D02*
X0121200Y0101601D01*
X0121200Y0102199D02*
X0118829Y0102199D01*
X0118454Y0102798D02*
X0121248Y0102798D01*
X0121847Y0103396D02*
X0118441Y0103396D01*
X0119039Y0103995D02*
X0168391Y0103995D01*
X0168995Y0103396D02*
X0124330Y0103396D01*
X0124929Y0102798D02*
X0169599Y0102798D01*
X0170203Y0102199D02*
X0124978Y0102199D01*
X0124978Y0101601D02*
X0170807Y0101601D01*
X0171411Y0101002D02*
X0124796Y0101002D01*
X0124197Y0100404D02*
X0171862Y0100404D01*
X0171891Y0098608D02*
X0112963Y0098608D01*
X0113290Y0098010D02*
X0171901Y0098010D01*
X0171910Y0097411D02*
X0113290Y0097411D01*
X0113290Y0096813D02*
X0171920Y0096813D01*
X0171929Y0096214D02*
X0112787Y0096214D01*
X0112188Y0095616D02*
X0171939Y0095616D01*
X0171967Y0093820D02*
X0087195Y0093820D01*
X0086596Y0093222D02*
X0171977Y0093222D01*
X0171986Y0092623D02*
X0168034Y0092623D01*
X0167690Y0092967D02*
X0166126Y0092967D01*
X0165019Y0091860D01*
X0165019Y0090295D01*
X0166126Y0089189D01*
X0167690Y0089189D01*
X0168797Y0090295D01*
X0168797Y0091860D01*
X0167690Y0092967D01*
X0168633Y0092025D02*
X0171996Y0092025D01*
X0171599Y0091426D02*
X0168797Y0091426D01*
X0168797Y0090827D02*
X0170998Y0090827D01*
X0170397Y0090229D02*
X0168731Y0090229D01*
X0168132Y0089630D02*
X0169796Y0089630D01*
X0169195Y0089032D02*
X0136632Y0089032D01*
X0136157Y0089508D02*
X0134592Y0089508D01*
X0133485Y0088401D01*
X0133485Y0086836D01*
X0134592Y0085730D01*
X0136157Y0085730D01*
X0137263Y0086836D01*
X0137263Y0088401D01*
X0136157Y0089508D01*
X0137231Y0088433D02*
X0168595Y0088433D01*
X0167994Y0087835D02*
X0137263Y0087835D01*
X0137263Y0087236D02*
X0167393Y0087236D01*
X0166792Y0086638D02*
X0137065Y0086638D01*
X0136466Y0086039D02*
X0166191Y0086039D01*
X0165591Y0085441D02*
X0080251Y0085441D01*
X0080251Y0084842D02*
X0095793Y0084842D01*
X0096055Y0085105D02*
X0094949Y0083998D01*
X0094949Y0082433D01*
X0096055Y0081327D01*
X0097620Y0081327D01*
X0098727Y0082433D01*
X0098727Y0083998D01*
X0097620Y0085105D01*
X0096055Y0085105D01*
X0095194Y0084244D02*
X0080251Y0084244D01*
X0080251Y0083645D02*
X0094949Y0083645D01*
X0094949Y0083047D02*
X0080251Y0083047D01*
X0080251Y0082448D02*
X0094949Y0082448D01*
X0095533Y0081850D02*
X0080251Y0081850D01*
X0080251Y0081251D02*
X0120688Y0081251D01*
X0121073Y0081637D02*
X0119966Y0080530D01*
X0119966Y0078965D01*
X0121073Y0077859D01*
X0122638Y0077859D01*
X0123744Y0078965D01*
X0123744Y0080530D01*
X0122638Y0081637D01*
X0121073Y0081637D01*
X0120089Y0080653D02*
X0080251Y0080653D01*
X0080251Y0080054D02*
X0119966Y0080054D01*
X0119966Y0079456D02*
X0080251Y0079456D01*
X0080251Y0078857D02*
X0120074Y0078857D01*
X0120673Y0078259D02*
X0080251Y0078259D01*
X0080251Y0077660D02*
X0161619Y0077660D01*
X0161618Y0077062D02*
X0080251Y0077062D01*
X0080251Y0076463D02*
X0161616Y0076463D01*
X0161615Y0075865D02*
X0080251Y0075865D01*
X0080251Y0075266D02*
X0161614Y0075266D01*
X0161613Y0074668D02*
X0140694Y0074668D01*
X0140642Y0074719D02*
X0139077Y0074719D01*
X0137971Y0073613D01*
X0137971Y0072048D01*
X0139077Y0070941D01*
X0140642Y0070941D01*
X0141749Y0072048D01*
X0141749Y0073613D01*
X0140642Y0074719D01*
X0141292Y0074069D02*
X0161612Y0074069D01*
X0161611Y0073471D02*
X0141749Y0073471D01*
X0141749Y0072872D02*
X0161610Y0072872D01*
X0161608Y0072274D02*
X0141749Y0072274D01*
X0141376Y0071675D02*
X0161607Y0071675D01*
X0161606Y0071077D02*
X0140777Y0071077D01*
X0138942Y0071077D02*
X0080251Y0071077D01*
X0080251Y0071675D02*
X0138344Y0071675D01*
X0137971Y0072274D02*
X0080251Y0072274D01*
X0080251Y0072872D02*
X0137971Y0072872D01*
X0137971Y0073471D02*
X0080251Y0073471D01*
X0080251Y0074069D02*
X0138427Y0074069D01*
X0139026Y0074668D02*
X0080251Y0074668D01*
X0080251Y0070478D02*
X0161605Y0070478D01*
X0161604Y0069880D02*
X0080251Y0069880D01*
X0080251Y0069281D02*
X0161603Y0069281D01*
X0161602Y0068683D02*
X0159626Y0068683D01*
X0159091Y0069218D02*
X0160198Y0068111D01*
X0160198Y0066547D01*
X0159091Y0065440D01*
X0157526Y0065440D01*
X0156420Y0066547D01*
X0156420Y0068111D01*
X0157526Y0069218D01*
X0159091Y0069218D01*
X0160198Y0068084D02*
X0161600Y0068084D01*
X0161599Y0067486D02*
X0160198Y0067486D01*
X0160198Y0066887D02*
X0161598Y0066887D01*
X0161597Y0066289D02*
X0159940Y0066289D01*
X0159341Y0065690D02*
X0161596Y0065690D01*
X0161595Y0065092D02*
X0143551Y0065092D01*
X0143551Y0065354D02*
X0142445Y0066461D01*
X0140880Y0066461D01*
X0139773Y0065354D01*
X0139773Y0063789D01*
X0140880Y0062683D01*
X0142445Y0062683D01*
X0143551Y0063789D01*
X0143551Y0065354D01*
X0143215Y0065690D02*
X0157276Y0065690D01*
X0156678Y0066289D02*
X0142617Y0066289D01*
X0140708Y0066289D02*
X0080251Y0066289D01*
X0080251Y0066887D02*
X0156420Y0066887D01*
X0156420Y0067486D02*
X0080251Y0067486D01*
X0080251Y0068084D02*
X0156420Y0068084D01*
X0156991Y0068683D02*
X0080251Y0068683D01*
X0080251Y0065690D02*
X0140109Y0065690D01*
X0139773Y0065092D02*
X0080251Y0065092D01*
X0080251Y0064493D02*
X0139773Y0064493D01*
X0139773Y0063894D02*
X0080251Y0063894D01*
X0080251Y0063296D02*
X0140267Y0063296D01*
X0140865Y0062697D02*
X0080251Y0062697D01*
X0080251Y0062099D02*
X0140776Y0062099D01*
X0140896Y0062219D02*
X0139790Y0061112D01*
X0139790Y0059548D01*
X0140896Y0058441D01*
X0142461Y0058441D01*
X0143568Y0059548D01*
X0143568Y0061112D01*
X0142461Y0062219D01*
X0140896Y0062219D01*
X0140178Y0061500D02*
X0080251Y0061500D01*
X0080251Y0060902D02*
X0139790Y0060902D01*
X0139790Y0060303D02*
X0080251Y0060303D01*
X0080251Y0059705D02*
X0139790Y0059705D01*
X0140231Y0059106D02*
X0080251Y0059106D01*
X0080251Y0058508D02*
X0140829Y0058508D01*
X0142528Y0058508D02*
X0161582Y0058508D01*
X0161583Y0059106D02*
X0143126Y0059106D01*
X0143568Y0059705D02*
X0161584Y0059705D01*
X0161586Y0060303D02*
X0143568Y0060303D01*
X0143568Y0060902D02*
X0161587Y0060902D01*
X0161588Y0061500D02*
X0143180Y0061500D01*
X0142581Y0062099D02*
X0161589Y0062099D01*
X0161590Y0062697D02*
X0142460Y0062697D01*
X0143058Y0063296D02*
X0161591Y0063296D01*
X0161592Y0063894D02*
X0143551Y0063894D01*
X0143551Y0064493D02*
X0161594Y0064493D01*
X0161581Y0057909D02*
X0080251Y0057909D01*
X0080251Y0057311D02*
X0161580Y0057311D01*
X0161579Y0056712D02*
X0080251Y0056712D01*
X0080251Y0056114D02*
X0161578Y0056114D01*
X0161576Y0055515D02*
X0080251Y0055515D01*
X0080563Y0054917D02*
X0161575Y0054917D01*
X0161574Y0054318D02*
X0081040Y0054318D01*
X0081040Y0053720D02*
X0161573Y0053720D01*
X0161572Y0053121D02*
X0081040Y0053121D01*
X0080688Y0052523D02*
X0161571Y0052523D01*
X0161563Y0048333D02*
X0066434Y0048333D01*
X0066434Y0047735D02*
X0161562Y0047735D01*
X0161560Y0047136D02*
X0066434Y0047136D01*
X0066434Y0046538D02*
X0161559Y0046538D01*
X0161558Y0045939D02*
X0066434Y0045939D01*
X0066434Y0045341D02*
X0152297Y0045341D01*
X0152679Y0045723D02*
X0151573Y0044617D01*
X0151573Y0043052D01*
X0152679Y0041945D01*
X0154244Y0041945D01*
X0155351Y0043052D01*
X0155351Y0044617D01*
X0154244Y0045723D01*
X0152679Y0045723D01*
X0151698Y0044742D02*
X0066434Y0044742D01*
X0066434Y0044144D02*
X0151573Y0044144D01*
X0151573Y0043545D02*
X0066434Y0043545D01*
X0066434Y0042947D02*
X0151678Y0042947D01*
X0152276Y0042348D02*
X0082295Y0042348D01*
X0082275Y0042368D02*
X0080710Y0042368D01*
X0079603Y0041261D01*
X0079603Y0039696D01*
X0080710Y0038590D01*
X0082275Y0038590D01*
X0083381Y0039696D01*
X0083381Y0041261D01*
X0082275Y0042368D01*
X0082893Y0041750D02*
X0158639Y0041750D01*
X0159238Y0042348D02*
X0154647Y0042348D01*
X0155246Y0042947D02*
X0159836Y0042947D01*
X0160435Y0043545D02*
X0155351Y0043545D01*
X0155351Y0044144D02*
X0161033Y0044144D01*
X0161556Y0044742D02*
X0155225Y0044742D01*
X0154627Y0045341D02*
X0161557Y0045341D01*
X0158041Y0041151D02*
X0083381Y0041151D01*
X0083381Y0040553D02*
X0157442Y0040553D01*
X0156844Y0039954D02*
X0083381Y0039954D01*
X0083041Y0039356D02*
X0156245Y0039356D01*
X0155647Y0038757D02*
X0082442Y0038757D01*
X0080543Y0038757D02*
X0071225Y0038757D01*
X0071815Y0038159D02*
X0155048Y0038159D01*
X0154450Y0037560D02*
X0072721Y0037560D01*
X0073627Y0036961D02*
X0153851Y0036961D01*
X0153253Y0036363D02*
X0074533Y0036363D01*
X0075439Y0035764D02*
X0152654Y0035764D01*
X0152056Y0035166D02*
X0076345Y0035166D01*
X0077251Y0034567D02*
X0151457Y0034567D01*
X0150859Y0033969D02*
X0078157Y0033969D01*
X0079063Y0033370D02*
X0150260Y0033370D01*
X0149662Y0032772D02*
X0079970Y0032772D01*
X0081007Y0032173D02*
X0093126Y0032173D01*
X0093282Y0032330D02*
X0092175Y0031223D01*
X0092175Y0029658D01*
X0093282Y0028552D01*
X0094847Y0028552D01*
X0095953Y0029658D01*
X0095953Y0031223D01*
X0094847Y0032330D01*
X0093282Y0032330D01*
X0092527Y0031575D02*
X0082049Y0031575D01*
X0083091Y0030976D02*
X0092175Y0030976D01*
X0092175Y0030378D02*
X0084132Y0030378D01*
X0085174Y0029779D02*
X0092175Y0029779D01*
X0092653Y0029181D02*
X0086216Y0029181D01*
X0087258Y0028582D02*
X0093251Y0028582D01*
X0094878Y0028582D02*
X0114458Y0028582D01*
X0114458Y0027984D02*
X0088300Y0027984D01*
X0089342Y0027385D02*
X0114884Y0027385D01*
X0115482Y0026787D02*
X0090383Y0026787D01*
X0090096Y0025683D02*
X0065334Y0039909D01*
X0065334Y0096433D01*
X0057000Y0104767D01*
X0047159Y0104767D01*
X0026250Y0125676D01*
X0026250Y0171427D01*
X0034994Y0180170D01*
X0164518Y0180170D01*
X0173740Y0170949D01*
X0173740Y0114269D01*
X0169545Y0110073D01*
X0123563Y0110073D01*
X0116940Y0103451D01*
X0116940Y0101640D01*
X0115051Y0101601D02*
X0098882Y0101601D01*
X0099068Y0102199D02*
X0115051Y0102199D01*
X0115426Y0102798D02*
X0099068Y0102798D01*
X0099068Y0103396D02*
X0115840Y0103396D01*
X0115928Y0103995D02*
X0098888Y0103995D01*
X0098640Y0104593D02*
X0116527Y0104593D01*
X0119638Y0104593D02*
X0167787Y0104593D01*
X0165782Y0092623D02*
X0085998Y0092623D01*
X0085399Y0092025D02*
X0165183Y0092025D01*
X0165019Y0091426D02*
X0084801Y0091426D01*
X0084202Y0090827D02*
X0165019Y0090827D01*
X0165085Y0090229D02*
X0083604Y0090229D01*
X0083005Y0089630D02*
X0165684Y0089630D01*
X0164990Y0084842D02*
X0097883Y0084842D01*
X0098481Y0084244D02*
X0164389Y0084244D01*
X0163788Y0083645D02*
X0098727Y0083645D01*
X0098727Y0083047D02*
X0163187Y0083047D01*
X0162587Y0082448D02*
X0098727Y0082448D01*
X0098143Y0081850D02*
X0161986Y0081850D01*
X0161626Y0081251D02*
X0127869Y0081251D01*
X0127531Y0081589D02*
X0128637Y0080483D01*
X0128637Y0078918D01*
X0127531Y0077811D01*
X0125966Y0077811D01*
X0124859Y0078918D01*
X0124859Y0080483D01*
X0125966Y0081589D01*
X0127531Y0081589D01*
X0128467Y0080653D02*
X0161624Y0080653D01*
X0161623Y0080054D02*
X0128637Y0080054D01*
X0128637Y0079456D02*
X0161622Y0079456D01*
X0161621Y0078857D02*
X0128577Y0078857D01*
X0127978Y0078259D02*
X0161620Y0078259D01*
X0158689Y0079261D02*
X0158291Y0078768D01*
X0151868Y0059122D02*
X0150538Y0059122D01*
X0125628Y0081251D02*
X0123023Y0081251D01*
X0123622Y0080653D02*
X0125029Y0080653D01*
X0124859Y0080054D02*
X0123744Y0080054D01*
X0123744Y0079456D02*
X0124859Y0079456D01*
X0124920Y0078857D02*
X0123636Y0078857D01*
X0123038Y0078259D02*
X0125519Y0078259D01*
X0119938Y0082870D02*
X0118836Y0083027D01*
X0133485Y0087236D02*
X0081426Y0087236D01*
X0081426Y0087835D02*
X0133485Y0087835D01*
X0133518Y0088433D02*
X0081835Y0088433D01*
X0082419Y0089032D02*
X0134116Y0089032D01*
X0133684Y0086638D02*
X0081191Y0086638D01*
X0080592Y0086039D02*
X0134282Y0086039D01*
X0139232Y0087602D02*
X0139437Y0087526D01*
X0116104Y0099805D02*
X0097643Y0099805D01*
X0098242Y0100404D02*
X0115505Y0100404D01*
X0115051Y0101002D02*
X0098635Y0101002D01*
X0095268Y0102804D02*
X0094623Y0102804D01*
X0082160Y0090341D01*
X0079537Y0087655D01*
X0090057Y0083716D02*
X0090532Y0084192D01*
X0097291Y0089130D02*
X0097291Y0089687D01*
X0067710Y0101601D02*
X0065963Y0101601D01*
X0065970Y0102199D02*
X0067111Y0102199D01*
X0066802Y0102798D02*
X0065977Y0102798D01*
X0065983Y0103396D02*
X0066802Y0103396D01*
X0066802Y0103995D02*
X0065990Y0103995D01*
X0066125Y0104593D02*
X0067322Y0104593D01*
X0063169Y0095746D02*
X0056291Y0102623D01*
X0046341Y0102623D01*
X0023982Y0124982D01*
X0023982Y0172097D01*
X0034152Y0182267D01*
X0165613Y0182267D01*
X0176128Y0171752D01*
X0176128Y0057683D01*
X0144076Y0025631D01*
X0090096Y0025683D01*
X0090509Y0023615D02*
X0063214Y0038679D01*
X0063169Y0095746D01*
X0061206Y0094937D02*
X0055525Y0100618D01*
X0045567Y0100618D01*
X0021517Y0124668D01*
X0021517Y0172626D01*
X0033301Y0184411D01*
X0165970Y0184411D01*
X0178476Y0171904D01*
X0178476Y0057527D01*
X0144555Y0023605D01*
X0090509Y0023615D01*
X0091109Y0021280D02*
X0061229Y0037865D01*
X0061206Y0094937D01*
X0058992Y0094050D02*
X0054629Y0098429D01*
X0044426Y0098457D01*
X0018802Y0124047D01*
X0018819Y0173591D01*
X0032432Y0187184D01*
X0166320Y0187184D01*
X0181342Y0172162D01*
X0181342Y0058121D01*
X0144548Y0021328D01*
X0091109Y0021280D01*
X0091333Y0019105D02*
X0059038Y0037037D01*
X0058992Y0094050D01*
X0056824Y0093643D02*
X0054031Y0096437D01*
X0043208Y0096437D01*
X0016013Y0123632D01*
X0016013Y0174055D01*
X0031676Y0189718D01*
X0167247Y0189718D01*
X0184164Y0172802D01*
X0184164Y0057999D01*
X0145270Y0019105D01*
X0091333Y0019105D01*
X0095746Y0014628D02*
X0056824Y0036351D01*
X0056824Y0093643D01*
X0066434Y0072872D02*
X0066619Y0072872D01*
X0066434Y0056712D02*
X0066952Y0056712D01*
X0066719Y0054318D02*
X0066434Y0054318D01*
X0066434Y0053720D02*
X0067318Y0053720D01*
X0069532Y0052523D02*
X0072968Y0052523D01*
X0073567Y0051924D02*
X0070130Y0051924D01*
X0071914Y0048412D02*
X0073090Y0048412D01*
X0071240Y0042348D02*
X0080690Y0042348D01*
X0080092Y0041750D02*
X0071839Y0041750D01*
X0072246Y0041151D02*
X0079603Y0041151D01*
X0079603Y0040553D02*
X0072246Y0040553D01*
X0072246Y0039954D02*
X0079603Y0039954D01*
X0079944Y0039356D02*
X0071824Y0039356D01*
X0068468Y0040553D02*
X0068190Y0040553D01*
X0068468Y0041151D02*
X0067284Y0041151D01*
X0066434Y0041750D02*
X0068875Y0041750D01*
X0069473Y0042348D02*
X0066434Y0042348D01*
X0078496Y0037412D02*
X0078744Y0037713D01*
X0089991Y0030450D02*
X0090416Y0030194D01*
X0095003Y0032173D02*
X0149063Y0032173D01*
X0148465Y0031575D02*
X0095602Y0031575D01*
X0095953Y0030976D02*
X0147866Y0030976D01*
X0147267Y0030378D02*
X0117234Y0030378D01*
X0117833Y0029779D02*
X0146669Y0029779D01*
X0146070Y0029181D02*
X0118235Y0029181D01*
X0118235Y0028582D02*
X0145472Y0028582D01*
X0144873Y0027984D02*
X0118235Y0027984D01*
X0117809Y0027385D02*
X0144275Y0027385D01*
X0143676Y0026787D02*
X0117211Y0026787D01*
X0114458Y0029181D02*
X0095476Y0029181D01*
X0095953Y0029779D02*
X0114860Y0029779D01*
X0115459Y0030378D02*
X0095953Y0030378D01*
X0107155Y0030321D02*
X0107173Y0031239D01*
X0126162Y0033651D02*
X0126162Y0034842D01*
D13*
X0166823Y0096473D02*
X0166681Y0097592D01*
D14*
X0076374Y0098641D03*
M02*
