%
M48
M72
T01C0.01378
T02C0.03937
T03C0.04000
T04C0.15748
%
T01
X7304Y11479
X7304Y19353
X7304Y27227
X7304Y35101
X7304Y42975
X7304Y50849
X7304Y58723
X7304Y66597
X7304Y74471
X7304Y82345
X30926Y74471
X30926Y66597
X30926Y58723
X30926Y50849
X30926Y42975
X30926Y35101
X30926Y27227
X30926Y19353
X30926Y11479
X53529Y12535
X53318Y25043
X53236Y36452
X52947Y47703
X52921Y57580
X52921Y67865
X52725Y76877
X52493Y91104
X68296Y103291
X89661Y83716
X96443Y83216
X96896Y89130
X103559Y96728
X111005Y97500
X116545Y101640
X122694Y101966
X134979Y87619
X139247Y87573
X126353Y79700
X127024Y77073
X124055Y81578
X121118Y79514
X119150Y81759
X118441Y84355
X141267Y64572
X141283Y60330
X138024Y60052
X136420Y57869
X139491Y55823
X150143Y59122
X157913Y67329
X157896Y78768
X166513Y91078
X166428Y96473
X172573Y103512
X192612Y101297
X192969Y89921
X191951Y50317
X192069Y39384
X192135Y29022
X182780Y29069
X172442Y29022
X162577Y28842
X151104Y17417
X151361Y5106
X141155Y5050
X132990Y10536
X128078Y11753
X125293Y14112
X128828Y5219
X115039Y14138
X113589Y11771
X101298Y15299
X104453Y28582
X106778Y31239
X111068Y30994
X111276Y37583
X115190Y37938
X117079Y35103
X125055Y38214
X125767Y34842
X130808Y30916
X137258Y30034
X153067Y43834
X93669Y30441
X89596Y30450
X83269Y38774
X81097Y40479
X77559Y36762
X80796Y35414
X69441Y40536
X71519Y48412
X67890Y51098
X67915Y55399
X74150Y53618
X78756Y53657
X67343Y74424
X83316Y11624
X193200Y167849
T02
X190496Y127465
X190496Y95969
T03
X167033Y123507
X157033Y123507
X147033Y123507
X137033Y123507
X127033Y123507
X117033Y123507
X107033Y123507
X97033Y123507
X87033Y123507
X77033Y123507
X67033Y123507
X57033Y123507
X47033Y123507
X37033Y123507
X137206Y134290
X147206Y134290
X157000Y134449
X167000Y134449
T04
X13600Y103449
M30
