%
M48
M72
T01C0.01000
T02C0.01378
%
T01
X76374Y98641
T02
X7699Y11479
X7699Y19353
X7699Y27227
X7699Y35101
X7699Y42975
X7699Y50849
X7699Y58723
X7699Y66597
X7699Y74471
X7699Y82345
X31321Y74471
X31321Y66597
X31321Y58723
X31321Y50849
X31321Y42975
X31321Y35101
X31321Y27227
X31321Y19353
X31321Y11479
X53924Y12535
X53713Y25043
X53631Y36452
X53342Y47703
X53316Y57580
X53316Y67865
X53120Y76877
X52888Y91104
X68691Y103291
X90057Y83716
X96838Y83216
X97291Y89130
X103954Y96728
X111401Y97500
X116940Y101640
X123089Y101966
X135374Y87619
X139232Y87602
X126748Y79700
X121855Y79748
X118836Y83027
X139860Y72830
X141662Y64572
X141679Y60330
X150538Y59122
X158309Y67329
X156631Y73972
X158291Y78768
X162396Y76311
X166908Y91078
X166823Y96473
X172968Y103512
X193007Y101297
X193364Y89921
X192346Y50317
X192464Y39384
X192531Y29022
X183175Y29069
X172838Y29022
X162973Y28842
X151499Y17417
X151756Y5106
X141550Y5050
X133385Y10536
X129223Y5219
X116346Y28594
X107173Y31239
X94064Y30441
X89991Y30450
X81492Y40479
X78744Y37713
X70357Y40560
X71914Y48412
X68285Y51098
X68310Y55399
X74545Y53618
X79151Y53657
X67739Y74424
X126162Y34842
X153462Y43834
X158417Y48595
X95746Y14628
X99458Y167186
M30
