%
M48
M72
T01C0.01378
%
T01
X7436Y11479
X7436Y19353
X7436Y27227
X7436Y35101
X7436Y42975
X7436Y50849
X7436Y58723
X7436Y66597
X7436Y74471
X7436Y82345
X31058Y74471
X31058Y66597
X31058Y58723
X31058Y50849
X31058Y42975
X31058Y35101
X31058Y27227
X31058Y19353
X31058Y11479
X53661Y12535
X53450Y25043
X53368Y36452
X53079Y47703
X53053Y57580
X53053Y67865
X52857Y76877
X52625Y91104
X68428Y103291
X89793Y83716
X96575Y83216
X97028Y89130
X103691Y96728
X111137Y97500
X116677Y101640
X122825Y101966
X132611Y102299
X135111Y87619
X138968Y87602
X126485Y79700
X121592Y79748
X118573Y83027
X139596Y72830
X141399Y64572
X141415Y60330
X150275Y59122
X158045Y67329
X156368Y73972
X158027Y78768
X162132Y76311
X166645Y91078
X166560Y96473
X172705Y103512
X192744Y101297
X193101Y89921
X192083Y50317
X192201Y39384
X192267Y29022
X182912Y29069
X172574Y29022
X162709Y28842
X151235Y17417
X151493Y5106
X141287Y5050
X133122Y10536
X128959Y5219
X116083Y28594
X106910Y31239
X93801Y30441
X89728Y30450
X81229Y40479
X78481Y37713
X70094Y40560
X71650Y48412
X68022Y51098
X68047Y55399
X74281Y53618
X78888Y53657
X69241Y75995
X99865Y121242
X158154Y48595
X153199Y43834
X125899Y34842
X95483Y14628
M30
